999
dxfrw 0.6.3
  0
SECTION
  2
HEADER
  9
$ACADVER
  1
AC1021
  9
$DWGCODEPAGE
  3
ANSI_1252
  9
$INSBASE
 10
0
 20
0
 30
0
  9
$EXTMIN
 10
10000000000
 20
10000000000
 30
0
  9
$EXTMAX
 10
-10000000000
 20
-10000000000
 30
0
  9
$LIMMIN
 10
0
 20
0
  9
$LIMMAX
 10
420
 20
297
  9
$ORTHOMODE
 70
    0
  9
$REGENMODE
 70
    1
  9
$FILLMODE
 70
    1
  9
$QTEXTMODE
 70
    0
  9
$MIRRTEXT
 70
    1
  9
$LTSCALE
 40
1
  9
$ATTMODE
 70
    1
  9
$TEXTSIZE
 40
2.5
  9
$TRACEWID
 40
1
  9
$TEXTSTYLE
  7
Standard
  9
$CLAYER
  8
0
  9
$CELTYPE
  6
ByLayer
  9
$CECOLOR
 62
  256
  9
$CELTSCALE
 40
1
  9
$DISPSILH
 70
    0
  9
$DIMSCALE
 40
1
  9
$DIMASZ
 40
2.5
  9
$DIMEXO
 40
0.625
  9
$DIMDLI
 40
3.75
  9
$DIMRND
 40
0
  9
$DIMDLE
 40
0
  9
$DIMEXE
 40
1.25
  9
$DIMTP
 40
0
  9
$DIMTM
 40
0
  9
$DIMTXT
 40
2.5
  9
$DIMCEN
 40
2.5
  9
$DIMTSZ
 40
0
  9
$DIMTOL
 70
    0
  9
$DIMLIM
 70
    0
  9
$DIMTIH
 70
    0
  9
$DIMTOH
 70
    0
  9
$DIMSE1
 70
    0
  9
$DIMSE2
 70
    0
  9
$DIMTAD
 70
    1
  9
$DIMZIN
 70
    8
  9
$DIMBLK
  1

  9
$DIMASO
 70
    1
  9
$DIMSHO
 70
    1
  9
$DIMPOST
  1

  9
$DIMAPOST
  1

  9
$DIMALT
 70
    0
  9
$DIMALTD
 70
    3
  9
$DIMALTF
 40
0.03937007874
  9
$DIMLFAC
 40
1
  9
$DIMTOFL
 70
    1
  9
$DIMTVP
 40
0
  9
$DIMTIX
 70
    0
  9
$DIMSOXD
 70
    0
  9
$DIMSAH
 70
    0
  9
$DIMBLK1
  1

  9
$DIMBLK2
  1

  9
$DIMSTYLE
  2
ISO-25
  9
$DIMCLRD
 70
    0
  9
$DIMCLRE
 70
    0
  9
$DIMCLRT
 70
    0
  9
$DIMTFAC
 40
1
  9
$DIMGAP
 40
0.625
  9
$DIMJUST
 70
    0
  9
$DIMSD1
 70
    0
  9
$DIMSD2
 70
    0
  9
$DIMTOLJ
 70
    0
  9
$DIMTZIN
 70
    8
  9
$DIMALTZ
 70
    0
  9
$DIMALTTZ
 70
    0
  9
$DIMUPT
 70
    0
  9
$DIMDEC
 70
    2
  9
$DIMTDEC
 70
    2
  9
$DIMALTU
 70
    2
  9
$DIMALTTD
 70
    3
  9
$DIMTXSTY
  7
Standard
  9
$DIMAUNIT
 70
    0
  9
$DIMADEC
 70
    0
  9
$DIMALTRND
 40
0
  9
$DIMAZIN
 70
    0
  9
$DIMDSEP
 70
   44
  9
$DIMATFIT
 70
    3
  9
$DIMFRAC
 70
    0
  9
$DIMLDRBLK
  1

  9
$DIMLUNIT
 70
    2
  9
$DIMLWD
 70
   -2
  9
$DIMLWE
 70
   -2
  9
$DIMTMOVE
 70
    0
  9
$DIMFXL
 40
1
  9
$DIMFXLON
 70
    0
  9
$DIMJOGANG
 40
0.785398163397
  9
$DIMTFILL
 70
    0
  9
$DIMTFILLCLR
 70
    0
  9
$DIMARCSYM
 70
    0
  9
$DIMLTYPE
  6

  9
$DIMLTEX1
  6

  9
$DIMLTEX2
  6

  9
$LUNITS
 70
    2
  9
$LUPREC
 70
    4
  9
$SKETCHINC
 40
1
  9
$FILLETRAD
 40
10
  9
$AUNITS
 70
    0
  9
$AUPREC
 70
    2
  9
$MENU
  1
.
  9
$ELEVATION
 40
0
  9
$PELEVATION
 40
0
  9
$THICKNESS
 40
0
  9
$LIMCHECK
 70
    0
  9
$CHAMFERA
 40
0
  9
$CHAMFERB
 40
0
  9
$CHAMFERC
 40
0
  9
$CHAMFERD
 40
0
  9
$SKPOLY
 70
    0
  9
$USRTIMER
 70
    1
  9
$ANGBASE
 50
0
  9
$ANGDIR
 70
    0
  9
$PDMODE
 70
    0
  9
$PDSIZE
 40
0
  9
$PLINEWID
 40
0
  9
$SPLFRAME
 70
    0
  9
$SPLINETYPE
 70
    6
  9
$SPLINESEGS
 70
    8
  9
$HANDSEED
  5
20000
  9
$SURFTAB1
 70
    6
  9
$SURFTAB2
 70
    6
  9
$SURFTYPE
 70
    6
  9
$SURFU
 70
    6
  9
$SURFV
 70
    6
  9
$UCSBASE
  2

  9
$UCSNAME
  2

  9
$UCSORG
 10
0
 20
0
 30
0
  9
$UCSXDIR
 10
1
 20
0
 30
0
  9
$UCSYDIR
 10
0
 20
1
 30
0
  9
$UCSORTHOREF
  2

  9
$UCSORTHOVIEW
 70
    0
  9
$UCSORGTOP
 10
0
 20
0
 30
0
  9
$UCSORGBOTTOM
 10
0
 20
0
 30
0
  9
$UCSORGLEFT
 10
0
 20
0
 30
0
  9
$UCSORGRIGHT
 10
0
 20
0
 30
0
  9
$UCSORGFRONT
 10
0
 20
0
 30
0
  9
$UCSORGBACK
 10
0
 20
0
 30
0
  9
$PUCSBASE
  2

  9
$PUCSNAME
  2

  9
$PUCSORG
 10
0
 20
0
 30
0
  9
$PUCSXDIR
 10
1
 20
0
 30
0
  9
$PUCSYDIR
 10
0
 20
1
 30
0
  9
$PUCSORTHOREF
  2

  9
$PUCSORTHOVIEW
 70
    0
  9
$PUCSORGTOP
 10
0
 20
0
 30
0
  9
$PUCSORGBOTTOM
 10
0
 20
0
 30
0
  9
$PUCSORGLEFT
 10
0
 20
0
 30
0
  9
$PUCSORGRIGHT
 10
0
 20
0
 30
0
  9
$PUCSORGFRONT
 10
0
 20
0
 30
0
  9
$PUCSORGBACK
 10
0
 20
0
 30
0
  9
$USERI1
 70
    0
  9
$USERI2
 70
    0
  9
$USERI3
 70
    0
  9
$USERI4
 70
    0
  9
$USERI5
 70
    0
  9
$USERR1
 40
0
  9
$USERR2
 40
0
  9
$USERR3
 40
0
  9
$USERR4
 40
0
  9
$USERR5
 40
0
  9
$WORLDVIEW
 70
    1
  9
$SHADEDGE
 70
    3
  9
$SHADEDIF
 70
   70
  9
$TILEMODE
 70
    1
  9
$MAXACTVP
 70
   64
  9
$PINSBASE
 10
0
 20
0
 30
0
  9
$PLIMCHECK
 70
    0
  9
$PEXTMIN
 10
1e+20
 20
1e+20
 30
1e+20
  9
$PEXTMAX
 10
-1e+20
 20
-1e+20
 30
-1e+20
  9
$GRIDMODE
 70
    0
  9
$SNAPSTYLE
 70
    0
  9
$PLIMMIN
 10
0
 20
0
  9
$PLIMMAX
 10
420
 20
297
  9
$UNITMODE
 70
    0
  9
$VISRETAIN
 70
    1
  9
$PLINEGEN
 70
    0
  9
$PSLTSCALE
 70
    1
  9
$TREEDEPTH
 70
 3020
  9
$CMLSTYLE
  2
Standard
  9
$CMLJUST
 70
    0
  9
$CMLSCALE
 40
20
  9
$PROXYGRAPHICS
 70
    1
  9
$MEASUREMENT
 70
    1
  9
$CELWEIGHT
370
   -1
  9
$ENDCAPS
280
    0
  9
$JOINSTYLE
280
    0
  9
$LWDISPLAY
290
    0
  9
$INSUNITS
 70
    6
  9
$HYPERLINKBASE
  1

  9
$STYLESHEET
  1

  9
$XEDIT
290
    1
  9
$CEPSNTYPE
380
    0
  9
$PSTYLEMODE
290
    1
  9
$EXTNAMES
290
    1
  9
$PSVPSCALE
 40
0
  9
$OLESTARTUP
290
    0
  9
$SORTENTS
280
  127
  9
$INDEXCTL
280
    0
  9
$HIDETEXT
280
    1
  9
$XCLIPFRAME
290
    0
  9
$HALOGAP
280
    0
  9
$OBSCOLOR
 70
  257
  9
$OBSLTYPE
280
    0
  9
$INTERSECTIONDISPLAY
280
    0
  9
$INTERSECTIONCOLOR
 70
  257
  9
$DIMASSOC
280
    2
  9
$PROJECTNAME
  1

  9
$CAMERADISPLAY
290
    0
  9
$LENSLENGTH
 40
50
  9
$CAMERAHEIGHT
 40
0
  9
$STEPSPERSEC
 40
24
  9
$STEPSIZE
 40
100
  9
$3DDWFPREC
 40
2
  9
$PSOLWIDTH
 40
0.005
  9
$PSOLHEIGHT
 40
0.08
  9
$LOFTANG1
 40
1.570796326795
  9
$LOFTANG2
 40
1.570796326795
  9
$LOFTMAG1
 40
0
  9
$LOFTMAG2
 40
0
  9
$LOFTPARAM
 70
    7
  9
$LOFTNORMALS
280
    1
  9
$LATITUDE
 40
37.795
  9
$LONGITUDE
 40
-122.394
  9
$NORTHDIRECTION
 40
0
  9
$TIMEZONE
 70
-8000
  9
$LIGHTGLYPHDISPLAY
280
    1
  9
$TILEMODELIGHTSYNCH
280
    1
  9
$SOLIDHIST
280
    0
  9
$SHOWHIST
280
    1
  9
$DWFFRAME
280
    2
  9
$DGNFRAME
280
    2
  9
$REALWORLDSCALE
290
    1
  9
$INTERFERECOLOR
 62
  256
  9
$CSHADOW
280
    0
  9
$SHADOWPLANELOCATION
 40
0
  0
ENDSEC
  0
SECTION
  2
CLASSES
  0
ENDSEC
  0
SECTION
  2
TABLES
  0
TABLE
  2
VPORT
  5
8
330
0
100
AcDbSymbolTable
 70
    1
  0
VPORT
  5
31
330
2
100
AcDbSymbolTableRecord
100
AcDbViewportTableRecord
  2
*ACTIVE
 70
    0
 10
0
 20
0
 11
1
 21
1
 12
3887.039398488904
 22
2129.725179411585
 13
0
 23
0
 14
10
 24
10
 15
10
 25
10
 16
0
 26
0
 36
1
 17
0
 27
0
 37
0
 40
6299.952078988004
 41
1.899014778325123
 42
50
 43
0
 44
0
 50
0
 51
0
 71
    0
 72
  100
 73
    1
 74
    3
 75
    0
 76
    0
 77
    0
 78
    0
281
    0
 65
    1
110
0
120
0
130
0
111
1
121
0
131
0
112
0
122
1
132
0
 79
    0
146
0
348
10020
 60
    7
 61
    5
292
1
282
    1
141
0
142
0
 63
  250
421
3358443
  0
ENDTAB
  0
TABLE
  2
LTYPE
  5
5
330
0
100
AcDbSymbolTable
 70
    4
  0
LTYPE
  5
14
330
5
100
AcDbSymbolTableRecord
100
AcDbLinetypeTableRecord
  2
ByBlock
 70
    0
  3

 72
   65
 73
    0
 40
0
  0
LTYPE
  5
15
330
5
100
AcDbSymbolTableRecord
100
AcDbLinetypeTableRecord
  2
ByLayer
 70
    0
  3

 72
   65
 73
    0
 40
0
  0
LTYPE
  5
16
330
5
100
AcDbSymbolTableRecord
100
AcDbLinetypeTableRecord
  2
Continuous
 70
    0
  3
Solid line
 72
   65
 73
    0
 40
0
  0
LTYPE
  5
32
330
5
100
AcDbSymbolTableRecord
100
AcDbLinetypeTableRecord
  2
DOT
 70
    0
  3
Dot . . . . . . . . . . . . . . . . . . . . . .
 72
   65
 73
    2
 40
6.35
 49
0
 74
    0
 49
-6.35
 74
    0
  0
LTYPE
  5
33
330
5
100
AcDbSymbolTableRecord
100
AcDbLinetypeTableRecord
  2
DOTTINY
 70
    0
  3
Dot (.15x) .....................................
 72
   65
 73
    2
 40
0.9525
 49
0
 74
    0
 49
-0.9525
 74
    0
  0
LTYPE
  5
34
330
5
100
AcDbSymbolTableRecord
100
AcDbLinetypeTableRecord
  2
DOT2
 70
    0
  3
Dot (.5x) .....................................
 72
   65
 73
    2
 40
3.175
 49
0
 74
    0
 49
-3.175
 74
    0
  0
LTYPE
  5
35
330
5
100
AcDbSymbolTableRecord
100
AcDbLinetypeTableRecord
  2
DOTX2
 70
    0
  3
Dot (2x) .  .  .  .  .  .  .  .  .  .  .  .  .
 72
   65
 73
    2
 40
12.7
 49
0
 74
    0
 49
-12.7
 74
    0
  0
LTYPE
  5
36
330
5
100
AcDbSymbolTableRecord
100
AcDbLinetypeTableRecord
  2
DASHED
 70
    0
  3
Dashed _ _ _ _ _ _ _ _ _ _ _ _ _ _ _ _ _
 72
   65
 73
    2
 40
19.05
 49
12.7
 74
    0
 49
-6.35
 74
    0
  0
LTYPE
  5
37
330
5
100
AcDbSymbolTableRecord
100
AcDbLinetypeTableRecord
  2
DASHEDTINY
 70
    0
  3
Dashed (.15x) _ _ _ _ _ _ _ _ _ _ _ _ _ _ _ _ _
 72
   65
 73
    2
 40
2.8575
 49
1.905
 74
    0
 49
-0.9525
 74
    0
  0
LTYPE
  5
38
330
5
100
AcDbSymbolTableRecord
100
AcDbLinetypeTableRecord
  2
DASHED2
 70
    0
  3
Dashed (.5x) _ _ _ _ _ _ _ _ _ _ _ _ _ _ _ _ _
 72
   65
 73
    2
 40
9.524999999999999
 49
6.35
 74
    0
 49
-3.175
 74
    0
  0
LTYPE
  5
39
330
5
100
AcDbSymbolTableRecord
100
AcDbLinetypeTableRecord
  2
DASHEDX2
 70
    0
  3
Dashed (2x) ____  ____  ____  ____  ____  ___
 72
   65
 73
    2
 40
38.09999999999999
 49
25.4
 74
    0
 49
-12.7
 74
    0
  0
LTYPE
  5
3A
330
5
100
AcDbSymbolTableRecord
100
AcDbLinetypeTableRecord
  2
DASHDOT
 70
    0
  3
Dash dot __ . __ . __ . __ . __ . __ . __ . __
 72
   65
 73
    4
 40
25.4
 49
12.7
 74
    0
 49
-6.35
 74
    0
 49
0
 74
    0
 49
-6.35
 74
    0
  0
LTYPE
  5
3B
330
5
100
AcDbSymbolTableRecord
100
AcDbLinetypeTableRecord
  2
DASHDOTTINY
 70
    0
  3
Dash dot (.15x) _._._._._._._._._._._._._._._.
 72
   65
 73
    4
 40
3.81
 49
1.905
 74
    0
 49
-0.9525
 74
    0
 49
0
 74
    0
 49
-0.9525
 74
    0
  0
LTYPE
  5
3C
330
5
100
AcDbSymbolTableRecord
100
AcDbLinetypeTableRecord
  2
DASHDOT2
 70
    0
  3
Dash dot (.5x) _._._._._._._._._._._._._._._.
 72
   65
 73
    4
 40
12.7
 49
6.35
 74
    0
 49
-3.175
 74
    0
 49
0
 74
    0
 49
-3.175
 74
    0
  0
LTYPE
  5
3D
330
5
100
AcDbSymbolTableRecord
100
AcDbLinetypeTableRecord
  2
DASHDOTX2
 70
    0
  3
Dash dot (2x) ____  .  ____  .  ____  .  ___
 72
   65
 73
    4
 40
50.8
 49
25.4
 74
    0
 49
-12.7
 74
    0
 49
0
 74
    0
 49
-12.7
 74
    0
  0
LTYPE
  5
3E
330
5
100
AcDbSymbolTableRecord
100
AcDbLinetypeTableRecord
  2
DIVIDE
 70
    0
  3
Divide ____ . . ____ . . ____ . . ____ . . ____
 72
   65
 73
    6
 40
31.75
 49
12.7
 74
    0
 49
-6.35
 74
    0
 49
0
 74
    0
 49
-6.35
 74
    0
 49
0
 74
    0
 49
-6.35
 74
    0
  0
LTYPE
  5
3F
330
5
100
AcDbSymbolTableRecord
100
AcDbLinetypeTableRecord
  2
DIVIDETINY
 70
    0
  3
Divide (.15x) __..__..__..__..__..__..__..__.._
 72
   65
 73
    6
 40
4.7625
 49
1.905
 74
    0
 49
-0.9525
 74
    0
 49
0
 74
    0
 49
-0.9525
 74
    0
 49
0
 74
    0
 49
-0.9525
 74
    0
  0
LTYPE
  5
40
330
5
100
AcDbSymbolTableRecord
100
AcDbLinetypeTableRecord
  2
DIVIDE2
 70
    0
  3
Divide (.5x) __..__..__..__..__..__..__..__.._
 72
   65
 73
    6
 40
15.875
 49
6.35
 74
    0
 49
-3.175
 74
    0
 49
0
 74
    0
 49
-3.175
 74
    0
 49
0
 74
    0
 49
-3.175
 74
    0
  0
LTYPE
  5
41
330
5
100
AcDbSymbolTableRecord
100
AcDbLinetypeTableRecord
  2
DIVIDEX2
 70
    0
  3
Divide (2x) ________  .  .  ________  .  .  _
 72
   65
 73
    6
 40
63.5
 49
25.4
 74
    0
 49
-12.7
 74
    0
 49
0
 74
    0
 49
-12.7
 74
    0
 49
0
 74
    0
 49
-12.7
 74
    0
  0
LTYPE
  5
42
330
5
100
AcDbSymbolTableRecord
100
AcDbLinetypeTableRecord
  2
BORDER
 70
    0
  3
Border __ __ . __ __ . __ __ . __ __ . __ __ .
 72
   65
 73
    6
 40
44.45
 49
12.7
 74
    0
 49
-6.35
 74
    0
 49
12.7
 74
    0
 49
-6.35
 74
    0
 49
0
 74
    0
 49
-6.35
 74
    0
  0
LTYPE
  5
43
330
5
100
AcDbSymbolTableRecord
100
AcDbLinetypeTableRecord
  2
BORDERTINY
 70
    0
  3
Border (.15x) __.__.__.__.__.__.__.__.__.__.__.
 72
   65
 73
    6
 40
6.6675
 49
1.905
 74
    0
 49
-0.9525
 74
    0
 49
1.905
 74
    0
 49
-0.9525
 74
    0
 49
0
 74
    0
 49
-0.9525
 74
    0
  0
LTYPE
  5
44
330
5
100
AcDbSymbolTableRecord
100
AcDbLinetypeTableRecord
  2
BORDER2
 70
    0
  3
Border (.5x) __.__.__.__.__.__.__.__.__.__.__.
 72
   65
 73
    6
 40
22.225
 49
6.35
 74
    0
 49
-3.175
 74
    0
 49
6.35
 74
    0
 49
-3.175
 74
    0
 49
0
 74
    0
 49
-3.175
 74
    0
  0
LTYPE
  5
45
330
5
100
AcDbSymbolTableRecord
100
AcDbLinetypeTableRecord
  2
BORDERX2
 70
    0
  3
Border (2x) ____  ____  .  ____  ____  .  ___
 72
   65
 73
    6
 40
88.89999999999999
 49
25.4
 74
    0
 49
-12.7
 74
    0
 49
25.4
 74
    0
 49
-12.7
 74
    0
 49
0
 74
    0
 49
-12.7
 74
    0
  0
LTYPE
  5
46
330
5
100
AcDbSymbolTableRecord
100
AcDbLinetypeTableRecord
  2
CENTER
 70
    0
  3
Center ____ _ ____ _ ____ _ ____ _ ____ _ ____
 72
   65
 73
    4
 40
50.8
 49
31.75
 74
    0
 49
-6.35
 74
    0
 49
6.35
 74
    0
 49
-6.35
 74
    0
  0
LTYPE
  5
47
330
5
100
AcDbSymbolTableRecord
100
AcDbLinetypeTableRecord
  2
CENTERTINY
 70
    0
  3
Center (.15x) ___ _ ___ _ ___ _ ___ _ ___ _ ___
 72
   65
 73
    4
 40
7.619999999999999
 49
4.7625
 74
    0
 49
-0.9525
 74
    0
 49
0.9525
 74
    0
 49
-0.9525
 74
    0
  0
LTYPE
  5
48
330
5
100
AcDbSymbolTableRecord
100
AcDbLinetypeTableRecord
  2
CENTER2
 70
    0
  3
Center (.5x) ___ _ ___ _ ___ _ ___ _ ___ _ ___
 72
   65
 73
    4
 40
28.575
 49
19.05
 74
    0
 49
-3.175
 74
    0
 49
3.175
 74
    0
 49
-3.175
 74
    0
  0
LTYPE
  5
49
330
5
100
AcDbSymbolTableRecord
100
AcDbLinetypeTableRecord
  2
CENTERX2
 70
    0
  3
Center (2x) ________  __  ________  __  _____
 72
   65
 73
    4
 40
101.6
 49
63.5
 74
    0
 49
-12.7
 74
    0
 49
12.7
 74
    0
 49
-12.7
 74
    0
  0
ENDTAB
  0
TABLE
  2
LAYER
  5
2
330
0
100
AcDbSymbolTable
 70
    1
  0
LAYER
  5
10
330
2
100
AcDbSymbolTableRecord
100
AcDbLayerTableRecord
  2
0
 70
    0
 62
    7
  6
CONTINUOUS
370
   -3
390
F
  0
LAYER
  5
4A
330
2
100
AcDbSymbolTableRecord
100
AcDbLayerTableRecord
  2
1
 70
    0
 62
    1
  6
CONTINUOUS
370
   -3
390
F
  0
LAYER
  5
4B
330
2
100
AcDbSymbolTableRecord
100
AcDbLayerTableRecord
  2
11
 70
    0
 62
    3
  6
CONTINUOUS
370
   -3
390
F
  0
LAYER
  5
4C
330
2
100
AcDbSymbolTableRecord
100
AcDbLayerTableRecord
  2
21
 70
    0
 62
   21
  6
CONTINUOUS
370
   -3
390
F
  0
LAYER
  5
4D
330
2
100
AcDbSymbolTableRecord
100
AcDbLayerTableRecord
  2
8
 70
    0
 62
    4
  6
CONTINUOUS
370
   -3
390
F
  0
LAYER
  5
4E
330
2
100
AcDbSymbolTableRecord
100
AcDbLayerTableRecord
  2
Defpoints
 70
    0
 62
    7
  6
CONTINUOUS
290
0
370
   -3
390
F
  0
ENDTAB
  0
TABLE
  2
STYLE
  5
3
330
0
100
AcDbSymbolTable
 70
    3
  0
STYLE
  5
4F
330
2
100
AcDbSymbolTableRecord
100
AcDbTextStyleTableRecord
  2
Standard
 70
    0
 40
0
 41
1
 50
0
 71
    0
 42
1
  3
txt
  4

  0
ENDTAB
  0
TABLE
  2
VIEW
  5
6
330
0
100
AcDbSymbolTable
 70
    0
  0
ENDTAB
  0
TABLE
  2
UCS
  5
7
330
0
100
AcDbSymbolTable
 70
    0
  0
ENDTAB
  0
TABLE
  2
APPID
  5
9
330
0
100
AcDbSymbolTable
 70
    1
  0
APPID
  5
12
330
9
100
AcDbSymbolTableRecord
100
AcDbRegAppTableRecord
  2
ACAD
 70
    0
  0
APPID
  5
50
330
9
100
AcDbSymbolTableRecord
100
AcDbRegAppTableRecord
  2
LibreCad
 70
    0
  0
ENDTAB
  0
TABLE
  2
DIMSTYLE
  5
A
330
0
100
AcDbSymbolTable
 70
    1
100
AcDbDimStyleTable
 71
    1
  0
DIMSTYLE
105
51
330
A
100
AcDbSymbolTableRecord
100
AcDbDimStyleTableRecord
  2
Standard
 70
    0
 40
1
 41
2.5
 42
0.625
 43
0.38
 44
1.25
 45
0
 46
0
 47
0
 48
0
 49
1
140
2.5
141
0.09
142
0
143
25.4
144
1
145
0
146
1
147
0.625
148
0
 71
    0
 72
    0
 73
    0
 74
    1
 75
    0
 76
    0
 77
    0
 78
    8
 79
    0
170
    0
171
    2
172
    0
173
    0
174
    0
175
    0
176
    0
177
    0
178
    0
179
    0
271
    2
272
    4
273
    2
274
    2
275
    0
276
    0
277
    2
278
   44
279
    0
280
    0
281
    0
282
    0
283
    1
284
    0
285
    0
286
    0
288
    0
289
    3
340
Standard
341

371
   -2
372
   -2
  0
ENDTAB
  0
TABLE
  2
BLOCK_RECORD
  5
1
330
0
100
AcDbSymbolTable
 70
    2
  0
BLOCK_RECORD
  5
1F
330
1
100
AcDbSymbolTableRecord
100
AcDbBlockTableRecord
  2
*Model_Space
 70
    0
280
    1
281
    0
  0
BLOCK_RECORD
  5
1E
330
1
100
AcDbSymbolTableRecord
100
AcDbBlockTableRecord
  2
*Paper_Space
 70
    0
280
    1
281
    0
  0
BLOCK_RECORD
  5
52
330
1
100
AcDbSymbolTableRecord
100
AcDbBlockTableRecord
  2
TSR
 70
    0
280
    1
281
    0
  0
BLOCK_RECORD
  5
55
330
1
100
AcDbSymbolTableRecord
100
AcDbBlockTableRecord
  2
LE1M
 70
    0
280
    1
281
    0
  0
BLOCK_RECORD
  5
58
330
1
100
AcDbSymbolTableRecord
100
AcDbBlockTableRecord
  2
US
 70
    0
280
    1
281
    0
  0
BLOCK_RECORD
  5
5B
330
1
100
AcDbSymbolTableRecord
100
AcDbBlockTableRecord
  2
TSF
 70
    0
280
    1
281
    0
  0
BLOCK_RECORD
  5
5E
330
1
100
AcDbSymbolTableRecord
100
AcDbBlockTableRecord
  2
LE3M
 70
    0
280
    1
281
    0
  0
BLOCK_RECORD
  5
61
330
1
100
AcDbSymbolTableRecord
100
AcDbBlockTableRecord
  2
LE2M
 70
    0
280
    1
281
    0
  0
ENDTAB
  0
ENDSEC
  0
SECTION
  2
BLOCKS
  0
BLOCK
  5
20
330
1F
100
AcDbEntity
  8
0
100
AcDbBlockBegin
  2
*Model_Space
 70
    0
 10
0
 20
0
 30
0
  3
*Model_Space
  1

  0
ENDBLK
  5
21
330
1F
100
AcDbEntity
  8
0
100
AcDbBlockEnd
  0
BLOCK
  5
1C
330
1B
100
AcDbEntity
  8
0
100
AcDbBlockBegin
  2
*Paper_Space
 70
    0
 10
0
 20
0
 30
0
  3
*Paper_Space
  1

  0
ENDBLK
  5
1D
330
1F
100
AcDbEntity
  8
0
100
AcDbBlockEnd
  0
BLOCK
  5
53
330
52
100
AcDbEntity
  8
0
100
AcDbBlockBegin
  2
TSR
 70
    0
 10
0
 20
0
  3
TSR
  1

  0
LWPOLYLINE
  5
64
100
AcDbEntity
  8
1
  6
ByLayer
 62
  256
370
   -1
100
AcDbPolyline
 90
  140
 70
    0
 43
0
 10
-946.7855224609375
 20
-474.3954238891602
 10
-1007.395233154297
 20
-486.0369148254395
 10
-1067.647369384766
 20
-498.4360446929932
 10
-1127.544555664062
 20
-511.5832710266113
 10
-1187.092315673828
 20
-525.4697451591492
 10
-1246.298095703125
 20
-540.0763130187988
 10
-1285.577423095703
 20
-550.2140312194824
 10
-1383.159278869629
 20
-576.8689231872559
 10
-1442.454790115356
 20
-591.3686714172363
 10
-1501.413660049438
 20
-606.5855255126953
 10
-1579.500366210938
 20
-627.9936447143555
 10
-1656.992065429688
 20
-650.670036315918
 10
-1714.722915649414
 20
-668.5033721923828
 10
-1768.781463623047
 20
-685.9314575195312
 10
-1881.520568847656
 20
-724.2993927001953
 10
-1885.312896728516
 20
-725.040283203125
 10
-1888.521575927734
 20
-723.8734893798828
 10
-1890.017181396484
 20
-722.3443603515625
 10
-1898.323486328125
 20
-705.1511077880859
 10
-2029.915588378906
 20
-429.6501922607422
 10
-2103.505798339844
 20
-274.1071166992188
 10
-2179.593994140625
 20
-111.252685546875
 10
-2180.824157714844
 20
-108.0245666503906
 10
-2180.938781738281
 20
-106.284423828125
 10
-2180.568481445312
 20
-104.5783996582031
 10
-2179.236022949219
 20
-102.4435119628906
 10
-2177.170043945312
 20
-101.0029602050781
 10
-2172.405944824219
 20
-99.722412109375
 10
-2163.51611328125
 20
-96.37789916992188
 10
-2157.614868164062
 20
-92.84280395507812
 10
-2153.525146484375
 20
-88.6778564453125
 10
-2150.563598632812
 20
-83.6429443359375
 10
-2148.89111328125
 20
-78.045166015625
 10
-2148.578857421875
 20
-75.24163818359375
 10
-2148.809204101562
 20
-70.55819702148438
 10
-2149.883911132812
 20
-65.991943359375
 10
-2161.763244628906
 20
-40.12643432617188
 10
-2165.458374023438
 20
-33.37686157226562
 10
-2168.306518554688
 20
-30.743896484375
 10
-2169.984130859375
 20
-29.76345825195312
 10
-2174.3486328125
 20
-28.41748046875
 10
-2176.987365722656
 20
-28.355712890625
 10
-2182.066650390625
 20
-29.71371459960938
 10
-2191.378601074219
 20
-34.17514038085938
 10
-2200.80908203125
 20
-38.02349853515625
 10
-2208.293823242188
 20
-39.8271484375
 10
-2210.869506835938
 20
-39.61166381835938
 10
-2212.270446777344
 20
-38.99063110351562
 10
-2214.419311523438
 20
-36.8448486328125
 10
-2511.670959472656
 20
603.783935546875
 10
-2514.359436035156
 20
611.4161376953125
 10
-2514.153869628906
 20
614.1378173828125
 10
-2513.593200683594
 20
615.4307861328125
 10
-2511.687561035156
 20
617.4849853515625
 10
-2510.440002441406
 20
618.142333984375
 10
-2494.794494628906
 20
619.7427978515625
 10
-2391.266235351562
 20
633.2357177734375
 10
-2287.482299804688
 20
646.15478515625
 10
-2100.0283203125
 20
667.9600830078125
 10
-1995.528503417969
 20
679.2799072265625
 10
-1957.280029296875
 20
683.0328369140625
 10
-1847.182281494141
 20
690.7828369140625
 10
-1740.650054931641
 20
697.784423828125
 10
-1548.273345947266
 20
709.0872802734375
 10
-1441.031890869141
 20
714.611328125
 10
-1333.514144897461
 20
719.573974609375
 10
-1204.105987548828
 20
724.743896484375
 10
-1182.267913818359
 20
725.040283203125
 10
-1005.796813964844
 20
723.6910400390625
 10
-850.6676635742188
 20
721.0823974609375
 10
-694.7687377929688
 20
716.9317626953125
 10
-560.4673461914062
 20
712.020263671875
 10
-403.0228881835938
 20
704.763916015625
 10
476.8967895507812
 20
660.1932373046875
 10
1199.403869628906
 20
628.2352294921875
 10
1909.700988769531
 20
624.428466796875
 10
1931.317443847656
 20
625.527099609375
 10
2394.329162597656
 20
656.4083251953125
 10
2396.952697753906
 20
655.511474609375
 10
2399.071350097656
 20
653.3328857421875
 10
2514.218811035156
 20
401.936279296875
 10
2514.135559082031
 20
398.5075073242188
 10
2512.797424316406
 20
396.1716918945312
 10
2504.493957519531
 20
388.3778686523438
 10
2488.829650878906
 20
374.7085571289062
 10
2440.778381347656
 20
336.0034790039062
 10
2393.150695800781
 20
296.380615234375
 10
2345.941223144531
 20
255.8521728515625
 10
2299.145568847656
 20
214.4288940429688
 10
2237.391662597656
 20
157.824462890625
 10
2191.552795410156
 20
114.3505249023438
 10
2169.097961425781
 20
92.1910400390625
 10
2165.107238769531
 20
88.814697265625
 10
2084.413879394531
 20
60.81732177734375
 10
2009.126770019531
 20
33.48516845703125
 10
1934.434875488281
 20
4.86920166015625
 10
1860.332336425781
 20
-25.01202392578125
 10
1786.813049316406
 20
-56.14215087890625
 10
1713.871154785156
 20
-88.50521850585938
 10
1641.501037597656
 20
-122.0861206054688
 10
1569.624816894531
 20
-156.7237548828125
 10
1548.963928222656
 20
-159.7218627929688
 10
1464.926574707031
 20
-168.7621154785156
 10
1381.511535644531
 20
-179.1270446777344
 10
1298.716125488281
 20
-190.8101196289062
 10
1237.025695800781
 20
-200.4342651367188
 10
1155.310852050781
 20
-214.4092407226562
 10
1074.212463378906
 20
-229.6877136230469
 10
993.7297973632812
 20
-246.2655334472656
 10
913.8565063476562
 20
-264.0301818847656
 10
805.9063110351562
 20
-268.5679016113281
 10
762.9942016601562
 20
-270.9456787109375
 10
698.9619750976562
 20
-275.2219696044922
 10
635.3338012695312
 20
-280.3516387939453
 10
593.1409301757812
 20
-284.2500152587891
 10
509.2966918945312
 20
-293.1944885253906
 10
467.6460571289062
 20
-298.2424621582031
 10
405.5095825195312
 20
-306.5366821289062
 10
323.2965698242188
 20
-318.9457397460938
 10
262.1123657226562
 20
-329.2635955810547
 10
221.5482788085938
 20
-336.6252136230469
 10
181.1663208007812
 20
-344.3728332519531
 10
120.9330444335938
 20
-356.7225799560547
 10
100.0593872070312
 20
-359.1507110595703
 10
56.17706298828125
 20
-359.4912109375
 10
-9.23944091796875
 20
-360.8611602783203
 10
-52.58636474609375
 20
-362.3362731933594
 10
-117.2156372070312
 20
-365.377197265625
 10
-160.0471801757812
 20
-367.9459381103516
 10
-223.9176635742188
 20
-372.5973205566406
 10
-287.3435668945312
 20
-378.1917877197266
 10
-350.3335571289062
 20
-384.707763671875
 10
-433.6570434570312
 20
-394.7971954345703
 10
-516.241455078125
 20
-406.4447708129883
 10
-577.7053833007812
 20
-416.1830596923828
 10
-659.0473022460938
 20
-430.4596252441406
 10
-742.0776977539062
 20
-441.2714157104492
 10
-824.4625854492188
 20
-453.4552459716797
 10
-885.808837890625
 20
-463.5324478149414
 10
-946.7855224609375
 20
-474.3954238891602
  0
LWPOLYLINE
  5
65
100
AcDbEntity
  8
8
  6
ByLayer
 62
  256
370
   -1
100
AcDbPolyline
 90
   26
 70
    0
 43
0
 10
2396.901329967599
 20
645.7690501648717
 10
2395.134791606028
 20
644.4963138605124
 10
2393.314589895472
 20
643.9356413521375
 10
2387.649451639272
 20
643.51863583931
 10
1915.501417305731
 20
611.9760091263652
 10
1205.409385669498
 20
615.5011022901815
 10
482.9478151323622
 20
647.3740734926857
 10
-419.5116351011595
 20
693.0675248455782
 10
-576.8821578402784
 20
700.17172517367
 10
-733.4210516913024
 20
705.6007032900757
 10
-889.1265175772384
 20
709.3551767104138
 10
-1044.087017706794
 20
711.6137984650261
 10
-1198.330934693366
 20
712.4391866986857
 10
-1392.319902029672
 20
704.4117599569583
 10
-1585.389432810363
 20
694.5174478952997
 10
-1777.617654163221
 20
682.8834513820241
 10
-1884.071911251837
 20
675.7025397333171
 10
-1969.014402661451
 20
669.4864897154316
 10
-2094.464591080756
 20
655.9987619453391
 10
-2219.546368194277
 20
641.6984989743671
 10
-2351.707988148539
 20
625.6333881814371
 10
-2489.288048147891
 20
607.8659197233292
 10
-2507.860862633997
 20
606.0959912886863
 10
-2510.523985584357
 20
606.3069873014838
 10
-2513.44183557476
 20
608.1865556594466
 10
-2519.810131183485
 20
621.3377707073237
  0
LWPOLYLINE
  5
66
100
AcDbEntity
  8
8
  6
ByLayer
 62
  256
370
   -1
100
AcDbPolyline
 90
    5
 70
    0
 43
0
 10
-2518.500699005582
 20
648.2337954166799
 10
-2276.278761196023
 20
125.6527099019036
 10
-2122.768339789821
 20
-203.6286745541011
 10
-2018.817152268717
 20
-423.8789014528028
 10
-1886.953252716388
 20
-699.9539201275633
  0
LWPOLYLINE
  5
67
100
AcDbEntity
  8
8
  6
ByLayer
 62
  256
370
   -1
100
AcDbPolyline
 90
    2
 70
    0
 43
0
 10
2370.316769205358
 20
656.1564658724474
 10
2485.7938321472
 20
404.1700804832155
  0
LWPOLYLINE
  5
68
100
AcDbEntity
  8
8
  6
ByLayer
 62
  256
370
   -1
100
AcDbPolyline
 90
    3
 70
    0
 43
0
 10
-2153.165568310503
 20
-138.6448516427125
 10
-1660.045876101149
 20
-66.97973116985963
 10
-1621.308042762034
 20
-61.63122032527275
  0
LWPOLYLINE
  5
69
100
AcDbEntity
  8
8
  6
ByLayer
 62
  256
370
   -1
100
AcDbPolyline
 90
    5
 70
    0
 43
0
 10
-1621.308042762034
 20
-61.63122032527275
 10
-1597.63738594809
 20
-58.38809635569868
 10
-1136.659193388313
 20
-0.5557214132799118
 10
-880.851851198736
 20
31.41384513648347
 10
-871.7771532780451
 20
32.20342332651705
  0
LWPOLYLINE
  5
6A
100
AcDbEntity
  8
8
  6
ByLayer
 62
  256
370
   -1
100
AcDbPolyline
 90
    3
 70
    0
 43
0
 10
-871.7771532780451
 20
32.20342332651705
 10
-821.0680189153377
 20
33.83630540202762
 10
-76.00862452301499
 20
52.67922729232021
  0
LWPOLYLINE
  5
6B
100
AcDbEntity
  8
8
  6
ByLayer
 62
  256
370
   -1
100
AcDbPolyline
 90
    2
 70
    0
 43
0
 10
-76.00862452301499
 20
52.67922729232021
 10
799.8488135189345
 20
-6.614696233625864
  0
LWPOLYLINE
  5
6C
100
AcDbEntity
  8
8
  6
ByLayer
 62
  256
370
   -1
100
AcDbPolyline
 90
    4
 70
    0
 43
0
 10
799.8488135189345
 20
-6.614696233625864
 10
1476.179049996964
 20
-23.3147902942361
 10
1506.09002873898
 20
-24.03541898134733
 10
1508.933801062472
 20
-23.79809648483337
  0
LWPOLYLINE
  5
6D
100
AcDbEntity
  8
8
  6
ByLayer
 62
  256
370
   -1
100
AcDbPolyline
 90
    5
 70
    0
 43
0
 10
1508.933801062472
 20
-23.79809648483337
 10
1553.505281284256
 20
-5.841762753271723
 10
2050.499252784722
 20
198.7614064950444
 10
2097.705337855895
 20
218.2168711333202
 10
2100.288403273596
 20
219.7811375098402
  0
LWPOLYLINE
  5
6E
100
AcDbEntity
  8
8
  6
ByLayer
 62
  256
370
   -1
100
AcDbPolyline
 90
    3
 70
    0
 43
0
 10
2100.288403273596
 20
219.7811375098402
 10
2116.763989189791
 20
227.1984374204351
 10
2485.7938321472
 20
404.1700804832155
  0
LWPOLYLINE
  5
6F
100
AcDbEntity
  8
8
  6
ByLayer
 62
  256
370
   -1
100
AcDbPolyline
 90
    5
 70
    0
 43
0
 10
-1388.301657844991
 20
-552.7683170864639
 10
-1539.18683856943
 20
-262.577905923457
 10
-1628.592284140662
 20
-89.04016580949769
 10
-1779.625440256325
 20
206.3256529263801
 10
-2030.829523011586
 20
700.1252639955542
  0
LWPOLYLINE
  5
70
100
AcDbEntity
  8
8
  6
ByLayer
 62
  256
370
   -1
100
AcDbPolyline
 90
    3
 70
    0
 43
0
 10
-663.9235305957552
 20
-406.4087962247929
 10
-933.2986340101598
 20
93.00738778042125
 10
-1284.041708213271
 20
748.0649120181865
  0
LWPOLYLINE
  5
71
100
AcDbEntity
  8
8
  6
ByLayer
 62
  256
370
   -1
100
AcDbPolyline
 90
    2
 70
    0
 43
0
 10
106.9719546135968
 20
-334.0675678858661
 10
-490.5167821637061
 20
730.4842146426342
  0
LWPOLYLINE
  5
72
100
AcDbEntity
  8
8
  6
ByLayer
 62
  256
370
   -1
100
AcDbPolyline
 90
    2
 70
    0
 43
0
 10
909.8478745955108
 20
-239.1756958420642
 10
347.5802385012742
 20
685.2950982757791
  0
LWPOLYLINE
  5
73
100
AcDbEntity
  8
8
  6
ByLayer
 62
  256
370
   -1
100
AcDbPolyline
 90
    2
 70
    0
 43
0
 10
1560.472121267144
 20
-133.1044761555338
 10
1046.883528726513
 20
649.0686975036708
  0
LWPOLYLINE
  5
74
100
AcDbEntity
  8
8
  6
ByLayer
 62
  256
370
   -1
100
AcDbPolyline
 90
    3
 70
    0
 43
0
 10
2151.137142679742
 20
110.7283284352493
 10
1886.147081495888
 20
374.6656622564985
 10
1622.678682538976
 20
636.161572322934
  0
LWPOLYLINE
  5
75
100
AcDbEntity
  8
8
  6
ByLayer
 62
  256
370
   -1
100
AcDbPolyline
 90
    3
 70
    0
 43
0
 10
2485.7938321472
 20
404.1700804832155
 10
2332.603914970928
 20
499.615246388038
 10
2097.449837454415
 20
644.1823706190676
  0
LWPOLYLINE
  5
76
100
AcDbEntity
  8
8
  6
ByLayer
 62
  256
370
   -1
100
AcDbPolyline
 90
    5
 70
    0
 43
0
 10
-2505.669424336751
 20
650.3026469998315
 10
-2263.702771726289
 20
128.3379172247406
 10
-2110.346638483845
 20
-200.5835479247556
 10
-2028.375794712543
 20
-374.5683017741842
 10
-1874.786882285281
 20
-696.3841655879706
  0
LWPOLYLINE
  5
77
100
AcDbEntity
  8
8
  6
ByLayer
 62
  256
370
   -1
100
AcDbPolyline
 90
   10
 70
    0
 43
0
 10
-2098.532579541133
 20
-80.6279392219912
 10
-2065.904162708615
 20
-162.5616506077907
 10
-2033.060729611833
 20
-240.5866970576599
 10
-2000.999253265227
 20
-311.6022622298955
 10
-1980.379746026431
 20
-354.873152953207
 10
-1960.362549677793
 20
-395.6791048813872
 10
-1928.369169360358
 20
-458.4613958781811
 10
-1899.5948725198
 20
-511.3615333465377
 10
-1873.002637435062
 20
-557.2656392655747
 10
-1804.180070136037
 20
-672.8849737646557
  0
LWPOLYLINE
  5
78
100
AcDbEntity
  8
8
  6
ByLayer
 62
  256
370
   -1
100
AcDbPolyline
 90
    9
 70
    0
 43
0
 10
-2087.225540922453
 20
-75.20645066197631
 10
-2054.350912659474
 20
-157.6356148258086
 10
-2021.732982572962
 20
-235.2095779202261
 10
-1988.32944372589
 20
-309.1120303866488
 10
-1949.531284112575
 20
-389.3301994711676
 10
-1916.604004896049
 20
-453.9480376771021
 10
-1888.045013826878
 20
-506.4130570611089
 10
-1863.022717249517
 20
-549.6453135113657
 10
-1792.868770199874
 20
-667.5281522920894
  0
LWPOLYLINE
  5
79
100
AcDbEntity
  8
8
  6
ByLayer
 62
  256
370
   -1
100
AcDbPolyline
 90
   11
 70
    0
 43
0
 10
-1406.968842122606
 20
-538.5632247560306
 10
-1408.850527497227
 20
-536.4653346394288
 10
-1411.570625253216
 20
-535.7142475781026
 10
-1414.261635630035
 20
-536.5562903391884
 10
-1416.070063235045
 20
-538.7222317060515
 10
-1416.422583190959
 20
-541.5226976627888
 10
-1415.207048853071
 20
-544.0690293997592
 10
-1412.808590354024
 20
-545.5555153242913
 10
-1409.987855378197
 20
-545.5105905703915
 10
-1407.632058417899
 20
-543.9652753833474
 10
-1406.523724398598
 20
-541.3403159403821
  0
LWPOLYLINE
  5
7A
100
AcDbEntity
  8
8
  6
ByLayer
 62
  256
370
   -1
100
AcDbPolyline
 90
    2
 70
    0
 43
0
 10
-1437.500953383729
 20
-566.9335387808057
 10
-1429.98595284925
 20
-472.7248097811853
  0
LWPOLYLINE
  5
7B
100
AcDbEntity
  8
8
  6
ByLayer
 62
  256
370
   -1
100
AcDbPolyline
 90
    2
 70
    0
 43
0
 10
-1429.98595284925
 20
-472.7248097811853
 10
-1367.897664067785
 20
-548.2781456562278
  0
LWPOLYLINE
  5
7C
100
AcDbEntity
  8
8
  6
ByLayer
 62
  256
370
   -1
100
AcDbPolyline
 90
   11
 70
    0
 43
0
 10
-682.8015918352889
 20
-392.4802581587785
 10
-684.6781267347284
 20
-390.3795724666735
 10
-687.394740495415
 20
-389.6247569499345
 10
-690.0871891389357
 20
-390.4590148936986
 10
-691.898405141055
 20
-392.6219721162362
 10
-692.2561280459091
 20
-395.4211765923819
 10
-691.0460770995563
 20
-397.969433749313
 10
-688.6518076898016
 20
-399.4594811935099
 10
-685.8327992304755
 20
-399.4189497777776
 10
-683.4775520841625
 20
-397.8736727241709
 10
-682.3614364239412
 20
-395.2587785045608
  0
LWPOLYLINE
  5
7D
100
AcDbEntity
  8
8
  6
ByLayer
 62
  256
370
   -1
100
AcDbPolyline
 90
    2
 70
    0
 43
0
 10
-714.4719867133788
 20
-416.118280942724
 10
-706.9071578186035
 20
-326.868166574289
  0
LWPOLYLINE
  5
7E
100
AcDbEntity
  8
8
  6
ByLayer
 62
  256
370
   -1
100
AcDbPolyline
 90
    2
 70
    0
 43
0
 10
-706.9071578186035
 20
-326.868166574289
 10
-643.4759670897565
 20
-404.0411880159535
  0
LWPOLYLINE
  5
7F
100
AcDbEntity
  8
8
  6
ByLayer
 62
  256
370
   -1
100
AcDbPolyline
 90
   11
 70
    0
 43
0
 10
85.49040243118588
 20
-318.3174287301804
 10
83.61734564120206
 20
-316.2145999356768
 10
80.9064659373139
 20
-315.4643958533799
 10
78.21583659202474
 20
-316.2994192014123
 10
76.39848558871199
 20
-318.4519533345081
 10
76.03387508475657
 20
-321.2438549604382
 10
77.2426195932851
 20
-323.7986826681746
 10
79.63245356843254
 20
-325.288061099204
 10
82.44989186834619
 20
-325.2496569784032
 10
84.79809336349399
 20
-323.6907595264968
 10
85.93103655119171
 20
-321.1054234314509
  0
LWPOLYLINE
  5
80
100
AcDbEntity
  8
8
  6
ByLayer
 62
  256
370
   -1
100
AcDbPolyline
 90
    2
 70
    0
 43
0
 10
53.60272360083354
 20
-339.0803045110358
 10
62.91422699869986
 20
-255.6189719311215
  0
LWPOLYLINE
  5
81
100
AcDbEntity
  8
8
  6
ByLayer
 62
  256
370
   -1
100
AcDbPolyline
 90
    2
 70
    0
 43
0
 10
62.91422699869986
 20
-255.6189719311215
 10
125.2578569460331
 20
-331.9664977872214
  0
LWPOLYLINE
  5
82
100
AcDbEntity
  8
8
  6
ByLayer
 62
  256
370
   -1
100
AcDbPolyline
 90
   11
 70
    0
 43
0
 10
887.8307377859978
 20
-224.2474818906867
 10
885.9578582666777
 20
-222.1437838295737
 10
883.2437593939485
 20
-221.3854746910351
 10
880.543513191406
 20
-222.1992644259552
 10
878.7295200623444
 20
-224.3587378204827
 10
878.3679862309741
 20
-227.1576880826328
 10
879.5739394447937
 20
-229.707982822569
 10
881.9655193026824
 20
-231.2020811164739
 10
884.7838290786167
 20
-231.1664906656615
 10
887.1275243789705
 20
-229.5986428830747
 10
888.2672039934132
 20
-227.0274585473787
  0
LWPOLYLINE
  5
83
100
AcDbEntity
  8
8
  6
ByLayer
 62
  256
370
   -1
100
AcDbPolyline
 90
    2
 70
    0
 43
0
 10
856.5195448085983
 20
-245.64056925766
 10
863.1382499520601
 20
-162.4248373091857
  0
LWPOLYLINE
  5
84
100
AcDbEntity
  8
8
  6
ByLayer
 62
  256
370
   -1
100
AcDbPolyline
 90
    2
 70
    0
 43
0
 10
863.1382499520601
 20
-162.4248373091857
 10
927.9663614118854
 20
-236.4456372422023
  0
LWPOLYLINE
  5
85
100
AcDbEntity
  8
8
  6
ByLayer
 62
  256
370
   -1
100
AcDbPolyline
 90
   11
 70
    0
 43
0
 10
1538.185338910822
 20
-119.446706407575
 10
1536.310106625155
 20
-117.3371192475041
 10
1533.598742358374
 20
-116.5953824966818
 10
1530.899007156113
 20
-117.4298932204292
 10
1529.075720233744
 20
-119.5916027620502
 10
1528.707135106908
 20
-122.3927323126692
 10
1529.909224027859
 20
-124.9418624788624
 10
1532.301788794529
 20
-126.4327704305153
 10
1535.12513162529
 20
-126.3919206957351
 10
1537.482144675491
 20
-124.8307643166779
 10
1538.622627384093
 20
-122.2410130641896
  0
LWPOLYLINE
  5
86
100
AcDbEntity
  8
8
  6
ByLayer
 62
  256
370
   -1
100
AcDbPolyline
 90
    2
 70
    0
 43
0
 10
1506.831678927001
 20
-142.2337751894466
 10
1511.246998499831
 20
-58.17086967697196
  0
LWPOLYLINE
  5
87
100
AcDbEntity
  8
8
  6
ByLayer
 62
  256
370
   -1
100
AcDbPolyline
 90
    2
 70
    0
 43
0
 10
1511.246998499831
 20
-58.17086967697196
 10
1577.260291128517
 20
-126.5870740711727
  0
LWPOLYLINE
  5
88
100
AcDbEntity
  8
8
  6
ByLayer
 62
  256
370
   -1
100
AcDbPolyline
 90
   11
 70
    0
 43
0
 10
2127.473865751715
 20
118.0617856521391
 10
2125.605942372484
 20
120.1837948120091
 10
2122.900115484857
 20
120.9355573848089
 10
2120.199233091944
 20
120.1121767825288
 10
2118.389631880341
 20
117.9155832432712
 10
2118.014825574113
 20
115.1075301927186
 10
2119.204749988131
 20
112.5568644105481
 10
2121.586393320074
 20
111.0631563815065
 10
2124.404226799655
 20
111.099305644375
 10
2126.761194999987
 20
112.6590079001357
 10
2127.905787771833
 20
115.2539548194056
  0
LWPOLYLINE
  5
89
100
AcDbEntity
  8
8
  6
ByLayer
 62
  256
370
   -1
100
AcDbPolyline
 90
    2
 70
    0
 43
0
 10
2100.862770983307
 20
89.43209516292814
 10
2087.588048725431
 20
173.9488167000918
  0
LWPOLYLINE
  5
8A
100
AcDbEntity
  8
8
  6
ByLayer
 62
  256
370
   -1
100
AcDbPolyline
 90
    2
 70
    0
 43
0
 10
2087.588048725431
 20
173.9488167000918
 10
2165.126447629616
 20
122.3563886864496
  0
LWPOLYLINE
  5
8B
100
AcDbEntity
  8
8
  6
ByLayer
 62
  256
370
   -1
100
AcDbPolyline
 90
   11
 70
    0
 43
0
 10
2437.389357481989
 20
420.399164181562
 10
2435.550039151484
 20
422.4926618811021
 10
2432.851120435394
 20
423.2469946550102
 10
2430.144265081022
 20
422.4337259409165
 10
2428.31657552649
 20
420.2529092724998
 10
2427.939722181291
 20
417.4156378417799
 10
2429.119169509147
 20
414.8526933095519
 10
2431.496325636061
 20
413.3434776463549
 10
2434.319736332394
 20
413.359912655635
 10
2436.679221771052
 20
414.926231403323
 10
2437.816433619298
 20
417.5653251236023
  0
LWPOLYLINE
  5
8C
100
AcDbEntity
  8
8
  6
ByLayer
 62
  256
370
   -1
100
AcDbPolyline
 90
    2
 70
    0
 43
0
 10
2232.435232897998
 20
282.8639330485104
 10
2221.804908681953
 20
305.5374184025134
  0
LWPOLYLINE
  5
8D
100
AcDbEntity
  8
8
  6
ByLayer
 62
  256
370
   -1
100
AcDbPolyline
 90
    2
 70
    0
 43
0
 10
2221.804908681953
 20
305.5374184025134
 10
2475.243895316074
 20
427.1525523492584
  0
LWPOLYLINE
  5
8E
100
AcDbEntity
  8
8
  6
ByLayer
 62
  256
370
   -1
100
AcDbPolyline
 90
    2
 70
    0
 43
0
 10
2452.61930123703
 20
416.3297381902871
 10
2347.162371518841
 20
646.0201834726963
  0
LWPOLYLINE
  5
8F
100
AcDbEntity
  8
8
  6
ByLayer
 62
  256
370
   -1
100
AcDbPolyline
 90
    2
 70
    0
 43
0
 10
2347.162371518841
 20
646.0201834726963
 10
2369.85143945784
 20
657.1721535012173
  0
LWPOLYLINE
  5
90
100
AcDbEntity
  8
8
  6
ByLayer
 62
  256
370
   -1
100
AcDbPolyline
 90
   17
 70
    0
 43
0
 10
2424.631251537346
 20
537.5076352309345
 10
2411.499803039536
 20
530.4158589348242
 10
2401.573457189108
 20
523.7375733330675
 10
2387.733700970366
 20
512.3034817497776
 10
2379.329693257786
 20
503.7436045138138
 10
2369.835901053546
 20
492.1186438403597
 10
2361.557125775537
 20
479.5818586613415
 10
2354.540445429007
 20
466.3477840106069
 10
2348.919649484967
 20
452.4273463931386
 10
2345.460580370511
 20
440.9093034593088
 10
2342.460478641663
 20
426.1836225849415
 10
2340.941876276181
 20
411.2739948849855
 10
2340.940112540348
 20
396.2926076546336
 10
2342.436026216315
 20
381.4358362688333
 10
2345.4624937615
 20
366.7530455156651
 10
2348.928279264236
 20
355.3120570145959
 10
2354.567694238602
 20
341.4318005662815
  0
LWPOLYLINE
  5
91
100
AcDbEntity
  8
8
  6
ByLayer
 62
  256
370
   -1
100
AcDbPolyline
 90
  121
 70
    0
 43
0
 10
-1986.847359282139
 20
-37.09252139271439
 10
-1989.914895925367
 20
-41.62345089321479
 10
-1992.591248826528
 20
-46.56449718795983
 10
-1995.417020526478
 20
-53.24835841088537
 10
-1997.240551046437
 20
-59.05039149242515
 10
-1999.013734482416
 20
-66.78246400771025
 10
-2000.032095881898
 20
-73.34199463922977
 10
-2001.072441390533
 20
-89.20509960220096
 10
-2000.433509051752
 20
-106.4790204499361
 10
-1998.191249817437
 20
-124.9691322366928
 10
-1994.435514448579
 20
-144.504308975719
 10
-1988.599700711018
 20
-167.1824805307713
 10
-1981.110298691579
 20
-190.6399210089713
 10
-1972.072978962897
 20
-214.6629518795274
 10
-1962.717105490079
 20
-236.5350788558463
 10
-1951.06161272454
 20
-260.8679237914791
 10
-1938.197553006406
 20
-285.0175516153151
 10
-1924.219338841701
 20
-308.7229204102937
 10
-1910.790991951017
 20
-329.4855588316116
 10
-1895.042530523214
 20
-351.6650341179006
 10
-1881.871675660081
 20
-368.6091950976868
 10
-1868.276143756595
 20
-384.6907614386812
 10
-1854.293305247222
 20
-399.8124881175838
 10
-1840.021646235024
 20
-413.7747425329054
 10
-1827.313579150242
 20
-425.0025764360926
 10
-1812.584918561973
 20
-436.600489376649
 10
-1799.51543663904
 20
-445.6821832592166
 10
-1784.374195042974
 20
-454.8699001874575
 10
-1770.912380138434
 20
-461.9510209455408
 10
-1755.283367596704
 20
-468.9686230910705
 10
-1739.402205540454
 20
-474.8352124885948
 10
-1721.17650346867
 20
-480.1990123457307
 10
-1702.551389091473
 20
-484.3109959314737
 10
-1685.638188413091
 20
-486.9823907254837
 10
-1668.394469283222
 20
-488.738205913613
 10
-1648.55783801654
 20
-489.7237541730457
 10
-1635.058089157639
 20
-489.8504743455686
 10
-1619.044946774928
 20
-489.4433019197417
 10
-1588.476721280467
 20
-487.2987351287227
 10
-1549.265165908686
 20
-482.4971596496819
 10
-1513.44941500865
 20
-476.5791600523179
 10
-1431.360303748335
 20
-460.2275061152196
 10
-1417.124056798891
 20
-456.7537864649605
 10
-1300.480209828001
 20
-430.8116768065516
 10
-1171.092109796508
 20
-402.7137588873377
 10
-1090.553843736627
 20
-385.9976136112205
 10
-990.2204274220857
 20
-366.248406377953
 10
-888.6290717369268
 20
-347.6397955625694
 10
-808.1557976534937
 20
-333.9911580289862
 10
-720.4821067500184
 20
-320.2876559863608
 10
-706.9130906464828
 20
-318.6437755558302
 10
-684.5887809796012
 20
-315.0437471739725
 10
-620.6783516080635
 20
-306.2283804706061
 10
-546.0790339636303
 20
-296.7120737169657
 10
-470.113208426931
 20
-287.6945717635728
 10
-373.6521756689281
 20
-277.0798495349169
 10
-300.5273585060861
 20
-269.5293509044654
 10
-118.9236115416347
 20
-252.0723370719394
 10
223.4837476945161
 20
-221.2083463001136
 10
324.8805741210679
 20
-211.7284130637416
 10
475.1684240712918
 20
-197.0681294609119
 10
640.3132234786967
 20
-179.9573835147986
 10
808.4294544913578
 20
-161.3405832590343
 10
899.0549945002804
 20
-150.5230897503419
 10
1025.878235028831
 20
-133.9550984001248
 10
1080.827463469903
 20
-125.9106752547999
 10
1108.369587566338
 20
-121.4284244629127
 10
1140.209651594118
 20
-115.8373872361821
 10
1166.747396446109
 20
-110.6957490472133
 10
1197.952137212276
 20
-104.0841048479485
 10
1222.016814323465
 20
-98.48975652000644
 10
1273.492271259943
 20
-85.12613118336225
 10
1327.360328439296
 20
-69.06742147441457
 10
1387.87998117658
 20
-48.77236257160519
 10
1444.719593878818
 20
-27.90944772747144
 10
1489.951885842489
 20
-10.35449780270301
 10
1503.273847067335
 20
-4.695894028289899
 10
1523.980499618063
 20
3.357994478267528
 10
1588.067672491299
 20
30.24011456142603
 10
1662.116233752953
 20
62.96272838843277
 10
1733.525052250027
 20
96.3318025904648
 10
1763.505973443552
 20
110.8970544841205
 10
1804.277110347557
 20
131.4291252323499
 10
1862.14403993456
 20
161.9322772878571
 10
1917.381828819464
 20
193.0084225720502
 10
1943.706650402523
 20
208.6661928925475
 10
1972.1002954068
 20
226.2891161446347
 10
1998.992311830787
 20
243.9490009631761
 10
2018.785170716579
 20
257.6179662750299
 10
2037.491547058248
 20
271.2290953843351
 10
2057.456444253126
 20
286.6331145565695
 10
2082.16661871387
 20
307.6426946321262
 10
2094.226231852322
 20
318.9272693629937
 10
2105.218556249551
 20
330.0953136067267
 10
2119.819943204548
 20
346.494927383953
 10
2130.907496114804
 20
360.8749929456375
 10
2138.1083730331
 20
371.5363176682728
 10
2145.395687816156
 20
383.751136770534
 10
2149.891885080907
 20
392.3363874007952
 10
2154.547943601848
 20
402.468322266142
 10
2158.930504657046
 20
414.2104466467737
 10
2161.892547858074
 20
424.0699443674134
 10
2164.453362465019
 20
435.3698690072698
 10
2166.104380184107
 20
446.4492068866922
 10
2166.816703501826
 20
455.8141978336072
 10
2166.928847885986
 20
466.4766789623812
 10
2166.395712000061
 20
475.5021198716399
 10
2165.159165175671
 20
485.7503384272763
 10
2162.568951450234
 20
498.7199764203378
 10
2159.500634794661
 20
509.8623287464413
 10
2155.764402009313
 20
520.7120178980254
 10
2151.447128026767
 20
531.2600325906333
 10
2146.001572179098
 20
542.76193987293
 10
2138.672035969947
 20
556.2822991496673
 10
2130.075057795946
 20
570.3469126793718
 10
2121.147405869942
 20
583.6469872112664
 10
2108.437390923926
 20
601.2627458523987
 10
2098.1161034232
 20
614.7006162444229
 10
2089.192703140049
 20
625.4111857882642
 10
2079.926375202629
 20
635.5294380895064
 10
2070.999895734808
 20
644.217746187086
  0
LWPOLYLINE
  5
92
100
AcDbEntity
  8
8
  6
ByLayer
 62
  256
370
   -1
100
AcDbPolyline
 90
   17
 70
    0
 43
0
 10
-1986.847359282139
 20
-37.09252139271439
 10
-2003.314805908453
 20
-38.6198160669515
 10
-2023.00696596778
 20
-39.45448876601563
 10
-2038.054075320657
 20
-39.34900980375994
 10
-2056.040891844791
 20
-38.2467819264487
 10
-2073.136228506161
 20
-36.1744438759489
 10
-2089.363793313013
 20
-33.24447114310345
 10
-2104.800871987097
 20
-29.44820641861054
 10
-2122.307878597036
 20
-23.92532942084853
 10
-2136.083594640488
 20
-18.63111799091416
 10
-2151.74015629558
 20
-11.47896514808576
 10
-2166.461908990901
 20
-3.667530187227612
 10
-2180.360129701838
 20
4.775774539813256
 10
-2193.462816266016
 20
13.61904148455415
 10
-2209.85149582474
 20
25.91512793677521
 10
-2225.148125768366
 20
38.45621820421161
 10
-2242.983556140882
 20
54.01426314132152
  0
LWPOLYLINE
  5
93
100
AcDbEntity
  8
8
  6
ByLayer
 62
  256
370
   -1
100
AcDbPolyline
 90
   80
 70
    0
 43
0
 10
-1886.953252716388
 20
-699.9539201275633
 10
-1809.327155184859
 20
-673.0648965047851
 10
-1745.770663060519
 20
-652.1574366989595
 10
-1679.052868762542
 20
-631.223574341539
 10
-1617.871458431376
 20
-612.9811002066879
 10
-1562.305829952618
 20
-597.1807118009393
 10
-1521.234111674885
 20
-585.96730552191
 10
-1438.746762426566
 20
-564.6663127735787
 10
-1394.383176036028
 20
-553.8456591281258
 10
-1388.301657844991
 20
-552.7683170864639
 10
-1373.322138890766
 20
-548.1540285486498
 10
-1336.993373659295
 20
-538.0884388600674
 10
-1267.35652994273
 20
-519.6220232498193
 10
-1209.809510265083
 20
-505.2152239035837
 10
-1149.225102040956
 20
-490.8524825748373
 10
-1109.835633413561
 20
-481.9695835360223
 10
-1046.196712939008
 20
-468.3619523251042
 10
-994.6606565395375
 20
-458.037623753614
 10
-946.1605911011812
 20
-448.8465102563717
 10
-900.6841859583317
 20
-440.7163456107132
 10
-849.1465121168184
 20
-432.0504782015776
 10
-788.4929876013157
 20
-422.6502081039143
 10
-743.0011588268106
 20
-416.1367139824825
 10
-676.258782126813
 20
-407.4537962141689
 10
-663.9235305957552
 20
-406.4087962247929
 10
-648.2230934910607
 20
-403.054633472427
 10
-594.1616946168731
 20
-393.5737823465771
 10
-546.4694362614727
 20
-385.8006547181791
 10
-495.6142912492088
 20
-378.1074957770269
 10
-413.0132791039591
 20
-366.9223341518627
 10
-349.4969161580095
 20
-359.4444317295648
 10
-292.3526859209101
 20
-353.5454405884622
 10
-238.404240729438
 20
-348.691603733094
 10
-174.9583660991366
 20
-343.8792560527988
 10
-117.8917890031746
 20
-340.3542569966288
 10
-57.67122503711425
 20
-337.4998051169493
 10
-10.14194863582543
 20
-335.8729202134029
 10
50.02336482049282
 20
-334.5616112558438
 10
106.9719546135968
 20
-334.0675678858661
 10
161.0035224372032
 20
-322.8784867374613
 10
212.3514477299823
 20
-312.9015652707103
 10
254.8807650247052
 20
-305.1377148338279
 10
303.7671193223291
 20
-296.7949801338716
 10
352.9371167212998
 20
-288.9809877250088
 10
402.3981329055878
 20
-281.7116047620178
 10
445.9196234664757
 20
-275.8052932100124
 10
495.9402012462344
 20
-269.5833342061132
 10
549.3991702863082
 20
-263.5538284338128
 10
603.2006668039517
 20
-258.1660426550069
 10
657.3238922775295
 20
-253.3770483824399
 10
702.156303069858
 20
-249.9202350850231
 10
763.3404189763137
 20
-245.8566628771057
 10
798.9675051726144
 20
-243.8891944146879
 10
909.8478745955108
 20
-239.1756958420642
 10
994.0606094584341
 20
-220.6134463818916
 10
1072.807016320713
 20
-204.4867808917502
 10
1155.176956744622
 20
-189.0089123770175
 10
1232.025931276562
 20
-175.9148667858634
 10
1300.081453679667
 20
-165.3093203292309
 10
1387.319638980943
 20
-153.1437352761087
 10
1459.482409570765
 20
-144.2295905835708
 10
1557.46541558318
 20
-133.7644756484622
 10
1560.472121267144
 20
-133.1044761555338
 10
1656.251510487662
 20
-87.47715995020422
 10
1713.912331677383
 20
-61.04438329524407
 10
1768.990702539665
 20
-36.5914503408593
 10
1804.900679997347
 20
-21.123017311316
 10
1860.300430472373
 20
2.046624734901116
 10
1940.969432942604
 20
34.2708432851116
 10
2007.994359395554
 20
59.7887215132298
 10
2080.933427230589
 20
86.13268089492271
 10
2148.546375107972
 20
109.2846859822959
 10
2151.137142679742
 20
110.7283284352493
 10
2234.021283352612
 20
188.8577840413823
 10
2280.362621471404
 20
231.2502281457456
 10
2313.016700826258
 20
260.30019628321
 10
2359.923794054615
 20
301.0095432157495
 10
2407.144511461428
 20
340.7673113848524
 10
2445.181342169914
 20
371.8128067466006
 10
2485.7938321472
 20
404.1700804832155
  0
ENDBLK
  5
54
330
52
100
AcDbEntity
  8
0
100
AcDbBlockEnd
  0
BLOCK
  5
56
330
55
100
AcDbEntity
  8
0
100
AcDbBlockBegin
  2
LE1M
 70
    0
 10
0
 20
0
  3
LE1M
  1

  0
LWPOLYLINE
  5
94
100
AcDbEntity
  8
1
  6
ByLayer
 62
  256
370
   -1
100
AcDbPolyline
 90
  113
 70
    0
 43
0
 10
782.0253295898438
 20
-238.8820190429688
 10
482.5923299789429
 20
-245.3356323242188
 10
206.368408203125
 20
-251.8711547851562
 10
-134.5230102539062
 20
-266.7217407226562
 10
-315.8270874023438
 20
-275.0037231445312
 10
-609.9129638671875
 20
-289.6195678710938
 10
-789.251708984375
 20
-301.6489868164062
 10
-923.398193359375
 20
-311.1036987304688
 10
-1057.195678710938
 20
-321.1179809570312
 10
-1185.998901367188
 20
-331.3386840820312
 10
-1188.963134765625
 20
-330.8993530273438
 10
-1191.735595703125
 20
-329.7727661132812
 10
-1195.296508789062
 20
-326.7858276367188
 10
-1211.606079101562
 20
-297.4475708007812
 10
-1230.120849609375
 20
-262.5343627929688
 10
-1248.033203125
 20
-227.3609008789062
 10
-1273.211547851562
 20
-175.0232543945312
 10
-1288.69873046875
 20
-140.6121215820312
 10
-1295.87451171875
 20
-123.5358276367188
 10
-1297.913208007812
 20
-118.5375366210938
 10
-1298.593872070312
 20
-115.9103393554688
 10
-1298.691162109375
 20
-113.1979370117188
 10
-1297.901123046875
 20
-109.6542358398438
 10
-1296.128051757812
 20
-106.4808959960938
 10
-1293.0498046875
 20
-103.5844116210938
 10
-1289.15185546875
 20
-101.8930053710938
 10
-1246.772705078125
 20
-88.84564208984375
 10
-1203.982177734375
 20
-74.33587646484375
 10
-1201.559814453125
 20
-73.17767333984375
 10
-1198.741577148438
 20
-71.00457763671875
 10
-1195.89599609375
 20
-67.60858154296875
 10
-1193.723388671875
 20
-63.74920654296875
 10
-1190.596801757812
 20
-55.49212646484375
 10
-1188.073852539062
 20
-39.62298583984375
 10
-1185.26611328125
 20
56.94537353515625
 10
-1185.461303710938
 20
68.87335205078125
 10
-1186.336181640625
 20
73.15362548828125
 10
-1188.461547851562
 20
76.94586181640625
 10
-1192.092529296875
 20
80.58184814453125
 10
-1203.05224609375
 20
87.59356689453125
 10
-1208.170166015625
 20
93.78106689453125
 10
-1211.642700195312
 20
96.17974853515625
 10
-1235.076416015625
 20
134.1284790039062
 10
-1248.434936523438
 20
148.9771118164062
 10
-1251.004150390625
 20
152.5015258789062
 10
-1252.22705078125
 20
155.8169555664062
 10
-1252.478393554688
 20
159.3401489257812
 10
-1251.729736328125
 20
162.7952270507812
 10
-1244.87548828125
 20
174.3831176757812
 10
-1153.673828125
 20
322.5825805664062
 10
-1150.997680664062
 20
326.7380981445312
 10
-1149.251220703125
 20
328.5071411132812
 10
-1144.870239257812
 20
330.8596801757812
 10
-1142.40966796875
 20
331.3386840820312
 10
-1139.903442382812
 20
331.3171997070312
 10
-1137.4521484375
 20
330.7966918945312
 10
-1118.932373046875
 20
322.8694458007812
 10
-1099.979125976562
 20
315.6463012695312
 10
-1080.658569335938
 20
309.0205688476562
 10
-1061.048095703125
 20
302.8670043945312
 10
-1021.237426757812
 20
291.5217895507812
 10
-1000.406005859375
 20
284.9629516601562
 10
-961.4140625
 20
274.6773071289062
 10
-928.9205322265625
 20
265.2661743164062
 10
-901.168212890625
 20
258.5110473632812
 10
-860.088623046875
 20
249.2073364257812
 10
-756.2078857421875
 20
227.7376098632812
 10
-700.4759521484375
 20
216.9661254882812
 10
-651.031005859375
 20
208.0818481445312
 10
-629.805908203125
 20
204.4104614257812
 10
-565.358154296875
 20
194.6946411132812
 10
-500.5430908203125
 20
185.6096801757812
 10
-391.96142578125
 20
171.4519653320312
 10
-326.417724609375
 20
163.6277465820312
 10
-262.7715454101562
 20
156.6589965820312
 10
-172.1035766601562
 20
147.6672973632812
 10
-83.18603515625
 20
139.7420043945312
 10
6.249420166015625
 20
132.5276489257812
 10
163.954345703125
 20
120.8809204101562
 10
417.2893829345703
 20
110.3733520507812
 10
648.3121032714844
 20
102.4412231445312
 10
1019.689086914062
 20
92.17681884765625
 10
1249.818481445312
 20
87.17681884765625
 10
1254.596435546875
 20
85.67926025390625
 10
1257.920104980469
 20
83.00860595703125
 10
1259.18994140625
 20
81.28717041015625
 10
1260.414611816406
 20
78.65411376953125
 10
1260.99267578125
 20
75.80352783203125
 10
1260.896057128906
 20
72.89483642578125
 10
1260.133666992188
 20
70.09112548828125
 10
1239.445617675781
 20
36.97955322265625
 10
1228.643310546875
 20
20.59356689453125
 10
1222.310363769531
 20
8.57476806640625
 10
1221.903442382812
 20
6.85089111328125
 10
1222.01806640625
 20
5.24493408203125
 10
1225.83203125
 20
-23.23309326171875
 10
1231.002075195312
 20
-48.71038818359375
 10
1234.134460449219
 20
-61.39471435546875
 10
1237.852355957031
 20
-73.98211669921875
 10
1246.055236816406
 20
-98.98968505859375
 10
1255.613525390625
 20
-123.6569213867188
 10
1266.092102050781
 20
-147.9891967773438
 10
1277.490844726562
 20
-171.8488159179688
 10
1295.773254394531
 20
-206.8932495117188
 10
1298.304260253906
 20
-212.4429321289062
 10
1298.691162109375
 20
-215.5021362304688
 10
1298.375549316406
 20
-218.5256958007812
 10
1297.195007324219
 20
-221.5795288085938
 10
1295.259094238281
 20
-224.2142944335938
 10
1292.705200195312
 20
-226.2573852539062
 10
1289.7099609375
 20
-227.5707397460938
 10
1266.835571289062
 20
-228.4840698242188
 10
782.0253295898438
 20
-238.8820190429688
  0
LWPOLYLINE
  5
95
100
AcDbEntity
  8
8
  6
ByLayer
 62
  256
370
   -1
100
AcDbPolyline
 90
   32
 70
    0
 43
0
 10
1260.833318933651
 20
62.04733927530742
 10
1167.372381089623
 20
63.73593283351283
 10
1004.021187139945
 20
67.58306620873554
 10
655.8925654283755
 20
77.18739494189094
 10
401.7488146843632
 20
85.94071003166437
 10
171.5587426003725
 20
95.60233011865284
 10
13.84380272814479
 20
106.9482585222013
 10
-120.1699408147238
 20
117.856963854475
 10
-231.002413952186
 20
128.262008403774
 10
-340.9477573224693
 20
140.1322007391159
 10
-406.4236116443697
 20
148.0761974749289
 10
-493.283353518033
 20
159.4160190352291
 10
-579.6862492832677
 20
171.5417378042075
 10
-643.954993280104
 20
181.5081348274807
 10
-707.3507051022677
 20
192.8543859801125
 10
-749.3178420742495
 20
200.8353516591019
 10
-832.5330023318713
 20
217.8426324289612
 10
-894.4782587151121
 20
231.2838775789769
 10
-955.4578434939915
 20
246.2763377564925
 10
-995.4272142001564
 20
257.3796136789501
 10
-1034.816531525398
 20
269.4226834190877
 10
-1074.581044455316
 20
280.8557050352674
 10
-1094.113668299726
 20
287.1405459866332
 10
-1113.347984187128
 20
293.9117183403782
 10
-1132.207370490295
 20
301.2909975844145
 10
-1153.50828902428
 20
310.3211403893351
 10
-1155.135487827095
 20
311.6019949907072
 10
-1156.260483490057
 20
313.3584773413027
 10
-1156.746660402322
 20
315.3864413241954
 10
-1156.562870370562
 20
317.3785850571853
 10
-1155.757989222375
 20
319.2106278727624
 10
-1138.494469029909
 20
347.266981935727
  0
LWPOLYLINE
  5
96
100
AcDbEntity
  8
8
  6
ByLayer
 62
  256
370
   -1
100
AcDbPolyline
 90
   18
 70
    0
 43
0
 10
-1183.179605888576
 20
-349.40811930989
 10
-1197.078819941126
 20
-323.5190022016991
 10
-1201.03775306619
 20
-314.7178903604258
 10
-1201.062235680734
 20
-312.7935491804972
 10
-1199.981218072952
 20
-310.0729995402828
 10
-1197.772947786249
 20
-308.1563584006419
 10
-1195.074724818723
 20
-307.2321291798742
 10
-1192.278631016768
 20
-306.6703744065733
 10
-1092.678980932661
 20
-298.7915311521351
 10
-936.6567004796809
 20
-286.9901182789529
 10
-757.7481550990451
 20
-274.4404094947142
 10
-600.6960007411237
 20
-264.0987874616046
 10
-419.7398671800713
 20
-254.9686837543338
 10
-238.5412681782248
 20
-246.3911197745429
 10
215.8227847214934
 20
-226.6586265160522
 10
561.1434828268895
 20
-218.5830344518229
 10
999.1035757046334
 20
-209.4524420751156
 10
1299.495766667842
 20
-202.7599506870952
  0
LWPOLYLINE
  5
97
100
AcDbEntity
  8
8
  6
ByLayer
 62
  256
370
   -1
100
AcDbPolyline
 90
   20
 70
    0
 43
0
 10
1312.80521331453
 20
-227.6731386277554
 10
1284.984610132381
 20
-227.9933433403014
 10
1280.245706996553
 20
-226.52676973391
 10
1276.440513751732
 20
-223.3302908930316
 10
1261.570810004317
 20
-195.8086109360947
 10
1249.82627108118
 20
-172.2837860229831
 10
1238.856101649
 20
-148.3182932847135
 10
1228.788754322735
 20
-123.8446062433645
 10
1219.710608146142
 20
-99.09436291132124
 10
1211.774528151816
 20
-73.98980435128033
 10
1205.27771865094
 20
-48.60877702796643
 10
1202.687721111034
 20
-35.804915388891
 10
1198.682920689219
 20
-10.18920924866143
 10
1197.602547685869
 20
2.360877675619577
 10
1198.873695062176
 20
15.15835581733245
 10
1203.333864569464
 20
26.33464278398969
 10
1239.432596598136
 20
83.30371904925732
 10
1242.804023186347
 20
85.84431283663844
 10
1246.803191382046
 20
87.12499976157642
 10
1276.440464031808
 20
86.7964299131695
  0
LWPOLYLINE
  5
98
100
AcDbEntity
  8
8
  6
ByLayer
 62
  256
370
   -1
100
AcDbPolyline
 90
    8
 70
    0
 43
0
 10
-1301.153979279412
 20
-77.56075219414015
 10
-1275.469657013295
 20
-139.6049617906533
 10
-1266.575803970317
 20
-159.6105554417049
 10
-1250.385153930976
 20
-194.2639250967782
 10
-1233.937997074163
 20
-227.5646257123469
 10
-1215.971817356299
 20
-262.5627069779785
 10
-1197.957751829101
 20
-296.3759188121867
 10
-1163.419630386725
 20
-359.1714259310577
  0
LWPOLYLINE
  5
99
100
AcDbEntity
  8
8
  6
ByLayer
 62
  256
370
   -1
100
AcDbPolyline
 90
   11
 70
    0
 43
0
 10
-658.6087675834287
 20
-321.1718126036587
 10
-687.3324219914039
 20
-273.1590551533302
 10
-704.8799718082475
 20
-242.8391256993716
 10
-723.8789794204745
 20
-208.5347151503074
 10
-741.2933134647485
 20
-175.5369757973422
 10
-749.1160818305589
 20
-159.7477628805746
 10
-763.1938561919831
 20
-130.3721963301477
 10
-777.178434774725
 20
-98.60182603948624
 10
-789.4804916735343
 20
-66.93817913938483
 10
-794.0942536027133
 20
-53.72318095372748
 10
-800.0156005525455
 20
-34.48460200928503
  0
LWPOLYLINE
  5
9A
100
AcDbEntity
  8
8
  6
ByLayer
 62
  256
370
   -1
100
AcDbPolyline
 90
   10
 70
    0
 43
0
 10
130.2030955947208
 20
-278.2647555569463
 10
108.760678694498
 20
-244.0601393190116
 10
90.68553648695439
 20
-213.9810546459048
 10
75.91376984207176
 20
-188.2462523380864
 10
61.25123100029657
 20
-161.1415157736785
 10
54.77636253737643
 20
-148.286271353845
 10
40.26051276894094
 20
-118.1476339117421
 10
27.47437442071151
 20
-88.6021977536443
 10
18.0027936843552
 20
-63.57954553034097
 10
10.31963145209102
 20
-39.02211232701075
  0
LWPOLYLINE
  5
9B
100
AcDbEntity
  8
8
  6
ByLayer
 62
  256
370
   -1
100
AcDbPolyline
 90
   10
 70
    0
 43
0
 10
949.2042890693922
 20
-255.9651409458372
 10
930.4847237919831
 20
-227.5081443973254
 10
915.1759733791093
 20
-203.2372453460441
 10
899.9409027660521
 20
-177.7437444823615
 10
886.4614897862159
 20
-153.553893745956
 10
873.1727031958933
 20
-127.0879228707813
 10
861.6372652598994
 20
-101.5858385726538
 10
856.6449234334075
 20
-89.60546022673861
 10
850.2247514034107
 20
-72.39267991128509
 10
842.2115370047746
 20
-47.68515386604031
  0
LWPOLYLINE
  5
9C
100
AcDbEntity
  8
8
  6
ByLayer
 62
  256
370
   -1
100
AcDbPolyline
 90
    8
 70
    0
 43
0
 10
-1287.895933655183
 20
-73.30622435472969
 10
-1274.122237386537
 20
-108.1045083104664
 10
-1259.508683239507
 20
-142.8843297395449
 10
-1237.288490718588
 20
-191.168970267008
 10
-1219.473673442194
 20
-227.4094086110993
 10
-1203.028207473939
 20
-259.5009635046263
 10
-1183.519846791475
 20
-296.127979612756
 10
-1148.990448181723
 20
-358.9169114431706
  0
LWPOLYLINE
  5
9D
100
AcDbEntity
  8
8
  6
ByLayer
 62
  256
370
   -1
100
AcDbPolyline
 90
    2
 70
    0
 43
0
 10
842.2115370047746
 20
-47.68515386604031
 10
817.2286958771916
 20
-47.41002926862211
  0
LWPOLYLINE
  5
9E
100
AcDbEntity
  8
8
  6
ByLayer
 62
  256
370
   -1
100
AcDbPolyline
 90
    2
 70
    0
 43
0
 10
10.31963145209102
 20
-39.02211232701075
 10
-14.67175545085587
 20
-38.8443157911488
  0
LWPOLYLINE
  5
9F
100
AcDbEntity
  8
8
  6
ByLayer
 62
  256
370
   -1
100
AcDbPolyline
 90
    2
 70
    0
 43
0
 10
-800.0156005525455
 20
-34.48460200928503
 10
-825.0202019984524
 20
-34.36461976082455
  0
LWPOLYLINE
  5
A0
100
AcDbEntity
  8
8
  6
ByLayer
 62
  256
370
   -1
100
AcDbPolyline
 90
    2
 70
    0
 43
0
 10
84.42833887853953
 20
150.449812563731
 10
81.24616768730135
 20
145.9301200586328
  0
LWPOLYLINE
  5
A1
100
AcDbEntity
  8
8
  6
ByLayer
 62
  256
370
   -1
100
AcDbPolyline
 90
    2
 70
    0
 43
0
 10
-1114.834870313484
 20
347.523961268902
 10
-1248.050751324116
 20
131.0553397098292
  0
LWPOLYLINE
  5
A2
100
AcDbEntity
  8
8
  6
ByLayer
 62
  256
370
   -1
100
AcDbPolyline
 90
   90
 70
    0
 43
0
 10
-1172.569709235275
 20
21.58992411321287
 10
-1174.531884922075
 20
7.846520741106815
 10
-1174.00849376564
 20
2.064836096885756
 10
-1174.63457632585
 20
-7.77409644729687
 10
-1175.235816058048
 20
-33.89799117879056
 10
-1176.511567914103
 20
-50.43560509921645
 10
-1178.313457792427
 20
-58.07400146765895
 10
-1180.673456997039
 20
-65.14150993958765
 10
-1185.246559207639
 20
-74.49599924801896
 10
-1187.068931912391
 20
-76.97084557804419
 10
-1193.240714224401
 20
-82.82233195316439
 10
-1195.467728275455
 20
-84.27187510325257
 10
-1200.086084437233
 20
-86.37929674600173
 10
-1247.50696019259
 20
-102.2597140304269
 10
-1286.228501098626
 20
-114.1007804632309
 10
-1266.640048614583
 20
-159.4722347862225
 10
-1242.319919196165
 20
-210.6300930705213
 10
-1216.030414346248
 20
-262.4522846190268
 10
-1185.610490934381
 20
-318.8515849887551
 10
-1098.805229797513
 20
-311.7914465368401
 10
-943.1755550526966
 20
-299.9754848390444
 10
-804.8292313358838
 20
-290.1646960391718
 10
-614.6394522199432
 20
-277.4202656388843
 10
-448.7017803210205
 20
-268.8866040435971
 10
-244.5210331712356
 20
-259.149331401592
 10
198.347561610997
 20
-239.7258440982623
 10
558.4372840817505
 20
-231.1016915897078
 10
1286.237109928585
 20
-215.5643314292461
 10
1269.585080673534
 20
-183.9348500867925
 10
1257.384945784218
 20
-158.9037776188197
 10
1247.682557235798
 20
-137.0470349747047
 10
1237.304646035383
 20
-111.1524741059361
 10
1229.382973635937
 20
-88.6562538121625
 10
1221.404907613538
 20
-62.10908474090775
 10
1215.327344528231
 20
-35.24610177944987
 10
1211.570327303766
 20
-12.10981936211692
 10
1210.108023937732
 20
3.004501026428898
 10
1209.996804425536
 20
10.48907888759186
 10
1211.708331281853
 20
14.74607362133702
 10
1218.977016921001
 20
28.15969897884861
 10
1248.533511895466
 20
74.74885603359962
 10
1161.06742652921
 20
76.37181843782173
 10
1013.082646200652
 20
79.84248676758989
 10
674.7638309567327
 20
89.10893483511154
 10
425.9193345190139
 20
97.52501932187761
 10
185.30651115081
 20
107.4782117733666
 10
141.4680005469917
 20
110.0109062331944
 10
-12.94265558147316
 20
121.4679346714383
 10
-142.2255224370406
 20
132.3029131070916
 10
-234.9247754795143
 20
141.1583659856201
 10
-323.1330545749416
 20
150.595462167787
 10
-377.2100987489398
 20
156.9752707151756
 10
-445.4312286609324
 20
165.6606314374812
 10
-540.7914537658377
 20
178.5407386972915
 10
-637.8062410379819
 20
193.1178155669459
 10
-690.786145363219
 20
202.4810032064001
 10
-743.4552926103481
 20
212.4132482129035
 10
-765.099069381268
 20
216.6995525669863
 10
-767.2099760557965
 20
217.5975344887902
 10
-774.5389238167506
 20
218.6121819524196
 10
-867.634122968203
 20
238.0052517579525
 10
-919.3779997779125
 20
250.0116151345678
 10
-956.0531759495836
 20
259.3759595728575
 10
-990.0153087673568
 20
268.8501059341415
 10
-998.3289907827307
 20
270.8319415591495
 10
-999.7721084187301
 20
271.5552881695089
 10
-1036.58772120873
 20
282.0965901116324
 10
-1046.59994839577
 20
285.1847039303839
 10
-1047.792362970072
 20
285.9701917056991
 10
-1078.780766991059
 20
295.263333727793
 10
-1112.817691139895
 20
307.0584157898047
 10
-1127.248140090791
 20
312.7689946898245
 10
-1141.264604038045
 20
318.8970302901048
 10
-1240.013490154037
 20
158.4388656178612
 10
-1228.663794339183
 20
144.2732357363325
 10
-1223.565656649612
 20
136.2570225665663
 10
-1221.545670191014
 20
134.1048618013474
 10
-1201.59322646482
 20
106.7719404951295
 10
-1199.973894360509
 20
103.9722646565406
 10
-1197.515024183108
 20
102.5419044340219
 10
-1195.394049077082
 20
100.5599489994174
 10
-1189.594460755561
 20
93.69059863155235
 10
-1182.589685162045
 20
88.96377431451492
 10
-1179.047606319686
 20
85.16622562783414
 10
-1176.171261475191
 20
80.85347053235682
 10
-1174.056152181729
 20
76.00070942534512
 10
-1172.554039343152
 20
66.81570969044606
 10
-1172.773452053229
 20
57.07007085036912
 10
-1172.343281281484
 20
46.28707798509822
 10
-1173.130225280726
 20
35.03329819238661
  0
ENDBLK
  5
57
330
55
100
AcDbEntity
  8
0
100
AcDbBlockEnd
  0
BLOCK
  5
59
330
58
100
AcDbEntity
  8
0
100
AcDbBlockBegin
  2
US
 70
    0
 10
0
 20
0
  3
US
  1

  0
LWPOLYLINE
  5
A3
100
AcDbEntity
  8
1
  6
ByLayer
 62
  256
370
   -1
100
AcDbPolyline
 90
   82
 70
    0
 43
0
 10
-869.8535766601562
 20
446.8441162109375
 10
-118.764404296875
 20
576.8455810546875
 10
-97.0760498046875
 20
581.4793701171875
 10
739.7333984375
 20
804.6693115234375
 10
1417.703369140625
 20
945.4530029296875
 10
1439.360107421875
 20
949.1214599609375
 10
1459.030029296875
 20
945.4305419921875
 10
2065.79345703125
 20
820.7200927734375
 10
2496.62060546875
 20
706.1278076171875
 10
2499.7119140625
 20
705.2142333984375
 10
2501.0908203125
 20
704.3524169921875
 10
2502.74560546875
 20
702.2459716796875
 10
2503.33154296875
 20
700.2025146484375
 10
2502.61083984375
 20
695.6278076171875
 10
2431.694580078125
 20
397.7391357421875
 10
2431.011474609375
 20
395.9566650390625
 10
2429.829833984375
 20
394.4739990234375
 10
2428.195068359375
 20
393.3802490234375
 10
2414.9775390625
 20
390.3028564453125
 10
2392.65234375
 20
383.0540771484375
 10
2076.432373046875
 20
266.7103271484375
 10
1826.32958984375
 20
170.7615966796875
 10
1735.301025390625
 20
136.6619873046875
 10
1667.1513671875
 20
111.6373291015625
 10
1576.49267578125
 20
79.0284423828125
 10
1486.0693359375
 20
47.3282470703125
 10
1395.89453125
 20
16.5736083984375
 10
1328.43310546875
 20
-5.8507080078125
 10
1261.114013671875
 20
-27.7052001953125
 10
1193.958740234375
 20
-48.8363037109375
 10
500.49169921875
 20
-256.3848876953125
 10
-371.323974609375
 20
-521.2633056640625
 10
-616.208251953125
 20
-593.6468505859375
 10
-838.4710083007812
 20
-658.2720947265625
 10
-1060.299285888672
 20
-721.4508056640625
 10
-1171.022338867188
 20
-752.3778076171875
 10
-1193.032836914062
 20
-758.0321044921875
 10
-1302.550415039062
 20
-784.1959228515625
 10
-1411.794311523438
 20
-809.3438720703125
 10
-1520.706392288208
 20
-833.1788330078125
 10
-1607.595336914062
 20
-851.2945556640625
 10
-1715.81315612793
 20
-872.4117431640625
 10
-1802.035491943359
 20
-887.9378662109375
 10
-1888.054840087891
 20
-902.6683349609375
 10
-1941.998352050781
 20
-911.4752197265625
 10
-1973.759857177734
 20
-916.1622314453125
 10
-2058.75927734375
 20
-926.7921142578125
 10
-2101.076721191406
 20
-931.3997802734375
 10
-2164.379455566406
 20
-937.6400146484375
 10
-2222.760437011719
 20
-942.8299560546875
 10
-2290.170471191406
 20
-946.9547119140625
 10
-2331.646179199219
 20
-948.2825927734375
 10
-2372.839477539062
 20
-948.5076904296875
 10
-2391.853637695312
 20
-949.1214599609375
 10
-2453.9853515625
 20
-948.5750732421875
 10
-2475.309692382812
 20
-947.0928955078125
 10
-2496.278442382812
 20
-945.0726318359375
 10
-2499.331787109375
 20
-944.5316162109375
 10
-2501.865661621094
 20
-942.7406005859375
 10
-2503.221618652344
 20
-939.9871826171875
 10
-2503.128540039062
 20
-937.0028076171875
 10
-2268.844299316406
 20
-15.0230712890625
 10
-2267.932067871094
 20
-13.0870361328125
 10
-2266.418029785156
 20
-11.5689697265625
 10
-2264.449890136719
 20
-10.6424560546875
 10
-2262.284423828125
 20
-10.4461669921875
 10
-2238.8330078125
 20
-16.3502197265625
 10
-2234.895812988281
 20
-17.0093994140625
 10
-2230.905395507812
 20
-16.9163818359375
 10
-2227.031372070312
 20
-15.9490966796875
 10
-2223.426330566406
 20
-14.2303466796875
 10
-2220.012084960938
 20
-11.4283447265625
 10
-2217.380981445312
 20
-7.8717041015625
 10
-2214.22607421875
 20
0.3206787109375
 10
-2101.153015136719
 20
336.9866943359375
 10
-2094.193237304688
 20
359.1192626953125
 10
-2092.371704101562
 20
361.3511962890625
 10
-2089.755249023438
 20
362.5284423828125
 10
-2086.895385742188
 20
362.7440185546875
 10
-1644.079605102539
 20
387.0465087890625
 10
-891.2694702148438
 20
443.2874755859375
 10
-869.8535766601562
 20
446.8441162109375
  0
LWPOLYLINE
  5
A4
100
AcDbEntity
  8
8
  6
ByLayer
 62
  256
370
   -1
100
AcDbPolyline
 90
   27
 70
    0
 43
0
 10
-2163.41212167908
 20
-912.4167136965607
 10
-2073.384585564325
 20
-903.2843076467097
 10
-2030.978748458103
 20
-898.3166891237543
 10
-1967.15474558891
 20
-890.0302040797083
 10
-1924.326200823753
 20
-883.368519022828
 10
-1859.91403081872
 20
-872.7100705171201
 10
-1730.659698007812
 20
-849.7352243311011
 10
-1665.820753313039
 20
-837.4352425671373
 10
-1603.040695784902
 20
-824.9122902302784
 10
-1492.114296174624
 20
-801.5139415062235
 10
-1361.210257253351
 20
-772.1683621409247
 10
-1229.879692004437
 20
-741.2086967985156
 10
-1186.02011194066
 20
-730.5810835209318
 10
-1097.455982369534
 20
-705.9126033085126
 10
-942.2654598892163
 20
-662.0105359053559
 10
-764.6331700528203
 20
-610.8917313249226
 10
-586.7565352442896
 20
-558.9335620799529
 10
-386.4070747900989
 20
-499.6600292672806
 10
-143.7781214556603
 20
-426.249951377717
 10
-138.7698788299685
 20
-426.2060071763467
 10
-134.78787871706
 20
-427.7289656976354
 10
-133.0510539353904
 20
-428.9810459672935
 10
-131.0812614060487
 20
-431.128644084501
 10
-129.653299954904
 20
-433.6577615812589
 10
-128.8505555095503
 20
-436.4519068700747
 10
-128.7140010243115
 20
-439.3520466634241
 10
-134.9319955000726
 20
-464.5934686768492
  0
LWPOLYLINE
  5
A5
100
AcDbEntity
  8
8
  6
ByLayer
 62
  256
370
   -1
100
AcDbPolyline
 90
   16
 70
    0
 43
0
 10
-2509.294538837144
 20
-961.2689333927729
 10
-2500.82642758668
 20
-928.3992872496442
 10
-2498.12998198151
 20
-924.2481323698485
 10
-2496.205098289598
 20
-922.641646811991
 10
-2493.99908219649
 20
-921.4519868005568
 10
-2491.600588839815
 20
-920.7270335027356
 10
-2489.104430349585
 20
-920.490226458237
 10
-2458.500025332613
 20
-923.2888825219261
 10
-2428.398822328659
 20
-924.3600432580547
 10
-2407.84290904988
 20
-924.3938630278903
 10
-2366.452528443034
 20
-923.3716270716832
 10
-2325.264492458102
 20
-923.1542713274894
 10
-2283.752701103329
 20
-921.670454089342
 10
-2241.983495317191
 20
-919.179846434783
 10
-2200.002843539603
 20
-915.8628134648197
 10
-2163.41212167908
 20
-912.4167136965607
  0
LWPOLYLINE
  5
A6
100
AcDbEntity
  8
8
  6
ByLayer
 62
  256
370
   -1
100
AcDbPolyline
 90
   17
 70
    0
 43
0
 10
1179.728209615036
 20
-61.57837721512988
 10
1187.023175372714
 20
-32.48601767091532
 10
1188.692778418339
 20
-27.85472643070307
 10
1190.152164968608
 20
-25.84264627311404
 10
1194.071628154989
 20
-22.88263691622478
 10
1313.138242087336
 20
15.44306513082211
 10
1403.110424403907
 20
45.38961353245395
 10
1515.91154888137
 20
84.18196886662781
 10
1629.064871577329
 20
124.4237570425007
 10
1719.826597553017
 20
157.6006346571921
 10
1810.789840271776
 20
191.6168524319241
 10
2060.924651947594
 20
287.6332185194046
 10
2399.602139996443
 20
412.2458847919247
 10
2418.422743178184
 20
416.6196775093622
 10
2423.153140036716
 20
415.9901132081254
 10
2426.839546592382
 20
414.0409828052793
 10
2428.431512939462
 20
412.5340660338379
  0
LWPOLYLINE
  5
A7
100
AcDbEntity
  8
8
  6
ByLayer
 62
  256
370
   -1
100
AcDbPolyline
 90
   10
 70
    0
 43
0
 10
-28.9599850322561
 20
-391.237468896677
 10
485.1690302372297
 20
-234.8784129035794
 10
1195.044577923977
 20
-22.42725620115107
 10
1197.847422629277
 20
-21.74662514573447
 10
1200.730344430164
 20
-21.69122052807552
 10
1205.198230976197
 20
-22.99083469147809
 10
1208.869723983426
 20
-25.85858541891776
 10
1211.116100350594
 20
-29.5420146073634
 10
1211.990571966654
 20
-33.74278607322913
 10
1207.750165561632
 20
-52.69705056134717
  0
LWPOLYLINE
  5
A8
100
AcDbEntity
  8
8
  6
ByLayer
 62
  256
370
   -1
100
AcDbPolyline
 90
    6
 70
    0
 43
0
 10
-162.9551142991131
 20
-473.2393537216913
 10
-153.2164494201525
 20
-435.0993413677515
 10
-151.4162885362687
 20
-431.3032945124687
 10
-148.4502147460228
 20
-428.3122552851
 10
-144.7037297641705
 20
-426.4847301769951
 10
-28.9599850322561
 20
-391.237468896677
  0
LWPOLYLINE
  5
A9
100
AcDbEntity
  8
8
  6
ByLayer
 62
  256
370
   -1
100
AcDbPolyline
 90
    2
 70
    0
 43
0
 10
-2093.791785636018
 20
349.8260774310193
 10
-1641.311652763853
 20
374.6088912740424
  0
LWPOLYLINE
  5
AA
100
AcDbEntity
  8
8
  6
ByLayer
 62
  256
370
   -1
100
AcDbPolyline
 90
    4
 70
    0
 43
0
 10
-1641.311652763853
 20
374.6088912740424
 10
-1028.855192599925
 20
419.8276594992808
 10
-897.3925132937134
 20
429.6703894057359
 10
-888.3161251696946
 20
430.7825777219568
  0
LWPOLYLINE
  5
AB
100
AcDbEntity
  8
8
  6
ByLayer
 62
  256
370
   -1
100
AcDbPolyline
 90
    5
 70
    0
 43
0
 10
-888.3161251696946
 20
430.7825777219568
 10
-870.7397259206318
 20
433.3791076846196
 10
-732.1558125555792
 20
457.1881605059225
 10
-130.6352887959968
 20
560.8179710947743
 10
-104.0266740869531
 20
565.6739007321576
  0
LWPOLYLINE
  5
AC
100
AcDbEntity
  8
8
  6
ByLayer
 62
  256
370
   -1
100
AcDbPolyline
 90
    3
 70
    0
 43
0
 10
-104.0266740869531
 20
565.6739007321576
 10
735.1861652993484
 20
789.6855097934204
 10
743.8315667050906
 20
791.7070905951969
  0
LWPOLYLINE
  5
AD
100
AcDbEntity
  8
8
  6
ByLayer
 62
  256
370
   -1
100
AcDbPolyline
 90
    4
 70
    0
 43
0
 10
743.8315667050906
 20
791.7070905951969
 10
758.5080022495513
 20
795.0675951894955
 10
1435.30839204086
 20
936.3384029846993
 10
1438.049290211439
 20
936.2467855489904
  0
LWPOLYLINE
  5
AE
100
AcDbEntity
  8
8
  6
ByLayer
 62
  256
370
   -1
100
AcDbPolyline
 90
    3
 70
    0
 43
0
 10
1438.049290211439
 20
936.2467855489904
 10
1458.818084253904
 20
932.7098672884167
 10
2064.592005859167
 20
808.1207589668802
  0
LWPOLYLINE
  5
AF
100
AcDbEntity
  8
8
  6
ByLayer
 62
  256
370
   -1
100
AcDbPolyline
 90
    2
 70
    0
 43
0
 10
2064.592005859167
 20
808.1207589668802
 10
2477.553740012418
 20
698.319882464406
  0
LWPOLYLINE
  5
B0
100
AcDbEntity
  8
8
  6
ByLayer
 62
  256
370
   -1
100
AcDbPolyline
 90
    8
 70
    0
 43
0
 10
2315.767238037543
 20
350.2002233226863
 10
2316.219668135081
 20
356.5787095993769
 10
2316.906198894934
 20
359.5207294514162
 10
2319.221249791261
 20
364.9980330088501
 10
2320.825225999224
 20
367.4858124775351
 10
2324.811096057696
 20
371.7651436905571
 10
2329.668526750998
 20
375.0037392855302
 10
2332.336486056984
 20
376.1451408762646
  0
LWPOLYLINE
  5
B1
100
AcDbEntity
  8
8
  6
ByLayer
 62
  256
370
   -1
100
AcDbPolyline
 90
    2
 70
    0
 43
0
 10
2332.336486056984
 20
376.1451408762646
 10
2407.318746680293
 20
403.301686968076
  0
LWPOLYLINE
  5
B2
100
AcDbEntity
  8
8
  6
ByLayer
 62
  256
370
   -1
100
AcDbPolyline
 90
    2
 70
    0
 43
0
 10
-915.6022978917092
 20
428.3063911507293
 10
-1271.811142045642
 20
-730.7209275387468
  0
LWPOLYLINE
  5
B3
100
AcDbEntity
  8
8
  6
ByLayer
 62
  256
370
   -1
100
AcDbPolyline
 90
    2
 70
    0
 43
0
 10
712.0912800256906
 20
783.5076539701286
 10
360.2135891160624
 20
-198.5388698204279
  0
LWPOLYLINE
  5
B4
100
AcDbEntity
  8
8
  6
ByLayer
 62
  256
370
   -1
100
AcDbPolyline
 90
    5
 70
    0
 43
0
 10
1716.952856460185
 20
879.5805904483204
 10
1555.021263475691
 20
644.2281540188014
 10
1375.684558034754
 20
384.5604202020286
 10
1265.211765664385
 20
224.9653105751131
 10
1099.2715270107
 20
-13.16205164148005
  0
LWPOLYLINE
  5
B5
100
AcDbEntity
  8
8
  6
ByLayer
 62
  256
370
   -1
100
AcDbPolyline
 90
    2
 70
    0
 43
0
 10
1099.2715270107
 20
-13.16205164148005
 10
1109.557803154193
 20
-20.7390829793344
  0
LWPOLYLINE
  5
B6
100
AcDbEntity
  8
8
  6
ByLayer
 62
  256
370
   -1
100
AcDbPolyline
 90
    2
 70
    0
 43
0
 10
1109.557803154193
 20
-20.7390829793344
 10
1119.829980484967
 20
-28.28664146118945
  0
LWPOLYLINE
  5
B7
100
AcDbEntity
  8
8
  6
ByLayer
 62
  256
370
   -1
100
AcDbPolyline
 90
    5
 70
    0
 43
0
 10
1119.829980484967
 20
-28.28664146118945
 10
1245.93830871568
 20
152.6106132145578
 10
1411.491848996282
 20
391.7206397821119
 10
1602.714907438768
 20
668.7819209062336
 10
1743.840982125569
 20
874.0584520676248
  0
LWPOLYLINE
  5
B8
100
AcDbEntity
  8
8
  6
ByLayer
 62
  256
370
   -1
100
AcDbPolyline
 90
    2
 70
    0
 43
0
 10
-2251.657536108959
 20
-28.60831284315918
 10
-2491.147904509757
 20
-971.100153958947
  0
LWPOLYLINE
  5
B9
100
AcDbEntity
  8
8
  6
ByLayer
 62
  256
370
   -1
100
AcDbPolyline
 90
    2
 70
    0
 43
0
 10
-1187.852407278186
 20
-457.4368975218686
 10
-1211.753005101949
 20
-449.8607488642269
  0
LWPOLYLINE
  5
BA
100
AcDbEntity
  8
8
  6
ByLayer
 62
  256
370
   -1
100
AcDbPolyline
 90
    2
 70
    0
 43
0
 10
-1195.255544137153
 20
-481.521613213481
 10
-1219.154715563717
 20
-473.9307271949178
  0
LWPOLYLINE
  5
BB
100
AcDbEntity
  8
8
  6
ByLayer
 62
  256
370
   -1
100
AcDbPolyline
 90
    2
 70
    0
 43
0
 10
419.6374471835536
 20
-32.9062373553038
 10
396.0791753298156
 20
-23.73667543636066
  0
LWPOLYLINE
  5
BC
100
AcDbEntity
  8
8
  6
ByLayer
 62
  256
370
   -1
100
AcDbPolyline
 90
    2
 70
    0
 43
0
 10
428.2190908317659
 20
-8.980582655577109
 10
404.6630258592747
 20
0.1848530314914569
  0
LWPOLYLINE
  5
BD
100
AcDbEntity
  8
8
  6
ByLayer
 62
  256
370
   -1
100
AcDbPolyline
 90
    7
 70
    0
 43
0
 10
511.6855790439436
 20
-214.4109595711311
 10
514.1210765374217
 20
-215.3733973240824
 10
515.774961163766
 20
-217.4384888073751
 10
516.2042696515755
 20
-220.0521163732947
 10
515.2945592204419
 20
-222.5115913506138
 10
513.2899533101231
 20
-224.1564247793599
 10
510.7276535124774
 20
-224.5456075953866
  0
LWPOLYLINE
  5
BE
100
AcDbEntity
  8
8
  6
ByLayer
 62
  256
370
   -1
100
AcDbPolyline
 90
    7
 70
    0
 43
0
 10
485.4649856477101
 20
-221.6625351729472
 10
483.0418983591667
 20
-220.6678947338428
 10
481.386016021014
 20
-218.5950992758303
 10
480.9502840377936
 20
-215.9811825086008
 10
481.8523423060287
 20
-213.5229429104911
 10
483.8513651402018
 20
-211.8754888038006
 10
486.411598540343
 20
-211.4807312553357
  0
LWPOLYLINE
  5
BF
100
AcDbEntity
  8
8
  6
ByLayer
 62
  256
370
   -1
100
AcDbPolyline
 90
    2
 70
    0
 43
0
 10
510.7276535124774
 20
-224.5456075953866
 10
485.4649856477108
 20
-221.6625351729472
  0
LWPOLYLINE
  5
C0
100
AcDbEntity
  8
8
  6
ByLayer
 62
  256
370
   -1
100
AcDbPolyline
 90
    2
 70
    0
 43
0
 10
511.6855790439436
 20
-214.4109595711311
 10
486.411598540343
 20
-211.4807312553357
  0
LWPOLYLINE
  5
C1
100
AcDbEntity
  8
8
  6
ByLayer
 62
  256
370
   -1
100
AcDbPolyline
 90
    2
 70
    0
 43
0
 10
2406.9170864826
 20
401.61483297216
 10
2477.553741749287
 20
698.319889753735
  0
ENDBLK
  5
5A
330
58
100
AcDbEntity
  8
0
100
AcDbBlockEnd
  0
BLOCK
  5
5C
330
5B
100
AcDbEntity
  8
0
100
AcDbBlockBegin
  2
TSF
 70
    0
 10
0
 20
0
  3
TSF
  1

  0
LWPOLYLINE
  5
C2
100
AcDbEntity
  8
1
  6
ByLayer
 62
  256
370
   -1
100
AcDbPolyline
 90
   64
 70
    0
 43
0
 10
-2093.901428222656
 20
252.3858642578125
 10
-1981.579498291016
 20
255.488037109375
 10
-1732.546539306641
 20
258.66162109375
 10
-1437.539485931396
 20
261.3267822265625
 10
-1164.659423828125
 20
262.6590576171875
 10
-750.3192749023438
 20
255.200439453125
 10
-312.3052978515625
 20
246.2713623046875
 10
635.822021484375
 20
224.0841064453125
 10
1377.7734375
 20
205.3968505859375
 10
1517.43603515625
 20
200.4893798828125
 10
1657.685791015625
 20
194.36328125
 10
1845.57568359375
 20
184.5767822265625
 10
2034.457763671875
 20
173.27294921875
 10
2198.272216796875
 20
166.1346435546875
 10
2314.957275390625
 20
161.7574462890625
 10
2431.144775390625
 20
158.344970703125
 10
2523.552978515625
 20
156.6527099609375
 10
2546.316650390625
 20
156.861328125
 10
2559.23046875
 20
157.4259033203125
 10
2562.34814453125
 20
156.2703857421875
 10
2564.888671875
 20
152.87060546875
 10
2580.55615234375
 20
123.632080078125
 10
2582.575927734375
 20
118.2279052734375
 10
2583.11767578125
 20
113.96435546875
 10
2582.31103515625
 20
111.552001953125
 10
2580.905029296875
 20
109.886474609375
 10
2578.230224609375
 20
108.578369140625
 10
2576.346435546875
 20
108.3087158203125
 10
2103.353271484375
 20
46.0936279296875
 10
1394.476806640625
 20
2.8052978515625
 10
671.314697265625
 20
-12.9296875
 10
-142.3690185546875
 20
-25.1064453125
 10
-277.78271484375
 20
-27.4793701171875
 10
-367.791748046875
 20
-29.5450439453125
 10
-524.55810546875
 20
-34.50732421875
 10
-680.3692626953125
 20
-41.18896484375
 10
-857.38720703125
 20
-50.71728515625
 10
-1011.390258789062
 20
-60.63427734375
 10
-1097.3095703125
 20
-70.03369140625
 10
-1204.398376464844
 20
-82.3804931640625
 10
-1396.34797668457
 20
-106.131103515625
 10
-1587.306793212891
 20
-131.699462890625
 10
-1692.981979370117
 20
-146.647705078125
 10
-1777.248565673828
 20
-159.0869140625
 10
-1901.348571777344
 20
-181.8388671875
 10
-2025.001098632812
 20
-205.45458984375
 10
-2155.574462890625
 20
-231.40478515625
 10
-2291.420776367188
 20
-259.4832763671875
 10
-2309.811340332031
 20
-262.6397705078125
 10
-2311.1494140625
 20
-262.770263671875
 10
-2313.601257324219
 20
-262.269287109375
 10
-2316.29296875
 20
-260.0640869140625
 10
-2318.555847167969
 20
-256.0692138671875
 10
-2520.827758789062
 20
106.07177734375
 10
-2548.284301757812
 20
157.1668701171875
 10
-2575.3330078125
 20
209.2186279296875
 10
-2579.479614257812
 20
217.9228515625
 10
-2583.11767578125
 20
226.8651123046875
 10
-2582.641479492188
 20
230.1981201171875
 10
-2581.892211914062
 20
231.4664306640625
 10
-2579.622436523438
 20
233.3153076171875
 10
-2574.079345703125
 20
234.6038818359375
 10
-2340.273620605469
 20
244.1600341796875
 10
-2093.901428222656
 20
252.3858642578125
  0
LWPOLYLINE
  5
C3
100
AcDbEntity
  8
8
  6
ByLayer
 62
  256
370
   -1
100
AcDbPolyline
 90
    5
 70
    0
 43
0
 10
732.2469569864747
 20
0.869074250189442
 10
1387.639330472533
 20
15.11031161300571
 10
2096.756542784833
 20
58.14158878941475
 10
2118.261143388318
 20
60.63895040792522
 10
2576.692653549821
 20
120.9549662370275
  0
LWPOLYLINE
  5
C4
100
AcDbEntity
  8
8
  6
ByLayer
 62
  256
370
   -1
100
AcDbPolyline
 90
   29
 70
    0
 43
0
 10
-2303.99008139322
 20
-282.1384842016907
 10
-2313.436513283907
 20
-265.2322804705641
 10
-2316.678765691798
 20
-257.8492134948654
 10
-2316.675176103126
 20
-255.1263342929005
 10
-2316.212504632629
 20
-253.796621031918
 10
-2314.467251325409
 20
-251.6043614263504
 10
-2313.273730815188
 20
-250.8529917606036
 10
-2297.806166966487
 20
-248.0548779909732
 10
-2134.119229050904
 20
-214.3181064717337
 10
-2031.424973435323
 20
-193.96967813381
 10
-1928.425262456853
 20
-174.2048110210578
 10
-1804.415073587777
 20
-151.2794819333321
 10
-1766.521229604338
 20
-144.7536561216393
 10
-1657.285396318045
 20
-128.9076629909005
 10
-1530.316450245936
 20
-111.2574660271739
 10
-1424.184345067393
 20
-97.13488152106834
 10
-1317.748124011679
 20
-83.5652710749473
 10
-1210.998916171333
 20
-70.57454549819386
 10
-1103.923988766317
 20
-58.19551766037785
 10
-1018.014008350151
 20
-48.76807643025541
 10
-996.2411024354647
 20
-46.94523391646885
 10
-886.2031974715485
 20
-39.92308774437811
 10
-709.3492976183505
 20
-30.09834162780339
 10
-553.7021457719784
 20
-23.11728421135467
 10
-397.1116165988701
 20
-17.83256126974015
 10
-284.671798774855
 20
-15.11641449660374
 10
-149.268012536437
 20
-12.71739653003078
 10
596.5943526811216
 20
-1.62014555382757
 10
732.2469569864747
 20
0.869074250189442
  0
LWPOLYLINE
  5
C5
100
AcDbEntity
  8
8
  6
ByLayer
 62
  256
370
   -1
100
AcDbPolyline
 90
   25
 70
    0
 43
0
 10
-96.58320414766126
 20
260.6546602008834
 10
-85.09906895081713
 20
236.959940188885
 10
-82.78952032316556
 20
231.3138489563455
 10
-82.52765689498824
 20
228.2548399576058
 10
-83.02121691700177
 20
225.2286037913846
 10
-84.34711635490021
 20
222.24564378626
 10
-86.39545425893311
 20
219.6929944111805
 10
-89.03630190990475
 20
217.7625272804185
 10
-92.08673994014634
 20
216.5836198414695
 10
-114.9786959941985
 20
216.7020324417977
 10
-345.9770664919654
 20
222.0172165014715
 10
-668.6799531249163
 20
228.6203122010622
 10
-1175.109639454475
 20
237.8246270039506
 10
-1402.396436134286
 20
236.5793695672376
 10
-1606.705184923886
 20
234.958511421152
 10
-1788.052561455537
 20
233.0427325830988
 10
-1991.692446646847
 20
230.3404646857671
 10
-2148.770276164891
 20
225.6993896384029
 10
-2305.532575002173
 20
220.4164309408363
 10
-2439.591845584882
 20
215.2646511460798
 10
-2568.690203724928
 20
209.7139326440386
 10
-2571.632233792649
 20
210.2684622292306
 10
-2574.357783656097
 20
211.5014074138348
 10
-2577.811755770277
 20
214.6053580992409
 10
-2593.026293910499
 20
244.403316316708
  0
LWPOLYLINE
  5
C6
100
AcDbEntity
  8
8
  6
ByLayer
 62
  256
370
   -1
100
AcDbPolyline
 90
   19
 70
    0
 43
0
 10
2564.954106845631
 20
139.0525074837126
 10
2562.882763430276
 20
136.08442073315
 10
2561.063400458637
 20
134.4776394229195
 10
2557.82562477024
 20
132.8210276509667
 10
2544.815542974116
 20
131.7403497459848
 10
2537.049752693549
 20
131.5024562581343
 10
2430.17239680484
 20
133.3603675426571
 10
2305.335908293466
 20
137.0733945014997
 10
2188.565455208052
 20
141.5041534878376
 10
2048.119483631413
 20
147.4618237987186
 10
1811.668975131408
 20
161.4169763839279
 10
1693.944923844755
 20
167.5719802231536
 10
1600.072908294556
 20
171.988782836765
 10
1436.498949339081
 20
178.4813242261725
 10
1292.035828047666
 20
182.7336035916001
 10
1287.250727097152
 20
184.0387615273953
 10
1284.775245374646
 20
185.6942114374826
 10
1282.766586596161
 20
187.8539307548035
 10
1267.789276635433
 20
220.1879995890586
  0
LWPOLYLINE
  5
C7
100
AcDbEntity
  8
8
  6
ByLayer
 62
  256
370
   -1
100
AcDbPolyline
 90
   16
 70
    0
 43
0
 10
1295.41299746372
 20
219.2413278588704
 10
1303.809213991709
 20
201.3492871673532
 10
1305.236651929226
 20
197.0491312754198
 10
1305.361770100631
 20
194.7672955191128
 10
1304.135885418592
 20
189.7148028073404
 10
1302.579264233621
 20
187.2780519347671
 10
1300.500153977833
 20
185.271476926338
 10
1298.006140665441
 20
183.8115795814883
 10
1293.836583437811
 20
182.7417514933306
 10
624.691102663262
 20
199.3704370390963
 10
-91.87083541132188
 20
216.157127077277
 10
-96.82616734797034
 20
216.3743772457933
 10
-99.24394531729968
 20
216.9807915214114
 10
-103.4922327070267
 20
219.5532348710371
 10
-105.1509617131676
 20
221.417848449262
 10
-124.3241746081069
 20
261.4260462755346
  0
LWPOLYLINE
  5
C8
100
AcDbEntity
  8
8
  6
ByLayer
 62
  256
370
   -1
100
AcDbPolyline
 90
    5
 70
    0
 43
0
 10
-2589.378402826662
 20
264.962724816143
 10
-2563.913095936611
 20
214.2369074670567
 10
-2544.067336923072
 20
175.9524198942759
 10
-2506.789070237678
 20
106.4419166201935
 10
-2286.484782883184
 20
-287.8429817820368
  0
LWPOLYLINE
  5
C9
100
AcDbEntity
  8
8
  6
ByLayer
 62
  256
370
   -1
100
AcDbPolyline
 90
    2
 70
    0
 43
0
 10
2533.146609831547
 20
159.1544670783164
 10
2563.141762440801
 20
103.2323308952623
  0
LWPOLYLINE
  5
CA
100
AcDbEntity
  8
8
  6
ByLayer
 62
  256
370
   -1
100
AcDbPolyline
 90
    5
 70
    0
 43
0
 10
2447.858614676493
 20
161.1543545207369
 10
2451.430916277869
 20
156.5790801746762
 10
2455.968305355415
 20
152.9659559319668
 10
2461.221102133337
 20
150.5222266993551
 10
2466.906425723114
 20
149.3773362968584
  0
LWPOLYLINE
  5
CB
100
AcDbEntity
  8
8
  6
ByLayer
 62
  256
370
   -1
100
AcDbPolyline
 90
    2
 70
    0
 43
0
 10
2466.906425723114
 20
149.3773362968584
 10
2541.569700884014
 20
143.4495653647052
  0
LWPOLYLINE
  5
CC
100
AcDbEntity
  8
8
  6
ByLayer
 62
  256
370
   -1
100
AcDbPolyline
 90
    5
 70
    0
 43
0
 10
-1806.697994519668
 20
-190.0379021482524
 10
-1970.964407391271
 20
81.09781502095029
 10
-2006.376283041505
 20
140.3055131249234
 10
-2050.384600381572
 20
216.9015484272747
 10
-2085.17287473036
 20
280.435633138356
  0
LWPOLYLINE
  5
CD
100
AcDbEntity
  8
8
  6
ByLayer
 62
  256
370
   -1
100
AcDbPolyline
 90
    6
 70
    0
 43
0
 10
-1062.591399734088
 20
-89.70931521884586
 10
-1181.054325447297
 20
98.55764299304087
 10
-1222.239090455041
 20
164.8982246911501
 10
-1255.124272028641
 20
219.7982849456621
 10
-1272.171429067078
 20
249.4789718146205
 10
-1292.340537893903
 20
285.9132041190419
  0
LWPOLYLINE
  5
CE
100
AcDbEntity
  8
8
  6
ByLayer
 62
  256
370
   -1
100
AcDbPolyline
 90
    6
 70
    0
 43
0
 10
-271.6641906625955
 20
-46.81412554715689
 10
-366.7189930714947
 20
98.90986417832096
 10
-405.7783658554249
 20
159.5469510192841
 10
-442.8212089266885
 20
219.2395533491208
 10
-452.3931364349127
 20
235.2798801969932
 10
-473.2009239718369
 20
271.798808546914
  0
LWPOLYLINE
  5
CF
100
AcDbEntity
  8
8
  6
ByLayer
 62
  256
370
   -1
100
AcDbPolyline
 90
    6
 70
    0
 43
0
 10
568.0467142872442
 20
-32.98807422432446
 10
483.7562399750655
 20
87.3069929115386
 10
441.0121595221249
 20
149.2248013340147
 10
405.4741819610772
 20
202.9249120326776
 10
397.1095333484798
 20
216.1391108983189
 10
378.6150191632628
 20
246.9147329383338
  0
LWPOLYLINE
  5
D0
100
AcDbEntity
  8
8
  6
ByLayer
 62
  256
370
   -1
100
AcDbPolyline
 90
    6
 70
    0
 43
0
 10
1264.768335232415
 20
-14.80296272386545
 10
1183.420950848935
 20
92.95707172510652
 10
1147.546368724657
 20
141.3797188851793
 10
1115.646285458861
 20
186.4609212569123
 10
1106.917459033458
 20
199.4254255232202
 10
1089.398482950638
 20
226.9433035545553
  0
LWPOLYLINE
  5
D1
100
AcDbEntity
  8
8
  6
ByLayer
 62
  256
370
   -1
100
AcDbPolyline
 90
    4
 70
    0
 43
0
 10
1845.70991065514
 20
19.60591977168588
 10
1708.007393994948
 20
139.6409128276914
 10
1661.096523182119
 20
182.3641373235607
 10
1634.407040385028
 20
208.3483486530945
  0
LWPOLYLINE
  5
D2
100
AcDbEntity
  8
8
  6
ByLayer
 62
  256
370
   -1
100
AcDbPolyline
 90
    3
 70
    0
 43
0
 10
2325.361206265585
 20
67.56180661540202
 10
2174.103269787239
 20
147.4126264883341
 10
2118.390308099175
 20
177.5100322505716
  0
LWPOLYLINE
  5
D3
100
AcDbEntity
  8
8
  6
ByLayer
 62
  256
370
   -1
100
AcDbPolyline
 90
    5
 70
    0
 43
0
 10
-2576.396925339125
 20
267.5925049166126
 10
-2548.059134276999
 20
211.2553227691835
 10
-2528.229247084499
 20
173.0028312217023
 10
-2492.437285434609
 20
106.3851002083884
 10
-2272.329905411757
 20
-287.5258358088126
  0
LWPOLYLINE
  5
D4
100
AcDbEntity
  8
8
  6
ByLayer
 62
  256
370
   -1
100
AcDbPolyline
 90
    7
 70
    0
 43
0
 10
-18.24343324206666
 20
119.0820372062535
 10
-20.1086728822479
 20
117.27054091947
 10
-20.82781254750171
 20
114.7718223456015
 10
-20.20742310312107
 20
112.2540753330027
 10
-18.41306672987844
 20
110.3907113536925
 10
-15.92447249312318
 20
109.6790809060146
 10
-13.40949387852993
 20
110.3117456396415
  0
LWPOLYLINE
  5
D5
100
AcDbEntity
  8
8
  6
ByLayer
 62
  256
370
   -1
100
AcDbPolyline
 90
    7
 70
    0
 43
0
 10
2.366084407581866
 20
119.1001689747757
 10
4.234134521003625
 20
120.9073029607187
 10
4.961544307617942
 20
123.4087146469244
 10
4.343590788120537
 20
125.9395376137895
 10
2.549538460654503
 20
127.8149419827116
 10
0.06074955331814635
 20
128.5312327384588
 10
-2.456515297680653
 20
127.8975986908354
  0
LWPOLYLINE
  5
D6
100
AcDbEntity
  8
8
  6
ByLayer
 62
  256
370
   -1
100
AcDbPolyline
 90
    2
 70
    0
 43
0
 10
-13.40949387852993
 20
110.3117456396415
 10
2.366084407581866
 20
119.1001689747757
  0
LWPOLYLINE
  5
D7
100
AcDbEntity
  8
8
  6
ByLayer
 62
  256
370
   -1
100
AcDbPolyline
 90
    2
 70
    0
 43
0
 10
-18.24343324206666
 20
119.0820372062535
 10
-2.456515297680653
 20
127.8975986908354
  0
LWPOLYLINE
  5
D8
100
AcDbEntity
  8
8
  6
ByLayer
 62
  256
370
   -1
100
AcDbPolyline
 90
    2
 70
    0
 43
0
 10
-1169.441751674055
 20
80.08740238297969
 10
-1190.6197573456
 20
66.78143241219686
  0
LWPOLYLINE
  5
D9
100
AcDbEntity
  8
8
  6
ByLayer
 62
  256
370
   -1
100
AcDbPolyline
 90
    2
 70
    0
 43
0
 10
-1156.105033658663
 20
58.8887902683407
 10
-1177.280412679755
 20
45.58915398644626
  0
LWPOLYLINE
  5
DA
100
AcDbEntity
  8
8
  6
ByLayer
 62
  256
370
   -1
100
AcDbPolyline
 90
    2
 70
    0
 43
0
 10
507.714623266633
 20
53.07055028448121
 10
487.2273099540223
 20
38.6747362659587
  0
LWPOLYLINE
  5
DB
100
AcDbEntity
  8
8
  6
ByLayer
 62
  256
370
   -1
100
AcDbPolyline
 90
    2
 70
    0
 43
0
 10
522.0842342906606
 20
32.55684272685085
 10
501.5769472474371
 20
18.20029958288501
  0
LWPOLYLINE
  5
DC
100
AcDbEntity
  8
8
  6
ByLayer
 62
  256
370
   -1
100
AcDbPolyline
 90
    2
 70
    0
 43
0
 10
2536.330483507507
 20
99.76151687872721
 10
2532.027501758049
 20
107.7619074402819
  0
LWPOLYLINE
  5
DD
100
AcDbEntity
  8
8
  6
ByLayer
 62
  256
370
   -1
100
AcDbPolyline
 90
    2
 70
    0
 43
0
 10
2532.027501758049
 20
107.7619074402819
 10
2554.047669466715
 20
120.1851692721013
  0
LWPOLYLINE
  5
DE
100
AcDbEntity
  8
8
  6
ByLayer
 62
  256
370
   -1
100
AcDbPolyline
 90
   15
 70
    0
 43
0
 10
2285.509943139835
 20
60.49051399775271
 10
2275.845036148121
 20
70.72871802928626
 10
2265.09826395825
 20
80.99357366548224
 10
2255.524516990123
 20
89.14569296838408
 10
2244.41458727728
 20
97.43698886619222
 10
2233.408910556399
 20
104.5740973874299
 10
2221.429378359946
 20
111.3305528079484
 10
2209.592059750799
 20
117.0980940132363
 10
2196.722991660585
 20
122.5448568533056
 10
2179.705682479307
 20
128.7366445843845
 10
2162.425164043784
 20
134.1175989982166
 10
2132.227846261061
 20
141.8055569019684
 10
2112.241897006063
 20
146.0761194399208
 10
2088.180374459133
 20
150.5621438276426
 10
2041.021814664114
 20
157.8928947027007
  0
LWPOLYLINE
  5
DF
100
AcDbEntity
  8
8
  6
ByLayer
 62
  256
370
   -1
100
AcDbPolyline
 90
   20
 70
    0
 43
0
 10
-68.68426075690854
 20
141.1008441794788
 10
-76.12730963226522
 20
135.9830026321549
 10
-82.52103653765653
 20
129.5908054202312
 10
-87.6347273545075
 20
122.1209383047214
 10
-90.24353245470161
 20
116.6934472142448
 10
-92.17393091646704
 20
110.9999680435217
 10
-93.72605048956939
 20
102.1256863597841
 10
-93.61009833927437
 20
93.12354830830054
 10
-91.84452103553963
 20
84.32288341949243
 10
-88.48080426912338
 20
75.99772963722353
 10
-83.64591277449767
 20
68.43782161131548
 10
-77.49731607611125
 20
61.88936043685612
 10
-70.25121793027984
 20
56.58845113718257
 10
-64.92906255187677
 20
53.83251807638158
 10
-59.29666618918282
 20
51.73120647407313
 10
-50.50129643499326
 20
49.95570032878527
 10
-41.52535512936083
 20
49.82567157123162
 10
-35.58444691846421
 20
50.64460932967586
 10
-29.79131313226321
 20
52.189337318669
 10
-21.5701281929903
 20
55.81470655012004
  0
LWPOLYLINE
  5
E0
100
AcDbEntity
  8
8
  6
ByLayer
 62
  256
370
   -1
100
AcDbPolyline
 90
   20
 70
    0
 43
0
 10
52.83191375269712
 20
97.16302318392536
 10
60.26604818855731
 20
102.2518168725055
 10
64.64629861563617
 20
106.3794647049331
 10
68.50319359756668
 20
110.9942185358793
 10
73.14762691052397
 20
118.7334746983638
 10
76.31614444774982
 20
127.2088372036674
 10
77.88529617819017
 20
136.1371945128049
 10
78.01741135846305
 20
142.1801781477768
 10
77.41939963655068
 20
148.2132704358826
 10
75.15899301388799
 20
157.0474051479384
 10
71.3560067794042
 20
165.3263832198625
 10
66.12919954630934
 20
172.7393987742555
 10
59.64239624389188
 20
179.0879263656259
 10
52.13866701716574
 20
184.1211908213738
 10
43.8494362502754
 20
187.6287771206978
 10
38.03871065926592
 20
189.0354932074169
 10
32.08356929424144
 20
189.7035708242367
 10
23.09788305150732
 20
189.2673753219287
 10
14.32145636285168
 20
187.1219732003394
 10
6.045510141669865
 20
183.3547089297003
  0
LWPOLYLINE
  5
E1
100
AcDbEntity
  8
8
  6
ByLayer
 62
  256
370
   -1
100
AcDbPolyline
 90
    2
 70
    0
 43
0
 10
-21.5701281929903
 20
55.81470655012004
 10
52.83191375269712
 20
97.16302318392536
  0
LWPOLYLINE
  5
E2
100
AcDbEntity
  8
8
  6
ByLayer
 62
  256
370
   -1
100
AcDbPolyline
 90
    2
 70
    0
 43
0
 10
-68.68426075690854
 20
141.1008441794788
 10
6.045510141669865
 20
183.3547089297003
  0
LWPOLYLINE
  5
E3
100
AcDbEntity
  8
8
  6
ByLayer
 62
  256
370
   -1
100
AcDbPolyline
 90
    2
 70
    0
 43
0
 10
2558.307340455754
 20
112.2424654006838
 10
2541.286400599381
 20
143.9774917903467
  0
ENDBLK
  5
5D
330
5B
100
AcDbEntity
  8
0
100
AcDbBlockEnd
  0
BLOCK
  5
5F
330
5E
100
AcDbEntity
  8
0
100
AcDbBlockBegin
  2
LE3M
 70
    0
 10
0
 20
0
  3
LE3M
  1

  0
LWPOLYLINE
  5
E4
100
AcDbEntity
  8
1
  6
ByLayer
 62
  256
370
   -1
100
AcDbPolyline
 90
   64
 70
    0
 43
0
 10
474.19189453125
 20
346.644775390625
 10
539.6826171875
 20
376.793212890625
 10
558.0947265625
 20
382.67333984375
 10
562.859375
 20
382.41943359375
 10
566.68505859375
 20
380.74365234375
 10
568.39599609375
 20
379.388671875
 10
570.59130859375
 20
376.636474609375
 10
571.81201171875
 20
373.821044921875
 10
572.796875
 20
367.835205078125
 10
572.74609375
 20
364.875244140625
 10
562.31103515625
 20
296.873779296875
 10
562.3642578125
 20
291.05908203125
 10
563.69970703125
 20
287.0078125
 10
567.591796875
 20
283.0205078125
 10
570.01171875
 20
281.295654296875
 10
620.20166015625
 20
251.601806640625
 10
624.75341796875
 20
248.08251953125
 10
628.24462890625
 20
243.8134765625
 10
629.43798828125
 20
241.269775390625
 10
630.05322265625
 20
238.297119140625
 10
629.826171875
 20
234.68505859375
 10
629.09814453125
 20
232.37158203125
 10
627.201171875
 20
229.2685546875
 10
616.64697265625
 20
221.585693359375
 10
610.1357421875
 20
217.34765625
 10
550.54150390625
 20
182.283935546875
 10
479.2685546875
 20
141.160400390625
 10
348.3828125
 20
67.196533203125
 10
184.4755859375
 20
-23.975830078125
 10
-26.35107421875
 20
-133.3673095703125
 10
-172.126953125
 20
-210.3309326171875
 10
-316.2763671875
 20
-288.365478515625
 10
-397.8857421875
 20
-333.475341796875
 10
-483.23974609375
 20
-381.4189453125
 10
-485.56298828125
 20
-382.323974609375
 10
-488.01806640625
 20
-382.74951171875
 10
-490.9736328125
 20
-382.609619140625
 10
-493.81494140625
 20
-381.77978515625
 10
-515.1318359375
 20
-367.35107421875
 10
-531.1435546875
 20
-355.586181640625
 10
-546.69921875
 20
-343.255126953125
 10
-569.15966796875
 20
-323.57177734375
 10
-583.3134765625
 20
-309.61962890625
 10
-590.121826171875
 20
-302.3594970703125
 10
-603.1025390625
 20
-287.2586669921875
 10
-615.048095703125
 20
-271.2960205078125
 10
-620.664306640625
 20
-263.0281982421875
 10
-625.760986328125
 20
-254.459716796875
 10
-629.160400390625
 20
-245.487060546875
 10
-630.05322265625
 20
-236.3056640625
 10
-629.177001953125
 20
-226.611572265625
 10
-623.85400390625
 20
-186.8453369140625
 10
-622.71630859375
 20
-182.037353515625
 10
-621.492431640625
 20
-179.8702392578125
 10
-617.9306640625
 20
-176.48388671875
 10
-523.8046875
 20
-134.2266845703125
 10
-439.31982421875
 20
-95.4031982421875
 10
-374.75048828125
 20
-65.0460205078125
 10
-288.59375
 20
-23.629638671875
 10
-223.94189453125
 20
8.1201171875
 10
-137.70947265625
 20
51.359130859375
 10
80
 20
163.1357421875
 10
190.0126953125
 20
215.614501953125
 10
474.19189453125
 20
346.644775390625
  0
LWPOLYLINE
  5
E5
100
AcDbEntity
  8
8
  6
ByLayer
 62
  256
370
   -1
100
AcDbPolyline
 90
   13
 70
    0
 43
0
 10
564.1480067066705
 20
358.4380940367009
 10
556.7626520109006
 20
356.1519034611565
 10
535.0879337528659
 20
347.1373113942154
 10
207.1162880023785
 20
196.0925662507543
 10
75.31844416793319
 20
132.9306996954215
 10
-76.73258228904524
 20
54.43437018284612
 10
-141.498616277855
 20
21.4034672821308
 10
-227.8089007514591
 20
-21.69502406983474
 10
-292.5030270370253
 20
-53.33189836789961
 10
-378.6812787303907
 20
-94.57890984684013
 10
-464.7658692724235
 20
-134.7414328989082
 10
-550.7454876174679
 20
-173.7939020962694
 10
-615.1397898806053
 20
-202.2833949957776
  0
LWPOLYLINE
  5
E6
100
AcDbEntity
  8
8
  6
ByLayer
 62
  256
370
   -1
100
AcDbPolyline
 90
   13
 70
    0
 43
0
 10
-502.2142932189718
 20
-363.4341038570133
 10
-360.3337677019181
 20
-284.0679948085208
 10
-278.5101569221615
 20
-239.2568673514422
 10
-196.1543507916604
 20
-194.8247704177716
 10
-50.81643765384433
 20
-117.9301934990808
 10
138.325841887071
 20
-20.09923324639249
 10
180.1551758603273
 20
2.130300984120368
 10
343.771068569722
 20
93.27089178298593
 10
465.4900292927414
 20
162.0863103165175
 10
525.7749943920344
 20
196.8080413629459
 10
585.5307646422489
 20
231.8198392211525
 10
604.8737386719204
 20
243.8265093549212
 10
611.9304411820403
 20
248.6135612481849
  0
LWPOLYLINE
  5
E7
100
AcDbEntity
  8
8
  6
ByLayer
 62
  256
370
   -1
100
AcDbPolyline
 90
   28
 70
    0
 43
0
 10
-617.0070834097814
 20
-175.9779226230371
 10
-614.3008917354032
 20
-174.9624767143516
 10
-611.4455131380605
 20
-174.5568062050272
 10
-606.8598618417896
 20
-175.3627336100863
 10
-602.8868086312923
 20
-177.7762964051963
 10
-600.2408318151961
 20
-181.1814548949501
 10
-599.3943753995422
 20
-183.1650201800653
 10
-598.9015102914063
 20
-185.2540499483632
 10
-599.7029758077761
 20
-194.8216991269908
 10
-605.1349517392928
 20
-236.6050320692216
 10
-604.8279064470216
 20
-240.3236018765474
 10
-604.364755914437
 20
-241.4893635524647
 10
-597.9204740940631
 20
-252.1192337855382
 10
-586.331569085924
 20
-268.1077202115312
 10
-573.655445874937
 20
-283.3660590934292
 10
-552.9223666832813
 20
-304.5373874011684
 10
-538.133464450073
 20
-317.7425835326117
 10
-522.8119436062616
 20
-330.3889219781629
 10
-499.0223530847406
 20
-348.1517271499013
 10
-482.6942268329376
 20
-359.3939044902277
 10
-479.262156994555
 20
-362.3527430240574
 10
-477.0468434653312
 20
-366.364333272596
 10
-476.4791036586612
 20
-369.1870790273474
 10
-476.5537055032801
 20
-372.0853148397948
 10
-477.2962648791254
 20
-374.88312129624
 10
-478.6634451392356
 20
-377.4327436900351
 10
-481.6895539443103
 20
-380.4973621853107
 10
-484.1572903137321
 20
-381.9659438314493
  0
LWPOLYLINE
  5
E8
100
AcDbEntity
  8
8
  6
ByLayer
 62
  256
370
   -1
100
AcDbPolyline
 90
    5
 70
    0
 43
0
 10
538.7795591016084
 20
282.7368601943735
 10
547.0030950261053
 20
268.1005382546905
 10
553.3306898424134
 20
262.4152300593305
 10
561.3630644554696
 20
257.225139225467
 10
621.1375991001596
 20
222.0458355594255
  0
LWPOLYLINE
  5
E9
100
AcDbEntity
  8
8
  6
ByLayer
 62
  256
370
   -1
100
AcDbPolyline
 90
    9
 70
    0
 43
0
 10
531.5691144115999
 20
222.7107485729221
 10
528.913988477545
 20
223.178556438826
 10
526.5409148292565
 20
221.7923627867676
 10
525.6105309105178
 20
219.1683752852796
 10
526.5971643503544
 20
216.5112675874871
 10
528.9621685369366
 20
215.1118309736257
 10
531.6685055323478
 20
215.584810486157
 10
533.4055818439228
 20
217.7306135831582
 10
533.3877376173677
 20
220.5317700253581
  0
LWPOLYLINE
  5
EA
100
AcDbEntity
  8
8
  6
ByLayer
 62
  256
370
   -1
100
AcDbPolyline
 90
   11
 70
    0
 43
0
 10
504.6088655664898
 20
220.8630725145426
 10
504.9807820585529
 20
214.9046931711855
 10
506.6760062795192
 20
209.1800872328295
 10
508.0095198269419
 20
206.4955967460201
 10
511.4905825704254
 20
201.7019368111851
 10
515.9622253149946
 20
197.8435513183804
 10
521.1758616458237
 20
195.1304348702442
 10
526.8241308076458
 20
193.7234012216218
 10
532.625732586409
 20
193.6792784478798
 10
538.2639229982706
 20
195.0025781399836
 10
540.9325607058163
 20
196.1535465976553
  0
LWPOLYLINE
  5
EB
100
AcDbEntity
  8
8
  6
ByLayer
 62
  256
370
   -1
100
AcDbPolyline
 90
    2
 70
    0
 43
0
 10
540.9325607058163
 20
196.1535465976553
 10
607.7886850390505
 20
229.9031969145685
  0
LWPOLYLINE
  5
EC
100
AcDbEntity
  8
8
  6
ByLayer
 62
  256
370
   -1
100
AcDbPolyline
 90
    2
 70
    0
 43
0
 10
504.6088655664898
 20
220.8630725145426
 10
568.530961876234
 20
253.0012795870671
  0
LWPOLYLINE
  5
ED
100
AcDbEntity
  8
8
  6
ByLayer
 62
  256
370
   -1
100
AcDbPolyline
 90
    8
 70
    0
 43
0
 10
-133.837673886409
 20
-199.3180438580284
 10
-187.3278717750218
 20
-187.482167871206
 10
-211.5368218199246
 20
-181.2737175177233
 10
-229.9858237241324
 20
-175.9006376687157
 10
-248.7971275290402
 20
-169.6055167252487
 10
-265.0535279332689
 20
-163.1073187245938
 10
-278.7541420770876
 20
-156.558409846444
 10
-293.4416146943895
 20
-148.0338427749698
  0
LWPOLYLINE
  5
EE
100
AcDbEntity
  8
8
  6
ByLayer
 62
  256
370
   -1
100
AcDbPolyline
 90
    2
 70
    0
 43
0
 10
322.0811067045652
 20
43.6840361197651
 10
211.1093108669202
 20
37.41024035434975
  0
LWPOLYLINE
  5
EF
100
AcDbEntity
  8
8
  6
ByLayer
 62
  256
370
   -1
100
AcDbPolyline
 90
    2
 70
    0
 43
0
 10
-293.4416146943895
 20
-148.0338427749698
 10
-316.1403168391371
 20
-158.5239917931676
  0
LWPOLYLINE
  5
F0
100
AcDbEntity
  8
8
  6
ByLayer
 62
  256
370
   -1
100
AcDbPolyline
 90
    2
 70
    0
 43
0
 10
293.9863183258294
 20
25.7331987366515
 10
290.7024629360467
 20
24.87611872016396
  0
LWPOLYLINE
  5
F1
100
AcDbEntity
  8
8
  6
ByLayer
 62
  256
370
   -1
100
AcDbPolyline
 90
    5
 70
    0
 43
0
 10
287.3795203626769
 20
23.976313216172
 10
261.1548433066364
 20
15.83155395285257
 10
236.0142479079605
 20
6.882898695605945
 10
208.305527556081
 20
-3.890917931609238
 10
172.9898000432404
 20
-18.78919141075039
  0
LWPOLYLINE
  5
F2
100
AcDbEntity
  8
8
  6
ByLayer
 62
  256
370
   -1
100
AcDbPolyline
 90
    9
 70
    0
 43
0
 10
489.8269180843181
 20
310.918177228039
 10
488.5191664339936
 20
308.5201497588478
 10
486.0121395419628
 20
307.592919757923
 10
483.4726595340526
 20
308.5299324379453
 10
482.1004277484508
 20
310.9591111273644
 10
482.529180131728
 20
313.6964259219531
 10
484.5572289799647
 20
315.4568608299414
 10
487.2423061789459
 20
315.4529879758034
 10
489.3226693614715
 20
313.655392263051
  0
LWPOLYLINE
  5
F3
100
AcDbEntity
  8
8
  6
ByLayer
 62
  256
370
   -1
100
AcDbPolyline
 90
   11
 70
    0
 43
0
 10
471.346184822386
 20
290.8894069781613
 10
467.0490417498822
 20
295.0123353230438
 10
465.268676130233
 20
297.4217415394082
 10
462.5528666022265
 20
302.6997868584754
 10
461.1234661700164
 20
308.643077400558
 10
461.0117809314997
 20
314.6644395615426
 10
462.2306647665591
 20
320.4819309498612
 10
464.7271740626147
 20
325.8500851617464
 10
468.3705429240972
 20
330.4988886293395
 10
472.9507771049757
 20
334.0919119765085
 10
475.5222992084055
 20
335.4613951654314
  0
LWPOLYLINE
  5
F4
100
AcDbEntity
  8
8
  6
ByLayer
 62
  256
370
   -1
100
AcDbPolyline
 90
    2
 70
    0
 43
0
 10
475.5222992084055
 20
335.4613951654314
 10
548.0893721074954
 20
368.495525854993
  0
LWPOLYLINE
  5
F5
100
AcDbEntity
  8
8
  6
ByLayer
 62
  256
370
   -1
100
AcDbPolyline
 90
    2
 70
    0
 43
0
 10
471.346184822386
 20
290.8894069781613
 10
540.9528127427493
 20
322.424308569367
  0
LWPOLYLINE
  5
F6
100
AcDbEntity
  8
8
  6
ByLayer
 62
  256
370
   -1
100
AcDbPolyline
 90
   45
 70
    0
 43
0
 10
547.8238961070056
 20
366.7818152896457
 10
233.7366787217907
 20
222.2081250321626
 10
128.8995357195827
 20
172.648852718934
 10
78.13662220206243
 20
148.2019381021951
 10
58.6329314942077
 20
138.4128735167615
 10
-139.2100717065359
 20
36.57856902330695
 10
-212.1844444791059
 20
-0.0328812587927132
 10
-280.0791874413508
 20
-33.42160537653808
 10
-369.8678022778768
 20
-76.57508174883242
 10
-450.7132648126799
 20
-114.5056902490562
 10
-517.2108632311483
 20
-144.9870714012818
 10
-611.279201312595
 20
-187.0413366016555
 10
-617.1493621533377
 20
-231.4107738125253
 10
-617.391931324139
 20
-240.0903062345328
 10
-614.8062999098424
 20
-248.2605125473435
 10
-610.3080275098628
 20
-255.9572512450322
 10
-603.5971638719393
 20
-265.8848893511481
 10
-592.6991527397072
 20
-280.1840361563991
 10
-578.9324317088813
 20
-296.0182252574953
 10
-564.1766083758876
 20
-311.0243860374912
 10
-550.9481875619358
 20
-323.194500209328
 10
-534.9590918467638
 20
-336.7799219603382
 10
-518.347826517379
 20
-349.5753488780533
 10
-488.8987284286986
 20
-370.2430530660088
 10
-410.1737724157092
 20
-325.9949681236587
 10
-329.177485337399
 20
-281.1754838115926
 10
-256.9424584684957
 20
-241.7281172915539
 10
-175.4583410243931
 20
-197.9032115746563
 10
-38.17565106777693
 20
-125.4323684748433
 10
122.1169805884765
 20
-42.55983286881246
 10
181.4715859439666
 20
-11.4152365900195
 10
345.1050469852335
 20
79.63922730804552
 10
448.1094693453597
 20
137.7315231292791
 10
548.2604139194373
 20
195.3747149868655
 10
607.339457519085
 20
230.1684995945011
 10
559.8688556323514
 20
258.1034267487689
 10
553.4089902334636
 20
262.3522153645154
 10
549.3025526410011
 20
265.7659296686866
 10
545.5491646513829
 20
269.7712136313708
 10
542.3544433034522
 20
274.2979248265237
 10
540.1095067417655
 20
278.9649071003259
 10
537.7966889538975
 20
285.8909266652163
 10
537.2118303642856
 20
290.9320019246748
 10
537.5502167154709
 20
300.6567727995598
 10
547.6709264216443
 20
365.7927272292509
  0
ENDBLK
  5
60
330
5E
100
AcDbEntity
  8
0
100
AcDbBlockEnd
  0
BLOCK
  5
62
330
61
100
AcDbEntity
  8
0
100
AcDbBlockBegin
  2
LE2M
 70
    0
 10
0
 20
0
  3
LE2M
  1

  0
LWPOLYLINE
  5
F7
100
AcDbEntity
  8
1
  6
ByLayer
 62
  256
370
   -1
100
AcDbPolyline
 90
   54
 70
    0
 43
0
 10
-579.4424438476562
 20
142.2680053710938
 10
-42.20916748046875
 20
156.1029663085938
 10
701.5117797851562
 20
173.4081420898438
 10
704.3067016601562
 20
172.6920776367188
 10
706.3955688476562
 20
171.6305541992188
 10
709.8316040039062
 20
168.4904174804688
 10
711.8296508789062
 20
164.4835815429688
 10
712.2876586914062
 20
160.1889038085938
 10
711.9639282226562
 20
158.0563354492188
 10
707.6697387695312
 20
149.4608764648438
 10
693.1270141601562
 20
123.7362670898438
 10
686.2456665039062
 20
112.4594116210938
 10
685.2185668945312
 20
110.0726928710938
 10
684.9834594726562
 20
107.4862670898438
 10
688.3416137695312
 20
85.15252685546875
 10
690.4160766601562
 20
75.44696044921875
 10
695.3967895507812
 20
56.28826904296875
 10
705.1983032226562
 20
28.27679443359375
 10
713.0051879882812
 20
10.05462646484375
 10
721.5361938476562
 20
-7.83502197265625
 10
735.6174926757812
 20
-33.97613525390625
 10
745.6860961914062
 20
-51.05755615234375
 10
747.5361938476562
 20
-55.22076416015625
 10
747.8682250976562
 20
-59.76776123046875
 10
747.2088012695312
 20
-62.59588623046875
 10
745.9102172851562
 20
-65.17755126953125
 10
744.0520629882812
 20
-67.39337158203125
 10
740.4436645507812
 20
-69.77130126953125
 10
737.6917114257812
 20
-70.60870361328125
 10
734.8308715820312
 20
-70.89752197265625
 10
1.06500244140625
 20
-128.4758911132812
 10
-644.6992797851562
 20
-173.2487182617188
 10
-649.6487426757812
 20
-173.4979858398438
 10
-652.1106567382812
 20
-173.1205444335938
 10
-656.5789184570312
 20
-170.9528198242188
 10
-658.4047241210938
 20
-169.2476196289062
 10
-674.5551147460938
 20
-142.4795532226562
 10
-687.4259643554688
 20
-119.4999389648438
 10
-699.5184936523438
 20
-96.08233642578125
 10
-705.2116088867188
 20
-84.13836669921875
 10
-716.0397338867188
 20
-60.03387451171875
 10
-720.9639282226562
 20
-47.84686279296875
 10
-725.7173461914062
 20
-35.54656982421875
 10
-734.1080932617188
 20
-10.68878173828125
 10
-740.9443969726562
 20
14.52239990234375
 10
-746.2020874023438
 20
39.94085693359375
 10
-747.8901977539062
 20
52.43572998046875
 10
-747.1838989257812
 20
65.06951904296875
 10
-743.2695922851562
 20
76.44671630859375
 10
-710.9160766601562
 20
133.1718139648438
 10
-708.1631469726562
 20
136.3532104492188
 10
-704.5049438476562
 20
138.4445190429688
 10
-700.4074096679688
 20
139.2028198242188
 10
-579.4424438476562
 20
142.2680053710938
  0
LWPOLYLINE
  5
F8
100
AcDbEntity
  8
8
  6
ByLayer
 62
  256
370
   -1
100
AcDbPolyline
 90
   29
 70
    0
 43
0
 10
-702.3285317343141
 20
139.1616870072753
 10
-699.4548863284147
 20
139.178110293949
 10
-696.6046526611881
 20
138.673513244069
 10
-692.7914762667649
 20
136.7663879209599
 10
-691.1854213646329
 20
135.3530130106597
 10
-688.5092793669692
 20
131.1064345084264
 10
-687.8109707352162
 20
128.2841581140783
 10
-687.7853573706323
 20
125.37453693203
 10
-688.4356529007675
 20
122.5320018085968
 10
-694.696626593907
 20
111.1902823726718
 10
-720.6631727023266
 20
65.99985128660865
 10
-722.7723602457688
 20
59.8705479556038
 10
-723.1519691273174
 20
56.64345679167536
 10
-720.9928999361966
 20
40.92984284383874
 10
-715.474599550618
 20
15.63550929976918
 10
-708.3382089898016
 20
-9.487895679293615
 10
-704.0286385530178
 20
-21.9021051452296
 10
-694.6629521695693
 20
-46.47131375956928
 10
-683.9370481727353
 20
-70.66953381862436
 10
-672.3100900704069
 20
-94.49048297036347
 10
-659.7938479311708
 20
-117.7831432488244
 10
-639.8736716778833
 20
-151.9216692360101
 10
-637.0606611320222
 20
-157.3158911277344
 10
-636.5166219896325
 20
-160.3374742891517
 10
-636.7277926321965
 20
-163.3964045715445
 10
-637.7692616817894
 20
-166.4929537583782
 10
-639.5731786553827
 20
-169.2232747319565
 10
-642.0247464186766
 20
-171.3888682276427
 10
-644.9537549974045
 20
-172.8440513560654
  0
LWPOLYLINE
  5
F9
100
AcDbEntity
  8
8
  6
ByLayer
 62
  256
370
   -1
100
AcDbPolyline
 90
    3
 70
    0
 43
0
 10
527.1839715584033
 20
144.4268334337894
 10
-33.12582708904529
 20
131.3157096183027
 10
-710.7581140244254
 20
113.9370675689206
  0
LWPOLYLINE
  5
FA
100
AcDbEntity
  8
8
  6
ByLayer
 62
  256
370
   -1
100
AcDbPolyline
 90
    2
 70
    0
 43
0
 10
690.6026449323531
 20
148.3155694918996
 10
527.1839715584033
 20
144.4268334337894
  0
LWPOLYLINE
  5
FB
100
AcDbEntity
  8
8
  6
ByLayer
 62
  256
370
   -1
100
AcDbPolyline
 90
    3
 70
    0
 43
0
 10
-659.417039222297
 20
-149.2152749469867
 10
9.644368581940398
 20
-102.7647270315151
 10
726.2800061022276
 20
-46.48753757302234
  0
LWPOLYLINE
  5
FC
100
AcDbEntity
  8
8
  6
ByLayer
 62
  256
370
   -1
100
AcDbPolyline
 90
   22
 70
    0
 43
0
 10
740.8506251053909
 20
-70.42138361605589
 10
733.4125215124195
 20
-70.64159412524123
 10
731.0076860574422
 20
-69.99299667746345
 10
728.3895125974814
 20
-68.62275144726254
 10
726.1698754825484
 20
-66.6813814471966
 10
717.8842676900704
 20
-53.1690542072688
 10
708.0760932365147
 20
-35.89972353429607
 10
694.4550752245536
 20
-9.415875123301248
 10
682.4200077668474
 20
17.92606193744814
 10
675.5145725691877
 20
36.56222930613922
 10
672.4307459054016
 20
46.02262878754891
 10
667.0944799436929
 20
65.19435322188474
 10
664.9232161248096
 20
74.94593648530781
 10
661.4931183097169
 20
94.52063135175331
 10
660.9894229181168
 20
113.9958399447592
 10
663.9676115350885
 20
122.6110324067404
 10
668.5469202406753
 20
131.1005411999477
 10
688.2261357693142
 20
165.8975171440975
 10
691.0685372589278
 20
169.9407345135755
 10
693.0077257514627
 20
171.4964683409721
 10
697.5700512050707
 20
173.3163080337572
 10
704.8772507836788
 20
173.7231540447742
  0
LWPOLYLINE
  5
FD
100
AcDbEntity
  8
8
  6
ByLayer
 62
  256
370
   -1
100
AcDbPolyline
 90
    9
 70
    0
 43
0
 10
-136.8438201675071
 20
-155.1375699614382
 10
-155.9243446736232
 20
-130.5750840239259
 10
-171.2257061975261
 20
-109.8883315752857
 10
-186.5025455455552
 20
-87.99045336651602
 10
-199.8534350656478
 20
-67.21929902559646
 10
-213.1950773747099
 20
-44.01719137138207
 10
-224.6358961491251
 20
-21.78606793622794
 10
-234.1964969424125
 20
-0.4476856902379041
 10
-239.9274878466567
 20
14.16499067564837
  0
LWPOLYLINE
  5
FE
100
AcDbEntity
  8
8
  6
ByLayer
 62
  256
370
   -1
100
AcDbPolyline
 90
    9
 70
    0
 43
0
 10
568.1069955787702
 20
-94.77699632485746
 10
552.0375403722801
 20
-75.67045346830923
 10
538.0050022739133
 20
-58.1114683111075
 10
524.0136839675056
 20
-39.50745216281848
 10
512.0529796398901
 20
-22.19979713360499
 10
500.1300513963351
 20
-2.935538499194536
 10
492.2489797944454
 20
11.19611844283509
 10
484.242667953577
 20
27.08196457213398
 10
478.2974803693855
 20
40.62465562334683
  0
LWPOLYLINE
  5
FF
100
AcDbEntity
  8
8
  6
ByLayer
 62
  256
370
   -1
100
AcDbPolyline
 90
    2
 70
    0
 43
0
 10
478.2974803693855
 20
40.62465562334683
 10
453.3070499743435
 20
39.64525822671476
  0
LWPOLYLINE
  5
100
100
AcDbEntity
  8
8
  6
ByLayer
 62
  256
370
   -1
100
AcDbPolyline
 90
    2
 70
    0
 43
0
 10
-239.9274878466567
 20
14.16499067564837
 10
-264.9207103542835
 20
13.37909180634369
  0
LWPOLYLINE
  5
101
100
AcDbEntity
  8
8
  6
ByLayer
 62
  256
370
   -1
100
AcDbPolyline
 90
    7
 70
    0
 43
0
 10
-11.21722497595329
 20
168.8316582796042
 10
-9.119207042001563
 20
167.2669736420712
 10
-8.067655430279956
 20
164.8443808657598
 10
-8.343939683958979
 20
162.2137107009589
 10
-9.872833342175909
 20
160.0819775595855
 10
-12.24392600107421
 20
159.0217023623845
 10
-14.82174529295798
 20
159.3172340855585
  0
LWPOLYLINE
  5
102
100
AcDbEntity
  8
8
  6
ByLayer
 62
  256
370
   -1
100
AcDbPolyline
 90
    3
 70
    0
 43
0
 10
-38.42730103406257
 20
168.7660574604856
 10
-40.52216171373993
 20
170.3279451034768
 10
-41.57489276124761
 20
172.7414149659148
  0
LWPOLYLINE
  5
103
100
AcDbEntity
  8
8
  6
ByLayer
 62
  256
370
   -1
100
AcDbPolyline
 90
    2
 70
    0
 43
0
 10
-14.82174529295798
 20
159.3172340855585
 10
-38.42730103406211
 20
168.7660574604856
  0
LWPOLYLINE
  5
104
100
AcDbEntity
  8
8
  6
ByLayer
 62
  256
370
   -1
100
AcDbPolyline
 90
    2
 70
    0
 43
0
 10
-11.21722497595329
 20
168.8316582796042
 10
-24.31235703454104
 20
174.1153706543046
  0
LWPOLYLINE
  5
105
100
AcDbEntity
  8
8
  6
ByLayer
 62
  256
370
   -1
100
AcDbPolyline
 90
   31
 70
    0
 43
0
 10
735.4550602264217
 20
-58.309184037862
 10
717.4940600575642
 20
-27.12188248738084
 10
707.8313371549634
 20
-8.507718882617155
 10
699.0795236673725
 20
10.55961985678005
 10
692.2284710670347
 20
27.173793941437
 10
685.268029227238
 20
46.95494138585855
 10
680.2085748718637
 20
64.19672792054416
 10
677.5284768388819
 20
75.87147164041153
 10
674.316078913831
 20
93.53321638135139
 10
673.0511966379395
 20
102.4052977663223
 10
672.8148507795768
 20
111.3908404398799
 10
679.2149224018585
 20
124.6316642247498
 10
699.8382836494238
 20
161.0535067075507
 10
-35.12833114775958
 20
143.7693186119491
 10
-700.2164527177781
 20
126.7088948583564
 10
-729.6824537388634
 20
75.54820212943287
 10
-734.332086337042
 20
65.21358716054874
 10
-735.3098195480065
 20
53.76736479418832
 10
-733.8941219247229
 20
42.48098504923655
 10
-730.9946269460538
 20
27.20698947712663
 10
-725.4167663753146
 20
4.326623657988421
 10
-721.0455008398164
 20
-10.81655134941866
 10
-717.214099761097
 20
-22.052337454189
 10
-707.4360271508897
 20
-48.05397645546282
 10
-698.0435782292641
 20
-70.0056602911452
 10
-686.0493851304891
 20
-95.2020198621492
 10
-672.9956928649099
 20
-119.8304660460606
 10
-661.1975617158357
 20
-140.5603265765435
 10
-648.9586654516552
 20
-160.9921470361589
 10
-6.212004425073246
 20
-116.4500901899012
 10
731.9734779530713
 20
-58.57649908221106
  0
ENDBLK
  5
63
330
61
100
AcDbEntity
  8
0
100
AcDbBlockEnd
  0
ENDSEC
  0
SECTION
  2
ENTITIES
  0
INSERT
  5
106
100
AcDbEntity
  8
0
  6
ByLayer
 62
  256
370
   -1
100
AcDbBlockReference
  2
TSR
 10
1469.822204589844
 20
528.7562255859375
 30
0
 41
1
 42
1
 43
0
 50
0
 70
    1
 71
    1
 44
0
 45
0
  0
INSERT
  5
107
100
AcDbEntity
  8
0
  6
ByLayer
 62
  256
370
   -1
100
AcDbBlockReference
  2
LE1M
 10
-473.3084716796875
 20
2172.155456542969
 30
0
 41
1
 42
1
 43
0
 50
0
 70
    1
 71
    1
 44
0
 45
0
  0
INSERT
  5
108
100
AcDbEntity
  8
0
  6
ByLayer
 62
  256
370
   -1
100
AcDbBlockReference
  2
US
 10
1542.400390625
 20
3605.077270507812
 30
0
 41
1
 42
1
 43
0
 50
0
 70
    1
 71
    1
 44
0
 45
0
  0
INSERT
  5
109
100
AcDbEntity
  8
0
  6
ByLayer
 62
  256
370
   -1
100
AcDbBlockReference
  2
TSF
 10
1470.927490234375
 20
1585.796630859375
 30
0
 41
1
 42
1
 43
0
 50
0
 70
    1
 71
    1
 44
0
 45
0
  0
INSERT
  5
10A
100
AcDbEntity
  8
0
  6
ByLayer
 62
  256
370
   -1
100
AcDbBlockReference
  2
LE3M
 10
4661.50732421875
 20
2083.342529296875
 30
0
 41
1
 42
1
 43
0
 50
0
 70
    1
 71
    1
 44
0
 45
0
  0
INSERT
  5
10B
100
AcDbEntity
  8
0
  6
ByLayer
 62
  256
370
   -1
100
AcDbBlockReference
  2
LE2M
 10
2571.304870605469
 20
2083.118469238281
 30
0
 41
1
 42
1
 43
0
 50
0
 70
    1
 71
    1
 44
0
 45
0
  0
ENDSEC
  0
SECTION
  2
OBJECTS
  0
DICTIONARY
  5
C
330
0
100
AcDbDictionary
281
    1
  3
ACAD_GROUP
350
D
  0
DICTIONARY
  5
D
330
C
100
AcDbDictionary
281
    1
  0
PLOTSETTINGS
  5
10C
100
AcDbPlotSettings
  6
1x1
 40
0
 41
0
 42
0
 43
0
  0
ENDSEC
  0
EOF
