solid
facet normal 0.0 0.0 -1.0
 outer loop
  vertex 0.8499098265568268 0.21928214181823905 0.0
  vertex 0.8121215882688018 0.23765875053740154 0.0
  vertex 0.8364930515704274 0.26670244810358534 0.0
 endloop
endfacet
facet normal 0.0 0.0 -1.0
 outer loop
  vertex 0.03491675 0.13486575 0.0
  vertex 0.0746265 0.09923525 0.0
  vertex 0.035698704334082246 0.07870044348334004 0.0
 endloop
endfacet
facet normal 0.0 0.0 -1.0
 outer loop
  vertex 0.775642624999913 0.3488736250000036 0.0
  vertex 0.83495325 0.34644775 0.0
  vertex 0.7843680293871116 0.3202581057083643 0.0
 endloop
endfacet
facet normal 0.0 0.0 -1.0
 outer loop
  vertex 0.9295577499999585 0.3316525833333398 0.0
  vertex 0.97686 0.324255 0.0
  vertex 0.9438389123369985 0.2899020880270346 0.0
 endloop
endfacet
facet normal 0.0 0.0 -1.0
 outer loop
  vertex 0.7734251665220222 0.08235113780675735 0.0
  vertex 0.7951218603474559 0.12285106290500784 0.0
  vertex 0.8189467678656137 0.08786196981522933 0.0
 endloop
endfacet
facet normal 0.0 -0.0 -1.0
 outer loop
  vertex 0.3332698811210368 0.0789217847209353 0.0
  vertex 0.3669262699890001 0.039742602990291816 0.0
  vertex 0.315306992861497 0.03813210049943605 0.0
 endloop
endfacet
facet normal -0.0 0.0 -1.0
 outer loop
  vertex 0.8747169845668823 0.25848378365449465 0.0
  vertex 0.8499098265568268 0.21928214181823905 0.0
  vertex 0.8364930515704274 0.26670244810358534 0.0
 endloop
endfacet
facet normal 0.0 0.0 -1.0
 outer loop
  vertex 0.3669262699890001 0.039742602990291816 0.0
  vertex 0.3520567500004228 0.0 0.0
  vertex 0.315306992861497 0.03813210049943605 0.0
 endloop
endfacet
facet normal 0.0 0.0 -1.0
 outer loop
  vertex 0.0746265 0.09923525 0.0
  vertex 0.07119421875019266 0.04110400136004816 0.0
  vertex 0.035698704334082246 0.07870044348334004 0.0
 endloop
endfacet
facet normal 0.0 0.0 -1.0
 outer loop
  vertex 0.8016073031820677 0.04324146628301183 0.0
  vertex 0.7734251665220222 0.08235113780675735 0.0
  vertex 0.8189467678656137 0.08786196981522933 0.0
 endloop
endfacet
facet normal 0.0 0.0 -1.0
 outer loop
  vertex 0.7235327500003685 0.0 0.0
  vertex 0.731329227060419 0.05901822382642495 0.0
  vertex 0.7611489643530146 0.036922165583238825 0.0
 endloop
endfacet
facet normal 0.0 0.0 -1.0
 outer loop
  vertex 0.731329227060419 0.05901822382642495 0.0
  vertex 0.7235327500003685 0.0 0.0
  vertex 0.6902454658963123 0.042908270648629274 0.0
 endloop
endfacet
facet normal 0.0 -0.0 -1.0
 outer loop
  vertex 1.0 0.3220775 0.0
  vertex 1.0 0.2683979166668077 0.0
  vertex 0.976886801538275 0.2905869856318232 0.0
 endloop
endfacet
facet normal 0.0 0.0 -1.0
 outer loop
  vertex 0.07119421875019266 0.04110400136004816 0.0
  vertex 0.0746265 0.09923525 0.0
  vertex 0.1034189102510726 0.0671759347513575 0.0
 endloop
endfacet
facet normal 0.0 0.0 -1.0
 outer loop
  vertex 0.6492535833331887 0.1218055000000028 0.0
  vertex 0.7008634892641379 0.08632837567750266 0.0
  vertex 0.6608393085949441 0.07454867399914138 0.0
 endloop
endfacet
facet normal 0.0 0.0 -1.0
 outer loop
  vertex 0.8121215882688018 0.23765875053740154 0.0
  vertex 0.8499098265568268 0.21928214181823905 0.0
  vertex 0.812210965414618 0.19798132494226028 0.0
 endloop
endfacet
facet normal 0.0 0.0 -1.0
 outer loop
  vertex 0.8621946995107432 0.09928562320537407 0.0
  vertex 0.8498414519248092 0.04722165263026749 0.0
  vertex 0.8189467678656137 0.08786196981522933 0.0
 endloop
endfacet
facet normal 0.0 -0.0 -1.0
 outer loop
  vertex 0.9079734519611301 0.11356683551644033 0.0
  vertex 0.9535121171686514 0.08051937500022412 0.0
  vertex 0.8929259436961962 0.06877563579642186 0.0
 endloop
endfacet
facet normal 0.0 0.0 -1.0
 outer loop
  vertex 0.7875905 0.21925825 0.0
  vertex 0.8121215882688018 0.23765875053740154 0.0
  vertex 0.812210965414618 0.19798132494226028 0.0
 endloop
endfacet
facet normal 0.0 0.0 -1.0
 outer loop
  vertex 0.83495325 0.34644775 0.0
  vertex 0.8146071117325799 0.3036094740874803 0.0
  vertex 0.7843680293871116 0.3202581057083643 0.0
 endloop
endfacet
facet normal 0.0 0.0 -1.0
 outer loop
  vertex 0.8929259436961962 0.06877563579642186 0.0
  vertex 0.8854453333334777 0.0 0.0
  vertex 0.8498414519248092 0.04722165263026749 0.0
 endloop
endfacet
facet normal -0.0 0.0 -1.0
 outer loop
  vertex 0.8498414519248092 0.04722165263026749 0.0
  vertex 0.8016073031820677 0.04324146628301183 0.0
  vertex 0.8189467678656137 0.08786196981522933 0.0
 endloop
endfacet
facet normal 0.0 0.0 -1.0
 outer loop
  vertex 0.0 0.10767162499970419 0.0
  vertex 0.03491675 0.13486575 0.0
  vertex 0.035698704334082246 0.07870044348334004 0.0
 endloop
endfacet
facet normal 0.0 -0.0 -1.0
 outer loop
  vertex 0.020492374999968286 0.16837350000007367 0.0
  vertex 0.03491675 0.13486575 0.0
  vertex 0.016347472921594535 0.14673063904940503 0.0
 endloop
endfacet
facet normal 0.0 0.0 -1.0
 outer loop
  vertex 0.8854453333334777 0.0 0.0
  vertex 0.8929259436961962 0.06877563579642186 0.0
  vertex 0.9288836294186116 0.039358245090581855 0.0
 endloop
endfacet
facet normal 0.0 -0.0 -1.0
 outer loop
  vertex 0.2048814999998702 0.10450974999998641 0.0
  vertex 0.21399872325812308 0.044090912815760344 0.0
  vertex 0.1747728998846308 0.06922224124076021 0.0
 endloop
endfacet
facet normal 0.0 0.0 -1.0
 outer loop
  vertex 0.7951218603474559 0.12285106290500784 0.0
  vertex 0.7734251665220222 0.08235113780675735 0.0
  vertex 0.7622781495918748 0.11710089487144781 0.0
 endloop
endfacet
facet normal 0.0 0.0 -1.0
 outer loop
  vertex 0.46019375000011203 0.0 0.0
  vertex 0.4491145665869015 0.07059230309709036 0.0
  vertex 0.4957059762554692 0.039473239053675585 0.0
 endloop
endfacet
facet normal 0.0 0.0 -1.0
 outer loop
  vertex 0.9535121171686514 0.08051937500022412 0.0
  vertex 0.9079734519611301 0.11356683551644033 0.0
  vertex 0.9551451053736703 0.13489920718800735 0.0
 endloop
endfacet
facet normal 0.0 0.0 -1.0
 outer loop
  vertex 0.9438389123369985 0.2899020880270346 0.0
  vertex 0.97686 0.324255 0.0
  vertex 0.976886801538275 0.2905869856318232 0.0
 endloop
endfacet
facet normal 0.0 -0.0 -1.0
 outer loop
  vertex 0.4491145665869015 0.07059230309709036 0.0
  vertex 0.46019375000011203 0.0 0.0
  vertex 0.4156526575543093 0.037890943927221664 0.0
 endloop
endfacet
facet normal 0.0 0.0 -1.0
 outer loop
  vertex 0.21399872325812308 0.044090912815760344 0.0
  vertex 0.18985125 0.0 0.0
  vertex 0.15862660793498734 0.03307875349641786 0.0
 endloop
endfacet
facet normal 0.0 0.0 -1.0
 outer loop
  vertex 0.21399872325812308 0.044090912815760344 0.0
  vertex 0.2048814999998702 0.10450974999998641 0.0
  vertex 0.24239020586324891 0.07362322562022719 0.0
 endloop
endfacet
facet normal 0.0 0.0 -1.0
 outer loop
  vertex 0.4491145665869015 0.07059230309709036 0.0
  vertex 0.4731753333332647 0.1221104166666644 0.0
  vertex 0.5143637954824265 0.08248949936875853 0.0
 endloop
endfacet
facet normal 0.0 -0.0 -1.0
 outer loop
  vertex 0.1747728998846308 0.06922224124076021 0.0
  vertex 0.21399872325812308 0.044090912815760344 0.0
  vertex 0.15862660793498734 0.03307875349641786 0.0
 endloop
endfacet
facet normal 0.0 0.0 -1.0
 outer loop
  vertex 0.4957059762554692 0.039473239053675585 0.0
  vertex 0.4491145665869015 0.07059230309709036 0.0
  vertex 0.5143637954824265 0.08248949936875853 0.0
 endloop
endfacet
facet normal 0.0 0.0 -1.0
 outer loop
  vertex 0.9543386327114424 0.18980783489656064 0.0
  vertex 1.0 0.16103875000042833 0.0
  vertex 0.9551451053736703 0.13489920718800735 0.0
 endloop
endfacet
facet normal 0.0 -0.0 -1.0
 outer loop
  vertex 0.8621946995107432 0.09928562320537407 0.0
  vertex 0.8929259436961962 0.06877563579642186 0.0
  vertex 0.8498414519248092 0.04722165263026749 0.0
 endloop
endfacet
facet normal 0.0 0.0 -1.0
 outer loop
  vertex 0.8499098265568268 0.21928214181823905 0.0
  vertex 0.8747169845668823 0.25848378365449465 0.0
  vertex 0.8938855742079861 0.22224124259500236 0.0
 endloop
endfacet
facet normal 0.0 0.0 -1.0
 outer loop
  vertex 0.7235327500003685 0.0 0.0
  vertex 0.6712151250004337 0.0 0.0
  vertex 0.6902454658963123 0.042908270648629274 0.0
 endloop
endfacet
facet normal -0.0 0.0 -1.0
 outer loop
  vertex 1.0 0.21471833333362614 0.0
  vertex 0.9543386327114424 0.18980783489656064 0.0
  vertex 0.9614602892456356 0.24544512786397735 0.0
 endloop
endfacet
facet normal 0.0 0.0 -1.0
 outer loop
  vertex 0.97686 0.324255 0.0
  vertex 1.0 0.3220775 0.0
  vertex 0.976886801538275 0.2905869856318232 0.0
 endloop
endfacet
facet normal 0.0 0.0 -1.0
 outer loop
  vertex 0.9614602892456356 0.24544512786397735 0.0
  vertex 0.9543386327114424 0.18980783489656064 0.0
  vertex 0.9305777119409561 0.22169726506027532 0.0
 endloop
endfacet
facet normal 0.0 0.0 -1.0
 outer loop
  vertex 0.6712151250004337 0.0 0.0
  vertex 0.64465019375916 0.041123646912842655 0.0
  vertex 0.6902454658963123 0.042908270648629274 0.0
 endloop
endfacet
facet normal 0.0 0.0 -1.0
 outer loop
  vertex 0.7758503750001952 0.0 0.0
  vertex 0.7235327500003685 0.0 0.0
  vertex 0.7611489643530146 0.036922165583238825 0.0
 endloop
endfacet
facet normal 0.0 0.0 -1.0
 outer loop
  vertex 0.2439197500001336 0.0 0.0
  vertex 0.18985125 0.0 0.0
  vertex 0.21399872325812308 0.044090912815760344 0.0
 endloop
endfacet
facet normal 0.0 0.0 -1.0
 outer loop
  vertex 0.83495325 0.34644775 0.0
  vertex 0.8822554999999467 0.339050166666675 0.0
  vertex 0.857219865096875 0.302781367245004 0.0
 endloop
endfacet
facet normal 0.0 -0.0 -1.0
 outer loop
  vertex 1.0 0.16103875000042833 0.0
  vertex 1.0 0.10735916666695947 0.0
  vertex 0.9551451053736703 0.13489920718800735 0.0
 endloop
endfacet
facet normal -0.0 0.0 -1.0
 outer loop
  vertex 0.03491675 0.13486575 0.0
  vertex 0.0 0.10767162499970419 0.0
  vertex 0.016347472921594535 0.14673063904940503 0.0
 endloop
endfacet
facet normal 0.0 0.0 -1.0
 outer loop
  vertex 0.8929259436961962 0.06877563579642186 0.0
  vertex 0.9535121171686514 0.08051937500022412 0.0
  vertex 0.9288836294186116 0.039358245090581855 0.0
 endloop
endfacet
facet normal 0.0 0.0 -1.0
 outer loop
  vertex 0.828168 0.0 0.0
  vertex 0.7758503750001952 0.0 0.0
  vertex 0.8016073031820677 0.04324146628301183 0.0
 endloop
endfacet
facet normal -0.0 0.0 -1.0
 outer loop
  vertex 1.0 0.10735916666695947 0.0
  vertex 0.9535121171686514 0.08051937500022412 0.0
  vertex 0.9551451053736703 0.13489920718800735 0.0
 endloop
endfacet
facet normal 0.0 -0.0 -1.0
 outer loop
  vertex 0.9543386327114424 0.18980783489656064 0.0
  vertex 0.9551451053736703 0.13489920718800735 0.0
  vertex 0.9150464304007976 0.1571032810474314 0.0
 endloop
endfacet
facet normal 0.0 -0.0 -1.0
 outer loop
  vertex 1.0 0.21471833333362614 0.0
  vertex 1.0 0.16103875000042833 0.0
  vertex 0.9543386327114424 0.18980783489656064 0.0
 endloop
endfacet
facet normal 0.0 0.0 -1.0
 outer loop
  vertex 0.158293 0.09963225 0.0
  vertex 0.2048814999998702 0.10450974999998641 0.0
  vertex 0.1747728998846308 0.06922224124076021 0.0
 endloop
endfacet
facet normal 0.0 -0.0 -1.0
 outer loop
  vertex 0.83495325 0.34644775 0.0
  vertex 0.857219865096875 0.302781367245004 0.0
  vertex 0.8146071117325799 0.3036094740874803 0.0
 endloop
endfacet
facet normal 0.0 -0.0 -1.0
 outer loop
  vertex 0.9001187830511964 0.29455512066316103 0.0
  vertex 0.9170011253626079 0.25354700460338747 0.0
  vertex 0.8747169845668823 0.25848378365449465 0.0
 endloop
endfacet
facet normal 0.0 -0.0 -1.0
 outer loop
  vertex 1.0 0.10735916666695947 0.0
  vertex 1.0 0.05367958333348877 0.0
  vertex 0.9535121171686514 0.08051937500022412 0.0
 endloop
endfacet
facet normal 0.0 0.0 -1.0
 outer loop
  vertex 0.3893806950023658 0.07770155766818934 0.0
  vertex 0.4491145665869015 0.07059230309709036 0.0
  vertex 0.4156526575543093 0.037890943927221664 0.0
 endloop
endfacet
facet normal 0.0 0.0 -1.0
 outer loop
  vertex 0.09492562500025228 0.0 0.0
  vertex 0.04746281250013301 0.0 0.0
  vertex 0.07119421875019266 0.04110400136004816 0.0
 endloop
endfacet
facet normal 0.0 0.0 -1.0
 outer loop
  vertex 0.8854453333334777 0.0 0.0
  vertex 0.828168 0.0 0.0
  vertex 0.8498414519248092 0.04722165263026749 0.0
 endloop
endfacet
facet normal 0.0 0.0 -1.0
 outer loop
  vertex 0.8822554999999467 0.339050166666675 0.0
  vertex 0.9295577499999585 0.3316525833333398 0.0
  vertex 0.9001187830511964 0.29455512066316103 0.0
 endloop
endfacet
facet normal 0.0 0.0 -1.0
 outer loop
  vertex 0.25147 0.10938725 0.0
  vertex 0.302892249999859 0.11379274999998792 0.0
  vertex 0.2825860746674778 0.07377989077470164 0.0
 endloop
endfacet
facet normal 0.0 0.0 -1.0
 outer loop
  vertex 0.9001187830511964 0.29455512066316103 0.0
  vertex 0.9295577499999585 0.3316525833333398 0.0
  vertex 0.9438389123369985 0.2899020880270346 0.0
 endloop
endfacet
facet normal 0.0 -0.0 -1.0
 outer loop
  vertex 0.8822554999999467 0.339050166666675 0.0
  vertex 0.9001187830511964 0.29455512066316103 0.0
  vertex 0.857219865096875 0.302781367245004 0.0
 endloop
endfacet
facet normal 0.0 0.0 -1.0
 outer loop
  vertex 0.4137449166665184 0.12015433333332845 0.0
  vertex 0.4731753333332647 0.1221104166666644 0.0
  vertex 0.4491145665869015 0.07059230309709036 0.0
 endloop
endfacet
facet normal 0.0 0.0 -1.0
 outer loop
  vertex 0.6712151250004337 0.0 0.0
  vertex 0.618897500000412 0.0 0.0
  vertex 0.64465019375916 0.041123646912842655 0.0
 endloop
endfacet
facet normal 0.0 0.0 -1.0
 outer loop
  vertex 0.7690205 0.146807 0.0
  vertex 0.7783054999999778 0.1830326249999133 0.0
  vertex 0.8043695150725583 0.1581649268377303 0.0
 endloop
endfacet
facet normal -0.0 0.0 -1.0
 outer loop
  vertex 0.9001187830511964 0.29455512066316103 0.0
  vertex 0.8747169845668823 0.25848378365449465 0.0
  vertex 0.857219865096875 0.302781367245004 0.0
 endloop
endfacet
facet normal 0.0 0.0 -1.0
 outer loop
  vertex 0.4061252500003108 0.0 0.0
  vertex 0.3520567500004228 0.0 0.0
  vertex 0.3669262699890001 0.039742602990291816 0.0
 endloop
endfacet
facet normal 0.0 0.0 -1.0
 outer loop
  vertex 0.8041904259944692 0.2732194570611582 0.0
  vertex 0.8146071117325799 0.3036094740874803 0.0
  vertex 0.8364930515704274 0.26670244810358534 0.0
 endloop
endfacet
facet normal 0.0 0.0 -1.0
 outer loop
  vertex 0.9001187830511964 0.29455512066316103 0.0
  vertex 0.9438389123369985 0.2899020880270346 0.0
  vertex 0.9170011253626079 0.25354700460338747 0.0
 endloop
endfacet
facet normal 0.0 0.0 -1.0
 outer loop
  vertex 0.828168 0.0 0.0
  vertex 0.8016073031820677 0.04324146628301183 0.0
  vertex 0.8498414519248092 0.04722165263026749 0.0
 endloop
endfacet
facet normal -0.0 0.0 -1.0
 outer loop
  vertex 0.64465019375916 0.041123646912842655 0.0
  vertex 0.618897500000412 0.0 0.0
  vertex 0.5931382225158046 0.04352275212642117 0.0
 endloop
endfacet
facet normal 0.0 -0.0 -1.0
 outer loop
  vertex 0.035698704334082246 0.07870044348334004 0.0
  vertex 0.07119421875019266 0.04110400136004816 0.0
  vertex 0.03345475725430083 0.03549022204042958 0.0
 endloop
endfacet
facet normal -0.0 0.0 -1.0
 outer loop
  vertex 0.8801918364483372 0.18335535882081272 0.0
  vertex 0.8409688625895435 0.17049125546027746 0.0
  vertex 0.8499098265568268 0.21928214181823905 0.0
 endloop
endfacet
facet normal 0.0 0.0 -1.0
 outer loop
  vertex 0.8146071117325799 0.3036094740874803 0.0
  vertex 0.857219865096875 0.302781367245004 0.0
  vertex 0.8364930515704274 0.26670244810358534 0.0
 endloop
endfacet
facet normal 0.0 0.0 -1.0
 outer loop
  vertex 0.618897500000412 0.0 0.0
  vertex 0.5665798750002385 0.0 0.0
  vertex 0.5931382225158046 0.04352275212642117 0.0
 endloop
endfacet
facet normal 0.0 0.0 -1.0
 outer loop
  vertex 0.302892249999859 0.11379274999998792 0.0
  vertex 0.3543145 0.11819825 0.0
  vertex 0.3332698811210368 0.0789217847209353 0.0
 endloop
endfacet
facet normal 0.0 0.0 -1.0
 outer loop
  vertex 0.0 0.0538358124998584 0.0
  vertex 0.0 0.10767162499970419 0.0
  vertex 0.035698704334082246 0.07870044348334004 0.0
 endloop
endfacet
facet normal 0.0 0.0 -1.0
 outer loop
  vertex 0.8719025038415691 0.14331972017532907 0.0
  vertex 0.8801918364483372 0.18335535882081272 0.0
  vertex 0.9150464304007976 0.1571032810474314 0.0
 endloop
endfacet
facet normal 0.0 0.0 -1.0
 outer loop
  vertex 0.9427226666667823 0.0 0.0
  vertex 0.8854453333334777 0.0 0.0
  vertex 0.9288836294186116 0.039358245090581855 0.0
 endloop
endfacet
facet normal 0.0 -0.0 -1.0
 outer loop
  vertex 0.4137449166665184 0.12015433333332845 0.0
  vertex 0.4491145665869015 0.07059230309709036 0.0
  vertex 0.3893806950023658 0.07770155766818934 0.0
 endloop
endfacet
facet normal 0.0 0.0 -1.0
 outer loop
  vertex 0.5665798750002385 0.0 0.0
  vertex 0.5405955192079054 0.04428439280252902 0.0
  vertex 0.5931382225158046 0.04352275212642117 0.0
 endloop
endfacet
facet normal -0.0 0.0 -1.0
 outer loop
  vertex 0.9551451053736703 0.13489920718800735 0.0
  vertex 0.9079734519611301 0.11356683551644033 0.0
  vertex 0.9150464304007976 0.1571032810474314 0.0
 endloop
endfacet
facet normal 0.0 0.0 -1.0
 outer loop
  vertex 0.9079734519611301 0.11356683551644033 0.0
  vertex 0.8719025038415691 0.14331972017532907 0.0
  vertex 0.9150464304007976 0.1571032810474314 0.0
 endloop
endfacet
facet normal 0.0 0.0 -1.0
 outer loop
  vertex 0.5665798750002385 0.0 0.0
  vertex 0.51426225 0.0 0.0
  vertex 0.5405955192079054 0.04428439280252902 0.0
 endloop
endfacet
facet normal 0.0 0.0 -1.0
 outer loop
  vertex 0.7875905 0.21925825 0.0
  vertex 0.7796633750000178 0.25619887499991706 0.0
  vertex 0.8121215882688018 0.23765875053740154 0.0
 endloop
endfacet
facet normal 0.0 0.0 -1.0
 outer loop
  vertex 0.3520567500004228 0.0 0.0
  vertex 0.29798825000027096 0.0 0.0
  vertex 0.315306992861497 0.03813210049943605 0.0
 endloop
endfacet
facet normal 0.0 0.0 -1.0
 outer loop
  vertex 0.11645974999989966 0.09943374999999953 0.0
  vertex 0.158293 0.09963225 0.0
  vertex 0.13806466823017324 0.06479953989163646 0.0
 endloop
endfacet
facet normal 0.0 0.0 -1.0
 outer loop
  vertex 0.2825860746674778 0.07377989077470164 0.0
  vertex 0.302892249999859 0.11379274999998792 0.0
  vertex 0.3332698811210368 0.0789217847209353 0.0
 endloop
endfacet
facet normal 0.0 0.0 -1.0
 outer loop
  vertex 0.6191838107219216 0.08057757675672944 0.0
  vertex 0.6492535833331887 0.1218055000000028 0.0
  vertex 0.6608393085949441 0.07454867399914138 0.0
 endloop
endfacet
facet normal 0.0 0.0 -1.0
 outer loop
  vertex 0.51426225 0.0 0.0
  vertex 0.46019375000011203 0.0 0.0
  vertex 0.4957059762554692 0.039473239053675585 0.0
 endloop
endfacet
facet normal 0.0 0.0 -1.0
 outer loop
  vertex 0.7690205 0.146807 0.0
  vertex 0.8043695150725583 0.1581649268377303 0.0
  vertex 0.7951218603474559 0.12285106290500784 0.0
 endloop
endfacet
facet normal 0.0 0.0 -1.0
 outer loop
  vertex 0.8499098265568268 0.21928214181823905 0.0
  vertex 0.8409688625895435 0.17049125546027746 0.0
  vertex 0.812210965414618 0.19798132494226028 0.0
 endloop
endfacet
facet normal 0.0 0.0 -1.0
 outer loop
  vertex 0.3669262699890001 0.039742602990291816 0.0
  vertex 0.3332698811210368 0.0789217847209353 0.0
  vertex 0.3893806950023658 0.07770155766818934 0.0
 endloop
endfacet
facet normal 0.0 0.0 -1.0
 outer loop
  vertex 0.77173625 0.2931395 0.0
  vertex 0.8146071117325799 0.3036094740874803 0.0
  vertex 0.8041904259944692 0.2732194570611582 0.0
 endloop
endfacet
facet normal 0.0 0.0 -1.0
 outer loop
  vertex 0.8719025038415691 0.14331972017532907 0.0
  vertex 0.8409688625895435 0.17049125546027746 0.0
  vertex 0.8801918364483372 0.18335535882081272 0.0
 endloop
endfacet
facet normal 0.0 0.0 -1.0
 outer loop
  vertex 0.09492562500025228 0.0 0.0
  vertex 0.07119421875019266 0.04110400136004816 0.0
  vertex 0.11724273193886103 0.03241958600782684 0.0
 endloop
endfacet
facet normal 0.0 0.0 -1.0
 outer loop
  vertex 0.3669262699890001 0.039742602990291816 0.0
  vertex 0.3893806950023658 0.07770155766818934 0.0
  vertex 0.4156526575543093 0.037890943927221664 0.0
 endloop
endfacet
facet normal 0.0 0.0 -1.0
 outer loop
  vertex 0.8314901257065844 0.13222087606095745 0.0
  vertex 0.8043695150725583 0.1581649268377303 0.0
  vertex 0.8409688625895435 0.17049125546027746 0.0
 endloop
endfacet
facet normal 0.0 0.0 -1.0
 outer loop
  vertex 0.3332698811210368 0.0789217847209353 0.0
  vertex 0.3543145 0.11819825 0.0
  vertex 0.3893806950023658 0.07770155766818934 0.0
 endloop
endfacet
facet normal -0.0 0.0 -1.0
 outer loop
  vertex 0.8409688625895435 0.17049125546027746 0.0
  vertex 0.8043695150725583 0.1581649268377303 0.0
  vertex 0.812210965414618 0.19798132494226028 0.0
 endloop
endfacet
facet normal 0.0 0.0 -1.0
 outer loop
  vertex 0.8801918364483372 0.18335535882081272 0.0
  vertex 0.8499098265568268 0.21928214181823905 0.0
  vertex 0.8938855742079861 0.22224124259500236 0.0
 endloop
endfacet
facet normal 0.0 0.0 -1.0
 outer loop
  vertex 0.8043695150725583 0.1581649268377303 0.0
  vertex 0.7783054999999778 0.1830326249999133 0.0
  vertex 0.812210965414618 0.19798132494226028 0.0
 endloop
endfacet
facet normal 0.0 0.0 -1.0
 outer loop
  vertex 0.7783054999999778 0.1830326249999133 0.0
  vertex 0.7875905 0.21925825 0.0
  vertex 0.812210965414618 0.19798132494226028 0.0
 endloop
endfacet
facet normal 0.0 0.0 -1.0
 outer loop
  vertex 0.2048814999998702 0.10450974999998641 0.0
  vertex 0.25147 0.10938725 0.0
  vertex 0.24239020586324891 0.07362322562022719 0.0
 endloop
endfacet
facet normal 0.0 0.0 -1.0
 outer loop
  vertex 0.0746265 0.09923525 0.0
  vertex 0.11645974999989966 0.09943374999999953 0.0
  vertex 0.1034189102510726 0.0671759347513575 0.0
 endloop
endfacet
facet normal 0.0 0.0 -1.0
 outer loop
  vertex 0.0 0.0 0.0
  vertex 0.0 0.0538358124998584 0.0
  vertex 0.03345475725430083 0.03549022204042958 0.0
 endloop
endfacet
facet normal 0.0 0.0 -1.0
 outer loop
  vertex 0.7075775 0.120675 0.0
  vertex 0.7382989999999476 0.1337409999999777 0.0
  vertex 0.7355242210899485 0.09975427364549619 0.0
 endloop
endfacet
facet normal 0.0 0.0 -1.0
 outer loop
  vertex 0.13806466823017324 0.06479953989163646 0.0
  vertex 0.158293 0.09963225 0.0
  vertex 0.1747728998846308 0.06922224124076021 0.0
 endloop
endfacet
facet normal 0.0 0.0 -1.0
 outer loop
  vertex 0.731329227060419 0.05901822382642495 0.0
  vertex 0.7355242210899485 0.09975427364549619 0.0
  vertex 0.7734251665220222 0.08235113780675735 0.0
 endloop
endfacet
facet normal 0.0 0.0 -1.0
 outer loop
  vertex 0.8621946995107432 0.09928562320537407 0.0
  vertex 0.8719025038415691 0.14331972017532907 0.0
  vertex 0.9079734519611301 0.11356683551644033 0.0
 endloop
endfacet
facet normal 0.0 0.0 -1.0
 outer loop
  vertex 0.5405955192079054 0.04428439280252902 0.0
  vertex 0.51426225 0.0 0.0
  vertex 0.4957059762554692 0.039473239053675585 0.0
 endloop
endfacet
facet normal 0.0 0.0 -1.0
 outer loop
  vertex 0.77173625 0.2931395 0.0
  vertex 0.7440341250000255 0.3222194999999732 0.0
  vertex 0.7843680293871116 0.3202581057083643 0.0
 endloop
endfacet
facet normal 0.0 0.0 -1.0
 outer loop
  vertex 0.8314901257065844 0.13222087606095745 0.0
  vertex 0.8409688625895435 0.17049125546027746 0.0
  vertex 0.8719025038415691 0.14331972017532907 0.0
 endloop
endfacet
facet normal 0.0 0.0 -1.0
 outer loop
  vertex 0.8621946995107432 0.09928562320537407 0.0
  vertex 0.9079734519611301 0.11356683551644033 0.0
  vertex 0.8929259436961962 0.06877563579642186 0.0
 endloop
endfacet
facet normal 0.0 0.0 -1.0
 outer loop
  vertex 0.46019375000011203 0.0 0.0
  vertex 0.4061252500003108 0.0 0.0
  vertex 0.4156526575543093 0.037890943927221664 0.0
 endloop
endfacet
facet normal 0.0 0.0 -1.0
 outer loop
  vertex 0.9614602892456356 0.24544512786397735 0.0
  vertex 0.9438389123369985 0.2899020880270346 0.0
  vertex 0.976886801538275 0.2905869856318232 0.0
 endloop
endfacet
facet normal 0.0 0.0 -1.0
 outer loop
  vertex 0.8016073031820677 0.04324146628301183 0.0
  vertex 0.7758503750001952 0.0 0.0
  vertex 0.7611489643530146 0.036922165583238825 0.0
 endloop
endfacet
facet normal 0.0 0.0 -1.0
 outer loop
  vertex 0.9170011253626079 0.25354700460338747 0.0
  vertex 0.9438389123369985 0.2899020880270346 0.0
  vertex 0.9614602892456356 0.24544512786397735 0.0
 endloop
endfacet
facet normal 0.0 0.0 -1.0
 outer loop
  vertex 0.7796633750000178 0.25619887499991706 0.0
  vertex 0.77173625 0.2931395 0.0
  vertex 0.8041904259944692 0.2732194570611582 0.0
 endloop
endfacet
facet normal 0.0 0.0 -1.0
 outer loop
  vertex 0.8314901257065844 0.13222087606095745 0.0
  vertex 0.8719025038415691 0.14331972017532907 0.0
  vertex 0.8621946995107432 0.09928562320537407 0.0
 endloop
endfacet
facet normal 0.0 0.0 -1.0
 outer loop
  vertex 0.4731753333332647 0.1221104166666644 0.0
  vertex 0.53260575 0.1240665 0.0
  vertex 0.5143637954824265 0.08248949936875853 0.0
 endloop
endfacet
facet normal 0.0 -0.0 -1.0
 outer loop
  vertex 1.0 0.2683979166668077 0.0
  vertex 1.0 0.21471833333362614 0.0
  vertex 0.9614602892456356 0.24544512786397735 0.0
 endloop
endfacet
facet normal 0.0 0.0 -1.0
 outer loop
  vertex 0.04746281250013301 0.0 0.0
  vertex 0.0 0.0 0.0
  vertex 0.03345475725430083 0.03549022204042958 0.0
 endloop
endfacet
facet normal 0.0 0.0 -1.0
 outer loop
  vertex 0.8747169845668823 0.25848378365449465 0.0
  vertex 0.9170011253626079 0.25354700460338747 0.0
  vertex 0.8938855742079861 0.22224124259500236 0.0
 endloop
endfacet
facet normal 0.0 -0.0 -1.0
 outer loop
  vertex 0.7075775 0.120675 0.0
  vertex 0.7355242210899485 0.09975427364549619 0.0
  vertex 0.7008634892641379 0.08632837567750266 0.0
 endloop
endfacet
facet normal 0.0 -0.0 -1.0
 outer loop
  vertex 0.7734251665220222 0.08235113780675735 0.0
  vertex 0.8016073031820677 0.04324146628301183 0.0
  vertex 0.7611489643530146 0.036922165583238825 0.0
 endloop
endfacet
facet normal 0.0 0.0 -1.0
 outer loop
  vertex 0.7951218603474559 0.12285106290500784 0.0
  vertex 0.8043695150725583 0.1581649268377303 0.0
  vertex 0.8314901257065844 0.13222087606095745 0.0
 endloop
endfacet
facet normal -0.0 0.0 -1.0
 outer loop
  vertex 0.8146071117325799 0.3036094740874803 0.0
  vertex 0.77173625 0.2931395 0.0
  vertex 0.7843680293871116 0.3202581057083643 0.0
 endloop
endfacet
facet normal 0.0 0.0 -1.0
 outer loop
  vertex 0.7734251665220222 0.08235113780675735 0.0
  vertex 0.7355242210899485 0.09975427364549619 0.0
  vertex 0.7622781495918748 0.11710089487144781 0.0
 endloop
endfacet
facet normal 0.0 0.0 -1.0
 outer loop
  vertex 0.29798825000027096 0.0 0.0
  vertex 0.2439197500001336 0.0 0.0
  vertex 0.26402682761769136 0.03772167958759229 0.0
 endloop
endfacet
facet normal 0.0 0.0 -1.0
 outer loop
  vertex 0.7440341250000255 0.3222194999999732 0.0
  vertex 0.775642624999913 0.3488736250000036 0.0
  vertex 0.7843680293871116 0.3202581057083643 0.0
 endloop
endfacet
facet normal 0.0 0.0 -1.0
 outer loop
  vertex 0.7951218603474559 0.12285106290500784 0.0
  vertex 0.8314901257065844 0.13222087606095745 0.0
  vertex 0.8189467678656137 0.08786196981522933 0.0
 endloop
endfacet
facet normal 0.0 0.0 -1.0
 outer loop
  vertex 0.64465019375916 0.041123646912842655 0.0
  vertex 0.5931382225158046 0.04352275212642117 0.0
  vertex 0.6191838107219216 0.08057757675672944 0.0
 endloop
endfacet
facet normal 0.0 0.0 -1.0
 outer loop
  vertex 0.3543145 0.11819825 0.0
  vertex 0.4137449166665184 0.12015433333332845 0.0
  vertex 0.3893806950023658 0.07770155766818934 0.0
 endloop
endfacet
facet normal 0.0 0.0 -1.0
 outer loop
  vertex 0.18985125 0.0 0.0
  vertex 0.1423884375001112 0.0 0.0
  vertex 0.15862660793498734 0.03307875349641786 0.0
 endloop
endfacet
facet normal 0.0 0.0 -1.0
 outer loop
  vertex 0.64465019375916 0.041123646912842655 0.0
  vertex 0.6191838107219216 0.08057757675672944 0.0
  vertex 0.6608393085949441 0.07454867399914138 0.0
 endloop
endfacet
facet normal 0.0 -0.0 -1.0
 outer loop
  vertex 0.7008634892641379 0.08632837567750266 0.0
  vertex 0.731329227060419 0.05901822382642495 0.0
  vertex 0.6902454658963123 0.042908270648629274 0.0
 endloop
endfacet
facet normal 0.0 0.0 -1.0
 outer loop
  vertex 0.07119421875019266 0.04110400136004816 0.0
  vertex 0.1034189102510726 0.0671759347513575 0.0
  vertex 0.11724273193886103 0.03241958600782684 0.0
 endloop
endfacet
facet normal 0.0 0.0 -1.0
 outer loop
  vertex 0.7382989999999476 0.1337409999999777 0.0
  vertex 0.7690205 0.146807 0.0
  vertex 0.7622781495918748 0.11710089487144781 0.0
 endloop
endfacet
facet normal 0.0 0.0 -1.0
 outer loop
  vertex 0.53260575 0.1240665 0.0
  vertex 0.5909296666665582 0.1229360000000021 0.0
  vertex 0.565136127432436 0.08297945350907338 0.0
 endloop
endfacet
facet normal 0.0 0.0 -1.0
 outer loop
  vertex 0.9535121171686514 0.08051937500022412 0.0
  vertex 1.0 0.05367958333348877 0.0
  vertex 0.9650236826508091 0.034711440684858944 0.0
 endloop
endfacet
facet normal -0.0 0.0 -1.0
 outer loop
  vertex 0.6902454658963123 0.042908270648629274 0.0
  vertex 0.64465019375916 0.041123646912842655 0.0
  vertex 0.6608393085949441 0.07454867399914138 0.0
 endloop
endfacet
facet normal 0.0 0.0 -1.0
 outer loop
  vertex 0.7008634892641379 0.08632837567750266 0.0
  vertex 0.7355242210899485 0.09975427364549619 0.0
  vertex 0.731329227060419 0.05901822382642495 0.0
 endloop
endfacet
facet normal 0.0 -0.0 -1.0
 outer loop
  vertex 0.8314901257065844 0.13222087606095745 0.0
  vertex 0.8621946995107432 0.09928562320537407 0.0
  vertex 0.8189467678656137 0.08786196981522933 0.0
 endloop
endfacet
facet normal 0.0 0.0 -1.0
 outer loop
  vertex 0.5909296666665582 0.1229360000000021 0.0
  vertex 0.6492535833331887 0.1218055000000028 0.0
  vertex 0.6191838107219216 0.08057757675672944 0.0
 endloop
endfacet
facet normal 0.0 0.0 -1.0
 outer loop
  vertex 0.315306992861497 0.03813210049943605 0.0
  vertex 0.29798825000027096 0.0 0.0
  vertex 0.26402682761769136 0.03772167958759229 0.0
 endloop
endfacet
facet normal 0.0 0.0 -1.0
 outer loop
  vertex 0.1423884375001112 0.0 0.0
  vertex 0.09492562500025228 0.0 0.0
  vertex 0.11724273193886103 0.03241958600782684 0.0
 endloop
endfacet
facet normal 0.0 -0.0 -1.0
 outer loop
  vertex 0.11645974999989966 0.09943374999999953 0.0
  vertex 0.13806466823017324 0.06479953989163646 0.0
  vertex 0.1034189102510726 0.0671759347513575 0.0
 endloop
endfacet
facet normal 0.0 -0.0 -1.0
 outer loop
  vertex 0.7690205 0.146807 0.0
  vertex 0.7951218603474559 0.12285106290500784 0.0
  vertex 0.7622781495918748 0.11710089487144781 0.0
 endloop
endfacet
facet normal -0.0 0.0 -1.0
 outer loop
  vertex 0.9543386327114424 0.18980783489656064 0.0
  vertex 0.9150464304007976 0.1571032810474314 0.0
  vertex 0.9158439372360134 0.1950777345620558 0.0
 endloop
endfacet
facet normal 0.0 0.0 -1.0
 outer loop
  vertex 0.7355242210899485 0.09975427364549619 0.0
  vertex 0.7382989999999476 0.1337409999999777 0.0
  vertex 0.7622781495918748 0.11710089487144781 0.0
 endloop
endfacet
facet normal 0.0 0.0 -1.0
 outer loop
  vertex 1.0 0.0 0.0
  vertex 0.9427226666667823 0.0 0.0
  vertex 0.9650236826508091 0.034711440684858944 0.0
 endloop
endfacet
facet normal 0.0 0.0 -1.0
 outer loop
  vertex 0.5931382225158046 0.04352275212642117 0.0
  vertex 0.5405955192079054 0.04428439280252902 0.0
  vertex 0.565136127432436 0.08297945350907338 0.0
 endloop
endfacet
facet normal -0.0 0.0 -1.0
 outer loop
  vertex 1.0 0.2683979166668077 0.0
  vertex 0.9614602892456356 0.24544512786397735 0.0
  vertex 0.976886801538275 0.2905869856318232 0.0
 endloop
endfacet
facet normal 0.0 -0.0 -1.0
 outer loop
  vertex 0.857219865096875 0.302781367245004 0.0
  vertex 0.8747169845668823 0.25848378365449465 0.0
  vertex 0.8364930515704274 0.26670244810358534 0.0
 endloop
endfacet
facet normal -0.0 0.0 -1.0
 outer loop
  vertex 0.6191838107219216 0.08057757675672944 0.0
  vertex 0.5931382225158046 0.04352275212642117 0.0
  vertex 0.565136127432436 0.08297945350907338 0.0
 endloop
endfacet
facet normal 0.0 -0.0 -1.0
 outer loop
  vertex 0.25147 0.10938725 0.0
  vertex 0.2825860746674778 0.07377989077470164 0.0
  vertex 0.24239020586324891 0.07362322562022719 0.0
 endloop
endfacet
facet normal 0.0 -0.0 -1.0
 outer loop
  vertex 0.53260575 0.1240665 0.0
  vertex 0.565136127432436 0.08297945350907338 0.0
  vertex 0.5143637954824265 0.08248949936875853 0.0
 endloop
endfacet
facet normal 0.0 0.0 -1.0
 outer loop
  vertex 0.07119421875019266 0.04110400136004816 0.0
  vertex 0.04746281250013301 0.0 0.0
  vertex 0.03345475725430083 0.03549022204042958 0.0
 endloop
endfacet
facet normal 0.0 0.0 -1.0
 outer loop
  vertex 0.8121215882688018 0.23765875053740154 0.0
  vertex 0.7796633750000178 0.25619887499991706 0.0
  vertex 0.8041904259944692 0.2732194570611582 0.0
 endloop
endfacet
facet normal 0.0 0.0 -1.0
 outer loop
  vertex 0.9150464304007976 0.1571032810474314 0.0
  vertex 0.8801918364483372 0.18335535882081272 0.0
  vertex 0.9158439372360134 0.1950777345620558 0.0
 endloop
endfacet
facet normal 0.0 0.0 -1.0
 outer loop
  vertex 0.2439197500001336 0.0 0.0
  vertex 0.21399872325812308 0.044090912815760344 0.0
  vertex 0.26402682761769136 0.03772167958759229 0.0
 endloop
endfacet
facet normal 0.0 0.0 -1.0
 outer loop
  vertex 0.731329227060419 0.05901822382642495 0.0
  vertex 0.7734251665220222 0.08235113780675735 0.0
  vertex 0.7611489643530146 0.036922165583238825 0.0
 endloop
endfacet
facet normal 0.0 0.0 -1.0
 outer loop
  vertex 0.8938855742079861 0.22224124259500236 0.0
  vertex 0.9170011253626079 0.25354700460338747 0.0
  vertex 0.9305777119409561 0.22169726506027532 0.0
 endloop
endfacet
facet normal 0.0 -0.0 -1.0
 outer loop
  vertex 1.0 0.05367958333348877 0.0
  vertex 1.0 0.0 0.0
  vertex 0.9650236826508091 0.034711440684858944 0.0
 endloop
endfacet
facet normal 0.0 0.0 -1.0
 outer loop
  vertex 0.565136127432436 0.08297945350907338 0.0
  vertex 0.5405955192079054 0.04428439280252902 0.0
  vertex 0.5143637954824265 0.08248949936875853 0.0
 endloop
endfacet
facet normal 0.0 0.0 -1.0
 outer loop
  vertex 0.2825860746674778 0.07377989077470164 0.0
  vertex 0.3332698811210368 0.0789217847209353 0.0
  vertex 0.315306992861497 0.03813210049943605 0.0
 endloop
endfacet
facet normal 0.0 0.0 -1.0
 outer loop
  vertex 0.4061252500003108 0.0 0.0
  vertex 0.3669262699890001 0.039742602990291816 0.0
  vertex 0.4156526575543093 0.037890943927221664 0.0
 endloop
endfacet
facet normal 0.0 0.0 -1.0
 outer loop
  vertex 0.9158439372360134 0.1950777345620558 0.0
  vertex 0.8938855742079861 0.22224124259500236 0.0
  vertex 0.9305777119409561 0.22169726506027532 0.0
 endloop
endfacet
facet normal 0.0 0.0 -1.0
 outer loop
  vertex 0.9288836294186116 0.039358245090581855 0.0
  vertex 0.9535121171686514 0.08051937500022412 0.0
  vertex 0.9650236826508091 0.034711440684858944 0.0
 endloop
endfacet
facet normal 0.0 -0.0 -1.0
 outer loop
  vertex 0.5909296666665582 0.1229360000000021 0.0
  vertex 0.6191838107219216 0.08057757675672944 0.0
  vertex 0.565136127432436 0.08297945350907338 0.0
 endloop
endfacet
facet normal 0.0 0.0 -1.0
 outer loop
  vertex 0.11724273193886103 0.03241958600782684 0.0
  vertex 0.13806466823017324 0.06479953989163646 0.0
  vertex 0.15862660793498734 0.03307875349641786 0.0
 endloop
endfacet
facet normal 0.0 0.0 -1.0
 outer loop
  vertex 0.7008634892641379 0.08632837567750266 0.0
  vertex 0.6902454658963123 0.042908270648629274 0.0
  vertex 0.6608393085949441 0.07454867399914138 0.0
 endloop
endfacet
facet normal -0.0 0.0 -1.0
 outer loop
  vertex 0.5405955192079054 0.04428439280252902 0.0
  vertex 0.4957059762554692 0.039473239053675585 0.0
  vertex 0.5143637954824265 0.08248949936875853 0.0
 endloop
endfacet
facet normal 0.0 0.0 -1.0
 outer loop
  vertex 0.1423884375001112 0.0 0.0
  vertex 0.11724273193886103 0.03241958600782684 0.0
  vertex 0.15862660793498734 0.03307875349641786 0.0
 endloop
endfacet
facet normal 0.0 0.0 -1.0
 outer loop
  vertex 0.8801918364483372 0.18335535882081272 0.0
  vertex 0.8938855742079861 0.22224124259500236 0.0
  vertex 0.9158439372360134 0.1950777345620558 0.0
 endloop
endfacet
facet normal 0.0 0.0 -1.0
 outer loop
  vertex 0.1034189102510726 0.0671759347513575 0.0
  vertex 0.13806466823017324 0.06479953989163646 0.0
  vertex 0.11724273193886103 0.03241958600782684 0.0
 endloop
endfacet
facet normal 0.0 0.0 -1.0
 outer loop
  vertex 0.13806466823017324 0.06479953989163646 0.0
  vertex 0.1747728998846308 0.06922224124076021 0.0
  vertex 0.15862660793498734 0.03307875349641786 0.0
 endloop
endfacet
facet normal 0.0 0.0 -1.0
 outer loop
  vertex 0.0 0.0538358124998584 0.0
  vertex 0.035698704334082246 0.07870044348334004 0.0
  vertex 0.03345475725430083 0.03549022204042958 0.0
 endloop
endfacet
facet normal 0.0 -0.0 -1.0
 outer loop
  vertex 0.2825860746674778 0.07377989077470164 0.0
  vertex 0.315306992861497 0.03813210049943605 0.0
  vertex 0.26402682761769136 0.03772167958759229 0.0
 endloop
endfacet
facet normal 0.0 0.0 -1.0
 outer loop
  vertex 0.8121215882688018 0.23765875053740154 0.0
  vertex 0.8041904259944692 0.2732194570611582 0.0
  vertex 0.8364930515704274 0.26670244810358534 0.0
 endloop
endfacet
facet normal 0.0 0.0 -1.0
 outer loop
  vertex 0.0 0.1615074374999158 0.0
  vertex 0.020492374999968286 0.16837350000007367 0.0
  vertex 0.016347472921594535 0.14673063904940503 0.0
 endloop
endfacet
facet normal 0.0 0.0 -1.0
 outer loop
  vertex 0.9170011253626079 0.25354700460338747 0.0
  vertex 0.9614602892456356 0.24544512786397735 0.0
  vertex 0.9305777119409561 0.22169726506027532 0.0
 endloop
endfacet
facet normal 0.0 0.0 -1.0
 outer loop
  vertex 0.21399872325812308 0.044090912815760344 0.0
  vertex 0.24239020586324891 0.07362322562022719 0.0
  vertex 0.26402682761769136 0.03772167958759229 0.0
 endloop
endfacet
facet normal 0.0 0.0 -1.0
 outer loop
  vertex 0.9543386327114424 0.18980783489656064 0.0
  vertex 0.9158439372360134 0.1950777345620558 0.0
  vertex 0.9305777119409561 0.22169726506027532 0.0
 endloop
endfacet
facet normal 0.0 0.0 -1.0
 outer loop
  vertex 0.24239020586324891 0.07362322562022719 0.0
  vertex 0.2825860746674778 0.07377989077470164 0.0
  vertex 0.26402682761769136 0.03772167958759229 0.0
 endloop
endfacet
facet normal 0.0 0.0 -1.0
 outer loop
  vertex 0.9427226666667823 0.0 0.0
  vertex 0.9288836294186116 0.039358245090581855 0.0
  vertex 0.9650236826508091 0.034711440684858944 0.0
 endloop
endfacet
facet normal 0.0 0.0 -1.0
 outer loop
  vertex 0.0 0.21534325 0.0
  vertex 0.006068 0.20188125 0.0
  vertex 0.0 0.1615074374999158 0.0
 endloop
endfacet
facet normal 0.0 0.0 -1.0
 outer loop
  vertex 0.716332 0.3512995 0.0
  vertex 0.775642624999913 0.3488736250000036 0.0
  vertex 0.7440341250000255 0.3222194999999732 0.0
 endloop
endfacet
facet normal 0.0 0.0 -1.0
 outer loop
  vertex 0.0 0.10767162499970419 0.0
  vertex 0.0 0.1615074374999158 0.0
  vertex 0.016347472921594535 0.14673063904940503 0.0
 endloop
endfacet
facet normal 0.0 -0.0 -1.0
 outer loop
  vertex 0.006068 0.20188125 0.0
  vertex 0.020492374999968286 0.16837350000007367 0.0
  vertex 0.0 0.1615074374999158 0.0
 endloop
endfacet
facet normal 0.0 0.0 -1.0
 outer loop
  vertex 0.6492535833331887 0.1218055000000028 0.0
  vertex 0.7075775 0.120675 0.0
  vertex 0.7008634892641379 0.08632837567750266 0.0
 endloop
endfacet
endsolid
