  0
SECTION
  2
HEADER
  9
$ACADVER
  1
AC1027
  9
$ACADMAINTVER
 70
105
  9
$DWGCODEPAGE
  3
ANSI_1252
  9
$LASTSAVEDBY
  1
ezdxf
  9
$REQUIREDVERSIONS
160
0
  9
$INSBASE
 10
0.0
 20
0.0
 30
0.0
  9
$EXTMIN
 10
-100
 20
-100
 30
-100
  9
$EXTMAX
 10
100
 20
100
 30
100
  9
$LIMMIN
 10
0.0
 20
0.0
  9
$LIMMAX
 10
420.0
 20
297.0
  9
$ORTHOMODE
 70
0
  9
$REGENMODE
 70
1
  9
$FILLMODE
 70
1
  9
$QTEXTMODE
 70
0
  9
$MIRRTEXT
 70
1
  9
$LTSCALE
 40
1.0
  9
$ATTMODE
 70
1
  9
$TEXTSIZE
 40
2.5
  9
$TRACEWID
 40
1.0
  9
$TEXTSTYLE
  7
Standard
  9
$CLAYER
  8
0
  9
$CELTYPE
  6
ByLayer
  9
$CECOLOR
 62
256
  9
$CELTSCALE
 40
1.0
  9
$DISPSILH
 70
0
  9
$DIMSCALE
 40
1.0
  9
$DIMASZ
 40
2.5
  9
$DIMEXO
 40
0.625
  9
$DIMDLI
 40
3.75
  9
$DIMRND
 40
0.0
  9
$DIMDLE
 40
0.0
  9
$DIMEXE
 40
1.25
  9
$DIMTP
 40
0.0
  9
$DIMTM
 40
0.0
  9
$DIMTXT
 40
2.5
  9
$DIMCEN
 40
2.5
  9
$DIMTSZ
 40
0.0
  9
$DIMTOL
 70
0
  9
$DIMLIM
 70
0
  9
$DIMTIH
 70
0
  9
$DIMTOH
 70
0
  9
$DIMSE1
 70
0
  9
$DIMSE2
 70
0
  9
$DIMTAD
 70
1
  9
$DIMZIN
 70
8
  9
$DIMBLK
  1

  9
$DIMASO
 70
1
  9
$DIMSHO
 70
1
  9
$DIMPOST
  1

  9
$DIMAPOST
  1

  9
$DIMALT
 70
0
  9
$DIMALTD
 70
3
  9
$DIMALTF
 40
0.03937007874
  9
$DIMLFAC
 40
1.0
  9
$DIMTOFL
 70
1
  9
$DIMTVP
 40
0.0
  9
$DIMTIX
 70
0
  9
$DIMSOXD
 70
0
  9
$DIMSAH
 70
0
  9
$DIMBLK1
  1

  9
$DIMBLK2
  1

  9
$DIMSTYLE
  2
ISO-25
  9
$DIMCLRD
 70
0
  9
$DIMCLRE
 70
0
  9
$DIMCLRT
 70
0
  9
$DIMTFAC
 40
1.0
  9
$DIMGAP
 40
0.625
  9
$DIMJUST
 70
0
  9
$DIMSD1
 70
0
  9
$DIMSD2
 70
0
  9
$DIMTOLJ
 70
0
  9
$DIMTZIN
 70
8
  9
$DIMALTZ
 70
0
  9
$DIMALTTZ
 70
0
  9
$DIMUPT
 70
0
  9
$DIMDEC
 70
2
  9
$DIMTDEC
 70
2
  9
$DIMALTU
 70
2
  9
$DIMALTTD
 70
3
  9
$DIMTXSTY
  7
Standard
  9
$DIMAUNIT
 70
0
  9
$DIMADEC
 70
0
  9
$DIMALTRND
 40
0.0
  9
$DIMAZIN
 70
0
  9
$DIMDSEP
 70
44
  9
$DIMATFIT
 70
3
  9
$DIMFRAC
 70
0
  9
$DIMLDRBLK
  1

  9
$DIMLUNIT
 70
2
  9
$DIMLWD
 70
-2
  9
$DIMLWE
 70
-2
  9
$DIMTMOVE
 70
0
  9
$DIMFXL
 40
1.0
  9
$DIMFXLON
 70
0
  9
$DIMJOGANG
 40
0.785398163397
  9
$DIMTFILL
 70
0
  9
$DIMTFILLCLR
 70
0
  9
$DIMARCSYM
 70
0
  9
$DIMLTYPE
  6

  9
$DIMLTEX1
  6

  9
$DIMLTEX2
  6

  9
$DIMTXTDIRECTION
 70
0
  9
$LUNITS
 70
2
  9
$LUPREC
 70
4
  9
$SKETCHINC
 40
1.0
  9
$FILLETRAD
 40
10.0
  9
$AUNITS
 70
0
  9
$AUPREC
 70
2
  9
$MENU
  1
.
  9
$ELEVATION
 40
0.0
  9
$PELEVATION
 40
0.0
  9
$THICKNESS
 40
0.0
  9
$LIMCHECK
 70
0
  9
$CHAMFERA
 40
0.0
  9
$CHAMFERB
 40
0.0
  9
$CHAMFERC
 40
0.0
  9
$CHAMFERD
 40
0.0
  9
$SKPOLY
 70
0
  9
$TDCREATE
 40
2459693.900185185
  9
$TDUCREATE
 40
2458532.153996898
  9
$TDUPDATE
 40
2459693.9002430555
  9
$TDUUPDATE
 40
2458532.1544311
  9
$TDINDWG
 40
0.0
  9
$TDUSRTIMER
 40
0.0
  9
$USRTIMER
 70
1
  9
$ANGBASE
 50
0.0
  9
$ANGDIR
 70
0
  9
$PDMODE
 70
0
  9
$PDSIZE
 40
0.0
  9
$PLINEWID
 40
0.0
  9
$SPLFRAME
 70
0
  9
$SPLINETYPE
 70
6
  9
$SPLINESEGS
 70
8
  9
$HANDSEED
  5
372
  9
$SURFTAB1
 70
6
  9
$SURFTAB2
 70
6
  9
$SURFTYPE
 70
6
  9
$SURFU
 70
6
  9
$SURFV
 70
6
  9
$UCSBASE
  2

  9
$UCSNAME
  2

  9
$UCSORG
 10
0.0
 20
0.0
 30
0.0
  9
$UCSXDIR
 10
1.0
 20
0.0
 30
0.0
  9
$UCSYDIR
 10
0.0
 20
1.0
 30
0.0
  9
$UCSORTHOREF
  2

  9
$UCSORTHOVIEW
 70
0
  9
$UCSORGTOP
 10
0.0
 20
0.0
 30
0.0
  9
$UCSORGBOTTOM
 10
0.0
 20
0.0
 30
0.0
  9
$UCSORGLEFT
 10
0.0
 20
0.0
 30
0.0
  9
$UCSORGRIGHT
 10
0.0
 20
0.0
 30
0.0
  9
$UCSORGFRONT
 10
0.0
 20
0.0
 30
0.0
  9
$UCSORGBACK
 10
0.0
 20
0.0
 30
0.0
  9
$PUCSBASE
  2

  9
$PUCSNAME
  2

  9
$PUCSORG
 10
0.0
 20
0.0
 30
0.0
  9
$PUCSXDIR
 10
1.0
 20
0.0
 30
0.0
  9
$PUCSYDIR
 10
0.0
 20
1.0
 30
0.0
  9
$PUCSORTHOREF
  2

  9
$PUCSORTHOVIEW
 70
0
  9
$PUCSORGTOP
 10
0.0
 20
0.0
 30
0.0
  9
$PUCSORGBOTTOM
 10
0.0
 20
0.0
 30
0.0
  9
$PUCSORGLEFT
 10
0.0
 20
0.0
 30
0.0
  9
$PUCSORGRIGHT
 10
0.0
 20
0.0
 30
0.0
  9
$PUCSORGFRONT
 10
0.0
 20
0.0
 30
0.0
  9
$PUCSORGBACK
 10
0.0
 20
0.0
 30
0.0
  9
$USERI1
 70
0
  9
$USERI2
 70
0
  9
$USERI3
 70
0
  9
$USERI4
 70
0
  9
$USERI5
 70
0
  9
$USERR1
 40
0.0
  9
$USERR2
 40
0.0
  9
$USERR3
 40
0.0
  9
$USERR4
 40
0.0
  9
$USERR5
 40
0.0
  9
$WORLDVIEW
 70
1
  9
$SHADEDGE
 70
3
  9
$SHADEDIF
 70
70
  9
$TILEMODE
 70
1
  9
$MAXACTVP
 70
64
  9
$PINSBASE
 10
0.0
 20
0.0
 30
0.0
  9
$PLIMCHECK
 70
0
  9
$PEXTMIN
 10
1e+20
 20
1e+20
 30
1e+20
  9
$PEXTMAX
 10
-1e+20
 20
-1e+20
 30
-1e+20
  9
$PLIMMIN
 10
0.0
 20
0.0
  9
$PLIMMAX
 10
420.0
 20
297.0
  9
$UNITMODE
 70
0
  9
$VISRETAIN
 70
1
  9
$PLINEGEN
 70
0
  9
$PSLTSCALE
 70
1
  9
$TREEDEPTH
 70
3020
  9
$CMLSTYLE
  2
Standard
  9
$CMLJUST
 70
0
  9
$CMLSCALE
 40
20.0
  9
$PROXYGRAPHICS
 70
1
  9
$MEASUREMENT
 70
1
  9
$CELWEIGHT
370
-1
  9
$ENDCAPS
280
0
  9
$JOINSTYLE
280
0
  9
$LWDISPLAY
290
0
  9
$INSUNITS
 70
6
  9
$HYPERLINKBASE
  1

  9
$STYLESHEET
  1

  9
$XEDIT
290
1
  9
$CEPSNTYPE
380
0
  9
$PSTYLEMODE
290
1
  9
$FINGERPRINTGUID
  2
06017AE5-C345-11EC-B4F7-80FA5B45A589
  9
$VERSIONGUID
  2
092865AE-C345-11EC-868C-80FA5B45A589
  9
$EXTNAMES
290
1
  9
$PSVPSCALE
 40
0.0
  9
$OLESTARTUP
290
0
  9
$SORTENTS
280
127
  9
$INDEXCTL
280
0
  9
$HIDETEXT
280
1
  9
$XCLIPFRAME
280
2
  9
$HALOGAP
280
0
  9
$OBSCOLOR
 70
257
  9
$OBSLTYPE
280
0
  9
$INTERSECTIONDISPLAY
280
0
  9
$INTERSECTIONCOLOR
 70
257
  9
$DIMASSOC
280
2
  9
$PROJECTNAME
  1

  9
$CAMERADISPLAY
290
0
  9
$LENSLENGTH
 40
50.0
  9
$CAMERAHEIGHT
 40
0.0
  9
$STEPSPERSEC
 40
24.0
  9
$STEPSIZE
 40
100.0
  9
$3DDWFPREC
 40
2.0
  9
$PSOLWIDTH
 40
0.005
  9
$PSOLHEIGHT
 40
0.08
  9
$LOFTANG1
 40
1.570796326795
  9
$LOFTANG2
 40
1.570796326795
  9
$LOFTMAG1
 40
0.0
  9
$LOFTMAG2
 40
0.0
  9
$LOFTPARAM
 70
7
  9
$LOFTNORMALS
280
1
  9
$LATITUDE
 40
37.795
  9
$LONGITUDE
 40
-122.394
  9
$NORTHDIRECTION
 40
0.0
  9
$TIMEZONE
 70
-8000
  9
$LIGHTGLYPHDISPLAY
280
1
  9
$TILEMODELIGHTSYNCH
280
1
  9
$CMATERIAL
347
20
  9
$SOLIDHIST
280
0
  9
$SHOWHIST
280
1
  9
$DWFFRAME
280
2
  9
$DGNFRAME
280
2
  9
$REALWORLDSCALE
290
1
  9
$INTERFERECOLOR
 62
256
  9
$CSHADOW
280
0
  9
$SHADOWPLANELOCATION
 40
0.0
  0
ENDSEC
  0
SECTION
  2
CLASSES
  0
CLASS
  1
ACDBDICTIONARYWDFLT
  2
AcDbDictionaryWithDefault
  3
ObjectDBX Classes
 90
0
 91
0
280
0
281
0
  0
CLASS
  1
SUN
  2
AcDbSun
  3
SCENEOE
 90
1153
 91
0
280
0
281
0
  0
CLASS
  1
VISUALSTYLE
  2
AcDbVisualStyle
  3
ObjectDBX Classes
 90
4095
 91
0
280
0
281
0
  0
CLASS
  1
MATERIAL
  2
AcDbMaterial
  3
ObjectDBX Classes
 90
1153
 91
0
280
0
281
0
  0
CLASS
  1
SCALE
  2
AcDbScale
  3
ObjectDBX Classes
 90
1153
 91
0
280
0
281
0
  0
CLASS
  1
TABLESTYLE
  2
AcDbTableStyle
  3
ObjectDBX Classes
 90
4095
 91
0
280
0
281
0
  0
CLASS
  1
MLEADERSTYLE
  2
AcDbMLeaderStyle
  3
ACDB_MLEADERSTYLE_CLASS
 90
4095
 91
0
280
0
281
0
  0
CLASS
  1
DICTIONARYVAR
  2
AcDbDictionaryVar
  3
ObjectDBX Classes
 90
0
 91
0
280
0
281
0
  0
CLASS
  1
CELLSTYLEMAP
  2
AcDbCellStyleMap
  3
ObjectDBX Classes
 90
1152
 91
0
280
0
281
0
  0
CLASS
  1
MENTALRAYRENDERSETTINGS
  2
AcDbMentalRayRenderSettings
  3
SCENEOE
 90
1024
 91
0
280
0
281
0
  0
CLASS
  1
ACDBDETAILVIEWSTYLE
  2
AcDbDetailViewStyle
  3
ObjectDBX Classes
 90
1025
 91
0
280
0
281
0
  0
CLASS
  1
ACDBSECTIONVIEWSTYLE
  2
AcDbSectionViewStyle
  3
ObjectDBX Classes
 90
1025
 91
0
280
0
281
0
  0
CLASS
  1
RASTERVARIABLES
  2
AcDbRasterVariables
  3
ISM
 90
0
 91
0
280
0
281
0
  0
CLASS
  1
ACDBPLACEHOLDER
  2
AcDbPlaceHolder
  3
ObjectDBX Classes
 90
0
 91
0
280
0
281
0
  0
CLASS
  1
LAYOUT
  2
AcDbLayout
  3
ObjectDBX Classes
 90
0
 91
0
280
0
281
0
  0
ENDSEC
  0
SECTION
  2
TABLES
  0
TABLE
  2
VPORT
  5
8
330
0
100
AcDbSymbolTable
 70
1
  0
VPORT
  5
371
330
8
100
AcDbSymbolTableRecord
100
AcDbViewportTableRecord
  2
*Active
 70
0
 10
0.0
 20
0.0
 11
1.0
 21
1.0
 12
1800.0
 22
900.0
 13
0.0
 23
0.0
 14
0.5
 24
0.5
 15
0.5
 25
0.5
 16
0.0
 26
0.0
 36
1.0
 17
0.0
 27
0.0
 37
0.0
 40
2300.0
 41
1.34
 42
50.0
 43
0.0
 44
0.0
 50
0.0
 51
0.0
 71
0
 72
1000
 73
1
 74
3
 75
0
 76
0
 77
0
 78
0
281
0
 65
0
146
0.0
  0
ENDTAB
  0
TABLE
  2
LTYPE
  5
2
330
0
100
AcDbSymbolTable
 70
3
  0
LTYPE
  5
24
330
2
100
AcDbSymbolTableRecord
100
AcDbLinetypeTableRecord
  2
ByBlock
 70
0
  3

 72
65
 73
0
 40
0.0
  0
LTYPE
  5
25
330
2
100
AcDbSymbolTableRecord
100
AcDbLinetypeTableRecord
  2
ByLayer
 70
0
  3

 72
65
 73
0
 40
0.0
  0
LTYPE
  5
26
330
2
100
AcDbSymbolTableRecord
100
AcDbLinetypeTableRecord
  2
Continuous
 70
0
  3

 72
65
 73
0
 40
0.0
  0
ENDTAB
  0
TABLE
  2
LAYER
  5
1
330
0
100
AcDbSymbolTable
 70
6
  0
LAYER
  5
27
330
1
100
AcDbSymbolTableRecord
100
AcDbLayerTableRecord
  2
0
 70
0
 62
7
  6
Continuous
370
-3
390
13
347
21
  0
LAYER
  5
28
330
1
100
AcDbSymbolTableRecord
100
AcDbLayerTableRecord
  2
Defpoints
 70
0
 62
7
  6
Continuous
290
0
370
-3
390
13
347
21
  0
LAYER
  5
2D
330
1
100
AcDbSymbolTableRecord
100
AcDbLayerTableRecord
  2
1
 70
0
 62
1
  6
Continuous
370
-3
390
13
347
21
  0
LAYER
  5
2E
330
1
100
AcDbSymbolTableRecord
100
AcDbLayerTableRecord
  2
8
 70
0
 62
4
  6
Continuous
370
-3
390
13
347
21
  0
LAYER
  5
2F
330
1
100
AcDbSymbolTableRecord
100
AcDbLayerTableRecord
  2
11
 70
0
 62
3
  6
Continuous
370
-3
390
13
347
21
  0
LAYER
  5
30
330
1
100
AcDbSymbolTableRecord
100
AcDbLayerTableRecord
  2
21
 70
0
 62
21
  6
Continuous
370
-3
390
13
347
21
  0
ENDTAB
  0
TABLE
  2
STYLE
  5
5
330
0
100
AcDbSymbolTable
 70
1
  0
STYLE
  5
29
330
5
100
AcDbSymbolTableRecord
100
AcDbTextStyleTableRecord
  2
Standard
 70
0
 40
0.0
 41
1.0
 50
0.0
 71
0
 42
2.5
  3
txt
  4

  0
ENDTAB
  0
TABLE
  2
VIEW
  5
7
330
0
100
AcDbSymbolTable
 70
0
  0
ENDTAB
  0
TABLE
  2
UCS
  5
6
330
0
100
AcDbSymbolTable
 70
0
  0
ENDTAB
  0
TABLE
  2
APPID
  5
3
330
0
100
AcDbSymbolTable
 70
1
  0
APPID
  5
2A
330
3
100
AcDbSymbolTableRecord
100
AcDbRegAppTableRecord
  2
ACAD
 70
0
  0
ENDTAB
  0
TABLE
  2
DIMSTYLE
  5
4
330
0
100
AcDbSymbolTable
 70
1
100
AcDbDimStyleTable
  0
DIMSTYLE
105
2B
330
4
100
AcDbSymbolTableRecord
100
AcDbDimStyleTableRecord
  2
Standard
 70
0
 40
1.0
 41
2.5
 42
0.625
 43
3.75
 44
1.25
 45
0.0
 46
0.0
 47
0.0
 48
0.0
 49
2.5
140
2.5
141
2.5
142
0.0
143
0.03937007874
144
1.0
145
0.0
146
1.0
147
0.625
148
0.0
 69
0
 70
0
 71
0
 72
0
 73
0
 74
0
 75
0
 76
0
 77
1
 78
8
 79
0
170
0
171
3
172
1
173
0
174
0
175
0
176
0
177
0
178
0
179
0
271
0
272
2
273
2
274
3
275
0
276
0
277
2
278
44
279
0
280
0
281
0
282
0
283
0
284
8
285
0
286
0
288
0
289
3
290
0
371
-2
372
-2
  0
ENDTAB
  0
TABLE
  2
BLOCK_RECORD
  5
9
330
0
100
AcDbSymbolTable
 70
5
  0
BLOCK_RECORD
  5
17
330
9
100
AcDbSymbolTableRecord
100
AcDbBlockTableRecord
  2
*Model_Space
340
1A
 70
0
280
1
281
1
  0
BLOCK_RECORD
  5
1B
330
9
100
AcDbSymbolTableRecord
100
AcDbBlockTableRecord
  2
*Paper_Space
340
1E
 70
0
280
1
281
1
  0
BLOCK_RECORD
  5
31
330
9
100
AcDbSymbolTableRecord
100
AcDbBlockTableRecord
  2
TS
340
0
 70
0
280
1
281
1
  0
BLOCK_RECORD
  5
183
330
9
100
AcDbSymbolTableRecord
100
AcDbBlockTableRecord
  2
LEM
340
0
 70
0
280
1
281
1
  0
BLOCK_RECORD
  5
2B3
330
9
100
AcDbSymbolTableRecord
100
AcDbBlockTableRecord
  2
US
340
0
 70
0
280
1
281
1
  0
ENDTAB
  0
ENDSEC
  0
SECTION
  2
BLOCKS
  0
BLOCK
  5
18
330
17
100
AcDbEntity
  8
0
100
AcDbBlockBegin
  2
*Model_Space
 70
0
 10
0.0
 20
0.0
 30
0.0
  3
*Model_Space
  1

  0
ENDBLK
  5
19
330
17
100
AcDbEntity
  8
0
100
AcDbBlockEnd
  0
BLOCK
  5
1C
330
1B
100
AcDbEntity
  8
0
100
AcDbBlockBegin
  2
*Paper_Space
 70
0
 10
0.0
 20
0.0
 30
0.0
  3
*Paper_Space
  1

  0
ENDBLK
  5
1D
330
1B
100
AcDbEntity
  8
0
100
AcDbBlockEnd
  0
BLOCK
  5
32
330
31
100
AcDbEntity
  8
0
100
AcDbBlockBegin
  2
TS
 70
0
 10
0.0
 20
0.0
 30
0.0
  3
TS
  1

  0
POLYLINE
  5
34
330
31
100
AcDbEntity
  8
1
100
AcDb2dPolyline
 66
1
 70
0
  0
VERTEX
  5
36
330
31
100
AcDbEntity
  8
1
100
AcDbVertex
100
AcDb2dVertex
 10
415.50653076171875
 20
-337.41758728027344
 30
0.0
 70
0
  0
VERTEX
  5
37
330
31
100
AcDbEntity
  8
1
100
AcDbVertex
100
AcDb2dVertex
 10
335.24359130859375
 20
-356.13182067871094
 30
0.0
 70
0
  0
VERTEX
  5
38
330
31
100
AcDbEntity
  8
1
100
AcDbVertex
100
AcDb2dVertex
 10
255.80950927734375
 20
-376.45375061035156
 30
0.0
 70
0
  0
VERTEX
  5
39
330
31
100
AcDbEntity
  8
1
100
AcDbVertex
100
AcDb2dVertex
 10
234.80401611328125
 20
-379.3439483642578
 30
0.0
 70
0
  0
VERTEX
  5
3A
330
31
100
AcDbEntity
  8
1
100
AcDbVertex
100
AcDb2dVertex
 10
148.52716064453125
 20
-386.60340881347656
 30
0.0
 70
0
  0
VERTEX
  5
3B
330
31
100
AcDbEntity
  8
1
100
AcDbVertex
100
AcDb2dVertex
 10
84.19378662109375
 20
-392.76365661621094
 30
0.0
 70
0
  0
VERTEX
  5
3C
330
31
100
AcDbEntity
  8
1
100
AcDbVertex
100
AcDb2dVertex
 10
20.18475341796875
 20
-399.5467224121094
 30
0.0
 70
0
  0
VERTEX
  5
3D
330
31
100
AcDbEntity
  8
1
100
AcDbVertex
100
AcDb2dVertex
 10
-43.49298095703125
 20
-406.96604919433594
 30
0.0
 70
0
  0
VERTEX
  5
3E
330
31
100
AcDbEntity
  8
1
100
AcDbVertex
100
AcDb2dVertex
 10
-106.83404541015625
 20
-415.0295715332031
 30
0.0
 70
0
  0
VERTEX
  5
3F
330
31
100
AcDbEntity
  8
1
100
AcDbVertex
100
AcDb2dVertex
 10
-169.83306884765625
 20
-423.7469177246094
 30
0.0
 70
0
  0
VERTEX
  5
40
330
31
100
AcDbEntity
  8
1
100
AcDbVertex
100
AcDb2dVertex
 10
-232.48175048828125
 20
-433.1346893310547
 30
0.0
 70
0
  0
VERTEX
  5
41
330
31
100
AcDbEntity
  8
1
100
AcDbVertex
100
AcDb2dVertex
 10
-294.77386474609375
 20
-443.1979217529297
 30
0.0
 70
0
  0
VERTEX
  5
42
330
31
100
AcDbEntity
  8
1
100
AcDbVertex
100
AcDb2dVertex
 10
-356.70166015625
 20
-453.95506286621094
 30
0.0
 70
0
  0
VERTEX
  5
43
330
31
100
AcDbEntity
  8
1
100
AcDbVertex
100
AcDb2dVertex
 10
-397.78125
 20
-461.51470947265625
 30
0.0
 70
0
  0
VERTEX
  5
44
330
31
100
AcDbEntity
  8
1
100
AcDbVertex
100
AcDb2dVertex
 10
-459.08538818359375
 20
-473.4508361816406
 30
0.0
 70
0
  0
VERTEX
  5
45
330
31
100
AcDbEntity
  8
1
100
AcDbVertex
100
AcDb2dVertex
 10
-520.0518798828125
 20
-486.0367736816406
 30
0.0
 70
0
  0
VERTEX
  5
46
330
31
100
AcDbEntity
  8
1
100
AcDbVertex
100
AcDb2dVertex
 10
-622.5496826171875
 20
-505.4283905029297
 30
0.0
 70
0
  0
VERTEX
  5
47
330
31
100
AcDbEntity
  8
1
100
AcDbVertex
100
AcDb2dVertex
 10
-703.8742065429688
 20
-522.2213363647461
 30
0.0
 70
0
  0
VERTEX
  5
48
330
31
100
AcDbEntity
  8
1
100
AcDbVertex
100
AcDb2dVertex
 10
-784.5917358398438
 20
-540.1700286865234
 30
0.0
 70
0
  0
VERTEX
  5
49
330
31
100
AcDbEntity
  8
1
100
AcDbVertex
100
AcDb2dVertex
 10
-844.7289428710938
 20
-554.400260925293
 30
0.0
 70
0
  0
VERTEX
  5
4A
330
31
100
AcDbEntity
  8
1
100
AcDbVertex
100
AcDb2dVertex
 10
-904.517822265625
 20
-569.2913436889648
 30
0.0
 70
0
  0
VERTEX
  5
4B
330
31
100
AcDbEntity
  8
1
100
AcDbVertex
100
AcDb2dVertex
 10
-1003.3794250488281
 20
-595.6054153442383
 30
0.0
 70
0
  0
VERTEX
  5
4C
330
31
100
AcDbEntity
  8
1
100
AcDbVertex
100
AcDb2dVertex
 10
-1062.2185363769531
 20
-612.3011982440948
 30
0.0
 70
0
  0
VERTEX
  5
4D
330
31
100
AcDbEntity
  8
1
100
AcDbVertex
100
AcDb2dVertex
 10
-1120.6952514648438
 20
-629.6807441711426
 30
0.0
 70
0
  0
VERTEX
  5
4E
330
31
100
AcDbEntity
  8
1
100
AcDbVertex
100
AcDb2dVertex
 10
-1236.7195281982422
 20
-666.1931266784668
 30
0.0
 70
0
  0
VERTEX
  5
4F
330
31
100
AcDbEntity
  8
1
100
AcDbVertex
100
AcDb2dVertex
 10
-1297.5949630737305
 20
-679.0603713989258
 30
0.0
 70
0
  0
VERTEX
  5
50
330
31
100
AcDbEntity
  8
1
100
AcDbVertex
100
AcDb2dVertex
 10
-1357.6125144958496
 20
-693.5427169799805
 30
0.0
 70
0
  0
VERTEX
  5
51
330
31
100
AcDbEntity
  8
1
100
AcDbVertex
100
AcDb2dVertex
 10
-1416.7197532653809
 20
-709.7377700805664
 30
0.0
 70
0
  0
VERTEX
  5
52
330
31
100
AcDbEntity
  8
1
100
AcDbVertex
100
AcDb2dVertex
 10
-1455.5891189575195
 20
-721.5387725830078
 30
0.0
 70
0
  0
VERTEX
  5
53
330
31
100
AcDbEntity
  8
1
100
AcDbVertex
100
AcDb2dVertex
 10
-1494.0090637207031
 20
-734.1818771362305
 30
0.0
 70
0
  0
VERTEX
  5
54
330
31
100
AcDbEntity
  8
1
100
AcDbVertex
100
AcDb2dVertex
 10
-1531.957504272461
 20
-747.7079010009766
 30
0.0
 70
0
  0
VERTEX
  5
55
330
31
100
AcDbEntity
  8
1
100
AcDbVertex
100
AcDb2dVertex
 10
-1569.4124298095703
 20
-762.1570892333984
 30
0.0
 70
0
  0
VERTEX
  5
56
330
31
100
AcDbEntity
  8
1
100
AcDbVertex
100
AcDb2dVertex
 10
-1587.9481353759766
 20
-769.7395324707031
 30
0.0
 70
0
  0
VERTEX
  5
57
330
31
100
AcDbEntity
  8
1
100
AcDbVertex
100
AcDb2dVertex
 10
-1624.6173248291016
 20
-785.6553344726562
 30
0.0
 70
0
  0
VERTEX
  5
58
330
31
100
AcDbEntity
  8
1
100
AcDbVertex
100
AcDb2dVertex
 10
-1657.3052978515625
 20
-800.9434661865234
 30
0.0
 70
0
  0
VERTEX
  5
59
330
31
100
AcDbEntity
  8
1
100
AcDbVertex
100
AcDb2dVertex
 10
-1696.2545776367188
 20
-820.6588745117188
 30
0.0
 70
0
  0
VERTEX
  5
5A
330
31
100
AcDbEntity
  8
1
100
AcDbVertex
100
AcDb2dVertex
 10
-1723.0082092285156
 20
-835.1172027587891
 30
0.0
 70
0
  0
VERTEX
  5
5B
330
31
100
AcDbEntity
  8
1
100
AcDbVertex
100
AcDb2dVertex
 10
-1726.12890625
 20
-835.3748779296875
 30
0.0
 70
0
  0
VERTEX
  5
5C
330
31
100
AcDbEntity
  8
1
100
AcDbVertex
100
AcDb2dVertex
 10
-1727.6973266601562
 20
-834.888671875
 30
0.0
 70
0
  0
VERTEX
  5
5D
330
31
100
AcDbEntity
  8
1
100
AcDbVertex
100
AcDb2dVertex
 10
-1730.1935424804688
 20
-832.7993774414062
 30
0.0
 70
0
  0
VERTEX
  5
5E
330
31
100
AcDbEntity
  8
1
100
AcDbVertex
100
AcDb2dVertex
 10
-1733.2030944824219
 20
-827.2781829833984
 30
0.0
 70
0
  0
VERTEX
  5
5F
330
31
100
AcDbEntity
  8
1
100
AcDbVertex
100
AcDb2dVertex
 10
-1903.256591796875
 20
-509.59461212158203
 30
0.0
 70
0
  0
VERTEX
  5
60
330
31
100
AcDbEntity
  8
1
100
AcDbVertex
100
AcDb2dVertex
 10
-1992.4137573242188
 20
-340.9898223876953
 30
0.0
 70
0
  0
VERTEX
  5
61
330
31
100
AcDbEntity
  8
1
100
AcDbVertex
100
AcDb2dVertex
 10
-2095.6793212890625
 20
-143.78733825683594
 30
0.0
 70
0
  0
VERTEX
  5
62
330
31
100
AcDbEntity
  8
1
100
AcDbVertex
100
AcDb2dVertex
 10
-2095.9644775390625
 20
-140.9149932861328
 30
0.0
 70
0
  0
VERTEX
  5
63
330
31
100
AcDbEntity
  8
1
100
AcDbVertex
100
AcDb2dVertex
 10
-2094.9318237304688
 20
-138.22071838378906
 30
0.0
 70
0
  0
VERTEX
  5
64
330
31
100
AcDbEntity
  8
1
100
AcDbVertex
100
AcDb2dVertex
 10
-2093.9837646484375
 20
-137.1255340576172
 30
0.0
 70
0
  0
VERTEX
  5
65
330
31
100
AcDbEntity
  8
1
100
AcDbVertex
100
AcDb2dVertex
 10
-2084.5484008789062
 20
-131.12327575683594
 30
0.0
 70
0
  0
VERTEX
  5
66
330
31
100
AcDbEntity
  8
1
100
AcDbVertex
100
AcDb2dVertex
 10
-2069.4808349609375
 20
-116.83515930175781
 30
0.0
 70
0
  0
VERTEX
  5
67
330
31
100
AcDbEntity
  8
1
100
AcDbVertex
100
AcDb2dVertex
 10
-2065.8970336914062
 20
-111.97257995605469
 30
0.0
 70
0
  0
VERTEX
  5
68
330
31
100
AcDbEntity
  8
1
100
AcDbVertex
100
AcDb2dVertex
 10
-2057.700927734375
 20
-96.25294494628906
 30
0.0
 70
0
  0
VERTEX
  5
69
330
31
100
AcDbEntity
  8
1
100
AcDbVertex
100
AcDb2dVertex
 10
-2056.071044921875
 20
-91.57484436035156
 30
0.0
 70
0
  0
VERTEX
  5
6A
330
31
100
AcDbEntity
  8
1
100
AcDbVertex
100
AcDb2dVertex
 10
-2052.694091796875
 20
-72.48896789550781
 30
0.0
 70
0
  0
VERTEX
  5
6B
330
31
100
AcDbEntity
  8
1
100
AcDbVertex
100
AcDb2dVertex
 10
-2052.84130859375
 20
-62.42982482910156
 30
0.0
 70
0
  0
VERTEX
  5
6C
330
31
100
AcDbEntity
  8
1
100
AcDbVertex
100
AcDb2dVertex
 10
-2053.929443359375
 20
-54.31391906738281
 30
0.0
 70
0
  0
VERTEX
  5
6D
330
31
100
AcDbEntity
  8
1
100
AcDbVertex
100
AcDb2dVertex
 10
-2059.3757934570312
 20
-36.90180969238281
 30
0.0
 70
0
  0
VERTEX
  5
6E
330
31
100
AcDbEntity
  8
1
100
AcDbVertex
100
AcDb2dVertex
 10
-2069.5072631835938
 20
-20.321243286132812
 30
0.0
 70
0
  0
VERTEX
  5
6F
330
31
100
AcDbEntity
  8
1
100
AcDbVertex
100
AcDb2dVertex
 10
-2080.6907958984375
 20
-9.033523559570312
 30
0.0
 70
0
  0
VERTEX
  5
70
330
31
100
AcDbEntity
  8
1
100
AcDbVertex
100
AcDb2dVertex
 10
-2086.30517578125
 20
-4.8626251220703125
 30
0.0
 70
0
  0
VERTEX
  5
71
330
31
100
AcDbEntity
  8
1
100
AcDbVertex
100
AcDb2dVertex
 10
-2098.1713256835938
 20
1.6540985107421875
 30
0.0
 70
0
  0
VERTEX
  5
72
330
31
100
AcDbEntity
  8
1
100
AcDbVertex
100
AcDb2dVertex
 10
-2110.9993896484375
 20
5.9072723388671875
 30
0.0
 70
0
  0
VERTEX
  5
73
330
31
100
AcDbEntity
  8
1
100
AcDbVertex
100
AcDb2dVertex
 10
-2121.5518798828125
 20
7.5937347412109375
 30
0.0
 70
0
  0
VERTEX
  5
74
330
31
100
AcDbEntity
  8
1
100
AcDbVertex
100
AcDb2dVertex
 10
-2134.389892578125
 20
7.5843353271484375
 30
0.0
 70
0
  0
VERTEX
  5
75
330
31
100
AcDbEntity
  8
1
100
AcDbVertex
100
AcDb2dVertex
 10
-2154.4849853515625
 20
2.9394989013671875
 30
0.0
 70
0
  0
VERTEX
  5
76
330
31
100
AcDbEntity
  8
1
100
AcDbVertex
100
AcDb2dVertex
 10
-2165.1541137695312
 20
-1.6748809814453125
 30
0.0
 70
0
  0
VERTEX
  5
77
330
31
100
AcDbEntity
  8
1
100
AcDbVertex
100
AcDb2dVertex
 10
-2168.4534301757812
 20
-1.2689361572265625
 30
0.0
 70
0
  0
VERTEX
  5
78
330
31
100
AcDbEntity
  8
1
100
AcDbVertex
100
AcDb2dVertex
 10
-2169.9033203125
 20
-0.4256744384765625
 30
0.0
 70
0
  0
VERTEX
  5
79
330
31
100
AcDbEntity
  8
1
100
AcDbVertex
100
AcDb2dVertex
 10
-2171.51220703125
 20
1.4425506591796875
 30
0.0
 70
0
  0
VERTEX
  5
7A
330
31
100
AcDbEntity
  8
1
100
AcDbVertex
100
AcDb2dVertex
 10
-2420.4738159179688
 20
479.99253845214844
 30
0.0
 70
0
  0
VERTEX
  5
7B
330
31
100
AcDbEntity
  8
1
100
AcDbVertex
100
AcDb2dVertex
 10
-2589.9414672851562
 20
804.6391448974609
 30
0.0
 70
0
  0
VERTEX
  5
7C
330
31
100
AcDbEntity
  8
1
100
AcDbVertex
100
AcDb2dVertex
 10
-2599.2865600585938
 20
822.8989105224609
 30
0.0
 70
0
  0
VERTEX
  5
7D
330
31
100
AcDbEntity
  8
1
100
AcDbVertex
100
AcDb2dVertex
 10
-2599.5491333007812
 20
825.6102142333984
 30
0.0
 70
0
  0
VERTEX
  5
7E
330
31
100
AcDbEntity
  8
1
100
AcDbVertex
100
AcDb2dVertex
 10
-2599.2312622070312
 20
826.9433441162109
 30
0.0
 70
0
  0
VERTEX
  5
7F
330
31
100
AcDbEntity
  8
1
100
AcDbVertex
100
AcDb2dVertex
 10
-2597.7739868164062
 20
829.2497406005859
 30
0.0
 70
0
  0
VERTEX
  5
80
330
31
100
AcDbEntity
  8
1
100
AcDbVertex
100
AcDb2dVertex
 10
-2596.7037963867188
 20
830.1144866943359
 30
0.0
 70
0
  0
VERTEX
  5
81
330
31
100
AcDbEntity
  8
1
100
AcDbVertex
100
AcDb2dVertex
 10
-2595.4744262695312
 20
830.7197113037109
 30
0.0
 70
0
  0
VERTEX
  5
82
330
31
100
AcDbEntity
  8
1
100
AcDbVertex
100
AcDb2dVertex
 10
-2593.0866088867188
 20
831.0988616943359
 30
0.0
 70
0
  0
VERTEX
  5
83
330
31
100
AcDbEntity
  8
1
100
AcDbVertex
100
AcDb2dVertex
 10
-2026.4608764648438
 20
835.4377288818359
 30
0.0
 70
0
  0
VERTEX
  5
84
330
31
100
AcDbEntity
  8
1
100
AcDbVertex
100
AcDb2dVertex
 10
-1215.033706665039
 20
830.7566986083984
 30
0.0
 70
0
  0
VERTEX
  5
85
330
31
100
AcDbEntity
  8
1
100
AcDbVertex
100
AcDb2dVertex
 10
65.32769775390625
 20
793.3787689208984
 30
0.0
 70
0
  0
VERTEX
  5
86
330
31
100
AcDbEntity
  8
1
100
AcDbVertex
100
AcDb2dVertex
 10
1234.9732055664062
 20
759.9108734130859
 30
0.0
 70
0
  0
VERTEX
  5
87
330
31
100
AcDbEntity
  8
1
100
AcDbVertex
100
AcDb2dVertex
 10
1962.0403442382812
 20
751.7205657958984
 30
0.0
 70
0
  0
VERTEX
  5
88
330
31
100
AcDbEntity
  8
1
100
AcDbVertex
100
AcDb2dVertex
 10
2447.9505004882812
 20
762.8569183349609
 30
0.0
 70
0
  0
VERTEX
  5
89
330
31
100
AcDbEntity
  8
1
100
AcDbVertex
100
AcDb2dVertex
 10
2449.9824829101562
 20
762.0283050537109
 30
0.0
 70
0
  0
VERTEX
  5
8A
330
31
100
AcDbEntity
  8
1
100
AcDbVertex
100
AcDb2dVertex
 10
2451.3963012695312
 20
760.8082122802734
 30
0.0
 70
0
  0
VERTEX
  5
8B
330
31
100
AcDbEntity
  8
1
100
AcDbVertex
100
AcDb2dVertex
 10
2452.4036254882812
 20
759.2116546630859
 30
0.0
 70
0
  0
VERTEX
  5
8C
330
31
100
AcDbEntity
  8
1
100
AcDbVertex
100
AcDb2dVertex
 10
2598.1863403320312
 20
478.99327087402344
 30
0.0
 70
0
  0
VERTEX
  5
8D
330
31
100
AcDbEntity
  8
1
100
AcDbVertex
100
AcDb2dVertex
 10
2599.4483032226562
 20
476.01805114746094
 30
0.0
 70
0
  0
VERTEX
  5
8E
330
31
100
AcDbEntity
  8
1
100
AcDbVertex
100
AcDb2dVertex
 10
2599.1589965820312
 20
472.59593200683594
 30
0.0
 70
0
  0
VERTEX
  5
8F
330
31
100
AcDbEntity
  8
1
100
AcDbVertex
100
AcDb2dVertex
 10
2597.1340942382812
 20
469.86680603027344
 30
0.0
 70
0
  0
VERTEX
  5
90
330
31
100
AcDbEntity
  8
1
100
AcDbVertex
100
AcDb2dVertex
 10
2546.5518188476562
 20
427.65708923339844
 30
0.0
 70
0
  0
VERTEX
  5
91
330
31
100
AcDbEntity
  8
1
100
AcDbVertex
100
AcDb2dVertex
 10
2500.9050903320312
 20
387.89353942871094
 30
0.0
 70
0
  0
VERTEX
  5
92
330
31
100
AcDbEntity
  8
1
100
AcDbVertex
100
AcDb2dVertex
 10
2464.6458129882812
 20
355.03221130371094
 30
0.0
 70
0
  0
VERTEX
  5
93
330
31
100
AcDbEntity
  8
1
100
AcDbVertex
100
AcDb2dVertex
 10
2419.3550415039062
 20
312.1888885498047
 30
0.0
 70
0
  0
VERTEX
  5
94
330
31
100
AcDbEntity
  8
1
100
AcDbVertex
100
AcDb2dVertex
 10
2374.8484497070312
 20
267.85606384277344
 30
0.0
 70
0
  0
VERTEX
  5
95
330
31
100
AcDbEntity
  8
1
100
AcDbVertex
100
AcDb2dVertex
 10
2345.6560668945312
 20
237.3948211669922
 30
0.0
 70
0
  0
VERTEX
  5
96
330
31
100
AcDbEntity
  8
1
100
AcDbVertex
100
AcDb2dVertex
 10
2316.8799438476562
 20
206.1437225341797
 30
0.0
 70
0
  0
VERTEX
  5
97
330
31
100
AcDbEntity
  8
1
100
AcDbVertex
100
AcDb2dVertex
 10
2288.5535278320312
 20
174.03965759277344
 30
0.0
 70
0
  0
VERTEX
  5
98
330
31
100
AcDbEntity
  8
1
100
AcDbVertex
100
AcDb2dVertex
 10
2278.3718872070312
 20
161.7447967529297
 30
0.0
 70
0
  0
VERTEX
  5
99
330
31
100
AcDbEntity
  8
1
100
AcDbVertex
100
AcDb2dVertex
 10
2276.3670043945312
 20
159.9547576904297
 30
0.0
 70
0
  0
VERTEX
  5
9A
330
31
100
AcDbEntity
  8
1
100
AcDbVertex
100
AcDb2dVertex
 10
2254.7546997070312
 20
152.44590759277344
 30
0.0
 70
0
  0
VERTEX
  5
9B
330
31
100
AcDbEntity
  8
1
100
AcDbVertex
100
AcDb2dVertex
 10
2198.1201782226562
 20
131.48692321777344
 30
0.0
 70
0
  0
VERTEX
  5
9C
330
31
100
AcDbEntity
  8
1
100
AcDbVertex
100
AcDb2dVertex
 10
2123.3362426757812
 20
102.15977478027344
 30
0.0
 70
0
  0
VERTEX
  5
9D
330
31
100
AcDbEntity
  8
1
100
AcDbVertex
100
AcDb2dVertex
 10
2049.4216918945312
 20
71.18528747558594
 30
0.0
 70
0
  0
VERTEX
  5
9E
330
31
100
AcDbEntity
  8
1
100
AcDbVertex
100
AcDb2dVertex
 10
1976.4182739257812
 20
38.48857116699219
 30
0.0
 70
0
  0
VERTEX
  5
9F
330
31
100
AcDbEntity
  8
1
100
AcDbVertex
100
AcDb2dVertex
 10
1940.2717895507812
 20
21.470809936523438
 30
0.0
 70
0
  0
VERTEX
  5
A0
330
31
100
AcDbEntity
  8
1
100
AcDbVertex
100
AcDb2dVertex
 10
1904.3704223632812
 20
3.9910736083984375
 30
0.0
 70
0
  0
VERTEX
  5
A1
330
31
100
AcDbEntity
  8
1
100
AcDbVertex
100
AcDb2dVertex
 10
1868.7195434570312
 20
-13.960342407226562
 30
0.0
 70
0
  0
VERTEX
  5
A2
330
31
100
AcDbEntity
  8
1
100
AcDbVertex
100
AcDb2dVertex
 10
1833.3264770507812
 20
-32.39595031738281
 30
0.0
 70
0
  0
VERTEX
  5
A3
330
31
100
AcDbEntity
  8
1
100
AcDbVertex
100
AcDb2dVertex
 10
1798.1973266601562
 20
-51.32740783691406
 30
0.0
 70
0
  0
VERTEX
  5
A4
330
31
100
AcDbEntity
  8
1
100
AcDbVertex
100
AcDb2dVertex
 10
1763.3386840820312
 20
-70.76704406738281
 30
0.0
 70
0
  0
VERTEX
  5
A5
330
31
100
AcDbEntity
  8
1
100
AcDbVertex
100
AcDb2dVertex
 10
1694.2859497070312
 20
-110.89097595214844
 30
0.0
 70
0
  0
VERTEX
  5
A6
330
31
100
AcDbEntity
  8
1
100
AcDbVertex
100
AcDb2dVertex
 10
1570.2725219726562
 20
-132.4919891357422
 30
0.0
 70
0
  0
VERTEX
  5
A7
330
31
100
AcDbEntity
  8
1
100
AcDbVertex
100
AcDb2dVertex
 10
1487.9080200195312
 20
-147.4801483154297
 30
0.0
 70
0
  0
VERTEX
  5
A8
330
31
100
AcDbEntity
  8
1
100
AcDbVertex
100
AcDb2dVertex
 10
1405.9285278320312
 20
-163.19679260253906
 30
0.0
 70
0
  0
VERTEX
  5
A9
330
31
100
AcDbEntity
  8
1
100
AcDbVertex
100
AcDb2dVertex
 10
1324.3953247070312
 20
-179.75660705566406
 30
0.0
 70
0
  0
VERTEX
  5
AA
330
31
100
AcDbEntity
  8
1
100
AcDbVertex
100
AcDb2dVertex
 10
1243.3870239257812
 20
-197.3090362548828
 30
0.0
 70
0
  0
VERTEX
  5
AB
330
31
100
AcDbEntity
  8
1
100
AcDbVertex
100
AcDb2dVertex
 10
1183.0347290039062
 20
-211.2413787841797
 30
0.0
 70
0
  0
VERTEX
  5
AC
330
31
100
AcDbEntity
  8
1
100
AcDbVertex
100
AcDb2dVertex
 10
1123.0877075195312
 20
-225.95127868652344
 30
0.0
 70
0
  0
VERTEX
  5
AD
330
31
100
AcDbEntity
  8
1
100
AcDbVertex
100
AcDb2dVertex
 10
1063.6060180664062
 20
-241.56968688964844
 30
0.0
 70
0
  0
VERTEX
  5
AE
330
31
100
AcDbEntity
  8
1
100
AcDbVertex
100
AcDb2dVertex
 10
1043.5916137695312
 20
-246.3788604736328
 30
0.0
 70
0
  0
VERTEX
  5
AF
330
31
100
AcDbEntity
  8
1
100
AcDbVertex
100
AcDb2dVertex
 10
957.1853637695312
 20
-253.7360076904297
 30
0.0
 70
0
  0
VERTEX
  5
B0
330
31
100
AcDbEntity
  8
1
100
AcDbVertex
100
AcDb2dVertex
 10
871.6087036132812
 20
-262.4585723876953
 30
0.0
 70
0
  0
VERTEX
  5
B1
330
31
100
AcDbEntity
  8
1
100
AcDbVertex
100
AcDb2dVertex
 10
807.9673461914062
 20
-269.9594268798828
 30
0.0
 70
0
  0
VERTEX
  5
B2
330
31
100
AcDbEntity
  8
1
100
AcDbVertex
100
AcDb2dVertex
 10
723.8213500976562
 20
-281.27467346191406
 30
0.0
 70
0
  0
VERTEX
  5
B3
330
31
100
AcDbEntity
  8
1
100
AcDbVertex
100
AcDb2dVertex
 10
640.4840698242188
 20
-294.11256408691406
 30
0.0
 70
0
  0
VERTEX
  5
B4
330
31
100
AcDbEntity
  8
1
100
AcDbVertex
100
AcDb2dVertex
 10
557.9590454101562
 20
-308.49314880371094
 30
0.0
 70
0
  0
VERTEX
  5
B5
330
31
100
AcDbEntity
  8
1
100
AcDbVertex
100
AcDb2dVertex
 10
496.60040283203125
 20
-320.2996063232422
 30
0.0
 70
0
  0
VERTEX
  5
B6
330
31
100
AcDbEntity
  8
1
100
AcDbVertex
100
AcDb2dVertex
 10
415.50653076171875
 20
-337.41758728027344
 30
0.0
 70
0
  0
SEQEND
  5
35
330
31
100
AcDbEntity
  8
1
  0
POLYLINE
  5
B7
330
31
100
AcDbEntity
  8
8
100
AcDb2dPolyline
 66
1
 70
0
  0
VERTEX
  5
B9
330
31
100
AcDbEntity
  8
8
100
AcDbVertex
100
AcDb2dVertex
 10
2419.822426089624
 20
743.5916327923544
 30
0.0
 70
0
  0
VERTEX
  5
BA
330
31
100
AcDbEntity
  8
8
100
AcDbVertex
100
AcDb2dVertex
 10
1971.5922143518073
 20
733.0176103389995
 30
0.0
 70
0
  0
VERTEX
  5
BB
330
31
100
AcDbEntity
  8
8
100
AcDbVertex
100
AcDb2dVertex
 10
1244.5579686202573
 20
740.9499067228321
 30
0.0
 70
0
  0
VERTEX
  5
BC
330
31
100
AcDbEntity
  8
8
100
AcDbVertex
100
AcDb2dVertex
 10
29.190564811240392
 20
775.6522313334062
 30
0.0
 70
0
  0
VERTEX
  5
BD
330
31
100
AcDbEntity
  8
8
100
AcDbVertex
100
AcDb2dVertex
 10
-794.0960392127864
 20
799.5646792220246
 30
0.0
 70
0
  0
VERTEX
  5
BE
330
31
100
AcDbEntity
  8
8
100
AcDbVertex
100
AcDb2dVertex
 10
-1205.38769913627
 20
811.9433081619864
 30
0.0
 70
0
  0
VERTEX
  5
BF
330
31
100
AcDbEntity
  8
8
100
AcDbVertex
100
AcDb2dVertex
 10
-2016.8667135498
 20
816.7528574436099
 30
0.0
 70
0
  0
VERTEX
  5
C0
330
31
100
AcDbEntity
  8
8
100
AcDbVertex
100
AcDb2dVertex
 10
-2593.759272580356
 20
812.3555197128117
 30
0.0
 70
0
  0
VERTEX
  5
C1
330
31
100
AcDbEntity
  8
8
100
AcDbVertex
100
AcDb2dVertex
 10
-2596.6887017318877
 20
812.8023122130357
 30
0.0
 70
0
  0
VERTEX
  5
C2
330
31
100
AcDbEntity
  8
8
100
AcDbVertex
100
AcDb2dVertex
 10
-2599.4301861673357
 20
813.9257001801452
 30
0.0
 70
0
  0
VERTEX
  5
C3
330
31
100
AcDbEntity
  8
8
100
AcDbVertex
100
AcDb2dVertex
 10
-2601.507161577486
 20
815.3771221747322
 30
0.0
 70
0
  0
VERTEX
  5
C4
330
31
100
AcDbEntity
  8
8
100
AcDbVertex
100
AcDb2dVertex
 10
-2603.248465571153
 20
817.2147775429339
 30
0.0
 70
0
  0
VERTEX
  5
C5
330
31
100
AcDbEntity
  8
8
100
AcDbVertex
100
AcDb2dVertex
 10
-2614.5380071274244
 20
838.5940233675244
 30
0.0
 70
0
  0
SEQEND
  5
B8
330
31
100
AcDbEntity
  8
8
  0
POLYLINE
  5
C6
330
31
100
AcDbEntity
  8
8
100
AcDb2dPolyline
 66
1
 70
0
  0
VERTEX
  5
C8
330
31
100
AcDbEntity
  8
8
100
AcDbVertex
100
AcDb2dVertex
 10
2456.4532856727765
 20
765.0123381662129
 30
0.0
 70
0
  0
VERTEX
  5
C9
330
31
100
AcDbEntity
  8
8
100
AcDbVertex
100
AcDb2dVertex
 10
2458.8770487049946
 20
759.3233057044558
 30
0.0
 70
0
  0
VERTEX
  5
CA
330
31
100
AcDbEntity
  8
8
100
AcDbVertex
100
AcDb2dVertex
 10
2459.132366002074
 20
756.5502107622854
 30
0.0
 70
0
  0
VERTEX
  5
CB
330
31
100
AcDbEntity
  8
8
100
AcDbVertex
100
AcDb2dVertex
 10
2458.769001969196
 20
753.6678061880623
 30
0.0
 70
0
  0
VERTEX
  5
CC
330
31
100
AcDbEntity
  8
8
100
AcDbVertex
100
AcDb2dVertex
 10
2457.6339525172543
 20
750.7691651432133
 30
0.0
 70
0
  0
VERTEX
  5
CD
330
31
100
AcDbEntity
  8
8
100
AcDbVertex
100
AcDb2dVertex
 10
2455.37569694975
 20
747.786309071271
 30
0.0
 70
0
  0
VERTEX
  5
CE
330
31
100
AcDbEntity
  8
8
100
AcDbVertex
100
AcDb2dVertex
 10
2452.6759921132043
 20
745.817548848981
 30
0.0
 70
0
  0
VERTEX
  5
CF
330
31
100
AcDbEntity
  8
8
100
AcDbVertex
100
AcDb2dVertex
 10
2449.570756149269
 20
744.5802299445854
 30
0.0
 70
0
  0
VERTEX
  5
D0
330
31
100
AcDbEntity
  8
8
100
AcDbVertex
100
AcDb2dVertex
 10
2419.822426089624
 20
743.5916327923544
 30
0.0
 70
0
  0
SEQEND
  5
C7
330
31
100
AcDbEntity
  8
8
  0
POLYLINE
  5
D1
330
31
100
AcDbEntity
  8
8
100
AcDb2dPolyline
 66
1
 70
0
  0
VERTEX
  5
D3
330
31
100
AcDbEntity
  8
8
100
AcDbVertex
100
AcDb2dVertex
 10
-2019.7807987291528
 20
-275.4336794791605
 30
0.0
 70
0
  0
VERTEX
  5
D4
330
31
100
AcDbEntity
  8
8
100
AcDbVertex
100
AcDb2dVertex
 10
-1509.7663183336633
 20
-177.23899048018535
 30
0.0
 70
0
  0
VERTEX
  5
D5
330
31
100
AcDbEntity
  8
8
100
AcDbVertex
100
AcDb2dVertex
 10
-1491.9444167983504
 20
-174.08307555361944
 30
0.0
 70
0
  0
SEQEND
  5
D2
330
31
100
AcDbEntity
  8
8
  0
POLYLINE
  5
D6
330
31
100
AcDbEntity
  8
8
100
AcDb2dPolyline
 66
1
 70
0
  0
VERTEX
  5
D8
330
31
100
AcDbEntity
  8
8
100
AcDbVertex
100
AcDb2dVertex
 10
-1491.9444167983504
 20
-174.08307555361944
 30
0.0
 70
0
  0
VERTEX
  5
D9
330
31
100
AcDbEntity
  8
8
100
AcDbVertex
100
AcDb2dVertex
 10
-1010.5332831792578
 20
-90.2526092056022
 30
0.0
 70
0
  0
VERTEX
  5
DA
330
31
100
AcDbEntity
  8
8
100
AcDbVertex
100
AcDb2dVertex
 10
-753.4703826565712
 20
-45.774551216371606
 30
0.0
 70
0
  0
VERTEX
  5
DB
330
31
100
AcDbEntity
  8
8
100
AcDbVertex
100
AcDb2dVertex
 10
-747.3881760832701
 20
-45.084455216565175
 30
0.0
 70
0
  0
SEQEND
  5
D7
330
31
100
AcDbEntity
  8
8
  0
POLYLINE
  5
DC
330
31
100
AcDbEntity
  8
8
100
AcDb2dPolyline
 66
1
 70
0
  0
VERTEX
  5
DE
330
31
100
AcDbEntity
  8
8
100
AcDbVertex
100
AcDb2dVertex
 10
-747.3881760832701
 20
-45.084455216565175
 30
0.0
 70
0
  0
VERTEX
  5
DF
330
31
100
AcDbEntity
  8
8
100
AcDbVertex
100
AcDb2dVertex
 10
-720.6945753652379
 20
-42.799501317800605
 30
0.0
 70
0
  0
VERTEX
  5
E0
330
31
100
AcDbEntity
  8
8
100
AcDbVertex
100
AcDb2dVertex
 10
46.71966360339093
 20
12.449412518458985
 30
0.0
 70
0
  0
SEQEND
  5
DD
330
31
100
AcDbEntity
  8
8
  0
POLYLINE
  5
E1
330
31
100
AcDbEntity
  8
8
100
AcDb2dPolyline
 66
1
 70
0
  0
VERTEX
  5
E3
330
31
100
AcDbEntity
  8
8
100
AcDbVertex
100
AcDb2dVertex
 10
46.71966360339093
 20
12.449412518458985
 30
0.0
 70
0
  0
VERTEX
  5
E4
330
31
100
AcDbEntity
  8
8
100
AcDbVertex
100
AcDb2dVertex
 10
924.1399996210789
 20
-6.37856898763323
 30
0.0
 70
0
  0
SEQEND
  5
E2
330
31
100
AcDbEntity
  8
8
  0
POLYLINE
  5
E5
330
31
100
AcDbEntity
  8
8
100
AcDb2dPolyline
 66
1
 70
0
  0
VERTEX
  5
E7
330
31
100
AcDbEntity
  8
8
100
AcDbVertex
100
AcDb2dVertex
 10
924.1399996210789
 20
-6.37856898763323
 30
0.0
 70
0
  0
VERTEX
  5
E8
330
31
100
AcDbEntity
  8
8
100
AcDbVertex
100
AcDb2dVertex
 10
1600.4966683097396
 20
7.119081479524198
 30
0.0
 70
0
  0
VERTEX
  5
E9
330
31
100
AcDbEntity
  8
8
100
AcDbVertex
100
AcDb2dVertex
 10
1630.4089832548143
 20
7.73766076748791
 30
0.0
 70
0
  0
VERTEX
  5
EA
330
31
100
AcDbEntity
  8
8
100
AcDbVertex
100
AcDb2dVertex
 10
1633.2388353431857
 20
8.104468072551413
 30
0.0
 70
0
  0
SEQEND
  5
E6
330
31
100
AcDbEntity
  8
8
  0
POLYLINE
  5
EB
330
31
100
AcDbEntity
  8
8
100
AcDb2dPolyline
 66
1
 70
0
  0
VERTEX
  5
ED
330
31
100
AcDbEntity
  8
8
100
AcDbVertex
100
AcDb2dVertex
 10
1633.2388353431857
 20
8.104468072551413
 30
0.0
 70
0
  0
VERTEX
  5
EE
330
31
100
AcDbEntity
  8
8
100
AcDbVertex
100
AcDb2dVertex
 10
1649.7325384464807
 20
15.403098877125558
 30
0.0
 70
0
  0
VERTEX
  5
EF
330
31
100
AcDbEntity
  8
8
100
AcDbVertex
100
AcDb2dVertex
 10
2112.4784151774925
 20
230.91943095857835
 30
0.0
 70
0
  0
VERTEX
  5
F0
330
31
100
AcDbEntity
  8
8
100
AcDbVertex
100
AcDb2dVertex
 10
2210.4583185339816
 20
276.60665360695896
 30
0.0
 70
0
  0
VERTEX
  5
F1
330
31
100
AcDbEntity
  8
8
100
AcDbVertex
100
AcDb2dVertex
 10
2212.968112371094
 20
278.28897093117075
 30
0.0
 70
0
  0
SEQEND
  5
EC
330
31
100
AcDbEntity
  8
8
  0
POLYLINE
  5
F2
330
31
100
AcDbEntity
  8
8
100
AcDb2dPolyline
 66
1
 70
0
  0
VERTEX
  5
F4
330
31
100
AcDbEntity
  8
8
100
AcDbVertex
100
AcDb2dVertex
 10
2212.968112371094
 20
278.28897093117075
 30
0.0
 70
0
  0
VERTEX
  5
F5
330
31
100
AcDbEntity
  8
8
100
AcDbVertex
100
AcDb2dVertex
 10
2239.4063103362932
 20
292.817394794553
 30
0.0
 70
0
  0
VERTEX
  5
F6
330
31
100
AcDbEntity
  8
8
100
AcDbVertex
100
AcDb2dVertex
 10
2585.17434307113
 20
490.43689513197774
 30
0.0
 70
0
  0
SEQEND
  5
F3
330
31
100
AcDbEntity
  8
8
  0
POLYLINE
  5
F7
330
31
100
AcDbEntity
  8
8
100
AcDb2dPolyline
 66
1
 70
0
  0
VERTEX
  5
F9
330
31
100
AcDbEntity
  8
8
100
AcDbVertex
100
AcDb2dVertex
 10
-1928.1063766900597
 20
-194.59230519628238
 30
0.0
 70
0
  0
VERTEX
  5
FA
330
31
100
AcDbEntity
  8
8
100
AcDbVertex
100
AcDb2dVertex
 10
-1900.439409493833
 20
-283.57569783944405
 30
0.0
 70
0
  0
VERTEX
  5
FB
330
31
100
AcDbEntity
  8
8
100
AcDbVertex
100
AcDb2dVertex
 10
-1883.4995862624378
 20
-335.01411749917776
 30
0.0
 70
0
  0
VERTEX
  5
FC
330
31
100
AcDbEntity
  8
8
100
AcDbVertex
100
AcDb2dVertex
 10
-1869.4136704206694
 20
-373.58600813648314
 30
0.0
 70
0
  0
VERTEX
  5
FD
330
31
100
AcDbEntity
  8
8
100
AcDbVertex
100
AcDb2dVertex
 10
-1850.2275396765808
 20
-420.90665518005176
 30
0.0
 70
0
  0
VERTEX
  5
FE
330
31
100
AcDbEntity
  8
8
100
AcDbVertex
100
AcDb2dVertex
 10
-1822.8224005723177
 20
-483.5257337929556
 30
0.0
 70
0
  0
VERTEX
  5
FF
330
31
100
AcDbEntity
  8
8
100
AcDbVertex
100
AcDb2dVertex
 10
-1785.24435072428
 20
-565.0420224709853
 30
0.0
 70
0
  0
VERTEX
  5
100
330
31
100
AcDbEntity
  8
8
100
AcDbVertex
100
AcDb2dVertex
 10
-1735.9587505957213
 20
-668.9660304798913
 30
0.0
 70
0
  0
VERTEX
  5
101
330
31
100
AcDbEntity
  8
8
100
AcDbVertex
100
AcDb2dVertex
 10
-1670.7916203183422
 20
-804.1050017818434
 30
0.0
 70
0
  0
SEQEND
  5
F8
330
31
100
AcDbEntity
  8
8
  0
POLYLINE
  5
102
330
31
100
AcDbEntity
  8
8
100
AcDb2dPolyline
 66
1
 70
0
  0
VERTEX
  5
104
330
31
100
AcDbEntity
  8
8
100
AcDbVertex
100
AcDb2dVertex
 10
-1236.6950599324482
 20
-654.0588509573322
 30
0.0
 70
0
  0
VERTEX
  5
105
330
31
100
AcDbEntity
  8
8
100
AcDbVertex
100
AcDb2dVertex
 10
-1422.7166837577527
 20
-328.1940226299341
 30
0.0
 70
0
  0
VERTEX
  5
106
330
31
100
AcDbEntity
  8
8
100
AcDbVertex
100
AcDb2dVertex
 10
-1552.8514060492507
 20
-97.53109777567886
 30
0.0
 70
0
  0
VERTEX
  5
107
330
31
100
AcDbEntity
  8
8
100
AcDbVertex
100
AcDb2dVertex
 10
-2043.3884999383058
 20
779.0138147017694
 30
0.0
 70
0
  0
VERTEX
  5
108
330
31
100
AcDbEntity
  8
8
100
AcDbVertex
100
AcDb2dVertex
 10
-2087.00107277517
 20
857.947080811063
 30
0.0
 70
0
  0
SEQEND
  5
103
330
31
100
AcDbEntity
  8
8
  0
POLYLINE
  5
109
330
31
100
AcDbEntity
  8
8
100
AcDb2dPolyline
 66
1
 70
0
  0
VERTEX
  5
10B
330
31
100
AcDbEntity
  8
8
100
AcDbVertex
100
AcDb2dVertex
 10
-519.7382775938086
 20
-473.99341711348575
 30
0.0
 70
0
  0
VERTEX
  5
10C
330
31
100
AcDbEntity
  8
8
100
AcDbVertex
100
AcDb2dVertex
 10
-716.1268996584496
 20
-143.8330714692716
 30
0.0
 70
0
  0
VERTEX
  5
10D
330
31
100
AcDbEntity
  8
8
100
AcDbVertex
100
AcDb2dVertex
 10
-872.1344228579201
 20
119.78074954803674
 30
0.0
 70
0
  0
VERTEX
  5
10E
330
31
100
AcDbEntity
  8
8
100
AcDbVertex
100
AcDb2dVertex
 10
-1263.0555398445517
 20
783.0920320910459
 30
0.0
 70
0
  0
VERTEX
  5
10F
330
31
100
AcDbEntity
  8
8
100
AcDbVertex
100
AcDb2dVertex
 10
-1303.7437459451228
 20
853.5505745396254
 30
0.0
 70
0
  0
SEQEND
  5
10A
330
31
100
AcDbEntity
  8
8
  0
POLYLINE
  5
110
330
31
100
AcDbEntity
  8
8
100
AcDb2dPolyline
 66
1
 70
0
  0
VERTEX
  5
112
330
31
100
AcDbEntity
  8
8
100
AcDbVertex
100
AcDb2dVertex
 10
247.02741529309037
 20
-366.0483792508562
 30
0.0
 70
0
  0
VERTEX
  5
113
330
31
100
AcDbEntity
  8
8
100
AcDbVertex
100
AcDb2dVertex
 10
-405.8375724886089
 20
666.8538284942017
 30
0.0
 70
0
  0
VERTEX
  5
114
330
31
100
AcDbEntity
  8
8
100
AcDbVertex
100
AcDb2dVertex
 10
-468.2153973671067
 20
765.8682299386642
 30
0.0
 70
0
  0
VERTEX
  5
115
330
31
100
AcDbEntity
  8
8
100
AcDbVertex
100
AcDb2dVertex
 10
-507.9141781054884
 20
830.4857571903947
 30
0.0
 70
0
  0
SEQEND
  5
111
330
31
100
AcDbEntity
  8
8
  0
POLYLINE
  5
116
330
31
100
AcDbEntity
  8
8
100
AcDb2dPolyline
 66
1
 70
0
  0
VERTEX
  5
118
330
31
100
AcDbEntity
  8
8
100
AcDbVertex
100
AcDb2dVertex
 10
1044.8451050256917
 20
-233.8327220761912
 30
0.0
 70
0
  0
VERTEX
  5
119
330
31
100
AcDbEntity
  8
8
100
AcDbVertex
100
AcDb2dVertex
 10
470.7815417708646
 20
647.4721312979586
 30
0.0
 70
0
  0
VERTEX
  5
11A
330
31
100
AcDbEntity
  8
8
100
AcDbVertex
100
AcDb2dVertex
 10
408.84463276447696
 20
743.1600475773898
 30
0.0
 70
0
  0
VERTEX
  5
11B
330
31
100
AcDbEntity
  8
8
100
AcDbVertex
100
AcDb2dVertex
 10
371.7033391279508
 20
802.4550583518446
 30
0.0
 70
0
  0
SEQEND
  5
117
330
31
100
AcDbEntity
  8
8
  0
POLYLINE
  5
11C
330
31
100
AcDbEntity
  8
8
100
AcDb2dPolyline
 66
1
 70
0
  0
VERTEX
  5
11E
330
31
100
AcDbEntity
  8
8
100
AcDbVertex
100
AcDb2dVertex
 10
1690.0595703820836
 20
-99.12103312749366
 30
0.0
 70
0
  0
VERTEX
  5
11F
330
31
100
AcDbEntity
  8
8
100
AcDbVertex
100
AcDb2dVertex
 10
1127.7985222416964
 20
676.2242340390251
 30
0.0
 70
0
  0
VERTEX
  5
120
330
31
100
AcDbEntity
  8
8
100
AcDbVertex
100
AcDb2dVertex
 10
1089.2491872243631
 20
729.7282672548952
 30
0.0
 70
0
  0
VERTEX
  5
121
330
31
100
AcDbEntity
  8
8
100
AcDbVertex
100
AcDb2dVertex
 10
1054.5688601732722
 20
779.4805610748965
 30
0.0
 70
0
  0
SEQEND
  5
11D
330
31
100
AcDbEntity
  8
8
  0
POLYLINE
  5
122
330
31
100
AcDbEntity
  8
8
100
AcDb2dPolyline
 66
1
 70
0
  0
VERTEX
  5
124
330
31
100
AcDbEntity
  8
8
100
AcDbVertex
100
AcDb2dVertex
 10
2269.3995904349053
 20
171.26738116921842
 30
0.0
 70
0
  0
VERTEX
  5
125
330
31
100
AcDbEntity
  8
8
100
AcDbVertex
100
AcDb2dVertex
 10
2265.112595648134
 20
174.4938243532406
 30
0.0
 70
0
  0
VERTEX
  5
126
330
31
100
AcDbEntity
  8
8
100
AcDbVertex
100
AcDb2dVertex
 10
1641.729979309277
 20
695.334344840913
 30
0.0
 70
0
  0
VERTEX
  5
127
330
31
100
AcDbEntity
  8
8
100
AcDbVertex
100
AcDb2dVertex
 10
1586.641108891839
 20
741.705274903838
 30
0.0
 70
0
  0
VERTEX
  5
128
330
31
100
AcDbEntity
  8
8
100
AcDbVertex
100
AcDb2dVertex
 10
1559.1673925313785
 20
765.4580936738655
 30
0.0
 70
0
  0
SEQEND
  5
123
330
31
100
AcDbEntity
  8
8
  0
POLYLINE
  5
129
330
31
100
AcDbEntity
  8
8
100
AcDb2dPolyline
 66
1
 70
0
  0
VERTEX
  5
12B
330
31
100
AcDbEntity
  8
8
100
AcDbVertex
100
AcDb2dVertex
 10
2590.5162620261276
 20
480.1892925678992
 30
0.0
 70
0
  0
VERTEX
  5
12C
330
31
100
AcDbEntity
  8
8
100
AcDbVertex
100
AcDb2dVertex
 10
2399.5664597122527
 20
586.9268642127838
 30
0.0
 70
0
  0
VERTEX
  5
12D
330
31
100
AcDbEntity
  8
8
100
AcDbVertex
100
AcDb2dVertex
 10
2135.0399536409395
 20
733.6056364212504
 30
0.0
 70
0
  0
VERTEX
  5
12E
330
31
100
AcDbEntity
  8
8
100
AcDbVertex
100
AcDb2dVertex
 10
2082.8988025527137
 20
763.162172444524
 30
0.0
 70
0
  0
SEQEND
  5
12A
330
31
100
AcDbEntity
  8
8
  0
POLYLINE
  5
12F
330
31
100
AcDbEntity
  8
8
100
AcDb2dPolyline
 66
1
 70
0
  0
VERTEX
  5
131
330
31
100
AcDbEntity
  8
8
100
AcDbVertex
100
AcDb2dVertex
 10
-1727.9034573459958
 20
-823.9359249396833
 30
0.0
 70
0
  0
VERTEX
  5
132
330
31
100
AcDbEntity
  8
8
100
AcDbVertex
100
AcDb2dVertex
 10
-1699.211259729944
 20
-808.3783212819187
 30
0.0
 70
0
  0
VERTEX
  5
133
330
31
100
AcDbEntity
  8
8
100
AcDbVertex
100
AcDb2dVertex
 10
-1664.6875019697118
 20
-790.9124397066398
 30
0.0
 70
0
  0
VERTEX
  5
134
330
31
100
AcDbEntity
  8
8
100
AcDbVertex
100
AcDb2dVertex
 10
-1631.6090308103558
 20
-775.3708957474207
 30
0.0
 70
0
  0
VERTEX
  5
135
330
31
100
AcDbEntity
  8
8
100
AcDbVertex
100
AcDb2dVertex
 10
-1594.8883819804244
 20
-759.3610919468185
 30
0.0
 70
0
  0
VERTEX
  5
136
330
31
100
AcDbEntity
  8
8
100
AcDbVertex
100
AcDb2dVertex
 10
-1554.2842865685093
 20
-743.041168791869
 30
0.0
 70
0
  0
VERTEX
  5
137
330
31
100
AcDbEntity
  8
8
100
AcDbVertex
100
AcDb2dVertex
 10
-1520.8533517529463
 20
-730.6193543247097
 30
0.0
 70
0
  0
VERTEX
  5
138
330
31
100
AcDbEntity
  8
8
100
AcDbVertex
100
AcDb2dVertex
 10
-1486.6065551041647
 20
-718.7206461461868
 30
0.0
 70
0
  0
VERTEX
  5
139
330
31
100
AcDbEntity
  8
8
100
AcDbVertex
100
AcDb2dVertex
 10
-1442.597894678403
 20
-704.6700608284915
 30
0.0
 70
0
  0
VERTEX
  5
13A
330
31
100
AcDbEntity
  8
8
100
AcDbVertex
100
AcDb2dVertex
 10
-1391.1527818076609
 20
-689.7783226862264
 30
0.0
 70
0
  0
VERTEX
  5
13B
330
31
100
AcDbEntity
  8
8
100
AcDbVertex
100
AcDb2dVertex
 10
-1334.871680342549
 20
-675.1984577626887
 30
0.0
 70
0
  0
VERTEX
  5
13C
330
31
100
AcDbEntity
  8
8
100
AcDbVertex
100
AcDb2dVertex
 10
-1283.2469292146077
 20
-663.3276145333118
 30
0.0
 70
0
  0
VERTEX
  5
13D
330
31
100
AcDbEntity
  8
8
100
AcDbVertex
100
AcDb2dVertex
 10
-1243.5639945734283
 20
-655.0595536470745
 30
0.0
 70
0
  0
VERTEX
  5
13E
330
31
100
AcDbEntity
  8
8
100
AcDbVertex
100
AcDb2dVertex
 10
-1236.6950599324482
 20
-654.0588509573322
 30
0.0
 70
0
  0
VERTEX
  5
13F
330
31
100
AcDbEntity
  8
8
100
AcDbVertex
100
AcDb2dVertex
 10
-1222.7132330239017
 20
-649.0648831749899
 30
0.0
 70
0
  0
VERTEX
  5
140
330
31
100
AcDbEntity
  8
8
100
AcDbVertex
100
AcDb2dVertex
 10
-1191.4481100195082
 20
-638.9170375995067
 30
0.0
 70
0
  0
VERTEX
  5
141
330
31
100
AcDbEntity
  8
8
100
AcDbVertex
100
AcDb2dVertex
 10
-1105.2693723452683
 20
-612.2274732432697
 30
0.0
 70
0
  0
VERTEX
  5
142
330
31
100
AcDbEntity
  8
8
100
AcDbVertex
100
AcDb2dVertex
 10
-1029.542463082562
 20
-590.196499379026
 30
0.0
 70
0
  0
VERTEX
  5
143
330
31
100
AcDbEntity
  8
8
100
AcDbVertex
100
AcDb2dVertex
 10
-946.9007151369199
 20
-567.6374561371481
 30
0.0
 70
0
  0
VERTEX
  5
144
330
31
100
AcDbEntity
  8
8
100
AcDbVertex
100
AcDb2dVertex
 10
-890.1822028969649
 20
-553.0139682205885
 30
0.0
 70
0
  0
VERTEX
  5
145
330
31
100
AcDbEntity
  8
8
100
AcDbVertex
100
AcDb2dVertex
 10
-826.8887725618473
 20
-537.5011593079204
 30
0.0
 70
0
  0
VERTEX
  5
146
330
31
100
AcDbEntity
  8
8
100
AcDbVertex
100
AcDb2dVertex
 10
-762.9694660940138
 20
-522.6543611262712
 30
0.0
 70
0
  0
VERTEX
  5
147
330
31
100
AcDbEntity
  8
8
100
AcDbVertex
100
AcDb2dVertex
 10
-701.49792448991
 20
-509.16352069794647
 30
0.0
 70
0
  0
VERTEX
  5
148
330
31
100
AcDbEntity
  8
8
100
AcDbVertex
100
AcDb2dVertex
 10
-595.6711315109544
 20
-487.6592474417216
 30
0.0
 70
0
  0
VERTEX
  5
149
330
31
100
AcDbEntity
  8
8
100
AcDbVertex
100
AcDb2dVertex
 10
-526.3007003418649
 20
-474.7107327278678
 30
0.0
 70
0
  0
VERTEX
  5
14A
330
31
100
AcDbEntity
  8
8
100
AcDbVertex
100
AcDb2dVertex
 10
-519.7382775938086
 20
-473.99341711348575
 30
0.0
 70
0
  0
VERTEX
  5
14B
330
31
100
AcDbEntity
  8
8
100
AcDbVertex
100
AcDb2dVertex
 10
-505.2854488325455
 20
-470.43811451500136
 30
0.0
 70
0
  0
VERTEX
  5
14C
330
31
100
AcDbEntity
  8
8
100
AcDbVertex
100
AcDb2dVertex
 10
-472.81941698178866
 20
-463.7172201187579
 30
0.0
 70
0
  0
VERTEX
  5
14D
330
31
100
AcDbEntity
  8
8
100
AcDbVertex
100
AcDb2dVertex
 10
-395.1973359888191
 20
-448.5502839949406
 30
0.0
 70
0
  0
VERTEX
  5
14E
330
31
100
AcDbEntity
  8
8
100
AcDbVertex
100
AcDb2dVertex
 10
-304.07401652713315
 20
-432.33507883127277
 30
0.0
 70
0
  0
VERTEX
  5
14F
330
31
100
AcDbEntity
  8
8
100
AcDbVertex
100
AcDb2dVertex
 10
-208.1687174591334
 20
-417.0117842393298
 30
0.0
 70
0
  0
VERTEX
  5
150
330
31
100
AcDbEntity
  8
8
100
AcDbVertex
100
AcDb2dVertex
 10
-104.13178345110668
 20
-402.295867271876
 30
0.0
 70
0
  0
VERTEX
  5
151
330
31
100
AcDbEntity
  8
8
100
AcDbVertex
100
AcDb2dVertex
 10
-43.30868965974537
 20
-394.5976300097311
 30
0.0
 70
0
  0
VERTEX
  5
152
330
31
100
AcDbEntity
  8
8
100
AcDbVertex
100
AcDb2dVertex
 10
14.921054692093094
 20
-387.80321593789165
 30
0.0
 70
0
  0
VERTEX
  5
153
330
31
100
AcDbEntity
  8
8
100
AcDbVertex
100
AcDb2dVertex
 10
123.23119728390543
 20
-376.6407601009221
 30
0.0
 70
0
  0
VERTEX
  5
154
330
31
100
AcDbEntity
  8
8
100
AcDbVertex
100
AcDb2dVertex
 10
183.15647983363942
 20
-371.25659698603977
 30
0.0
 70
0
  0
VERTEX
  5
155
330
31
100
AcDbEntity
  8
8
100
AcDbVertex
100
AcDb2dVertex
 10
247.02741529309037
 20
-366.0483792508562
 30
0.0
 70
0
  0
VERTEX
  5
156
330
31
100
AcDbEntity
  8
8
100
AcDbVertex
100
AcDb2dVertex
 10
305.8746116235127
 20
-350.7991823668849
 30
0.0
 70
0
  0
VERTEX
  5
157
330
31
100
AcDbEntity
  8
8
100
AcDbVertex
100
AcDb2dVertex
 10
353.34916901556744
 20
-339.1553430995041
 30
0.0
 70
0
  0
VERTEX
  5
158
330
31
100
AcDbEntity
  8
8
100
AcDbVertex
100
AcDb2dVertex
 10
407.21186109528253
 20
-326.7105779529299
 30
0.0
 70
0
  0
VERTEX
  5
159
330
31
100
AcDbEntity
  8
8
100
AcDbVertex
100
AcDb2dVertex
 10
461.550300837539
 20
-314.9530125136122
 30
0.0
 70
0
  0
VERTEX
  5
15A
330
31
100
AcDbEntity
  8
8
100
AcDbVertex
100
AcDb2dVertex
 10
510.26872916788716
 20
-305.0994053064994
 30
0.0
 70
0
  0
VERTEX
  5
15B
330
31
100
AcDbEntity
  8
8
100
AcDbVertex
100
AcDb2dVertex
 10
562.4380131995176
 20
-295.2025458781225
 30
0.0
 70
0
  0
VERTEX
  5
15C
330
31
100
AcDbEntity
  8
8
100
AcDbVertex
100
AcDb2dVertex
 10
618.1539675853223
 20
-285.40514009499435
 30
0.0
 70
0
  0
VERTEX
  5
15D
330
31
100
AcDbEntity
  8
8
100
AcDbVertex
100
AcDb2dVertex
 10
664.948109012586
 20
-277.75454061561936
 30
0.0
 70
0
  0
VERTEX
  5
15E
330
31
100
AcDbEntity
  8
8
100
AcDbVertex
100
AcDb2dVertex
 10
756.385700061931
 20
-264.3358983868443
 30
0.0
 70
0
  0
VERTEX
  5
15F
330
31
100
AcDbEntity
  8
8
100
AcDbVertex
100
AcDb2dVertex
 10
800.9798003576575
 20
-258.49162277580217
 30
0.0
 70
0
  0
VERTEX
  5
160
330
31
100
AcDbEntity
  8
8
100
AcDbVertex
100
AcDb2dVertex
 10
855.5186155009719
 20
-251.9278607236584
 30
0.0
 70
0
  0
VERTEX
  5
161
330
31
100
AcDbEntity
  8
8
100
AcDbVertex
100
AcDb2dVertex
 10
939.7925757975063
 20
-243.0672954033597
 30
0.0
 70
0
  0
VERTEX
  5
162
330
31
100
AcDbEntity
  8
8
100
AcDbVertex
100
AcDb2dVertex
 10
1044.8451050256917
 20
-233.8327220761912
 30
0.0
 70
0
  0
VERTEX
  5
163
330
31
100
AcDbEntity
  8
8
100
AcDbVertex
100
AcDb2dVertex
 10
1109.4754932341884
 20
-216.7713610220365
 30
0.0
 70
0
  0
VERTEX
  5
164
330
31
100
AcDbEntity
  8
8
100
AcDbVertex
100
AcDb2dVertex
 10
1184.6894753884653
 20
-198.24614953115758
 30
0.0
 70
0
  0
VERTEX
  5
165
330
31
100
AcDbEntity
  8
8
100
AcDbVertex
100
AcDb2dVertex
 10
1266.0021411778744
 20
-179.7245682040583
 30
0.0
 70
0
  0
VERTEX
  5
166
330
31
100
AcDbEntity
  8
8
100
AcDbVertex
100
AcDb2dVertex
 10
1328.7053173837649
 20
-166.33795589705971
 30
0.0
 70
0
  0
VERTEX
  5
167
330
31
100
AcDbEntity
  8
8
100
AcDbVertex
100
AcDb2dVertex
 10
1410.7660869729998
 20
-149.75653174970978
 30
0.0
 70
0
  0
VERTEX
  5
168
330
31
100
AcDbEntity
  8
8
100
AcDbVertex
100
AcDb2dVertex
 10
1484.041182290753
 20
-135.74155752343552
 30
0.0
 70
0
  0
VERTEX
  5
169
330
31
100
AcDbEntity
  8
8
100
AcDbVertex
100
AcDb2dVertex
 10
1575.1613474739966
 20
-119.1711755393631
 30
0.0
 70
0
  0
VERTEX
  5
16A
330
31
100
AcDbEntity
  8
8
100
AcDbVertex
100
AcDb2dVertex
 10
1686.4146162539628
 20
-100.09023294936901
 30
0.0
 70
0
  0
VERTEX
  5
16B
330
31
100
AcDbEntity
  8
8
100
AcDbVertex
100
AcDb2dVertex
 10
1690.0595703820836
 20
-99.12103312749366
 30
0.0
 70
0
  0
VERTEX
  5
16C
330
31
100
AcDbEntity
  8
8
100
AcDbVertex
100
AcDb2dVertex
 10
1748.812473482557
 20
-64.89944978926542
 30
0.0
 70
0
  0
VERTEX
  5
16D
330
31
100
AcDbEntity
  8
8
100
AcDbVertex
100
AcDb2dVertex
 10
1783.7741043434585
 20
-45.23030411515231
 30
0.0
 70
0
  0
VERTEX
  5
16E
330
31
100
AcDbEntity
  8
8
100
AcDbVertex
100
AcDb2dVertex
 10
1819.327031789273
 20
-25.933157807943758
 30
0.0
 70
0
  0
VERTEX
  5
16F
330
31
100
AcDbEntity
  8
8
100
AcDbVertex
100
AcDb2dVertex
 10
1863.2806238243074
 20
-2.982793056331502
 30
0.0
 70
0
  0
VERTEX
  5
170
330
31
100
AcDbEntity
  8
8
100
AcDbVertex
100
AcDb2dVertex
 10
1894.8081488288008
 20
12.926839688327846
 30
0.0
 70
0
  0
VERTEX
  5
171
330
31
100
AcDbEntity
  8
8
100
AcDbVertex
100
AcDb2dVertex
 10
1959.1428800777785
 20
43.9599659593996
 30
0.0
 70
0
  0
VERTEX
  5
172
330
31
100
AcDbEntity
  8
8
100
AcDbVertex
100
AcDb2dVertex
 10
2030.7537197951187
 20
76.41224033790809
 30
0.0
 70
0
  0
VERTEX
  5
173
330
31
100
AcDbEntity
  8
8
100
AcDbVertex
100
AcDb2dVertex
 10
2070.1193872322974
 20
93.4184276493794
 30
0.0
 70
0
  0
VERTEX
  5
174
330
31
100
AcDbEntity
  8
8
100
AcDbVertex
100
AcDb2dVertex
 10
2101.4903726947714
 20
106.46625015515201
 30
0.0
 70
0
  0
VERTEX
  5
175
330
31
100
AcDbEntity
  8
8
100
AcDbVertex
100
AcDb2dVertex
 10
2144.802299387246
 20
123.98315898747967
 30
0.0
 70
0
  0
VERTEX
  5
176
330
31
100
AcDbEntity
  8
8
100
AcDbVertex
100
AcDb2dVertex
 10
2182.8760822001555
 20
138.8340727758092
 30
0.0
 70
0
  0
VERTEX
  5
177
330
31
100
AcDbEntity
  8
8
100
AcDbVertex
100
AcDb2dVertex
 10
2266.6142168458723
 20
169.70983081333554
 30
0.0
 70
0
  0
VERTEX
  5
178
330
31
100
AcDbEntity
  8
8
100
AcDbVertex
100
AcDb2dVertex
 10
2269.3995904349053
 20
171.26738116921842
 30
0.0
 70
0
  0
VERTEX
  5
179
330
31
100
AcDbEntity
  8
8
100
AcDbVertex
100
AcDb2dVertex
 10
2313.4140791154136
 20
220.60859700923095
 30
0.0
 70
0
  0
VERTEX
  5
17A
330
31
100
AcDbEntity
  8
8
100
AcDbVertex
100
AcDb2dVertex
 10
2345.63617228427
 20
255.25405578644973
 30
0.0
 70
0
  0
VERTEX
  5
17B
330
31
100
AcDbEntity
  8
8
100
AcDbVertex
100
AcDb2dVertex
 10
2392.2997555037814
 20
302.9084815697654
 30
0.0
 70
0
  0
VERTEX
  5
17C
330
31
100
AcDbEntity
  8
8
100
AcDbVertex
100
AcDb2dVertex
 10
2421.173005573644
 20
331.04661893830166
 30
0.0
 70
0
  0
VERTEX
  5
17D
330
31
100
AcDbEntity
  8
8
100
AcDbVertex
100
AcDb2dVertex
 10
2453.3468236288136
 20
361.3301914458492
 30
0.0
 70
0
  0
VERTEX
  5
17E
330
31
100
AcDbEntity
  8
8
100
AcDbVertex
100
AcDb2dVertex
 10
2503.6982345653487
 20
406.73074660984025
 30
0.0
 70
0
  0
VERTEX
  5
17F
330
31
100
AcDbEntity
  8
8
100
AcDbVertex
100
AcDb2dVertex
 10
2543.6976338552445
 20
441.3850737649984
 30
0.0
 70
0
  0
VERTEX
  5
180
330
31
100
AcDbEntity
  8
8
100
AcDbVertex
100
AcDb2dVertex
 10
2590.5162620261276
 20
480.1892925678992
 30
0.0
 70
0
  0
SEQEND
  5
130
330
31
100
AcDbEntity
  8
8
  0
ENDBLK
  5
33
330
31
100
AcDbEntity
  8
0
100
AcDbBlockEnd
  0
BLOCK
  5
184
330
183
100
AcDbEntity
  8
0
100
AcDbBlockBegin
  2
LEM
 70
0
 10
0.0
 20
0.0
 30
0.0
  3
LEM
  1

  0
POLYLINE
  5
186
330
183
100
AcDbEntity
  8
1
100
AcDb2dPolyline
 66
1
 70
0
  0
VERTEX
  5
188
330
183
100
AcDbEntity
  8
1
100
AcDbVertex
100
AcDb2dVertex
 10
2365.8409118652344
 20
176.2415771484375
 30
0.0
 70
0
  0
VERTEX
  5
189
330
183
100
AcDbEntity
  8
1
100
AcDbVertex
100
AcDb2dVertex
 10
2122.2242126464844
 20
137.6077880859375
 30
0.0
 70
0
  0
VERTEX
  5
18A
330
183
100
AcDbEntity
  8
1
100
AcDbVertex
100
AcDb2dVertex
 10
2099.6585388183594
 20
134.8665771484375
 30
0.0
 70
0
  0
VERTEX
  5
18B
330
183
100
AcDbEntity
  8
1
100
AcDbVertex
100
AcDb2dVertex
 10
1399.0584411621094
 20
59.31201171875
 30
0.0
 70
0
  0
VERTEX
  5
18C
330
183
100
AcDbEntity
  8
1
100
AcDbVertex
100
AcDb2dVertex
 10
690.3777770996094
 20
-9.4033203125
 30
0.0
 70
0
  0
VERTEX
  5
18D
330
183
100
AcDbEntity
  8
1
100
AcDbVertex
100
AcDb2dVertex
 10
598.9537048339844
 20
-17.7301025390625
 30
0.0
 70
0
  0
VERTEX
  5
18E
330
183
100
AcDbEntity
  8
1
100
AcDbVertex
100
AcDb2dVertex
 10
-222.71401977539062
 20
-89.139404296875
 30
0.0
 70
0
  0
VERTEX
  5
18F
330
183
100
AcDbEntity
  8
1
100
AcDbVertex
100
AcDb2dVertex
 10
-1043.5926208496094
 20
-156.349853515625
 30
0.0
 70
0
  0
VERTEX
  5
190
330
183
100
AcDbEntity
  8
1
100
AcDbVertex
100
AcDb2dVertex
 10
-1850.8322296142578
 20
-243.5462646484375
 30
0.0
 70
0
  0
VERTEX
  5
191
330
183
100
AcDbEntity
  8
1
100
AcDbVertex
100
AcDb2dVertex
 10
-2423.2618103027344
 20
-315.468017578125
 30
0.0
 70
0
  0
VERTEX
  5
192
330
183
100
AcDbEntity
  8
1
100
AcDbVertex
100
AcDb2dVertex
 10
-2426.222137451172
 20
-315.3756103515625
 30
0.0
 70
0
  0
VERTEX
  5
193
330
183
100
AcDbEntity
  8
1
100
AcDbVertex
100
AcDb2dVertex
 10
-2429.0731506347656
 20
-314.580810546875
 30
0.0
 70
0
  0
VERTEX
  5
194
330
183
100
AcDbEntity
  8
1
100
AcDbVertex
100
AcDb2dVertex
 10
-2431.302215576172
 20
-313.375732421875
 30
0.0
 70
0
  0
VERTEX
  5
195
330
183
100
AcDbEntity
  8
1
100
AcDbVertex
100
AcDb2dVertex
 10
-2433.2432556152344
 20
-311.7442626953125
 30
0.0
 70
0
  0
VERTEX
  5
196
330
183
100
AcDbEntity
  8
1
100
AcDbVertex
100
AcDb2dVertex
 10
-2457.558807373047
 20
-275.7225341796875
 30
0.0
 70
0
  0
VERTEX
  5
197
330
183
100
AcDbEntity
  8
1
100
AcDbVertex
100
AcDb2dVertex
 10
-2499.6790466308594
 20
-210.8798828125
 30
0.0
 70
0
  0
VERTEX
  5
198
330
183
100
AcDbEntity
  8
1
100
AcDbVertex
100
AcDb2dVertex
 10
-2530.398895263672
 20
-161.58203125
 30
0.0
 70
0
  0
VERTEX
  5
199
330
183
100
AcDbEntity
  8
1
100
AcDbVertex
100
AcDb2dVertex
 10
-2560.033721923828
 20
-111.826904296875
 30
0.0
 70
0
  0
VERTEX
  5
19A
330
183
100
AcDbEntity
  8
1
100
AcDbVertex
100
AcDb2dVertex
 10
-2578.9374084472656
 20
-78.5552978515625
 30
0.0
 70
0
  0
VERTEX
  5
19B
330
183
100
AcDbEntity
  8
1
100
AcDbVertex
100
AcDb2dVertex
 10
-2600.4981994628906
 20
-38.8663330078125
 30
0.0
 70
0
  0
VERTEX
  5
19C
330
183
100
AcDbEntity
  8
1
100
AcDbVertex
100
AcDb2dVertex
 10
-2601.991241455078
 20
-35.4254150390625
 30
0.0
 70
0
  0
VERTEX
  5
19D
330
183
100
AcDbEntity
  8
1
100
AcDbVertex
100
AcDb2dVertex
 10
-2602.4561462402344
 20
-31.6956787109375
 30
0.0
 70
0
  0
VERTEX
  5
19E
330
183
100
AcDbEntity
  8
1
100
AcDbVertex
100
AcDb2dVertex
 10
-2601.983856201172
 20
-28.594970703125
 30
0.0
 70
0
  0
VERTEX
  5
19F
330
183
100
AcDbEntity
  8
1
100
AcDbVertex
100
AcDb2dVertex
 10
-2601.0110778808594
 20
-26.1182861328125
 30
0.0
 70
0
  0
VERTEX
  5
1A0
330
183
100
AcDbEntity
  8
1
100
AcDbVertex
100
AcDb2dVertex
 10
-2599.534698486328
 20
-23.90478515625
 30
0.0
 70
0
  0
VERTEX
  5
1A1
330
183
100
AcDbEntity
  8
1
100
AcDbVertex
100
AcDb2dVertex
 10
-2585.8854064941406
 20
-10.1612548828125
 30
0.0
 70
0
  0
VERTEX
  5
1A2
330
183
100
AcDbEntity
  8
1
100
AcDbVertex
100
AcDb2dVertex
 10
-2574.0821228027344
 20
6.684814453125
 30
0.0
 70
0
  0
VERTEX
  5
1A3
330
183
100
AcDbEntity
  8
1
100
AcDbVertex
100
AcDb2dVertex
 10
-2565.142364501953
 20
25.4443359375
 30
0.0
 70
0
  0
VERTEX
  5
1A4
330
183
100
AcDbEntity
  8
1
100
AcDbVertex
100
AcDb2dVertex
 10
-2559.6507263183594
 20
42.8330078125
 30
0.0
 70
0
  0
VERTEX
  5
1A5
330
183
100
AcDbEntity
  8
1
100
AcDbVertex
100
AcDb2dVertex
 10
-2555.997100830078
 20
59.804443359375
 30
0.0
 70
0
  0
VERTEX
  5
1A6
330
183
100
AcDbEntity
  8
1
100
AcDbVertex
100
AcDb2dVertex
 10
-2553.726531982422
 20
76.5235595703125
 30
0.0
 70
0
  0
VERTEX
  5
1A7
330
183
100
AcDbEntity
  8
1
100
AcDbVertex
100
AcDb2dVertex
 10
-2552.5890197753906
 20
93.1376953125
 30
0.0
 70
0
  0
VERTEX
  5
1A8
330
183
100
AcDbEntity
  8
1
100
AcDbVertex
100
AcDb2dVertex
 10
-2551.9849548339844
 20
129.5499267578125
 30
0.0
 70
0
  0
VERTEX
  5
1A9
330
183
100
AcDbEntity
  8
1
100
AcDbVertex
100
AcDb2dVertex
 10
-2549.8253479003906
 20
133.99169921875
 30
0.0
 70
0
  0
VERTEX
  5
1AA
330
183
100
AcDbEntity
  8
1
100
AcDbVertex
100
AcDb2dVertex
 10
-2547.280487060547
 20
136.5545654296875
 30
0.0
 70
0
  0
VERTEX
  5
1AB
330
183
100
AcDbEntity
  8
1
100
AcDbVertex
100
AcDb2dVertex
 10
-2544.165008544922
 20
138.2841796875
 30
0.0
 70
0
  0
VERTEX
  5
1AC
330
183
100
AcDbEntity
  8
1
100
AcDbVertex
100
AcDb2dVertex
 10
-2540.726104736328
 20
139.0567626953125
 30
0.0
 70
0
  0
VERTEX
  5
1AD
330
183
100
AcDbEntity
  8
1
100
AcDbVertex
100
AcDb2dVertex
 10
-2537.2323303222656
 20
138.8212890625
 30
0.0
 70
0
  0
VERTEX
  5
1AE
330
183
100
AcDbEntity
  8
1
100
AcDbVertex
100
AcDb2dVertex
 10
-2533.910125732422
 20
137.522705078125
 30
0.0
 70
0
  0
VERTEX
  5
1AF
330
183
100
AcDbEntity
  8
1
100
AcDbVertex
100
AcDb2dVertex
 10
-2531.2052307128906
 20
135.3302001953125
 30
0.0
 70
0
  0
VERTEX
  5
1B0
330
183
100
AcDbEntity
  8
1
100
AcDbVertex
100
AcDb2dVertex
 10
-2528.138458251953
 20
130.60302734375
 30
0.0
 70
0
  0
VERTEX
  5
1B1
330
183
100
AcDbEntity
  8
1
100
AcDbVertex
100
AcDb2dVertex
 10
-2527.133087158203
 20
130.5333251953125
 30
0.0
 70
0
  0
VERTEX
  5
1B2
330
183
100
AcDbEntity
  8
1
100
AcDbVertex
100
AcDb2dVertex
 10
-2039.4783630371094
 20
158.1865234375
 30
0.0
 70
0
  0
VERTEX
  5
1B3
330
183
100
AcDbEntity
  8
1
100
AcDbVertex
100
AcDb2dVertex
 10
-1203.0835876464844
 20
203.13916015625
 30
0.0
 70
0
  0
VERTEX
  5
1B4
330
183
100
AcDbEntity
  8
1
100
AcDbVertex
100
AcDb2dVertex
 10
-266.8482971191406
 20
245.095947265625
 30
0.0
 70
0
  0
VERTEX
  5
1B5
330
183
100
AcDbEntity
  8
1
100
AcDbVertex
100
AcDb2dVertex
 10
578.7105407714844
 20
280.78564453125
 30
0.0
 70
0
  0
VERTEX
  5
1B6
330
183
100
AcDbEntity
  8
1
100
AcDbVertex
100
AcDb2dVertex
 10
1283.4913024902344
 20
308.871337890625
 30
0.0
 70
0
  0
VERTEX
  5
1B7
330
183
100
AcDbEntity
  8
1
100
AcDbVertex
100
AcDb2dVertex
 10
1640.9893493652344
 20
310.95654296875
 30
0.0
 70
0
  0
VERTEX
  5
1B8
330
183
100
AcDbEntity
  8
1
100
AcDbVertex
100
AcDb2dVertex
 10
2042.5633239746094
 20
313.833740234375
 30
0.0
 70
0
  0
VERTEX
  5
1B9
330
183
100
AcDbEntity
  8
1
100
AcDbVertex
100
AcDb2dVertex
 10
2183.7339782714844
 20
313.208740234375
 30
0.0
 70
0
  0
VERTEX
  5
1BA
330
183
100
AcDbEntity
  8
1
100
AcDbVertex
100
AcDb2dVertex
 10
2331.5860290527344
 20
313.5322265625
 30
0.0
 70
0
  0
VERTEX
  5
1BB
330
183
100
AcDbEntity
  8
1
100
AcDbVertex
100
AcDb2dVertex
 10
2382.4253845214844
 20
314.774658203125
 30
0.0
 70
0
  0
VERTEX
  5
1BC
330
183
100
AcDbEntity
  8
1
100
AcDbVertex
100
AcDb2dVertex
 10
2431.3702087402344
 20
315.30810546875
 30
0.0
 70
0
  0
VERTEX
  5
1BD
330
183
100
AcDbEntity
  8
1
100
AcDbVertex
100
AcDb2dVertex
 10
2504.3086853027344
 20
315.44970703125
 30
0.0
 70
0
  0
VERTEX
  5
1BE
330
183
100
AcDbEntity
  8
1
100
AcDbVertex
100
AcDb2dVertex
 10
2558.3897399902344
 20
315.060302734375
 30
0.0
 70
0
  0
VERTEX
  5
1BF
330
183
100
AcDbEntity
  8
1
100
AcDbVertex
100
AcDb2dVertex
 10
2561.2925720214844
 20
314.02197265625
 30
0.0
 70
0
  0
VERTEX
  5
1C0
330
183
100
AcDbEntity
  8
1
100
AcDbVertex
100
AcDb2dVertex
 10
2563.7154235839844
 20
312.114501953125
 30
0.0
 70
0
  0
VERTEX
  5
1C1
330
183
100
AcDbEntity
  8
1
100
AcDbVertex
100
AcDb2dVertex
 10
2565.4595642089844
 20
309.3994140625
 30
0.0
 70
0
  0
VERTEX
  5
1C2
330
183
100
AcDbEntity
  8
1
100
AcDbVertex
100
AcDb2dVertex
 10
2568.2437438964844
 20
301.704833984375
 30
0.0
 70
0
  0
VERTEX
  5
1C3
330
183
100
AcDbEntity
  8
1
100
AcDbVertex
100
AcDb2dVertex
 10
2570.4771423339844
 20
289.72412109375
 30
0.0
 70
0
  0
VERTEX
  5
1C4
330
183
100
AcDbEntity
  8
1
100
AcDbVertex
100
AcDb2dVertex
 10
2572.2100524902344
 20
283.406494140625
 30
0.0
 70
0
  0
VERTEX
  5
1C5
330
183
100
AcDbEntity
  8
1
100
AcDbVertex
100
AcDb2dVertex
 10
2578.0020446777344
 20
268.53271484375
 30
0.0
 70
0
  0
VERTEX
  5
1C6
330
183
100
AcDbEntity
  8
1
100
AcDbVertex
100
AcDb2dVertex
 10
2586.8985290527344
 20
252.047607421875
 30
0.0
 70
0
  0
VERTEX
  5
1C7
330
183
100
AcDbEntity
  8
1
100
AcDbVertex
100
AcDb2dVertex
 10
2600.4322204589844
 20
231.2470703125
 30
0.0
 70
0
  0
VERTEX
  5
1C8
330
183
100
AcDbEntity
  8
1
100
AcDbVertex
100
AcDb2dVertex
 10
2601.7427673339844
 20
228.605712890625
 30
0.0
 70
0
  0
VERTEX
  5
1C9
330
183
100
AcDbEntity
  8
1
100
AcDbVertex
100
AcDb2dVertex
 10
2602.3843688964844
 20
225.85107421875
 30
0.0
 70
0
  0
VERTEX
  5
1CA
330
183
100
AcDbEntity
  8
1
100
AcDbVertex
100
AcDb2dVertex
 10
2602.3853454589844
 20
222.977294921875
 30
0.0
 70
0
  0
VERTEX
  5
1CB
330
183
100
AcDbEntity
  8
1
100
AcDbVertex
100
AcDb2dVertex
 10
2601.6460876464844
 20
219.953857421875
 30
0.0
 70
0
  0
VERTEX
  5
1CC
330
183
100
AcDbEntity
  8
1
100
AcDbVertex
100
AcDb2dVertex
 10
2599.8038024902344
 20
216.697265625
 30
0.0
 70
0
  0
VERTEX
  5
1CD
330
183
100
AcDbEntity
  8
1
100
AcDbVertex
100
AcDb2dVertex
 10
2597.4068298339844
 20
214.3623046875
 30
0.0
 70
0
  0
VERTEX
  5
1CE
330
183
100
AcDbEntity
  8
1
100
AcDbVertex
100
AcDb2dVertex
 10
2594.4766540527344
 20
212.748291015625
 30
0.0
 70
0
  0
VERTEX
  5
1CF
330
183
100
AcDbEntity
  8
1
100
AcDbVertex
100
AcDb2dVertex
 10
2587.2652282714844
 20
211.32275390625
 30
0.0
 70
0
  0
VERTEX
  5
1D0
330
183
100
AcDbEntity
  8
1
100
AcDbVertex
100
AcDb2dVertex
 10
2365.8409118652344
 20
176.2415771484375
 30
0.0
 70
0
  0
SEQEND
  5
187
330
183
100
AcDbEntity
  8
1
  0
POLYLINE
  5
1D1
330
183
100
AcDbEntity
  8
8
100
AcDb2dPolyline
 66
1
 70
0
  0
VERTEX
  5
1D3
330
183
100
AcDbEntity
  8
8
100
AcDbVertex
100
AcDb2dVertex
 10
-2418.621335322544
 20
-322.68419712222135
 30
0.0
 70
0
  0
VERTEX
  5
1D4
330
183
100
AcDbEntity
  8
8
100
AcDbVertex
100
AcDb2dVertex
 10
-2429.268109839157
 20
-306.7875555169169
 30
0.0
 70
0
  0
VERTEX
  5
1D5
330
183
100
AcDbEntity
  8
8
100
AcDbVertex
100
AcDb2dVertex
 10
-2430.3993005711613
 20
-304.3161179263607
 30
0.0
 70
0
  0
VERTEX
  5
1D6
330
183
100
AcDbEntity
  8
8
100
AcDbVertex
100
AcDb2dVertex
 10
-2430.539189595207
 20
-302.9562520971358
 30
0.0
 70
0
  0
VERTEX
  5
1D7
330
183
100
AcDbEntity
  8
8
100
AcDbVertex
100
AcDb2dVertex
 10
-2429.9245080852165
 20
-300.30809899302926
 30
0.0
 70
0
  0
VERTEX
  5
1D8
330
183
100
AcDbEntity
  8
8
100
AcDbVertex
100
AcDb2dVertex
 10
-2428.238330250016
 20
-298.1542079525975
 30
0.0
 70
0
  0
VERTEX
  5
1D9
330
183
100
AcDbEntity
  8
8
100
AcDbVertex
100
AcDb2dVertex
 10
-2425.957755449264
 20
-296.96791574930603
 30
0.0
 70
0
  0
VERTEX
  5
1DA
330
183
100
AcDbEntity
  8
8
100
AcDbVertex
100
AcDb2dVertex
 10
-1840.1856376644807
 20
-223.4993733484389
 30
0.0
 70
0
  0
VERTEX
  5
1DB
330
183
100
AcDbEntity
  8
8
100
AcDbVertex
100
AcDb2dVertex
 10
-1055.289436465009
 20
-138.74226313703525
 30
0.0
 70
0
  0
VERTEX
  5
1DC
330
183
100
AcDbEntity
  8
8
100
AcDbVertex
100
AcDb2dVertex
 10
-1032.6522459978346
 20
-136.62026634070253
 30
0.0
 70
0
  0
VERTEX
  5
1DD
330
183
100
AcDbEntity
  8
8
100
AcDbVertex
100
AcDb2dVertex
 10
-211.69283162493912
 20
-69.39327662949404
 30
0.0
 70
0
  0
VERTEX
  5
1DE
330
183
100
AcDbEntity
  8
8
100
AcDbVertex
100
AcDb2dVertex
 10
541.5084875172138
 20
-3.953034279820713
 30
0.0
 70
0
  0
VERTEX
  5
1DF
330
183
100
AcDbEntity
  8
8
100
AcDbVertex
100
AcDb2dVertex
 10
678.56999048425
 20
8.28736600001207
 30
0.0
 70
0
  0
VERTEX
  5
1E0
330
183
100
AcDbEntity
  8
8
100
AcDbVertex
100
AcDb2dVertex
 10
1387.2545113768529
 20
76.9876251110984
 30
0.0
 70
0
  0
VERTEX
  5
1E1
330
183
100
AcDbEntity
  8
8
100
AcDbVertex
100
AcDb2dVertex
 10
2110.360785338831
 20
154.90830035572867
 30
0.0
 70
0
  0
VERTEX
  5
1E2
330
183
100
AcDbEntity
  8
8
100
AcDbVertex
100
AcDb2dVertex
 10
2588.2314248355924
 20
230.5096693424871
 30
0.0
 70
0
  0
VERTEX
  5
1E3
330
183
100
AcDbEntity
  8
8
100
AcDbVertex
100
AcDb2dVertex
 10
2591.5054865229604
 20
230.4985464901888
 30
0.0
 70
0
  0
VERTEX
  5
1E4
330
183
100
AcDbEntity
  8
8
100
AcDbVertex
100
AcDb2dVertex
 10
2594.1224126564957
 20
229.0876801582608
 30
0.0
 70
0
  0
VERTEX
  5
1E5
330
183
100
AcDbEntity
  8
8
100
AcDbVertex
100
AcDb2dVertex
 10
2604.367835540389
 20
214.54991092880164
 30
0.0
 70
0
  0
SEQEND
  5
1D2
330
183
100
AcDbEntity
  8
8
  0
POLYLINE
  5
1E6
330
183
100
AcDbEntity
  8
8
100
AcDb2dPolyline
 66
1
 70
0
  0
VERTEX
  5
1E8
330
183
100
AcDbEntity
  8
8
100
AcDbVertex
100
AcDb2dVertex
 10
-2541.70514200045
 20
118.26616398473652
 30
0.0
 70
0
  0
VERTEX
  5
1E9
330
183
100
AcDbEntity
  8
8
100
AcDbVertex
100
AcDb2dVertex
 10
-2542.322391893307
 20
126.19517773995176
 30
0.0
 70
0
  0
VERTEX
  5
1EA
330
183
100
AcDbEntity
  8
8
100
AcDbVertex
100
AcDb2dVertex
 10
-2547.3303908760413
 20
141.4726309669163
 30
0.0
 70
0
  0
VERTEX
  5
1EB
330
183
100
AcDbEntity
  8
8
100
AcDbVertex
100
AcDb2dVertex
 10
-2550.4914542000824
 20
145.1419356551139
 30
0.0
 70
0
  0
VERTEX
  5
1EC
330
183
100
AcDbEntity
  8
8
100
AcDbVertex
100
AcDb2dVertex
 10
-2552.9835401338705
 20
148.91345126481042
 30
0.0
 70
0
  0
SEQEND
  5
1E7
330
183
100
AcDbEntity
  8
8
  0
POLYLINE
  5
1ED
330
183
100
AcDbEntity
  8
8
100
AcDb2dPolyline
 66
1
 70
0
  0
VERTEX
  5
1EF
330
183
100
AcDbEntity
  8
8
100
AcDbVertex
100
AcDb2dVertex
 10
2569.5555451586606
 20
311.8245484910112
 30
0.0
 70
0
  0
VERTEX
  5
1F0
330
183
100
AcDbEntity
  8
8
100
AcDbVertex
100
AcDb2dVertex
 10
2562.7505065345977
 20
301.7459444811125
 30
0.0
 70
0
  0
VERTEX
  5
1F1
330
183
100
AcDbEntity
  8
8
100
AcDbVertex
100
AcDb2dVertex
 10
2562.39738192225
 20
300.5451162942818
 30
0.0
 70
0
  0
VERTEX
  5
1F2
330
183
100
AcDbEntity
  8
8
100
AcDbVertex
100
AcDb2dVertex
 10
2562.4871811430057
 20
296.22561061450415
 30
0.0
 70
0
  0
VERTEX
  5
1F3
330
183
100
AcDbEntity
  8
8
100
AcDbVertex
100
AcDb2dVertex
 10
2561.744850721627
 20
294.4480329360649
 30
0.0
 70
0
  0
VERTEX
  5
1F4
330
183
100
AcDbEntity
  8
8
100
AcDbVertex
100
AcDb2dVertex
 10
2560.493327837399
 20
292.9443910534692
 30
0.0
 70
0
  0
VERTEX
  5
1F5
330
183
100
AcDbEntity
  8
8
100
AcDbVertex
100
AcDb2dVertex
 10
2558.87804208145
 20
291.9539490579491
 30
0.0
 70
0
  0
VERTEX
  5
1F6
330
183
100
AcDbEntity
  8
8
100
AcDbVertex
100
AcDb2dVertex
 10
2557.033501401411
 20
291.4948968171543
 30
0.0
 70
0
  0
VERTEX
  5
1F7
330
183
100
AcDbEntity
  8
8
100
AcDbVertex
100
AcDb2dVertex
 10
2043.4586443806638
 20
294.6120084490176
 30
0.0
 70
0
  0
VERTEX
  5
1F8
330
183
100
AcDbEntity
  8
8
100
AcDbVertex
100
AcDb2dVertex
 10
1285.6026546130774
 20
290.1059205138358
 30
0.0
 70
0
  0
VERTEX
  5
1F9
330
183
100
AcDbEntity
  8
8
100
AcDbVertex
100
AcDb2dVertex
 10
604.4644906839362
 20
263.1044345620662
 30
0.0
 70
0
  0
VERTEX
  5
1FA
330
183
100
AcDbEntity
  8
8
100
AcDbVertex
100
AcDb2dVertex
 10
-263.97239921507276
 20
226.64596403860833
 30
0.0
 70
0
  0
VERTEX
  5
1FB
330
183
100
AcDbEntity
  8
8
100
AcDbVertex
100
AcDb2dVertex
 10
-1105.9273460807647
 20
189.1523797242594
 30
0.0
 70
0
  0
VERTEX
  5
1FC
330
183
100
AcDbEntity
  8
8
100
AcDbVertex
100
AcDb2dVertex
 10
-1222.808870988564
 20
183.7795781692207
 30
0.0
 70
0
  0
VERTEX
  5
1FD
330
183
100
AcDbEntity
  8
8
100
AcDbVertex
100
AcDb2dVertex
 10
-2035.1869572854762
 20
140.22246119287252
 30
0.0
 70
0
  0
VERTEX
  5
1FE
330
183
100
AcDbEntity
  8
8
100
AcDbVertex
100
AcDb2dVertex
 10
-2521.438534925361
 20
112.7757295878323
 30
0.0
 70
0
  0
VERTEX
  5
1FF
330
183
100
AcDbEntity
  8
8
100
AcDbVertex
100
AcDb2dVertex
 10
-2536.6094073861623
 20
112.09821713142969
 30
0.0
 70
0
  0
VERTEX
  5
200
330
183
100
AcDbEntity
  8
8
100
AcDbVertex
100
AcDb2dVertex
 10
-2538.612687599522
 20
112.89242467086888
 30
0.0
 70
0
  0
VERTEX
  5
201
330
183
100
AcDbEntity
  8
8
100
AcDbVertex
100
AcDb2dVertex
 10
-2540.234347762258
 20
114.31030961875535
 30
0.0
 70
0
  0
VERTEX
  5
202
330
183
100
AcDbEntity
  8
8
100
AcDbVertex
100
AcDb2dVertex
 10
-2541.279340664484
 20
116.17607226052337
 30
0.0
 70
0
  0
VERTEX
  5
203
330
183
100
AcDbEntity
  8
8
100
AcDbVertex
100
AcDb2dVertex
 10
-2541.70514200045
 20
118.26616398473652
 30
0.0
 70
0
  0
SEQEND
  5
1EE
330
183
100
AcDbEntity
  8
8
  0
POLYLINE
  5
204
330
183
100
AcDbEntity
  8
8
100
AcDb2dPolyline
 66
1
 70
0
  0
VERTEX
  5
206
330
183
100
AcDbEntity
  8
8
100
AcDbVertex
100
AcDb2dVertex
 10
-1879.9439171112392
 20
-274.5082967313049
 30
0.0
 70
0
  0
VERTEX
  5
207
330
183
100
AcDbEntity
  8
8
100
AcDbVertex
100
AcDb2dVertex
 10
-1925.2799405315513
 20
-210.749353952682
 30
0.0
 70
0
  0
VERTEX
  5
208
330
183
100
AcDbEntity
  8
8
100
AcDbVertex
100
AcDb2dVertex
 10
-1946.1408842367591
 20
-180.60523123578355
 30
0.0
 70
0
  0
VERTEX
  5
209
330
183
100
AcDbEntity
  8
8
100
AcDbVertex
100
AcDb2dVertex
 10
-1986.0635492010283
 20
-121.03045579188938
 30
0.0
 70
0
  0
VERTEX
  5
20A
330
183
100
AcDbEntity
  8
8
100
AcDbVertex
100
AcDb2dVertex
 10
-2005.139873110093
 20
-91.3474214764999
 30
0.0
 70
0
  0
VERTEX
  5
20B
330
183
100
AcDbEntity
  8
8
100
AcDbVertex
100
AcDb2dVertex
 10
-2024.2147297917072
 20
-60.60103100938659
 30
0.0
 70
0
  0
VERTEX
  5
20C
330
183
100
AcDbEntity
  8
8
100
AcDbVertex
100
AcDb2dVertex
 10
-2041.5650522597218
 20
-31.514612722163292
 30
0.0
 70
0
  0
VERTEX
  5
20D
330
183
100
AcDbEntity
  8
8
100
AcDbVertex
100
AcDb2dVertex
 10
-2057.1900430945334
 20
-4.179860078620777
 30
0.0
 70
0
  0
VERTEX
  5
20E
330
183
100
AcDbEntity
  8
8
100
AcDbVertex
100
AcDb2dVertex
 10
-2074.5941128399345
 20
27.83786746482292
 30
0.0
 70
0
  0
VERTEX
  5
20F
330
183
100
AcDbEntity
  8
8
100
AcDbVertex
100
AcDb2dVertex
 10
-2081.5640361758287
 20
41.631217453326144
 30
0.0
 70
0
  0
VERTEX
  5
210
330
183
100
AcDbEntity
  8
8
100
AcDbVertex
100
AcDb2dVertex
 10
-2090.2832591071074
 20
59.50769810889187
 30
0.0
 70
0
  0
VERTEX
  5
211
330
183
100
AcDbEntity
  8
8
100
AcDbVertex
100
AcDb2dVertex
 10
-2102.580472048216
 20
87.1496593792665
 30
0.0
 70
0
  0
VERTEX
  5
212
330
183
100
AcDbEntity
  8
8
100
AcDbVertex
100
AcDb2dVertex
 10
-2109.619332880591
 20
104.50875968448372
 30
0.0
 70
0
  0
VERTEX
  5
213
330
183
100
AcDbEntity
  8
8
100
AcDbVertex
100
AcDb2dVertex
 10
-2114.956785259543
 20
118.95868931680388
 30
0.0
 70
0
  0
VERTEX
  5
214
330
183
100
AcDbEntity
  8
8
100
AcDbVertex
100
AcDb2dVertex
 10
-2118.529362339813
 20
130.41990812750578
 30
0.0
 70
0
  0
VERTEX
  5
215
330
183
100
AcDbEntity
  8
8
100
AcDbVertex
100
AcDb2dVertex
 10
-2124.0145645400025
 20
149.5156675642038
 30
0.0
 70
0
  0
VERTEX
  5
216
330
183
100
AcDbEntity
  8
8
100
AcDbVertex
100
AcDb2dVertex
 10
-2126.9806461948256
 20
166.359760512531
 30
0.0
 70
0
  0
SEQEND
  5
205
330
183
100
AcDbEntity
  8
8
  0
POLYLINE
  5
217
330
183
100
AcDbEntity
  8
8
100
AcDb2dPolyline
 66
1
 70
0
  0
VERTEX
  5
219
330
183
100
AcDbEntity
  8
8
100
AcDbVertex
100
AcDb2dVertex
 10
-1104.9962713956854
 20
-181.95607590963027
 30
0.0
 70
0
  0
VERTEX
  5
21A
330
183
100
AcDbEntity
  8
8
100
AcDbVertex
100
AcDb2dVertex
 10
-1144.2903724677715
 20
-128.53591781724003
 30
0.0
 70
0
  0
VERTEX
  5
21B
330
183
100
AcDbEntity
  8
8
100
AcDbVertex
100
AcDb2dVertex
 10
-1171.0414417855072
 20
-90.65207636640002
 30
0.0
 70
0
  0
VERTEX
  5
21C
330
183
100
AcDbEntity
  8
8
100
AcDbVertex
100
AcDb2dVertex
 10
-1197.7757443798878
 20
-51.51284734876617
 30
0.0
 70
0
  0
VERTEX
  5
21D
330
183
100
AcDbEntity
  8
8
100
AcDbVertex
100
AcDb2dVertex
 10
-1215.5892106257163
 20
-24.34967139985065
 30
0.0
 70
0
  0
VERTEX
  5
21E
330
183
100
AcDbEntity
  8
8
100
AcDbVertex
100
AcDb2dVertex
 10
-1233.4011178133858
 20
3.931246325605116
 30
0.0
 70
0
  0
VERTEX
  5
21F
330
183
100
AcDbEntity
  8
8
100
AcDbVertex
100
AcDb2dVertex
 10
-1249.441344720387
 20
30.54144326195251
 30
0.0
 70
0
  0
VERTEX
  5
220
330
183
100
AcDbEntity
  8
8
100
AcDbVertex
100
AcDb2dVertex
 10
-1263.7422053458752
 20
55.40083008606507
 30
0.0
 70
0
  0
VERTEX
  5
221
330
183
100
AcDbEntity
  8
8
100
AcDbVertex
100
AcDb2dVertex
 10
-1278.089042582069
 20
81.65150198166634
 30
0.0
 70
0
  0
VERTEX
  5
222
330
183
100
AcDbEntity
  8
8
100
AcDbVertex
100
AcDb2dVertex
 10
-1286.9830118314064
 20
99.40491947922214
 30
0.0
 70
0
  0
VERTEX
  5
223
330
183
100
AcDbEntity
  8
8
100
AcDbVertex
100
AcDb2dVertex
 10
-1297.7904217304701
 20
122.48989099465939
 30
0.0
 70
0
  0
VERTEX
  5
224
330
183
100
AcDbEntity
  8
8
100
AcDbVertex
100
AcDb2dVertex
 10
-1305.0505285533848
 20
139.51908291957443
 30
0.0
 70
0
  0
VERTEX
  5
225
330
183
100
AcDbEntity
  8
8
100
AcDbVertex
100
AcDb2dVertex
 10
-1314.1254416024385
 20
163.55377568085487
 30
0.0
 70
0
  0
VERTEX
  5
226
330
183
100
AcDbEntity
  8
8
100
AcDbVertex
100
AcDb2dVertex
 10
-1321.7684109151319
 20
189.50503647390724
 30
0.0
 70
0
  0
VERTEX
  5
227
330
183
100
AcDbEntity
  8
8
100
AcDbVertex
100
AcDb2dVertex
 10
-1324.400189116397
 20
208.37537182599362
 30
0.0
 70
0
  0
SEQEND
  5
218
330
183
100
AcDbEntity
  8
8
  0
POLYLINE
  5
228
330
183
100
AcDbEntity
  8
8
100
AcDb2dPolyline
 66
1
 70
0
  0
VERTEX
  5
22A
330
183
100
AcDbEntity
  8
8
100
AcDbVertex
100
AcDb2dVertex
 10
-311.05901352872957
 20
-113.29222089713107
 30
0.0
 70
0
  0
VERTEX
  5
22B
330
183
100
AcDbEntity
  8
8
100
AcDbVertex
100
AcDb2dVertex
 10
-348.1858590058582
 20
-65.43280814868717
 30
0.0
 70
0
  0
VERTEX
  5
22C
330
183
100
AcDbEntity
  8
8
100
AcDbVertex
100
AcDb2dVertex
 10
-376.02710969177247
 20
-27.66193930694135
 30
0.0
 70
0
  0
VERTEX
  5
22D
330
183
100
AcDbEntity
  8
8
100
AcDbVertex
100
AcDb2dVertex
 10
-400.12694110685334
 20
6.348283169298156
 30
0.0
 70
0
  0
VERTEX
  5
22E
330
183
100
AcDbEntity
  8
8
100
AcDbVertex
100
AcDb2dVertex
 10
-416.81611351135393
 20
30.958590229222636
 30
0.0
 70
0
  0
VERTEX
  5
22F
330
183
100
AcDbEntity
  8
8
100
AcDbVertex
100
AcDb2dVertex
 10
-433.5033333014769
 20
56.68855418934413
 30
0.0
 70
0
  0
VERTEX
  5
230
330
183
100
AcDbEntity
  8
8
100
AcDbVertex
100
AcDb2dVertex
 10
-446.5096101272561
 20
77.66724202942555
 30
0.0
 70
0
  0
VERTEX
  5
231
330
183
100
AcDbEntity
  8
8
100
AcDbVertex
100
AcDb2dVertex
 10
-461.33737906961096
 20
102.855363203862
 30
0.0
 70
0
  0
VERTEX
  5
232
330
183
100
AcDbEntity
  8
8
100
AcDbVertex
100
AcDb2dVertex
 10
-476.1835464138312
 20
129.72503709707803
 30
0.0
 70
0
  0
VERTEX
  5
233
330
183
100
AcDbEntity
  8
8
100
AcDbVertex
100
AcDb2dVertex
 10
-487.33624045086276
 20
152.02775198851623
 30
0.0
 70
0
  0
VERTEX
  5
234
330
183
100
AcDbEntity
  8
8
100
AcDbVertex
100
AcDb2dVertex
 10
-494.80157397666494
 20
168.59436987155027
 30
0.0
 70
0
  0
VERTEX
  5
235
330
183
100
AcDbEntity
  8
8
100
AcDbVertex
100
AcDb2dVertex
 10
-502.3026025022798
 20
186.92258490084123
 30
0.0
 70
0
  0
VERTEX
  5
236
330
183
100
AcDbEntity
  8
8
100
AcDbVertex
100
AcDb2dVertex
 10
-508.0719160545368
 20
202.68308975119362
 30
0.0
 70
0
  0
VERTEX
  5
237
330
183
100
AcDbEntity
  8
8
100
AcDbVertex
100
AcDb2dVertex
 10
-511.87832081835654
 20
215.84125782394267
 30
0.0
 70
0
  0
VERTEX
  5
238
330
183
100
AcDbEntity
  8
8
100
AcDbVertex
100
AcDb2dVertex
 10
-513.7673462162561
 20
224.18837393210242
 30
0.0
 70
0
  0
VERTEX
  5
239
330
183
100
AcDbEntity
  8
8
100
AcDbVertex
100
AcDb2dVertex
 10
-516.4837852534483
 20
244.49095580324501
 30
0.0
 70
0
  0
SEQEND
  5
229
330
183
100
AcDbEntity
  8
8
  0
POLYLINE
  5
23A
330
183
100
AcDbEntity
  8
8
100
AcDb2dPolyline
 66
1
 70
0
  0
VERTEX
  5
23C
330
183
100
AcDbEntity
  8
8
100
AcDbVertex
100
AcDb2dVertex
 10
565.2986217470316
 20
-37.50116055713124
 30
0.0
 70
0
  0
VERTEX
  5
23D
330
183
100
AcDbEntity
  8
8
100
AcDbVertex
100
AcDb2dVertex
 10
529.3084657521263
 20
7.618414969844025
 30
0.0
 70
0
  0
VERTEX
  5
23E
330
183
100
AcDbEntity
  8
8
100
AcDbVertex
100
AcDb2dVertex
 10
514.1666443068661
 20
27.517146755081512
 30
0.0
 70
0
  0
VERTEX
  5
23F
330
183
100
AcDbEntity
  8
8
100
AcDbVertex
100
AcDb2dVertex
 10
491.5209063502848
 20
58.41405242018641
 30
0.0
 70
0
  0
VERTEX
  5
240
330
183
100
AcDbEntity
  8
8
100
AcDbVertex
100
AcDb2dVertex
 10
476.4347272338605
 20
79.92757582291006
 30
0.0
 70
0
  0
VERTEX
  5
241
330
183
100
AcDbEntity
  8
8
100
AcDbVertex
100
AcDb2dVertex
 10
463.2460216042664
 20
99.60651189905252
 30
0.0
 70
0
  0
VERTEX
  5
242
330
183
100
AcDbEntity
  8
8
100
AcDbVertex
100
AcDb2dVertex
 10
448.18112103855856
 20
123.48036503475555
 30
0.0
 70
0
  0
VERTEX
  5
243
330
183
100
AcDbEntity
  8
8
100
AcDbVertex
100
AcDb2dVertex
 10
436.87201947230346
 20
142.44880216340562
 30
0.0
 70
0
  0
VERTEX
  5
244
330
183
100
AcDbEntity
  8
8
100
AcDbVertex
100
AcDb2dVertex
 10
418.0192836959634
 20
177.1378469523056
 30
0.0
 70
0
  0
VERTEX
  5
245
330
183
100
AcDbEntity
  8
8
100
AcDbVertex
100
AcDb2dVertex
 10
408.62108015096646
 20
196.87570371999254
 30
0.0
 70
0
  0
VERTEX
  5
246
330
183
100
AcDbEntity
  8
8
100
AcDbVertex
100
AcDb2dVertex
 10
399.0816057287127
 20
220.0406417635395
 30
0.0
 70
0
  0
VERTEX
  5
247
330
183
100
AcDbEntity
  8
8
100
AcDbVertex
100
AcDb2dVertex
 10
393.33511348099296
 20
236.41645238465662
 30
0.0
 70
0
  0
VERTEX
  5
248
330
183
100
AcDbEntity
  8
8
100
AcDbVertex
100
AcDb2dVertex
 10
389.5014753258379
 20
249.7383141007772
 30
0.0
 70
0
  0
VERTEX
  5
249
330
183
100
AcDbEntity
  8
8
100
AcDbVertex
100
AcDb2dVertex
 10
387.6351294621936
 20
257.7587278589285
 30
0.0
 70
0
  0
VERTEX
  5
24A
330
183
100
AcDbEntity
  8
8
100
AcDbVertex
100
AcDb2dVertex
 10
385.1521018217959
 20
279.7573477386177
 30
0.0
 70
0
  0
SEQEND
  5
23B
330
183
100
AcDbEntity
  8
8
  0
POLYLINE
  5
24B
330
183
100
AcDbEntity
  8
8
100
AcDb2dPolyline
 66
1
 70
0
  0
VERTEX
  5
24D
330
183
100
AcDbEntity
  8
8
100
AcDbVertex
100
AcDb2dVertex
 10
1244.3789791274612
 20
31.122669626075094
 30
0.0
 70
0
  0
VERTEX
  5
24E
330
183
100
AcDbEntity
  8
8
100
AcDbVertex
100
AcDb2dVertex
 10
1208.0004126827375
 20
71.65316645076291
 30
0.0
 70
0
  0
VERTEX
  5
24F
330
183
100
AcDbEntity
  8
8
100
AcDbVertex
100
AcDb2dVertex
 10
1173.8231146267894
 20
112.25713389288535
 30
0.0
 70
0
  0
VERTEX
  5
250
330
183
100
AcDbEntity
  8
8
100
AcDbVertex
100
AcDb2dVertex
 10
1157.7762393819385
 20
132.56845753838888
 30
0.0
 70
0
  0
VERTEX
  5
251
330
183
100
AcDbEntity
  8
8
100
AcDbVertex
100
AcDb2dVertex
 10
1145.8116363506374
 20
148.590558871721
 30
0.0
 70
0
  0
VERTEX
  5
252
330
183
100
AcDbEntity
  8
8
100
AcDbVertex
100
AcDb2dVertex
 10
1131.797108939923
 20
168.4955580504129
 30
0.0
 70
0
  0
VERTEX
  5
253
330
183
100
AcDbEntity
  8
8
100
AcDbVertex
100
AcDb2dVertex
 10
1119.8252586464796
 20
186.89732733291294
 30
0.0
 70
0
  0
VERTEX
  5
254
330
183
100
AcDbEntity
  8
8
100
AcDbVertex
100
AcDb2dVertex
 10
1109.867048409104
 20
203.5193034587901
 30
0.0
 70
0
  0
VERTEX
  5
255
330
183
100
AcDbEntity
  8
8
100
AcDbVertex
100
AcDb2dVertex
 10
1101.9195507924433
 20
217.82879039555155
 30
0.0
 70
0
  0
VERTEX
  5
256
330
183
100
AcDbEntity
  8
8
100
AcDbVertex
100
AcDb2dVertex
 10
1093.8917239845587
 20
233.81918488316842
 30
0.0
 70
0
  0
VERTEX
  5
257
330
183
100
AcDbEntity
  8
8
100
AcDbVertex
100
AcDb2dVertex
 10
1085.8752425708772
 20
252.51934462675354
 30
0.0
 70
0
  0
VERTEX
  5
258
330
183
100
AcDbEntity
  8
8
100
AcDbVertex
100
AcDb2dVertex
 10
1079.847834344038
 20
269.6401582081062
 30
0.0
 70
0
  0
VERTEX
  5
259
330
183
100
AcDbEntity
  8
8
100
AcDbVertex
100
AcDb2dVertex
 10
1075.8356082610267
 20
284.64128903717665
 30
0.0
 70
0
  0
VERTEX
  5
25A
330
183
100
AcDbEntity
  8
8
100
AcDbVertex
100
AcDb2dVertex
 10
1073.5494085570162
 20
304.07773332037686
 30
0.0
 70
0
  0
SEQEND
  5
24C
330
183
100
AcDbEntity
  8
8
  0
POLYLINE
  5
25B
330
183
100
AcDbEntity
  8
8
100
AcDb2dPolyline
 66
1
 70
0
  0
VERTEX
  5
25D
330
183
100
AcDbEntity
  8
8
100
AcDbVertex
100
AcDb2dVertex
 10
1761.1122357900654
 20
85.57683727987751
 30
0.0
 70
0
  0
VERTEX
  5
25E
330
183
100
AcDbEntity
  8
8
100
AcDbVertex
100
AcDb2dVertex
 10
1711.1636460972895
 20
118.93979450875077
 30
0.0
 70
0
  0
VERTEX
  5
25F
330
183
100
AcDbEntity
  8
8
100
AcDbVertex
100
AcDb2dVertex
 10
1663.80775740613
 20
152.62280368388883
 30
0.0
 70
0
  0
VERTEX
  5
260
330
183
100
AcDbEntity
  8
8
100
AcDbVertex
100
AcDb2dVertex
 10
1646.3930897104156
 20
165.7255545219516
 30
0.0
 70
0
  0
VERTEX
  5
261
330
183
100
AcDbEntity
  8
8
100
AcDbVertex
100
AcDb2dVertex
 10
1626.5064218247107
 20
181.6347947127383
 30
0.0
 70
0
  0
VERTEX
  5
262
330
183
100
AcDbEntity
  8
8
100
AcDbVertex
100
AcDb2dVertex
 10
1609.1053328322214
 20
196.50317470544678
 30
0.0
 70
0
  0
VERTEX
  5
263
330
183
100
AcDbEntity
  8
8
100
AcDbVertex
100
AcDb2dVertex
 10
1594.2065689710362
 20
210.24182572156724
 30
0.0
 70
0
  0
VERTEX
  5
264
330
183
100
AcDbEntity
  8
8
100
AcDbVertex
100
AcDb2dVertex
 10
1581.791018999911
 20
222.66988143182243
 30
0.0
 70
0
  0
VERTEX
  5
265
330
183
100
AcDbEntity
  8
8
100
AcDbVertex
100
AcDb2dVertex
 10
1569.338399505043
 20
236.06338184047445
 30
0.0
 70
0
  0
VERTEX
  5
266
330
183
100
AcDbEntity
  8
8
100
AcDbVertex
100
AcDb2dVertex
 10
1556.8248656766996
 20
251.3958099413585
 30
0.0
 70
0
  0
VERTEX
  5
267
330
183
100
AcDbEntity
  8
8
100
AcDbVertex
100
AcDb2dVertex
 10
1549.3974876329348
 20
261.73229151087617
 30
0.0
 70
0
  0
VERTEX
  5
268
330
183
100
AcDbEntity
  8
8
100
AcDbVertex
100
AcDb2dVertex
 10
1541.8564921800325
 20
273.89440560439516
 30
0.0
 70
0
  0
VERTEX
  5
269
330
183
100
AcDbEntity
  8
8
100
AcDbVertex
100
AcDb2dVertex
 10
1536.7656430144575
 20
283.6054275420165
 30
0.0
 70
0
  0
VERTEX
  5
26A
330
183
100
AcDbEntity
  8
8
100
AcDbVertex
100
AcDb2dVertex
 10
1534.2511065614171
 20
289.3815242885348
 30
0.0
 70
0
  0
VERTEX
  5
26B
330
183
100
AcDbEntity
  8
8
100
AcDbVertex
100
AcDb2dVertex
 10
1531.7711065909534
 20
295.7342328810505
 30
0.0
 70
0
  0
VERTEX
  5
26C
330
183
100
AcDbEntity
  8
8
100
AcDbVertex
100
AcDb2dVertex
 10
1529.035711703109
 20
310.8241251605282
 30
0.0
 70
0
  0
SEQEND
  5
25C
330
183
100
AcDbEntity
  8
8
  0
POLYLINE
  5
26D
330
183
100
AcDbEntity
  8
8
100
AcDb2dPolyline
 66
1
 70
0
  0
VERTEX
  5
26F
330
183
100
AcDbEntity
  8
8
100
AcDbVertex
100
AcDb2dVertex
 10
2295.2071479538013
 20
155.73603696610598
 30
0.0
 70
0
  0
VERTEX
  5
270
330
183
100
AcDbEntity
  8
8
100
AcDbVertex
100
AcDb2dVertex
 10
2231.389408885088
 20
181.27635167031485
 30
0.0
 70
0
  0
VERTEX
  5
271
330
183
100
AcDbEntity
  8
8
100
AcDbVertex
100
AcDb2dVertex
 10
2200.910787279187
 20
194.24220303882566
 30
0.0
 70
0
  0
VERTEX
  5
272
330
183
100
AcDbEntity
  8
8
100
AcDbVertex
100
AcDb2dVertex
 10
2178.8400066750405
 20
204.11794194316326
 30
0.0
 70
0
  0
VERTEX
  5
273
330
183
100
AcDbEntity
  8
8
100
AcDbVertex
100
AcDb2dVertex
 10
2154.0231449503694
 20
216.06264982770244
 30
0.0
 70
0
  0
VERTEX
  5
274
330
183
100
AcDbEntity
  8
8
100
AcDbVertex
100
AcDb2dVertex
 10
2143.013217317823
 20
221.78970869056866
 30
0.0
 70
0
  0
VERTEX
  5
275
330
183
100
AcDbEntity
  8
8
100
AcDbVertex
100
AcDb2dVertex
 10
2115.5146941022244
 20
237.33559771631826
 30
0.0
 70
0
  0
VERTEX
  5
276
330
183
100
AcDbEntity
  8
8
100
AcDbVertex
100
AcDb2dVertex
 10
2090.7524736299715
 20
253.7679874833193
 30
0.0
 70
0
  0
VERTEX
  5
277
330
183
100
AcDbEntity
  8
8
100
AcDbVertex
100
AcDb2dVertex
 10
2077.013501752862
 20
264.5121516123331
 30
0.0
 70
0
  0
VERTEX
  5
278
330
183
100
AcDbEntity
  8
8
100
AcDbVertex
100
AcDb2dVertex
 10
2066.036389681848
 20
274.46760891888516
 30
0.0
 70
0
  0
VERTEX
  5
279
330
183
100
AcDbEntity
  8
8
100
AcDbVertex
100
AcDb2dVertex
 10
2057.7281625834407
 20
283.50348582776405
 30
0.0
 70
0
  0
VERTEX
  5
27A
330
183
100
AcDbEntity
  8
8
100
AcDbVertex
100
AcDb2dVertex
 10
2052.171165380167
 20
290.77119714927676
 30
0.0
 70
0
  0
VERTEX
  5
27B
330
183
100
AcDbEntity
  8
8
100
AcDbVertex
100
AcDb2dVertex
 10
2046.6719568933922
 20
300.02689800570215
 30
0.0
 70
0
  0
VERTEX
  5
27C
330
183
100
AcDbEntity
  8
8
100
AcDbVertex
100
AcDb2dVertex
 10
2043.8084122735308
 20
309.9526997710923
 30
0.0
 70
0
  0
SEQEND
  5
26E
330
183
100
AcDbEntity
  8
8
  0
POLYLINE
  5
27D
330
183
100
AcDbEntity
  8
8
100
AcDb2dPolyline
 66
1
 70
0
  0
VERTEX
  5
27F
330
183
100
AcDbEntity
  8
8
100
AcDbVertex
100
AcDb2dVertex
 10
-1324.4016523238722
 20
208.3865875761271
 30
0.0
 70
0
  0
VERTEX
  5
280
330
183
100
AcDbEntity
  8
8
100
AcDbVertex
100
AcDb2dVertex
 10
-1326.1118861510568
 20
224.10214803191957
 30
0.0
 70
0
  0
SEQEND
  5
27E
330
183
100
AcDbEntity
  8
8
  0
POLYLINE
  5
281
330
183
100
AcDbEntity
  8
8
100
AcDb2dPolyline
 66
1
 70
0
  0
VERTEX
  5
283
330
183
100
AcDbEntity
  8
8
100
AcDbVertex
100
AcDb2dVertex
 10
385.14916588900815
 20
279.8107573641123
 30
0.0
 70
0
  0
VERTEX
  5
284
330
183
100
AcDbEntity
  8
8
100
AcDbVertex
100
AcDb2dVertex
 10
385.0637304138818
 20
292.9320265519491
 30
0.0
 70
0
  0
SEQEND
  5
282
330
183
100
AcDbEntity
  8
8
  0
POLYLINE
  5
285
330
183
100
AcDbEntity
  8
8
100
AcDb2dPolyline
 66
1
 70
0
  0
VERTEX
  5
287
330
183
100
AcDbEntity
  8
8
100
AcDbVertex
100
AcDb2dVertex
 10
-2589.887419740409
 20
-31.876838791555656
 30
0.0
 70
0
  0
VERTEX
  5
288
330
183
100
AcDbEntity
  8
8
100
AcDbVertex
100
AcDb2dVertex
 10
-2573.938122932887
 20
-61.716433390882
 30
0.0
 70
0
  0
VERTEX
  5
289
330
183
100
AcDbEntity
  8
8
100
AcDbVertex
100
AcDb2dVertex
 10
-2557.2231648505335
 20
-91.67589714528481
 30
0.0
 70
0
  0
VERTEX
  5
28A
330
183
100
AcDbEntity
  8
8
100
AcDbVertex
100
AcDb2dVertex
 10
-2536.8586086941878
 20
-126.67476761319199
 30
0.0
 70
0
  0
VERTEX
  5
28B
330
183
100
AcDbEntity
  8
8
100
AcDbVertex
100
AcDb2dVertex
 10
-2515.8107278336424
 20
-161.4976987472146
 30
0.0
 70
0
  0
VERTEX
  5
28C
330
183
100
AcDbEntity
  8
8
100
AcDbVertex
100
AcDb2dVertex
 10
-2494.1898228970963
 20
-196.1331331679164
 30
0.0
 70
0
  0
VERTEX
  5
28D
330
183
100
AcDbEntity
  8
8
100
AcDbVertex
100
AcDb2dVertex
 10
-2465.908189547488
 20
-240.21127190228162
 30
0.0
 70
0
  0
VERTEX
  5
28E
330
183
100
AcDbEntity
  8
8
100
AcDbVertex
100
AcDb2dVertex
 10
-2424.294429373469
 20
-302.98289647035926
 30
0.0
 70
0
  0
VERTEX
  5
28F
330
183
100
AcDbEntity
  8
8
100
AcDbVertex
100
AcDb2dVertex
 10
-1858.913882949756
 20
-231.9263768743274
 30
0.0
 70
0
  0
VERTEX
  5
290
330
183
100
AcDbEntity
  8
8
100
AcDbVertex
100
AcDb2dVertex
 10
-1051.3988452855394
 20
-144.6045995522602
 30
0.0
 70
0
  0
VERTEX
  5
291
330
183
100
AcDbEntity
  8
8
100
AcDbVertex
100
AcDb2dVertex
 10
-216.54817006637472
 20
-76.08530262306249
 30
0.0
 70
0
  0
VERTEX
  5
292
330
183
100
AcDbEntity
  8
8
100
AcDbVertex
100
AcDb2dVertex
 10
602.0220379210177
 20
-4.937456694474804
 30
0.0
 70
0
  0
VERTEX
  5
293
330
183
100
AcDbEntity
  8
8
100
AcDbVertex
100
AcDb2dVertex
 10
684.6481087449761
 20
2.599509329432749
 30
0.0
 70
0
  0
VERTEX
  5
294
330
183
100
AcDbEntity
  8
8
100
AcDbVertex
100
AcDb2dVertex
 10
1401.090227253941
 20
72.09945754828527
 30
0.0
 70
0
  0
VERTEX
  5
295
330
183
100
AcDbEntity
  8
8
100
AcDbVertex
100
AcDb2dVertex
 10
2010.4815127385696
 20
137.6041481448874
 30
0.0
 70
0
  0
VERTEX
  5
296
330
183
100
AcDbEntity
  8
8
100
AcDbVertex
100
AcDb2dVertex
 10
2112.738447552559
 20
148.91182793488042
 30
0.0
 70
0
  0
VERTEX
  5
297
330
183
100
AcDbEntity
  8
8
100
AcDbVertex
100
AcDb2dVertex
 10
2589.9593980487116
 20
224.42298148535838
 30
0.0
 70
0
  0
VERTEX
  5
298
330
183
100
AcDbEntity
  8
8
100
AcDbVertex
100
AcDb2dVertex
 10
2574.9004167058974
 20
247.74854585693856
 30
0.0
 70
0
  0
VERTEX
  5
299
330
183
100
AcDbEntity
  8
8
100
AcDbVertex
100
AcDb2dVertex
 10
2566.06210434258
 20
264.60399923560226
 30
0.0
 70
0
  0
VERTEX
  5
29A
330
183
100
AcDbEntity
  8
8
100
AcDbVertex
100
AcDb2dVertex
 10
2562.363198779707
 20
273.5619770277103
 30
0.0
 70
0
  0
VERTEX
  5
29B
330
183
100
AcDbEntity
  8
8
100
AcDbVertex
100
AcDb2dVertex
 10
2559.314674541465
 20
282.89813426868614
 30
0.0
 70
0
  0
VERTEX
  5
29C
330
183
100
AcDbEntity
  8
8
100
AcDbVertex
100
AcDb2dVertex
 10
2557.670929092462
 20
289.7408207783519
 30
0.0
 70
0
  0
VERTEX
  5
29D
330
183
100
AcDbEntity
  8
8
100
AcDbVertex
100
AcDb2dVertex
 10
2556.416834504339
 20
297.6776112255443
 30
0.0
 70
0
  0
VERTEX
  5
29E
330
183
100
AcDbEntity
  8
8
100
AcDbVertex
100
AcDb2dVertex
 10
2055.17170542945
 20
300.8408245664664
 30
0.0
 70
0
  0
VERTEX
  5
29F
330
183
100
AcDbEntity
  8
8
100
AcDbVertex
100
AcDb2dVertex
 10
1284.1487129694333
 20
296.33003678247087
 30
0.0
 70
0
  0
VERTEX
  5
2A0
330
183
100
AcDbEntity
  8
8
100
AcDbVertex
100
AcDb2dVertex
 10
593.9387880727254
 20
269.0183042668714
 30
0.0
 70
0
  0
VERTEX
  5
2A1
330
183
100
AcDbEntity
  8
8
100
AcDbVertex
100
AcDb2dVertex
 10
-297.56113955708156
 20
231.6129418253363
 30
0.0
 70
0
  0
VERTEX
  5
2A2
330
183
100
AcDbEntity
  8
8
100
AcDbVertex
100
AcDb2dVertex
 10
-1199.8871661243454
 20
191.15722196320303
 30
0.0
 70
0
  0
VERTEX
  5
2A3
330
183
100
AcDbEntity
  8
8
100
AcDbVertex
100
AcDb2dVertex
 10
-2046.6604262564501
 20
145.72224891490373
 30
0.0
 70
0
  0
VERTEX
  5
2A4
330
183
100
AcDbEntity
  8
8
100
AcDbVertex
100
AcDb2dVertex
 10
-2535.2594177113624
 20
117.98931838593649
 30
0.0
 70
0
  0
VERTEX
  5
2A5
330
183
100
AcDbEntity
  8
8
100
AcDbVertex
100
AcDb2dVertex
 10
-2539.7459850597056
 20
126.94957390689774
 30
0.0
 70
0
  0
VERTEX
  5
2A6
330
183
100
AcDbEntity
  8
8
100
AcDbVertex
100
AcDb2dVertex
 10
-2539.8039720732368
 20
98.95807202492074
 30
0.0
 70
0
  0
VERTEX
  5
2A7
330
183
100
AcDbEntity
  8
8
100
AcDbVertex
100
AcDb2dVertex
 10
-2541.5795589791605
 20
71.72304982087735
 30
0.0
 70
0
  0
VERTEX
  5
2A8
330
183
100
AcDbEntity
  8
8
100
AcDbVertex
100
AcDb2dVertex
 10
-2544.483388912492
 20
52.30557545253646
 30
0.0
 70
0
  0
VERTEX
  5
2A9
330
183
100
AcDbEntity
  8
8
100
AcDbVertex
100
AcDb2dVertex
 10
-2549.7994814865415
 20
31.8158868442315
 30
0.0
 70
0
  0
VERTEX
  5
2AA
330
183
100
AcDbEntity
  8
8
100
AcDbVertex
100
AcDb2dVertex
 10
-2552.9111175958383
 20
22.135374593663528
 30
0.0
 70
0
  0
VERTEX
  5
2AB
330
183
100
AcDbEntity
  8
8
100
AcDbVertex
100
AcDb2dVertex
 10
-2556.614914263559
 20
13.51559446027386
 30
0.0
 70
0
  0
VERTEX
  5
2AC
330
183
100
AcDbEntity
  8
8
100
AcDbVertex
100
AcDb2dVertex
 10
-2560.6449169469056
 20
5.220450917504422
 30
0.0
 70
0
  0
VERTEX
  5
2AD
330
183
100
AcDbEntity
  8
8
100
AcDbVertex
100
AcDb2dVertex
 10
-2566.5294753954886
 20
-5.222218314392194
 30
0.0
 70
0
  0
VERTEX
  5
2AE
330
183
100
AcDbEntity
  8
8
100
AcDbVertex
100
AcDb2dVertex
 10
-2576.6621977913715
 20
-18.594717868797943
 30
0.0
 70
0
  0
VERTEX
  5
2AF
330
183
100
AcDbEntity
  8
8
100
AcDbVertex
100
AcDb2dVertex
 10
-2582.1540756226614
 20
-24.61489660011034
 30
0.0
 70
0
  0
VERTEX
  5
2B0
330
183
100
AcDbEntity
  8
8
100
AcDbVertex
100
AcDb2dVertex
 10
-2587.9143078379725
 20
-30.144154574365302
 30
0.0
 70
0
  0
SEQEND
  5
286
330
183
100
AcDbEntity
  8
8
  0
ENDBLK
  5
185
330
183
100
AcDbEntity
  8
0
100
AcDbBlockEnd
  0
BLOCK
  5
2B4
330
2B3
100
AcDbEntity
  8
0
100
AcDbBlockBegin
  2
US
 70
0
 10
0.0
 20
0.0
 30
0.0
  3
US
  1

  0
POLYLINE
  5
2B6
330
2B3
100
AcDbEntity
  8
1
100
AcDb2dPolyline
 66
1
 70
0
  0
VERTEX
  5
2B8
330
2B3
100
AcDbEntity
  8
1
100
AcDbVertex
100
AcDb2dVertex
 10
-531.1326293945312
 20
-522.147216796875
 30
0.0
 70
0
  0
VERTEX
  5
2B9
330
2B3
100
AcDbEntity
  8
1
100
AcDbVertex
100
AcDb2dVertex
 10
-1177.2648315429688
 20
-728.337158203125
 30
0.0
 70
0
  0
VERTEX
  5
2BA
330
2B3
100
AcDbEntity
  8
1
100
AcDbVertex
100
AcDb2dVertex
 10
-1975.4328308105469
 20
-978.713623046875
 30
0.0
 70
0
  0
VERTEX
  5
2BB
330
2B3
100
AcDbEntity
  8
1
100
AcDbVertex
100
AcDb2dVertex
 10
-2410.3972778320312
 20
-1114.704345703125
 30
0.0
 70
0
  0
VERTEX
  5
2BC
330
2B3
100
AcDbEntity
  8
1
100
AcDbVertex
100
AcDb2dVertex
 10
-2412.578125
 20
-1114.3701171875
 30
0.0
 70
0
  0
VERTEX
  5
2BD
330
2B3
100
AcDbEntity
  8
1
100
AcDbVertex
100
AcDb2dVertex
 10
-2414.5771484375
 20
-1113.294189453125
 30
0.0
 70
0
  0
VERTEX
  5
2BE
330
2B3
100
AcDbEntity
  8
1
100
AcDbVertex
100
AcDb2dVertex
 10
-2416.0084228515625
 20
-1111.78125
 30
0.0
 70
0
  0
VERTEX
  5
2BF
330
2B3
100
AcDbEntity
  8
1
100
AcDbVertex
100
AcDb2dVertex
 10
-2416.893798828125
 20
-1109.899658203125
 30
0.0
 70
0
  0
VERTEX
  5
2C0
330
2B3
100
AcDbEntity
  8
1
100
AcDbVertex
100
AcDb2dVertex
 10
-2419.28955078125
 20
-1102.5107421875
 30
0.0
 70
0
  0
VERTEX
  5
2C1
330
2B3
100
AcDbEntity
  8
1
100
AcDbVertex
100
AcDb2dVertex
 10
-2427.6436157226562
 20
-1081.845703125
 30
0.0
 70
0
  0
VERTEX
  5
2C2
330
2B3
100
AcDbEntity
  8
1
100
AcDbVertex
100
AcDb2dVertex
 10
-2430.8621215820312
 20
-1076.802490234375
 30
0.0
 70
0
  0
VERTEX
  5
2C3
330
2B3
100
AcDbEntity
  8
1
100
AcDbVertex
100
AcDb2dVertex
 10
-2433.2517700195312
 20
-1071.571533203125
 30
0.0
 70
0
  0
VERTEX
  5
2C4
330
2B3
100
AcDbEntity
  8
1
100
AcDbVertex
100
AcDb2dVertex
 10
-2435.1932983398438
 20
-1061.848876953125
 30
0.0
 70
0
  0
VERTEX
  5
2C5
330
2B3
100
AcDbEntity
  8
1
100
AcDbVertex
100
AcDb2dVertex
 10
-2442.0820922851562
 20
-1043.322265625
 30
0.0
 70
0
  0
VERTEX
  5
2C6
330
2B3
100
AcDbEntity
  8
1
100
AcDbVertex
100
AcDb2dVertex
 10
-2451.8051147460938
 20
-1025.455078125
 30
0.0
 70
0
  0
VERTEX
  5
2C7
330
2B3
100
AcDbEntity
  8
1
100
AcDbVertex
100
AcDb2dVertex
 10
-2463.132568359375
 20
-1010.970458984375
 30
0.0
 70
0
  0
VERTEX
  5
2C8
330
2B3
100
AcDbEntity
  8
1
100
AcDbVertex
100
AcDb2dVertex
 10
-2468.33984375
 20
-1005.81689453125
 30
0.0
 70
0
  0
VERTEX
  5
2C9
330
2B3
100
AcDbEntity
  8
1
100
AcDbVertex
100
AcDb2dVertex
 10
-2485.6341552734375
 20
-991.64794921875
 30
0.0
 70
0
  0
VERTEX
  5
2CA
330
2B3
100
AcDbEntity
  8
1
100
AcDbVertex
100
AcDb2dVertex
 10
-2492.2852172851562
 20
-989.16748046875
 30
0.0
 70
0
  0
VERTEX
  5
2CB
330
2B3
100
AcDbEntity
  8
1
100
AcDbVertex
100
AcDb2dVertex
 10
-2504.6766357421875
 20
-985.536865234375
 30
0.0
 70
0
  0
VERTEX
  5
2CC
330
2B3
100
AcDbEntity
  8
1
100
AcDbVertex
100
AcDb2dVertex
 10
-2509.50927734375
 20
-982.3994140625
 30
0.0
 70
0
  0
VERTEX
  5
2CD
330
2B3
100
AcDbEntity
  8
1
100
AcDbVertex
100
AcDb2dVertex
 10
-2514.4854125976562
 20
-980.947021484375
 30
0.0
 70
0
  0
VERTEX
  5
2CE
330
2B3
100
AcDbEntity
  8
1
100
AcDbVertex
100
AcDb2dVertex
 10
-2515.9505615234375
 20
-980.01123046875
 30
0.0
 70
0
  0
VERTEX
  5
2CF
330
2B3
100
AcDbEntity
  8
1
100
AcDbVertex
100
AcDb2dVertex
 10
-2517.14404296875
 20
-978.650390625
 30
0.0
 70
0
  0
VERTEX
  5
2D0
330
2B3
100
AcDbEntity
  8
1
100
AcDbVertex
100
AcDb2dVertex
 10
-2517.8971557617188
 20
-977.005859375
 30
0.0
 70
0
  0
VERTEX
  5
2D1
330
2B3
100
AcDbEntity
  8
1
100
AcDbVertex
100
AcDb2dVertex
 10
-2518.1463012695312
 20
-975.21484375
 30
0.0
 70
0
  0
VERTEX
  5
2D2
330
2B3
100
AcDbEntity
  8
1
100
AcDbVertex
100
AcDb2dVertex
 10
-2517.87890625
 20
-973.425048828125
 30
0.0
 70
0
  0
VERTEX
  5
2D3
330
2B3
100
AcDbEntity
  8
1
100
AcDbVertex
100
AcDb2dVertex
 10
-2246.1412963867188
 20
107.550048828125
 30
0.0
 70
0
  0
VERTEX
  5
2D4
330
2B3
100
AcDbEntity
  8
1
100
AcDbVertex
100
AcDb2dVertex
 10
-2244.3064575195312
 20
109.977294921875
 30
0.0
 70
0
  0
VERTEX
  5
2D5
330
2B3
100
AcDbEntity
  8
1
100
AcDbVertex
100
AcDb2dVertex
 10
-2241.1680908203125
 20
111.30908203125
 30
0.0
 70
0
  0
VERTEX
  5
2D6
330
2B3
100
AcDbEntity
  8
1
100
AcDbVertex
100
AcDb2dVertex
 10
-2238.7492065429688
 20
111.143310546875
 30
0.0
 70
0
  0
VERTEX
  5
2D7
330
2B3
100
AcDbEntity
  8
1
100
AcDbVertex
100
AcDb2dVertex
 10
-2229.53662109375
 20
109.269775390625
 30
0.0
 70
0
  0
VERTEX
  5
2D8
330
2B3
100
AcDbEntity
  8
1
100
AcDbVertex
100
AcDb2dVertex
 10
-2209.3526000976562
 20
107.93505859375
 30
0.0
 70
0
  0
VERTEX
  5
2D9
330
2B3
100
AcDbEntity
  8
1
100
AcDbVertex
100
AcDb2dVertex
 10
-2188.172607421875
 20
110.576904296875
 30
0.0
 70
0
  0
VERTEX
  5
2DA
330
2B3
100
AcDbEntity
  8
1
100
AcDbVertex
100
AcDb2dVertex
 10
-2165.7285766601562
 20
118.268798828125
 30
0.0
 70
0
  0
VERTEX
  5
2DB
330
2B3
100
AcDbEntity
  8
1
100
AcDbVertex
100
AcDb2dVertex
 10
-2160.3184204101562
 20
120.982421875
 30
0.0
 70
0
  0
VERTEX
  5
2DC
330
2B3
100
AcDbEntity
  8
1
100
AcDbVertex
100
AcDb2dVertex
 10
-2141.2744140625
 20
134.005615234375
 30
0.0
 70
0
  0
VERTEX
  5
2DD
330
2B3
100
AcDbEntity
  8
1
100
AcDbVertex
100
AcDb2dVertex
 10
-2137.5194702148438
 20
137.33349609375
 30
0.0
 70
0
  0
VERTEX
  5
2DE
330
2B3
100
AcDbEntity
  8
1
100
AcDbVertex
100
AcDb2dVertex
 10
-2124.0363159179688
 20
152.469970703125
 30
0.0
 70
0
  0
VERTEX
  5
2DF
330
2B3
100
AcDbEntity
  8
1
100
AcDbVertex
100
AcDb2dVertex
 10
-2114.9502563476562
 20
167.038818359375
 30
0.0
 70
0
  0
VERTEX
  5
2E0
330
2B3
100
AcDbEntity
  8
1
100
AcDbVertex
100
AcDb2dVertex
 10
-2108.7717895507812
 20
181.24462890625
 30
0.0
 70
0
  0
VERTEX
  5
2E1
330
2B3
100
AcDbEntity
  8
1
100
AcDbVertex
100
AcDb2dVertex
 10
-2104.7577514648438
 20
195.1923828125
 30
0.0
 70
0
  0
VERTEX
  5
2E2
330
2B3
100
AcDbEntity
  8
1
100
AcDbVertex
100
AcDb2dVertex
 10
-2025.023681640625
 20
514.639892578125
 30
0.0
 70
0
  0
VERTEX
  5
2E3
330
2B3
100
AcDbEntity
  8
1
100
AcDbVertex
100
AcDb2dVertex
 10
-2023.8069458007812
 20
517.636962890625
 30
0.0
 70
0
  0
VERTEX
  5
2E4
330
2B3
100
AcDbEntity
  8
1
100
AcDbVertex
100
AcDb2dVertex
 10
-2021.2933349609375
 20
519.670166015625
 30
0.0
 70
0
  0
VERTEX
  5
2E5
330
2B3
100
AcDbEntity
  8
1
100
AcDbVertex
100
AcDb2dVertex
 10
-2018.2088623046875
 20
520.252685546875
 30
0.0
 70
0
  0
VERTEX
  5
2E6
330
2B3
100
AcDbEntity
  8
1
100
AcDbVertex
100
AcDb2dVertex
 10
-1608.0938873291016
 20
544.224853515625
 30
0.0
 70
0
  0
VERTEX
  5
2E7
330
2B3
100
AcDbEntity
  8
1
100
AcDbVertex
100
AcDb2dVertex
 10
-1273.597396850586
 20
570.275634765625
 30
0.0
 70
0
  0
VERTEX
  5
2E8
330
2B3
100
AcDbEntity
  8
1
100
AcDbVertex
100
AcDb2dVertex
 10
-855.5028076171875
 20
603.436279296875
 30
0.0
 70
0
  0
VERTEX
  5
2E9
330
2B3
100
AcDbEntity
  8
1
100
AcDbVertex
100
AcDb2dVertex
 10
-834.1664428710938
 20
606.826416015625
 30
0.0
 70
0
  0
VERTEX
  5
2EA
330
2B3
100
AcDbEntity
  8
1
100
AcDbVertex
100
AcDb2dVertex
 10
-83.77801513671875
 20
739.599853515625
 30
0.0
 70
0
  0
VERTEX
  5
2EB
330
2B3
100
AcDbEntity
  8
1
100
AcDbVertex
100
AcDb2dVertex
 10
-62.18548583984375
 20
744.006103515625
 30
0.0
 70
0
  0
VERTEX
  5
2EC
330
2B3
100
AcDbEntity
  8
1
100
AcDbVertex
100
AcDb2dVertex
 10
774.3369750976562
 20
968.591064453125
 30
0.0
 70
0
  0
VERTEX
  5
2ED
330
2B3
100
AcDbEntity
  8
1
100
AcDbVertex
100
AcDb2dVertex
 10
796.2095336914062
 20
973.422607421875
 30
0.0
 70
0
  0
VERTEX
  5
2EE
330
2B3
100
AcDbEntity
  8
1
100
AcDbVertex
100
AcDb2dVertex
 10
1452.7503051757812
 20
1109.843994140625
 30
0.0
 70
0
  0
VERTEX
  5
2EF
330
2B3
100
AcDbEntity
  8
1
100
AcDbVertex
100
AcDb2dVertex
 10
1474.5632934570312
 20
1114.109130859375
 30
0.0
 70
0
  0
VERTEX
  5
2F0
330
2B3
100
AcDbEntity
  8
1
100
AcDbVertex
100
AcDb2dVertex
 10
1475.9512329101562
 20
1114.661376953125
 30
0.0
 70
0
  0
VERTEX
  5
2F1
330
2B3
100
AcDbEntity
  8
1
100
AcDbVertex
100
AcDb2dVertex
 10
1477.2586059570312
 20
1114.704345703125
 30
0.0
 70
0
  0
VERTEX
  5
2F2
330
2B3
100
AcDbEntity
  8
1
100
AcDbVertex
100
AcDb2dVertex
 10
1494.2568969726562
 20
1110.481689453125
 30
0.0
 70
0
  0
VERTEX
  5
2F3
330
2B3
100
AcDbEntity
  8
1
100
AcDbVertex
100
AcDb2dVertex
 10
2101.1231079101562
 20
985.400634765625
 30
0.0
 70
0
  0
VERTEX
  5
2F4
330
2B3
100
AcDbEntity
  8
1
100
AcDbVertex
100
AcDb2dVertex
 10
2511.5628051757812
 20
862.906494140625
 30
0.0
 70
0
  0
VERTEX
  5
2F5
330
2B3
100
AcDbEntity
  8
1
100
AcDbVertex
100
AcDb2dVertex
 10
2515.3081665039062
 20
861.522705078125
 30
0.0
 70
0
  0
VERTEX
  5
2F6
330
2B3
100
AcDbEntity
  8
1
100
AcDbVertex
100
AcDb2dVertex
 10
2517.3667602539062
 20
859.316650390625
 30
0.0
 70
0
  0
VERTEX
  5
2F7
330
2B3
100
AcDbEntity
  8
1
100
AcDbVertex
100
AcDb2dVertex
 10
2518.1463012695312
 20
856.594482421875
 30
0.0
 70
0
  0
VERTEX
  5
2F8
330
2B3
100
AcDbEntity
  8
1
100
AcDbVertex
100
AcDb2dVertex
 10
2517.9580688476562
 20
854.743896484375
 30
0.0
 70
0
  0
VERTEX
  5
2F9
330
2B3
100
AcDbEntity
  8
1
100
AcDbVertex
100
AcDb2dVertex
 10
2432.2227172851562
 20
500.305419921875
 30
0.0
 70
0
  0
VERTEX
  5
2FA
330
2B3
100
AcDbEntity
  8
1
100
AcDbVertex
100
AcDb2dVertex
 10
2431.9795532226562
 20
497.552490234375
 30
0.0
 70
0
  0
VERTEX
  5
2FB
330
2B3
100
AcDbEntity
  8
1
100
AcDbVertex
100
AcDb2dVertex
 10
2433.6216430664062
 20
493.518310546875
 30
0.0
 70
0
  0
VERTEX
  5
2FC
330
2B3
100
AcDbEntity
  8
1
100
AcDbVertex
100
AcDb2dVertex
 10
2433.5625610351562
 20
491.567138671875
 30
0.0
 70
0
  0
VERTEX
  5
2FD
330
2B3
100
AcDbEntity
  8
1
100
AcDbVertex
100
AcDb2dVertex
 10
2432.9141235351562
 20
489.745361328125
 30
0.0
 70
0
  0
VERTEX
  5
2FE
330
2B3
100
AcDbEntity
  8
1
100
AcDbVertex
100
AcDb2dVertex
 10
2431.7649536132812
 20
488.230224609375
 30
0.0
 70
0
  0
VERTEX
  5
2FF
330
2B3
100
AcDbEntity
  8
1
100
AcDbVertex
100
AcDb2dVertex
 10
2430.2122192382812
 20
487.133544921875
 30
0.0
 70
0
  0
VERTEX
  5
300
330
2B3
100
AcDbEntity
  8
1
100
AcDbVertex
100
AcDb2dVertex
 10
1948.8894653320312
 20
308.002197265625
 30
0.0
 70
0
  0
VERTEX
  5
301
330
2B3
100
AcDbEntity
  8
1
100
AcDbVertex
100
AcDb2dVertex
 10
1345.3816528320312
 20
95.36083984375
 30
0.0
 70
0
  0
VERTEX
  5
302
330
2B3
100
AcDbEntity
  8
1
100
AcDbVertex
100
AcDb2dVertex
 10
1255.3086547851562
 20
64.070068359375
 30
0.0
 70
0
  0
VERTEX
  5
303
330
2B3
100
AcDbEntity
  8
1
100
AcDbVertex
100
AcDb2dVertex
 10
1165.0166625976562
 20
34.038330078125
 30
0.0
 70
0
  0
VERTEX
  5
304
330
2B3
100
AcDbEntity
  8
1
100
AcDbVertex
100
AcDb2dVertex
 10
427.99224853515625
 20
-207.709228515625
 30
0.0
 70
0
  0
VERTEX
  5
305
330
2B3
100
AcDbEntity
  8
1
100
AcDbVertex
100
AcDb2dVertex
 10
-308.00616455078125
 20
-450.77294921875
 30
0.0
 70
0
  0
VERTEX
  5
306
330
2B3
100
AcDbEntity
  8
1
100
AcDbVertex
100
AcDb2dVertex
 10
-531.1326293945312
 20
-522.147216796875
 30
0.0
 70
0
  0
SEQEND
  5
2B7
330
2B3
100
AcDbEntity
  8
1
  0
POLYLINE
  5
307
330
2B3
100
AcDbEntity
  8
8
100
AcDb2dPolyline
 66
1
 70
0
  0
VERTEX
  5
309
330
2B3
100
AcDbEntity
  8
8
100
AcDbVertex
100
AcDb2dVertex
 10
-2425.1664253678437
 20
-1127.6685072382797
 30
0.0
 70
0
  0
VERTEX
  5
30A
330
2B3
100
AcDbEntity
  8
8
100
AcDbVertex
100
AcDb2dVertex
 10
-2429.4558142239616
 20
-1100.8300461502017
 30
0.0
 70
0
  0
VERTEX
  5
30B
330
2B3
100
AcDbEntity
  8
8
100
AcDbVertex
100
AcDb2dVertex
 10
-2428.427954248091
 20
-1096.205159002804
 30
0.0
 70
0
  0
VERTEX
  5
30C
330
2B3
100
AcDbEntity
  8
8
100
AcDbVertex
100
AcDb2dVertex
 10
-2426.5743251810973
 20
-1093.1933445884292
 30
0.0
 70
0
  0
VERTEX
  5
30D
330
2B3
100
AcDbEntity
  8
8
100
AcDbVertex
100
AcDb2dVertex
 10
-2423.954581443572
 20
-1090.8141037953815
 30
0.0
 70
0
  0
VERTEX
  5
30E
330
2B3
100
AcDbEntity
  8
8
100
AcDbVertex
100
AcDb2dVertex
 10
-2420.7784146278764
 20
-1089.2579487608918
 30
0.0
 70
0
  0
VERTEX
  5
30F
330
2B3
100
AcDbEntity
  8
8
100
AcDbVertex
100
AcDb2dVertex
 10
-2417.2971224058388
 20
-1088.6559210824726
 30
0.0
 70
0
  0
VERTEX
  5
310
330
2B3
100
AcDbEntity
  8
8
100
AcDbVertex
100
AcDb2dVertex
 10
-2413.9035079374144
 20
-1089.0324493815333
 30
0.0
 70
0
  0
VERTEX
  5
311
330
2B3
100
AcDbEntity
  8
8
100
AcDbVertex
100
AcDb2dVertex
 10
-2410.735966242503
 20
-1090.3216482570851
 30
0.0
 70
0
  0
VERTEX
  5
312
330
2B3
100
AcDbEntity
  8
8
100
AcDbVertex
100
AcDb2dVertex
 10
-2406.67563715102
 20
-1093.9337625653202
 30
0.0
 70
0
  0
VERTEX
  5
313
330
2B3
100
AcDbEntity
  8
8
100
AcDbVertex
100
AcDb2dVertex
 10
-2405.6849285762237
 20
-1093.7518412166546
 30
0.0
 70
0
  0
VERTEX
  5
314
330
2B3
100
AcDbEntity
  8
8
100
AcDbVertex
100
AcDb2dVertex
 10
-1163.123324128193
 20
-704.1655447277076
 30
0.0
 70
0
  0
VERTEX
  5
315
330
2B3
100
AcDbEntity
  8
8
100
AcDbVertex
100
AcDb2dVertex
 10
-338.0621081970139
 20
-440.8438886905524
 30
0.0
 70
0
  0
VERTEX
  5
316
330
2B3
100
AcDbEntity
  8
8
100
AcDbVertex
100
AcDb2dVertex
 10
465.37505264026186
 20
-175.5989237484705
 30
0.0
 70
0
  0
VERTEX
  5
317
330
2B3
100
AcDbEntity
  8
8
100
AcDbVertex
100
AcDb2dVertex
 10
1157.930427940912
 20
51.44192979430636
 30
0.0
 70
0
  0
VERTEX
  5
318
330
2B3
100
AcDbEntity
  8
8
100
AcDbVertex
100
AcDb2dVertex
 10
1247.5986694957114
 20
81.14129711367605
 30
0.0
 70
0
  0
VERTEX
  5
319
330
2B3
100
AcDbEntity
  8
8
100
AcDbVertex
100
AcDb2dVertex
 10
1382.136582757967
 20
128.19122738699116
 30
0.0
 70
0
  0
VERTEX
  5
31A
330
2B3
100
AcDbEntity
  8
8
100
AcDbVertex
100
AcDb2dVertex
 10
1941.7652572105926
 20
325.8413538802215
 30
0.0
 70
0
  0
VERTEX
  5
31B
330
2B3
100
AcDbEntity
  8
8
100
AcDbVertex
100
AcDb2dVertex
 10
2073.5296788369938
 20
374.9597723860202
 30
0.0
 70
0
  0
VERTEX
  5
31C
330
2B3
100
AcDbEntity
  8
8
100
AcDbVertex
100
AcDb2dVertex
 10
2211.6056471417974
 20
427.7908383023132
 30
0.0
 70
0
  0
VERTEX
  5
31D
330
2B3
100
AcDbEntity
  8
8
100
AcDbVertex
100
AcDb2dVertex
 10
2258.691599487858
 20
447.01735904152065
 30
0.0
 70
0
  0
VERTEX
  5
31E
330
2B3
100
AcDbEntity
  8
8
100
AcDbVertex
100
AcDb2dVertex
 10
2304.2577778066798
 20
464.8840258089258
 30
0.0
 70
0
  0
VERTEX
  5
31F
330
2B3
100
AcDbEntity
  8
8
100
AcDbVertex
100
AcDb2dVertex
 10
2419.490737771017
 20
508.52912404817926
 30
0.0
 70
0
  0
VERTEX
  5
320
330
2B3
100
AcDbEntity
  8
8
100
AcDbVertex
100
AcDb2dVertex
 10
2423.1059891103337
 20
509.7169616972096
 30
0.0
 70
0
  0
VERTEX
  5
321
330
2B3
100
AcDbEntity
  8
8
100
AcDbVertex
100
AcDb2dVertex
 10
2426.183488720877
 20
509.75589417582614
 30
0.0
 70
0
  0
VERTEX
  5
322
330
2B3
100
AcDbEntity
  8
8
100
AcDbVertex
100
AcDb2dVertex
 10
2429.1310978263896
 20
508.8524435318486
 30
0.0
 70
0
  0
VERTEX
  5
323
330
2B3
100
AcDbEntity
  8
8
100
AcDbVertex
100
AcDb2dVertex
 10
2431.7209370978353
 20
506.9182576311732
 30
0.0
 70
0
  0
VERTEX
  5
324
330
2B3
100
AcDbEntity
  8
8
100
AcDbVertex
100
AcDb2dVertex
 10
2434.7756004884045
 20
502.70128217611455
 30
0.0
 70
0
  0
VERTEX
  5
325
330
2B3
100
AcDbEntity
  8
8
100
AcDbVertex
100
AcDb2dVertex
 10
2437.0713256066897
 20
500.67323969107747
 30
0.0
 70
0
  0
VERTEX
  5
326
330
2B3
100
AcDbEntity
  8
8
100
AcDbVertex
100
AcDb2dVertex
 10
2441.3792963540227
 20
493.22566335909323
 30
0.0
 70
0
  0
SEQEND
  5
308
330
2B3
100
AcDbEntity
  8
8
  0
POLYLINE
  5
327
330
2B3
100
AcDbEntity
  8
8
100
AcDb2dPolyline
 66
1
 70
0
  0
VERTEX
  5
329
330
2B3
100
AcDbEntity
  8
8
100
AcDbVertex
100
AcDb2dVertex
 10
-2001.7088896376638
 20
-1008.6458144384678
 30
0.0
 70
0
  0
VERTEX
  5
32A
330
2B3
100
AcDbEntity
  8
8
100
AcDbVertex
100
AcDb2dVertex
 10
-2019.5297409913878
 20
-977.6150142398205
 30
0.0
 70
0
  0
VERTEX
  5
32B
330
2B3
100
AcDbEntity
  8
8
100
AcDbVertex
100
AcDb2dVertex
 10
-2026.423147562216
 20
-958.7669808683313
 30
0.0
 70
0
  0
SEQEND
  5
328
330
2B3
100
AcDbEntity
  8
8
  0
POLYLINE
  5
32C
330
2B3
100
AcDbEntity
  8
8
100
AcDb2dPolyline
 66
1
 70
0
  0
VERTEX
  5
32E
330
2B3
100
AcDbEntity
  8
8
100
AcDbVertex
100
AcDb2dVertex
 10
-1236.5549073744135
 20
-768.5393343604537
 30
0.0
 70
0
  0
VERTEX
  5
32F
330
2B3
100
AcDbEntity
  8
8
100
AcDbVertex
100
AcDb2dVertex
 10
-1252.306375978125
 20
-739.796040255495
 30
0.0
 70
0
  0
VERTEX
  5
330
330
2B3
100
AcDbEntity
  8
8
100
AcDbVertex
100
AcDb2dVertex
 10
-1259.3797611308057
 20
-720.8200315384488
 30
0.0
 70
0
  0
SEQEND
  5
32D
330
2B3
100
AcDbEntity
  8
8
  0
POLYLINE
  5
331
330
2B3
100
AcDbEntity
  8
8
100
AcDb2dPolyline
 66
1
 70
0
  0
VERTEX
  5
333
330
2B3
100
AcDbEntity
  8
8
100
AcDbVertex
100
AcDb2dVertex
 10
-470.60098424958846
 20
-517.4924456674021
 30
0.0
 70
0
  0
VERTEX
  5
334
330
2B3
100
AcDbEntity
  8
8
100
AcDbVertex
100
AcDb2dVertex
 10
-481.3507587508475
 20
-497.3381081698044
 30
0.0
 70
0
  0
VERTEX
  5
335
330
2B3
100
AcDbEntity
  8
8
100
AcDbVertex
100
AcDb2dVertex
 10
-489.17488798081627
 20
-477.3240497720785
 30
0.0
 70
0
  0
SEQEND
  5
332
330
2B3
100
AcDbEntity
  8
8
  0
POLYLINE
  5
336
330
2B3
100
AcDbEntity
  8
8
100
AcDb2dPolyline
 66
1
 70
0
  0
VERTEX
  5
338
330
2B3
100
AcDbEntity
  8
8
100
AcDbVertex
100
AcDb2dVertex
 10
387.61956603495696
 20
-240.88592141224854
 30
0.0
 70
0
  0
VERTEX
  5
339
330
2B3
100
AcDbEntity
  8
8
100
AcDbVertex
100
AcDb2dVertex
 10
377.15539224423947
 20
-220.5243419084236
 30
0.0
 70
0
  0
VERTEX
  5
33A
330
2B3
100
AcDbEntity
  8
8
100
AcDbVertex
100
AcDb2dVertex
 10
368.82020842267866
 20
-199.65907319836197
 30
0.0
 70
0
  0
SEQEND
  5
337
330
2B3
100
AcDbEntity
  8
8
  0
POLYLINE
  5
33B
330
2B3
100
AcDbEntity
  8
8
100
AcDb2dPolyline
 66
1
 70
0
  0
VERTEX
  5
33D
330
2B3
100
AcDbEntity
  8
8
100
AcDbVertex
100
AcDb2dVertex
 10
1035.467476021894
 20
-14.260565132953616
 30
0.0
 70
0
  0
VERTEX
  5
33E
330
2B3
100
AcDbEntity
  8
8
100
AcDbVertex
100
AcDb2dVertex
 10
1031.5253007977603
 20
-6.723869634089169
 30
0.0
 70
0
  0
VERTEX
  5
33F
330
2B3
100
AcDbEntity
  8
8
100
AcDbVertex
100
AcDb2dVertex
 10
1024.0252301210376
 20
11.388992746848544
 30
0.0
 70
0
  0
SEQEND
  5
33C
330
2B3
100
AcDbEntity
  8
8
  0
POLYLINE
  5
340
330
2B3
100
AcDbEntity
  8
8
100
AcDb2dPolyline
 66
1
 70
0
  0
VERTEX
  5
342
330
2B3
100
AcDbEntity
  8
8
100
AcDbVertex
100
AcDb2dVertex
 10
1477.0966409116122
 20
128.103562989465
 30
0.0
 70
0
  0
VERTEX
  5
343
330
2B3
100
AcDbEntity
  8
8
100
AcDbVertex
100
AcDb2dVertex
 10
1464.6708850173504
 20
141.92642636630535
 30
0.0
 70
0
  0
VERTEX
  5
344
330
2B3
100
AcDbEntity
  8
8
100
AcDbVertex
100
AcDb2dVertex
 10
1457.3470882616643
 20
155.21968315519553
 30
0.0
 70
0
  0
SEQEND
  5
341
330
2B3
100
AcDbEntity
  8
8
  0
POLYLINE
  5
345
330
2B3
100
AcDbEntity
  8
8
100
AcDb2dPolyline
 66
1
 70
0
  0
VERTEX
  5
347
330
2B3
100
AcDbEntity
  8
8
100
AcDbVertex
100
AcDb2dVertex
 10
1965.674306235353
 20
302.52584722065194
 30
0.0
 70
0
  0
VERTEX
  5
348
330
2B3
100
AcDbEntity
  8
8
100
AcDbVertex
100
AcDb2dVertex
 10
1958.357855979113
 20
307.3846090981615
 30
0.0
 70
0
  0
VERTEX
  5
349
330
2B3
100
AcDbEntity
  8
8
100
AcDbVertex
100
AcDb2dVertex
 10
1950.0712967056193
 20
314.21569007663857
 30
0.0
 70
0
  0
VERTEX
  5
34A
330
2B3
100
AcDbEntity
  8
8
100
AcDbVertex
100
AcDb2dVertex
 10
1944.061150531632
 20
322.5974804997486
 30
0.0
 70
0
  0
SEQEND
  5
346
330
2B3
100
AcDbEntity
  8
8
  0
POLYLINE
  5
34B
330
2B3
100
AcDbEntity
  8
8
100
AcDb2dPolyline
 66
1
 70
0
  0
VERTEX
  5
34D
330
2B3
100
AcDbEntity
  8
8
100
AcDbVertex
100
AcDb2dVertex
 10
-1259.3837987819004
 20
-720.8082283859144
 30
0.0
 70
0
  0
VERTEX
  5
34E
330
2B3
100
AcDbEntity
  8
8
100
AcDbVertex
100
AcDb2dVertex
 10
-1260.8498405977907
 20
-704.658589058416
 30
0.0
 70
0
  0
VERTEX
  5
34F
330
2B3
100
AcDbEntity
  8
8
100
AcDbVertex
100
AcDb2dVertex
 10
-1258.503564377459
 20
-688.4246202638678
 30
0.0
 70
0
  0
VERTEX
  5
350
330
2B3
100
AcDbEntity
  8
8
100
AcDbVertex
100
AcDb2dVertex
 10
-1253.7757149584932
 20
-668.7105178468869
 30
0.0
 70
0
  0
VERTEX
  5
351
330
2B3
100
AcDbEntity
  8
8
100
AcDbVertex
100
AcDb2dVertex
 10
-1249.6129994787993
 20
-653.3663224094735
 30
0.0
 70
0
  0
VERTEX
  5
352
330
2B3
100
AcDbEntity
  8
8
100
AcDbVertex
100
AcDb2dVertex
 10
-1225.1228219999712
 20
-572.3118607947958
 30
0.0
 70
0
  0
VERTEX
  5
353
330
2B3
100
AcDbEntity
  8
8
100
AcDbVertex
100
AcDb2dVertex
 10
-1215.6470882938725
 20
-537.6350074938205
 30
0.0
 70
0
  0
VERTEX
  5
354
330
2B3
100
AcDbEntity
  8
8
100
AcDbVertex
100
AcDb2dVertex
 10
-1212.0568320593568
 20
-530.374210843298
 30
0.0
 70
0
  0
VERTEX
  5
355
330
2B3
100
AcDbEntity
  8
8
100
AcDbVertex
100
AcDb2dVertex
 10
-1205.1662073393657
 20
-505.5528960589386
 30
0.0
 70
0
  0
VERTEX
  5
356
330
2B3
100
AcDbEntity
  8
8
100
AcDbVertex
100
AcDb2dVertex
 10
-876.8795066576034
 20
592.2234134117507
 30
0.0
 70
0
  0
SEQEND
  5
34C
330
2B3
100
AcDbEntity
  8
8
  0
POLYLINE
  5
357
330
2B3
100
AcDbEntity
  8
8
100
AcDb2dPolyline
 66
1
 70
0
  0
VERTEX
  5
359
330
2B3
100
AcDbEntity
  8
8
100
AcDbVertex
100
AcDb2dVertex
 10
368.81838391973383
 20
-199.6092225831121
 30
0.0
 70
0
  0
VERTEX
  5
35A
330
2B3
100
AcDbEntity
  8
8
100
AcDbVertex
100
AcDb2dVertex
 10
368.8078737066644
 20
-187.1826693716057
 30
0.0
 70
0
  0
VERTEX
  5
35B
330
2B3
100
AcDbEntity
  8
8
100
AcDbVertex
100
AcDb2dVertex
 10
372.23122042982754
 20
-173.36166181792214
 30
0.0
 70
0
  0
VERTEX
  5
35C
330
2B3
100
AcDbEntity
  8
8
100
AcDbVertex
100
AcDb2dVertex
 10
376.12159082342805
 20
-161.53579315425395
 30
0.0
 70
0
  0
VERTEX
  5
35D
330
2B3
100
AcDbEntity
  8
8
100
AcDbVertex
100
AcDb2dVertex
 10
403.13922579951054
 20
-84.7625833029806
 30
0.0
 70
0
  0
VERTEX
  5
35E
330
2B3
100
AcDbEntity
  8
8
100
AcDbVertex
100
AcDb2dVertex
 10
409.7936976122048
 20
-60.752823462592005
 30
0.0
 70
0
  0
VERTEX
  5
35F
330
2B3
100
AcDbEntity
  8
8
100
AcDbVertex
100
AcDb2dVertex
 10
413.89160503866924
 20
-55.342596572488674
 30
0.0
 70
0
  0
VERTEX
  5
360
330
2B3
100
AcDbEntity
  8
8
100
AcDbVertex
100
AcDb2dVertex
 10
414.6306085769943
 20
-53.43174365874029
 30
0.0
 70
0
  0
VERTEX
  5
361
330
2B3
100
AcDbEntity
  8
8
100
AcDbVertex
100
AcDb2dVertex
 10
420.74331460606436
 20
-32.66868162380342
 30
0.0
 70
0
  0
VERTEX
  5
362
330
2B3
100
AcDbEntity
  8
8
100
AcDbVertex
100
AcDb2dVertex
 10
751.8493989746053
 20
951.9692821903645
 30
0.0
 70
0
  0
SEQEND
  5
358
330
2B3
100
AcDbEntity
  8
8
  0
POLYLINE
  5
363
330
2B3
100
AcDbEntity
  8
8
100
AcDb2dPolyline
 66
1
 70
0
  0
VERTEX
  5
365
330
2B3
100
AcDbEntity
  8
8
100
AcDbVertex
100
AcDb2dVertex
 10
1740.250901643199
 20
1053.397275223244
 30
0.0
 70
0
  0
VERTEX
  5
366
330
2B3
100
AcDbEntity
  8
8
100
AcDbVertex
100
AcDb2dVertex
 10
1260.9350950868516
 20
282.62515753468233
 30
0.0
 70
0
  0
SEQEND
  5
364
330
2B3
100
AcDbEntity
  8
8
  0
POLYLINE
  5
367
330
2B3
100
AcDbEntity
  8
8
100
AcDb2dPolyline
 66
1
 70
0
  0
VERTEX
  5
369
330
2B3
100
AcDbEntity
  8
8
100
AcDbVertex
100
AcDb2dVertex
 10
1260.9350950868516
 20
282.62515753468233
 30
0.0
 70
0
  0
VERTEX
  5
36A
330
2B3
100
AcDbEntity
  8
8
100
AcDbVertex
100
AcDb2dVertex
 10
1332.1444202575235
 20
235.38376042611117
 30
0.0
 70
0
  0
SEQEND
  5
368
330
2B3
100
AcDbEntity
  8
8
  0
POLYLINE
  5
36B
330
2B3
100
AcDbEntity
  8
8
100
AcDb2dPolyline
 66
1
 70
0
  0
VERTEX
  5
36D
330
2B3
100
AcDbEntity
  8
8
100
AcDbVertex
100
AcDb2dVertex
 10
1332.1444202575235
 20
235.38376042611117
 30
0.0
 70
0
  0
VERTEX
  5
36E
330
2B3
100
AcDbEntity
  8
8
100
AcDbVertex
100
AcDb2dVertex
 10
1829.1032298732798
 20
1035.0642382508786
 30
0.0
 70
0
  0
SEQEND
  5
36C
330
2B3
100
AcDbEntity
  8
8
  0
ENDBLK
  5
2B5
330
2B3
100
AcDbEntity
  8
0
100
AcDbBlockEnd
  0
ENDSEC
  0
SECTION
  2
ENTITIES
  0
INSERT
  5
181
330
17
100
AcDbEntity
  8
0
100
AcDbBlockReference
  2
TS
 10
1374.6588745117188
 20
615.5399322509766
 30
0.0
  0
INSERT
  5
2B1
330
17
100
AcDbEntity
  8
0
100
AcDbBlockReference
  2
LEM
 10
1607.4481506347656
 20
1868.025634765625
 30
0.0
  0
INSERT
  5
36F
330
17
100
AcDbEntity
  8
0
100
AcDbBlockReference
  2
US
 10
1515.1156616210938
 20
3707.356689453125
 30
0.0
  0
ENDSEC
  0
SECTION
  2
OBJECTS
  0
DICTIONARY
  5
A
330
0
100
AcDbDictionary
281
1
  3
ACAD_COLOR
350
B
  3
ACAD_GROUP
350
C
  3
ACAD_LAYOUT
350
D
  3
ACAD_MATERIAL
350
E
  3
ACAD_MLEADERSTYLE
350
F
  3
ACAD_MLINESTYLE
350
10
  3
ACAD_PLOTSETTINGS
350
11
  3
ACAD_PLOTSTYLENAME
350
12
  3
ACAD_SCALELIST
350
14
  3
ACAD_TABLESTYLE
350
15
  3
ACAD_VISUALSTYLE
350
16
  0
DICTIONARY
  5
B
330
A
100
AcDbDictionary
281
1
  0
DICTIONARY
  5
C
330
A
100
AcDbDictionary
281
1
  0
DICTIONARY
  5
D
330
A
100
AcDbDictionary
281
1
  3
Model
350
1A
  3
Layout1
350
1E
  0
DICTIONARY
  5
E
330
A
100
AcDbDictionary
281
1
  3
ByBlock
350
1F
  3
ByLayer
350
20
  3
Global
350
21
  0
DICTIONARY
  5
F
330
A
100
AcDbDictionary
281
1
  3
Standard
350
2C
  0
DICTIONARY
  5
10
330
A
100
AcDbDictionary
281
1
  3
Standard
350
22
  0
DICTIONARY
  5
11
330
A
100
AcDbDictionary
281
1
  0
ACDBDICTIONARYWDFLT
  5
12
330
A
100
AcDbDictionary
281
1
  3
Normal
350
13
100
AcDbDictionaryWithDefault
340
13
  0
ACDBPLACEHOLDER
  5
13
330
12
  0
DICTIONARY
  5
14
330
A
100
AcDbDictionary
281
1
  0
DICTIONARY
  5
15
330
A
100
AcDbDictionary
281
1
  0
DICTIONARY
  5
16
330
A
100
AcDbDictionary
281
1
  0
LAYOUT
  5
1A
330
D
100
AcDbPlotSettings
  1

  2
Adobe PDF
  4
A4
  6

 40
3.175
 41
3.175
 42
3.175
 43
3.175
 44
209.91
 45
297.03
 46
0.0
 47
0.0
 48
0.0
 49
0.0
140
0.0
141
0.0
142
1.0
143
1.0
 70
1024
 72
0
 73
1
 74
5
  7

 75
16
 76
0
 77
2
 78
300
147
1.0
148
0.0
149
0.0
100
AcDbLayout
  1
Model
 70
1
 71
0
 10
-3.175
 20
-3.175
 11
293.857
 21
206.735
 12
0.0
 22
0.0
 32
0.0
 14
29.068
 24
20.356
 34
0.0
 15
261.614
 25
183.204
 35
0.0
146
0.0
 13
0.0
 23
0.0
 33
0.0
 16
1.0
 26
0.0
 36
0.0
 17
0.0
 27
1.0
 37
0.0
 76
1
330
17
  0
LAYOUT
  5
1E
330
D
100
AcDbPlotSettings
  1

  2
Adobe PDF
  4
A4
  6

 40
3.175
 41
3.175
 42
3.175
 43
3.175
 44
209.91
 45
297.03
 46
0.0
 47
0.0
 48
0.0
 49
0.0
140
0.0
141
0.0
142
1.0
143
1.0
 70
0
 72
0
 73
1
 74
5
  7

 75
16
 76
0
 77
2
 78
300
147
1.0
148
0.0
149
0.0
100
AcDbLayout
  1
Layout1
 70
1
 71
1
 10
-3.175
 20
-3.175
 11
293.857
 21
206.735
 12
0.0
 22
0.0
 32
0.0
 14
29.068
 24
20.356
 34
0.0
 15
261.614
 25
183.204
 35
0.0
146
0.0
 13
0.0
 23
0.0
 33
0.0
 16
1.0
 26
0.0
 36
0.0
 17
0.0
 27
1.0
 37
0.0
 76
1
330
1B
  0
MATERIAL
  5
1F
102
{ACAD_REACTORS
330
E
102
}
330
E
100
AcDbMaterial
  1
ByBlock
  2

 70
0
 40
1.0
 71
1
 41
1.0
 91
-1023410177
 42
1.0
 72
1
  3

 73
1
 74
1
 75
1
 44
0.5
 73
0
 45
1.0
 46
1.0
 77
1
  4

 78
1
 79
1
170
1
 48
1.0
171
1
  6

172
1
173
1
174
1
140
1.0
141
1.0
175
1
  7

176
1
177
1
178
1
143
1.0
179
1
  8

270
1
271
1
272
1
145
1.0
146
1.0
273
1
  9

274
1
275
1
276
1
 42
1.0
 72
1
  3

 73
1
 74
1
 75
1
 94
63
  0
MATERIAL
  5
20
102
{ACAD_REACTORS
330
E
102
}
330
E
100
AcDbMaterial
  1
ByLayer
  2

 70
0
 40
1.0
 71
1
 41
1.0
 91
-1023410177
 42
1.0
 72
1
  3

 73
1
 74
1
 75
1
 44
0.5
 73
0
 45
1.0
 46
1.0
 77
1
  4

 78
1
 79
1
170
1
 48
1.0
171
1
  6

172
1
173
1
174
1
140
1.0
141
1.0
175
1
  7

176
1
177
1
178
1
143
1.0
179
1
  8

270
1
271
1
272
1
145
1.0
146
1.0
273
1
  9

274
1
275
1
276
1
 42
1.0
 72
1
  3

 73
1
 74
1
 75
1
 94
63
  0
MATERIAL
  5
21
102
{ACAD_REACTORS
330
E
102
}
330
E
100
AcDbMaterial
  1
Global
  2

 70
0
 40
1.0
 71
1
 41
1.0
 91
-1023410177
 42
1.0
 72
1
  3

 73
1
 74
1
 75
1
 44
0.5
 73
0
 45
1.0
 46
1.0
 77
1
  4

 78
1
 79
1
170
1
 48
1.0
171
1
  6

172
1
173
1
174
1
140
1.0
141
1.0
175
1
  7

176
1
177
1
178
1
143
1.0
179
1
  8

270
1
271
1
272
1
145
1.0
146
1.0
273
1
  9

274
1
275
1
276
1
 42
1.0
 72
1
  3

 73
1
 74
1
 75
1
 94
63
  0
MLINESTYLE
  5
22
102
{ACAD_REACTORS
330
10
102
}
330
10
100
AcDbMlineStyle
  2
Standard
 70
0
  3

 62
256
 51
90.0
 52
90.0
 71
2
 49
0.5
 62
256
  6
BYLAYER
 49
-0.5
 62
256
  6
BYLAYER
  0
MLEADERSTYLE
  5
2C
102
{ACAD_REACTORS
330
F
102
}
330
F
100
AcDbMLeaderStyle
179
2
170
2
171
1
172
0
 90
2
 40
0.0
 41
0.0
173
1
 91
-1056964608
 92
-2
290
1
 42
2.0
291
1
 43
8.0
  3
Standard
 44
4.0
300

342
29
174
1
175
1
176
0
178
1
 93
-1056964608
 45
4.0
292
0
297
0
 46
4.0
 94
-1056964608
 47
1.0
 49
0.0
140
1.0
294
1
141
0.0
177
0
142
1.0
295
0
296
0
143
3.75
271
0
272
9
272
9
  0
ENDSEC
  0
EOF
