999
dxfrw 0.6.3
  0
SECTION
  2
HEADER
  9
$ACADVER
  1
AC1021
  9
$DWGCODEPAGE
  3
ANSI_1252
  9
$INSBASE
 10
0
 20
0
 30
0
  9
$EXTMIN
 10
-1772.711791992188
 20
0
 30
0
  9
$EXTMAX
 10
12000
 20
4545.22998046875
 30
0
  9
$LIMMIN
 10
0
 20
0
  9
$LIMMAX
 10
420
 20
297
  9
$ORTHOMODE
 70
    0
  9
$REGENMODE
 70
    1
  9
$FILLMODE
 70
    1
  9
$QTEXTMODE
 70
    0
  9
$MIRRTEXT
 70
    1
  9
$LTSCALE
 40
1
  9
$ATTMODE
 70
    1
  9
$TEXTSIZE
 40
2.5
  9
$TRACEWID
 40
1
  9
$TEXTSTYLE
  7
Standard
  9
$CLAYER
  8
0
  9
$CELTYPE
  6
ByLayer
  9
$CECOLOR
 62
  256
  9
$CELTSCALE
 40
1
  9
$DISPSILH
 70
    0
  9
$DIMSCALE
 40
1
  9
$DIMASZ
 40
2.5
  9
$DIMEXO
 40
0.625
  9
$DIMDLI
 40
3.75
  9
$DIMRND
 40
0
  9
$DIMDLE
 40
0
  9
$DIMEXE
 40
1.25
  9
$DIMTP
 40
0
  9
$DIMTM
 40
0
  9
$DIMTXT
 40
2.5
  9
$DIMCEN
 40
2.5
  9
$DIMTSZ
 40
0
  9
$DIMTOL
 70
    0
  9
$DIMLIM
 70
    0
  9
$DIMTIH
 70
    0
  9
$DIMTOH
 70
    0
  9
$DIMSE1
 70
    0
  9
$DIMSE2
 70
    0
  9
$DIMTAD
 70
    1
  9
$DIMZIN
 70
    8
  9
$DIMBLK
  1

  9
$DIMASO
 70
    1
  9
$DIMSHO
 70
    1
  9
$DIMPOST
  1

  9
$DIMAPOST
  1

  9
$DIMALT
 70
    0
  9
$DIMALTD
 70
    3
  9
$DIMALTF
 40
0.03937007874
  9
$DIMLFAC
 40
1
  9
$DIMTOFL
 70
    1
  9
$DIMTVP
 40
0
  9
$DIMTIX
 70
    0
  9
$DIMSOXD
 70
    0
  9
$DIMSAH
 70
    0
  9
$DIMBLK1
  1

  9
$DIMBLK2
  1

  9
$DIMSTYLE
  2
ISO-25
  9
$DIMCLRD
 70
    0
  9
$DIMCLRE
 70
    0
  9
$DIMCLRT
 70
    0
  9
$DIMTFAC
 40
1
  9
$DIMGAP
 40
0.625
  9
$DIMJUST
 70
    0
  9
$DIMSD1
 70
    0
  9
$DIMSD2
 70
    0
  9
$DIMTOLJ
 70
    0
  9
$DIMTZIN
 70
    8
  9
$DIMALTZ
 70
    0
  9
$DIMALTTZ
 70
    0
  9
$DIMUPT
 70
    0
  9
$DIMDEC
 70
    2
  9
$DIMTDEC
 70
    2
  9
$DIMALTU
 70
    2
  9
$DIMALTTD
 70
    3
  9
$DIMTXSTY
  7
Standard
  9
$DIMAUNIT
 70
    0
  9
$DIMADEC
 70
    0
  9
$DIMALTRND
 40
0
  9
$DIMAZIN
 70
    0
  9
$DIMDSEP
 70
   44
  9
$DIMATFIT
 70
    3
  9
$DIMFRAC
 70
    0
  9
$DIMLDRBLK
  1

  9
$DIMLUNIT
 70
    2
  9
$DIMLWD
 70
   -2
  9
$DIMLWE
 70
   -2
  9
$DIMTMOVE
 70
    0
  9
$DIMFXL
 40
1
  9
$DIMFXLON
 70
    0
  9
$DIMJOGANG
 40
0.785398163397
  9
$DIMTFILL
 70
    0
  9
$DIMTFILLCLR
 70
    0
  9
$DIMARCSYM
 70
    0
  9
$DIMLTYPE
  6

  9
$DIMLTEX1
  6

  9
$DIMLTEX2
  6

  9
$LUNITS
 70
    2
  9
$LUPREC
 70
    4
  9
$SKETCHINC
 40
1
  9
$FILLETRAD
 40
10
  9
$AUNITS
 70
    0
  9
$AUPREC
 70
    2
  9
$MENU
  1
.
  9
$ELEVATION
 40
0
  9
$PELEVATION
 40
0
  9
$THICKNESS
 40
0
  9
$LIMCHECK
 70
    0
  9
$CHAMFERA
 40
0
  9
$CHAMFERB
 40
0
  9
$CHAMFERC
 40
0
  9
$CHAMFERD
 40
0
  9
$SKPOLY
 70
    0
  9
$USRTIMER
 70
    1
  9
$ANGBASE
 50
0
  9
$ANGDIR
 70
    0
  9
$PDMODE
 70
    0
  9
$PDSIZE
 40
0
  9
$PLINEWID
 40
0
  9
$SPLFRAME
 70
    0
  9
$SPLINETYPE
 70
    6
  9
$SPLINESEGS
 70
    8
  9
$HANDSEED
  5
20000
  9
$SURFTAB1
 70
    6
  9
$SURFTAB2
 70
    6
  9
$SURFTYPE
 70
    6
  9
$SURFU
 70
    6
  9
$SURFV
 70
    6
  9
$UCSBASE
  2

  9
$UCSNAME
  2

  9
$UCSORG
 10
0
 20
0
 30
0
  9
$UCSXDIR
 10
1
 20
0
 30
0
  9
$UCSYDIR
 10
0
 20
1
 30
0
  9
$UCSORTHOREF
  2

  9
$UCSORTHOVIEW
 70
    0
  9
$UCSORGTOP
 10
0
 20
0
 30
0
  9
$UCSORGBOTTOM
 10
0
 20
0
 30
0
  9
$UCSORGLEFT
 10
0
 20
0
 30
0
  9
$UCSORGRIGHT
 10
0
 20
0
 30
0
  9
$UCSORGFRONT
 10
0
 20
0
 30
0
  9
$UCSORGBACK
 10
0
 20
0
 30
0
  9
$PUCSBASE
  2

  9
$PUCSNAME
  2

  9
$PUCSORG
 10
0
 20
0
 30
0
  9
$PUCSXDIR
 10
1
 20
0
 30
0
  9
$PUCSYDIR
 10
0
 20
1
 30
0
  9
$PUCSORTHOREF
  2

  9
$PUCSORTHOVIEW
 70
    0
  9
$PUCSORGTOP
 10
0
 20
0
 30
0
  9
$PUCSORGBOTTOM
 10
0
 20
0
 30
0
  9
$PUCSORGLEFT
 10
0
 20
0
 30
0
  9
$PUCSORGRIGHT
 10
0
 20
0
 30
0
  9
$PUCSORGFRONT
 10
0
 20
0
 30
0
  9
$PUCSORGBACK
 10
0
 20
0
 30
0
  9
$USERI1
 70
    0
  9
$USERI2
 70
    0
  9
$USERI3
 70
    0
  9
$USERI4
 70
    0
  9
$USERI5
 70
    0
  9
$USERR1
 40
0
  9
$USERR2
 40
0
  9
$USERR3
 40
0
  9
$USERR4
 40
0
  9
$USERR5
 40
0
  9
$WORLDVIEW
 70
    1
  9
$SHADEDGE
 70
    3
  9
$SHADEDIF
 70
   70
  9
$TILEMODE
 70
    1
  9
$MAXACTVP
 70
   64
  9
$PINSBASE
 10
0
 20
0
 30
0
  9
$PLIMCHECK
 70
    0
  9
$PEXTMIN
 10
1e+20
 20
1e+20
 30
1e+20
  9
$PEXTMAX
 10
-1e+20
 20
-1e+20
 30
-1e+20
  9
$GRIDMODE
 70
    0
  9
$SNAPSTYLE
 70
    0
  9
$PLIMMIN
 10
0
 20
0
  9
$PLIMMAX
 10
420
 20
297
  9
$UNITMODE
 70
    0
  9
$VISRETAIN
 70
    1
  9
$PLINEGEN
 70
    0
  9
$PSLTSCALE
 70
    1
  9
$TREEDEPTH
 70
 3020
  9
$CMLSTYLE
  2
Standard
  9
$CMLJUST
 70
    0
  9
$CMLSCALE
 40
20
  9
$PROXYGRAPHICS
 70
    1
  9
$MEASUREMENT
 70
    1
  9
$CELWEIGHT
370
   -1
  9
$ENDCAPS
280
    0
  9
$JOINSTYLE
280
    0
  9
$LWDISPLAY
290
    0
  9
$INSUNITS
 70
    6
  9
$HYPERLINKBASE
  1

  9
$STYLESHEET
  1

  9
$XEDIT
290
    1
  9
$CEPSNTYPE
380
    0
  9
$PSTYLEMODE
290
    1
  9
$EXTNAMES
290
    1
  9
$PSVPSCALE
 40
0
  9
$OLESTARTUP
290
    0
  9
$SORTENTS
280
  127
  9
$INDEXCTL
280
    0
  9
$HIDETEXT
280
    1
  9
$XCLIPFRAME
290
    0
  9
$HALOGAP
280
    0
  9
$OBSCOLOR
 70
  257
  9
$OBSLTYPE
280
    0
  9
$INTERSECTIONDISPLAY
280
    0
  9
$INTERSECTIONCOLOR
 70
  257
  9
$DIMASSOC
280
    2
  9
$PROJECTNAME
  1

  9
$CAMERADISPLAY
290
    0
  9
$LENSLENGTH
 40
50
  9
$CAMERAHEIGHT
 40
0
  9
$STEPSPERSEC
 40
24
  9
$STEPSIZE
 40
100
  9
$3DDWFPREC
 40
2
  9
$PSOLWIDTH
 40
0.005
  9
$PSOLHEIGHT
 40
0.08
  9
$LOFTANG1
 40
1.570796326795
  9
$LOFTANG2
 40
1.570796326795
  9
$LOFTMAG1
 40
0
  9
$LOFTMAG2
 40
0
  9
$LOFTPARAM
 70
    7
  9
$LOFTNORMALS
280
    1
  9
$LATITUDE
 40
37.795
  9
$LONGITUDE
 40
-122.394
  9
$NORTHDIRECTION
 40
0
  9
$TIMEZONE
 70
-8000
  9
$LIGHTGLYPHDISPLAY
280
    1
  9
$TILEMODELIGHTSYNCH
280
    1
  9
$SOLIDHIST
280
    0
  9
$SHOWHIST
280
    1
  9
$DWFFRAME
280
    2
  9
$DGNFRAME
280
    2
  9
$REALWORLDSCALE
290
    1
  9
$INTERFERECOLOR
 62
  256
  9
$CSHADOW
280
    0
  9
$SHADOWPLANELOCATION
 40
0
  0
ENDSEC
  0
SECTION
  2
CLASSES
  0
ENDSEC
  0
SECTION
  2
TABLES
  0
TABLE
  2
VPORT
  5
8
330
0
100
AcDbSymbolTable
 70
    1
  0
VPORT
  5
31
330
2
100
AcDbSymbolTableRecord
100
AcDbViewportTableRecord
  2
*ACTIVE
 70
    0
 10
0
 20
0
 11
1
 21
1
 12
4017.026220511241
 22
2788.347788519663
 13
0
 23
0
 14
10
 24
10
 15
10
 25
10
 16
0
 26
0
 36
1
 17
0
 27
0
 37
0
 40
8144.382749201318
 41
1.899014778325123
 42
50
 43
0
 44
0
 50
0
 51
0
 71
    0
 72
  100
 73
    1
 74
    3
 75
    0
 76
    0
 77
    0
 78
    0
281
    0
 65
    1
110
0
120
0
130
0
111
1
121
0
131
0
112
0
122
1
132
0
 79
    0
146
0
348
10020
 60
    7
 61
    5
292
1
282
    1
141
0
142
0
 63
  250
421
3358443
  0
ENDTAB
  0
TABLE
  2
LTYPE
  5
5
330
0
100
AcDbSymbolTable
 70
    4
  0
LTYPE
  5
14
330
5
100
AcDbSymbolTableRecord
100
AcDbLinetypeTableRecord
  2
ByBlock
 70
    0
  3

 72
   65
 73
    0
 40
0
  0
LTYPE
  5
15
330
5
100
AcDbSymbolTableRecord
100
AcDbLinetypeTableRecord
  2
ByLayer
 70
    0
  3

 72
   65
 73
    0
 40
0
  0
LTYPE
  5
16
330
5
100
AcDbSymbolTableRecord
100
AcDbLinetypeTableRecord
  2
Continuous
 70
    0
  3
Solid line
 72
   65
 73
    0
 40
0
  0
LTYPE
  5
32
330
5
100
AcDbSymbolTableRecord
100
AcDbLinetypeTableRecord
  2
DOT
 70
    0
  3
Dot . . . . . . . . . . . . . . . . . . . . . .
 72
   65
 73
    2
 40
6.35
 49
0
 74
    0
 49
-6.35
 74
    0
  0
LTYPE
  5
33
330
5
100
AcDbSymbolTableRecord
100
AcDbLinetypeTableRecord
  2
DOTTINY
 70
    0
  3
Dot (.15x) .....................................
 72
   65
 73
    2
 40
0.9525
 49
0
 74
    0
 49
-0.9525
 74
    0
  0
LTYPE
  5
34
330
5
100
AcDbSymbolTableRecord
100
AcDbLinetypeTableRecord
  2
DOT2
 70
    0
  3
Dot (.5x) .....................................
 72
   65
 73
    2
 40
3.175
 49
0
 74
    0
 49
-3.175
 74
    0
  0
LTYPE
  5
35
330
5
100
AcDbSymbolTableRecord
100
AcDbLinetypeTableRecord
  2
DOTX2
 70
    0
  3
Dot (2x) .  .  .  .  .  .  .  .  .  .  .  .  .
 72
   65
 73
    2
 40
12.7
 49
0
 74
    0
 49
-12.7
 74
    0
  0
LTYPE
  5
36
330
5
100
AcDbSymbolTableRecord
100
AcDbLinetypeTableRecord
  2
DASHED
 70
    0
  3
Dashed _ _ _ _ _ _ _ _ _ _ _ _ _ _ _ _ _
 72
   65
 73
    2
 40
19.05
 49
12.7
 74
    0
 49
-6.35
 74
    0
  0
LTYPE
  5
37
330
5
100
AcDbSymbolTableRecord
100
AcDbLinetypeTableRecord
  2
DASHEDTINY
 70
    0
  3
Dashed (.15x) _ _ _ _ _ _ _ _ _ _ _ _ _ _ _ _ _
 72
   65
 73
    2
 40
2.8575
 49
1.905
 74
    0
 49
-0.9525
 74
    0
  0
LTYPE
  5
38
330
5
100
AcDbSymbolTableRecord
100
AcDbLinetypeTableRecord
  2
DASHED2
 70
    0
  3
Dashed (.5x) _ _ _ _ _ _ _ _ _ _ _ _ _ _ _ _ _
 72
   65
 73
    2
 40
9.524999999999999
 49
6.35
 74
    0
 49
-3.175
 74
    0
  0
LTYPE
  5
39
330
5
100
AcDbSymbolTableRecord
100
AcDbLinetypeTableRecord
  2
DASHEDX2
 70
    0
  3
Dashed (2x) ____  ____  ____  ____  ____  ___
 72
   65
 73
    2
 40
38.09999999999999
 49
25.4
 74
    0
 49
-12.7
 74
    0
  0
LTYPE
  5
3A
330
5
100
AcDbSymbolTableRecord
100
AcDbLinetypeTableRecord
  2
DASHDOT
 70
    0
  3
Dash dot __ . __ . __ . __ . __ . __ . __ . __
 72
   65
 73
    4
 40
25.4
 49
12.7
 74
    0
 49
-6.35
 74
    0
 49
0
 74
    0
 49
-6.35
 74
    0
  0
LTYPE
  5
3B
330
5
100
AcDbSymbolTableRecord
100
AcDbLinetypeTableRecord
  2
DASHDOTTINY
 70
    0
  3
Dash dot (.15x) _._._._._._._._._._._._._._._.
 72
   65
 73
    4
 40
3.81
 49
1.905
 74
    0
 49
-0.9525
 74
    0
 49
0
 74
    0
 49
-0.9525
 74
    0
  0
LTYPE
  5
3C
330
5
100
AcDbSymbolTableRecord
100
AcDbLinetypeTableRecord
  2
DASHDOT2
 70
    0
  3
Dash dot (.5x) _._._._._._._._._._._._._._._.
 72
   65
 73
    4
 40
12.7
 49
6.35
 74
    0
 49
-3.175
 74
    0
 49
0
 74
    0
 49
-3.175
 74
    0
  0
LTYPE
  5
3D
330
5
100
AcDbSymbolTableRecord
100
AcDbLinetypeTableRecord
  2
DASHDOTX2
 70
    0
  3
Dash dot (2x) ____  .  ____  .  ____  .  ___
 72
   65
 73
    4
 40
50.8
 49
25.4
 74
    0
 49
-12.7
 74
    0
 49
0
 74
    0
 49
-12.7
 74
    0
  0
LTYPE
  5
3E
330
5
100
AcDbSymbolTableRecord
100
AcDbLinetypeTableRecord
  2
DIVIDE
 70
    0
  3
Divide ____ . . ____ . . ____ . . ____ . . ____
 72
   65
 73
    6
 40
31.75
 49
12.7
 74
    0
 49
-6.35
 74
    0
 49
0
 74
    0
 49
-6.35
 74
    0
 49
0
 74
    0
 49
-6.35
 74
    0
  0
LTYPE
  5
3F
330
5
100
AcDbSymbolTableRecord
100
AcDbLinetypeTableRecord
  2
DIVIDETINY
 70
    0
  3
Divide (.15x) __..__..__..__..__..__..__..__.._
 72
   65
 73
    6
 40
4.7625
 49
1.905
 74
    0
 49
-0.9525
 74
    0
 49
0
 74
    0
 49
-0.9525
 74
    0
 49
0
 74
    0
 49
-0.9525
 74
    0
  0
LTYPE
  5
40
330
5
100
AcDbSymbolTableRecord
100
AcDbLinetypeTableRecord
  2
DIVIDE2
 70
    0
  3
Divide (.5x) __..__..__..__..__..__..__..__.._
 72
   65
 73
    6
 40
15.875
 49
6.35
 74
    0
 49
-3.175
 74
    0
 49
0
 74
    0
 49
-3.175
 74
    0
 49
0
 74
    0
 49
-3.175
 74
    0
  0
LTYPE
  5
41
330
5
100
AcDbSymbolTableRecord
100
AcDbLinetypeTableRecord
  2
DIVIDEX2
 70
    0
  3
Divide (2x) ________  .  .  ________  .  .  _
 72
   65
 73
    6
 40
63.5
 49
25.4
 74
    0
 49
-12.7
 74
    0
 49
0
 74
    0
 49
-12.7
 74
    0
 49
0
 74
    0
 49
-12.7
 74
    0
  0
LTYPE
  5
42
330
5
100
AcDbSymbolTableRecord
100
AcDbLinetypeTableRecord
  2
BORDER
 70
    0
  3
Border __ __ . __ __ . __ __ . __ __ . __ __ .
 72
   65
 73
    6
 40
44.45
 49
12.7
 74
    0
 49
-6.35
 74
    0
 49
12.7
 74
    0
 49
-6.35
 74
    0
 49
0
 74
    0
 49
-6.35
 74
    0
  0
LTYPE
  5
43
330
5
100
AcDbSymbolTableRecord
100
AcDbLinetypeTableRecord
  2
BORDERTINY
 70
    0
  3
Border (.15x) __.__.__.__.__.__.__.__.__.__.__.
 72
   65
 73
    6
 40
6.6675
 49
1.905
 74
    0
 49
-0.9525
 74
    0
 49
1.905
 74
    0
 49
-0.9525
 74
    0
 49
0
 74
    0
 49
-0.9525
 74
    0
  0
LTYPE
  5
44
330
5
100
AcDbSymbolTableRecord
100
AcDbLinetypeTableRecord
  2
BORDER2
 70
    0
  3
Border (.5x) __.__.__.__.__.__.__.__.__.__.__.
 72
   65
 73
    6
 40
22.225
 49
6.35
 74
    0
 49
-3.175
 74
    0
 49
6.35
 74
    0
 49
-3.175
 74
    0
 49
0
 74
    0
 49
-3.175
 74
    0
  0
LTYPE
  5
45
330
5
100
AcDbSymbolTableRecord
100
AcDbLinetypeTableRecord
  2
BORDERX2
 70
    0
  3
Border (2x) ____  ____  .  ____  ____  .  ___
 72
   65
 73
    6
 40
88.89999999999999
 49
25.4
 74
    0
 49
-12.7
 74
    0
 49
25.4
 74
    0
 49
-12.7
 74
    0
 49
0
 74
    0
 49
-12.7
 74
    0
  0
LTYPE
  5
46
330
5
100
AcDbSymbolTableRecord
100
AcDbLinetypeTableRecord
  2
CENTER
 70
    0
  3
Center ____ _ ____ _ ____ _ ____ _ ____ _ ____
 72
   65
 73
    4
 40
50.8
 49
31.75
 74
    0
 49
-6.35
 74
    0
 49
6.35
 74
    0
 49
-6.35
 74
    0
  0
LTYPE
  5
47
330
5
100
AcDbSymbolTableRecord
100
AcDbLinetypeTableRecord
  2
CENTERTINY
 70
    0
  3
Center (.15x) ___ _ ___ _ ___ _ ___ _ ___ _ ___
 72
   65
 73
    4
 40
7.619999999999999
 49
4.7625
 74
    0
 49
-0.9525
 74
    0
 49
0.9525
 74
    0
 49
-0.9525
 74
    0
  0
LTYPE
  5
48
330
5
100
AcDbSymbolTableRecord
100
AcDbLinetypeTableRecord
  2
CENTER2
 70
    0
  3
Center (.5x) ___ _ ___ _ ___ _ ___ _ ___ _ ___
 72
   65
 73
    4
 40
28.575
 49
19.05
 74
    0
 49
-3.175
 74
    0
 49
3.175
 74
    0
 49
-3.175
 74
    0
  0
LTYPE
  5
49
330
5
100
AcDbSymbolTableRecord
100
AcDbLinetypeTableRecord
  2
CENTERX2
 70
    0
  3
Center (2x) ________  __  ________  __  _____
 72
   65
 73
    4
 40
101.6
 49
63.5
 74
    0
 49
-12.7
 74
    0
 49
12.7
 74
    0
 49
-12.7
 74
    0
  0
ENDTAB
  0
TABLE
  2
LAYER
  5
2
330
0
100
AcDbSymbolTable
 70
    1
  0
LAYER
  5
10
330
2
100
AcDbSymbolTableRecord
100
AcDbLayerTableRecord
  2
0
 70
    0
 62
    7
  6
CONTINUOUS
370
   -3
390
F
  0
LAYER
  5
4A
330
2
100
AcDbSymbolTableRecord
100
AcDbLayerTableRecord
  2
1
 70
    0
 62
    1
  6
CONTINUOUS
370
   -3
390
F
  0
LAYER
  5
4B
330
2
100
AcDbSymbolTableRecord
100
AcDbLayerTableRecord
  2
11
 70
    0
 62
    3
  6
CONTINUOUS
370
   -3
390
F
  0
LAYER
  5
4C
330
2
100
AcDbSymbolTableRecord
100
AcDbLayerTableRecord
  2
21
 70
    0
 62
   21
  6
CONTINUOUS
370
   -3
390
F
  0
LAYER
  5
4D
330
2
100
AcDbSymbolTableRecord
100
AcDbLayerTableRecord
  2
8
 70
    0
 62
    4
  6
CONTINUOUS
370
   -3
390
F
  0
LAYER
  5
4E
330
2
100
AcDbSymbolTableRecord
100
AcDbLayerTableRecord
  2
Defpoints
 70
    0
 62
    7
  6
CONTINUOUS
290
0
370
   -3
390
F
  0
ENDTAB
  0
TABLE
  2
STYLE
  5
3
330
0
100
AcDbSymbolTable
 70
    3
  0
STYLE
  5
4F
330
2
100
AcDbSymbolTableRecord
100
AcDbTextStyleTableRecord
  2
Standard
 70
    0
 40
0
 41
1
 50
0
 71
    0
 42
1
  3
txt
  4

  0
ENDTAB
  0
TABLE
  2
VIEW
  5
6
330
0
100
AcDbSymbolTable
 70
    0
  0
ENDTAB
  0
TABLE
  2
UCS
  5
7
330
0
100
AcDbSymbolTable
 70
    0
  0
ENDTAB
  0
TABLE
  2
APPID
  5
9
330
0
100
AcDbSymbolTable
 70
    1
  0
APPID
  5
12
330
9
100
AcDbSymbolTableRecord
100
AcDbRegAppTableRecord
  2
ACAD
 70
    0
  0
APPID
  5
50
330
9
100
AcDbSymbolTableRecord
100
AcDbRegAppTableRecord
  2
LibreCad
 70
    0
  0
ENDTAB
  0
TABLE
  2
DIMSTYLE
  5
A
330
0
100
AcDbSymbolTable
 70
    1
100
AcDbDimStyleTable
 71
    1
  0
DIMSTYLE
105
51
330
A
100
AcDbSymbolTableRecord
100
AcDbDimStyleTableRecord
  2
Standard
 70
    0
 40
1
 41
2.5
 42
0.625
 43
0.38
 44
1.25
 45
0
 46
0
 47
0
 48
0
 49
1
140
2.5
141
0.09
142
0
143
25.4
144
1
145
0
146
1
147
0.625
148
0
 71
    0
 72
    0
 73
    0
 74
    1
 75
    0
 76
    0
 77
    0
 78
    8
 79
    0
170
    0
171
    2
172
    0
173
    0
174
    0
175
    0
176
    0
177
    0
178
    0
179
    0
271
    2
272
    4
273
    2
274
    2
275
    0
276
    0
277
    2
278
   44
279
    0
280
    0
281
    0
282
    0
283
    1
284
    0
285
    0
286
    0
288
    0
289
    3
340
Standard
341

371
   -2
372
   -2
  0
ENDTAB
  0
TABLE
  2
BLOCK_RECORD
  5
1
330
0
100
AcDbSymbolTable
 70
    2
  0
BLOCK_RECORD
  5
1F
330
1
100
AcDbSymbolTableRecord
100
AcDbBlockTableRecord
  2
*Model_Space
 70
    0
280
    1
281
    0
  0
BLOCK_RECORD
  5
1E
330
1
100
AcDbSymbolTableRecord
100
AcDbBlockTableRecord
  2
*Paper_Space
 70
    0
280
    1
281
    0
  0
BLOCK_RECORD
  5
52
330
1
100
AcDbSymbolTableRecord
100
AcDbBlockTableRecord
  2
TSR
 70
    0
280
    1
281
    0
  0
BLOCK_RECORD
  5
55
330
1
100
AcDbSymbolTableRecord
100
AcDbBlockTableRecord
  2
LE1M
 70
    0
280
    1
281
    0
  0
BLOCK_RECORD
  5
58
330
1
100
AcDbSymbolTableRecord
100
AcDbBlockTableRecord
  2
US
 70
    0
280
    1
281
    0
  0
BLOCK_RECORD
  5
5B
330
1
100
AcDbSymbolTableRecord
100
AcDbBlockTableRecord
  2
TSF
 70
    0
280
    1
281
    0
  0
BLOCK_RECORD
  5
5E
330
1
100
AcDbSymbolTableRecord
100
AcDbBlockTableRecord
  2
LE3M
 70
    0
280
    1
281
    0
  0
BLOCK_RECORD
  5
61
330
1
100
AcDbSymbolTableRecord
100
AcDbBlockTableRecord
  2
LE2M
 70
    0
280
    1
281
    0
  0
ENDTAB
  0
ENDSEC
  0
SECTION
  2
BLOCKS
  0
BLOCK
  5
20
330
1F
100
AcDbEntity
  8
0
100
AcDbBlockBegin
  2
*Model_Space
 70
    0
 10
0
 20
0
 30
0
  3
*Model_Space
  1

  0
ENDBLK
  5
21
330
1F
100
AcDbEntity
  8
0
100
AcDbBlockEnd
  0
BLOCK
  5
1C
330
1B
100
AcDbEntity
  8
0
100
AcDbBlockBegin
  2
*Paper_Space
 70
    0
 10
0
 20
0
 30
0
  3
*Paper_Space
  1

  0
ENDBLK
  5
1D
330
1F
100
AcDbEntity
  8
0
100
AcDbBlockEnd
  0
BLOCK
  5
53
330
52
100
AcDbEntity
  8
0
100
AcDbBlockBegin
  2
TSR
 70
    0
 10
0
 20
0
  3
TSR
  1

  0
LWPOLYLINE
  5
64
100
AcDbEntity
  8
1
  6
ByLayer
 62
  256
370
   -1
100
AcDbPolyline
 90
  142
 70
    0
 43
0
 10
-2329.043579101562
 20
649.9294891357422
 10
-2204.794982910156
 20
666.1741180419922
 10
-2079.953674316406
 20
681.0997772216797
 10
-1975.46728515625
 20
692.5411834716797
 10
-1911.853332519531
 20
697.4431610107422
 10
-1826.673095703125
 20
703.2024383544922
 10
-1741.246520996094
 20
708.4294891357422
 10
-1655.572982788086
 20
713.1276092529297
 10
-1569.650573730469
 20
717.2974090576172
 10
-1483.47931098938
 20
720.9410858154297
 10
-1397.056198120117
 20
724.0583953857422
 10
-1310.38200378418
 20
726.6536102294922
 10
-1201.685180664062
 20
729.1696014404297
 10
-1179.680480957031
 20
729.1149139404297
 10
-1113.084228515625
 20
727.7240447998047
 10
-957.1841430664062
 20
723.4528045654297
 10
-823.0145874023438
 20
718.6977996826172
 10
-665.9156494140625
 20
712.0116424560547
 10
-485.7811279296875
 20
703.2130584716797
 10
78.53729248046875
 20
673.7214813232422
 10
484.9409790039062
 20
653.0277557373047
 10
1208.971374511719
 20
619.3368377685547
 10
1919.542663574219
 20
615.1584930419922
 10
1941.167663574219
 20
616.2469940185547
 10
2383.558776855469
 20
645.5741424560547
 10
2385.397155761719
 20
645.3451385498047
 10
2387.477478027344
 20
644.3213348388672
 10
2389.043151855469
 20
642.5959930419922
 10
2390.403015136719
 20
639.7259979248047
 10
2505.748962402344
 20
387.0521697998047
 10
2507.071960449219
 20
382.8785858154297
 10
2506.652770996094
 20
380.5521697998047
 10
2504.539978027344
 20
377.7770843505859
 10
2463.656433105469
 20
345.1994476318359
 10
2415.813659667969
 20
305.9178314208984
 10
2368.388854980469
 20
265.7283782958984
 10
2321.379089355469
 20
224.6419525146484
 10
2290.268005371094
 20
196.7586517333984
 10
2243.942565917969
 20
154.2001190185547
 10
2198.024353027344
 20
110.7688446044922
 10
2171.655456542969
 20
85.03727722167969
 10
2166.844177246094
 20
83.04209899902344
 10
2090.934997558594
 20
56.99308776855469
 10
2015.605895996094
 20
29.69078063964844
 10
1940.870544433594
 20
1.105819702148438
 10
1866.722351074219
 20
-28.74336242675781
 10
1793.155944824219
 20
-59.84013366699219
 10
1720.165954589844
 20
-92.16902160644531
 10
1647.746032714844
 20
-125.7150115966797
 10
1575.801208496094
 20
-160.2732391357422
 10
1555.004333496094
 20
-162.9440155029297
 10
1471.003601074219
 20
-171.9094696044922
 10
1408.407165527344
 20
-179.5031280517578
 10
1325.483825683594
 20
-190.7841033935547
 10
1243.176940917969
 20
-203.3828582763672
 10
1161.488464355469
 20
-217.2960357666016
 10
1080.417907714844
 20
-232.5227508544922
 10
1020.016540527344
 20
-244.8010406494141
 10
919.9618530273438
 20
-266.5453033447266
 10
811.8456420898438
 20
-271.1068267822266
 10
747.5216674804688
 20
-274.8762664794922
 10
704.8732299804688
 20
-277.8639068603516
 10
641.2448120117188
 20
-283.0598907470703
 10
599.0556030273438
 20
-287.0051116943359
 10
515.2227172851562
 20
-296.0528106689453
 10
473.5798950195312
 20
-301.1581726074219
 10
411.4562377929688
 20
-309.5460968017578
 10
349.7417602539062
 20
-318.8132476806641
 10
308.8267211914062
 20
-325.4826812744141
 10
268.0935668945312
 20
-332.5464477539062
 10
207.3363647460938
 20
-343.8849487304688
 10
126.9630737304688
 20
-360.3914337158203
 10
105.8728637695312
 20
-362.3820953369141
 10
61.99615478515625
 20
-362.7389221191406
 10
-3.40960693359375
 20
-364.1502532958984
 10
-68.33648681640625
 20
-366.5891571044922
 10
-132.7937622070312
 20
-370.0366516113281
 10
-175.5108032226562
 20
-372.8791961669922
 10
-239.2127075195312
 20
-377.9464416503906
 10
-281.4358520507812
 20
-381.8467712402344
 10
-344.4099731445312
 20
-388.4690856933594
 10
-406.9589233398438
 20
-395.9971618652344
 10
-489.708251953125
 20
-407.4109497070312
 10
-571.7342529296875
 20
-420.3589172363281
 10
-653.0912475585938
 20
-434.7324066162109
 10
-715.447021484375
 20
-442.7436370849609
 10
-756.8067626953125
 20
-448.5280990600586
 10
-839.0147094726562
 20
-461.1839141845703
 10
-879.8656005859375
 20
-468.050651550293
 10
-940.8350830078125
 20
-479.0033874511719
 10
-1001.4375
 20
-490.7349548339844
 10
-1041.640808105469
 20
-498.9776878356934
 10
-1101.647308349609
 20
-511.9708862304688
 10
-1141.457641601562
 20
-521.0423355102539
 10
-1200.88264465332
 20
-535.2605090141296
 10
-1259.967269897461
 20
-550.1962075233459
 10
-1318.714004516602
 20
-565.8415756225586
 10
-1377.176719665527
 20
-582.0896263122559
 10
-1436.467864990234
 20
-596.6658706665039
 10
-1495.41527557373
 20
-611.9696655273438
 10
-1554.025985717773
 20
-627.9915466308594
 10
-1592.912002563477
 20
-639.0747451782227
 10
-1650.964065551758
 20
-656.2854766845703
 10
-1727.849700927734
 20
-680.3335113525391
 10
-1804.147918701172
 20
-705.6194458007812
 10
-1868.265258789062
 20
-727.9727172851562
 10
-1873.099609375
 20
-729.1696014404297
 10
-1875.985076904297
 20
-728.2661590576172
 10
-1877.474395751953
 20
-727.0052185058594
 10
-1878.508087158203
 20
-725.3501434326172
 10
-2039.8505859375
 20
-388.3217620849609
 10
-2097.000854492188
 20
-267.3312835693359
 10
-2166.239196777344
 20
-118.9645843505859
 10
-2166.091430664062
 20
-115.5569915771484
 10
-2164.160339355469
 20
-112.7126312255859
 10
-2154.188171386719
 20
-107.7062530517578
 10
-2149.226135253906
 20
-104.6071624755859
 10
-2145.13623046875
 20
-100.4292144775391
 10
-2142.172912597656
 20
-95.38398742675781
 10
-2140.496459960938
 20
-89.77626037597656
 10
-2140.182006835938
 20
-86.97175598144531
 10
-2140.406677246094
 20
-82.28605651855469
 10
-2141.475708007812
 20
-77.71626281738281
 10
-2153.340148925781
 20
-51.83576965332031
 10
-2157.031311035156
 20
-45.07554626464844
 10
-2159.882507324219
 20
-42.43949890136719
 10
-2161.563293457031
 20
-41.46018981933594
 10
-2165.935119628906
 20
-40.12489318847656
 10
-2168.575744628906
 20
-40.07249450683594
 10
-2173.654235839844
 20
-41.44447326660156
 10
-2193.075988769531
 20
-50.54100036621094
 10
-2196.356506347656
 20
-50.26551818847656
 10
-2197.867431640625
 20
-49.46815490722656
 10
-2199.980224609375
 20
-46.82237243652344
 10
-2316.58447265625
 20
204.6992034912109
 10
-2507.018981933594
 20
617.7368621826172
 10
-2507.071960449219
 20
619.4424285888672
 10
-2505.814392089844
 20
622.5817108154297
 10
-2503.233703613281
 20
624.5664520263672
 10
-2500.049621582031
 20
625.2341766357422
 10
-2411.545227050781
 20
638.3610076904297
 10
-2329.043579101562
 20
649.9294891357422
  0
LWPOLYLINE
  5
65
100
AcDbEntity
  8
8
  6
ByLayer
 62
  256
370
   -1
100
AcDbPolyline
 90
   32
 70
    0
 43
0
 10
2389.093650432318
 20
642.5992535341134
 10
2389.955750241041
 20
639.6959379622081
 10
2389.862162720722
 20
638.1391083227613
 10
2389.379310507964
 20
636.6795260375404
 10
2387.847135113981
 20
634.6603462125754
 10
2385.646374669724
 20
633.3797236684434
 10
2376.223972714567
 20
632.5575151414523
 10
1925.324406144839
 20
602.7071271733537
 10
1214.955405079501
 20
606.6162665230149
 10
490.9861825053188
 20
640.2035369041826
 10
62.01617102522323
 20
662.0526589729313
 10
-479.7270015389374
 20
690.3796813165636
 10
-659.8845008454002
 20
699.2140228579258
 10
-817.0132259354363
 20
705.9455396508756
 10
-951.2120567182442
 20
710.7482042325785
 10
-1084.914817575484
 20
714.5467847850728
 10
-1195.872725129581
 20
716.7736256717626
 10
-1304.594529460416
 20
714.2982755911921
 10
-1391.29011135367
 20
711.7345725182479
 10
-1477.733825648141
 20
708.650094821508
 10
-1585.434559674191
 20
704.052975545042
 10
-1692.74586860931
 20
698.6337584871671
 10
-1778.317388954731
 20
693.7016278046517
 10
-1884.932154946591
 20
686.7865472602591
 10
-1969.897099087661
 20
680.5520393184418
 10
-2116.095947610092
 20
664.3336220711481
 10
-2240.766242057488
 20
649.0114473506858
 10
-2373.279274689088
 20
631.1819844735221
 10
-2500.390441550715
 20
612.5665534819007
 10
-2503.462128210812
 20
613.1161589696987
 10
-2505.860128514364
 20
615.046070501638
 10
-2520.052389014947
 20
645.4363052078472
  0
LWPOLYLINE
  5
66
100
AcDbEntity
  8
8
  6
ByLayer
 62
  256
370
   -1
100
AcDbPolyline
 90
    3
 70
    0
 43
0
 10
-2144.799665754025
 20
-150.4524391665602
 10
-1630.696095558845
 20
-74.96665235711964
 10
-1612.74682330625
 20
-72.61009878667807
  0
LWPOLYLINE
  5
67
100
AcDbEntity
  8
8
  6
ByLayer
 62
  256
370
   -1
100
AcDbPolyline
 90
    5
 70
    0
 43
0
 10
-1612.74682330625
 20
-72.61009878667807
 10
-1589.068685376252
 20
-69.33641842241644
 10
-1107.146434103057
 20
-8.251641817627501
 10
-878.061646324169
 20
20.70564245355729
 10
-863.0260459526768
 20
22.23900048813755
  0
LWPOLYLINE
  5
68
100
AcDbEntity
  8
8
  6
ByLayer
 62
  256
370
   -1
100
AcDbPolyline
 90
    3
 70
    0
 43
0
 10
-863.0260459526768
 20
22.23900048813755
 10
-836.2506514167613
 20
23.29637918604033
 10
-67.1100061262855
 20
43.6222258013355
  0
LWPOLYLINE
  5
69
100
AcDbEntity
  8
8
  6
ByLayer
 62
  256
370
   -1
100
AcDbPolyline
 90
    2
 70
    0
 43
0
 10
-67.1100061262855
 20
43.6222258013355
 10
808.7132660996849
 20
-15.36707076516666
  0
LWPOLYLINE
  5
6A
100
AcDbEntity
  8
8
  6
ByLayer
 62
  256
370
   -1
100
AcDbPolyline
 90
    3
 70
    0
 43
0
 10
808.7132660996849
 20
-15.36707076516666
 10
1515.062355090531
 20
-33.22691048217979
 10
1517.906384270314
 20
-32.99028708634057
  0
LWPOLYLINE
  5
6B
100
AcDbEntity
  8
8
  6
ByLayer
 62
  256
370
   -1
100
AcDbPolyline
 90
    5
 70
    0
 43
0
 10
1517.906384270314
 20
-32.99028708634057
 10
1534.720793048147
 20
-26.4544239100735
 10
2082.07044117119
 20
198.4252807773144
 10
2107.071803583104
 20
208.7292785488274
 10
2109.65741923478
 20
210.2924363101208
  0
LWPOLYLINE
  5
6C
100
AcDbEntity
  8
8
  6
ByLayer
 62
  256
370
   -1
100
AcDbPolyline
 90
    3
 70
    0
 43
0
 10
2109.65741923478
 20
210.2924363101208
 10
2134.309046415952
 20
221.5846453286034
 10
2495.468484351719
 20
394.5043515337281
  0
LWPOLYLINE
  5
6D
100
AcDbEntity
  8
8
  6
ByLayer
 62
  256
370
   -1
100
AcDbPolyline
 90
    5
 70
    0
 43
0
 10
-1379.566102513725
 20
-563.7478084658662
 10
-1532.85104204504
 20
-271.1100859186747
 10
-1643.504652163692
 20
-57.42113911676256
 10
-1788.335947209969
 20
224.7773638239491
 10
-2037.796687298625
 20
713.4965228786871
  0
LWPOLYLINE
  5
6E
100
AcDbEntity
  8
8
  6
ByLayer
 62
  256
370
   -1
100
AcDbPolyline
 90
    4
 70
    0
 43
0
 10
-655.1327167150927
 20
-416.5734943821911
 10
-821.4779198644417
 20
-106.997448532424
 10
-930.5582025935909
 20
96.95122184202944
 10
-1279.773067722545
 20
753.5373977762492
  0
LWPOLYLINE
  5
6F
100
AcDbEntity
  8
8
  6
ByLayer
 62
  256
370
   -1
100
AcDbPolyline
 90
    2
 70
    0
 43
0
 10
115.8246295541824
 20
-343.5456849852861
 10
-454.173263146413
 20
719.2118449333527
  0
LWPOLYLINE
  5
70
100
AcDbEntity
  8
8
  6
ByLayer
 62
  256
370
   -1
100
AcDbPolyline
 90
    2
 70
    0
 43
0
 10
918.7803833846069
 20
-247.7316052325285
 10
418.9054732604582
 20
674.2392912966211
  0
LWPOLYLINE
  5
71
100
AcDbEntity
  8
8
  6
ByLayer
 62
  256
370
   -1
100
AcDbPolyline
 90
    2
 70
    0
 43
0
 10
1569.350324319658
 20
-142.3440764502684
 10
1032.747161320243
 20
640.7085557647558
  0
LWPOLYLINE
  5
72
100
AcDbEntity
  8
8
  6
ByLayer
 62
  256
370
   -1
100
AcDbPolyline
 90
    3
 70
    0
 43
0
 10
2160.379180105377
 20
101.1802284940215
 10
1870.913757765893
 20
375.2541464766862
 10
1602.585206960252
 20
628.2721222535363
  0
LWPOLYLINE
  5
73
100
AcDbEntity
  8
8
  6
ByLayer
 62
  256
370
   -1
100
AcDbPolyline
 90
    3
 70
    0
 43
0
 10
2495.468484351719
 20
394.5043515337281
 10
2322.304327716618
 20
496.6201636861763
 10
2086.731807509434
 20
633.6641747629631
  0
LWPOLYLINE
  5
74
100
AcDbEntity
  8
8
  6
ByLayer
 62
  256
370
   -1
100
AcDbPolyline
 90
   79
 70
    0
 43
0
 10
-1878.186151782411
 20
-711.5754073051797
 10
-1800.570733775913
 20
-684.5818022103932
 10
-1737.020422657107
 20
-663.5893582006649
 10
-1670.308031457886
 20
-642.5668022607931
 10
-1609.130238821094
 20
-624.2451423245246
 10
-1553.56675419468
 20
-608.3732121762814
 10
-1512.49605050576
 20
-597.1084262898818
 10
-1432.977051799973
 20
-576.4226075065892
 10
-1385.647913427106
 20
-564.8317960218357
 10
-1379.566102513725
 20
-563.7478084658662
 10
-1364.586281688496
 20
-559.1143612103796
 10
-1331.28309266068
 20
-549.8394243761051
 10
-1258.617322360103
 20
-530.4548998354854
 10
-1219.244250245714
 20
-520.4638744236904
 10
-1158.650000447513
 20
-505.7948184711256
 10
-1107.139371669996
 20
-493.9791520876637
 10
-1052.591791898646
 20
-482.1146000371029
 10
-958.6372260967307
 20
-463.2428479856715
 10
-897.9890423628337
 20
-452.16936349218
 10
-846.4389722655912
 20
-443.3935495071243
 10
-785.7820407615188
 20
-433.8441026948398
 10
-734.2226276642378
 20
-426.3705155459876
 10
-670.5145448769996
 20
-417.9834833872588
 10
-661.3996505567379
 20
-416.8864892976667
 10
-655.1327167150927
 20
-416.5734943821911
 10
-639.4306439067947
 20
-413.1945668187118
 10
-588.5461830074182
 20
-404.1760353942757
 10
-534.4949674799803
 20
-395.2827485615877
 10
-489.9918399028846
 20
-388.4944490257026
 10
-413.7345766574031
 20
-377.9609782080493
 10
-340.6936470099308
 20
-369.1727799340285
 10
-280.3750302038166
 20
-362.8959656831364
 10
-223.2522544747249
 20
-357.7641239306607
 10
-162.9789806124452
 20
-353.2039277790431
 10
-109.0795638075638
 20
-349.856023950726
 10
-55.18613035871704
 20
-347.2397102456796
 10
-1.325225889347394
 20
-345.3120584608323
 10
58.8609632039977
 20
-344.0212497476602
 10
115.8246295541824
 20
-343.5456849852861
 10
175.8712115497524
 20
-331.0085699600089
 10
221.1784470703215
 20
-322.1196499304652
 10
272.8364444286408
 20
-312.6384926012224
 10
312.5681151536817
 20
-305.8288381523988
 10
367.903744448003
 20
-297.0114115027542
 10
414.2953813627453
 20
-290.1906901507303
 10
467.1934423426801
 20
-283.0654708460879
 10
511.0024534685501
 20
-277.6599698016372
 10
567.667421504879
 20
-271.3465374245312
 10
615.1695395079614
 20
-266.6104432408519
 10
710.9686364359659
 20
-258.6177003441261
 10
759.2593692552891
 20
-255.3371214857797
 10
811.0590777597936
 20
-252.3614751553636
 10
918.7803833846069
 20
-247.7316052325285
 10
1002.985912593131
 20
-229.2285355833968
 10
1075.638459246899
 20
-214.3456929008574
 10
1157.96777200209
 20
-198.877168368315
 10
1240.925098466513
 20
-184.7509053386903
 10
1315.194889512304
 20
-173.331252495914
 10
1396.213133425522
 20
-162.1642457485694
 10
1465.22408742984
 20
-153.7021315248215
 10
1566.3430502367
 20
-143.0014696641593
 10
1569.350324319658
 20
-142.3440764502684
 10
1656.98348281089
 20
-100.6398378955838
 10
1722.891977152978
 20
-70.36218947054579
 10
1794.578607018796
 20
-38.76175899981519
 10
1869.373829561239
 20
-7.346880477463628
 10
1924.991411902384
 20
15.03626559759641
 10
2000.365582682812
 20
44.04896410680135
 10
2073.262619130382
 20
70.67595808937904
 10
2157.786216624287
 20
99.73777736808063
 10
2160.379180105377
 20
101.1802284940215
 10
2174.334165481419
 20
113.991812644855
 10
2227.183409831102
 20
164.2827296341933
 10
2257.248993867614
 20
192.1291917740685
 10
2322.478754587114
 20
250.6946209862476
 10
2376.536247807332
 20
297.370943301125
 10
2416.72650147603
 20
331.1269614732886
 10
2461.949838933806
 20
367.9571254454739
 10
2495.468484351719
 20
394.5043515337281
  0
ENDBLK
  5
54
330
52
100
AcDbEntity
  8
0
100
AcDbBlockEnd
  0
BLOCK
  5
56
330
55
100
AcDbEntity
  8
0
100
AcDbBlockBegin
  2
LE1M
 70
    0
 10
0
 20
0
  3
LE1M
  1

  0
LWPOLYLINE
  5
75
100
AcDbEntity
  8
1
  6
ByLayer
 62
  256
370
   -1
100
AcDbPolyline
 90
   99
 70
    0
 43
0
 10
-311.5747985839844
 20
195.5045166015625
 10
-222.4635925292969
 20
187.9134521484375
 10
-110.6012268066406
 20
179.1578369140625
 10
182.6098327636719
 20
158.6766357421875
 10
320.7670288085938
 20
152.8026123046875
 10
528.5246467590332
 20
145.1641845703125
 10
713.6230163574219
 20
139.1575927734375
 10
992.3100280761719
 20
130.8931884765625
 10
1248.488189697266
 20
122.4417724609375
 10
1271.399749755859
 20
121.1319580078125
 10
1275.132232666016
 20
119.0025634765625
 10
1277.919525146484
 20
115.7305908203125
 10
1279.071685791016
 20
112.9737548828125
 10
1279.616485595703
 20
110.1090087890625
 10
1279.472564697266
 20
107.1990966796875
 10
1278.652069091797
 20
104.4102783203125
 10
1249.976409912109
 20
59.9691162109375
 10
1234.621612548828
 20
35.3026123046875
 10
1225.678558349609
 20
18.6768798828125
 10
1224.460784912109
 20
14.4400634765625
 10
1224.756744384766
 20
5.2598876953125
 10
1225.855133056641
 20
-9.6561279296875
 10
1227.967254638672
 20
-21.8599853515625
 10
1233.569366455078
 20
-45.1234130859375
 10
1240.670501708984
 20
-68.9083251953125
 10
1249.102569580078
 20
-93.0604248046875
 10
1263.915557861328
 20
-129.4228515625
 10
1274.790802001953
 20
-153.84423828125
 10
1295.084991455078
 20
-196.3182373046875
 10
1295.492401123047
 20
-199.5032958984375
 10
1295.075286865234
 20
-202.6829833984375
 10
1293.780853271484
 20
-205.7945556640625
 10
1291.707611083984
 20
-208.4432373046875
 10
1289.008514404297
 20
-210.44677734375
 10
1285.878814697266
 20
-211.6630859375
 10
1031.590240478516
 20
-217.5672607421875
 10
524.5083236694336
 20
-227.552734375
 10
202.5797424316406
 20
-235.1771240234375
 10
-92.47372436523438
 20
-248.05126953125
 10
-250.7720642089844
 20
-255.4010009765625
 10
-476.3193054199219
 20
-266.962890625
 10
-588.8445739746094
 20
-273.2501220703125
 10
-633.6442565917969
 20
-276.1585693359375
 10
-789.6009216308594
 20
-287.7518310546875
 10
-922.7693786621094
 20
-298.42529296875
 10
-1055.386932373047
 20
-309.9951171875
 10
-1182.851409912109
 20
-322.0816650390625
 10
-1185.792938232422
 20
-321.643310546875
 10
-1188.544891357422
 20
-320.5289306640625
 10
-1192.127044677734
 20
-317.5318603515625
 10
-1208.437957763672
 20
-288.1240234375
 10
-1226.927703857422
 20
-253.2080078125
 10
-1244.828094482422
 20
-218.0382080078125
 10
-1261.930999755859
 20
-182.9713134765625
 10
-1277.897308349609
 20
-148.4710693359375
 10
-1294.726531982422
 20
-109.2318115234375
 10
-1295.400604248047
 20
-106.6053466796875
 10
-1295.492401123047
 20
-103.8953857421875
 10
-1294.695770263672
 20
-100.3543701171875
 10
-1292.917449951172
 20
-97.1849365234375
 10
-1289.842987060547
 20
-94.2999267578125
 10
-1285.953704833984
 20
-92.6153564453125
 10
-1243.633392333984
 20
-79.6978759765625
 10
-1200.844085693359
 20
-65.3216552734375
 10
-1196.232757568359
 20
-62.6458740234375
 10
-1192.754852294922
 20
-58.6671142578125
 10
-1190.582000732422
 20
-54.8377685546875
 10
-1187.464202880859
 20
-46.6275634765625
 10
-1184.972991943359
 20
-30.8714599609375
 10
-1182.300628662109
 20
66.3204345703125
 10
-1182.495941162109
 20
78.3243408203125
 10
-1183.317230224609
 20
82.5997314453125
 10
-1184.907440185547
 20
86.6390380859375
 10
-1188.232635498047
 20
91.2952880859375
 10
-1192.645599365234
 20
94.7037353515625
 10
-1226.640960693359
 20
117.0433349609375
 10
-1268.868133544922
 20
143.2960205078125
 10
-1271.871673583984
 20
145.9569091796875
 10
-1273.025726318359
 20
147.6309814453125
 10
-1274.458221435547
 20
151.4156494140625
 10
-1274.694549560547
 20
153.4329833984375
 10
-1273.984100341797
 20
158.0430908203125
 10
-1176.976531982422
 20
315.9671630859375
 10
-1174.584197998047
 20
318.8863525390625
 10
-1171.431365966797
 20
320.9605712890625
 10
-1167.663665771484
 20
322.0159912109375
 10
-1163.450653076172
 20
321.7896728515625
 10
-1130.439300537109
 20
311.5357666015625
 10
-1109.321502685547
 20
305.9188232421875
 10
-1069.405120849609
 20
296.6588134765625
 10
-1032.201629638672
 20
289.1551513671875
 10
-938.6084899902344
 20
271.9500732421875
 10
-879.6770935058594
 20
262.7215576171875
 10
-816.9120788574219
 20
252.1478271484375
 10
-772.8951110839844
 20
245.9837646484375
 10
-707.7693786621094
 20
237.5777587890625
 10
-554.5358581542969
 20
219.8492431640625
 10
-444.4761657714844
 20
208.1502685546875
 10
-311.5747985839844
 20
195.5045166015625
  0
LWPOLYLINE
  5
76
100
AcDbEntity
  8
8
  6
ByLayer
 62
  256
370
   -1
100
AcDbPolyline
 90
   30
 70
    0
 43
0
 10
1283.232423526154
 20
102.6153816548476
 10
980.5770226057056
 20
112.5246679456855
 10
725.2236277956305
 20
120.0338606416585
 10
563.22128637483
 20
125.2165444881211
 10
355.3931554468056
 20
132.7012130044254
 10
194.1844836100188
 20
139.4185641426848
 10
171.3477529442873
 20
140.6772956102109
 10
13.2035911319868
 20
151.4980308947011
 10
-144.0449938520023
 20
162.8924992694197
 10
-278.0584509496006
 20
173.759824552139
 10
-389.1282275912713
 20
183.7988635542365
 10
-477.5215009820797
 20
192.595667231481
 10
-565.4346355269458
 20
202.1873728046094
 10
-696.7917237087449
 20
217.3563308025009
 10
-783.6371928564101
 20
228.5360840328999
 10
-846.4879805158278
 20
237.5854867850662
 10
-890.8246523632045
 20
244.6000956088897
 10
-933.1466102296342
 20
251.8982762677401
 10
-1038.263528108474
 20
271.2238285090066
 10
-1079.825539985978
 20
279.7330105041397
 10
-1120.635056034356
 20
289.4618263191273
 10
-1140.65440316795
 20
294.9512190910168
 10
-1160.324519235349
 20
301.0068086328702
 10
-1169.369251684562
 20
304.212774001151
 10
-1170.918346879837
 20
305.5088097987077
 10
-1171.993418590672
 20
307.2125901269878
 10
-1172.453392265923
 20
309.1823218590621
 10
-1172.305446344625
 20
311.0133585538547
 10
-1171.631611145524
 20
312.7223407549004
 10
-1158.16701136476
 20
334.5829855525039
  0
LWPOLYLINE
  5
77
100
AcDbEntity
  8
8
  6
ByLayer
 62
  256
370
   -1
100
AcDbPolyline
 90
   17
 70
    0
 43
0
 10
-1173.093792623284
 20
-339.6889143887302
 10
-1188.235584177889
 20
-311.9833729776542
 10
-1188.705369889021
 20
-309.473975030905
 10
-1188.124261761571
 20
-306.958091877473
 10
-1186.581919663852
 20
-304.8866612828792
 10
-1183.957240897502
 20
-303.5174566913254
 10
-1065.191484763889
 20
-292.0489318411828
 10
-910.4167230168148
 20
-278.5815749787712
 10
-754.8749297423608
 20
-266.2976485398228
 10
-598.6151356340383
 20
-255.0426468066803
 10
-418.4176504966474
 20
-245.0907895436821
 10
-237.7896065635862
 20
-236.0042347607484
 10
-56.70406086365915
 20
-227.7052027263999
 10
215.9684468191353
 20
-216.0958227450997
 10
561.0456860493881
 20
-207.9813820472907
 10
1022.19221781554
 20
-198.998494339841
 10
1276.622378916957
 20
-193.3646991024705
  0
LWPOLYLINE
  5
78
100
AcDbEntity
  8
8
  6
ByLayer
 62
  256
370
   -1
100
AcDbPolyline
 90
   18
 70
    0
 43
0
 10
1253.08748723692
 20
-166.5186459897986
 10
1242.051583151839
 20
-141.8997407682543
 10
1227.0485506158
 20
-105.3093353971881
 10
1218.332679627716
 20
-81.0973992424515
 10
1214.467210362111
 20
-68.94561756422718
 10
1207.667670264105
 20
-45.08390413229563
 10
1202.57384605207
 20
-21.76279902502347
 10
1200.683320142953
 20
-9.532591901966498
 10
1199.750455328195
 20
5.497763537650371
 10
1201.449586631631
 20
22.33420731731985
 10
1206.400857733775
 20
35.65380016503968
 10
1213.489014886619
 20
48.65385337567477
 10
1220.752508545072
 20
60.5972719927272
 10
1258.177220465803
 20
118.0410651494904
 10
1261.547469564992
 20
120.5233793459061
 10
1263.502430584816
 20
121.3089873983927
 10
1265.540605875218
 20
121.7538931853101
 10
1271.78263913337
 20
121.7353987834299
  0
LWPOLYLINE
  5
79
100
AcDbEntity
  8
8
  6
ByLayer
 62
  256
370
   -1
100
AcDbPolyline
 90
    7
 70
    0
 43
0
 10
1286.022470262998
 20
-211.9470788997135
 10
1281.296132448632
 20
-211.8886859575866
 10
1278.985581038686
 20
-211.3462217639574
 10
1274.874023230012
 20
-209.0121266256942
 10
1273.223051809862
 20
-207.3050050591598
 10
1264.792552341515
 20
-191.0710931777041
 10
1253.08748723692
 20
-166.5186459897986
  0
LWPOLYLINE
  5
7A
100
AcDbEntity
  8
8
  6
ByLayer
 62
  256
370
   -1
100
AcDbPolyline
 90
   10
 70
    0
 43
0
 10
-666.5726178827699
 20
-304.9289165137611
 10
-690.5500867500325
 20
-264.3506470597399
 10
-717.6838283726265
 20
-216.3657674458439
 10
-743.071155546111
 20
-168.7557563093044
 10
-757.2254480796466
 20
-140.3860164211578
 10
-772.9813966727208
 20
-106.7313215921154
 10
-780.7887434389993
 20
-88.81428762432961
 10
-791.574908495752
 20
-61.51762250189995
 10
-797.7782995907546
 20
-44.26929255038067
 10
-802.3412358417152
 20
-30.16922339280973
  0
LWPOLYLINE
  5
7B
100
AcDbEntity
  8
8
  6
ByLayer
 62
  256
370
   -1
100
AcDbPolyline
 90
    9
 70
    0
 43
0
 10
126.0385281883963
 20
-256.4625914242988
 10
100.0422232274705
 20
-211.6343355549498
 10
83.73153389448589
 20
-182.2455947462863
 10
69.12003209668615
 20
-154.5756636448277
 10
54.56804287146701
 20
-125.3723522060668
 10
41.71431449584492
 20
-97.53633823049813
 10
35.35826234651989
 20
-82.67379674080303
 10
25.9139222850838
 20
-58.39612476143111
 10
18.08599306410326
 20
-35.26137796644434
  0
LWPOLYLINE
  5
7C
100
AcDbEntity
  8
8
  6
ByLayer
 62
  256
370
   -1
100
AcDbPolyline
 90
    6
 70
    0
 43
0
 10
975.3254704243288
 20
-238.0287664141981
 10
945.9413473171926
 20
-185.794852691052
 10
924.6574713145172
 20
-145.0962711635339
 10
906.771445531582
 20
-107.2453514417343
 10
895.4955318412416
 20
-80.6828824211816
 10
890.7315876933336
 20
-67.90253451560739
  0
LWPOLYLINE
  5
7D
100
AcDbEntity
  8
8
  6
ByLayer
 62
  256
370
   -1
100
AcDbPolyline
 90
    2
 70
    0
 43
0
 10
109.2855245409335
 20
188.3709393219956
 10
88.11884327602462
 20
157.6594623268506
  0
ENDBLK
  5
57
330
55
100
AcDbEntity
  8
0
100
AcDbBlockEnd
  0
BLOCK
  5
59
330
58
100
AcDbEntity
  8
0
100
AcDbBlockBegin
  2
US
 70
    0
 10
0
 20
0
  3
US
  1

  0
LWPOLYLINE
  5
7E
100
AcDbEntity
  8
1
  6
ByLayer
 62
  256
370
   -1
100
AcDbPolyline
 90
   76
 70
    0
 43
0
 10
-229.2543640136719
 20
562.3009033203125
 10
-100.3932800292969
 20
583.9000244140625
 10
-78.75741577148438
 20
588.0958251953125
 10
760.1599426269531
 20
804.2852783203125
 10
782.0815734863281
 20
808.9068603515625
 10
1439.899444580078
 20
939.3067626953125
 10
1461.741973876953
 20
943.3282470703125
 10
1481.410430908203
 20
939.5499267578125
 10
2087.147247314453
 20
808.6715087890625
 10
2498.816925048828
 20
694.7310791015625
 10
2502.458770751953
 20
693.5269775390625
 10
2503.977569580078
 20
692.3179931640625
 10
2505.050079345703
 20
690.6968994140625
 10
2505.586944580078
 20
688.7720947265625
 10
2505.473419189453
 20
686.7510986328125
 10
2429.733917236328
 20
380.4481201171875
 10
2428.668975830078
 20
377.2593994140625
 10
2426.995391845703
 20
375.3863525390625
 10
2410.519561767578
 20
368.7103271484375
 10
2387.741729736328
 20
360.1400146484375
 10
2297.252227783203
 20
328.4388427734375
 10
2149.091094970703
 20
279.1053466796875
 10
1913.887725830078
 20
199.5828857421875
 10
1755.550079345703
 20
147.3819580078125
 10
1620.160919189453
 20
103.9031982421875
 10
1485.067413330078
 20
61.5413818359375
 10
1350.266143798828
 20
20.2901611328125
 10
1238.158477783203
 20
-13.2269287109375
 10
500.9343566894531
 20
-225.9796142578125
 10
-348.4020690917969
 20
-476.1334228515625
 10
-593.8802185058594
 20
-545.9757080078125
 10
-839.0045471191406
 20
-614.8143310546875
 10
-1061.463012695312
 20
-676.2445068359375
 10
-1172.364929199219
 20
-705.8433837890625
 10
-1304.235046386719
 20
-737.1058349609375
 10
-1435.84928894043
 20
-767.4307861328125
 10
-1545.321451187134
 20
-791.9749755859375
 10
-1654.55110168457
 20
-815.6461181640625
 10
-1746.140258789062
 20
-834.7366943359375
 10
-1828.697387695312
 20
-851.2376708984375
 10
-1980.399810791016
 20
-879.8961181640625
 10
-2045.219207763672
 20
-891.4910888671875
 10
-2131.368621826172
 20
-905.9063720703125
 10
-2174.273345947266
 20
-912.4661865234375
 10
-2217.030303955078
 20
-918.4639892578125
 10
-2259.626129150391
 20
-923.8468017578125
 10
-2344.335357666016
 20
-932.7772216796875
 10
-2401.627105712891
 20
-939.5606689453125
 10
-2429.014129638672
 20
-941.6124267578125
 10
-2470.646209716797
 20
-943.3282470703125
 10
-2491.227630615234
 20
-943.2904052734375
 10
-2500.816986083984
 20
-942.8785400390625
 10
-2502.679290771484
 20
-942.0989990234375
 10
-2504.780181884766
 20
-939.9344482421875
 10
-2505.611602783203
 20
-937.2271728515625
 10
-2505.467254638672
 20
-935.3970947265625
 10
-2260.797027587891
 20
3.1119384765625
 10
-2259.148956298828
 20
6.0428466796875
 10
-2257.796722412109
 20
7.0721435546875
 10
-2254.636505126953
 20
7.8812255859375
 10
-2224.674652099609
 20
0.2921142578125
 10
-2220.670501708984
 20
-0.3724365234375
 10
-2216.614105224609
 20
-0.2498779296875
 10
-2212.695404052734
 20
0.8101806640625
 10
-2209.070709228516
 20
2.6402587890625
 10
-2205.634979248047
 20
5.5316162109375
 10
-2203.005218505859
 20
9.1817626953125
 10
-2199.785430908203
 20
17.5074462890625
 10
-2077.745391845703
 20
375.6541748046875
 10
-2076.433746337891
 20
378.4820556640625
 10
-2074.900848388672
 20
379.9034423828125
 10
-2071.940704345703
 20
380.9095458984375
 10
-1626.615821838379
 20
403.0460205078125
 10
-873.4310607910156
 20
455.1502685546875
 10
-830.5855407714844
 20
461.9085693359375
 10
-229.2543640136719
 20
562.3009033203125
  0
LWPOLYLINE
  5
7F
100
AcDbEntity
  8
8
  6
ByLayer
 62
  256
370
   -1
100
AcDbPolyline
 90
   37
 70
    0
 43
0
 10
-2517.166184973035
 20
-955.4571606464938
 10
-2511.524540907001
 20
-933.8466367790729
 10
-2510.091603006917
 20
-930.3592479195622
 10
-2507.684006762347
 20
-927.4565873957467
 10
-2504.389939814472
 20
-925.3464638796531
 10
-2502.38566952129
 20
-924.6646299077174
 10
-2500.29498752191
 20
-924.3305759538534
 10
-2465.727248010637
 20
-924.4816552609773
 10
-2443.889388479501
 20
-923.6769272425945
 10
-2403.00825957606
 20
-920.8602060711023
 10
-2365.235904373959
 20
-917.1595838813059
 10
-2233.259565275935
 20
-901.6848808035652
 10
-2169.145862059181
 20
-892.7553053963006
 10
-2104.728446503369
 20
-882.6689848294031
 10
-2061.644373820783
 20
-875.4144982642811
 10
-1996.841141097345
 20
-863.8616261604802
 10
-1866.884672001342
 20
-839.5142604232642
 10
-1801.758318318018
 20
-826.8126974308252
 10
-1714.71986329702
 20
-809.1185255257756
 10
-1649.305972538804
 20
-795.3535012022935
 10
-1496.298207208768
 20
-761.8535607831977
 10
-1364.792696509434
 20
-731.8709916528146
 10
-1211.028008356699
 20
-695.7089885595319
 10
-1167.028943138059
 20
-685.1564204760853
 10
-1100.456211013658
 20
-667.2905748464077
 10
-878.0740326554895
 20
-606.1775731217722
 10
-610.6925172399882
 20
-531.2219844536589
 10
-365.2210681359024
 20
-461.4230661459487
 10
-141.8252309350003
 20
-395.9208304852009
 10
-119.6513624753509
 20
-390.0229098366399
 10
-115.4397528087607
 20
-390.8757411348533
 10
-113.5082278650045
 20
-391.8350585881235
 10
-109.8002389247022
 20
-395.2882974616814
 10
-108.3931093435074
 20
-397.8653759906433
 10
-107.6265916484062
 20
-400.7023064103346
 10
-107.5406084117524
 20
-403.6344008845008
 10
-110.6858786551009
 20
-416.3150749967585
  0
LWPOLYLINE
  5
80
100
AcDbEntity
  8
8
  6
ByLayer
 62
  256
370
   -1
100
AcDbPolyline
 90
   12
 70
    0
 43
0
 10
2257.573529537086
 20
334.9213391073445
 10
2290.818357082549
 20
345.9978863526289
 10
2348.07281683336
 20
365.9014946663888
 10
2371.859368160666
 20
374.3475088558093
 10
2421.517683497293
 20
392.8121761968778
 10
2424.422829452838
 20
392.8722874730033
 10
2427.278842470887
 20
392.305003598141
 10
2431.439556447934
 20
389.9405160831884
 10
2433.787228950212
 20
387.2542320463813
 10
2435.090741932796
 20
384.5516273064791
 10
2435.728872710053
 20
381.7689734884061
 10
2435.683099816004
 20
378.8064528748282
  0
LWPOLYLINE
  5
81
100
AcDbEntity
  8
8
  6
ByLayer
 62
  256
370
   -1
100
AcDbPolyline
 90
   12
 70
    0
 43
0
 10
1199.630420056834
 20
-39.55734801445078
 10
1207.119738548965
 20
-10.50426809454484
 10
1208.820542902821
 20
-5.846471974968154
 10
1212.12744528542
 20
-2.162753099381007
 10
1216.529354261936
 20
-0.06071814393135355
 10
1333.288057248594
 20
34.75292304676486
 10
1445.573437564251
 20
68.96949939064552
 10
1580.578863077882
 20
111.0479917128655
 10
1693.30175333517
 20
146.9624044764537
 10
1874.084676748661
 20
206.0765142035593
 10
2145.029041391657
 20
297.5319733908345
 10
2257.573529537086
 20
334.9213391073445
  0
LWPOLYLINE
  5
82
100
AcDbEntity
  8
8
  6
ByLayer
 62
  256
370
   -1
100
AcDbPolyline
 90
   15
 70
    0
 43
0
 10
-138.7583165134031
 20
-424.6525645692632
 10
-131.2532501558919
 20
-397.1036307156646
 10
-128.8252792564213
 20
-393.6906835655882
 10
-127.2125603998538
 20
-392.3319170734658
 10
-123.4652978464198
 20
-390.5227626083934
 10
506.4035767571324
 20
-204.814880783711
 10
1209.790515516056
 20
-1.984364028340224
 10
1218.0620001977
 20
0.2162317776319469
 10
1220.930793973664
 20
0.2382387646489406
 10
1225.460214394088
 20
-1.163733361317554
 10
1229.149432960466
 20
-4.135772780321076
 10
1230.393144115479
 20
-5.933928533798735
 10
1231.31877065055
 20
-7.890787458562045
 10
1232.088739122002
 20
-12.14228732669244
 10
1227.640551284731
 20
-31.09625464073497
  0
LWPOLYLINE
  5
83
100
AcDbEntity
  8
8
  6
ByLayer
 62
  256
370
   -1
100
AcDbPolyline
 90
    3
 70
    0
 43
0
 10
2356.348743939376
 20
344.7591753114111
 10
2358.538783328783
 20
346.3905737358614
 10
2361.185683376815
 20
346.0326375989434
  0
LWPOLYLINE
  5
84
100
AcDbEntity
  8
8
  6
ByLayer
 62
  256
370
   -1
100
AcDbPolyline
 90
    9
 70
    0
 43
0
 10
2335.578321804963
 20
336.0159501166377
 10
2334.632007903995
 20
341.8884784174238
 10
2334.684974186558
 20
344.9506431375203
 10
2335.772963575377
 20
350.8690670651299
 10
2336.792535129726
 20
353.6383814033757
 10
2339.761875593136
 20
358.7961324332809
 10
2341.6511849338
 20
361.0339205951555
 10
2346.137476426074
 20
364.7782021387293
 10
2351.350971168542
 20
367.3426645844443
  0
LWPOLYLINE
  5
85
100
AcDbEntity
  8
8
  6
ByLayer
 62
  256
370
   -1
100
AcDbPolyline
 90
    2
 70
    0
 43
0
 10
2351.350971168542
 20
367.3426645844443
 10
2426.567913696631
 20
393.6882025564555
  0
LWPOLYLINE
  5
86
100
AcDbEntity
  8
8
  6
ByLayer
 62
  256
370
   -1
100
AcDbPolyline
 90
    2
 70
    0
 43
0
 10
-894.8880075483522
 20
447.3729612429115
 10
-1256.593745006245
 20
-714.2227759698139
  0
LWPOLYLINE
  5
87
100
AcDbEntity
  8
8
  6
ByLayer
 62
  256
370
   -1
100
AcDbPolyline
 90
    2
 70
    0
 43
0
 10
750.0024374706713
 20
795.2128634631663
 10
437.182502877132
 20
-214.2590550041587
  0
LWPOLYLINE
  5
88
100
AcDbEntity
  8
8
  6
ByLayer
 62
  256
370
   -1
100
AcDbPolyline
 90
    3
 70
    0
 43
0
 10
1761.169523889581
 20
872.6286962477234
 10
1482.382908656273
 20
482.2961927977094
 10
1128.987149622845
 20
-9.655223230039155
  0
LWPOLYLINE
  5
89
100
AcDbEntity
  8
8
  6
ByLayer
 62
  256
370
   -1
100
AcDbPolyline
 90
    2
 70
    0
 43
0
 10
1128.987149622845
 20
-9.655223230039155
 10
1139.123134325026
 20
-17.31126102812459
  0
LWPOLYLINE
  5
8A
100
AcDbEntity
  8
8
  6
ByLayer
 62
  256
370
   -1
100
AcDbPolyline
 90
    2
 70
    0
 43
0
 10
1139.123134325026
 20
-17.31126102812459
 10
1149.248363974248
 20
-24.96340984797689
  0
LWPOLYLINE
  5
8B
100
AcDbEntity
  8
8
  6
ByLayer
 62
  256
370
   -1
100
AcDbPolyline
 90
    3
 70
    0
 43
0
 10
1149.248363974248
 20
-24.96340984797689
 10
1514.801446875766
 20
483.945255045021
 10
1788.106058404967
 20
866.8134380295987
  0
ENDBLK
  5
5A
330
58
100
AcDbEntity
  8
0
100
AcDbBlockEnd
  0
BLOCK
  5
5C
330
5B
100
AcDbEntity
  8
0
100
AcDbBlockBegin
  2
TSF
 70
    0
 10
0
 20
0
  3
TSF
  1

  0
LWPOLYLINE
  5
8C
100
AcDbEntity
  8
1
  6
ByLayer
 62
  256
370
   -1
100
AcDbPolyline
 90
   73
 70
    0
 43
0
 10
337.5535278320312
 20
208.7047119140625
 10
638.7129516601562
 20
198.2999267578125
 10
1334.728332519531
 20
172.8614501953125
 10
1451.191711425781
 20
167.9349365234375
 10
1568.105041503906
 20
162.01806640625
 10
1708.985656738281
 20
153.78076171875
 10
1874.114562988281
 20
142.8280029296875
 10
2040.108215332031
 20
130.6451416015625
 10
2181.205383300781
 20
122.4268798828125
 10
2298.516418457031
 20
116.2227783203125
 10
2392.031311035156
 20
111.93017578125
 10
2461.870422363281
 20
109.2852783203125
 10
2544.726379394531
 20
106.9859619140625
 10
2546.983947753906
 20
106.8392333984375
 10
2549.085266113281
 20
105.994384765625
 10
2550.486145019531
 20
104.7889404296875
 10
2551.491027832031
 20
103.2186279296875
 10
2567.731018066406
 20
72.4600830078125
 10
2568.760559082031
 20
69.6119384765625
 10
2568.760070800781
 20
68.0482177734375
 10
2567.770812988281
 20
65.430419921875
 10
2566.959289550781
 20
64.44287109375
 10
2564.825744628906
 20
63.056640625
 10
2555.466369628906
 20
61.688720703125
 10
2107.040100097656
 20
5.2567138671875
 10
1397.650695800781
 20
-34.053955078125
 10
672.8101196289062
 20
-44.88232421875
 10
-390.2720336914062
 20
-53.19189453125
 10
-547.9539184570312
 20
-54.9627685546875
 10
-682.606689453125
 20
-57.3641357421875
 10
-794.4191284179688
 20
-60.104736328125
 10
-905.840087890625
 20
-63.5701904296875
 10
-1016.777709960938
 20
-67.921875
 10
-1103.539947509766
 20
-75.0498046875
 10
-1190.023040771484
 20
-82.724609375
 10
-1276.223663330078
 20
-90.9385986328125
 10
-1383.572769165039
 20
-101.9622802734375
 10
-1480.404853820801
 20
-112.6689453125
 10
-1575.674240112305
 20
-123.9124755859375
 10
-1660.585159301758
 20
-134.542236328125
 10
-1766.315856933594
 20
-148.5838623046875
 10
-1787.349182128906
 20
-151.5980224609375
 10
-1870.252471923828
 20
-165.8984375
 10
-1952.847442626953
 20
-180.79736328125
 10
-2034.435485839844
 20
-196.147705078125
 10
-2158.002807617188
 20
-220.608642578125
 10
-2313.460205078125
 20
-253.2901611328125
 10
-2316.459716796875
 20
-252.42236328125
 10
-2318.030090332031
 20
-251.1064453125
 10
-2319.126647949219
 20
-249.3773193359375
 10
-2500.13037109375
 20
83.4678955078125
 10
-2545.291320800781
 20
168.8377685546875
 10
-2567.293273925781
 20
212.0860595703125
 10
-2568.392272949219
 20
214.38818359375
 10
-2568.760559082031
 20
216.912841796875
 10
-2568.078308105469
 20
219.401611328125
 10
-2567.369934082031
 20
220.489501953125
 10
-2565.190856933594
 20
222.2003173828125
 10
-2563.777160644531
 20
222.6729736328125
 10
-2466.754821777344
 20
228.2275390625
 10
-2356.065979003906
 20
233.7215576171875
 10
-2245.024169921875
 20
238.527587890625
 10
-2133.671264648438
 20
242.7279052734375
 10
-1999.657897949219
 20
247.104736328125
 10
-1819.407440185547
 20
249.8701171875
 10
-1616.002075195312
 20
251.8919677734375
 10
-1412.10383605957
 20
252.97705078125
 10
-1185.093475341797
 20
253.283203125
 10
-1047.325866699219
 20
250.4481201171875
 10
-817.2890014648438
 20
244.9088134765625
 10
-356.3897094726562
 20
232.33154296875
 10
-171.2882690429688
 20
226.4188232421875
 10
337.5535278320312
 20
208.7047119140625
  0
LWPOLYLINE
  5
8D
100
AcDbEntity
  8
8
  6
ByLayer
 62
  256
370
   -1
100
AcDbPolyline
 90
   17
 70
    0
 43
0
 10
-1347.164660088244
 20
-85.55643565258151
 10
-1261.196784236845
 20
-76.90590354802043
 10
-1174.943687000093
 20
-68.79285478296174
 10
-1023.320789576064
 20
-55.89788161583056
 10
-1001.342970289555
 20
-54.64304841370108
 10
-890.2731047793761
 20
-50.53274489723026
 10
-711.7210964026407
 20
-45.50575797286751
 10
-577.1763871556572
 20
-42.9048968093507
 10
-419.6068687477109
 20
-40.95365236283078
 10
665.9905287763695
 20
-32.46370179263931
 10
1390.897041981144
 20
-21.72638222255227
 10
2100.52238723859
 20
17.33759879479703
 10
2122.049411079618
 20
19.71593371790277
 10
2562.033638193535
 20
75.10535997826696
 10
2564.990988208065
 20
74.63754992716963
 10
2566.922263747874
 20
73.35310201999096
 10
2570.679692896463
 20
66.87501909626167
  0
LWPOLYLINE
  5
8E
100
AcDbEntity
  8
8
  6
ByLayer
 62
  256
370
   -1
100
AcDbPolyline
 90
   16
 70
    0
 43
0
 10
-2306.385932536178
 20
-272.8770604641149
 10
-2319.358847105515
 20
-248.4956036502692
 10
-2319.214739186415
 20
-245.1202304492519
 10
-2318.465894890506
 20
-243.5856127371696
 10
-2316.011462179096
 20
-241.4511786714718
 10
-2286.394253953421
 20
-234.8016391816423
 10
-2205.035108673498
 20
-217.5366058547118
 10
-2061.921442367108
 20
-188.7272714321837
 10
-1979.724510162122
 20
-173.0655914160059
 10
-1897.221431962706
 20
-157.9916210495981
 10
-1793.661264583939
 20
-139.984322629379
 10
-1772.698175823361
 20
-136.8410879646772
 10
-1666.989670108268
 20
-122.763702371012
 10
-1560.830060262236
 20
-109.5255487463091
 10
-1454.221157663119
 20
-97.1229002512739
 10
-1347.164660088244
 20
-85.55643565258151
  0
LWPOLYLINE
  5
8F
100
AcDbEntity
  8
8
  6
ByLayer
 62
  256
370
   -1
100
AcDbPolyline
 90
   24
 70
    0
 43
0
 10
-91.4415966204981
 20
238.3603531364076
 10
-83.60271476830349
 20
220.03562244767
 10
-83.37643147154472
 20
216.8359700304495
 10
-83.97377858202071
 20
213.6893648058815
 10
-85.4368357328301
 20
210.6826421644271
 10
-87.64140151983202
 20
208.1540348421679
 10
-90.4387651681061
 20
206.3061118536618
 10
-93.62619925077138
 20
205.2684264601291
 10
-370.9773501938687
 20
214.0055498491397
 10
-808.6473971106246
 20
225.9332417762307
 10
-1176.428663954545
 20
234.5267171633334
 10
-1244.551348479874
 20
234.5329881970792
 10
-1448.667426779996
 20
234.0918425484015
 10
-1629.755899446124
 20
233.0361461299151
 10
-1810.447695136342
 20
231.2412510185457
 10
-1990.660064690526
 20
228.6269773365755
 10
-2146.901673456591
 20
223.5042547717803
 10
-2302.606910210251
 20
217.3485116767486
 10
-2435.559224158683
 20
211.0788438100815
 10
-2563.411070331903
 20
204.0816183251031
 10
-2566.328613901311
 20
204.6439748284351
 10
-2569.029174552595
 20
205.8730587520433
 10
-2572.491243076164
 20
208.9975075703142
 10
-2587.6411131924
 20
238.9120886978737
  0
LWPOLYLINE
  5
90
100
AcDbEntity
  8
8
  6
ByLayer
 62
  256
370
   -1
100
AcDbPolyline
 90
   25
 70
    0
 43
0
 10
2555.420251863961
 20
109.1599510987635
 10
2557.937256910762
 20
103.4945503001236
 10
2558.247634619731
 20
100.6795560680243
 10
2557.90494495901
 20
97.8027361765794
 10
2556.791323088578
 20
94.86526444318952
 10
2554.520054754584
 20
91.80486168420043
 10
2552.985109974794
 20
90.53500990219595
 10
2549.422831911109
 20
88.76830390666328
 10
2545.944569654153
 20
88.2113523688131
 10
2448.760110961204
 20
90.97659862191517
 10
2355.507009281747
 20
94.74871790339512
 10
2238.357296083292
 20
100.5417542188727
 10
2073.778972071188
 20
109.7838016934536
 10
2042.972408517927
 20
111.6235061820887
 10
1815.052292763113
 20
128.0980727831409
 10
1639.687793298475
 20
139.1857708367831
 10
1553.813231369003
 20
144.0049938403808
 10
1460.13064898171
 20
148.7371590675889
 10
1366.761595000783
 20
152.8464470431049
 10
1292.277575933055
 20
155.6127099395853
 10
1287.75194030284
 20
156.8617778993421
 10
1285.210722116074
 20
158.5015070022012
 10
1283.137594258527
 20
160.6992110359463
 10
1280.44321729513
 20
165.9904079463938
 10
1272.385123754183
 20
184.2551233943207
  0
LWPOLYLINE
  5
91
100
AcDbEntity
  8
8
  6
ByLayer
 62
  256
370
   -1
100
AcDbPolyline
 90
   17
 70
    0
 43
0
 10
1300.030471160993
 20
183.0307533591733
 10
1304.24165483696
 20
174.0482833891842
 10
1305.613392911638
 20
169.7185647532519
 10
1305.370001026569
 20
165.1672547637775
 10
1304.335723932124
 20
162.4097962332423
 10
1302.687900600697
 20
159.9435363607465
 10
1300.506331076512
 20
157.9408524308494
 10
1296.640227267649
 20
156.0689459415357
 10
1273.741692576517
 20
156.2873756573999
 10
623.76258032857
 20
180.0868070890376
 10
-93.49755460461756
 20
204.9776851544771
 10
-98.20981387197048
 20
205.2911037135018
 10
-100.4869271603006
 20
205.9564149546752
 10
-104.4682532634163
 20
208.504247698394
 10
-106.0271490697992
 20
210.29445795691
 10
-108.180812479204
 20
214.538503093567
 10
-118.9286836122888
 20
239.4159188815916
  0
LWPOLYLINE
  5
92
100
AcDbEntity
  8
8
  6
ByLayer
 62
  256
370
   -1
100
AcDbPolyline
 90
    5
 70
    0
 43
0
 10
2455.876846709582
 20
113.9518951569182
 10
2460.445493232998
 20
110.2149753638298
 10
2463.004899176564
 20
108.7971497806079
 10
2468.499272797389
 20
106.9630717126968
 10
2471.375919376406
 20
106.5416710070074
  0
LWPOLYLINE
  5
93
100
AcDbEntity
  8
8
  6
ByLayer
 62
  256
370
   -1
100
AcDbPolyline
 90
    2
 70
    0
 43
0
 10
2471.375919376406
 20
106.5416710070074
 10
2546.053639059862
 20
100.1329120042126
  0
LWPOLYLINE
  5
94
100
AcDbEntity
  8
8
  6
ByLayer
 62
  256
370
   -1
100
AcDbPolyline
 90
    5
 70
    0
 43
0
 10
-1820.159912775523
 20
-185.4880057401733
 10
-2006.325338934423
 20
128.6266538394013
 10
-2033.47907000668
 20
176.2801563465177
 10
-2049.965925398094
 20
206.0693382874706
 10
-2085.933867395614
 20
273.2771023921132
  0
LWPOLYLINE
  5
95
100
AcDbEntity
  8
8
  6
ByLayer
 62
  256
370
   -1
100
AcDbPolyline
 90
    6
 70
    0
 43
0
 10
-1066.653532024248
 20
-95.3477206716741
 10
-1191.963907746704
 20
109.7552208829259
 10
-1216.702048491298
 20
151.5132648387173
 10
-1247.346614188231
 20
205.5971526170251
 10
-1262.55632389655
 20
233.6200565115419
 10
-1286.930115208892
 20
280.4250696091219
  0
LWPOLYLINE
  5
96
100
AcDbEntity
  8
8
  6
ByLayer
 62
  256
370
   -1
100
AcDbPolyline
 90
    6
 70
    0
 43
0
 10
-246.2321946360428
 20
-70.79083142733043
 10
-332.448498691891
 20
69.75927306371227
 10
-365.024002412358
 20
124.2631198137649
 10
-398.692011439218
 20
184.3859637042617
 10
-412.3360664662255
 20
210.1793309684469
 10
-435.1313393990997
 20
255.30690286559
  0
LWPOLYLINE
  5
97
100
AcDbEntity
  8
8
  6
ByLayer
 62
  256
370
   -1
100
AcDbPolyline
 90
    6
 70
    0
 43
0
 10
627.2130500990284
 20
-61.06644974694223
 10
554.5752972437595
 20
56.12434192624733
 10
520.2872052989896
 20
113.2390251017903
 10
492.7038758775764
 20
162.3393819752339
 10
480.6343319310254
 20
185.2650195941301
 10
462.4014008095339
 20
221.7442373796982
  0
LWPOLYLINE
  5
98
100
AcDbEntity
  8
8
  6
ByLayer
 62
  256
370
   -1
100
AcDbPolyline
 90
    6
 70
    0
 43
0
 10
1245.000268960505
 20
-51.37278101355241
 10
1164.014724081308
 20
52.61123040335451
 10
1122.097288670107
 20
107.7422671525387
 10
1096.93261733649
 20
142.4857509276501
 10
1082.716496687254
 20
163.1070298542945
 10
1059.651168923284
 20
198.9519450131113
  0
LWPOLYLINE
  5
99
100
AcDbEntity
  8
8
  6
ByLayer
 62
  256
370
   -1
100
AcDbPolyline
 90
    5
 70
    0
 43
0
 10
1822.442092800537
 20
-21.33177763534786
 10
1727.999093068417
 20
57.27625178364065
 10
1666.050790616167
 20
109.6597487772947
 10
1622.876586956686
 20
147.7169385280918
 10
1595.688627456625
 20
173.4153434425621
  0
LWPOLYLINE
  5
9A
100
AcDbEntity
  8
8
  6
ByLayer
 62
  256
370
   -1
100
AcDbPolyline
 90
    3
 70
    0
 43
0
 10
2311.87993920627
 20
22.8162787048484
 10
2159.356410241022
 20
99.59970302514694
 10
2087.2425578782
 20
136.599972994778
  0
ENDBLK
  5
5D
330
5B
100
AcDbEntity
  8
0
100
AcDbBlockEnd
  0
BLOCK
  5
5F
330
5E
100
AcDbEntity
  8
0
100
AcDbBlockBegin
  2
LE3M
 70
    0
 10
0
 20
0
  3
LE3M
  1

  0
LWPOLYLINE
  5
9B
100
AcDbEntity
  8
1
  6
ByLayer
 62
  256
370
   -1
100
AcDbPolyline
 90
   62
 70
    0
 43
0
 10
-172.980712890625
 20
50.52960205078125
 10
-85.872802734375
 20
88.07672119140625
 10
23.585205078125
 20
135.8753051757812
 10
90.209228515625
 20
164.3506469726562
 10
443.780029296875
 20
305.5950317382812
 10
510.149658203125
 20
333.1865844726562
 10
560.010986328125
 20
355.0588989257812
 10
562.911865234375
 20
355.3042602539062
 10
565.790283203125
 20
354.8748168945312
 10
570.079833984375
 20
352.7537231445312
 10
572.577880859375
 20
350.2066040039062
 10
574.039794921875
 20
347.6118774414062
 10
574.831298828125
 20
344.8418579101562
 10
574.964111328125
 20
341.9246215820312
 10
574.499267578125
 20
339.0022583007812
 10
564.430419921875
 20
284.7214965820312
 10
564.204833984375
 20
278.9859008789062
 10
565.093994140625
 20
273.4920043945312
 10
567.579345703125
 20
267.5298461914062
 10
571.332275390625
 20
262.7151489257812
 10
577.393798828125
 20
257.7078247070312
 10
626.513916015625
 20
226.4365844726562
 10
628.765869140625
 20
224.5147094726562
 10
630.443115234375
 20
222.2210083007812
 10
631.574951171875
 20
219.5540161132812
 10
632.073486328125
 20
216.4483032226562
 10
631.617919921875
 20
212.6672973632812
 10
630.928955078125
 20
210.7949829101562
 10
628.707275390625
 20
207.4966430664062
 10
625.960693359375
 20
205.2881469726562
 10
519.676025390625
 20
148.5508422851562
 10
457.540771484375
 20
116.2454223632812
 10
367.360595703125
 20
70.11651611328125
 10
178.054443359375
 20
-25.11810302734375
 10
-52.769287109375
 20
-133.3450317382812
 10
-138.066162109375
 20
-174.1195678710938
 10
-222.846923828125
 20
-215.2838745117188
 10
-369.876708984375
 20
-288.3185424804688
 10
-498.578369140625
 20
-354.1544799804688
 10
-503.110107421875
 20
-355.3042602539062
 10
-506.151123046875
 20
-355.1514282226562
 10
-509.037841796875
 20
-354.2433471679688
 10
-514.001220703125
 20
-350.8860473632812
 10
-529.797607421875
 20
-338.7839965820312
 10
-552.671875
 20
-319.6948852539062
 10
-574.41845703125
 20
-299.2206420898438
 10
-588.05419921875
 20
-284.7708129882812
 10
-600.905517578125
 20
-269.6082153320312
 10
-612.810302734375
 20
-253.6347045898438
 10
-623.716796875
 20
-236.8629760742188
 10
-628.486083984375
 20
-228.0670776367188
 10
-631.5439453125
 20
-218.9757690429688
 10
-632.073486328125
 20
-209.8547973632812
 10
-629.23974609375
 20
-190.2692260742188
 10
-621.03515625
 20
-140.9476928710938
 10
-619.75927734375
 20
-136.1677856445312
 10
-618.474365234375
 20
-134.0324096679688
 10
-614.813232421875
 20
-130.7443237304688
 10
-498.510009765625
 20
-84.32318115234375
 10
-390.627685546875
 20
-40.54046630859375
 10
-281.827392578125
 20
4.51788330078125
 10
-172.980712890625
 20
50.52960205078125
  0
LWPOLYLINE
  5
9C
100
AcDbEntity
  8
8
  6
ByLayer
 62
  256
370
   -1
100
AcDbPolyline
 90
   15
 70
    0
 43
0
 10
571.3874094089742
 20
356.3603301606786
 10
568.9165227194717
 20
343.1491862149869
 10
568.041750742178
 20
339.9338850539502
 10
566.4891130266687
 20
338.0229614800837
 10
550.4128272393773
 20
330.3552407798793
 10
528.1639022906729
 20
320.4912402363225
 10
439.6326662720285
 20
283.6817511496588
 10
294.4830809846098
 20
226.0991007846351
 10
86.10024339177289
 20
142.4416147999514
 10
41.88191176622058
 20
123.505570187202
 10
-132.8676911954244
 20
47.31648617995006
 10
-273.422322689974
 20
-12.2961702693774
 10
-437.6660074385536
 20
-79.98293412025259
 10
-524.6592601591019
 20
-114.9954482660607
 10
-611.5916315704844
 20
-149.4183074159262
  0
LWPOLYLINE
  5
9D
100
AcDbEntity
  8
8
  6
ByLayer
 62
  256
370
   -1
100
AcDbPolyline
 90
   11
 70
    0
 43
0
 10
-176.9495196948219
 20
-172.0676081227318
 10
-49.29146771020078
 20
-110.9434956508544
 10
144.5474976176029
 20
-20.28059790645966
 10
187.4047119793604
 20
0.3987733873091202
 10
334.6540615138574
 20
74.55713729595846
 10
439.128042375507
 20
127.8530177880866
 10
538.540199540892
 20
179.6420861796341
 10
617.6210631077456
 20
221.9607610606404
 10
619.8502181962285
 20
222.2806972485782
 10
621.6817267931829
 20
221.9202331870938
 10
636.7296186829062
 20
212.5650928407917
  0
LWPOLYLINE
  5
9E
100
AcDbEntity
  8
8
  6
ByLayer
 62
  256
370
   -1
100
AcDbPolyline
 90
    5
 70
    0
 43
0
 10
-511.3384922256437
 20
-339.6414279374876
 10
-428.6180752138362
 20
-297.0796921970395
 10
-345.3038490899544
 20
-254.9708019707114
 10
-261.4034976563753
 20
-213.3112866759689
 10
-176.9495196948219
 20
-172.0676081227318
  0
LWPOLYLINE
  5
9F
100
AcDbEntity
  8
8
  6
ByLayer
 62
  256
370
   -1
100
AcDbPolyline
 90
   26
 70
    0
 43
0
 10
-613.8263478844992
 20
-130.202542308331
 10
-611.0939917658629
 20
-129.2999849100422
 10
-608.2334655141754
 20
-129.0081418987036
 10
-603.5952455367178
 20
-129.9975355968872
 10
-601.5013426324795
 20
-131.13839597026
 10
-598.2503053543755
 20
-134.2650302019679
 10
-596.4031685605423
 20
-138.1757703293968
 10
-596.0153282626625
 20
-140.3313749298452
 10
-597.1727783289971
 20
-149.8796745481757
 10
-606.9707237558005
 20
-208.5064977326722
 10
-606.9757739480092
 20
-214.7227012986887
 10
-605.5038073545238
 20
-218.1706535998476
 10
-595.2326904856891
 20
-235.1107862086094
 10
-583.6157924278273
 20
-251.1264867825055
 10
-570.9731127120808
 20
-266.3383835293882
 10
-557.4777808073286
 20
-280.8147107052935
 10
-543.1789986636486
 20
-294.5407484824846
 10
-528.3716591669063
 20
-307.6534123282968
 10
-512.9764109748703
 20
-320.1983593022576
 10
-497.2096219053738
 20
-332.2066187994456
 10
-493.8919453908193
 20
-335.3056483575704
 10
-491.8093287952715
 20
-339.4451695495741
 10
-491.3569564849768
 20
-342.3581365274904
 10
-491.5928602597933
 20
-345.3081450881873
 10
-492.5222804662917
 20
-348.1146933331158
 10
-494.9892182581534
 20
-351.6282977892874
  0
LWPOLYLINE
  5
A0
100
AcDbEntity
  8
8
  6
ByLayer
 62
  256
370
   -1
100
AcDbPolyline
 90
    9
 70
    0
 43
0
 10
543.6657215264295
 20
211.006795743474
 10
541.0279062873142
 20
211.5614492130471
 10
538.6106483513013
 20
210.2521380478825
 10
537.600559420337
 20
207.6529104044516
 10
538.4921491746163
 20
204.9666212199531
 10
540.8149694470076
 20
203.4862632305062
 10
543.5228414524054
 20
203.878481878814
 10
545.3247030259508
 20
205.9717564389298
 10
545.4109382381139
 20
208.7672795913563
  0
LWPOLYLINE
  5
A1
100
AcDbEntity
  8
8
  6
ByLayer
 62
  256
370
   -1
100
AcDbPolyline
 90
   11
 70
    0
 43
0
 10
516.6042880224904
 20
210.082637738074
 10
516.8379011813231
 20
204.0664375889128
 10
517.435195177316
 20
201.1267566180982
 10
519.5864784668183
 20
195.554134117016
 10
522.9265776285802
 20
190.6305094859499
 10
527.247540734008
 20
186.6378523850676
 10
532.3697602676039
 20
183.7531452407557
 10
537.9678277164285
 20
182.161982133247
 10
543.7646226425095
 20
181.9288551518362
 10
549.4431378407462
 20
183.0693771858028
 10
552.1482551278268
 20
184.1340289933546
  0
LWPOLYLINE
  5
A2
100
AcDbEntity
  8
8
  6
ByLayer
 62
  256
370
   -1
100
AcDbPolyline
 90
    2
 70
    0
 43
0
 10
552.1482551278268
 20
184.1340289933546
 10
620.0658255328426
 20
215.7289001499662
  0
LWPOLYLINE
  5
A3
100
AcDbEntity
  8
8
  6
ByLayer
 62
  256
370
   -1
100
AcDbPolyline
 90
    2
 70
    0
 43
0
 10
516.6042880224904
 20
210.082637738074
 10
581.5951762648911
 20
240.1104481074012
  0
LWPOLYLINE
  5
A4
100
AcDbEntity
  8
8
  6
ByLayer
 62
  256
370
   -1
100
AcDbPolyline
 90
    6
 70
    0
 43
0
 10
-177.0883827794842
 20
-205.5620251097077
 10
-218.6259137987818
 20
-196.0715978091416
 10
-251.7308006385183
 20
-187.330213613737
 10
-270.1789451393033
 20
-181.7015874825092
 10
-288.9389284981789
 20
-175.0988044626783
 10
-308.4188336834677
 20
-166.9005756070169
  0
LWPOLYLINE
  5
A5
100
AcDbEntity
  8
8
  6
ByLayer
 62
  256
370
   -1
100
AcDbPolyline
 90
    5
 70
    0
 43
0
 10
293.9928983411619
 20
23.19107364913225
 10
225.2367292808194
 20
19.5585763612853
 10
183.2692992567363
 20
17.75712182177131
 10
150.2517714195164
 20
16.72863792499538
 10
119.9797184239833
 20
16.40855306207595
  0
LWPOLYLINE
  5
A6
100
AcDbEntity
  8
8
  6
ByLayer
 62
  256
370
   -1
100
AcDbPolyline
 90
    9
 70
    0
 43
0
 10
504.9615674288307
 20
300.6019832180677
 10
503.5820724190671
 20
298.2649454041803
 10
501.0428204049986
 20
297.4011912135343
 10
498.5444138197672
 20
298.4759322249665
 10
497.239151206204
 20
300.9059515653744
 10
497.7544913178999
 20
303.6350513760144
 10
499.8373307754418
 20
305.3288447911573
 10
502.5214723272265
 20
305.236814007731
 10
504.545841390378
 20
303.3734182797139
  0
LWPOLYLINE
  5
A7
100
AcDbEntity
  8
8
  6
ByLayer
 62
  256
370
   -1
100
AcDbPolyline
 90
   11
 70
    0
 43
0
 10
485.8523572691602
 20
281.1528100918322
 10
481.6923274160563
 20
285.4534455994944
 10
479.9871826667659
 20
287.9181167661245
 10
477.4313591058508
 20
293.258290045776
 10
476.1850694189825
 20
299.2325189223911
 10
476.2592769800704
 20
305.2426408411716
 10
477.6838944350693
 20
311.145697707766
 10
480.3429862773828
 20
316.4074799438658
 10
484.1180696553365
 20
320.8736296389779
 10
486.3657514597726
 20
322.7446890265796
 10
491.430178349874
 20
325.636207533099
  0
LWPOLYLINE
  5
A8
100
AcDbEntity
  8
8
  6
ByLayer
 62
  256
370
   -1
100
AcDbPolyline
 90
    2
 70
    0
 43
0
 10
491.430178349874
 20
325.636207533099
 10
565.0058479723839
 20
356.2380573700389
  0
LWPOLYLINE
  5
A9
100
AcDbEntity
  8
8
  6
ByLayer
 62
  256
370
   -1
100
AcDbPolyline
 90
    2
 70
    0
 43
0
 10
485.8523572691602
 20
281.1528100918322
 10
556.4431424208396
 20
310.45271725967
  0
ENDBLK
  5
60
330
5E
100
AcDbEntity
  8
0
100
AcDbBlockEnd
  0
BLOCK
  5
62
330
61
100
AcDbEntity
  8
0
100
AcDbBlockBegin
  2
LE2M
 70
    0
 10
0
 20
0
  3
LE2M
  1

  0
LWPOLYLINE
  5
AA
100
AcDbEntity
  8
1
  6
ByLayer
 62
  256
370
   -1
100
AcDbPolyline
 90
   53
 70
    0
 43
0
 10
-707.0455322265625
 20
-92.03057861328125
 10
-712.5482177734375
 20
-80.15374755859375
 10
-722.6209716796875
 20
-56.48138427734375
 10
-731.4344482421875
 20
-32.70330810546875
 10
-738.713623046875
 20
-9.70501708984375
 10
-741.705322265625
 20
1.84088134765625
 10
-744.28515625
 20
13.95489501953125
 10
-746.067626953125
 20
28.88482666015625
 10
-745.31396484375
 20
45.68072509765625
 10
-741.080078125
 20
59.29400634765625
 10
-734.7266845703125
 20
72.61578369140625
 10
-721.5220947265625
 20
96.73760986328125
 10
-695.1639404296875
 20
142.6231079101562
 10
-692.4300537109375
 20
145.7959594726562
 10
-690.6973876953125
 20
146.9973754882812
 10
-686.775390625
 20
148.4478149414062
 10
-28.33740234375
 20
165.4666137695312
 10
709.137451171875
 20
183.4956665039062
 10
712.006591796875
 20
183.4146118164062
 10
714.790283203125
 20
182.7136840820312
 10
716.921630859375
 20
181.6528930664062
 10
720.414306640625
 20
178.4465942382812
 10
722.4052734375
 20
174.3760375976562
 10
722.80029296875
 20
172.2359008789062
 10
722.468505859375
 20
167.9187622070312
 10
718.148193359375
 20
159.2913208007812
 10
703.734375
 20
133.3767700195312
 10
687.383544921875
 20
105.0049438476562
 10
686.051513671875
 20
101.3538208007812
 10
688.065673828125
 20
87.52008056640625
 10
692.00927734375
 20
68.10089111328125
 10
697.2705078125
 20
48.99810791015625
 10
703.877197265625
 20
30.32330322265625
 10
711.407958984375
 20
12.02252197265625
 10
719.743896484375
 20
-5.92401123046875
 10
728.86083984375
 20
-23.52728271484375
 10
743.78759765625
 20
-49.29022216796875
 10
745.6904296875
 20
-53.43206787109375
 10
746.02099609375
 20
-57.99798583984375
 10
745.336181640625
 20
-60.90557861328125
 10
743.985107421875
 20
-63.55352783203125
 10
742.062744140625
 20
-65.80535888671875
 10
738.491455078125
 20
-68.10357666015625
 10
715.7255859375
 20
-70.69073486328125
 10
-1.57763671875
 20
-132.9426879882812
 10
-652.3604736328125
 20
-183.4956665039062
 10
-656.912353515625
 20
-182.2423706054688
 10
-658.9332275390625
 20
-180.9891967773438
 10
-660.6793212890625
 20
-179.3757934570312
 10
-663.2613525390625
 20
-175.4165649414062
 10
-683.089111328125
 20
-139.7850952148438
 10
-695.498779296875
 20
-115.8307495117188
 10
-707.0455322265625
 20
-92.03057861328125
  0
LWPOLYLINE
  5
AB
100
AcDbEntity
  8
8
  6
ByLayer
 62
  256
370
   -1
100
AcDbPolyline
 90
   28
 70
    0
 43
0
 10
-680.8910375347052
 20
148.1466384682421
 10
-677.0447144363964
 20
146.2302503207407
 10
-675.428204227444
 20
144.8027036192257
 10
-672.7429938703115
 20
140.5058755227119
 10
-672.0525669413248
 20
137.6521239772351
 10
-672.0483043587853
 20
134.7136866689625
 10
-672.7386083101514
 20
131.8395324079625
 10
-698.9223295120869
 20
85.89840761956157
 10
-712.9046898562945
 20
60.40110777498376
 10
-719.1089261031293
 20
46.82583958146688
 10
-720.3820455886148
 20
42.72945833410813
 10
-721.1666644696061
 20
38.56369740376067
 10
-721.0963071006715
 20
30.10557365272416
 10
-719.1358635510437
 20
15.26126389201545
 10
-716.3485677897918
 20
3.204063709952152
 10
-713.0682331209769
 20
-8.299155447194607
 10
-705.4837936094777
 20
-31.22497190684771
 10
-696.205619777759
 20
-54.89917035462122
 10
-685.7757494358309
 20
-78.46731193409391
 10
-674.3736631023251
 20
-102.1373877648514
 10
-662.1359626184353
 20
-125.9038020037319
 10
-639.4734899480134
 20
-167.1704483050605
 10
-638.8885569351787
 20
-170.3246676730362
 10
-639.127861702952
 20
-173.5189263174957
 10
-640.2506981141578
 20
-176.6879041135012
 10
-642.1670886137504
 20
-179.456154096767
 10
-644.7466780186444
 20
-181.6122942062418
 10
-647.8020464911699
 20
-183.0044211376505
  0
LWPOLYLINE
  5
AC
100
AcDbEntity
  8
8
  6
ByLayer
 62
  256
370
   -1
100
AcDbPolyline
 90
    2
 70
    0
 43
0
 10
30.72725977077698
 20
148.0886854599185
 10
-691.3658720087269
 20
129.7339126447441
  0
LWPOLYLINE
  5
AD
100
AcDbEntity
  8
8
  6
ByLayer
 62
  256
370
   -1
100
AcDbPolyline
 90
    2
 70
    0
 43
0
 10
704.7522105502539
 20
164.6324182153617
 10
30.72725977077698
 20
148.0886854599185
  0
LWPOLYLINE
  5
AE
100
AcDbEntity
  8
8
  6
ByLayer
 62
  256
370
   -1
100
AcDbPolyline
 90
    3
 70
    0
 43
0
 10
-658.0768749422493
 20
-165.2583171135047
 10
-12.04592876861625
 20
-114.9551409004662
 10
727.8966219368722
 20
-50.81801718285351
  0
LWPOLYLINE
  5
AF
100
AcDbEntity
  8
8
  6
ByLayer
 62
  256
370
   -1
100
AcDbPolyline
 90
   22
 70
    0
 43
0
 10
738.8412026671817
 20
-68.69151985903727
 10
734.1811744695724
 20
-69.09542725786923
 10
729.5731859275238
 20
-68.42983214048763
 10
726.8514456509929
 20
-67.11787988806054
 10
724.5247946803056
 20
-65.19326542322892
 10
721.1719595247296
 20
-60.21492097045621
 10
711.1503698412116
 20
-43.06385105251229
 10
697.1887383843182
 20
-16.70682058954117
 10
684.8066853191272
 20
10.47447578525816
 10
677.6565726308686
 20
29.01008535542178
 10
674.4545835037966
 20
38.3989744719147
 10
668.8557068531441
 20
57.50442818211877
 10
664.5718825324757
 20
76.92180457620179
 10
662.8580965994033
 20
86.72903620946681
 10
662.1365106056573
 20
106.2654433314501
 10
664.9803434004011
 20
114.9477892881027
 10
669.4411650951729
 20
123.4470535240516
 10
698.7136836796913
 20
175.7964009516836
 10
701.5291110339558
 20
179.8672760951445
 10
703.4575176443691
 20
181.4414723079835
 10
708.0117596491364
 20
183.2993918307557
 10
715.3379802643767
 20
183.7045546113654
  0
LWPOLYLINE
  5
B0
100
AcDbEntity
  8
8
  6
ByLayer
 62
  256
370
   -1
100
AcDbPolyline
 90
    7
 70
    0
 43
0
 10
-64.27540883847087
 20
-154.7081155123713
 10
-89.52576818917714
 20
-115.8575189482958
 10
-100.5347357965966
 20
-98.02319828385453
 10
-113.3359576351222
 20
-75.90926404226934
 10
-129.8523745794255
 20
-44.11271837756021
 10
-135.3730734339829
 20
-32.52704967295267
 10
-142.7213735455562
 20
-15.55236557677017
  0
LWPOLYLINE
  5
B1
100
AcDbEntity
  8
8
  6
ByLayer
 62
  256
370
   -1
100
AcDbPolyline
 90
    8
 70
    0
 43
0
 10
537.4929207388386
 20
-101.5972003712814
 10
510.7793580271905
 20
-70.0455575137546
 10
496.3011005208041
 20
-51.7649164775562
 10
488.0105449553748
 20
-40.56978125063188
 10
481.8308031041865
 20
-32.00502687826202
 10
469.3561558871984
 20
-13.02267550153647
 10
461.168403938811
 20
0.7037186762158854
 10
454.8339820245351
 20
12.24280571230474
  0
LWPOLYLINE
  5
B2
100
AcDbEntity
  8
8
  6
ByLayer
 62
  256
370
   -1
100
AcDbPolyline
 90
    2
 70
    0
 43
0
 10
-94.41839798588535
 20
179.1594828811631
 10
-97.63988173012103
 20
174.0610384266929
  0
LWPOLYLINE
  5
B3
100
AcDbEntity
  8
8
  6
ByLayer
 62
  256
370
   -1
100
AcDbPolyline
 90
    2
 70
    0
 43
0
 10
626.4613571314444
 20
192.2971813711333
 10
631.190603591775
 20
186.3369096182691
  0
LWPOLYLINE
  5
B4
100
AcDbEntity
  8
8
  6
ByLayer
 62
  256
370
   -1
100
AcDbPolyline
 90
    2
 70
    0
 43
0
 10
631.190603591775
 20
186.3369096182691
 10
639.0537843805132
 20
176.3694409719074
  0
LWPOLYLINE
  5
B5
100
AcDbEntity
  8
8
  6
ByLayer
 62
  256
370
   -1
100
AcDbPolyline
 90
    2
 70
    0
 43
0
 10
639.0537843805132
 20
176.3694409719074
 10
660.0280539899877
 20
193.723973117902
  0
ENDBLK
  5
63
330
61
100
AcDbEntity
  8
0
100
AcDbBlockEnd
  0
ENDSEC
  0
SECTION
  2
ENTITIES
  0
INSERT
  5
B6
100
AcDbEntity
  8
0
  6
ByLayer
 62
  256
370
   -1
100
AcDbBlockReference
  2
LE1M
 10
-477.2193908691406
 20
2169.517700195312
 30
0
 41
1
 42
1
 43
0
 50
0
 70
    1
 71
    1
 44
0
 45
0
  0
INSERT
  5
B7
100
AcDbEntity
  8
0
  6
ByLayer
 62
  256
370
   -1
100
AcDbBlockReference
  2
US
 10
1515.746063232422
 20
3601.901733398438
 30
0
 41
1
 42
1
 43
0
 50
0
 70
    1
 71
    1
 44
0
 45
0
  0
INSERT
  5
B8
100
AcDbEntity
  8
0
  6
ByLayer
 62
  256
370
   -1
100
AcDbBlockReference
  2
TSF
 10
1476.312683105469
 20
1611.92822265625
 30
0
 41
1
 42
1
 43
0
 50
0
 70
    1
 71
    1
 44
0
 45
0
  0
INSERT
  5
B9
100
AcDbEntity
  8
0
  6
ByLayer
 62
  256
370
   -1
100
AcDbBlockReference
  2
LE3M
 10
4647.072509765625
 20
2082.545593261719
 30
0
 41
1
 42
1
 43
0
 50
0
 70
    1
 71
    1
 44
0
 45
0
  0
INSERT
  5
BA
100
AcDbEntity
  8
0
  6
ByLayer
 62
  256
370
   -1
100
AcDbBlockReference
  2
LE2M
 10
2567.73291015625
 20
2108.315368652344
 30
0
 41
1
 42
1
 43
0
 50
0
 70
    1
 71
    1
 44
0
 45
0
  0
LWPOLYLINE
  5
BB
100
AcDbEntity
  8
0
  6
ByLayer
 62
  256
370
   -1
100
AcDbPolyline
 90
    4
 70
    1
 43
0
 10
0
 20
0
 10
12000
 20
0
 10
12000
 20
1440
 10
0
 20
1440
  0
INSERT
  5
BC
100
AcDbEntity
  8
0
  6
ByLayer
 62
  256
370
   -1
100
AcDbBlockReference
  2
TSR
 10
2369.751111676035
 20
416.095913783686
 30
0
 41
1
 42
1
 43
0
 50
350.608
 70
    1
 71
    1
 44
0
 45
0
  0
ENDSEC
  0
SECTION
  2
OBJECTS
  0
DICTIONARY
  5
C
330
0
100
AcDbDictionary
281
    1
  3
ACAD_GROUP
350
D
  0
DICTIONARY
  5
D
330
C
100
AcDbDictionary
281
    1
  0
PLOTSETTINGS
  5
BD
100
AcDbPlotSettings
  6
1x1
 40
0
 41
0
 42
0
 43
0
  0
ENDSEC
  0
EOF
