  0
SECTION
  2
HEADER
  9
$ACADVER
  1
AC1027
  9
$ACADMAINTVER
 70
105
  9
$DWGCODEPAGE
  3
ANSI_1252
  9
$LASTSAVEDBY
  1
ezdxf
  9
$REQUIREDVERSIONS
160
0
  9
$INSBASE
 10
0.0
 20
0.0
 30
0.0
  9
$EXTMIN
 10
-100
 20
-100
 30
-100
  9
$EXTMAX
 10
100
 20
100
 30
100
  9
$LIMMIN
 10
0.0
 20
0.0
  9
$LIMMAX
 10
420.0
 20
297.0
  9
$ORTHOMODE
 70
0
  9
$REGENMODE
 70
1
  9
$FILLMODE
 70
1
  9
$QTEXTMODE
 70
0
  9
$MIRRTEXT
 70
1
  9
$LTSCALE
 40
1.0
  9
$ATTMODE
 70
1
  9
$TEXTSIZE
 40
2.5
  9
$TRACEWID
 40
1.0
  9
$TEXTSTYLE
  7
Standard
  9
$CLAYER
  8
0
  9
$CELTYPE
  6
ByLayer
  9
$CECOLOR
 62
256
  9
$CELTSCALE
 40
1.0
  9
$DISPSILH
 70
0
  9
$DIMSCALE
 40
1.0
  9
$DIMASZ
 40
2.5
  9
$DIMEXO
 40
0.625
  9
$DIMDLI
 40
3.75
  9
$DIMRND
 40
0.0
  9
$DIMDLE
 40
0.0
  9
$DIMEXE
 40
1.25
  9
$DIMTP
 40
0.0
  9
$DIMTM
 40
0.0
  9
$DIMTXT
 40
2.5
  9
$DIMCEN
 40
2.5
  9
$DIMTSZ
 40
0.0
  9
$DIMTOL
 70
0
  9
$DIMLIM
 70
0
  9
$DIMTIH
 70
0
  9
$DIMTOH
 70
0
  9
$DIMSE1
 70
0
  9
$DIMSE2
 70
0
  9
$DIMTAD
 70
1
  9
$DIMZIN
 70
8
  9
$DIMBLK
  1

  9
$DIMASO
 70
1
  9
$DIMSHO
 70
1
  9
$DIMPOST
  1

  9
$DIMAPOST
  1

  9
$DIMALT
 70
0
  9
$DIMALTD
 70
3
  9
$DIMALTF
 40
0.03937007874
  9
$DIMLFAC
 40
1.0
  9
$DIMTOFL
 70
1
  9
$DIMTVP
 40
0.0
  9
$DIMTIX
 70
0
  9
$DIMSOXD
 70
0
  9
$DIMSAH
 70
0
  9
$DIMBLK1
  1

  9
$DIMBLK2
  1

  9
$DIMSTYLE
  2
ISO-25
  9
$DIMCLRD
 70
0
  9
$DIMCLRE
 70
0
  9
$DIMCLRT
 70
0
  9
$DIMTFAC
 40
1.0
  9
$DIMGAP
 40
0.625
  9
$DIMJUST
 70
0
  9
$DIMSD1
 70
0
  9
$DIMSD2
 70
0
  9
$DIMTOLJ
 70
0
  9
$DIMTZIN
 70
8
  9
$DIMALTZ
 70
0
  9
$DIMALTTZ
 70
0
  9
$DIMUPT
 70
0
  9
$DIMDEC
 70
2
  9
$DIMTDEC
 70
2
  9
$DIMALTU
 70
2
  9
$DIMALTTD
 70
3
  9
$DIMTXSTY
  7
Standard
  9
$DIMAUNIT
 70
0
  9
$DIMADEC
 70
0
  9
$DIMALTRND
 40
0.0
  9
$DIMAZIN
 70
0
  9
$DIMDSEP
 70
44
  9
$DIMATFIT
 70
3
  9
$DIMFRAC
 70
0
  9
$DIMLDRBLK
  1

  9
$DIMLUNIT
 70
2
  9
$DIMLWD
 70
-2
  9
$DIMLWE
 70
-2
  9
$DIMTMOVE
 70
0
  9
$DIMFXL
 40
1.0
  9
$DIMFXLON
 70
0
  9
$DIMJOGANG
 40
0.785398163397
  9
$DIMTFILL
 70
0
  9
$DIMTFILLCLR
 70
0
  9
$DIMARCSYM
 70
0
  9
$DIMLTYPE
  6

  9
$DIMLTEX1
  6

  9
$DIMLTEX2
  6

  9
$DIMTXTDIRECTION
 70
0
  9
$LUNITS
 70
2
  9
$LUPREC
 70
4
  9
$SKETCHINC
 40
1.0
  9
$FILLETRAD
 40
10.0
  9
$AUNITS
 70
0
  9
$AUPREC
 70
2
  9
$MENU
  1
.
  9
$ELEVATION
 40
0.0
  9
$PELEVATION
 40
0.0
  9
$THICKNESS
 40
0.0
  9
$LIMCHECK
 70
0
  9
$CHAMFERA
 40
0.0
  9
$CHAMFERB
 40
0.0
  9
$CHAMFERC
 40
0.0
  9
$CHAMFERD
 40
0.0
  9
$SKPOLY
 70
0
  9
$TDCREATE
 40
2459693.824560185
  9
$TDUCREATE
 40
2458532.153996898
  9
$TDUPDATE
 40
2459693.8246180555
  9
$TDUUPDATE
 40
2458532.1544311
  9
$TDINDWG
 40
0.0
  9
$TDUSRTIMER
 40
0.0
  9
$USRTIMER
 70
1
  9
$ANGBASE
 50
0.0
  9
$ANGDIR
 70
0
  9
$PDMODE
 70
0
  9
$PDSIZE
 40
0.0
  9
$PLINEWID
 40
0.0
  9
$SPLFRAME
 70
0
  9
$SPLINETYPE
 70
6
  9
$SPLINESEGS
 70
8
  9
$HANDSEED
  5
52E
  9
$SURFTAB1
 70
6
  9
$SURFTAB2
 70
6
  9
$SURFTYPE
 70
6
  9
$SURFU
 70
6
  9
$SURFV
 70
6
  9
$UCSBASE
  2

  9
$UCSNAME
  2

  9
$UCSORG
 10
0.0
 20
0.0
 30
0.0
  9
$UCSXDIR
 10
1.0
 20
0.0
 30
0.0
  9
$UCSYDIR
 10
0.0
 20
1.0
 30
0.0
  9
$UCSORTHOREF
  2

  9
$UCSORTHOVIEW
 70
0
  9
$UCSORGTOP
 10
0.0
 20
0.0
 30
0.0
  9
$UCSORGBOTTOM
 10
0.0
 20
0.0
 30
0.0
  9
$UCSORGLEFT
 10
0.0
 20
0.0
 30
0.0
  9
$UCSORGRIGHT
 10
0.0
 20
0.0
 30
0.0
  9
$UCSORGFRONT
 10
0.0
 20
0.0
 30
0.0
  9
$UCSORGBACK
 10
0.0
 20
0.0
 30
0.0
  9
$PUCSBASE
  2

  9
$PUCSNAME
  2

  9
$PUCSORG
 10
0.0
 20
0.0
 30
0.0
  9
$PUCSXDIR
 10
1.0
 20
0.0
 30
0.0
  9
$PUCSYDIR
 10
0.0
 20
1.0
 30
0.0
  9
$PUCSORTHOREF
  2

  9
$PUCSORTHOVIEW
 70
0
  9
$PUCSORGTOP
 10
0.0
 20
0.0
 30
0.0
  9
$PUCSORGBOTTOM
 10
0.0
 20
0.0
 30
0.0
  9
$PUCSORGLEFT
 10
0.0
 20
0.0
 30
0.0
  9
$PUCSORGRIGHT
 10
0.0
 20
0.0
 30
0.0
  9
$PUCSORGFRONT
 10
0.0
 20
0.0
 30
0.0
  9
$PUCSORGBACK
 10
0.0
 20
0.0
 30
0.0
  9
$USERI1
 70
0
  9
$USERI2
 70
0
  9
$USERI3
 70
0
  9
$USERI4
 70
0
  9
$USERI5
 70
0
  9
$USERR1
 40
0.0
  9
$USERR2
 40
0.0
  9
$USERR3
 40
0.0
  9
$USERR4
 40
0.0
  9
$USERR5
 40
0.0
  9
$WORLDVIEW
 70
1
  9
$SHADEDGE
 70
3
  9
$SHADEDIF
 70
70
  9
$TILEMODE
 70
1
  9
$MAXACTVP
 70
64
  9
$PINSBASE
 10
0.0
 20
0.0
 30
0.0
  9
$PLIMCHECK
 70
0
  9
$PEXTMIN
 10
1e+20
 20
1e+20
 30
1e+20
  9
$PEXTMAX
 10
-1e+20
 20
-1e+20
 30
-1e+20
  9
$PLIMMIN
 10
0.0
 20
0.0
  9
$PLIMMAX
 10
420.0
 20
297.0
  9
$UNITMODE
 70
0
  9
$VISRETAIN
 70
1
  9
$PLINEGEN
 70
0
  9
$PSLTSCALE
 70
1
  9
$TREEDEPTH
 70
3020
  9
$CMLSTYLE
  2
Standard
  9
$CMLJUST
 70
0
  9
$CMLSCALE
 40
20.0
  9
$PROXYGRAPHICS
 70
1
  9
$MEASUREMENT
 70
1
  9
$CELWEIGHT
370
-1
  9
$ENDCAPS
280
0
  9
$JOINSTYLE
280
0
  9
$LWDISPLAY
290
0
  9
$INSUNITS
 70
6
  9
$HYPERLINKBASE
  1

  9
$STYLESHEET
  1

  9
$XEDIT
290
1
  9
$CEPSNTYPE
380
0
  9
$PSTYLEMODE
290
1
  9
$FINGERPRINTGUID
  2
CF4ED14E-C335-11EC-B427-80FA5B45A589
  9
$VERSIONGUID
  2
D2AEC85D-C335-11EC-ACCD-80FA5B45A589
  9
$EXTNAMES
290
1
  9
$PSVPSCALE
 40
0.0
  9
$OLESTARTUP
290
0
  9
$SORTENTS
280
127
  9
$INDEXCTL
280
0
  9
$HIDETEXT
280
1
  9
$XCLIPFRAME
280
2
  9
$HALOGAP
280
0
  9
$OBSCOLOR
 70
257
  9
$OBSLTYPE
280
0
  9
$INTERSECTIONDISPLAY
280
0
  9
$INTERSECTIONCOLOR
 70
257
  9
$DIMASSOC
280
2
  9
$PROJECTNAME
  1

  9
$CAMERADISPLAY
290
0
  9
$LENSLENGTH
 40
50.0
  9
$CAMERAHEIGHT
 40
0.0
  9
$STEPSPERSEC
 40
24.0
  9
$STEPSIZE
 40
100.0
  9
$3DDWFPREC
 40
2.0
  9
$PSOLWIDTH
 40
0.005
  9
$PSOLHEIGHT
 40
0.08
  9
$LOFTANG1
 40
1.570796326795
  9
$LOFTANG2
 40
1.570796326795
  9
$LOFTMAG1
 40
0.0
  9
$LOFTMAG2
 40
0.0
  9
$LOFTPARAM
 70
7
  9
$LOFTNORMALS
280
1
  9
$LATITUDE
 40
37.795
  9
$LONGITUDE
 40
-122.394
  9
$NORTHDIRECTION
 40
0.0
  9
$TIMEZONE
 70
-8000
  9
$LIGHTGLYPHDISPLAY
280
1
  9
$TILEMODELIGHTSYNCH
280
1
  9
$CMATERIAL
347
20
  9
$SOLIDHIST
280
0
  9
$SHOWHIST
280
1
  9
$DWFFRAME
280
2
  9
$DGNFRAME
280
2
  9
$REALWORLDSCALE
290
1
  9
$INTERFERECOLOR
 62
256
  9
$CSHADOW
280
0
  9
$SHADOWPLANELOCATION
 40
0.0
  0
ENDSEC
  0
SECTION
  2
CLASSES
  0
CLASS
  1
ACDBDICTIONARYWDFLT
  2
AcDbDictionaryWithDefault
  3
ObjectDBX Classes
 90
0
 91
0
280
0
281
0
  0
CLASS
  1
SUN
  2
AcDbSun
  3
SCENEOE
 90
1153
 91
0
280
0
281
0
  0
CLASS
  1
VISUALSTYLE
  2
AcDbVisualStyle
  3
ObjectDBX Classes
 90
4095
 91
0
280
0
281
0
  0
CLASS
  1
MATERIAL
  2
AcDbMaterial
  3
ObjectDBX Classes
 90
1153
 91
0
280
0
281
0
  0
CLASS
  1
SCALE
  2
AcDbScale
  3
ObjectDBX Classes
 90
1153
 91
0
280
0
281
0
  0
CLASS
  1
TABLESTYLE
  2
AcDbTableStyle
  3
ObjectDBX Classes
 90
4095
 91
0
280
0
281
0
  0
CLASS
  1
MLEADERSTYLE
  2
AcDbMLeaderStyle
  3
ACDB_MLEADERSTYLE_CLASS
 90
4095
 91
0
280
0
281
0
  0
CLASS
  1
DICTIONARYVAR
  2
AcDbDictionaryVar
  3
ObjectDBX Classes
 90
0
 91
0
280
0
281
0
  0
CLASS
  1
CELLSTYLEMAP
  2
AcDbCellStyleMap
  3
ObjectDBX Classes
 90
1152
 91
0
280
0
281
0
  0
CLASS
  1
MENTALRAYRENDERSETTINGS
  2
AcDbMentalRayRenderSettings
  3
SCENEOE
 90
1024
 91
0
280
0
281
0
  0
CLASS
  1
ACDBDETAILVIEWSTYLE
  2
AcDbDetailViewStyle
  3
ObjectDBX Classes
 90
1025
 91
0
280
0
281
0
  0
CLASS
  1
ACDBSECTIONVIEWSTYLE
  2
AcDbSectionViewStyle
  3
ObjectDBX Classes
 90
1025
 91
0
280
0
281
0
  0
CLASS
  1
RASTERVARIABLES
  2
AcDbRasterVariables
  3
ISM
 90
0
 91
0
280
0
281
0
  0
CLASS
  1
ACDBPLACEHOLDER
  2
AcDbPlaceHolder
  3
ObjectDBX Classes
 90
0
 91
0
280
0
281
0
  0
CLASS
  1
LAYOUT
  2
AcDbLayout
  3
ObjectDBX Classes
 90
0
 91
0
280
0
281
0
  0
ENDSEC
  0
SECTION
  2
TABLES
  0
TABLE
  2
VPORT
  5
8
330
0
100
AcDbSymbolTable
 70
1
  0
VPORT
  5
52D
330
8
100
AcDbSymbolTableRecord
100
AcDbViewportTableRecord
  2
*Active
 70
0
 10
0.0
 20
0.0
 11
1.0
 21
1.0
 12
1800.0
 22
900.0
 13
0.0
 23
0.0
 14
0.5
 24
0.5
 15
0.5
 25
0.5
 16
0.0
 26
0.0
 36
1.0
 17
0.0
 27
0.0
 37
0.0
 40
2300.0
 41
1.34
 42
50.0
 43
0.0
 44
0.0
 50
0.0
 51
0.0
 71
0
 72
1000
 73
1
 74
3
 75
0
 76
0
 77
0
 78
0
281
0
 65
0
146
0.0
  0
ENDTAB
  0
TABLE
  2
LTYPE
  5
2
330
0
100
AcDbSymbolTable
 70
3
  0
LTYPE
  5
24
330
2
100
AcDbSymbolTableRecord
100
AcDbLinetypeTableRecord
  2
ByBlock
 70
0
  3

 72
65
 73
0
 40
0.0
  0
LTYPE
  5
25
330
2
100
AcDbSymbolTableRecord
100
AcDbLinetypeTableRecord
  2
ByLayer
 70
0
  3

 72
65
 73
0
 40
0.0
  0
LTYPE
  5
26
330
2
100
AcDbSymbolTableRecord
100
AcDbLinetypeTableRecord
  2
Continuous
 70
0
  3

 72
65
 73
0
 40
0.0
  0
ENDTAB
  0
TABLE
  2
LAYER
  5
1
330
0
100
AcDbSymbolTable
 70
6
  0
LAYER
  5
27
330
1
100
AcDbSymbolTableRecord
100
AcDbLayerTableRecord
  2
0
 70
0
 62
7
  6
Continuous
370
-3
390
13
347
21
  0
LAYER
  5
28
330
1
100
AcDbSymbolTableRecord
100
AcDbLayerTableRecord
  2
Defpoints
 70
0
 62
7
  6
Continuous
290
0
370
-3
390
13
347
21
  0
LAYER
  5
2D
330
1
100
AcDbSymbolTableRecord
100
AcDbLayerTableRecord
  2
1
 70
0
 62
1
  6
Continuous
370
-3
390
13
347
21
  0
LAYER
  5
2E
330
1
100
AcDbSymbolTableRecord
100
AcDbLayerTableRecord
  2
8
 70
0
 62
4
  6
Continuous
370
-3
390
13
347
21
  0
LAYER
  5
2F
330
1
100
AcDbSymbolTableRecord
100
AcDbLayerTableRecord
  2
11
 70
0
 62
3
  6
Continuous
370
-3
390
13
347
21
  0
LAYER
  5
30
330
1
100
AcDbSymbolTableRecord
100
AcDbLayerTableRecord
  2
21
 70
0
 62
21
  6
Continuous
370
-3
390
13
347
21
  0
ENDTAB
  0
TABLE
  2
STYLE
  5
5
330
0
100
AcDbSymbolTable
 70
1
  0
STYLE
  5
29
330
5
100
AcDbSymbolTableRecord
100
AcDbTextStyleTableRecord
  2
Standard
 70
0
 40
0.0
 41
1.0
 50
0.0
 71
0
 42
2.5
  3
txt
  4

  0
ENDTAB
  0
TABLE
  2
VIEW
  5
7
330
0
100
AcDbSymbolTable
 70
0
  0
ENDTAB
  0
TABLE
  2
UCS
  5
6
330
0
100
AcDbSymbolTable
 70
0
  0
ENDTAB
  0
TABLE
  2
APPID
  5
3
330
0
100
AcDbSymbolTable
 70
1
  0
APPID
  5
2A
330
3
100
AcDbSymbolTableRecord
100
AcDbRegAppTableRecord
  2
ACAD
 70
0
  0
ENDTAB
  0
TABLE
  2
DIMSTYLE
  5
4
330
0
100
AcDbSymbolTable
 70
1
100
AcDbDimStyleTable
  0
DIMSTYLE
105
2B
330
4
100
AcDbSymbolTableRecord
100
AcDbDimStyleTableRecord
  2
Standard
 70
0
 40
1.0
 41
2.5
 42
0.625
 43
3.75
 44
1.25
 45
0.0
 46
0.0
 47
0.0
 48
0.0
 49
2.5
140
2.5
141
2.5
142
0.0
143
0.03937007874
144
1.0
145
0.0
146
1.0
147
0.625
148
0.0
 69
0
 70
0
 71
0
 72
0
 73
0
 74
0
 75
0
 76
0
 77
1
 78
8
 79
0
170
0
171
3
172
1
173
0
174
0
175
0
176
0
177
0
178
0
179
0
271
0
272
2
273
2
274
3
275
0
276
0
277
2
278
44
279
0
280
0
281
0
282
0
283
0
284
8
285
0
286
0
288
0
289
3
290
0
371
-2
372
-2
  0
ENDTAB
  0
TABLE
  2
BLOCK_RECORD
  5
9
330
0
100
AcDbSymbolTable
 70
6
  0
BLOCK_RECORD
  5
17
330
9
100
AcDbSymbolTableRecord
100
AcDbBlockTableRecord
  2
*Model_Space
340
1A
 70
0
280
1
281
1
  0
BLOCK_RECORD
  5
1B
330
9
100
AcDbSymbolTableRecord
100
AcDbBlockTableRecord
  2
*Paper_Space
340
1E
 70
0
280
1
281
1
  0
BLOCK_RECORD
  5
31
330
9
100
AcDbSymbolTableRecord
100
AcDbBlockTableRecord
  2
TS
340
0
 70
0
280
1
281
1
  0
BLOCK_RECORD
  5
194
330
9
100
AcDbSymbolTableRecord
100
AcDbBlockTableRecord
  2
LE
340
0
 70
0
280
1
281
1
  0
BLOCK_RECORD
  5
2BE
330
9
100
AcDbSymbolTableRecord
100
AcDbBlockTableRecord
  2
LEM
340
0
 70
0
280
1
281
1
  0
BLOCK_RECORD
  5
42C
330
9
100
AcDbSymbolTableRecord
100
AcDbBlockTableRecord
  2
US
340
0
 70
0
280
1
281
1
  0
ENDTAB
  0
ENDSEC
  0
SECTION
  2
BLOCKS
  0
BLOCK
  5
18
330
17
100
AcDbEntity
  8
0
100
AcDbBlockBegin
  2
*Model_Space
 70
0
 10
0.0
 20
0.0
 30
0.0
  3
*Model_Space
  1

  0
ENDBLK
  5
19
330
17
100
AcDbEntity
  8
0
100
AcDbBlockEnd
  0
BLOCK
  5
1C
330
1B
100
AcDbEntity
  8
0
100
AcDbBlockBegin
  2
*Paper_Space
 70
0
 10
0.0
 20
0.0
 30
0.0
  3
*Paper_Space
  1

  0
ENDBLK
  5
1D
330
1B
100
AcDbEntity
  8
0
100
AcDbBlockEnd
  0
BLOCK
  5
32
330
31
100
AcDbEntity
  8
0
100
AcDbBlockBegin
  2
TS
 70
0
 10
0.0
 20
0.0
 30
0.0
  3
TS
  1

  0
POLYLINE
  5
34
330
31
100
AcDbEntity
  8
1
100
AcDb2dPolyline
 66
1
 70
0
  0
VERTEX
  5
36
330
31
100
AcDbEntity
  8
1
100
AcDbVertex
100
AcDb2dVertex
 10
-784.9934692382812
 20
-540.2042236328125
 30
0.0
 70
0
  0
VERTEX
  5
37
330
31
100
AcDbEntity
  8
1
100
AcDbVertex
100
AcDb2dVertex
 10
-845.1333618164062
 20
-554.4203300476074
 30
0.0
 70
0
  0
VERTEX
  5
38
330
31
100
AcDbEntity
  8
1
100
AcDbVertex
100
AcDb2dVertex
 10
-904.9254150390625
 20
-569.297794342041
 30
0.0
 70
0
  0
VERTEX
  5
39
330
31
100
AcDbEntity
  8
1
100
AcDbVertex
100
AcDb2dVertex
 10
-1003.7934875488281
 20
-595.5903224945068
 30
0.0
 70
0
  0
VERTEX
  5
3A
330
31
100
AcDbEntity
  8
1
100
AcDbVertex
100
AcDb2dVertex
 10
-1062.6356201171875
 20
-612.271651506424
 30
0.0
 70
0
  0
VERTEX
  5
3B
330
31
100
AcDbEntity
  8
1
100
AcDbVertex
100
AcDb2dVertex
 10
-1121.1163330078125
 20
-629.6385831832886
 30
0.0
 70
0
  0
VERTEX
  5
3C
330
31
100
AcDbEntity
  8
1
100
AcDbVertex
100
AcDb2dVertex
 10
-1237.1525573730469
 20
-666.1186408996582
 30
0.0
 70
0
  0
VERTEX
  5
3D
330
31
100
AcDbEntity
  8
1
100
AcDbVertex
100
AcDb2dVertex
 10
-1298.02978515625
 20
-678.9729919433594
 30
0.0
 70
0
  0
VERTEX
  5
3E
330
31
100
AcDbEntity
  8
1
100
AcDbVertex
100
AcDb2dVertex
 10
-1358.0502433776855
 20
-693.4435043334961
 30
0.0
 70
0
  0
VERTEX
  5
3F
330
31
100
AcDbEntity
  8
1
100
AcDbVertex
100
AcDb2dVertex
 10
-1417.1603469848633
 20
-709.6257095336914
 30
0.0
 70
0
  0
VERTEX
  5
40
330
31
100
AcDbEntity
  8
1
100
AcDbVertex
100
AcDb2dVertex
 10
-1456.0318069458008
 20
-721.4190139770508
 30
0.0
 70
0
  0
VERTEX
  5
41
330
31
100
AcDbEntity
  8
1
100
AcDbVertex
100
AcDb2dVertex
 10
-1494.454330444336
 20
-734.053825378418
 30
0.0
 70
0
  0
VERTEX
  5
42
330
31
100
AcDbEntity
  8
1
100
AcDbVertex
100
AcDb2dVertex
 10
-1532.4056701660156
 20
-747.5716400146484
 30
0.0
 70
0
  0
VERTEX
  5
43
330
31
100
AcDbEntity
  8
1
100
AcDbVertex
100
AcDb2dVertex
 10
-1569.863510131836
 20
-762.0131072998047
 30
0.0
 70
0
  0
VERTEX
  5
44
330
31
100
AcDbEntity
  8
1
100
AcDbVertex
100
AcDb2dVertex
 10
-1588.4010314941406
 20
-769.5915069580078
 30
0.0
 70
0
  0
VERTEX
  5
45
330
31
100
AcDbEntity
  8
1
100
AcDbVertex
100
AcDb2dVertex
 10
-1625.0738525390625
 20
-785.4992218017578
 30
0.0
 70
0
  0
VERTEX
  5
46
330
31
100
AcDbEntity
  8
1
100
AcDbVertex
100
AcDb2dVertex
 10
-1659.6554870605469
 20
-801.6968078613281
 30
0.0
 70
0
  0
VERTEX
  5
47
330
31
100
AcDbEntity
  8
1
100
AcDbVertex
100
AcDb2dVertex
 10
-1696.7189636230469
 20
-820.4862823486328
 30
0.0
 70
0
  0
VERTEX
  5
48
330
31
100
AcDbEntity
  8
1
100
AcDbVertex
100
AcDb2dVertex
 10
-1723.2887573242188
 20
-834.8674163818359
 30
0.0
 70
0
  0
VERTEX
  5
49
330
31
100
AcDbEntity
  8
1
100
AcDbVertex
100
AcDb2dVertex
 10
-1726.3489685058594
 20
-835.1836853027344
 30
0.0
 70
0
  0
VERTEX
  5
4A
330
31
100
AcDbEntity
  8
1
100
AcDbVertex
100
AcDb2dVertex
 10
-1729.269775390625
 20
-833.8610534667969
 30
0.0
 70
0
  0
VERTEX
  5
4B
330
31
100
AcDbEntity
  8
1
100
AcDbVertex
100
AcDb2dVertex
 10
-1730.3593444824219
 20
-832.6648101806641
 30
0.0
 70
0
  0
VERTEX
  5
4C
330
31
100
AcDbEntity
  8
1
100
AcDbVertex
100
AcDb2dVertex
 10
-1733.3117370605469
 20
-827.2343444824219
 30
0.0
 70
0
  0
VERTEX
  5
4D
330
31
100
AcDbEntity
  8
1
100
AcDbVertex
100
AcDb2dVertex
 10
-1804.8740539550781
 20
-693.7701110839844
 30
0.0
 70
0
  0
VERTEX
  5
4E
330
31
100
AcDbEntity
  8
1
100
AcDbVertex
100
AcDb2dVertex
 10
-1930.0507202148438
 20
-459.1111755371094
 30
0.0
 70
0
  0
VERTEX
  5
4F
330
31
100
AcDbEntity
  8
1
100
AcDbVertex
100
AcDb2dVertex
 10
-2001.2952880859375
 20
-323.96287536621094
 30
0.0
 70
0
  0
VERTEX
  5
50
330
31
100
AcDbEntity
  8
1
100
AcDbVertex
100
AcDb2dVertex
 10
-2095.6860961914062
 20
-143.49269104003906
 30
0.0
 70
0
  0
VERTEX
  5
51
330
31
100
AcDbEntity
  8
1
100
AcDbVertex
100
AcDb2dVertex
 10
-2095.8422241210938
 20
-140.5330047607422
 30
0.0
 70
0
  0
VERTEX
  5
52
330
31
100
AcDbEntity
  8
1
100
AcDbVertex
100
AcDb2dVertex
 10
-2094.5762329101562
 20
-137.86878967285156
 30
0.0
 70
0
  0
VERTEX
  5
53
330
31
100
AcDbEntity
  8
1
100
AcDbVertex
100
AcDb2dVertex
 10
-2093.5042724609375
 20
-136.8568572998047
 30
0.0
 70
0
  0
VERTEX
  5
54
330
31
100
AcDbEntity
  8
1
100
AcDbVertex
100
AcDb2dVertex
 10
-2084.6168823242188
 20
-131.3030548095703
 30
0.0
 70
0
  0
VERTEX
  5
55
330
31
100
AcDbEntity
  8
1
100
AcDbVertex
100
AcDb2dVertex
 10
-2069.5359497070312
 20
-117.03608703613281
 30
0.0
 70
0
  0
VERTEX
  5
56
330
31
100
AcDbEntity
  8
1
100
AcDbVertex
100
AcDb2dVertex
 10
-2065.7310791015625
 20
-111.86763000488281
 30
0.0
 70
0
  0
VERTEX
  5
57
330
31
100
AcDbEntity
  8
1
100
AcDbVertex
100
AcDb2dVertex
 10
-2057.7228393554688
 20
-96.51051330566406
 30
0.0
 70
0
  0
VERTEX
  5
58
330
31
100
AcDbEntity
  8
1
100
AcDbVertex
100
AcDb2dVertex
 10
-2055.9658203125
 20
-91.48432922363281
 30
0.0
 70
0
  0
VERTEX
  5
59
330
31
100
AcDbEntity
  8
1
100
AcDbVertex
100
AcDb2dVertex
 10
-2052.6121215820312
 20
-72.40565490722656
 30
0.0
 70
0
  0
VERTEX
  5
5A
330
31
100
AcDbEntity
  8
1
100
AcDbVertex
100
AcDb2dVertex
 10
-2052.7020874023438
 20
-62.97584533691406
 30
0.0
 70
0
  0
VERTEX
  5
5B
330
31
100
AcDbEntity
  8
1
100
AcDbVertex
100
AcDb2dVertex
 10
-2053.8460693359375
 20
-54.23011779785156
 30
0.0
 70
0
  0
VERTEX
  5
5C
330
31
100
AcDbEntity
  8
1
100
AcDbVertex
100
AcDb2dVertex
 10
-2059.2850341796875
 20
-36.81715393066406
 30
0.0
 70
0
  0
VERTEX
  5
5D
330
31
100
AcDbEntity
  8
1
100
AcDbVertex
100
AcDb2dVertex
 10
-2069.38623046875
 20
-20.233718872070312
 30
0.0
 70
0
  0
VERTEX
  5
5E
330
31
100
AcDbEntity
  8
1
100
AcDbVertex
100
AcDb2dVertex
 10
-2081.1459350585938
 20
-8.410232543945312
 30
0.0
 70
0
  0
VERTEX
  5
5F
330
31
100
AcDbEntity
  8
1
100
AcDbVertex
100
AcDb2dVertex
 10
-2086.1054077148438
 20
-4.7594757080078125
 30
0.0
 70
0
  0
VERTEX
  5
60
330
31
100
AcDbEntity
  8
1
100
AcDbVertex
100
AcDb2dVertex
 10
-2098.2037963867188
 20
1.9205780029296875
 30
0.0
 70
0
  0
VERTEX
  5
61
330
31
100
AcDbEntity
  8
1
100
AcDbVertex
100
AcDb2dVertex
 10
-2111.3038940429688
 20
6.2495574951171875
 30
0.0
 70
0
  0
VERTEX
  5
62
330
31
100
AcDbEntity
  8
1
100
AcDbVertex
100
AcDb2dVertex
 10
-2120.7321166992188
 20
7.8053436279296875
 30
0.0
 70
0
  0
VERTEX
  5
63
330
31
100
AcDbEntity
  8
1
100
AcDbVertex
100
AcDb2dVertex
 10
-2134.6658325195312
 20
7.8787078857421875
 30
0.0
 70
0
  0
VERTEX
  5
64
330
31
100
AcDbEntity
  8
1
100
AcDbVertex
100
AcDb2dVertex
 10
-2154.7531127929688
 20
3.2214202880859375
 30
0.0
 70
0
  0
VERTEX
  5
65
330
31
100
AcDbEntity
  8
1
100
AcDbVertex
100
AcDb2dVertex
 10
-2165.4775390625
 20
-1.3842926025390625
 30
0.0
 70
0
  0
VERTEX
  5
66
330
31
100
AcDbEntity
  8
1
100
AcDbVertex
100
AcDb2dVertex
 10
-2168.4072265625
 20
-1.0173492431640625
 30
0.0
 70
0
  0
VERTEX
  5
67
330
31
100
AcDbEntity
  8
1
100
AcDbVertex
100
AcDb2dVertex
 10
-2169.7142333984375
 20
-0.3064117431640625
 30
0.0
 70
0
  0
VERTEX
  5
68
330
31
100
AcDbEntity
  8
1
100
AcDbVertex
100
AcDb2dVertex
 10
-2171.3843994140625
 20
1.5203704833984375
 30
0.0
 70
0
  0
VERTEX
  5
69
330
31
100
AcDbEntity
  8
1
100
AcDbVertex
100
AcDb2dVertex
 10
-2420.242431640625
 20
480.1340789794922
 30
0.0
 70
0
  0
VERTEX
  5
6A
330
31
100
AcDbEntity
  8
1
100
AcDbVertex
100
AcDb2dVertex
 10
-2598.410400390625
 20
821.8116912841797
 30
0.0
 70
0
  0
VERTEX
  5
6B
330
31
100
AcDbEntity
  8
1
100
AcDbVertex
100
AcDb2dVertex
 10
-2599.272705078125
 20
824.3728485107422
 30
0.0
 70
0
  0
VERTEX
  5
6C
330
31
100
AcDbEntity
  8
1
100
AcDbVertex
100
AcDb2dVertex
 10
-2599.2615966796875
 20
825.7319793701172
 30
0.0
 70
0
  0
VERTEX
  5
6D
330
31
100
AcDbEntity
  8
1
100
AcDbVertex
100
AcDb2dVertex
 10
-2598.3353271484375
 20
828.2696990966797
 30
0.0
 70
0
  0
VERTEX
  5
6E
330
31
100
AcDbEntity
  8
1
100
AcDbVertex
100
AcDb2dVertex
 10
-2596.3897705078125
 20
830.1528778076172
 30
0.0
 70
0
  0
VERTEX
  5
6F
330
31
100
AcDbEntity
  8
1
100
AcDbVertex
100
AcDb2dVertex
 10
-2595.149658203125
 20
830.7159881591797
 30
0.0
 70
0
  0
VERTEX
  5
70
330
31
100
AcDbEntity
  8
1
100
AcDbVertex
100
AcDb2dVertex
 10
-2585.6727294921875
 20
831.0653533935547
 30
0.0
 70
0
  0
VERTEX
  5
71
330
31
100
AcDbEntity
  8
1
100
AcDbVertex
100
AcDb2dVertex
 10
-2026.2915649414062
 20
835.2163543701172
 30
0.0
 70
0
  0
VERTEX
  5
72
330
31
100
AcDbEntity
  8
1
100
AcDbVertex
100
AcDb2dVertex
 10
-1214.8648529052734
 20
830.3433074951172
 30
0.0
 70
0
  0
VERTEX
  5
73
330
31
100
AcDbEntity
  8
1
100
AcDbVertex
100
AcDb2dVertex
 10
65.486083984375
 20
792.6632537841797
 30
0.0
 70
0
  0
VERTEX
  5
74
330
31
100
AcDbEntity
  8
1
100
AcDbVertex
100
AcDb2dVertex
 10
1235.12451171875
 20
758.9225311279297
 30
0.0
 70
0
  0
VERTEX
  5
75
330
31
100
AcDbEntity
  8
1
100
AcDbVertex
100
AcDb2dVertex
 10
1962.188720703125
 20
750.5670623779297
 30
0.0
 70
0
  0
VERTEX
  5
76
330
31
100
AcDbEntity
  8
1
100
AcDbVertex
100
AcDb2dVertex
 10
2447.5244140625
 20
761.6658172607422
 30
0.0
 70
0
  0
VERTEX
  5
77
330
31
100
AcDbEntity
  8
1
100
AcDbVertex
100
AcDb2dVertex
 10
2449.5205078125
 20
761.0055389404297
 30
0.0
 70
0
  0
VERTEX
  5
78
330
31
100
AcDbEntity
  8
1
100
AcDbVertex
100
AcDb2dVertex
 10
2451.0595703125
 20
759.8196258544922
 30
0.0
 70
0
  0
VERTEX
  5
79
330
31
100
AcDbEntity
  8
1
100
AcDbVertex
100
AcDb2dVertex
 10
2452.150634765625
 20
758.1888885498047
 30
0.0
 70
0
  0
VERTEX
  5
7A
330
31
100
AcDbEntity
  8
1
100
AcDbVertex
100
AcDb2dVertex
 10
2597.95849609375
 20
477.7568817138672
 30
0.0
 70
0
  0
VERTEX
  5
7B
330
31
100
AcDbEntity
  8
1
100
AcDbVertex
100
AcDb2dVertex
 10
2599.190673828125
 20
474.7493133544922
 30
0.0
 70
0
  0
VERTEX
  5
7C
330
31
100
AcDbEntity
  8
1
100
AcDbVertex
100
AcDb2dVertex
 10
2599.141357421875
 20
472.5062713623047
 30
0.0
 70
0
  0
VERTEX
  5
7D
330
31
100
AcDbEntity
  8
1
100
AcDbVertex
100
AcDb2dVertex
 10
2598.270751953125
 20
470.4457244873047
 30
0.0
 70
0
  0
VERTEX
  5
7E
330
31
100
AcDbEntity
  8
1
100
AcDbVertex
100
AcDb2dVertex
 10
2595.0390625
 20
467.4606170654297
 30
0.0
 70
0
  0
VERTEX
  5
7F
330
31
100
AcDbEntity
  8
1
100
AcDbVertex
100
AcDb2dVertex
 10
2548.80517578125
 20
428.9105682373047
 30
0.0
 70
0
  0
VERTEX
  5
80
330
31
100
AcDbEntity
  8
1
100
AcDbVertex
100
AcDb2dVertex
 10
2504.48583984375
 20
390.4340057373047
 30
0.0
 70
0
  0
VERTEX
  5
81
330
31
100
AcDbEntity
  8
1
100
AcDbVertex
100
AcDb2dVertex
 10
2464.45458984375
 20
354.24082946777344
 30
0.0
 70
0
  0
VERTEX
  5
82
330
31
100
AcDbEntity
  8
1
100
AcDbVertex
100
AcDb2dVertex
 10
2419.15283203125
 20
311.40965270996094
 30
0.0
 70
0
  0
VERTEX
  5
83
330
31
100
AcDbEntity
  8
1
100
AcDbVertex
100
AcDb2dVertex
 10
2374.634765625
 20
267.08897399902344
 30
0.0
 70
0
  0
VERTEX
  5
84
330
31
100
AcDbEntity
  8
1
100
AcDbVertex
100
AcDb2dVertex
 10
2345.434326171875
 20
236.6359100341797
 30
0.0
 70
0
  0
VERTEX
  5
85
330
31
100
AcDbEntity
  8
1
100
AcDbVertex
100
AcDb2dVertex
 10
2316.650146484375
 20
205.39329528808594
 30
0.0
 70
0
  0
VERTEX
  5
86
330
31
100
AcDbEntity
  8
1
100
AcDbVertex
100
AcDb2dVertex
 10
2288.3154296875
 20
173.2974090576172
 30
0.0
 70
0
  0
VERTEX
  5
87
330
31
100
AcDbEntity
  8
1
100
AcDbVertex
100
AcDb2dVertex
 10
2278.1376953125
 20
160.9941864013672
 30
0.0
 70
0
  0
VERTEX
  5
88
330
31
100
AcDbEntity
  8
1
100
AcDbVertex
100
AcDb2dVertex
 10
2276.133544921875
 20
159.2014617919922
 30
0.0
 70
0
  0
VERTEX
  5
89
330
31
100
AcDbEntity
  8
1
100
AcDbVertex
100
AcDb2dVertex
 10
2254.5185546875
 20
151.6977996826172
 30
0.0
 70
0
  0
VERTEX
  5
8A
330
31
100
AcDbEntity
  8
1
100
AcDbVertex
100
AcDb2dVertex
 10
2197.87939453125
 20
130.7513885498047
 30
0.0
 70
0
  0
VERTEX
  5
8B
330
31
100
AcDbEntity
  8
1
100
AcDbVertex
100
AcDb2dVertex
 10
2123.0888671875
 20
101.44102478027344
 30
0.0
 70
0
  0
VERTEX
  5
8C
330
31
100
AcDbEntity
  8
1
100
AcDbVertex
100
AcDb2dVertex
 10
2049.167236328125
 20
70.48326110839844
 30
0.0
 70
0
  0
VERTEX
  5
8D
330
31
100
AcDbEntity
  8
1
100
AcDbVertex
100
AcDb2dVertex
 10
1976.15625
 20
37.80314636230469
 30
0.0
 70
0
  0
VERTEX
  5
8E
330
31
100
AcDbEntity
  8
1
100
AcDbVertex
100
AcDb2dVertex
 10
1940.005859375
 20
20.793685913085938
 30
0.0
 70
0
  0
VERTEX
  5
8F
330
31
100
AcDbEntity
  8
1
100
AcDbVertex
100
AcDb2dVertex
 10
1904.100341796875
 20
3.3222503662109375
 30
0.0
 70
0
  0
VERTEX
  5
90
330
31
100
AcDbEntity
  8
1
100
AcDbVertex
100
AcDb2dVertex
 10
1868.4453125
 20
-14.620925903320312
 30
0.0
 70
0
  0
VERTEX
  5
91
330
31
100
AcDbEntity
  8
1
100
AcDbVertex
100
AcDb2dVertex
 10
1833.0478515625
 20
-33.04829406738281
 30
0.0
 70
0
  0
VERTEX
  5
92
330
31
100
AcDbEntity
  8
1
100
AcDbVertex
100
AcDb2dVertex
 10
1797.914306640625
 20
-51.97157287597656
 30
0.0
 70
0
  0
VERTEX
  5
93
330
31
100
AcDbEntity
  8
1
100
AcDbVertex
100
AcDb2dVertex
 10
1763.05126953125
 20
-71.40303039550781
 30
0.0
 70
0
  0
VERTEX
  5
94
330
31
100
AcDbEntity
  8
1
100
AcDbVertex
100
AcDb2dVertex
 10
1693.985595703125
 20
-111.50425720214844
 30
0.0
 70
0
  0
VERTEX
  5
95
330
31
100
AcDbEntity
  8
1
100
AcDbVertex
100
AcDb2dVertex
 10
1569.964599609375
 20
-133.07179260253906
 30
0.0
 70
0
  0
VERTEX
  5
96
330
31
100
AcDbEntity
  8
1
100
AcDbVertex
100
AcDb2dVertex
 10
1487.596923828125
 20
-148.0414276123047
 30
0.0
 70
0
  0
VERTEX
  5
97
330
31
100
AcDbEntity
  8
1
100
AcDbVertex
100
AcDb2dVertex
 10
1405.614013671875
 20
-163.7395477294922
 30
0.0
 70
0
  0
VERTEX
  5
98
330
31
100
AcDbEntity
  8
1
100
AcDbVertex
100
AcDb2dVertex
 10
1324.077392578125
 20
-180.2810821533203
 30
0.0
 70
0
  0
VERTEX
  5
99
330
31
100
AcDbEntity
  8
1
100
AcDbVertex
100
AcDb2dVertex
 10
1243.065673828125
 20
-197.8155059814453
 30
0.0
 70
0
  0
VERTEX
  5
9A
330
31
100
AcDbEntity
  8
1
100
AcDbVertex
100
AcDb2dVertex
 10
1182.7109375
 20
-211.7345428466797
 30
0.0
 70
0
  0
VERTEX
  5
9B
330
31
100
AcDbEntity
  8
1
100
AcDbVertex
100
AcDb2dVertex
 10
1122.760009765625
 20
-226.4312286376953
 30
0.0
 70
0
  0
VERTEX
  5
9C
330
31
100
AcDbEntity
  8
1
100
AcDbVertex
100
AcDb2dVertex
 10
1063.277099609375
 20
-242.03627014160156
 30
0.0
 70
0
  0
VERTEX
  5
9D
330
31
100
AcDbEntity
  8
1
100
AcDbVertex
100
AcDb2dVertex
 10
1043.254150390625
 20
-246.8262481689453
 30
0.0
 70
0
  0
VERTEX
  5
9E
330
31
100
AcDbEntity
  8
1
100
AcDbVertex
100
AcDb2dVertex
 10
978.368896484375
 20
-252.21177673339844
 30
0.0
 70
0
  0
VERTEX
  5
9F
330
31
100
AcDbEntity
  8
1
100
AcDbVertex
100
AcDb2dVertex
 10
935.370361328125
 20
-256.21119689941406
 30
0.0
 70
0
  0
VERTEX
  5
A0
330
31
100
AcDbEntity
  8
1
100
AcDbVertex
100
AcDb2dVertex
 10
871.268310546875
 20
-262.86891174316406
 30
0.0
 70
0
  0
VERTEX
  5
A1
330
31
100
AcDbEntity
  8
1
100
AcDbVertex
100
AcDb2dVertex
 10
828.788330078125
 20
-267.76841735839844
 30
0.0
 70
0
  0
VERTEX
  5
A2
330
31
100
AcDbEntity
  8
1
100
AcDbVertex
100
AcDb2dVertex
 10
765.451416015625
 20
-275.8172149658203
 30
0.0
 70
0
  0
VERTEX
  5
A3
330
31
100
AcDbEntity
  8
1
100
AcDbVertex
100
AcDb2dVertex
 10
723.47802734375
 20
-281.65357971191406
 30
0.0
 70
0
  0
VERTEX
  5
A4
330
31
100
AcDbEntity
  8
1
100
AcDbVertex
100
AcDb2dVertex
 10
640.138916015625
 20
-294.4740753173828
 30
0.0
 70
0
  0
VERTEX
  5
A5
330
31
100
AcDbEntity
  8
1
100
AcDbVertex
100
AcDb2dVertex
 10
578.1668701171875
 20
-305.0996856689453
 30
0.0
 70
0
  0
VERTEX
  5
A6
330
31
100
AcDbEntity
  8
1
100
AcDbVertex
100
AcDb2dVertex
 10
537.1072998046875
 20
-312.6707305908203
 30
0.0
 70
0
  0
VERTEX
  5
A7
330
31
100
AcDbEntity
  8
1
100
AcDbVertex
100
AcDb2dVertex
 10
496.250732421875
 20
-320.62977600097656
 30
0.0
 70
0
  0
VERTEX
  5
A8
330
31
100
AcDbEntity
  8
1
100
AcDbVertex
100
AcDb2dVertex
 10
435.350830078125
 20
-333.30665588378906
 30
0.0
 70
0
  0
VERTEX
  5
A9
330
31
100
AcDbEntity
  8
1
100
AcDbVertex
100
AcDb2dVertex
 10
383.0511474609375
 20
-344.9944305419922
 30
0.0
 70
0
  0
VERTEX
  5
AA
330
31
100
AcDbEntity
  8
1
100
AcDbVertex
100
AcDb2dVertex
 10
334.8865966796875
 20
-356.42784118652344
 30
0.0
 70
0
  0
VERTEX
  5
AB
330
31
100
AcDbEntity
  8
1
100
AcDbVertex
100
AcDb2dVertex
 10
255.4483642578125
 20
-376.7316131591797
 30
0.0
 70
0
  0
VERTEX
  5
AC
330
31
100
AcDbEntity
  8
1
100
AcDbVertex
100
AcDb2dVertex
 10
234.434814453125
 20
-379.60276794433594
 30
0.0
 70
0
  0
VERTEX
  5
AD
330
31
100
AcDbEntity
  8
1
100
AcDbVertex
100
AcDb2dVertex
 10
148.1572265625
 20
-386.84327697753906
 30
0.0
 70
0
  0
VERTEX
  5
AE
330
31
100
AcDbEntity
  8
1
100
AcDbVertex
100
AcDb2dVertex
 10
83.8228759765625
 20
-392.989501953125
 30
0.0
 70
0
  0
VERTEX
  5
AF
330
31
100
AcDbEntity
  8
1
100
AcDbVertex
100
AcDb2dVertex
 10
-22.6768798828125
 20
-404.6246032714844
 30
0.0
 70
0
  0
VERTEX
  5
B0
330
31
100
AcDbEntity
  8
1
100
AcDbVertex
100
AcDb2dVertex
 10
-86.132568359375
 20
-412.45770263671875
 30
0.0
 70
0
  0
VERTEX
  5
B1
330
31
100
AcDbEntity
  8
1
100
AcDbVertex
100
AcDb2dVertex
 10
-149.248046875
 20
-420.9438934326172
 30
0.0
 70
0
  0
VERTEX
  5
B2
330
31
100
AcDbEntity
  8
1
100
AcDbVertex
100
AcDb2dVertex
 10
-253.664794921875
 20
-436.5655975341797
 30
0.0
 70
0
  0
VERTEX
  5
B3
330
31
100
AcDbEntity
  8
1
100
AcDbVertex
100
AcDb2dVertex
 10
-296.18115234375
 20
-443.5135192871094
 30
0.0
 70
0
  0
VERTEX
  5
B4
330
31
100
AcDbEntity
  8
1
100
AcDbVertex
100
AcDb2dVertex
 10
-357.08380126953125
 20
-454.08404541015625
 30
0.0
 70
0
  0
VERTEX
  5
B5
330
31
100
AcDbEntity
  8
1
100
AcDbVertex
100
AcDb2dVertex
 10
-439.07818603515625
 20
-469.5041198730469
 30
0.0
 70
0
  0
VERTEX
  5
B6
330
31
100
AcDbEntity
  8
1
100
AcDbVertex
100
AcDb2dVertex
 10
-520.4419555664062
 20
-486.12841796875
 30
0.0
 70
0
  0
VERTEX
  5
B7
330
31
100
AcDbEntity
  8
1
100
AcDbVertex
100
AcDb2dVertex
 10
-602.5184936523438
 20
-501.4823532104492
 30
0.0
 70
0
  0
VERTEX
  5
B8
330
31
100
AcDbEntity
  8
1
100
AcDbVertex
100
AcDb2dVertex
 10
-663.6822509765625
 20
-513.7421188354492
 30
0.0
 70
0
  0
VERTEX
  5
B9
330
31
100
AcDbEntity
  8
1
100
AcDbVertex
100
AcDb2dVertex
 10
-724.5091552734375
 20
-526.6467514038086
 30
0.0
 70
0
  0
VERTEX
  5
BA
330
31
100
AcDbEntity
  8
1
100
AcDbVertex
100
AcDb2dVertex
 10
-784.9934692382812
 20
-540.2042236328125
 30
0.0
 70
0
  0
SEQEND
  5
35
330
31
100
AcDbEntity
  8
1
  0
POLYLINE
  5
BB
330
31
100
AcDbEntity
  8
8
100
AcDb2dPolyline
 66
1
 70
0
  0
VERTEX
  5
BD
330
31
100
AcDbEntity
  8
8
100
AcDbVertex
100
AcDb2dVertex
 10
2449.280226963346
 20
763.8721464887476
 30
0.0
 70
0
  0
VERTEX
  5
BE
330
31
100
AcDbEntity
  8
8
100
AcDbVertex
100
AcDb2dVertex
 10
2452.1426684838193
 20
758.1814097921299
 30
0.0
 70
0
  0
VERTEX
  5
BF
330
31
100
AcDbEntity
  8
8
100
AcDbVertex
100
AcDb2dVertex
 10
2452.6621702457765
 20
755.3351872646817
 30
0.0
 70
0
  0
VERTEX
  5
C0
330
31
100
AcDbEntity
  8
8
100
AcDbVertex
100
AcDb2dVertex
 10
2451.688120850073
 20
752.4257639579941
 30
0.0
 70
0
  0
VERTEX
  5
C1
330
31
100
AcDbEntity
  8
8
100
AcDbVertex
100
AcDb2dVertex
 10
2450.5184562338045
 20
751.1338444107657
 30
0.0
 70
0
  0
VERTEX
  5
C2
330
31
100
AcDbEntity
  8
8
100
AcDbVertex
100
AcDb2dVertex
 10
2447.3498077308095
 20
749.7689827128065
 30
0.0
 70
0
  0
VERTEX
  5
C3
330
31
100
AcDbEntity
  8
8
100
AcDbVertex
100
AcDb2dVertex
 10
1968.3029522264655
 20
738.5344957158491
 30
0.0
 70
0
  0
VERTEX
  5
C4
330
31
100
AcDbEntity
  8
8
100
AcDbVertex
100
AcDb2dVertex
 10
1241.241697758825
 20
746.7587870041816
 30
0.0
 70
0
  0
VERTEX
  5
C5
330
31
100
AcDbEntity
  8
8
100
AcDbVertex
100
AcDb2dVertex
 10
48.73838841196903
 20
781.1386912414232
 30
0.0
 70
0
  0
VERTEX
  5
C6
330
31
100
AcDbEntity
  8
8
100
AcDbVertex
100
AcDb2dVertex
 10
-1208.7176280530202
 20
818.3030257211585
 30
0.0
 70
0
  0
VERTEX
  5
C7
330
31
100
AcDbEntity
  8
8
100
AcDbVertex
100
AcDb2dVertex
 10
-2020.1723679618635
 20
823.2572364697176
 30
0.0
 70
0
  0
VERTEX
  5
C8
330
31
100
AcDbEntity
  8
8
100
AcDbVertex
100
AcDb2dVertex
 10
-2594.1812229751185
 20
819.0724085318334
 30
0.0
 70
0
  0
VERTEX
  5
C9
330
31
100
AcDbEntity
  8
8
100
AcDbVertex
100
AcDb2dVertex
 10
-2596.5835703028088
 20
819.9815231418138
 30
0.0
 70
0
  0
VERTEX
  5
CA
330
31
100
AcDbEntity
  8
8
100
AcDbVertex
100
AcDb2dVertex
 10
-2598.3841931236557
 20
821.8118979530568
 30
0.0
 70
0
  0
VERTEX
  5
CB
330
31
100
AcDbEntity
  8
8
100
AcDbVertex
100
AcDb2dVertex
 10
-2607.2197240520154
 20
838.8187028499144
 30
0.0
 70
0
  0
SEQEND
  5
BC
330
31
100
AcDbEntity
  8
8
  0
POLYLINE
  5
CC
330
31
100
AcDbEntity
  8
8
100
AcDb2dPolyline
 66
1
 70
0
  0
VERTEX
  5
CE
330
31
100
AcDbEntity
  8
8
100
AcDbVertex
100
AcDb2dVertex
 10
2456.474899961939
 20
764.0005094468595
 30
0.0
 70
0
  0
VERTEX
  5
CF
330
31
100
AcDbEntity
  8
8
100
AcDbVertex
100
AcDb2dVertex
 10
2458.9007661671435
 20
758.3019836403105
 30
0.0
 70
0
  0
VERTEX
  5
D0
330
31
100
AcDbEntity
  8
8
100
AcDbVertex
100
AcDb2dVertex
 10
2459.172647723914
 20
755.4966294359433
 30
0.0
 70
0
  0
VERTEX
  5
D1
330
31
100
AcDbEntity
  8
8
100
AcDbVertex
100
AcDb2dVertex
 10
2458.791050135568
 20
752.6484448617134
 30
0.0
 70
0
  0
VERTEX
  5
D2
330
31
100
AcDbEntity
  8
8
100
AcDbVertex
100
AcDb2dVertex
 10
2457.655593515979
 20
749.7502734082589
 30
0.0
 70
0
  0
VERTEX
  5
D3
330
31
100
AcDbEntity
  8
8
100
AcDbVertex
100
AcDb2dVertex
 10
2455.3964459662593
 20
746.7679001625079
 30
0.0
 70
0
  0
VERTEX
  5
D4
330
31
100
AcDbEntity
  8
8
100
AcDbVertex
100
AcDb2dVertex
 10
2452.6969192172073
 20
744.7986001922472
 30
0.0
 70
0
  0
VERTEX
  5
D5
330
31
100
AcDbEntity
  8
8
100
AcDbVertex
100
AcDb2dVertex
 10
2449.5907821800006
 20
743.5631611608019
 30
0.0
 70
0
  0
VERTEX
  5
D6
330
31
100
AcDbEntity
  8
8
100
AcDbVertex
100
AcDb2dVertex
 10
2442.2542026043375
 20
743.1102376360909
 30
0.0
 70
0
  0
VERTEX
  5
D7
330
31
100
AcDbEntity
  8
8
100
AcDbVertex
100
AcDb2dVertex
 10
1971.6086128079519
 20
732.1103637718379
 30
0.0
 70
0
  0
VERTEX
  5
D8
330
31
100
AcDbEntity
  8
8
100
AcDbVertex
100
AcDb2dVertex
 10
1244.5774664416435
 20
740.2143225224331
 30
0.0
 70
0
  0
VERTEX
  5
D9
330
31
100
AcDbEntity
  8
8
100
AcDbVertex
100
AcDb2dVertex
 10
52.10661581092154
 20
774.5338167312916
 30
0.0
 70
0
  0
VERTEX
  5
DA
330
31
100
AcDbEntity
  8
8
100
AcDbVertex
100
AcDb2dVertex
 10
-794.06229502566
 20
799.3056410648314
 30
0.0
 70
0
  0
VERTEX
  5
DB
330
31
100
AcDbEntity
  8
8
100
AcDbVertex
100
AcDb2dVertex
 10
-1205.350880482684
 20
811.7791854363161
 30
0.0
 70
0
  0
VERTEX
  5
DC
330
31
100
AcDbEntity
  8
8
100
AcDbVertex
100
AcDb2dVertex
 10
-2016.8272911013119
 20
816.7792065542183
 30
0.0
 70
0
  0
VERTEX
  5
DD
330
31
100
AcDbEntity
  8
8
100
AcDbVertex
100
AcDb2dVertex
 10
-2593.721850879133
 20
812.5191651885496
 30
0.0
 70
0
  0
VERTEX
  5
DE
330
31
100
AcDbEntity
  8
8
100
AcDbVertex
100
AcDb2dVertex
 10
-2596.6511524912075
 20
812.966653863775
 30
0.0
 70
0
  0
VERTEX
  5
DF
330
31
100
AcDbEntity
  8
8
100
AcDbVertex
100
AcDb2dVertex
 10
-2599.3923346164574
 20
814.0906546339688
 30
0.0
 70
0
  0
VERTEX
  5
E0
330
31
100
AcDbEntity
  8
8
100
AcDbVertex
100
AcDb2dVertex
 10
-2601.4689252597896
 20
815.5425079458826
 30
0.0
 70
0
  0
VERTEX
  5
E1
330
31
100
AcDbEntity
  8
8
100
AcDbVertex
100
AcDb2dVertex
 10
-2603.2097456262154
 20
817.3804908519162
 30
0.0
 70
0
  0
VERTEX
  5
E2
330
31
100
AcDbEntity
  8
8
100
AcDbVertex
100
AcDb2dVertex
 10
-2614.493696297447
 20
838.761340757259
 30
0.0
 70
0
  0
SEQEND
  5
CD
330
31
100
AcDbEntity
  8
8
  0
POLYLINE
  5
E3
330
31
100
AcDbEntity
  8
8
100
AcDb2dPolyline
 66
1
 70
0
  0
VERTEX
  5
E5
330
31
100
AcDbEntity
  8
8
100
AcDbVertex
100
AcDb2dVertex
 10
-2019.9991550637815
 20
-275.4053275612181
 30
0.0
 70
0
  0
VERTEX
  5
E6
330
31
100
AcDbEntity
  8
8
100
AcDbVertex
100
AcDb2dVertex
 10
-1498.1558602069854
 20
-175.08750647805414
 30
0.0
 70
0
  0
VERTEX
  5
E7
330
31
100
AcDbEntity
  8
8
100
AcDbVertex
100
AcDb2dVertex
 10
-1492.130597572314
 20
-174.19511603598204
 30
0.0
 70
0
  0
SEQEND
  5
E4
330
31
100
AcDbEntity
  8
8
  0
POLYLINE
  5
E8
330
31
100
AcDbEntity
  8
8
100
AcDb2dPolyline
 66
1
 70
0
  0
VERTEX
  5
EA
330
31
100
AcDbEntity
  8
8
100
AcDbVertex
100
AcDb2dVertex
 10
-1492.130597572314
 20
-174.19511603598204
 30
0.0
 70
0
  0
VERTEX
  5
EB
330
31
100
AcDbEntity
  8
8
100
AcDbVertex
100
AcDb2dVertex
 10
-1477.4884534255016
 20
-171.38926857108947
 30
0.0
 70
0
  0
VERTEX
  5
EC
330
31
100
AcDbEntity
  8
8
100
AcDbVertex
100
AcDb2dVertex
 10
-1031.3902957527253
 20
-94.04053313057261
 30
0.0
 70
0
  0
VERTEX
  5
ED
330
31
100
AcDbEntity
  8
8
100
AcDbVertex
100
AcDb2dVertex
 10
-756.5879805513188
 20
-46.557473516204595
 30
0.0
 70
0
  0
VERTEX
  5
EE
330
31
100
AcDbEntity
  8
8
100
AcDbVertex
100
AcDb2dVertex
 10
-747.5588271704922
 20
-45.34292278878718
 30
0.0
 70
0
  0
SEQEND
  5
E9
330
31
100
AcDbEntity
  8
8
  0
POLYLINE
  5
EF
330
31
100
AcDbEntity
  8
8
100
AcDb2dPolyline
 66
1
 70
0
  0
VERTEX
  5
F1
330
31
100
AcDbEntity
  8
8
100
AcDbVertex
100
AcDb2dVertex
 10
-747.5588271704922
 20
-45.34292278878718
 30
0.0
 70
0
  0
VERTEX
  5
F2
330
31
100
AcDbEntity
  8
8
100
AcDbVertex
100
AcDb2dVertex
 10
-720.8581961842508
 20
-43.07641349691869
 30
0.0
 70
0
  0
VERTEX
  5
F3
330
31
100
AcDbEntity
  8
8
100
AcDbVertex
100
AcDb2dVertex
 10
46.56603403197869
 20
11.998951640711539
 30
0.0
 70
0
  0
SEQEND
  5
F0
330
31
100
AcDbEntity
  8
8
  0
POLYLINE
  5
F4
330
31
100
AcDbEntity
  8
8
100
AcDb2dPolyline
 66
1
 70
0
  0
VERTEX
  5
F6
330
31
100
AcDbEntity
  8
8
100
AcDbVertex
100
AcDb2dVertex
 10
46.56603403197869
 20
11.998951640711539
 30
0.0
 70
0
  0
VERTEX
  5
F7
330
31
100
AcDbEntity
  8
8
100
AcDbVertex
100
AcDb2dVertex
 10
923.9844615696998
 20
-7.039888214131452
 30
0.0
 70
0
  0
SEQEND
  5
F5
330
31
100
AcDbEntity
  8
8
  0
POLYLINE
  5
F8
330
31
100
AcDbEntity
  8
8
100
AcDb2dPolyline
 66
1
 70
0
  0
VERTEX
  5
FA
330
31
100
AcDbEntity
  8
8
100
AcDbVertex
100
AcDb2dVertex
 10
923.9844615696998
 20
-7.039888214131452
 30
0.0
 70
0
  0
VERTEX
  5
FB
330
31
100
AcDbEntity
  8
8
100
AcDbVertex
100
AcDb2dVertex
 10
1630.2570532808327
 20
6.911779213774253
 30
0.0
 70
0
  0
VERTEX
  5
FC
330
31
100
AcDbEntity
  8
8
100
AcDbVertex
100
AcDb2dVertex
 10
1633.0869960042728
 20
7.277923536375965
 30
0.0
 70
0
  0
SEQEND
  5
F9
330
31
100
AcDbEntity
  8
8
  0
POLYLINE
  5
FD
330
31
100
AcDbEntity
  8
8
100
AcDb2dPolyline
 66
1
 70
0
  0
VERTEX
  5
FF
330
31
100
AcDbEntity
  8
8
100
AcDbVertex
100
AcDb2dVertex
 10
1633.0869960042728
 20
7.277923536375965
 30
0.0
 70
0
  0
VERTEX
  5
100
330
31
100
AcDbEntity
  8
8
100
AcDbVertex
100
AcDb2dVertex
 10
1695.8734306714932
 20
36.08544232462043
 30
0.0
 70
0
  0
VERTEX
  5
101
330
31
100
AcDbEntity
  8
8
100
AcDbVertex
100
AcDb2dVertex
 10
2202.2237100581756
 20
271.8013385677492
 30
0.0
 70
0
  0
VERTEX
  5
102
330
31
100
AcDbEntity
  8
8
100
AcDbVertex
100
AcDb2dVertex
 10
2210.3693153285744
 20
275.6454335468901
 30
0.0
 70
0
  0
VERTEX
  5
103
330
31
100
AcDbEntity
  8
8
100
AcDbVertex
100
AcDb2dVertex
 10
2212.879452457015
 20
277.3271715438784
 30
0.0
 70
0
  0
SEQEND
  5
FE
330
31
100
AcDbEntity
  8
8
  0
POLYLINE
  5
104
330
31
100
AcDbEntity
  8
8
100
AcDb2dPolyline
 66
1
 70
0
  0
VERTEX
  5
106
330
31
100
AcDbEntity
  8
8
100
AcDbVertex
100
AcDb2dVertex
 10
2212.879452457015
 20
277.3271715438784
 30
0.0
 70
0
  0
VERTEX
  5
107
330
31
100
AcDbEntity
  8
8
100
AcDbVertex
100
AcDb2dVertex
 10
2239.3209723032123
 20
291.84941965665917
 30
0.0
 70
0
  0
VERTEX
  5
108
330
31
100
AcDbEntity
  8
8
100
AcDbVertex
100
AcDb2dVertex
 10
2585.1713580434307
 20
489.3198076940437
 30
0.0
 70
0
  0
SEQEND
  5
105
330
31
100
AcDbEntity
  8
8
  0
POLYLINE
  5
109
330
31
100
AcDbEntity
  8
8
100
AcDb2dPolyline
 66
1
 70
0
  0
VERTEX
  5
10B
330
31
100
AcDbEntity
  8
8
100
AcDbVertex
100
AcDb2dVertex
 10
-1928.3058289001933
 20
-194.58560384417848
 30
0.0
 70
0
  0
VERTEX
  5
10C
330
31
100
AcDbEntity
  8
8
100
AcDbVertex
100
AcDb2dVertex
 10
-1900.6597555353344
 20
-283.5757325549455
 30
0.0
 70
0
  0
VERTEX
  5
10D
330
31
100
AcDbEntity
  8
8
100
AcDbVertex
100
AcDb2dVertex
 10
-1883.7319029642504
 20
-335.0181337848189
 30
0.0
 70
0
  0
VERTEX
  5
10E
330
31
100
AcDbEntity
  8
8
100
AcDbVertex
100
AcDb2dVertex
 10
-1869.6516275053739
 20
-373.5995126482354
 30
0.0
 70
0
  0
VERTEX
  5
10F
330
31
100
AcDbEntity
  8
8
100
AcDbVertex
100
AcDb2dVertex
 10
-1850.479978692933
 20
-420.91829248378895
 30
0.0
 70
0
  0
VERTEX
  5
110
330
31
100
AcDbEntity
  8
8
100
AcDbVertex
100
AcDb2dVertex
 10
-1821.9039351773854
 20
-486.1813691042528
 30
0.0
 70
0
  0
VERTEX
  5
111
330
31
100
AcDbEntity
  8
8
100
AcDbVertex
100
AcDb2dVertex
 10
-1785.5305671545652
 20
-565.0688520837557
 30
0.0
 70
0
  0
VERTEX
  5
112
330
31
100
AcDbEntity
  8
8
100
AcDbVertex
100
AcDb2dVertex
 10
-1736.2645122449605
 20
-669.0157350329926
 30
0.0
 70
0
  0
VERTEX
  5
113
330
31
100
AcDbEntity
  8
8
100
AcDbVertex
100
AcDb2dVertex
 10
-1671.1340384905725
 20
-804.1587482509497
 30
0.0
 70
0
  0
SEQEND
  5
10A
330
31
100
AcDbEntity
  8
8
  0
POLYLINE
  5
114
330
31
100
AcDbEntity
  8
8
100
AcDb2dPolyline
 66
1
 70
0
  0
VERTEX
  5
116
330
31
100
AcDbEntity
  8
8
100
AcDbVertex
100
AcDb2dVertex
 10
-1237.001925046798
 20
-654.2147475347158
 30
0.0
 70
0
  0
VERTEX
  5
117
330
31
100
AcDbEntity
  8
8
100
AcDbVertex
100
AcDb2dVertex
 10
-1422.9470890305086
 20
-328.30593726342147
 30
0.0
 70
0
  0
VERTEX
  5
118
330
31
100
AcDbEntity
  8
8
100
AcDbVertex
100
AcDb2dVertex
 10
-1553.02799396279
 20
-97.61278466502029
 30
0.0
 70
0
  0
VERTEX
  5
119
330
31
100
AcDbEntity
  8
8
100
AcDbVertex
100
AcDb2dVertex
 10
-2044.8262364351463
 20
781.6702805084094
 30
0.0
 70
0
  0
VERTEX
  5
11A
330
31
100
AcDbEntity
  8
8
100
AcDbVertex
100
AcDb2dVertex
 10
-2088.411391354147
 20
860.6648960652903
 30
0.0
 70
0
  0
SEQEND
  5
115
330
31
100
AcDbEntity
  8
8
  0
POLYLINE
  5
11B
330
31
100
AcDbEntity
  8
8
100
AcDb2dPolyline
 66
1
 70
0
  0
VERTEX
  5
11D
330
31
100
AcDbEntity
  8
8
100
AcDbVertex
100
AcDb2dVertex
 10
-520.0027947863786
 20
-474.31709658967765
 30
0.0
 70
0
  0
VERTEX
  5
11E
330
31
100
AcDbEntity
  8
8
100
AcDbVertex
100
AcDb2dVertex
 10
-714.7920940146222
 20
-146.675911684756
 30
0.0
 70
0
  0
VERTEX
  5
11F
330
31
100
AcDbEntity
  8
8
100
AcDbVertex
100
AcDb2dVertex
 10
-870.7241950647865
 20
116.93673396661427
 30
0.0
 70
0
  0
VERTEX
  5
120
330
31
100
AcDbEntity
  8
8
100
AcDbVertex
100
AcDb2dVertex
 10
-1261.5104444467472
 20
780.3582146911599
 30
0.0
 70
0
  0
VERTEX
  5
121
330
31
100
AcDbEntity
  8
8
100
AcDbVertex
100
AcDb2dVertex
 10
-1302.1787611917925
 20
850.7429073017574
 30
0.0
 70
0
  0
SEQEND
  5
11C
330
31
100
AcDbEntity
  8
8
  0
POLYLINE
  5
122
330
31
100
AcDbEntity
  8
8
100
AcDb2dPolyline
 66
1
 70
0
  0
VERTEX
  5
124
330
31
100
AcDbEntity
  8
8
100
AcDbVertex
100
AcDb2dVertex
 10
246.78783005169794
 20
-366.5511951749895
 30
0.0
 70
0
  0
VERTEX
  5
125
330
31
100
AcDbEntity
  8
8
100
AcDbVertex
100
AcDb2dVertex
 10
-412.23985787393417
 20
676.6573107142669
 30
0.0
 70
0
  0
VERTEX
  5
126
330
31
100
AcDbEntity
  8
8
100
AcDbVertex
100
AcDb2dVertex
 10
-482.50816977360785
 20
788.5020482483997
 30
0.0
 70
0
  0
VERTEX
  5
127
330
31
100
AcDbEntity
  8
8
100
AcDbVertex
100
AcDb2dVertex
 10
-507.8753635588072
 20
830.1601358509217
 30
0.0
 70
0
  0
SEQEND
  5
123
330
31
100
AcDbEntity
  8
8
  0
POLYLINE
  5
128
330
31
100
AcDbEntity
  8
8
100
AcDb2dPolyline
 66
1
 70
0
  0
VERTEX
  5
12A
330
31
100
AcDbEntity
  8
8
100
AcDbVertex
100
AcDb2dVertex
 10
1044.6381338845536
 20
-234.5206943717697
 30
0.0
 70
0
  0
VERTEX
  5
12B
330
31
100
AcDbEntity
  8
8
100
AcDbVertex
100
AcDb2dVertex
 10
477.3061285145452
 20
636.8598642518532
 30
0.0
 70
0
  0
VERTEX
  5
12C
330
31
100
AcDbEntity
  8
8
100
AcDbVertex
100
AcDb2dVertex
 10
407.232468589792
 20
745.1551919931862
 30
0.0
 70
0
  0
VERTEX
  5
12D
330
31
100
AcDbEntity
  8
8
100
AcDbVertex
100
AcDb2dVertex
 10
373.3637966206345
 20
799.2629008385543
 30
0.0
 70
0
  0
SEQEND
  5
129
330
31
100
AcDbEntity
  8
8
  0
POLYLINE
  5
12E
330
31
100
AcDbEntity
  8
8
100
AcDb2dPolyline
 66
1
 70
0
  0
VERTEX
  5
130
330
31
100
AcDbEntity
  8
8
100
AcDbVertex
100
AcDb2dVertex
 10
1689.8784327301887
 20
-99.95284330100037
 30
0.0
 70
0
  0
VERTEX
  5
131
330
31
100
AcDbEntity
  8
8
100
AcDbVertex
100
AcDb2dVertex
 10
1129.550174031106
 20
673.1000046969768
 30
0.0
 70
0
  0
VERTEX
  5
132
330
31
100
AcDbEntity
  8
8
100
AcDbVertex
100
AcDb2dVertex
 10
1089.2626079601491
 20
729.0344786388757
 30
0.0
 70
0
  0
VERTEX
  5
133
330
31
100
AcDbEntity
  8
8
100
AcDbVertex
100
AcDb2dVertex
 10
1056.3367502716474
 20
776.2531075886066
 30
0.0
 70
0
  0
SEQEND
  5
12F
330
31
100
AcDbEntity
  8
8
  0
POLYLINE
  5
134
330
31
100
AcDbEntity
  8
8
100
AcDb2dPolyline
 66
1
 70
0
  0
VERTEX
  5
136
330
31
100
AcDbEntity
  8
8
100
AcDbVertex
100
AcDb2dVertex
 10
2269.278922069476
 20
170.3048194870862
 30
0.0
 70
0
  0
VERTEX
  5
137
330
31
100
AcDbEntity
  8
8
100
AcDbVertex
100
AcDb2dVertex
 10
1641.7385451579444
 20
694.5057695812229
 30
0.0
 70
0
  0
VERTEX
  5
138
330
31
100
AcDbEntity
  8
8
100
AcDbVertex
100
AcDb2dVertex
 10
1586.660513149152
 20
740.8896405138964
 30
0.0
 70
0
  0
VERTEX
  5
139
330
31
100
AcDbEntity
  8
8
100
AcDbVertex
100
AcDb2dVertex
 10
1556.913147457789
 20
766.6161444189033
 30
0.0
 70
0
  0
SEQEND
  5
135
330
31
100
AcDbEntity
  8
8
  0
POLYLINE
  5
13A
330
31
100
AcDbEntity
  8
8
100
AcDb2dPolyline
 66
1
 70
0
  0
VERTEX
  5
13C
330
31
100
AcDbEntity
  8
8
100
AcDbVertex
100
AcDb2dVertex
 10
2590.4379487138917
 20
479.20756739669264
 30
0.0
 70
0
  0
VERTEX
  5
13D
330
31
100
AcDbEntity
  8
8
100
AcDbVertex
100
AcDb2dVertex
 10
2399.5497249883965
 20
585.9215696005929
 30
0.0
 70
0
  0
VERTEX
  5
13E
330
31
100
AcDbEntity
  8
8
100
AcDbVertex
100
AcDb2dVertex
 10
2142.926690142571
 20
728.2630849301001
 30
0.0
 70
0
  0
VERTEX
  5
13F
330
31
100
AcDbEntity
  8
8
100
AcDbVertex
100
AcDb2dVertex
 10
2082.9229542655817
 20
762.2313667311714
 30
0.0
 70
0
  0
SEQEND
  5
13B
330
31
100
AcDbEntity
  8
8
  0
POLYLINE
  5
140
330
31
100
AcDbEntity
  8
8
100
AcDb2dPolyline
 66
1
 70
0
  0
VERTEX
  5
142
330
31
100
AcDbEntity
  8
8
100
AcDbVertex
100
AcDb2dVertex
 10
-1728.2505109825292
 20
-823.976329450914
 30
0.0
 70
0
  0
VERTEX
  5
143
330
31
100
AcDbEntity
  8
8
100
AcDbVertex
100
AcDb2dVertex
 10
-1699.5546524409117
 20
-808.4253861118805
 30
0.0
 70
0
  0
VERTEX
  5
144
330
31
100
AcDbEntity
  8
8
100
AcDbVertex
100
AcDb2dVertex
 10
-1665.0278664215496
 20
-790.9657138709273
 30
0.0
 70
0
  0
VERTEX
  5
145
330
31
100
AcDbEntity
  8
8
100
AcDbVertex
100
AcDb2dVertex
 10
-1626.7721700942407
 20
-773.094378070441
 30
0.0
 70
0
  0
VERTEX
  5
146
330
31
100
AcDbEntity
  8
8
100
AcDbVertex
100
AcDb2dVertex
 10
-1592.5538153186458
 20
-758.3183653346439
 30
0.0
 70
0
  0
VERTEX
  5
147
330
31
100
AcDbEntity
  8
8
100
AcDbVertex
100
AcDb2dVertex
 10
-1554.6122784477473
 20
-743.1223586389215
 30
0.0
 70
0
  0
VERTEX
  5
148
330
31
100
AcDbEntity
  8
8
100
AcDbVertex
100
AcDb2dVertex
 10
-1521.1822160515503
 20
-730.7036526586393
 30
0.0
 70
0
  0
VERTEX
  5
149
330
31
100
AcDbEntity
  8
8
100
AcDbVertex
100
AcDb2dVertex
 10
-1481.1284972288472
 20
-716.9088201765396
 30
0.0
 70
0
  0
VERTEX
  5
14A
330
31
100
AcDbEntity
  8
8
100
AcDbVertex
100
AcDb2dVertex
 10
-1442.91389169554
 20
-704.7806719625653
 30
0.0
 70
0
  0
VERTEX
  5
14B
330
31
100
AcDbEntity
  8
8
100
AcDbVertex
100
AcDb2dVertex
 10
-1391.4681377665725
 20
-689.8975246471323
 30
0.0
 70
0
  0
VERTEX
  5
14C
330
31
100
AcDbEntity
  8
8
100
AcDbVertex
100
AcDb2dVertex
 10
-1335.1836337858817
 20
-675.3313332406254
 30
0.0
 70
0
  0
VERTEX
  5
14D
330
31
100
AcDbEntity
  8
8
100
AcDbVertex
100
AcDb2dVertex
 10
-1277.0042722232217
 20
-662.0491216454028
 30
0.0
 70
0
  0
VERTEX
  5
14E
330
31
100
AcDbEntity
  8
8
100
AcDbVertex
100
AcDb2dVertex
 10
-1243.8709528541644
 20
-655.2137551296486
 30
0.0
 70
0
  0
VERTEX
  5
14F
330
31
100
AcDbEntity
  8
8
100
AcDbVertex
100
AcDb2dVertex
 10
-1237.001925046798
 20
-654.2147475347158
 30
0.0
 70
0
  0
VERTEX
  5
150
330
31
100
AcDbEntity
  8
8
100
AcDbVertex
100
AcDb2dVertex
 10
-1223.0190507929638
 20
-649.2241828458081
 30
0.0
 70
0
  0
VERTEX
  5
151
330
31
100
AcDbEntity
  8
8
100
AcDbVertex
100
AcDb2dVertex
 10
-1174.6206116529274
 20
-633.6344282153843
 30
0.0
 70
0
  0
VERTEX
  5
152
330
31
100
AcDbEntity
  8
8
100
AcDbVertex
100
AcDb2dVertex
 10
-1099.7827260904317
 20
-610.6707186384152
 30
0.0
 70
0
  0
VERTEX
  5
153
330
31
100
AcDbEntity
  8
8
100
AcDbVertex
100
AcDb2dVertex
 10
-1021.0418975989137
 20
-587.9141783289925
 30
0.0
 70
0
  0
VERTEX
  5
154
330
31
100
AcDbEntity
  8
8
100
AcDbVertex
100
AcDb2dVertex
 10
-950.1591341902335
 20
-568.6454882327993
 30
0.0
 70
0
  0
VERTEX
  5
155
330
31
100
AcDbEntity
  8
8
100
AcDbVertex
100
AcDb2dVertex
 10
-890.4637394679794
 20
-553.2516297792281
 30
0.0
 70
0
  0
VERTEX
  5
156
330
31
100
AcDbEntity
  8
8
100
AcDbVertex
100
AcDb2dVertex
 10
-827.167175588368
 20
-537.7533491872072
 30
0.0
 70
0
  0
VERTEX
  5
157
330
31
100
AcDbEntity
  8
8
100
AcDbVertex
100
AcDb2dVertex
 10
-769.3530623236363
 20
-524.3185638212951
 30
0.0
 70
0
  0
VERTEX
  5
158
330
31
100
AcDbEntity
  8
8
100
AcDbVertex
100
AcDb2dVertex
 10
-701.7704305766102
 20
-509.444792426322
 30
0.0
 70
0
  0
VERTEX
  5
159
330
31
100
AcDbEntity
  8
8
100
AcDbVertex
100
AcDb2dVertex
 10
-595.9388652393321
 20
-487.9654541440633
 30
0.0
 70
0
  0
VERTEX
  5
15A
330
31
100
AcDbEntity
  8
8
100
AcDbVertex
100
AcDb2dVertex
 10
-526.5653080850939
 20
-475.0329296994049
 30
0.0
 70
0
  0
VERTEX
  5
15B
330
31
100
AcDbEntity
  8
8
100
AcDbVertex
100
AcDb2dVertex
 10
-520.0027947863786
 20
-474.31709658967765
 30
0.0
 70
0
  0
VERTEX
  5
15C
330
31
100
AcDbEntity
  8
8
100
AcDbVertex
100
AcDb2dVertex
 10
-505.54250371815294
 20
-470.77789285985324
 30
0.0
 70
0
  0
VERTEX
  5
15D
330
31
100
AcDbEntity
  8
8
100
AcDbVertex
100
AcDb2dVertex
 10
-473.0745384803938
 20
-464.0643829675535
 30
0.0
 70
0
  0
VERTEX
  5
15E
330
31
100
AcDbEntity
  8
8
100
AcDbVertex
100
AcDb2dVertex
 10
-395.4558107283773
 20
-448.9026091872471
 30
0.0
 70
0
  0
VERTEX
  5
15F
330
31
100
AcDbEntity
  8
8
100
AcDbVertex
100
AcDb2dVertex
 10
-304.3288694715602
 20
-432.7089508722749
 30
0.0
 70
0
  0
VERTEX
  5
160
330
31
100
AcDbEntity
  8
8
100
AcDbVertex
100
AcDb2dVertex
 10
-208.41988831471713
 20
-417.4083840335501
 30
0.0
 70
0
  0
VERTEX
  5
161
330
31
100
AcDbEntity
  8
8
100
AcDbVertex
100
AcDb2dVertex
 10
-104.37937395087579
 20
-402.7172092973213
 30
0.0
 70
0
  0
VERTEX
  5
162
330
31
100
AcDbEntity
  8
8
100
AcDbVertex
100
AcDb2dVertex
 10
-43.55445151527647
 20
-395.0323140030639
 30
0.0
 70
0
  0
VERTEX
  5
163
330
31
100
AcDbEntity
  8
8
100
AcDbVertex
100
AcDb2dVertex
 10
14.67701117937554
 20
-388.25228015050936
 30
0.0
 70
0
  0
VERTEX
  5
164
330
31
100
AcDbEntity
  8
8
100
AcDbVertex
100
AcDb2dVertex
 10
76.79328460972192
 20
-381.63485339191266
 30
0.0
 70
0
  0
VERTEX
  5
165
330
31
100
AcDbEntity
  8
8
100
AcDbVertex
100
AcDb2dVertex
 10
129.6129605341439
 20
-376.4843833981719
 30
0.0
 70
0
  0
VERTEX
  5
166
330
31
100
AcDbEntity
  8
8
100
AcDbVertex
100
AcDb2dVertex
 10
246.78783005169794
 20
-366.5511951749895
 30
0.0
 70
0
  0
VERTEX
  5
167
330
31
100
AcDbEntity
  8
8
100
AcDbVertex
100
AcDb2dVertex
 10
299.7231588589257
 20
-352.7935972812588
 30
0.0
 70
0
  0
VERTEX
  5
168
330
31
100
AcDbEntity
  8
8
100
AcDbVertex
100
AcDb2dVertex
 10
359.0671592037904
 20
-338.24903759294233
 30
0.0
 70
0
  0
VERTEX
  5
169
330
31
100
AcDbEntity
  8
8
100
AcDbVertex
100
AcDb2dVertex
 10
409.98861609484857
 20
-326.5793809797012
 30
0.0
 70
0
  0
VERTEX
  5
16A
330
31
100
AcDbEntity
  8
8
100
AcDbVertex
100
AcDb2dVertex
 10
461.3234001993558
 20
-315.505501704126
 30
0.0
 70
0
  0
VERTEX
  5
16B
330
31
100
AcDbEntity
  8
8
100
AcDbVertex
100
AcDb2dVertex
 10
516.1567418041423
 20
-304.4638520097294
 30
0.0
 70
0
  0
VERTEX
  5
16C
330
31
100
AcDbEntity
  8
8
100
AcDbVertex
100
AcDb2dVertex
 10
562.2153233247814
 20
-295.77899606163703
 30
0.0
 70
0
  0
VERTEX
  5
16D
330
31
100
AcDbEntity
  8
8
100
AcDbVertex
100
AcDb2dVertex
 10
617.933330004741
 20
-285.9945088031741
 30
0.0
 70
0
  0
VERTEX
  5
16E
330
31
100
AcDbEntity
  8
8
100
AcDbVertex
100
AcDb2dVertex
 10
664.7293526178173
 20
-278.3548894490262
 30
0.0
 70
0
  0
VERTEX
  5
16F
330
31
100
AcDbEntity
  8
8
100
AcDbVertex
100
AcDb2dVertex
 10
705.5626872640896
 20
-272.12711536384677
 30
0.0
 70
0
  0
VERTEX
  5
170
330
31
100
AcDbEntity
  8
8
100
AcDbVertex
100
AcDb2dVertex
 10
759.3471845716763
 20
-264.5302591884715
 30
0.0
 70
0
  0
VERTEX
  5
171
330
31
100
AcDbEntity
  8
8
100
AcDbVertex
100
AcDb2dVertex
 10
842.4371573411272
 20
-254.06942301423328
 30
0.0
 70
0
  0
VERTEX
  5
172
330
31
100
AcDbEntity
  8
8
100
AcDbVertex
100
AcDb2dVertex
 10
933.0698008093473
 20
-244.38250897122367
 30
0.0
 70
0
  0
VERTEX
  5
173
330
31
100
AcDbEntity
  8
8
100
AcDbVertex
100
AcDb2dVertex
 10
1044.6381338845536
 20
-234.5206943717697
 30
0.0
 70
0
  0
VERTEX
  5
174
330
31
100
AcDbEntity
  8
8
100
AcDbVertex
100
AcDb2dVertex
 10
1109.2709789242413
 20
-217.4749591206666
 30
0.0
 70
0
  0
VERTEX
  5
175
330
31
100
AcDbEntity
  8
8
100
AcDbVertex
100
AcDb2dVertex
 10
1184.4900881965532
 20
-198.96784891868316
 30
0.0
 70
0
  0
VERTEX
  5
176
330
31
100
AcDbEntity
  8
8
100
AcDbVertex
100
AcDb2dVertex
 10
1245.6191119503624
 20
-184.9293226054022
 30
0.0
 70
0
  0
VERTEX
  5
177
330
31
100
AcDbEntity
  8
8
100
AcDbVertex
100
AcDb2dVertex
 10
1325.4477690860217
 20
-167.71776594480002
 30
0.0
 70
0
  0
VERTEX
  5
178
330
31
100
AcDbEntity
  8
8
100
AcDbVertex
100
AcDb2dVertex
 10
1407.323880273516
 20
-151.15555509019413
 30
0.0
 70
0
  0
VERTEX
  5
179
330
31
100
AcDbEntity
  8
8
100
AcDbVertex
100
AcDb2dVertex
 10
1490.6819979052948
 20
-135.2433128485206
 30
0.0
 70
0
  0
VERTEX
  5
17A
330
31
100
AcDbEntity
  8
8
100
AcDbVertex
100
AcDb2dVertex
 10
1596.7072605994322
 20
-116.16993503214383
 30
0.0
 70
0
  0
VERTEX
  5
17B
330
31
100
AcDbEntity
  8
8
100
AcDbVertex
100
AcDb2dVertex
 10
1686.2400650200539
 20
-100.93388044302674
 30
0.0
 70
0
  0
VERTEX
  5
17C
330
31
100
AcDbEntity
  8
8
100
AcDbVertex
100
AcDb2dVertex
 10
1689.8784327301887
 20
-99.95284330100037
 30
0.0
 70
0
  0
VERTEX
  5
17D
330
31
100
AcDbEntity
  8
8
100
AcDbVertex
100
AcDb2dVertex
 10
1763.5793259772563
 20
-57.32348940180259
 30
0.0
 70
0
  0
VERTEX
  5
17E
330
31
100
AcDbEntity
  8
8
100
AcDbVertex
100
AcDb2dVertex
 10
1801.316544286056
 20
-36.40374417877479
 30
0.0
 70
0
  0
VERTEX
  5
17F
330
31
100
AcDbEntity
  8
8
100
AcDbVertex
100
AcDb2dVertex
 10
1832.0114190755262
 20
-20.00867850626844
 30
0.0
 70
0
  0
VERTEX
  5
180
330
31
100
AcDbEntity
  8
8
100
AcDbVertex
100
AcDb2dVertex
 10
1870.9534470519475
 20
0.16617735268584966
 30
0.0
 70
0
  0
VERTEX
  5
181
330
31
100
AcDbEntity
  8
8
100
AcDbVertex
100
AcDb2dVertex
 10
1899.9566581230297
 20
14.659854500384654
 30
0.0
 70
0
  0
VERTEX
  5
182
330
31
100
AcDbEntity
  8
8
100
AcDbVertex
100
AcDb2dVertex
 10
1961.6947882882587
 20
44.3690091831113
 30
0.0
 70
0
  0
VERTEX
  5
183
330
31
100
AcDbEntity
  8
8
100
AcDbVertex
100
AcDb2dVertex
 10
2000.0580016486283
 20
61.95018213630942
 30
0.0
 70
0
  0
VERTEX
  5
184
330
31
100
AcDbEntity
  8
8
100
AcDbVertex
100
AcDb2dVertex
 10
2036.1905162080006
 20
77.97298170427894
 30
0.0
 70
0
  0
VERTEX
  5
185
330
31
100
AcDbEntity
  8
8
100
AcDbVertex
100
AcDb2dVertex
 10
2101.361565560027
 20
105.53054296644518
 30
0.0
 70
0
  0
VERTEX
  5
186
330
31
100
AcDbEntity
  8
8
100
AcDbVertex
100
AcDb2dVertex
 10
2173.9414572353744
 20
134.44804923065726
 30
0.0
 70
0
  0
VERTEX
  5
187
330
31
100
AcDbEntity
  8
8
100
AcDbVertex
100
AcDb2dVertex
 10
2218.3605036521635
 20
151.28073025047922
 30
0.0
 70
0
  0
VERTEX
  5
188
330
31
100
AcDbEntity
  8
8
100
AcDbVertex
100
AcDb2dVertex
 10
2266.499771586498
 20
168.7355927588062
 30
0.0
 70
0
  0
VERTEX
  5
189
330
31
100
AcDbEntity
  8
8
100
AcDbVertex
100
AcDb2dVertex
 10
2269.278922069476
 20
170.3048194870862
 30
0.0
 70
0
  0
VERTEX
  5
18A
330
31
100
AcDbEntity
  8
8
100
AcDbVertex
100
AcDb2dVertex
 10
2313.3259532863535
 20
219.59694224123257
 30
0.0
 70
0
  0
VERTEX
  5
18B
330
31
100
AcDbEntity
  8
8
100
AcDbVertex
100
AcDb2dVertex
 10
2345.542082497484
 20
254.26135027475186
 30
0.0
 70
0
  0
VERTEX
  5
18C
330
31
100
AcDbEntity
  8
8
100
AcDbVertex
100
AcDb2dVertex
 10
2374.9246435923196
 20
284.5846069388381
 30
0.0
 70
0
  0
VERTEX
  5
18D
330
31
100
AcDbEntity
  8
8
100
AcDbVertex
100
AcDb2dVertex
 10
2421.096446703677
 20
330.0363045151573
 30
0.0
 70
0
  0
VERTEX
  5
18E
330
31
100
AcDbEntity
  8
8
100
AcDbVertex
100
AcDb2dVertex
 10
2453.2772547177633
 20
360.3123470198516
 30
0.0
 70
0
  0
VERTEX
  5
18F
330
31
100
AcDbEntity
  8
8
100
AcDbVertex
100
AcDb2dVertex
 10
2503.6393076588847
 20
405.7011228699531
 30
0.0
 70
0
  0
VERTEX
  5
190
330
31
100
AcDbEntity
  8
8
100
AcDbVertex
100
AcDb2dVertex
 10
2543.646928426165
 20
440.3461782369552
 30
0.0
 70
0
  0
VERTEX
  5
191
330
31
100
AcDbEntity
  8
8
100
AcDbVertex
100
AcDb2dVertex
 10
2590.4379487138917
 20
479.20756739669264
 30
0.0
 70
0
  0
SEQEND
  5
141
330
31
100
AcDbEntity
  8
8
  0
ENDBLK
  5
33
330
31
100
AcDbEntity
  8
0
100
AcDbBlockEnd
  0
BLOCK
  5
195
330
194
100
AcDbEntity
  8
0
100
AcDbBlockBegin
  2
LE
 70
0
 10
0.0
 20
0.0
 30
0.0
  3
LE
  1

  0
POLYLINE
  5
197
330
194
100
AcDbEntity
  8
1
100
AcDb2dPolyline
 66
1
 70
0
  0
VERTEX
  5
199
330
194
100
AcDbEntity
  8
1
100
AcDbVertex
100
AcDb2dVertex
 10
1256.977783203125
 20
25.7301025390625
 30
0.0
 70
0
  0
VERTEX
  5
19A
330
194
100
AcDbEntity
  8
1
100
AcDbVertex
100
AcDb2dVertex
 10
684.5048828125
 20
-20.5013427734375
 30
0.0
 70
0
  0
VERTEX
  5
19B
330
194
100
AcDbEntity
  8
1
100
AcDbVertex
100
AcDb2dVertex
 10
592.95458984375
 20
-27.3072509765625
 30
0.0
 70
0
  0
VERTEX
  5
19C
330
194
100
AcDbEntity
  8
1
100
AcDbVertex
100
AcDb2dVertex
 10
-206.9139404296875
 20
-83.6998291015625
 30
0.0
 70
0
  0
VERTEX
  5
19D
330
194
100
AcDbEntity
  8
1
100
AcDbVertex
100
AcDb2dVertex
 10
-1051.5872192382812
 20
-139.0946044921875
 30
0.0
 70
0
  0
VERTEX
  5
19E
330
194
100
AcDbEntity
  8
1
100
AcDbVertex
100
AcDb2dVertex
 10
-1860.1275634765625
 20
-213.1424560546875
 30
0.0
 70
0
  0
VERTEX
  5
19F
330
194
100
AcDbEntity
  8
1
100
AcDbVertex
100
AcDb2dVertex
 10
-2430.7920532226562
 20
-275.3409423828125
 30
0.0
 70
0
  0
VERTEX
  5
1A0
330
194
100
AcDbEntity
  8
1
100
AcDbVertex
100
AcDb2dVertex
 10
-2433.2711181640625
 20
-274.6761474609375
 30
0.0
 70
0
  0
VERTEX
  5
1A1
330
194
100
AcDbEntity
  8
1
100
AcDbVertex
100
AcDb2dVertex
 10
-2435.2431030273438
 20
-273.0286865234375
 30
0.0
 70
0
  0
VERTEX
  5
1A2
330
194
100
AcDbEntity
  8
1
100
AcDbVertex
100
AcDb2dVertex
 10
-2445.712890625
 20
-256.9183349609375
 30
0.0
 70
0
  0
VERTEX
  5
1A3
330
194
100
AcDbEntity
  8
1
100
AcDbVertex
100
AcDb2dVertex
 10
-2476.7513427734375
 20
-208.1995849609375
 30
0.0
 70
0
  0
VERTEX
  5
1A4
330
194
100
AcDbEntity
  8
1
100
AcDbVertex
100
AcDb2dVertex
 10
-2517.243408203125
 20
-142.2464599609375
 30
0.0
 70
0
  0
VERTEX
  5
1A5
330
194
100
AcDbEntity
  8
1
100
AcDbVertex
100
AcDb2dVertex
 10
-2546.4971923828125
 20
-92.2315673828125
 30
0.0
 70
0
  0
VERTEX
  5
1A6
330
194
100
AcDbEntity
  8
1
100
AcDbVertex
100
AcDb2dVertex
 10
-2565.2536010742188
 20
-58.6888427734375
 30
0.0
 70
0
  0
VERTEX
  5
1A7
330
194
100
AcDbEntity
  8
1
100
AcDbVertex
100
AcDb2dVertex
 10
-2596.019287109375
 20
-0.5926513671875
 30
0.0
 70
0
  0
VERTEX
  5
1A8
330
194
100
AcDbEntity
  8
1
100
AcDbVertex
100
AcDb2dVertex
 10
-2597.7197265625
 20
3.8358154296875
 30
0.0
 70
0
  0
VERTEX
  5
1A9
330
194
100
AcDbEntity
  8
1
100
AcDbVertex
100
AcDb2dVertex
 10
-2597.4322509765625
 20
6.2528076171875
 30
0.0
 70
0
  0
VERTEX
  5
1AA
330
194
100
AcDbEntity
  8
1
100
AcDbVertex
100
AcDb2dVertex
 10
-2596.21533203125
 20
8.3712158203125
 30
0.0
 70
0
  0
VERTEX
  5
1AB
330
194
100
AcDbEntity
  8
1
100
AcDbVertex
100
AcDb2dVertex
 10
-2586.7054443359375
 20
17.1773681640625
 30
0.0
 70
0
  0
VERTEX
  5
1AC
330
194
100
AcDbEntity
  8
1
100
AcDbVertex
100
AcDb2dVertex
 10
-2578.3984375
 20
26.6033935546875
 30
0.0
 70
0
  0
VERTEX
  5
1AD
330
194
100
AcDbEntity
  8
1
100
AcDbVertex
100
AcDb2dVertex
 10
-2571.9744262695312
 20
35.6134033203125
 30
0.0
 70
0
  0
VERTEX
  5
1AE
330
194
100
AcDbEntity
  8
1
100
AcDbVertex
100
AcDb2dVertex
 10
-2566.8978881835938
 20
44.3055419921875
 30
0.0
 70
0
  0
VERTEX
  5
1AF
330
194
100
AcDbEntity
  8
1
100
AcDbVertex
100
AcDb2dVertex
 10
-2558.8443603515625
 20
61.7271728515625
 30
0.0
 70
0
  0
VERTEX
  5
1B0
330
194
100
AcDbEntity
  8
1
100
AcDbVertex
100
AcDb2dVertex
 10
-2553.364501953125
 20
78.9896240234375
 30
0.0
 70
0
  0
VERTEX
  5
1B1
330
194
100
AcDbEntity
  8
1
100
AcDbVertex
100
AcDb2dVertex
 10
-2549.6160888671875
 20
95.8736572265625
 30
0.0
 70
0
  0
VERTEX
  5
1B2
330
194
100
AcDbEntity
  8
1
100
AcDbVertex
100
AcDb2dVertex
 10
-2547.162841796875
 20
112.5294189453125
 30
0.0
 70
0
  0
VERTEX
  5
1B3
330
194
100
AcDbEntity
  8
1
100
AcDbVertex
100
AcDb2dVertex
 10
-2545.7921752929688
 20
129.1109619140625
 30
0.0
 70
0
  0
VERTEX
  5
1B4
330
194
100
AcDbEntity
  8
1
100
AcDbVertex
100
AcDb2dVertex
 10
-2544.8652954101562
 20
163.3382568359375
 30
0.0
 70
0
  0
VERTEX
  5
1B5
330
194
100
AcDbEntity
  8
1
100
AcDbVertex
100
AcDb2dVertex
 10
-2543.6180419921875
 20
165.6138916015625
 30
0.0
 70
0
  0
VERTEX
  5
1B6
330
194
100
AcDbEntity
  8
1
100
AcDbVertex
100
AcDb2dVertex
 10
-2542.6649169921875
 20
166.5291748046875
 30
0.0
 70
0
  0
VERTEX
  5
1B7
330
194
100
AcDbEntity
  8
1
100
AcDbVertex
100
AcDb2dVertex
 10
-2540.307373046875
 20
167.6424560546875
 30
0.0
 70
0
  0
VERTEX
  5
1B8
330
194
100
AcDbEntity
  8
1
100
AcDbVertex
100
AcDb2dVertex
 10
-2538.9749755859375
 20
167.7288818359375
 30
0.0
 70
0
  0
VERTEX
  5
1B9
330
194
100
AcDbEntity
  8
1
100
AcDbVertex
100
AcDb2dVertex
 10
-2536.4793701171875
 20
167.1783447265625
 30
0.0
 70
0
  0
VERTEX
  5
1BA
330
194
100
AcDbEntity
  8
1
100
AcDbVertex
100
AcDb2dVertex
 10
-2535.41796875
 20
166.4952392578125
 30
0.0
 70
0
  0
VERTEX
  5
1BB
330
194
100
AcDbEntity
  8
1
100
AcDbVertex
100
AcDb2dVertex
 10
-2532.0748291015625
 20
162.1270751953125
 30
0.0
 70
0
  0
VERTEX
  5
1BC
330
194
100
AcDbEntity
  8
1
100
AcDbVertex
100
AcDb2dVertex
 10
-2530.971435546875
 20
159.8668212890625
 30
0.0
 70
0
  0
VERTEX
  5
1BD
330
194
100
AcDbEntity
  8
1
100
AcDbVertex
100
AcDb2dVertex
 10
-2037.1796264648438
 20
179.6138916015625
 30
0.0
 70
0
  0
VERTEX
  5
1BE
330
194
100
AcDbEntity
  8
1
100
AcDbVertex
100
AcDb2dVertex
 10
-1200.4092102050781
 20
210.6597900390625
 30
0.0
 70
0
  0
VERTEX
  5
1BF
330
194
100
AcDbEntity
  8
1
100
AcDbVertex
100
AcDb2dVertex
 10
-287.359375
 20
236.5018310546875
 30
0.0
 70
0
  0
VERTEX
  5
1C0
330
194
100
AcDbEntity
  8
1
100
AcDbVertex
100
AcDb2dVertex
 10
581.883544921875
 20
258.8160400390625
 30
0.0
 70
0
  0
VERTEX
  5
1C1
330
194
100
AcDbEntity
  8
1
100
AcDbVertex
100
AcDb2dVertex
 10
1286.903564453125
 20
275.3409423828125
 30
0.0
 70
0
  0
VERTEX
  5
1C2
330
194
100
AcDbEntity
  8
1
100
AcDbVertex
100
AcDb2dVertex
 10
2044.9267578125
 20
267.5352783203125
 30
0.0
 70
0
  0
VERTEX
  5
1C3
330
194
100
AcDbEntity
  8
1
100
AcDbVertex
100
AcDb2dVertex
 10
2560.25341796875
 20
256.0177001953125
 30
0.0
 70
0
  0
VERTEX
  5
1C4
330
194
100
AcDbEntity
  8
1
100
AcDbVertex
100
AcDb2dVertex
 10
2563.00146484375
 20
254.6824951171875
 30
0.0
 70
0
  0
VERTEX
  5
1C5
330
194
100
AcDbEntity
  8
1
100
AcDbVertex
100
AcDb2dVertex
 10
2564.61083984375
 20
252.7510986328125
 30
0.0
 70
0
  0
VERTEX
  5
1C6
330
194
100
AcDbEntity
  8
1
100
AcDbVertex
100
AcDb2dVertex
 10
2565.181640625
 20
251.3538818359375
 30
0.0
 70
0
  0
VERTEX
  5
1C7
330
194
100
AcDbEntity
  8
1
100
AcDbVertex
100
AcDb2dVertex
 10
2566.654296875
 20
241.6834716796875
 30
0.0
 70
0
  0
VERTEX
  5
1C8
330
194
100
AcDbEntity
  8
1
100
AcDbVertex
100
AcDb2dVertex
 10
2569.1181640625
 20
232.1378173828125
 30
0.0
 70
0
  0
VERTEX
  5
1C9
330
194
100
AcDbEntity
  8
1
100
AcDbVertex
100
AcDb2dVertex
 10
2572.33154296875
 20
223.0147705078125
 30
0.0
 70
0
  0
VERTEX
  5
1CA
330
194
100
AcDbEntity
  8
1
100
AcDbVertex
100
AcDb2dVertex
 10
2576.14697265625
 20
214.2606201171875
 30
0.0
 70
0
  0
VERTEX
  5
1CB
330
194
100
AcDbEntity
  8
1
100
AcDbVertex
100
AcDb2dVertex
 10
2583.501953125
 20
200.4180908203125
 30
0.0
 70
0
  0
VERTEX
  5
1CC
330
194
100
AcDbEntity
  8
1
100
AcDbVertex
100
AcDb2dVertex
 10
2596.87255859375
 20
179.1024169921875
 30
0.0
 70
0
  0
VERTEX
  5
1CD
330
194
100
AcDbEntity
  8
1
100
AcDbVertex
100
AcDb2dVertex
 10
2597.7197265625
 20
176.3287353515625
 30
0.0
 70
0
  0
VERTEX
  5
1CE
330
194
100
AcDbEntity
  8
1
100
AcDbVertex
100
AcDb2dVertex
 10
2597.09228515625
 20
173.3253173828125
 30
0.0
 70
0
  0
VERTEX
  5
1CF
330
194
100
AcDbEntity
  8
1
100
AcDbVertex
100
AcDb2dVertex
 10
2596.09033203125
 20
171.8922119140625
 30
0.0
 70
0
  0
VERTEX
  5
1D0
330
194
100
AcDbEntity
  8
1
100
AcDbVertex
100
AcDb2dVertex
 10
2594.71728515625
 20
170.8116455078125
 30
0.0
 70
0
  0
VERTEX
  5
1D1
330
194
100
AcDbEntity
  8
1
100
AcDbVertex
100
AcDb2dVertex
 10
2591.37939453125
 20
169.9053955078125
 30
0.0
 70
0
  0
VERTEX
  5
1D2
330
194
100
AcDbEntity
  8
1
100
AcDbVertex
100
AcDb2dVertex
 10
2118.595458984375
 20
102.9293212890625
 30
0.0
 70
0
  0
VERTEX
  5
1D3
330
194
100
AcDbEntity
  8
1
100
AcDbVertex
100
AcDb2dVertex
 10
2005.24560546875
 20
92.2635498046875
 30
0.0
 70
0
  0
VERTEX
  5
1D4
330
194
100
AcDbEntity
  8
1
100
AcDbVertex
100
AcDb2dVertex
 10
1394.2333984375
 20
36.6292724609375
 30
0.0
 70
0
  0
VERTEX
  5
1D5
330
194
100
AcDbEntity
  8
1
100
AcDbVertex
100
AcDb2dVertex
 10
1256.977783203125
 20
25.7301025390625
 30
0.0
 70
0
  0
SEQEND
  5
198
330
194
100
AcDbEntity
  8
1
  0
POLYLINE
  5
1D6
330
194
100
AcDbEntity
  8
8
100
AcDb2dPolyline
 66
1
 70
0
  0
VERTEX
  5
1D8
330
194
100
AcDbEntity
  8
8
100
AcDbVertex
100
AcDb2dVertex
 10
745.9069398679776
 20
-3.4818006632735887
 30
0.0
 70
0
  0
VERTEX
  5
1D9
330
194
100
AcDbEntity
  8
8
100
AcDbVertex
100
AcDb2dVertex
 10
1386.89356096983
 20
48.10956043827309
 30
0.0
 70
0
  0
VERTEX
  5
1DA
330
194
100
AcDbEntity
  8
8
100
AcDbVertex
100
AcDb2dVertex
 10
2111.184394519367
 20
114.1896709286143
 30
0.0
 70
0
  0
VERTEX
  5
1DB
330
194
100
AcDbEntity
  8
8
100
AcDbVertex
100
AcDb2dVertex
 10
2591.880015026846
 20
182.01169380920373
 30
0.0
 70
0
  0
VERTEX
  5
1DC
330
194
100
AcDbEntity
  8
8
100
AcDbVertex
100
AcDb2dVertex
 10
2593.9371198661493
 20
181.59307043255376
 30
0.0
 70
0
  0
VERTEX
  5
1DD
330
194
100
AcDbEntity
  8
8
100
AcDbVertex
100
AcDb2dVertex
 10
2595.60650818091
 20
180.59594892195355
 30
0.0
 70
0
  0
VERTEX
  5
1DE
330
194
100
AcDbEntity
  8
8
100
AcDbVertex
100
AcDb2dVertex
 10
2602.1602315904465
 20
171.13240280738682
 30
0.0
 70
0
  0
SEQEND
  5
1D7
330
194
100
AcDbEntity
  8
8
  0
POLYLINE
  5
1DF
330
194
100
AcDbEntity
  8
8
100
AcDb2dPolyline
 66
1
 70
0
  0
VERTEX
  5
1E1
330
194
100
AcDbEntity
  8
8
100
AcDbVertex
100
AcDb2dVertex
 10
-2424.8494643386575
 20
-289.1475246075697
 30
0.0
 70
0
  0
VERTEX
  5
1E2
330
194
100
AcDbEntity
  8
8
100
AcDbVertex
100
AcDb2dVertex
 10
-2435.2691656693128
 20
-273.0316105957072
 30
0.0
 70
0
  0
VERTEX
  5
1E3
330
194
100
AcDbEntity
  8
8
100
AcDbVertex
100
AcDb2dVertex
 10
-2436.386635655659
 20
-270.57070307337017
 30
0.0
 70
0
  0
VERTEX
  5
1E4
330
194
100
AcDbEntity
  8
8
100
AcDbVertex
100
AcDb2dVertex
 10
-2436.3321707839887
 20
-267.8692825745625
 30
0.0
 70
0
  0
VERTEX
  5
1E5
330
194
100
AcDbEntity
  8
8
100
AcDbVertex
100
AcDb2dVertex
 10
-2435.8510098749607
 20
-266.59558910637634
 30
0.0
 70
0
  0
VERTEX
  5
1E6
330
194
100
AcDbEntity
  8
8
100
AcDbVertex
100
AcDb2dVertex
 10
-2434.1095236551937
 20
-264.5200702680754
 30
0.0
 70
0
  0
VERTEX
  5
1E7
330
194
100
AcDbEntity
  8
8
100
AcDbVertex
100
AcDb2dVertex
 10
-2432.93466427866
 20
-263.8314677116814
 30
0.0
 70
0
  0
VERTEX
  5
1E8
330
194
100
AcDbEntity
  8
8
100
AcDbVertex
100
AcDb2dVertex
 10
-2423.534432903144
 20
-262.5349673022047
 30
0.0
 70
0
  0
VERTEX
  5
1E9
330
194
100
AcDbEntity
  8
8
100
AcDbVertex
100
AcDb2dVertex
 10
-1867.4018861043
 20
-201.84045550297105
 30
0.0
 70
0
  0
VERTEX
  5
1EA
330
194
100
AcDbEntity
  8
8
100
AcDbVertex
100
AcDb2dVertex
 10
-1058.8609480301427
 20
-127.69274571947471
 30
0.0
 70
0
  0
VERTEX
  5
1EB
330
194
100
AcDbEntity
  8
8
100
AcDbVertex
100
AcDb2dVertex
 10
-1036.1896055506559
 20
-125.94512680965317
 30
0.0
 70
0
  0
VERTEX
  5
1EC
330
194
100
AcDbEntity
  8
8
100
AcDbVertex
100
AcDb2dVertex
 10
-214.23776284747487
 20
-72.15215219444462
 30
0.0
 70
0
  0
VERTEX
  5
1ED
330
194
100
AcDbEntity
  8
8
100
AcDbVertex
100
AcDb2dVertex
 10
585.6661832343289
 20
-15.779838057912002
 30
0.0
 70
0
  0
VERTEX
  5
1EE
330
194
100
AcDbEntity
  8
8
100
AcDbVertex
100
AcDb2dVertex
 10
723.0042067110326
 20
-5.331689365649709
 30
0.0
 70
0
  0
SEQEND
  5
1E0
330
194
100
AcDbEntity
  8
8
  0
POLYLINE
  5
1EF
330
194
100
AcDbEntity
  8
8
100
AcDb2dPolyline
 66
1
 70
0
  0
VERTEX
  5
1F1
330
194
100
AcDbEntity
  8
8
100
AcDbVertex
100
AcDb2dVertex
 10
-2603.895835469816
 20
1.0708459008874343
 30
0.0
 70
0
  0
VERTEX
  5
1F2
330
194
100
AcDbEntity
  8
8
100
AcDbVertex
100
AcDb2dVertex
 10
-2604.3740922653483
 20
4.791765932640374
 30
0.0
 70
0
  0
VERTEX
  5
1F3
330
194
100
AcDbEntity
  8
8
100
AcDbVertex
100
AcDb2dVertex
 10
-2603.9096324284533
 20
7.874303929208963
 30
0.0
 70
0
  0
VERTEX
  5
1F4
330
194
100
AcDbEntity
  8
8
100
AcDbVertex
100
AcDb2dVertex
 10
-2602.940783262303
 20
10.329206376668935
 30
0.0
 70
0
  0
VERTEX
  5
1F5
330
194
100
AcDbEntity
  8
8
100
AcDbVertex
100
AcDb2dVertex
 10
-2601.4661086009464
 20
12.515998008207134
 30
0.0
 70
0
  0
VERTEX
  5
1F6
330
194
100
AcDbEntity
  8
8
100
AcDbVertex
100
AcDb2dVertex
 10
-2597.2463885608254
 20
16.09826786852136
 30
0.0
 70
0
  0
VERTEX
  5
1F7
330
194
100
AcDbEntity
  8
8
100
AcDbVertex
100
AcDb2dVertex
 10
-2587.3139710127343
 20
26.088682154856542
 30
0.0
 70
0
  0
VERTEX
  5
1F8
330
194
100
AcDbEntity
  8
8
100
AcDbVertex
100
AcDb2dVertex
 10
-2575.313951422298
 20
42.72595415172782
 30
0.0
 70
0
  0
VERTEX
  5
1F9
330
194
100
AcDbEntity
  8
8
100
AcDbVertex
100
AcDb2dVertex
 10
-2566.0311457518524
 20
61.32212870413787
 30
0.0
 70
0
  0
VERTEX
  5
1FA
330
194
100
AcDbEntity
  8
8
100
AcDbVertex
100
AcDb2dVertex
 10
-2563.5047349454917
 20
68.84539110995956
 30
0.0
 70
0
  0
VERTEX
  5
1FB
330
194
100
AcDbEntity
  8
8
100
AcDbVertex
100
AcDb2dVertex
 10
-2556.3034176816045
 20
95.54778522850484
 30
0.0
 70
0
  0
VERTEX
  5
1FC
330
194
100
AcDbEntity
  8
8
100
AcDbVertex
100
AcDb2dVertex
 10
-2554.5025492772975
 20
106.31509853495754
 30
0.0
 70
0
  0
VERTEX
  5
1FD
330
194
100
AcDbEntity
  8
8
100
AcDbVertex
100
AcDb2dVertex
 10
-2553.731503217393
 20
112.21098321198679
 30
0.0
 70
0
  0
VERTEX
  5
1FE
330
194
100
AcDbEntity
  8
8
100
AcDbVertex
100
AcDb2dVertex
 10
-2551.6746190322933
 20
145.7556638672827
 30
0.0
 70
0
  0
VERTEX
  5
1FF
330
194
100
AcDbEntity
  8
8
100
AcDbVertex
100
AcDb2dVertex
 10
-2551.4427346782386
 20
165.03322881790018
 30
0.0
 70
0
  0
VERTEX
  5
200
330
194
100
AcDbEntity
  8
8
100
AcDbVertex
100
AcDb2dVertex
 10
-2549.6159480094934
 20
167.97788262637687
 30
0.0
 70
0
  0
VERTEX
  5
201
330
194
100
AcDbEntity
  8
8
100
AcDbVertex
100
AcDb2dVertex
 10
-2547.241198618186
 20
169.67042139979867
 30
0.0
 70
0
  0
VERTEX
  5
202
330
194
100
AcDbEntity
  8
8
100
AcDbVertex
100
AcDb2dVertex
 10
-2544.208962319432
 20
170.78787916059582
 30
0.0
 70
0
  0
VERTEX
  5
203
330
194
100
AcDbEntity
  8
8
100
AcDbVertex
100
AcDb2dVertex
 10
-2540.7619600261037
 20
171.24076322151086
 30
0.0
 70
0
  0
VERTEX
  5
204
330
194
100
AcDbEntity
  8
8
100
AcDbVertex
100
AcDb2dVertex
 10
-2533.811988258275
 20
170.01918754407097
 30
0.0
 70
0
  0
VERTEX
  5
205
330
194
100
AcDbEntity
  8
8
100
AcDbVertex
100
AcDb2dVertex
 10
-2530.893904114603
 20
168.6063190206878
 30
0.0
 70
0
  0
VERTEX
  5
206
330
194
100
AcDbEntity
  8
8
100
AcDbVertex
100
AcDb2dVertex
 10
-2527.489772800358
 20
165.46216391959524
 30
0.0
 70
0
  0
VERTEX
  5
207
330
194
100
AcDbEntity
  8
8
100
AcDbVertex
100
AcDb2dVertex
 10
-2526.4766252813465
 20
165.41832970741552
 30
0.0
 70
0
  0
VERTEX
  5
208
330
194
100
AcDbEntity
  8
8
100
AcDbVertex
100
AcDb2dVertex
 10
-2038.4824338071476
 20
184.9522241261252
 30
0.0
 70
0
  0
VERTEX
  5
209
330
194
100
AcDbEntity
  8
8
100
AcDbVertex
100
AcDb2dVertex
 10
-1201.5362596284676
 20
216.09743084511047
 30
0.0
 70
0
  0
VERTEX
  5
20A
330
194
100
AcDbEntity
  8
8
100
AcDbVertex
100
AcDb2dVertex
 10
-311.8023420377949
 20
241.50783258229512
 30
0.0
 70
0
  0
VERTEX
  5
20B
330
194
100
AcDbEntity
  8
8
100
AcDbVertex
100
AcDb2dVertex
 10
581.0795871328601
 20
264.7708713125485
 30
0.0
 70
0
  0
VERTEX
  5
20C
330
194
100
AcDbEntity
  8
8
100
AcDbVertex
100
AcDb2dVertex
 10
1286.0392577620855
 20
281.8527576295173
 30
0.0
 70
0
  0
VERTEX
  5
20D
330
194
100
AcDbEntity
  8
8
100
AcDbVertex
100
AcDb2dVertex
 10
2044.5834337233136
 20
274.55618700356445
 30
0.0
 70
0
  0
VERTEX
  5
20E
330
194
100
AcDbEntity
  8
8
100
AcDbVertex
100
AcDb2dVertex
 10
2185.0677185843842
 20
271.48152094657416
 30
0.0
 70
0
  0
VERTEX
  5
20F
330
194
100
AcDbEntity
  8
8
100
AcDbVertex
100
AcDb2dVertex
 10
2236.4298554895768
 20
271.04089154584426
 30
0.0
 70
0
  0
SEQEND
  5
1F0
330
194
100
AcDbEntity
  8
8
  0
POLYLINE
  5
210
330
194
100
AcDbEntity
  8
8
100
AcDb2dPolyline
 66
1
 70
0
  0
VERTEX
  5
212
330
194
100
AcDbEntity
  8
8
100
AcDbVertex
100
AcDb2dVertex
 10
2573.954933227741
 20
238.40553039652013
 30
0.0
 70
0
  0
VERTEX
  5
213
330
194
100
AcDbEntity
  8
8
100
AcDbVertex
100
AcDb2dVertex
 10
2578.074804668251
 20
226.18600124315117
 30
0.0
 70
0
  0
VERTEX
  5
214
330
194
100
AcDbEntity
  8
8
100
AcDbVertex
100
AcDb2dVertex
 10
2583.195942085319
 20
214.6279269307538
 30
0.0
 70
0
  0
VERTEX
  5
215
330
194
100
AcDbEntity
  8
8
100
AcDbVertex
100
AcDb2dVertex
 10
2589.115363193864
 20
203.69766686562843
 30
0.0
 70
0
  0
VERTEX
  5
216
330
194
100
AcDbEntity
  8
8
100
AcDbVertex
100
AcDb2dVertex
 10
2602.304477847325
 20
182.67692325789312
 30
0.0
 70
0
  0
VERTEX
  5
217
330
194
100
AcDbEntity
  8
8
100
AcDbVertex
100
AcDb2dVertex
 10
2603.5709211174335
 20
180.01443225970934
 30
0.0
 70
0
  0
VERTEX
  5
218
330
194
100
AcDbEntity
  8
8
100
AcDbVertex
100
AcDb2dVertex
 10
2604.2176389868982
 20
176.26158597296217
 30
0.0
 70
0
  0
VERTEX
  5
219
330
194
100
AcDbEntity
  8
8
100
AcDbVertex
100
AcDb2dVertex
 10
2603.363723184483
 20
171.30515919215395
 30
0.0
 70
0
  0
SEQEND
  5
211
330
194
100
AcDbEntity
  8
8
  0
POLYLINE
  5
21A
330
194
100
AcDbEntity
  8
8
100
AcDb2dPolyline
 66
1
 70
0
  0
VERTEX
  5
21C
330
194
100
AcDbEntity
  8
8
100
AcDbVertex
100
AcDb2dVertex
 10
2500.011500752132
 20
150.39757681295487
 30
0.0
 70
0
  0
VERTEX
  5
21D
330
194
100
AcDbEntity
  8
8
100
AcDbVertex
100
AcDb2dVertex
 10
2366.8096038127583
 20
131.5347542431332
 30
0.0
 70
0
  0
SEQEND
  5
21B
330
194
100
AcDbEntity
  8
8
  0
POLYLINE
  5
21E
330
194
100
AcDbEntity
  8
8
100
AcDb2dPolyline
 66
1
 70
0
  0
VERTEX
  5
220
330
194
100
AcDbEntity
  8
8
100
AcDbVertex
100
AcDb2dVertex
 10
2322.4196459040995
 20
125.24872301922778
 30
0.0
 70
0
  0
VERTEX
  5
221
330
194
100
AcDbEntity
  8
8
100
AcDbVertex
100
AcDb2dVertex
 10
2122.5656291226883
 20
96.91393142605239
 30
0.0
 70
0
  0
VERTEX
  5
222
330
194
100
AcDbEntity
  8
8
100
AcDbVertex
100
AcDb2dVertex
 10
2054.583820607945
 20
90.28788614969517
 30
0.0
 70
0
  0
VERTEX
  5
223
330
194
100
AcDbEntity
  8
8
100
AcDbVertex
100
AcDb2dVertex
 10
1398.1916159318166
 20
30.43228167383222
 30
0.0
 70
0
  0
VERTEX
  5
224
330
194
100
AcDbEntity
  8
8
100
AcDbVertex
100
AcDb2dVertex
 10
688.4871259426941
 20
-26.74402949170417
 30
0.0
 70
0
  0
VERTEX
  5
225
330
194
100
AcDbEntity
  8
8
100
AcDbVertex
100
AcDb2dVertex
 10
539.365598287905
 20
-37.68611719176897
 30
0.0
 70
0
  0
VERTEX
  5
226
330
194
100
AcDbEntity
  8
8
100
AcDbVertex
100
AcDb2dVertex
 10
-202.9247535622103
 20
-89.98697319688608
 30
0.0
 70
0
  0
VERTEX
  5
227
330
194
100
AcDbEntity
  8
8
100
AcDbVertex
100
AcDb2dVertex
 10
-1047.6275714209107
 20
-145.30082740288708
 30
0.0
 70
0
  0
VERTEX
  5
228
330
194
100
AcDbEntity
  8
8
100
AcDbVertex
100
AcDb2dVertex
 10
-1856.1715223719507
 20
-219.28899903632418
 30
0.0
 70
0
  0
VERTEX
  5
229
330
194
100
AcDbEntity
  8
8
100
AcDbVertex
100
AcDb2dVertex
 10
-2429.686944035123
 20
-281.8484464088524
 30
0.0
 70
0
  0
VERTEX
  5
22A
330
194
100
AcDbEntity
  8
8
100
AcDbVertex
100
AcDb2dVertex
 10
-2432.6453022167734
 20
-281.69769272344956
 30
0.0
 70
0
  0
VERTEX
  5
22B
330
194
100
AcDbEntity
  8
8
100
AcDbVertex
100
AcDb2dVertex
 10
-2435.483339407964
 20
-280.8514319480746
 30
0.0
 70
0
  0
VERTEX
  5
22C
330
194
100
AcDbEntity
  8
8
100
AcDbVertex
100
AcDb2dVertex
 10
-2437.6926067136733
 20
-279.61003357522577
 30
0.0
 70
0
  0
VERTEX
  5
22D
330
194
100
AcDbEntity
  8
8
100
AcDbVertex
100
AcDb2dVertex
 10
-2439.6059817295754
 20
-277.94853047353035
 30
0.0
 70
0
  0
VERTEX
  5
22E
330
194
100
AcDbEntity
  8
8
100
AcDbVertex
100
AcDb2dVertex
 10
-2463.3276991333264
 20
-241.53952265345788
 30
0.0
 70
0
  0
VERTEX
  5
22F
330
194
100
AcDbEntity
  8
8
100
AcDbVertex
100
AcDb2dVertex
 10
-2504.385510678854
 20
-176.01922933239393
 30
0.0
 70
0
  0
VERTEX
  5
230
330
194
100
AcDbEntity
  8
8
100
AcDbVertex
100
AcDb2dVertex
 10
-2524.4473378745492
 20
-142.89066130395076
 30
0.0
 70
0
  0
VERTEX
  5
231
330
194
100
AcDbEntity
  8
8
100
AcDbVertex
100
AcDb2dVertex
 10
-2553.645180256846
 20
-92.78962062708842
 30
0.0
 70
0
  0
VERTEX
  5
232
330
194
100
AcDbEntity
  8
8
100
AcDbVertex
100
AcDb2dVertex
 10
-2581.476163234018
 20
-42.42120945838542
 30
0.0
 70
0
  0
VERTEX
  5
233
330
194
100
AcDbEntity
  8
8
100
AcDbVertex
100
AcDb2dVertex
 10
-2602.4000852043027
 20
-2.3804237392578216
 30
0.0
 70
0
  0
SEQEND
  5
21F
330
194
100
AcDbEntity
  8
8
  0
POLYLINE
  5
234
330
194
100
AcDbEntity
  8
8
100
AcDb2dPolyline
 66
1
 70
0
  0
VERTEX
  5
236
330
194
100
AcDbEntity
  8
8
100
AcDbVertex
100
AcDb2dVertex
 10
630.5674368639147
 20
248.01114408461444
 30
0.0
 70
0
  0
VERTEX
  5
237
330
194
100
AcDbEntity
  8
8
100
AcDbVertex
100
AcDb2dVertex
 10
-332.3542495447532
 20
223.34741942593564
 30
0.0
 70
0
  0
VERTEX
  5
238
330
194
100
AcDbEntity
  8
8
100
AcDbVertex
100
AcDb2dVertex
 10
-1197.950445379065
 20
198.74768141427649
 30
0.0
 70
0
  0
VERTEX
  5
239
330
194
100
AcDbEntity
  8
8
100
AcDbVertex
100
AcDb2dVertex
 10
-2057.4840334653595
 20
166.80829141946606
 30
0.0
 70
0
  0
VERTEX
  5
23A
330
194
100
AcDbEntity
  8
8
100
AcDbVertex
100
AcDb2dVertex
 10
-2520.929986618358
 20
148.20587543441616
 30
0.0
 70
0
  0
VERTEX
  5
23B
330
194
100
AcDbEntity
  8
8
100
AcDbVertex
100
AcDb2dVertex
 10
-2535.947415130435
 20
147.88410991030787
 30
0.0
 70
0
  0
VERTEX
  5
23C
330
194
100
AcDbEntity
  8
8
100
AcDbVertex
100
AcDb2dVertex
 10
-2537.8599637003827
 20
148.56210197881956
 30
0.0
 70
0
  0
VERTEX
  5
23D
330
194
100
AcDbEntity
  8
8
100
AcDbVertex
100
AcDb2dVertex
 10
-2540.0358899830603
 20
150.93474559137348
 30
0.0
 70
0
  0
VERTEX
  5
23E
330
194
100
AcDbEntity
  8
8
100
AcDbVertex
100
AcDb2dVertex
 10
-2540.823997473903
 20
154.03628629953846
 30
0.0
 70
0
  0
VERTEX
  5
23F
330
194
100
AcDbEntity
  8
8
100
AcDbVertex
100
AcDb2dVertex
 10
-2541.2830907655616
 20
161.9663557617041
 30
0.0
 70
0
  0
VERTEX
  5
240
330
194
100
AcDbEntity
  8
8
100
AcDbVertex
100
AcDb2dVertex
 10
-2546.0675400465707
 20
177.58453976439205
 30
0.0
 70
0
  0
VERTEX
  5
241
330
194
100
AcDbEntity
  8
8
100
AcDbVertex
100
AcDb2dVertex
 10
-2549.2141492312767
 20
181.39095576317231
 30
0.0
 70
0
  0
VERTEX
  5
242
330
194
100
AcDbEntity
  8
8
100
AcDbVertex
100
AcDb2dVertex
 10
-2551.656967336995
 20
185.28588273683545
 30
0.0
 70
0
  0
SEQEND
  5
235
330
194
100
AcDbEntity
  8
8
  0
POLYLINE
  5
243
330
194
100
AcDbEntity
  8
8
100
AcDb2dPolyline
 66
1
 70
0
  0
VERTEX
  5
245
330
194
100
AcDbEntity
  8
8
100
AcDbVertex
100
AcDb2dVertex
 10
2559.5526854765976
 20
243.83766311975023
 30
0.0
 70
0
  0
VERTEX
  5
246
330
194
100
AcDbEntity
  8
8
100
AcDbVertex
100
AcDb2dVertex
 10
2046.377612226965
 20
255.47041629870137
 30
0.0
 70
0
  0
VERTEX
  5
247
330
194
100
AcDbEntity
  8
8
100
AcDbVertex
100
AcDb2dVertex
 10
1288.4800603525132
 20
263.3393617406159
 30
0.0
 70
0
  0
VERTEX
  5
248
330
194
100
AcDbEntity
  8
8
100
AcDbVertex
100
AcDb2dVertex
 10
654.0402297192636
 20
248.53475939707187
 30
0.0
 70
0
  0
SEQEND
  5
244
330
194
100
AcDbEntity
  8
8
  0
POLYLINE
  5
249
330
194
100
AcDbEntity
  8
8
100
AcDb2dPolyline
 66
1
 70
0
  0
VERTEX
  5
24B
330
194
100
AcDbEntity
  8
8
100
AcDbVertex
100
AcDb2dVertex
 10
-1889.2108347868366
 20
-244.8766719063483
 30
0.0
 70
0
  0
VERTEX
  5
24C
330
194
100
AcDbEntity
  8
8
100
AcDbVertex
100
AcDb2dVertex
 10
-1930.0605069373285
 20
-185.25237045906624
 30
0.0
 70
0
  0
VERTEX
  5
24D
330
194
100
AcDbEntity
  8
8
100
AcDbVertex
100
AcDb2dVertex
 10
-1948.7320033061476
 20
-157.30948313405497
 30
0.0
 70
0
  0
VERTEX
  5
24E
330
194
100
AcDbEntity
  8
8
100
AcDbVertex
100
AcDb2dVertex
 10
-1989.373824363463
 20
-94.55500828560344
 30
0.0
 70
0
  0
VERTEX
  5
24F
330
194
100
AcDbEntity
  8
8
100
AcDbVertex
100
AcDb2dVertex
 10
-2007.9701152637215
 20
-64.53945884694349
 30
0.0
 70
0
  0
VERTEX
  5
250
330
194
100
AcDbEntity
  8
8
100
AcDbVertex
100
AcDb2dVertex
 10
-2026.534626366952
 20
-33.51138179411055
 30
0.0
 70
0
  0
VERTEX
  5
251
330
194
100
AcDbEntity
  8
8
100
AcDbVertex
100
AcDb2dVertex
 10
-2043.4181133130855
 20
-4.119836895706612
 30
0.0
 70
0
  0
VERTEX
  5
252
330
194
100
AcDbEntity
  8
8
100
AcDbVertex
100
AcDb2dVertex
 10
-2058.615847430693
 20
23.437145051988864
 30
0.0
 70
0
  0
VERTEX
  5
253
330
194
100
AcDbEntity
  8
8
100
AcDbVertex
100
AcDb2dVertex
 10
-2075.450020822936
 20
55.73698418257209
 30
0.0
 70
0
  0
VERTEX
  5
254
330
194
100
AcDbEntity
  8
8
100
AcDbVertex
100
AcDb2dVertex
 10
-2083.875532208316
 20
73.19042270658838
 30
0.0
 70
0
  0
VERTEX
  5
255
330
194
100
AcDbEntity
  8
8
100
AcDbVertex
100
AcDb2dVertex
 10
-2090.622539082305
 20
87.63521866591782
 30
0.0
 70
0
  0
VERTEX
  5
256
330
194
100
AcDbEntity
  8
8
100
AcDbVertex
100
AcDb2dVertex
 10
-2102.480246799455
 20
115.49743821465245
 30
0.0
 70
0
  0
VERTEX
  5
257
330
194
100
AcDbEntity
  8
8
100
AcDbVertex
100
AcDb2dVertex
 10
-2109.2353034071702
 20
132.96904948105566
 30
0.0
 70
0
  0
VERTEX
  5
258
330
194
100
AcDbEntity
  8
8
100
AcDbVertex
100
AcDb2dVertex
 10
-2114.3461865553977
 20
147.4731759939864
 30
0.0
 70
0
  0
VERTEX
  5
259
330
194
100
AcDbEntity
  8
8
100
AcDbVertex
100
AcDb2dVertex
 10
-2119.40261882523
 20
164.9031729858766
 30
0.0
 70
0
  0
VERTEX
  5
25A
330
194
100
AcDbEntity
  8
8
100
AcDbVertex
100
AcDb2dVertex
 10
-2126.594451758281
 20
192.65454954408733
 30
0.0
 70
0
  0
SEQEND
  5
24A
330
194
100
AcDbEntity
  8
8
  0
POLYLINE
  5
25B
330
194
100
AcDbEntity
  8
8
100
AcDb2dPolyline
 66
1
 70
0
  0
VERTEX
  5
25D
330
194
100
AcDbEntity
  8
8
100
AcDbVertex
100
AcDb2dVertex
 10
-1109.4792041637738
 20
-169.98693272621676
 30
0.0
 70
0
  0
VERTEX
  5
25E
330
194
100
AcDbEntity
  8
8
100
AcDbVertex
100
AcDb2dVertex
 10
-1147.835902478496
 20
-115.79886133639184
 30
0.0
 70
0
  0
VERTEX
  5
25F
330
194
100
AcDbEntity
  8
8
100
AcDbVertex
100
AcDb2dVertex
 10
-1191.3753230246261
 20
-51.278439241842534
 30
0.0
 70
0
  0
VERTEX
  5
260
330
194
100
AcDbEntity
  8
8
100
AcDbVertex
100
AcDb2dVertex
 10
-1224.3682866047918
 20
0.7257811958988896
 30
0.0
 70
0
  0
VERTEX
  5
261
330
194
100
AcDbEntity
  8
8
100
AcDbVertex
100
AcDb2dVertex
 10
-1241.721151215173
 20
29.859081593598148
 30
0.0
 70
0
  0
VERTEX
  5
262
330
194
100
AcDbEntity
  8
8
100
AcDbVertex
100
AcDb2dVertex
 10
-1257.328800708389
 20
57.34139698034778
 30
0.0
 70
0
  0
VERTEX
  5
263
330
194
100
AcDbEntity
  8
8
100
AcDbVertex
100
AcDb2dVertex
 10
-1279.8162953062788
 20
99.90710007127336
 30
0.0
 70
0
  0
VERTEX
  5
264
330
194
100
AcDbEntity
  8
8
100
AcDbVertex
100
AcDb2dVertex
 10
-1292.0107546491324
 20
125.62219033791825
 30
0.0
 70
0
  0
VERTEX
  5
265
330
194
100
AcDbEntity
  8
8
100
AcDbVertex
100
AcDb2dVertex
 10
-1300.5839810150128
 20
145.87675320046355
 30
0.0
 70
0
  0
VERTEX
  5
266
330
194
100
AcDbEntity
  8
8
100
AcDbVertex
100
AcDb2dVertex
 10
-1307.5553374144838
 20
163.75842064230892
 30
0.0
 70
0
  0
VERTEX
  5
267
330
194
100
AcDbEntity
  8
8
100
AcDbVertex
100
AcDb2dVertex
 10
-1312.884884424812
 20
179.02858151965893
 30
0.0
 70
0
  0
VERTEX
  5
268
330
194
100
AcDbEntity
  8
8
100
AcDbVertex
100
AcDb2dVertex
 10
-1318.0503674856336
 20
197.63816960666145
 30
0.0
 70
0
  0
VERTEX
  5
269
330
194
100
AcDbEntity
  8
8
100
AcDbVertex
100
AcDb2dVertex
 10
-1323.5113602895403
 20
221.514666993638
 30
0.0
 70
0
  0
SEQEND
  5
25C
330
194
100
AcDbEntity
  8
8
  0
POLYLINE
  5
26A
330
194
100
AcDbEntity
  8
8
100
AcDb2dPolyline
 66
1
 70
0
  0
VERTEX
  5
26C
330
194
100
AcDbEntity
  8
8
100
AcDbVertex
100
AcDb2dVertex
 10
-316.3681381375086
 20
-111.93647100714043
 30
0.0
 70
0
  0
VERTEX
  5
26D
330
194
100
AcDbEntity
  8
8
100
AcDbVertex
100
AcDb2dVertex
 10
-352.6405647171616
 20
-63.214389130862855
 30
0.0
 70
0
  0
VERTEX
  5
26E
330
194
100
AcDbEntity
  8
8
100
AcDbVertex
100
AcDb2dVertex
 10
-370.7468405166496
 20
-37.862443177455134
 30
0.0
 70
0
  0
VERTEX
  5
26F
330
194
100
AcDbEntity
  8
8
100
AcDbVertex
100
AcDb2dVertex
 10
-394.323868544745
 20
-3.843549068881657
 30
0.0
 70
0
  0
VERTEX
  5
270
330
194
100
AcDbEntity
  8
8
100
AcDbVertex
100
AcDb2dVertex
 10
-408.7959503964387
 20
17.80490000177042
 30
0.0
 70
0
  0
VERTEX
  5
271
330
194
100
AcDbEntity
  8
8
100
AcDbVertex
100
AcDb2dVertex
 10
-425.0735414503217
 20
43.13110528008383
 30
0.0
 70
0
  0
VERTEX
  5
272
330
194
100
AcDbEntity
  8
8
100
AcDbVertex
100
AcDb2dVertex
 10
-441.357407148957
 20
69.74594534918924
 30
0.0
 70
0
  0
VERTEX
  5
273
330
194
100
AcDbEntity
  8
8
100
AcDbVertex
100
AcDb2dVertex
 10
-455.7987838894394
 20
94.66483888431867
 30
0.0
 70
0
  0
VERTEX
  5
274
330
194
100
AcDbEntity
  8
8
100
AcDbVertex
100
AcDb2dVertex
 10
-475.61338045492516
 20
131.4951399472361
 30
0.0
 70
0
  0
VERTEX
  5
275
330
194
100
AcDbEntity
  8
8
100
AcDbVertex
100
AcDb2dVertex
 10
-486.3813133014862
 20
153.98916100130054
 30
0.0
 70
0
  0
VERTEX
  5
276
330
194
100
AcDbEntity
  8
8
100
AcDbVertex
100
AcDb2dVertex
 10
-497.25019993659544
 20
179.78801938369043
 30
0.0
 70
0
  0
VERTEX
  5
277
330
194
100
AcDbEntity
  8
8
100
AcDbVertex
100
AcDb2dVertex
 10
-506.2887412544478
 20
204.97620002995882
 30
0.0
 70
0
  0
VERTEX
  5
278
330
194
100
AcDbEntity
  8
8
100
AcDbVertex
100
AcDb2dVertex
 10
-509.87481830764386
 20
218.18970889539924
 30
0.0
 70
0
  0
VERTEX
  5
279
330
194
100
AcDbEntity
  8
8
100
AcDbVertex
100
AcDb2dVertex
 10
-515.1538478627624
 20
244.71117786859259
 30
0.0
 70
0
  0
SEQEND
  5
26B
330
194
100
AcDbEntity
  8
8
  0
POLYLINE
  5
27A
330
194
100
AcDbEntity
  8
8
100
AcDb2dPolyline
 66
1
 70
0
  0
VERTEX
  5
27C
330
194
100
AcDbEntity
  8
8
100
AcDbVertex
100
AcDb2dVertex
 10
559.1884805456953
 20
-48.12036298252542
 30
0.0
 70
0
  0
VERTEX
  5
27D
330
194
100
AcDbEntity
  8
8
100
AcDbVertex
100
AcDb2dVertex
 10
527.776428862895
 20
-7.025996520884291
 30
0.0
 70
0
  0
VERTEX
  5
27E
330
194
100
AcDbEntity
  8
8
100
AcDbVertex
100
AcDb2dVertex
 10
512.9680841465388
 20
13.135026574384938
 30
0.0
 70
0
  0
VERTEX
  5
27F
330
194
100
AcDbEntity
  8
8
100
AcDbVertex
100
AcDb2dVertex
 10
483.447857557896
 20
55.16923664750766
 30
0.0
 70
0
  0
VERTEX
  5
280
330
194
100
AcDbEntity
  8
8
100
AcDbVertex
100
AcDb2dVertex
 10
463.2259347276322
 20
86.03652888115948
 30
0.0
 70
0
  0
VERTEX
  5
281
330
194
100
AcDbEntity
  8
8
100
AcDbVertex
100
AcDb2dVertex
 10
448.5469758124311
 20
110.16231259450524
 30
0.0
 70
0
  0
VERTEX
  5
282
330
194
100
AcDbEntity
  8
8
100
AcDbVertex
100
AcDb2dVertex
 10
435.69463200555424
 20
132.68737765232208
 30
0.0
 70
0
  0
VERTEX
  5
283
330
194
100
AcDbEntity
  8
8
100
AcDbVertex
100
AcDb2dVertex
 10
424.7493875773039
 20
153.43204524866997
 30
0.0
 70
0
  0
VERTEX
  5
284
330
194
100
AcDbEntity
  8
8
100
AcDbVertex
100
AcDb2dVertex
 10
417.4805885565502
 20
168.14094372465024
 30
0.0
 70
0
  0
VERTEX
  5
285
330
194
100
AcDbEntity
  8
8
100
AcDbVertex
100
AcDb2dVertex
 10
408.3082661199737
 20
188.67753870604565
 30
0.0
 70
0
  0
VERTEX
  5
286
330
194
100
AcDbEntity
  8
8
100
AcDbVertex
100
AcDb2dVertex
 10
401.0360279716108
 20
207.50051881572836
 30
0.0
 70
0
  0
VERTEX
  5
287
330
194
100
AcDbEntity
  8
8
100
AcDbVertex
100
AcDb2dVertex
 10
395.55730253382717
 20
223.96774565136366
 30
0.0
 70
0
  0
VERTEX
  5
288
330
194
100
AcDbEntity
  8
8
100
AcDbVertex
100
AcDb2dVertex
 10
391.94123169544537
 20
237.35047526257267
 30
0.0
 70
0
  0
VERTEX
  5
289
330
194
100
AcDbEntity
  8
8
100
AcDbVertex
100
AcDb2dVertex
 10
390.2069626648133
 20
245.38896444023703
 30
0.0
 70
0
  0
VERTEX
  5
28A
330
194
100
AcDbEntity
  8
8
100
AcDbVertex
100
AcDb2dVertex
 10
386.92994547472836
 20
266.0993020220717
 30
0.0
 70
0
  0
SEQEND
  5
27B
330
194
100
AcDbEntity
  8
8
  0
POLYLINE
  5
28B
330
194
100
AcDbEntity
  8
8
100
AcDb2dPolyline
 66
1
 70
0
  0
VERTEX
  5
28D
330
194
100
AcDbEntity
  8
8
100
AcDbVertex
100
AcDb2dVertex
 10
1239.0723713792586
 20
9.243438613156286
 30
0.0
 70
0
  0
VERTEX
  5
28E
330
194
100
AcDbEntity
  8
8
100
AcDbVertex
100
AcDb2dVertex
 10
1209.4410560944489
 20
43.54637758003628
 30
0.0
 70
0
  0
VERTEX
  5
28F
330
194
100
AcDbEntity
  8
8
100
AcDbVertex
100
AcDb2dVertex
 10
1195.575910414102
 20
60.19128091984976
 30
0.0
 70
0
  0
VERTEX
  5
290
330
194
100
AcDbEntity
  8
8
100
AcDbVertex
100
AcDb2dVertex
 10
1166.068636027965
 20
97.25945440510486
 30
0.0
 70
0
  0
VERTEX
  5
291
330
194
100
AcDbEntity
  8
8
100
AcDbVertex
100
AcDb2dVertex
 10
1144.5369253783383
 20
126.72891396584646
 30
0.0
 70
0
  0
VERTEX
  5
292
330
194
100
AcDbEntity
  8
8
100
AcDbVertex
100
AcDb2dVertex
 10
1132.8195315342418
 20
144.00824257755266
 30
0.0
 70
0
  0
VERTEX
  5
293
330
194
100
AcDbEntity
  8
8
100
AcDbVertex
100
AcDb2dVertex
 10
1121.1489784670712
 20
162.60271318992454
 30
0.0
 70
0
  0
VERTEX
  5
294
330
194
100
AcDbEntity
  8
8
100
AcDbVertex
100
AcDb2dVertex
 10
1105.6402814252983
 20
190.06752590906217
 30
0.0
 70
0
  0
VERTEX
  5
295
330
194
100
AcDbEntity
  8
8
100
AcDbVertex
100
AcDb2dVertex
 10
1095.9847619987254
 20
209.94175587259406
 30
0.0
 70
0
  0
VERTEX
  5
296
330
194
100
AcDbEntity
  8
8
100
AcDbVertex
100
AcDb2dVertex
 10
1090.2983306563033
 20
223.51922375929144
 30
0.0
 70
0
  0
VERTEX
  5
297
330
194
100
AcDbEntity
  8
8
100
AcDbVertex
100
AcDb2dVertex
 10
1084.4443076440562
 20
239.67862577273263
 30
0.0
 70
0
  0
VERTEX
  5
298
330
194
100
AcDbEntity
  8
8
100
AcDbVertex
100
AcDb2dVertex
 10
1080.6468767650476
 20
252.83249572424847
 30
0.0
 70
0
  0
VERTEX
  5
299
330
194
100
AcDbEntity
  8
8
100
AcDbVertex
100
AcDb2dVertex
 10
1078.7599207378853
 20
261.05117715554934
 30
0.0
 70
0
  0
VERTEX
  5
29A
330
194
100
AcDbEntity
  8
8
100
AcDbVertex
100
AcDb2dVertex
 10
1075.7500171321635
 20
280.13951151471383
 30
0.0
 70
0
  0
SEQEND
  5
28C
330
194
100
AcDbEntity
  8
8
  0
POLYLINE
  5
29B
330
194
100
AcDbEntity
  8
8
100
AcDb2dPolyline
 66
1
 70
0
  0
VERTEX
  5
29D
330
194
100
AcDbEntity
  8
8
100
AcDbVertex
100
AcDb2dVertex
 10
1750.784332687963
 20
57.435207689260096
 30
0.0
 70
0
  0
VERTEX
  5
29E
330
194
100
AcDbEntity
  8
8
100
AcDbVertex
100
AcDb2dVertex
 10
1691.5504059199097
 20
99.24921193740875
 30
0.0
 70
0
  0
VERTEX
  5
29F
330
194
100
AcDbEntity
  8
8
100
AcDbVertex
100
AcDb2dVertex
 10
1654.6592771827536
 20
127.05373701335157
 30
0.0
 70
0
  0
VERTEX
  5
2A0
330
194
100
AcDbEntity
  8
8
100
AcDbVertex
100
AcDb2dVertex
 10
1632.6056856309424
 20
144.89573980158093
 30
0.0
 70
0
  0
VERTEX
  5
2A1
330
194
100
AcDbEntity
  8
8
100
AcDbVertex
100
AcDb2dVertex
 10
1620.3086029882993
 20
155.46862292168817
 30
0.0
 70
0
  0
VERTEX
  5
2A2
330
194
100
AcDbEntity
  8
8
100
AcDbVertex
100
AcDb2dVertex
 10
1610.5117862331513
 20
164.21908387273743
 30
0.0
 70
0
  0
VERTEX
  5
2A3
330
194
100
AcDbEntity
  8
8
100
AcDbVertex
100
AcDb2dVertex
 10
1595.846275466246
 20
178.1863305921638
 30
0.0
 70
0
  0
VERTEX
  5
2A4
330
194
100
AcDbEntity
  8
8
100
AcDbVertex
100
AcDb2dVertex
 10
1583.6465259432562
 20
190.78951348345254
 30
0.0
 70
0
  0
VERTEX
  5
2A5
330
194
100
AcDbEntity
  8
8
100
AcDbVertex
100
AcDb2dVertex
 10
1571.3975522128453
 20
204.42511536455322
 30
0.0
 70
0
  0
VERTEX
  5
2A6
330
194
100
AcDbEntity
  8
8
100
AcDbVertex
100
AcDb2dVertex
 10
1559.1361158598374
 20
219.9604795710825
 30
0.0
 70
0
  0
VERTEX
  5
2A7
330
194
100
AcDbEntity
  8
8
100
AcDbVertex
100
AcDb2dVertex
 10
1551.873589405579
 20
230.43307730496235
 30
0.0
 70
0
  0
VERTEX
  5
2A8
330
194
100
AcDbEntity
  8
8
100
AcDbVertex
100
AcDb2dVertex
 10
1544.5459508013905
 20
242.66968011351491
 30
0.0
 70
0
  0
VERTEX
  5
2A9
330
194
100
AcDbEntity
  8
8
100
AcDbVertex
100
AcDb2dVertex
 10
1539.605378720526
 20
252.49451667773155
 30
0.0
 70
0
  0
VERTEX
  5
2AA
330
194
100
AcDbEntity
  8
8
100
AcDbVertex
100
AcDb2dVertex
 10
1537.1854516040921
 20
258.3110157857768
 30
0.0
 70
0
  0
VERTEX
  5
2AB
330
194
100
AcDbEntity
  8
8
100
AcDbVertex
100
AcDb2dVertex
 10
1534.8037282454784
 20
264.7475887986516
 30
0.0
 70
0
  0
VERTEX
  5
2AC
330
194
100
AcDbEntity
  8
8
100
AcDbVertex
100
AcDb2dVertex
 10
1531.4064407074102
 20
280.0364004596563
 30
0.0
 70
0
  0
SEQEND
  5
29C
330
194
100
AcDbEntity
  8
8
  0
POLYLINE
  5
2AD
330
194
100
AcDbEntity
  8
8
100
AcDb2dPolyline
 66
1
 70
0
  0
VERTEX
  5
2AF
330
194
100
AcDbEntity
  8
8
100
AcDbVertex
100
AcDb2dVertex
 10
2282.1402162732356
 20
117.78059747437328
 30
0.0
 70
0
  0
VERTEX
  5
2B0
330
194
100
AcDbEntity
  8
8
100
AcDbVertex
100
AcDb2dVertex
 10
2224.2182894099415
 20
142.41976408024084
 30
0.0
 70
0
  0
VERTEX
  5
2B1
330
194
100
AcDbEntity
  8
8
100
AcDbVertex
100
AcDb2dVertex
 10
2177.5839122076745
 20
163.817149522024
 30
0.0
 70
0
  0
VERTEX
  5
2B2
330
194
100
AcDbEntity
  8
8
100
AcDbVertex
100
AcDb2dVertex
 10
2152.979709388364
 20
176.30248464974784
 30
0.0
 70
0
  0
VERTEX
  5
2B3
330
194
100
AcDbEntity
  8
8
100
AcDbVertex
100
AcDb2dVertex
 10
2139.3537752398893
 20
183.73530655134527
 30
0.0
 70
0
  0
VERTEX
  5
2B4
330
194
100
AcDbEntity
  8
8
100
AcDbVertex
100
AcDb2dVertex
 10
2117.524522315514
 20
196.79283059374666
 30
0.0
 70
0
  0
VERTEX
  5
2B5
330
194
100
AcDbEntity
  8
8
100
AcDbVertex
100
AcDb2dVertex
 10
2093.047325586595
 20
213.60050102226114
 30
0.0
 70
0
  0
VERTEX
  5
2B6
330
194
100
AcDbEntity
  8
8
100
AcDbVertex
100
AcDb2dVertex
 10
2079.488051086777
 20
224.5733815282979
 30
0.0
 70
0
  0
VERTEX
  5
2B7
330
194
100
AcDbEntity
  8
8
100
AcDbVertex
100
AcDb2dVertex
 10
2068.6592933588345
 20
234.7434950546708
 30
0.0
 70
0
  0
VERTEX
  5
2B8
330
194
100
AcDbEntity
  8
8
100
AcDbVertex
100
AcDb2dVertex
 10
2060.5404758983245
 20
243.8042523028198
 30
0.0
 70
0
  0
VERTEX
  5
2B9
330
194
100
AcDbEntity
  8
8
100
AcDbVertex
100
AcDb2dVertex
 10
2055.050407558724
 20
251.23417898559683
 30
0.0
 70
0
  0
VERTEX
  5
2BA
330
194
100
AcDbEntity
  8
8
100
AcDbVertex
100
AcDb2dVertex
 10
2049.715506551791
 20
260.58022689608106
 30
0.0
 70
0
  0
VERTEX
  5
2BB
330
194
100
AcDbEntity
  8
8
100
AcDbVertex
100
AcDb2dVertex
 10
2046.9109146648957
 20
270.6788168577277
 30
0.0
 70
0
  0
SEQEND
  5
2AE
330
194
100
AcDbEntity
  8
8
  0
ENDBLK
  5
196
330
194
100
AcDbEntity
  8
0
100
AcDbBlockEnd
  0
BLOCK
  5
2BF
330
2BE
100
AcDbEntity
  8
0
100
AcDbBlockBegin
  2
LEM
 70
0
 10
0.0
 20
0.0
 30
0.0
  3
LEM
  1

  0
POLYLINE
  5
2C1
330
2BE
100
AcDbEntity
  8
1
100
AcDb2dPolyline
 66
1
 70
0
  0
VERTEX
  5
2C3
330
2BE
100
AcDbEntity
  8
1
100
AcDbVertex
100
AcDb2dVertex
 10
2166.54248046875
 20
144.67059326171875
 30
0.0
 70
0
  0
VERTEX
  5
2C4
330
2BE
100
AcDbEntity
  8
1
100
AcDbVertex
100
AcDb2dVertex
 10
2122.199462890625
 20
137.63970947265625
 30
0.0
 70
0
  0
VERTEX
  5
2C5
330
2BE
100
AcDbEntity
  8
1
100
AcDbVertex
100
AcDb2dVertex
 10
2077.008544921875
 20
132.38897705078125
 30
0.0
 70
0
  0
VERTEX
  5
2C6
330
2BE
100
AcDbEntity
  8
1
100
AcDbVertex
100
AcDb2dVertex
 10
1399.056396484375
 20
59.36236572265625
 30
0.0
 70
0
  0
VERTEX
  5
2C7
330
2BE
100
AcDbEntity
  8
1
100
AcDbVertex
100
AcDb2dVertex
 10
667.50927734375
 20
-11.56585693359375
 30
0.0
 70
0
  0
VERTEX
  5
2C8
330
2BE
100
AcDbEntity
  8
1
100
AcDbVertex
100
AcDb2dVertex
 10
-222.7122802734375
 20
-89.13323974609375
 30
0.0
 70
0
  0
VERTEX
  5
2C9
330
2BE
100
AcDbEntity
  8
1
100
AcDbVertex
100
AcDb2dVertex
 10
-1043.5892333984375
 20
-156.35040283203125
 30
0.0
 70
0
  0
VERTEX
  5
2CA
330
2BE
100
AcDbEntity
  8
1
100
AcDbVertex
100
AcDb2dVertex
 10
-1850.8287048339844
 20
-243.56207275390625
 30
0.0
 70
0
  0
VERTEX
  5
2CB
330
2BE
100
AcDbEntity
  8
1
100
AcDbVertex
100
AcDb2dVertex
 10
-2423.2552490234375
 20
-315.48919677734375
 30
0.0
 70
0
  0
VERTEX
  5
2CC
330
2BE
100
AcDbEntity
  8
1
100
AcDbVertex
100
AcDb2dVertex
 10
-2426.2156372070312
 20
-315.39678955078125
 30
0.0
 70
0
  0
VERTEX
  5
2CD
330
2BE
100
AcDbEntity
  8
1
100
AcDbVertex
100
AcDb2dVertex
 10
-2429.0665893554688
 20
-314.60198974609375
 30
0.0
 70
0
  0
VERTEX
  5
2CE
330
2BE
100
AcDbEntity
  8
1
100
AcDbVertex
100
AcDb2dVertex
 10
-2431.295654296875
 20
-313.39691162109375
 30
0.0
 70
0
  0
VERTEX
  5
2CF
330
2BE
100
AcDbEntity
  8
1
100
AcDbVertex
100
AcDb2dVertex
 10
-2433.2367553710938
 20
-311.76556396484375
 30
0.0
 70
0
  0
VERTEX
  5
2D0
330
2BE
100
AcDbEntity
  8
1
100
AcDbVertex
100
AcDb2dVertex
 10
-2457.5529174804688
 20
-275.74420166015625
 30
0.0
 70
0
  0
VERTEX
  5
2D1
330
2BE
100
AcDbEntity
  8
1
100
AcDbVertex
100
AcDb2dVertex
 10
-2499.6741333007812
 20
-210.90228271484375
 30
0.0
 70
0
  0
VERTEX
  5
2D2
330
2BE
100
AcDbEntity
  8
1
100
AcDbVertex
100
AcDb2dVertex
 10
-2530.3945922851562
 20
-161.60491943359375
 30
0.0
 70
0
  0
VERTEX
  5
2D3
330
2BE
100
AcDbEntity
  8
1
100
AcDbVertex
100
AcDb2dVertex
 10
-2560.0303955078125
 20
-111.85089111328125
 30
0.0
 70
0
  0
VERTEX
  5
2D4
330
2BE
100
AcDbEntity
  8
1
100
AcDbVertex
100
AcDb2dVertex
 10
-2578.9342041015625
 20
-78.57977294921875
 30
0.0
 70
0
  0
VERTEX
  5
2D5
330
2BE
100
AcDbEntity
  8
1
100
AcDbVertex
100
AcDb2dVertex
 10
-2600.4962768554688
 20
-38.89141845703125
 30
0.0
 70
0
  0
VERTEX
  5
2D6
330
2BE
100
AcDbEntity
  8
1
100
AcDbVertex
100
AcDb2dVertex
 10
-2601.9893798828125
 20
-35.45050048828125
 30
0.0
 70
0
  0
VERTEX
  5
2D7
330
2BE
100
AcDbEntity
  8
1
100
AcDbVertex
100
AcDb2dVertex
 10
-2602.454345703125
 20
-31.72064208984375
 30
0.0
 70
0
  0
VERTEX
  5
2D8
330
2BE
100
AcDbEntity
  8
1
100
AcDbVertex
100
AcDb2dVertex
 10
-2601.982177734375
 20
-28.62005615234375
 30
0.0
 70
0
  0
VERTEX
  5
2D9
330
2BE
100
AcDbEntity
  8
1
100
AcDbVertex
100
AcDb2dVertex
 10
-2601.0093994140625
 20
-26.14337158203125
 30
0.0
 70
0
  0
VERTEX
  5
2DA
330
2BE
100
AcDbEntity
  8
1
100
AcDbVertex
100
AcDb2dVertex
 10
-2599.5330810546875
 20
-23.92987060546875
 30
0.0
 70
0
  0
VERTEX
  5
2DB
330
2BE
100
AcDbEntity
  8
1
100
AcDbVertex
100
AcDb2dVertex
 10
-2585.8841552734375
 20
-10.18609619140625
 30
0.0
 70
0
  0
VERTEX
  5
2DC
330
2BE
100
AcDbEntity
  8
1
100
AcDbVertex
100
AcDb2dVertex
 10
-2574.0813598632812
 20
6.66009521484375
 30
0.0
 70
0
  0
VERTEX
  5
2DD
330
2BE
100
AcDbEntity
  8
1
100
AcDbVertex
100
AcDb2dVertex
 10
-2565.1422119140625
 20
25.41949462890625
 30
0.0
 70
0
  0
VERTEX
  5
2DE
330
2BE
100
AcDbEntity
  8
1
100
AcDbVertex
100
AcDb2dVertex
 10
-2559.6512451171875
 20
42.80804443359375
 30
0.0
 70
0
  0
VERTEX
  5
2DF
330
2BE
100
AcDbEntity
  8
1
100
AcDbVertex
100
AcDb2dVertex
 10
-2555.9986572265625
 20
59.77911376953125
 30
0.0
 70
0
  0
VERTEX
  5
2E0
330
2BE
100
AcDbEntity
  8
1
100
AcDbVertex
100
AcDb2dVertex
 10
-2553.7297973632812
 20
76.49798583984375
 30
0.0
 70
0
  0
VERTEX
  5
2E1
330
2BE
100
AcDbEntity
  8
1
100
AcDbVertex
100
AcDb2dVertex
 10
-2552.5843505859375
 20
93.11773681640625
 30
0.0
 70
0
  0
VERTEX
  5
2E2
330
2BE
100
AcDbEntity
  8
1
100
AcDbVertex
100
AcDb2dVertex
 10
-2551.9849243164062
 20
129.52935791015625
 30
0.0
 70
0
  0
VERTEX
  5
2E3
330
2BE
100
AcDbEntity
  8
1
100
AcDbVertex
100
AcDb2dVertex
 10
-2549.825439453125
 20
133.97100830078125
 30
0.0
 70
0
  0
VERTEX
  5
2E4
330
2BE
100
AcDbEntity
  8
1
100
AcDbVertex
100
AcDb2dVertex
 10
-2547.2807006835938
 20
136.53375244140625
 30
0.0
 70
0
  0
VERTEX
  5
2E5
330
2BE
100
AcDbEntity
  8
1
100
AcDbVertex
100
AcDb2dVertex
 10
-2544.1652221679688
 20
138.26324462890625
 30
0.0
 70
0
  0
VERTEX
  5
2E6
330
2BE
100
AcDbEntity
  8
1
100
AcDbVertex
100
AcDb2dVertex
 10
-2540.7265014648438
 20
139.03582763671875
 30
0.0
 70
0
  0
VERTEX
  5
2E7
330
2BE
100
AcDbEntity
  8
1
100
AcDbVertex
100
AcDb2dVertex
 10
-2537.23291015625
 20
138.80035400390625
 30
0.0
 70
0
  0
VERTEX
  5
2E8
330
2BE
100
AcDbEntity
  8
1
100
AcDbVertex
100
AcDb2dVertex
 10
-2533.9107666015625
 20
137.50189208984375
 30
0.0
 70
0
  0
VERTEX
  5
2E9
330
2BE
100
AcDbEntity
  8
1
100
AcDbVertex
100
AcDb2dVertex
 10
-2531.2061157226562
 20
135.30938720703125
 30
0.0
 70
0
  0
VERTEX
  5
2EA
330
2BE
100
AcDbEntity
  8
1
100
AcDbVertex
100
AcDb2dVertex
 10
-2528.1396484375
 20
130.58209228515625
 30
0.0
 70
0
  0
VERTEX
  5
2EB
330
2BE
100
AcDbEntity
  8
1
100
AcDbVertex
100
AcDb2dVertex
 10
-2527.1343994140625
 20
130.51239013671875
 30
0.0
 70
0
  0
VERTEX
  5
2EC
330
2BE
100
AcDbEntity
  8
1
100
AcDbVertex
100
AcDb2dVertex
 10
-2039.4784851074219
 20
158.17376708984375
 30
0.0
 70
0
  0
VERTEX
  5
2ED
330
2BE
100
AcDbEntity
  8
1
100
AcDbVertex
100
AcDb2dVertex
 10
-1203.0917663574219
 20
203.13128662109375
 30
0.0
 70
0
  0
VERTEX
  5
2EE
330
2BE
100
AcDbEntity
  8
1
100
AcDbVertex
100
AcDb2dVertex
 10
-290.3465576171875
 20
244.10736083984375
 30
0.0
 70
0
  0
VERTEX
  5
2EF
330
2BE
100
AcDbEntity
  8
1
100
AcDbVertex
100
AcDb2dVertex
 10
578.70849609375
 20
280.80706787109375
 30
0.0
 70
0
  0
VERTEX
  5
2F0
330
2BE
100
AcDbEntity
  8
1
100
AcDbVertex
100
AcDb2dVertex
 10
1283.4853515625
 20
308.92181396484375
 30
0.0
 70
0
  0
VERTEX
  5
2F1
330
2BE
100
AcDbEntity
  8
1
100
AcDbVertex
100
AcDb2dVertex
 10
2042.56591796875
 20
313.88641357421875
 30
0.0
 70
0
  0
VERTEX
  5
2F2
330
2BE
100
AcDbEntity
  8
1
100
AcDbVertex
100
AcDb2dVertex
 10
2183.740966796875
 20
313.25360107421875
 30
0.0
 70
0
  0
VERTEX
  5
2F3
330
2BE
100
AcDbEntity
  8
1
100
AcDbVertex
100
AcDb2dVertex
 10
2331.58984375
 20
313.56243896484375
 30
0.0
 70
0
  0
VERTEX
  5
2F4
330
2BE
100
AcDbEntity
  8
1
100
AcDbVertex
100
AcDb2dVertex
 10
2382.428955078125
 20
314.80169677734375
 30
0.0
 70
0
  0
VERTEX
  5
2F5
330
2BE
100
AcDbEntity
  8
1
100
AcDbVertex
100
AcDb2dVertex
 10
2431.373779296875
 20
315.33221435546875
 30
0.0
 70
0
  0
VERTEX
  5
2F6
330
2BE
100
AcDbEntity
  8
1
100
AcDbVertex
100
AcDb2dVertex
 10
2504.312744140625
 20
315.46917724609375
 30
0.0
 70
0
  0
VERTEX
  5
2F7
330
2BE
100
AcDbEntity
  8
1
100
AcDbVertex
100
AcDb2dVertex
 10
2558.393310546875
 20
315.07635498046875
 30
0.0
 70
0
  0
VERTEX
  5
2F8
330
2BE
100
AcDbEntity
  8
1
100
AcDbVertex
100
AcDb2dVertex
 10
2561.296142578125
 20
314.03778076171875
 30
0.0
 70
0
  0
VERTEX
  5
2F9
330
2BE
100
AcDbEntity
  8
1
100
AcDbVertex
100
AcDb2dVertex
 10
2563.718994140625
 20
312.13031005859375
 30
0.0
 70
0
  0
VERTEX
  5
2FA
330
2BE
100
AcDbEntity
  8
1
100
AcDbVertex
100
AcDb2dVertex
 10
2565.463134765625
 20
309.41497802734375
 30
0.0
 70
0
  0
VERTEX
  5
2FB
330
2BE
100
AcDbEntity
  8
1
100
AcDbVertex
100
AcDb2dVertex
 10
2568.246826171875
 20
301.72039794921875
 30
0.0
 70
0
  0
VERTEX
  5
2FC
330
2BE
100
AcDbEntity
  8
1
100
AcDbVertex
100
AcDb2dVertex
 10
2570.479248046875
 20
289.73944091796875
 30
0.0
 70
0
  0
VERTEX
  5
2FD
330
2BE
100
AcDbEntity
  8
1
100
AcDbVertex
100
AcDb2dVertex
 10
2572.211181640625
 20
283.42181396484375
 30
0.0
 70
0
  0
VERTEX
  5
2FE
330
2BE
100
AcDbEntity
  8
1
100
AcDbVertex
100
AcDb2dVertex
 10
2578.002685546875
 20
268.54779052734375
 30
0.0
 70
0
  0
VERTEX
  5
2FF
330
2BE
100
AcDbEntity
  8
1
100
AcDbVertex
100
AcDb2dVertex
 10
2586.898193359375
 20
252.06195068359375
 30
0.0
 70
0
  0
VERTEX
  5
300
330
2BE
100
AcDbEntity
  8
1
100
AcDbVertex
100
AcDb2dVertex
 10
2600.430908203125
 20
231.26068115234375
 30
0.0
 70
0
  0
VERTEX
  5
301
330
2BE
100
AcDbEntity
  8
1
100
AcDbVertex
100
AcDb2dVertex
 10
2601.740966796875
 20
228.61907958984375
 30
0.0
 70
0
  0
VERTEX
  5
302
330
2BE
100
AcDbEntity
  8
1
100
AcDbVertex
100
AcDb2dVertex
 10
2602.382568359375
 20
225.86419677734375
 30
0.0
 70
0
  0
VERTEX
  5
303
330
2BE
100
AcDbEntity
  8
1
100
AcDbVertex
100
AcDb2dVertex
 10
2602.383056640625
 20
222.99066162109375
 30
0.0
 70
0
  0
VERTEX
  5
304
330
2BE
100
AcDbEntity
  8
1
100
AcDbVertex
100
AcDb2dVertex
 10
2601.643310546875
 20
219.96722412109375
 30
0.0
 70
0
  0
VERTEX
  5
305
330
2BE
100
AcDbEntity
  8
1
100
AcDbVertex
100
AcDb2dVertex
 10
2599.801513671875
 20
216.71087646484375
 30
0.0
 70
0
  0
VERTEX
  5
306
330
2BE
100
AcDbEntity
  8
1
100
AcDbVertex
100
AcDb2dVertex
 10
2597.404052734375
 20
214.37591552734375
 30
0.0
 70
0
  0
VERTEX
  5
307
330
2BE
100
AcDbEntity
  8
1
100
AcDbVertex
100
AcDb2dVertex
 10
2594.473876953125
 20
212.76214599609375
 30
0.0
 70
0
  0
VERTEX
  5
308
330
2BE
100
AcDbEntity
  8
1
100
AcDbVertex
100
AcDb2dVertex
 10
2587.262451171875
 20
211.33709716796875
 30
0.0
 70
0
  0
VERTEX
  5
309
330
2BE
100
AcDbEntity
  8
1
100
AcDbVertex
100
AcDb2dVertex
 10
2166.54248046875
 20
144.67059326171875
 30
0.0
 70
0
  0
SEQEND
  5
2C2
330
2BE
100
AcDbEntity
  8
1
  0
POLYLINE
  5
30A
330
2BE
100
AcDbEntity
  8
8
100
AcDb2dPolyline
 66
1
 70
0
  0
VERTEX
  5
30C
330
2BE
100
AcDbEntity
  8
8
100
AcDbVertex
100
AcDb2dVertex
 10
747.3390920144984
 20
14.741932076462945
 30
0.0
 70
0
  0
VERTEX
  5
30D
330
2BE
100
AcDbEntity
  8
8
100
AcDbVertex
100
AcDb2dVertex
 10
1387.40991209287
 20
76.80057072779391
 30
0.0
 70
0
  0
VERTEX
  5
30E
330
2BE
100
AcDbEntity
  8
8
100
AcDbVertex
100
AcDb2dVertex
 10
2110.516517217446
 20
154.72701106867453
 30
0.0
 70
0
  0
VERTEX
  5
30F
330
2BE
100
AcDbEntity
  8
8
100
AcDbVertex
100
AcDb2dVertex
 10
2589.9918528284697
 20
230.4648161090763
 30
0.0
 70
0
  0
VERTEX
  5
310
330
2BE
100
AcDbEntity
  8
8
100
AcDbVertex
100
AcDb2dVertex
 10
2592.082473621239
 20
230.03954701830617
 30
0.0
 70
0
  0
VERTEX
  5
311
330
2BE
100
AcDbEntity
  8
8
100
AcDbVertex
100
AcDb2dVertex
 10
2593.7592030941496
 20
229.0827349927822
 30
0.0
 70
0
  0
VERTEX
  5
312
330
2BE
100
AcDbEntity
  8
8
100
AcDbVertex
100
AcDb2dVertex
 10
2604.093677191895
 20
214.51627934378757
 30
0.0
 70
0
  0
SEQEND
  5
30B
330
2BE
100
AcDbEntity
  8
8
  0
POLYLINE
  5
313
330
2BE
100
AcDbEntity
  8
8
100
AcDb2dPolyline
 66
1
 70
0
  0
VERTEX
  5
315
330
2BE
100
AcDbEntity
  8
8
100
AcDbVertex
100
AcDb2dVertex
 10
-2418.3359818100257
 20
-322.6701784775007
 30
0.0
 70
0
  0
VERTEX
  5
316
330
2BE
100
AcDbEntity
  8
8
100
AcDbVertex
100
AcDb2dVertex
 10
-2428.98408191428
 20
-306.77371851156454
 30
0.0
 70
0
  0
VERTEX
  5
317
330
2BE
100
AcDbEntity
  8
8
100
AcDbVertex
100
AcDb2dVertex
 10
-2430.1365932016884
 20
-304.3384557342338
 30
0.0
 70
0
  0
VERTEX
  5
318
330
2BE
100
AcDbEntity
  8
8
100
AcDbVertex
100
AcDb2dVertex
 10
-2430.1210398584617
 20
-301.64390885817284
 30
0.0
 70
0
  0
VERTEX
  5
319
330
2BE
100
AcDbEntity
  8
8
100
AcDbVertex
100
AcDb2dVertex
 10
-2429.658383750141
 20
-300.3658915508963
 30
0.0
 70
0
  0
VERTEX
  5
31A
330
2BE
100
AcDbEntity
  8
8
100
AcDbVertex
100
AcDb2dVertex
 10
-2427.947384560133
 20
-298.26742593533686
 30
0.0
 70
0
  0
VERTEX
  5
31B
330
2BE
100
AcDbEntity
  8
8
100
AcDbVertex
100
AcDb2dVertex
 10
-2426.782830100219
 20
-297.56120660143165
 30
0.0
 70
0
  0
VERTEX
  5
31C
330
2BE
100
AcDbEntity
  8
8
100
AcDbVertex
100
AcDb2dVertex
 10
-2417.4222721477004
 20
-296.0871334192798
 30
0.0
 70
0
  0
VERTEX
  5
31D
330
2BE
100
AcDbEntity
  8
8
100
AcDbVertex
100
AcDb2dVertex
 10
-1862.352380192373
 20
-226.3239526816119
 30
0.0
 70
0
  0
VERTEX
  5
31E
330
2BE
100
AcDbEntity
  8
8
100
AcDbVertex
100
AcDb2dVertex
 10
-1055.1311697272893
 20
-138.97767989240265
 30
0.0
 70
0
  0
VERTEX
  5
31F
330
2BE
100
AcDbEntity
  8
8
100
AcDbVertex
100
AcDb2dVertex
 10
-1032.4909638256345
 20
-136.8598547621432
 30
0.0
 70
0
  0
VERTEX
  5
320
330
2BE
100
AcDbEntity
  8
8
100
AcDbVertex
100
AcDb2dVertex
 10
-211.53945022420498
 20
-69.62360639963026
 30
0.0
 70
0
  0
VERTEX
  5
321
330
2BE
100
AcDbEntity
  8
8
100
AcDbVertex
100
AcDb2dVertex
 10
564.4997709252639
 20
-2.1763423463380605
 30
0.0
 70
0
  0
VERTEX
  5
322
330
2BE
100
AcDbEntity
  8
8
100
AcDbVertex
100
AcDb2dVertex
 10
655.8571753231722
 20
5.9280529976986145
 30
0.0
 70
0
  0
VERTEX
  5
323
330
2BE
100
AcDbEntity
  8
8
100
AcDbVertex
100
AcDb2dVertex
 10
724.4685275481934
 20
12.514393010962067
 30
0.0
 70
0
  0
SEQEND
  5
314
330
2BE
100
AcDbEntity
  8
8
  0
POLYLINE
  5
324
330
2BE
100
AcDbEntity
  8
8
100
AcDb2dPolyline
 66
1
 70
0
  0
VERTEX
  5
326
330
2BE
100
AcDbEntity
  8
8
100
AcDbVertex
100
AcDb2dVertex
 10
-1178.7661737091005
 20
198.10828449660585
 30
0.0
 70
0
  0
VERTEX
  5
327
330
2BE
100
AcDbEntity
  8
8
100
AcDbVertex
100
AcDb2dVertex
 10
-1132.0978091524473
 20
199.91864390026558
 30
0.0
 70
0
  0
VERTEX
  5
328
330
2BE
100
AcDbEntity
  8
8
100
AcDbVertex
100
AcDb2dVertex
 10
-1108.5645328962296
 20
201.28674214675993
 30
0.0
 70
0
  0
VERTEX
  5
329
330
2BE
100
AcDbEntity
  8
8
100
AcDbVertex
100
AcDb2dVertex
 10
-968.2234632650643
 20
207.56238504480416
 30
0.0
 70
0
  0
VERTEX
  5
32A
330
2BE
100
AcDbEntity
  8
8
100
AcDbVertex
100
AcDb2dVertex
 10
-944.9721743008259
 20
208.30437000087795
 30
0.0
 70
0
  0
VERTEX
  5
32B
330
2BE
100
AcDbEntity
  8
8
100
AcDbVertex
100
AcDb2dVertex
 10
-921.4516944564533
 20
209.65040426405722
 30
0.0
 70
0
  0
VERTEX
  5
32C
330
2BE
100
AcDbEntity
  8
8
100
AcDbVertex
100
AcDb2dVertex
 10
-898.2012384744305
 20
210.39638380985798
 30
0.0
 70
0
  0
VERTEX
  5
32D
330
2BE
100
AcDbEntity
  8
8
100
AcDbVertex
100
AcDb2dVertex
 10
-874.681941974643
 20
211.7391877866694
 30
0.0
 70
0
  0
VERTEX
  5
32E
330
2BE
100
AcDbEntity
  8
8
100
AcDbVertex
100
AcDb2dVertex
 10
-851.431724760304
 20
212.48967639870352
 30
0.0
 70
0
  0
VERTEX
  5
32F
330
2BE
100
AcDbEntity
  8
8
100
AcDbVertex
100
AcDb2dVertex
 10
-827.9133114755913
 20
213.82959343581842
 30
0.0
 70
0
  0
VERTEX
  5
330
330
2BE
100
AcDbEntity
  8
8
100
AcDbVertex
100
AcDb2dVertex
 10
-781.2789124571703
 20
215.63231903599763
 30
0.0
 70
0
  0
VERTEX
  5
331
330
2BE
100
AcDbEntity
  8
8
100
AcDbVertex
100
AcDb2dVertex
 10
-757.7615309061217
 20
216.96777272028658
 30
0.0
 70
0
  0
VERTEX
  5
332
330
2BE
100
AcDbEntity
  8
8
100
AcDbVertex
100
AcDb2dVertex
 10
-734.5107355518775
 20
217.7290938511428
 30
0.0
 70
0
  0
VERTEX
  5
333
330
2BE
100
AcDbEntity
  8
8
100
AcDbVertex
100
AcDb2dVertex
 10
-710.9939828560682
 20
219.0616342334588
 30
0.0
 70
0
  0
VERTEX
  5
334
330
2BE
100
AcDbEntity
  8
8
100
AcDbVertex
100
AcDb2dVertex
 10
-617.5906236596638
 20
222.9788348110419
 30
0.0
 70
0
  0
VERTEX
  5
335
330
2BE
100
AcDbEntity
  8
8
100
AcDbVertex
100
AcDb2dVertex
 10
-594.0745789201405
 20
224.3029376824784
 30
0.0
 70
0
  0
VERTEX
  5
336
330
2BE
100
AcDbEntity
  8
8
100
AcDbVertex
100
AcDb2dVertex
 10
-313.1739683147025
 20
236.82055749587926
 30
0.0
 70
0
  0
VERTEX
  5
337
330
2BE
100
AcDbEntity
  8
8
100
AcDbVertex
100
AcDb2dVertex
 10
508.56249115937
 20
271.3980643029845
 30
0.0
 70
0
  0
VERTEX
  5
338
330
2BE
100
AcDbEntity
  8
8
100
AcDbVertex
100
AcDb2dVertex
 10
1283.705760467978
 20
302.3685061912738
 30
0.0
 70
0
  0
VERTEX
  5
339
330
2BE
100
AcDbEntity
  8
8
100
AcDbVertex
100
AcDb2dVertex
 10
1307.4158593409825
 20
302.56495367215757
 30
0.0
 70
0
  0
VERTEX
  5
33A
330
2BE
100
AcDbEntity
  8
8
100
AcDbVertex
100
AcDb2dVertex
 10
2041.8531381833595
 20
306.9078562673317
 30
0.0
 70
0
  0
VERTEX
  5
33B
330
2BE
100
AcDbEntity
  8
8
100
AcDbVertex
100
AcDb2dVertex
 10
2557.268639500009
 20
303.9228675128393
 30
0.0
 70
0
  0
VERTEX
  5
33C
330
2BE
100
AcDbEntity
  8
8
100
AcDbVertex
100
AcDb2dVertex
 10
2560.0541237342986
 20
302.6408025682899
 30
0.0
 70
0
  0
VERTEX
  5
33D
330
2BE
100
AcDbEntity
  8
8
100
AcDbVertex
100
AcDb2dVertex
 10
2561.5996051627026
 20
300.72886085395703
 30
0.0
 70
0
  0
VERTEX
  5
33E
330
2BE
100
AcDbEntity
  8
8
100
AcDbVertex
100
AcDb2dVertex
 10
2562.184918096542
 20
299.3188029905723
 30
0.0
 70
0
  0
VERTEX
  5
33F
330
2BE
100
AcDbEntity
  8
8
100
AcDbVertex
100
AcDb2dVertex
 10
2563.816656320293
 20
289.6738196482693
 30
0.0
 70
0
  0
VERTEX
  5
340
330
2BE
100
AcDbEntity
  8
8
100
AcDbVertex
100
AcDb2dVertex
 10
2566.451144652431
 20
280.1303776568152
 30
0.0
 70
0
  0
VERTEX
  5
341
330
2BE
100
AcDbEntity
  8
8
100
AcDbVertex
100
AcDb2dVertex
 10
2569.783367592441
 20
271.1385705959615
 30
0.0
 70
0
  0
VERTEX
  5
342
330
2BE
100
AcDbEntity
  8
8
100
AcDbVertex
100
AcDb2dVertex
 10
2573.7582842680213
 20
262.41035314344526
 30
0.0
 70
0
  0
VERTEX
  5
343
330
2BE
100
AcDbEntity
  8
8
100
AcDbVertex
100
AcDb2dVertex
 10
2581.3394530088026
 20
248.69050023108866
 30
0.0
 70
0
  0
VERTEX
  5
344
330
2BE
100
AcDbEntity
  8
8
100
AcDbVertex
100
AcDb2dVertex
 10
2595.0791349303618
 20
227.56695995975178
 30
0.0
 70
0
  0
VERTEX
  5
345
330
2BE
100
AcDbEntity
  8
8
100
AcDbVertex
100
AcDb2dVertex
 10
2595.9507888603403
 20
224.83798344377828
 30
0.0
 70
0
  0
VERTEX
  5
346
330
2BE
100
AcDbEntity
  8
8
100
AcDbVertex
100
AcDb2dVertex
 10
2595.850422730524
 20
223.30251731987983
 30
0.0
 70
0
  0
VERTEX
  5
347
330
2BE
100
AcDbEntity
  8
8
100
AcDbVertex
100
AcDb2dVertex
 10
2594.415624050018
 20
220.345458586708
 30
0.0
 70
0
  0
VERTEX
  5
348
330
2BE
100
AcDbEntity
  8
8
100
AcDbVertex
100
AcDb2dVertex
 10
2593.0708358092043
 20
219.22760638944283
 30
0.0
 70
0
  0
VERTEX
  5
349
330
2BE
100
AcDbEntity
  8
8
100
AcDbVertex
100
AcDb2dVertex
 10
2591.4613962188296
 20
218.56439681779648
 30
0.0
 70
0
  0
VERTEX
  5
34A
330
2BE
100
AcDbEntity
  8
8
100
AcDbVertex
100
AcDb2dVertex
 10
2118.1012632665224
 20
143.57886173367842
 30
0.0
 70
0
  0
VERTEX
  5
34B
330
2BE
100
AcDbEntity
  8
8
100
AcDbVertex
100
AcDb2dVertex
 10
2004.971539536169
 20
131.05951734369341
 30
0.0
 70
0
  0
VERTEX
  5
34C
330
2BE
100
AcDbEntity
  8
8
100
AcDbVertex
100
AcDb2dVertex
 10
1394.9544127501576
 20
65.46045776636515
 30
0.0
 70
0
  0
VERTEX
  5
34D
330
2BE
100
AcDbEntity
  8
8
100
AcDbVertex
100
AcDb2dVertex
 10
686.2482588012394
 20
-3.248740973835311
 30
0.0
 70
0
  0
VERTEX
  5
34E
330
2BE
100
AcDbEntity
  8
8
100
AcDbVertex
100
AcDb2dVertex
 10
594.8410842243848
 20
-11.546917340459913
 30
0.0
 70
0
  0
VERTEX
  5
34F
330
2BE
100
AcDbEntity
  8
8
100
AcDbVertex
100
AcDb2dVertex
 10
-226.82905675926236
 20
-82.95499117415193
 30
0.0
 70
0
  0
VERTEX
  5
350
330
2BE
100
AcDbEntity
  8
8
100
AcDbVertex
100
AcDb2dVertex
 10
-1047.6640549611443
 20
-150.24171505084792
 30
0.0
 70
0
  0
VERTEX
  5
351
330
2BE
100
AcDbEntity
  8
8
100
AcDbVertex
100
AcDb2dVertex
 10
-1854.8903937474504
 20
-237.49768811585886
 30
0.0
 70
0
  0
VERTEX
  5
352
330
2BE
100
AcDbEntity
  8
8
100
AcDbVertex
100
AcDb2dVertex
 10
-2424.4744758818033
 20
-309.00338579479194
 30
0.0
 70
0
  0
VERTEX
  5
353
330
2BE
100
AcDbEntity
  8
8
100
AcDbVertex
100
AcDb2dVertex
 10
-2426.962925821385
 20
-308.3807738031169
 30
0.0
 70
0
  0
VERTEX
  5
354
330
2BE
100
AcDbEntity
  8
8
100
AcDbVertex
100
AcDb2dVertex
 10
-2428.958080820431
 20
-306.7704330158035
 30
0.0
 70
0
  0
VERTEX
  5
355
330
2BE
100
AcDbEntity
  8
8
100
AcDbVertex
100
AcDb2dVertex
 10
-2439.689422040673
 20
-290.83321347431456
 30
0.0
 70
0
  0
VERTEX
  5
356
330
2BE
100
AcDbEntity
  8
8
100
AcDbVertex
100
AcDb2dVertex
 10
-2471.5187755518846
 20
-242.62756072522416
 30
0.0
 70
0
  0
VERTEX
  5
357
330
2BE
100
AcDbEntity
  8
8
100
AcDbVertex
100
AcDb2dVertex
 10
-2513.0817644344856
 20
-177.34422893769693
 30
0.0
 70
0
  0
VERTEX
  5
358
330
2BE
100
AcDbEntity
  8
8
100
AcDbVertex
100
AcDb2dVertex
 10
-2543.148034832587
 20
-127.81326089008326
 30
0.0
 70
0
  0
VERTEX
  5
359
330
2BE
100
AcDbEntity
  8
8
100
AcDbVertex
100
AcDb2dVertex
 10
-2562.4492233042893
 20
-94.58099050987903
 30
0.0
 70
0
  0
VERTEX
  5
35A
330
2BE
100
AcDbEntity
  8
8
100
AcDbVertex
100
AcDb2dVertex
 10
-2589.871975286689
 20
-44.895071173480346
 30
0.0
 70
0
  0
VERTEX
  5
35B
330
2BE
100
AcDbEntity
  8
8
100
AcDbVertex
100
AcDb2dVertex
 10
-2595.191293312621
 20
-34.854056533556104
 30
0.0
 70
0
  0
VERTEX
  5
35C
330
2BE
100
AcDbEntity
  8
8
100
AcDbVertex
100
AcDb2dVertex
 10
-2595.8994617278126
 20
-32.580044789798876
 30
0.0
 70
0
  0
VERTEX
  5
35D
330
2BE
100
AcDbEntity
  8
8
100
AcDbVertex
100
AcDb2dVertex
 10
-2595.652781244849
 20
-30.157602867954438
 30
0.0
 70
0
  0
VERTEX
  5
35E
330
2BE
100
AcDbEntity
  8
8
100
AcDbVertex
100
AcDb2dVertex
 10
-2594.500700896346
 20
-28.03729099061661
 30
0.0
 70
0
  0
VERTEX
  5
35F
330
2BE
100
AcDbEntity
  8
8
100
AcDbVertex
100
AcDb2dVertex
 10
-2585.135860248976
 20
-19.076962060087
 30
0.0
 70
0
  0
VERTEX
  5
360
330
2BE
100
AcDbEntity
  8
8
100
AcDbVertex
100
AcDb2dVertex
 10
-2576.983856074672
 20
-9.515827511770112
 30
0.0
 70
0
  0
VERTEX
  5
361
330
2BE
100
AcDbEntity
  8
8
100
AcDbVertex
100
AcDb2dVertex
 10
-2570.663694499834
 20
-0.3990593611958957
 30
0.0
 70
0
  0
VERTEX
  5
362
330
2BE
100
AcDbEntity
  8
8
100
AcDbVertex
100
AcDb2dVertex
 10
-2565.794622756587
 20
8.393248855341199
 30
0.0
 70
0
  0
VERTEX
  5
363
330
2BE
100
AcDbEntity
  8
8
100
AcDbVertex
100
AcDb2dVertex
 10
-2558.006913882425
 20
25.919012090703518
 30
0.0
 70
0
  0
VERTEX
  5
364
330
2BE
100
AcDbEntity
  8
8
100
AcDbVertex
100
AcDb2dVertex
 10
-2552.810150577995
 20
43.269426672051395
 30
0.0
 70
0
  0
VERTEX
  5
365
330
2BE
100
AcDbEntity
  8
8
100
AcDbVertex
100
AcDb2dVertex
 10
-2549.62149878751
 20
58.498247985603484
 30
0.0
 70
0
  0
VERTEX
  5
366
330
2BE
100
AcDbEntity
  8
8
100
AcDbVertex
100
AcDb2dVertex
 10
-2547.10173870476
 20
76.92420529612468
 30
0.0
 70
0
  0
VERTEX
  5
367
330
2BE
100
AcDbEntity
  8
8
100
AcDbVertex
100
AcDb2dVertex
 10
-2546.060380122839
 20
93.51007975781908
 30
0.0
 70
0
  0
VERTEX
  5
368
330
2BE
100
AcDbEntity
  8
8
100
AcDbVertex
100
AcDb2dVertex
 10
-2545.7473364006323
 20
127.76764924999839
 30
0.0
 70
0
  0
VERTEX
  5
369
330
2BE
100
AcDbEntity
  8
8
100
AcDbVertex
100
AcDb2dVertex
 10
-2544.726876285733
 20
129.35281569378753
 30
0.0
 70
0
  0
VERTEX
  5
36A
330
2BE
100
AcDbEntity
  8
8
100
AcDbVertex
100
AcDb2dVertex
 10
-2543.8541551879584
 20
129.98132897071378
 30
0.0
 70
0
  0
VERTEX
  5
36B
330
2BE
100
AcDbEntity
  8
8
100
AcDbVertex
100
AcDb2dVertex
 10
-2541.5897470402115
 20
130.76165442011484
 30
0.0
 70
0
  0
VERTEX
  5
36C
330
2BE
100
AcDbEntity
  8
8
100
AcDbVertex
100
AcDb2dVertex
 10
-2537.744070301572
 20
130.60196581384025
 30
0.0
 70
0
  0
VERTEX
  5
36D
330
2BE
100
AcDbEntity
  8
8
100
AcDbVertex
100
AcDb2dVertex
 10
-2535.6081388179773
 20
129.63042379281205
 30
0.0
 70
0
  0
VERTEX
  5
36E
330
2BE
100
AcDbEntity
  8
8
100
AcDbVertex
100
AcDb2dVertex
 10
-2532.8702278711507
 20
126.73342276693211
 30
0.0
 70
0
  0
VERTEX
  5
36F
330
2BE
100
AcDbEntity
  8
8
100
AcDbVertex
100
AcDb2dVertex
 10
-2531.704061496907
 20
124.43694149827456
 30
0.0
 70
0
  0
VERTEX
  5
370
330
2BE
100
AcDbEntity
  8
8
100
AcDbVertex
100
AcDb2dVertex
 10
-2316.3376848087755
 20
136.60626610219015
 30
0.0
 70
0
  0
VERTEX
  5
371
330
2BE
100
AcDbEntity
  8
8
100
AcDbVertex
100
AcDb2dVertex
 10
-2293.3081253547166
 20
137.53502700403806
 30
0.0
 70
0
  0
VERTEX
  5
372
330
2BE
100
AcDbEntity
  8
8
100
AcDbVertex
100
AcDb2dVertex
 10
-2270.009313737076
 20
139.22432521146925
 30
0.0
 70
0
  0
VERTEX
  5
373
330
2BE
100
AcDbEntity
  8
8
100
AcDbVertex
100
AcDb2dVertex
 10
-2200.516119991246
 20
143.15314223952828
 30
0.0
 70
0
  0
VERTEX
  5
374
330
2BE
100
AcDbEntity
  8
8
100
AcDbVertex
100
AcDb2dVertex
 10
-2177.486972192706
 20
144.0824626946553
 30
0.0
 70
0
  0
VERTEX
  5
375
330
2BE
100
AcDbEntity
  8
8
100
AcDbVertex
100
AcDb2dVertex
 10
-2154.1865165827107
 20
145.77318196348506
 30
0.0
 70
0
  0
VERTEX
  5
376
330
2BE
100
AcDbEntity
  8
8
100
AcDbVertex
100
AcDb2dVertex
 10
-2107.990674645405
 20
148.01404545884543
 30
0.0
 70
0
  0
VERTEX
  5
377
330
2BE
100
AcDbEntity
  8
8
100
AcDbVertex
100
AcDb2dVertex
 10
-2084.687537495404
 20
149.70191737776622
 30
0.0
 70
0
  0
VERTEX
  5
378
330
2BE
100
AcDbEntity
  8
8
100
AcDbVertex
100
AcDb2dVertex
 10
-2038.311643623252
 20
152.280116595844
 30
0.0
 70
0
  0
VERTEX
  5
379
330
2BE
100
AcDbEntity
  8
8
100
AcDbVertex
100
AcDb2dVertex
 10
-1992.0008525414921
 20
154.39579300209425
 30
0.0
 70
0
  0
VERTEX
  5
37A
330
2BE
100
AcDbEntity
  8
8
100
AcDbVertex
100
AcDb2dVertex
 10
-1968.6414844969263
 20
156.0146386575907
 30
0.0
 70
0
  0
VERTEX
  5
37B
330
2BE
100
AcDbEntity
  8
8
100
AcDbVertex
100
AcDb2dVertex
 10
-1899.1144952813795
 20
159.3677100171003
 30
0.0
 70
0
  0
VERTEX
  5
37C
330
2BE
100
AcDbEntity
  8
8
100
AcDbVertex
100
AcDb2dVertex
 10
-1875.7566626517023
 20
160.98326514384894
 30
0.0
 70
0
  0
VERTEX
  5
37D
330
2BE
100
AcDbEntity
  8
8
100
AcDbVertex
100
AcDb2dVertex
 10
-1829.4534103408994
 20
163.0982644395017
 30
0.0
 70
0
  0
VERTEX
  5
37E
330
2BE
100
AcDbEntity
  8
8
100
AcDbVertex
100
AcDb2dVertex
 10
-1806.096377299548
 20
164.7115836552132
 30
0.0
 70
0
  0
VERTEX
  5
37F
330
2BE
100
AcDbEntity
  8
8
100
AcDbVertex
100
AcDb2dVertex
 10
-1783.0134387231155
 20
165.58741348930016
 30
0.0
 70
0
  0
VERTEX
  5
380
330
2BE
100
AcDbEntity
  8
8
100
AcDbVertex
100
AcDb2dVertex
 10
-1759.6565713340879
 20
167.1992793230188
 30
0.0
 70
0
  0
VERTEX
  5
381
330
2BE
100
AcDbEntity
  8
8
100
AcDbVertex
100
AcDb2dVertex
 10
-1689.9972266832972
 20
170.9329831118523
 30
0.0
 70
0
  0
VERTEX
  5
382
330
2BE
100
AcDbEntity
  8
8
100
AcDbVertex
100
AcDb2dVertex
 10
-1666.9136834869546
 20
171.81732271687702
 30
0.0
 70
0
  0
VERTEX
  5
383
330
2BE
100
AcDbEntity
  8
8
100
AcDbVertex
100
AcDb2dVertex
 10
-1643.5574930456337
 20
173.4242009889167
 30
0.0
 70
0
  0
VERTEX
  5
384
330
2BE
100
AcDbEntity
  8
8
100
AcDbVertex
100
AcDb2dVertex
 10
-1620.4737563816852
 20
174.31252377824057
 30
0.0
 70
0
  0
VERTEX
  5
385
330
2BE
100
AcDbEntity
  8
8
100
AcDbVertex
100
AcDb2dVertex
 10
-1597.1176471067708
 20
175.91666067288384
 30
0.0
 70
0
  0
VERTEX
  5
386
330
2BE
100
AcDbEntity
  8
8
100
AcDbVertex
100
AcDb2dVertex
 10
-1527.5930531218155
 20
179.30721828598234
 30
0.0
 70
0
  0
VERTEX
  5
387
330
2BE
100
AcDbEntity
  8
8
100
AcDbVertex
100
AcDb2dVertex
 10
-1504.237372010558
 20
180.90628333841732
 30
0.0
 70
0
  0
VERTEX
  5
388
330
2BE
100
AcDbEntity
  8
8
100
AcDbVertex
100
AcDb2dVertex
 10
-1481.15209784361
 20
181.8075064648906
 30
0.0
 70
0
  0
VERTEX
  5
389
330
2BE
100
AcDbEntity
  8
8
100
AcDbVertex
100
AcDb2dVertex
 10
-1457.7963692471776
 20
183.4036007669274
 30
0.0
 70
0
  0
VERTEX
  5
38A
330
2BE
100
AcDbEntity
  8
8
100
AcDbVertex
100
AcDb2dVertex
 10
-1411.4886383906974
 20
185.56173860768422
 30
0.0
 70
0
  0
VERTEX
  5
38B
330
2BE
100
AcDbEntity
  8
8
100
AcDbVertex
100
AcDb2dVertex
 10
-1388.1315729497685
 20
187.15293082363814
 30
0.0
 70
0
  0
VERTEX
  5
38C
330
2BE
100
AcDbEntity
  8
8
100
AcDbVertex
100
AcDb2dVertex
 10
-1202.174054636881
 20
197.02424058989664
 30
0.0
 70
0
  0
SEQEND
  5
325
330
2BE
100
AcDbEntity
  8
8
  0
POLYLINE
  5
38D
330
2BE
100
AcDbEntity
  8
8
100
AcDb2dPolyline
 66
1
 70
0
  0
VERTEX
  5
38F
330
2BE
100
AcDbEntity
  8
8
100
AcDbVertex
100
AcDb2dVertex
 10
627.873537424925
 20
264.2848769899283
 30
0.0
 70
0
  0
VERTEX
  5
390
330
2BE
100
AcDbEntity
  8
8
100
AcDbVertex
100
AcDb2dVertex
 10
-334.46663454220516
 20
223.90531746530542
 30
0.0
 70
0
  0
VERTEX
  5
391
330
2BE
100
AcDbEntity
  8
8
100
AcDbVertex
100
AcDb2dVertex
 10
-1199.5254341473212
 20
185.1483984943966
 30
0.0
 70
0
  0
VERTEX
  5
392
330
2BE
100
AcDbEntity
  8
8
100
AcDbVertex
100
AcDb2dVertex
 10
-2058.425502877817
 20
139.16967395174993
 30
0.0
 70
0
  0
VERTEX
  5
393
330
2BE
100
AcDbEntity
  8
8
100
AcDbVertex
100
AcDb2dVertex
 10
-2536.4448605442844
 20
112.29629653008283
 30
0.0
 70
0
  0
VERTEX
  5
394
330
2BE
100
AcDbEntity
  8
8
100
AcDbVertex
100
AcDb2dVertex
 10
-2538.437013611932
 20
113.05419347617499
 30
0.0
 70
0
  0
VERTEX
  5
395
330
2BE
100
AcDbEntity
  8
8
100
AcDbVertex
100
AcDb2dVertex
 10
-2540.6383387606543
 20
115.33266549840118
 30
0.0
 70
0
  0
VERTEX
  5
396
330
2BE
100
AcDbEntity
  8
8
100
AcDbVertex
100
AcDb2dVertex
 10
-2541.469918162439
 20
118.37178586646064
 30
0.0
 70
0
  0
VERTEX
  5
397
330
2BE
100
AcDbEntity
  8
8
100
AcDbVertex
100
AcDb2dVertex
 10
-2542.0479324852654
 20
126.18817468397992
 30
0.0
 70
0
  0
VERTEX
  5
398
330
2BE
100
AcDbEntity
  8
8
100
AcDbVertex
100
AcDb2dVertex
 10
-2547.047215061604
 20
141.4679578303119
 30
0.0
 70
0
  0
VERTEX
  5
399
330
2BE
100
AcDbEntity
  8
8
100
AcDbVertex
100
AcDb2dVertex
 10
-2550.2362906847793
 20
145.1334528753439
 30
0.0
 70
0
  0
VERTEX
  5
39A
330
2BE
100
AcDbEntity
  8
8
100
AcDbVertex
100
AcDb2dVertex
 10
-2552.726443299581
 20
148.90711038405266
 30
0.0
 70
0
  0
SEQEND
  5
38E
330
2BE
100
AcDbEntity
  8
8
  0
POLYLINE
  5
39B
330
2BE
100
AcDbEntity
  8
8
100
AcDb2dPolyline
 66
1
 70
0
  0
VERTEX
  5
39D
330
2BE
100
AcDbEntity
  8
8
100
AcDbVertex
100
AcDb2dVertex
 10
2569.280933333015
 20
311.87395093392297
 30
0.0
 70
0
  0
VERTEX
  5
39E
330
2BE
100
AcDbEntity
  8
8
100
AcDbVertex
100
AcDb2dVertex
 10
2562.425095451251
 20
301.8172334859428
 30
0.0
 70
0
  0
VERTEX
  5
39F
330
2BE
100
AcDbEntity
  8
8
100
AcDbVertex
100
AcDb2dVertex
 10
2562.2326967900053
 20
296.2425092578892
 30
0.0
 70
0
  0
VERTEX
  5
3A0
330
2BE
100
AcDbEntity
  8
8
100
AcDbVertex
100
AcDb2dVertex
 10
2561.4373807266975
 20
294.44411975060757
 30
0.0
 70
0
  0
VERTEX
  5
3A1
330
2BE
100
AcDbEntity
  8
8
100
AcDbVertex
100
AcDb2dVertex
 10
2560.099975870442
 20
292.9592766462647
 30
0.0
 70
0
  0
VERTEX
  5
3A2
330
2BE
100
AcDbEntity
  8
8
100
AcDbVertex
100
AcDb2dVertex
 10
2558.4862340485197
 20
292.0802459190154
 30
0.0
 70
0
  0
VERTEX
  5
3A3
330
2BE
100
AcDbEntity
  8
8
100
AcDbVertex
100
AcDb2dVertex
 10
2556.673762088174
 20
291.7392926112384
 30
0.0
 70
0
  0
VERTEX
  5
3A4
330
2BE
100
AcDbEntity
  8
8
100
AcDbVertex
100
AcDb2dVertex
 10
2043.4137758732586
 20
294.91098853060294
 30
0.0
 70
0
  0
VERTEX
  5
3A5
330
2BE
100
AcDbEntity
  8
8
100
AcDbVertex
100
AcDb2dVertex
 10
1285.5506689429717
 20
290.40692113464684
 30
0.0
 70
0
  0
VERTEX
  5
3A6
330
2BE
100
AcDbEntity
  8
8
100
AcDbVertex
100
AcDb2dVertex
 10
651.4103465522703
 20
265.26512105653273
 30
0.0
 70
0
  0
SEQEND
  5
39C
330
2BE
100
AcDbEntity
  8
8
  0
POLYLINE
  5
3A7
330
2BE
100
AcDbEntity
  8
8
100
AcDb2dPolyline
 66
1
 70
0
  0
VERTEX
  5
3A9
330
2BE
100
AcDbEntity
  8
8
100
AcDbVertex
100
AcDb2dVertex
 10
-1879.9359797811321
 20
-274.5188524617208
 30
0.0
 70
0
  0
VERTEX
  5
3AA
330
2BE
100
AcDbEntity
  8
8
100
AcDbVertex
100
AcDb2dVertex
 10
-1923.511768338868
 20
-213.25103402938885
 30
0.0
 70
0
  0
VERTEX
  5
3AB
330
2BE
100
AcDbEntity
  8
8
100
AcDbVertex
100
AcDb2dVertex
 10
-1944.399034577503
 20
-183.1270401065167
 30
0.0
 70
0
  0
VERTEX
  5
3AC
330
2BE
100
AcDbEntity
  8
8
100
AcDbVertex
100
AcDb2dVertex
 10
-1984.3279644467652
 20
-123.67325897891033
 30
0.0
 70
0
  0
VERTEX
  5
3AD
330
2BE
100
AcDbEntity
  8
8
100
AcDbVertex
100
AcDb2dVertex
 10
-2005.1371595109874
 20
-91.36143420331882
 30
0.0
 70
0
  0
VERTEX
  5
3AE
330
2BE
100
AcDbEntity
  8
8
100
AcDbVertex
100
AcDb2dVertex
 10
-2024.215535192155
 20
-60.59046040461794
 30
0.0
 70
0
  0
VERTEX
  5
3AF
330
2BE
100
AcDbEntity
  8
8
100
AcDbVertex
100
AcDb2dVertex
 10
-2041.5631062658936
 20
-31.529192495483812
 30
0.0
 70
0
  0
VERTEX
  5
3B0
330
2BE
100
AcDbEntity
  8
8
100
AcDbVertex
100
AcDb2dVertex
 10
-2058.9293358435093
 20
-1.1075632734221017
 30
0.0
 70
0
  0
VERTEX
  5
3B1
330
2BE
100
AcDbEntity
  8
8
100
AcDbVertex
100
AcDb2dVertex
 10
-2074.578351442842
 20
27.82260151158198
 30
0.0
 70
0
  0
VERTEX
  5
3B2
330
2BE
100
AcDbEntity
  8
8
100
AcDbVertex
100
AcDb2dVertex
 10
-2081.563222066424
 20
41.61591276342892
 30
0.0
 70
0
  0
VERTEX
  5
3B3
330
2BE
100
AcDbEntity
  8
8
100
AcDbVertex
100
AcDb2dVertex
 10
-2090.282506405329
 20
59.492343278446015
 30
0.0
 70
0
  0
VERTEX
  5
3B4
330
2BE
100
AcDbEntity
  8
8
100
AcDbVertex
100
AcDb2dVertex
 10
-2104.3608738569365
 20
91.39017964709251
 30
0.0
 70
0
  0
VERTEX
  5
3B5
330
2BE
100
AcDbEntity
  8
8
100
AcDbVertex
100
AcDb2dVertex
 10
-2114.9474919155473
 20
118.92299763884125
 30
0.0
 70
0
  0
VERTEX
  5
3B6
330
2BE
100
AcDbEntity
  8
8
100
AcDbVertex
100
AcDb2dVertex
 10
-2120.2964188767723
 20
136.24354609741226
 30
0.0
 70
0
  0
VERTEX
  5
3B7
330
2BE
100
AcDbEntity
  8
8
100
AcDbVertex
100
AcDb2dVertex
 10
-2124.0139631270745
 20
149.49776675476073
 30
0.0
 70
0
  0
VERTEX
  5
3B8
330
2BE
100
AcDbEntity
  8
8
100
AcDbVertex
100
AcDb2dVertex
 10
-2126.9803448797948
 20
166.34132962482613
 30
0.0
 70
0
  0
SEQEND
  5
3A8
330
2BE
100
AcDbEntity
  8
8
  0
POLYLINE
  5
3B9
330
2BE
100
AcDbEntity
  8
8
100
AcDb2dPolyline
 66
1
 70
0
  0
VERTEX
  5
3BB
330
2BE
100
AcDbEntity
  8
8
100
AcDbVertex
100
AcDb2dVertex
 10
-1104.987503111491
 20
-181.95701052955724
 30
0.0
 70
0
  0
VERTEX
  5
3BC
330
2BE
100
AcDbEntity
  8
8
100
AcDbVertex
100
AcDb2dVertex
 10
-1149.624249480717
 20
-121.01545255385759
 30
0.0
 70
0
  0
VERTEX
  5
3BD
330
2BE
100
AcDbEntity
  8
8
100
AcDbVertex
100
AcDb2dVertex
 10
-1179.9523493890654
 20
-77.80997347621656
 30
0.0
 70
0
  0
VERTEX
  5
3BE
330
2BE
100
AcDbEntity
  8
8
100
AcDbVertex
100
AcDb2dVertex
 10
-1197.785723316324
 20
-51.50016626588376
 30
0.0
 70
0
  0
VERTEX
  5
3BF
330
2BE
100
AcDbEntity
  8
8
100
AcDbVertex
100
AcDb2dVertex
 10
-1215.5876957802836
 20
-24.353337262346486
 30
0.0
 70
0
  0
VERTEX
  5
3C0
330
2BE
100
AcDbEntity
  8
8
100
AcDbVertex
100
AcDb2dVertex
 10
-1231.6332255636385
 20
1.0684779987002457
 30
0.0
 70
0
  0
VERTEX
  5
3C1
330
2BE
100
AcDbEntity
  8
8
100
AcDbVertex
100
AcDb2dVertex
 10
-1249.4446444360437
 20
30.544587634425852
 30
0.0
 70
0
  0
VERTEX
  5
3C2
330
2BE
100
AcDbEntity
  8
8
100
AcDbVertex
100
AcDb2dVertex
 10
-1263.7398203527428
 20
55.39657935183891
 30
0.0
 70
0
  0
VERTEX
  5
3C3
330
2BE
100
AcDbEntity
  8
8
100
AcDbVertex
100
AcDb2dVertex
 10
-1278.0367345770892
 20
81.6488730580154
 30
0.0
 70
0
  0
VERTEX
  5
3C4
330
2BE
100
AcDbEntity
  8
8
100
AcDbVertex
100
AcDb2dVertex
 10
-1286.9817054298169
 20
99.4007266123781
 30
0.0
 70
0
  0
VERTEX
  5
3C5
330
2BE
100
AcDbEntity
  8
8
100
AcDbVertex
100
AcDb2dVertex
 10
-1297.7905984919
 20
122.48769968058991
 30
0.0
 70
0
  0
VERTEX
  5
3C6
330
2BE
100
AcDbEntity
  8
8
100
AcDbVertex
100
AcDb2dVertex
 10
-1305.049741570709
 20
139.51390008796125
 30
0.0
 70
0
  0
VERTEX
  5
3C7
330
2BE
100
AcDbEntity
  8
8
100
AcDbVertex
100
AcDb2dVertex
 10
-1314.1298839754063
 20
163.55209140795887
 30
0.0
 70
0
  0
VERTEX
  5
3C8
330
2BE
100
AcDbEntity
  8
8
100
AcDbVertex
100
AcDb2dVertex
 10
-1321.769630021431
 20
189.4988354474317
 30
0.0
 70
0
  0
VERTEX
  5
3C9
330
2BE
100
AcDbEntity
  8
8
100
AcDbVertex
100
AcDb2dVertex
 10
-1324.3990069132028
 20
208.36918144058336
 30
0.0
 70
0
  0
SEQEND
  5
3BA
330
2BE
100
AcDbEntity
  8
8
  0
POLYLINE
  5
3CA
330
2BE
100
AcDbEntity
  8
8
100
AcDb2dPolyline
 66
1
 70
0
  0
VERTEX
  5
3CC
330
2BE
100
AcDbEntity
  8
8
100
AcDbVertex
100
AcDb2dVertex
 10
-311.04466851949906
 20
-113.27794221817817
 30
0.0
 70
0
  0
VERTEX
  5
3CD
330
2BE
100
AcDbEntity
  8
8
100
AcDbVertex
100
AcDb2dVertex
 10
-350.05985940131177
 20
-62.952657794170136
 30
0.0
 70
0
  0
VERTEX
  5
3CE
330
2BE
100
AcDbEntity
  8
8
100
AcDbVertex
100
AcDb2dVertex
 10
-381.5904863413757
 20
-19.937001971889458
 30
0.0
 70
0
  0
VERTEX
  5
3CF
330
2BE
100
AcDbEntity
  8
8
100
AcDbVertex
100
AcDb2dVertex
 10
-400.12695797393644
 20
6.3566437932493045
 30
0.0
 70
0
  0
VERTEX
  5
3D0
330
2BE
100
AcDbEntity
  8
8
100
AcDbVertex
100
AcDb2dVertex
 10
-416.8125166108298
 20
30.967952093427584
 30
0.0
 70
0
  0
VERTEX
  5
3D1
330
2BE
100
AcDbEntity
  8
8
100
AcDbVertex
100
AcDb2dVertex
 10
-433.4908375426221
 20
56.700630358598346
 30
0.0
 70
0
  0
VERTEX
  5
3D2
330
2BE
100
AcDbEntity
  8
8
100
AcDbVertex
100
AcDb2dVertex
 10
-448.34076312655793
 20
80.71387534277233
 30
0.0
 70
0
  0
VERTEX
  5
3D3
330
2BE
100
AcDbEntity
  8
8
100
AcDbVertex
100
AcDb2dVertex
 10
-461.33665160885266
 20
102.86283325548266
 30
0.0
 70
0
  0
VERTEX
  5
3D4
330
2BE
100
AcDbEntity
  8
8
100
AcDbVertex
100
AcDb2dVertex
 10
-476.1753967797299
 20
129.72090730371565
 30
0.0
 70
0
  0
VERTEX
  5
3D5
330
2BE
100
AcDbEntity
  8
8
100
AcDbVertex
100
AcDb2dVertex
 10
-487.3851880332775
 20
152.01822915009075
 30
0.0
 70
0
  0
VERTEX
  5
3D6
330
2BE
100
AcDbEntity
  8
8
100
AcDbVertex
100
AcDb2dVertex
 10
-493.04397821140674
 20
164.48495889484775
 30
0.0
 70
0
  0
VERTEX
  5
3D7
330
2BE
100
AcDbEntity
  8
8
100
AcDbVertex
100
AcDb2dVertex
 10
-502.3038711365525
 20
186.9294887441929
 30
0.0
 70
0
  0
VERTEX
  5
3D8
330
2BE
100
AcDbEntity
  8
8
100
AcDbVertex
100
AcDb2dVertex
 10
-508.05255806434866
 20
202.72081852456768
 30
0.0
 70
0
  0
VERTEX
  5
3D9
330
2BE
100
AcDbEntity
  8
8
100
AcDbVertex
100
AcDb2dVertex
 10
-511.8736978137347
 20
215.85648615493847
 30
0.0
 70
0
  0
VERTEX
  5
3DA
330
2BE
100
AcDbEntity
  8
8
100
AcDbVertex
100
AcDb2dVertex
 10
-513.7703026929803
 20
224.19471502942815
 30
0.0
 70
0
  0
VERTEX
  5
3DB
330
2BE
100
AcDbEntity
  8
8
100
AcDbVertex
100
AcDb2dVertex
 10
-516.4869764329176
 20
244.49649606394587
 30
0.0
 70
0
  0
SEQEND
  5
3CB
330
2BE
100
AcDbEntity
  8
8
  0
POLYLINE
  5
3DC
330
2BE
100
AcDbEntity
  8
8
100
AcDb2dPolyline
 66
1
 70
0
  0
VERTEX
  5
3DE
330
2BE
100
AcDbEntity
  8
8
100
AcDbVertex
100
AcDb2dVertex
 10
565.3035426142151
 20
-37.47670974107973
 30
0.0
 70
0
  0
VERTEX
  5
3DF
330
2BE
100
AcDbEntity
  8
8
100
AcDbVertex
100
AcDb2dVertex
 10
529.3130132582332
 20
7.626135525924838
 30
0.0
 70
0
  0
VERTEX
  5
3E0
330
2BE
100
AcDbEntity
  8
8
100
AcDbVertex
100
AcDb2dVertex
 10
512.2931247144784
 20
30.060053234653424
 30
0.0
 70
0
  0
VERTEX
  5
3E1
330
2BE
100
AcDbEntity
  8
8
100
AcDbVertex
100
AcDb2dVertex
 10
491.5226299451092
 20
58.436057710934165
 30
0.0
 70
0
  0
VERTEX
  5
3E2
330
2BE
100
AcDbEntity
  8
8
100
AcDbVertex
100
AcDb2dVertex
 10
476.4244230010454
 20
79.96771280852022
 30
0.0
 70
0
  0
VERTEX
  5
3E3
330
2BE
100
AcDbEntity
  8
8
100
AcDbVertex
100
AcDb2dVertex
 10
463.246418332782
 20
99.62787674281071
 30
0.0
 70
0
  0
VERTEX
  5
3E4
330
2BE
100
AcDbEntity
  8
8
100
AcDbVertex
100
AcDb2dVertex
 10
448.18173948893946
 20
123.50218971025947
 30
0.0
 70
0
  0
VERTEX
  5
3E5
330
2BE
100
AcDbEntity
  8
8
100
AcDbVertex
100
AcDb2dVertex
 10
436.8714593895304
 20
142.47010133512708
 30
0.0
 70
0
  0
VERTEX
  5
3E6
330
2BE
100
AcDbEntity
  8
8
100
AcDbVertex
100
AcDb2dVertex
 10
418.0105249675398
 20
177.15784215710028
 30
0.0
 70
0
  0
VERTEX
  5
3E7
330
2BE
100
AcDbEntity
  8
8
100
AcDbVertex
100
AcDb2dVertex
 10
408.6202976525765
 20
196.89645632659403
 30
0.0
 70
0
  0
VERTEX
  5
3E8
330
2BE
100
AcDbEntity
  8
8
100
AcDbVertex
100
AcDb2dVertex
 10
399.0828803662441
 20
220.05653885601942
 30
0.0
 70
0
  0
VERTEX
  5
3E9
330
2BE
100
AcDbEntity
  8
8
100
AcDbVertex
100
AcDb2dVertex
 10
391.36024494253775
 20
242.45725086945913
 30
0.0
 70
0
  0
VERTEX
  5
3EA
330
2BE
100
AcDbEntity
  8
8
100
AcDbVertex
100
AcDb2dVertex
 10
389.50257144235024
 20
249.75127485937173
 30
0.0
 70
0
  0
VERTEX
  5
3EB
330
2BE
100
AcDbEntity
  8
8
100
AcDbVertex
100
AcDb2dVertex
 10
387.63598826458406
 20
257.7697006415192
 30
0.0
 70
0
  0
VERTEX
  5
3EC
330
2BE
100
AcDbEntity
  8
8
100
AcDbVertex
100
AcDb2dVertex
 10
385.1490829326374
 20
279.77755841389944
 30
0.0
 70
0
  0
SEQEND
  5
3DD
330
2BE
100
AcDbEntity
  8
8
  0
POLYLINE
  5
3ED
330
2BE
100
AcDbEntity
  8
8
100
AcDb2dPolyline
 66
1
 70
0
  0
VERTEX
  5
3EF
330
2BE
100
AcDbEntity
  8
8
100
AcDbVertex
100
AcDb2dVertex
 10
1240.3494452013156
 20
35.63517834015238
 30
0.0
 70
0
  0
VERTEX
  5
3F0
330
2BE
100
AcDbEntity
  8
8
100
AcDbVertex
100
AcDb2dVertex
 10
1201.9640591419234
 20
78.71991747149468
 30
0.0
 70
0
  0
VERTEX
  5
3F1
330
2BE
100
AcDbEntity
  8
8
100
AcDbVertex
100
AcDb2dVertex
 10
1179.8421490262085
 20
104.93291830081193
 30
0.0
 70
0
  0
VERTEX
  5
3F2
330
2BE
100
AcDbEntity
  8
8
100
AcDbVertex
100
AcDb2dVertex
 10
1165.804033498419
 20
122.33922277396391
 30
0.0
 70
0
  0
VERTEX
  5
3F3
330
2BE
100
AcDbEntity
  8
8
100
AcDbVertex
100
AcDb2dVertex
 10
1151.7967564065893
 20
140.56968210609648
 30
0.0
 70
0
  0
VERTEX
  5
3F4
330
2BE
100
AcDbEntity
  8
8
100
AcDbVertex
100
AcDb2dVertex
 10
1139.7895295667126
 20
157.057305378891
 30
0.0
 70
0
  0
VERTEX
  5
3F5
330
2BE
100
AcDbEntity
  8
8
100
AcDbVertex
100
AcDb2dVertex
 10
1131.80718760448
 20
168.56447788318746
 30
0.0
 70
0
  0
VERTEX
  5
3F6
330
2BE
100
AcDbEntity
  8
8
100
AcDbVertex
100
AcDb2dVertex
 10
1119.8292976750135
 20
186.96907760548856
 30
0.0
 70
0
  0
VERTEX
  5
3F7
330
2BE
100
AcDbEntity
  8
8
100
AcDbVertex
100
AcDb2dVertex
 10
1109.8633288482797
 20
203.55926278460902
 30
0.0
 70
0
  0
VERTEX
  5
3F8
330
2BE
100
AcDbEntity
  8
8
100
AcDbVertex
100
AcDb2dVertex
 10
1101.9233222649623
 20
217.85073242222234
 30
0.0
 70
0
  0
VERTEX
  5
3F9
330
2BE
100
AcDbEntity
  8
8
100
AcDbVertex
100
AcDb2dVertex
 10
1093.8871632382547
 20
233.85876894647072
 30
0.0
 70
0
  0
VERTEX
  5
3FA
330
2BE
100
AcDbEntity
  8
8
100
AcDbVertex
100
AcDb2dVertex
 10
1085.890682655222
 20
252.5630146172166
 30
0.0
 70
0
  0
VERTEX
  5
3FB
330
2BE
100
AcDbEntity
  8
8
100
AcDbVertex
100
AcDb2dVertex
 10
1079.8438436739966
 20
269.6738090013332
 30
0.0
 70
0
  0
VERTEX
  5
3FC
330
2BE
100
AcDbEntity
  8
8
100
AcDbVertex
100
AcDb2dVertex
 10
1075.8288464852271
 20
284.6801318264679
 30
0.0
 70
0
  0
VERTEX
  5
3FD
330
2BE
100
AcDbEntity
  8
8
100
AcDbVertex
100
AcDb2dVertex
 10
1073.5422369261569
 20
304.11653930163357
 30
0.0
 70
0
  0
SEQEND
  5
3EE
330
2BE
100
AcDbEntity
  8
8
  0
POLYLINE
  5
3FE
330
2BE
100
AcDbEntity
  8
8
100
AcDb2dPolyline
 66
1
 70
0
  0
VERTEX
  5
400
330
2BE
100
AcDbEntity
  8
8
100
AcDbVertex
100
AcDb2dVertex
 10
1758.5992719846772
 20
87.29939782106749
 30
0.0
 70
0
  0
VERTEX
  5
401
330
2BE
100
AcDbEntity
  8
8
100
AcDbVertex
100
AcDb2dVertex
 10
1711.1352067953198
 20
119.03277131987261
 30
0.0
 70
0
  0
VERTEX
  5
402
330
2BE
100
AcDbEntity
  8
8
100
AcDbVertex
100
AcDb2dVertex
 10
1688.7121685399497
 20
134.68090703500116
 30
0.0
 70
0
  0
VERTEX
  5
403
330
2BE
100
AcDbEntity
  8
8
100
AcDbVertex
100
AcDb2dVertex
 10
1661.3293335012404
 20
154.50908272242145
 30
0.0
 70
0
  0
VERTEX
  5
404
330
2BE
100
AcDbEntity
  8
8
100
AcDbVertex
100
AcDb2dVertex
 10
1646.3902725273138
 20
165.77883202795533
 30
0.0
 70
0
  0
VERTEX
  5
405
330
2BE
100
AcDbEntity
  8
8
100
AcDbVertex
100
AcDb2dVertex
 10
1626.50398782697
 20
181.68816670806655
 30
0.0
 70
0
  0
VERTEX
  5
406
330
2BE
100
AcDbEntity
  8
8
100
AcDbVertex
100
AcDb2dVertex
 10
1609.0932091638797
 20
196.55111373987302
 30
0.0
 70
0
  0
VERTEX
  5
407
330
2BE
100
AcDbEntity
  8
8
100
AcDbVertex
100
AcDb2dVertex
 10
1594.2042444176718
 20
210.295684029531
 30
0.0
 70
0
  0
VERTEX
  5
408
330
2BE
100
AcDbEntity
  8
8
100
AcDbVertex
100
AcDb2dVertex
 10
1581.8066430831273
 20
222.6841519093723
 30
0.0
 70
0
  0
VERTEX
  5
409
330
2BE
100
AcDbEntity
  8
8
100
AcDbVertex
100
AcDb2dVertex
 10
1569.2944310433204
 20
236.09938329864008
 30
0.0
 70
0
  0
VERTEX
  5
40A
330
2BE
100
AcDbEntity
  8
8
100
AcDbVertex
100
AcDb2dVertex
 10
1556.8228206592676
 20
251.4499392458688
 30
0.0
 70
0
  0
VERTEX
  5
40B
330
2BE
100
AcDbEntity
  8
8
100
AcDbVertex
100
AcDb2dVertex
 10
1549.39526631318
 20
261.7862276431183
 30
0.0
 70
0
  0
VERTEX
  5
40C
330
2BE
100
AcDbEntity
  8
8
100
AcDbVertex
100
AcDb2dVertex
 10
1541.8635168497449
 20
273.9168600792841
 30
0.0
 70
0
  0
VERTEX
  5
40D
330
2BE
100
AcDbEntity
  8
8
100
AcDbVertex
100
AcDb2dVertex
 10
1536.774074769276
 20
283.6174654909514
 30
0.0
 70
0
  0
VERTEX
  5
40E
330
2BE
100
AcDbEntity
  8
8
100
AcDbVertex
100
AcDb2dVertex
 10
1534.2580515868217
 20
289.38978277001615
 30
0.0
 70
0
  0
VERTEX
  5
40F
330
2BE
100
AcDbEntity
  8
8
100
AcDbVertex
100
AcDb2dVertex
 10
1531.7618229208529
 20
295.832318048926
 30
0.0
 70
0
  0
VERTEX
  5
410
330
2BE
100
AcDbEntity
  8
8
100
AcDbVertex
100
AcDb2dVertex
 10
1529.033377447709
 20
310.87782049991256
 30
0.0
 70
0
  0
SEQEND
  5
3FF
330
2BE
100
AcDbEntity
  8
8
  0
POLYLINE
  5
411
330
2BE
100
AcDbEntity
  8
8
100
AcDb2dPolyline
 66
1
 70
0
  0
VERTEX
  5
413
330
2BE
100
AcDbEntity
  8
8
100
AcDbVertex
100
AcDb2dVertex
 10
2292.57157387854
 20
156.65687343824857
 30
0.0
 70
0
  0
VERTEX
  5
414
330
2BE
100
AcDbEntity
  8
8
100
AcDbVertex
100
AcDb2dVertex
 10
2239.683785175319
 20
177.88872521193662
 30
0.0
 70
0
  0
VERTEX
  5
415
330
2BE
100
AcDbEntity
  8
8
100
AcDbVertex
100
AcDb2dVertex
 10
2189.8854133388545
 20
199.12015978162117
 30
0.0
 70
0
  0
VERTEX
  5
416
330
2BE
100
AcDbEntity
  8
8
100
AcDbVertex
100
AcDb2dVertex
 10
2173.2982960831923
 20
206.72199955473434
 30
0.0
 70
0
  0
VERTEX
  5
417
330
2BE
100
AcDbEntity
  8
8
100
AcDbVertex
100
AcDb2dVertex
 10
2151.2829654525212
 20
217.50887718271724
 30
0.0
 70
0
  0
VERTEX
  5
418
330
2BE
100
AcDbEntity
  8
8
100
AcDbVertex
100
AcDb2dVertex
 10
2134.760494107052
 20
226.23443242024177
 30
0.0
 70
0
  0
VERTEX
  5
419
330
2BE
100
AcDbEntity
  8
8
100
AcDbVertex
100
AcDb2dVertex
 10
2115.518897688826
 20
237.38617963989736
 30
0.0
 70
0
  0
VERTEX
  5
41A
330
2BE
100
AcDbEntity
  8
8
100
AcDbVertex
100
AcDb2dVertex
 10
2101.7857656618116
 20
246.21903152200412
 30
0.0
 70
0
  0
VERTEX
  5
41B
330
2BE
100
AcDbEntity
  8
8
100
AcDbVertex
100
AcDb2dVertex
 10
2088.0419300626095
 20
255.84828016747542
 30
0.0
 70
0
  0
VERTEX
  5
41C
330
2BE
100
AcDbEntity
  8
8
100
AcDbVertex
100
AcDb2dVertex
 10
2077.013846533768
 20
264.56460821979954
 30
0.0
 70
0
  0
VERTEX
  5
41D
330
2BE
100
AcDbEntity
  8
8
100
AcDbVertex
100
AcDb2dVertex
 10
2066.023680232753
 20
274.5538330209133
 30
0.0
 70
0
  0
VERTEX
  5
41E
330
2BE
100
AcDbEntity
  8
8
100
AcDbVertex
100
AcDb2dVertex
 10
2057.727233614206
 20
283.55200586843375
 30
0.0
 70
0
  0
VERTEX
  5
41F
330
2BE
100
AcDbEntity
  8
8
100
AcDbVertex
100
AcDb2dVertex
 10
2052.1502796003933
 20
290.8195382827339
 30
0.0
 70
0
  0
VERTEX
  5
420
330
2BE
100
AcDbEntity
  8
8
100
AcDbVertex
100
AcDb2dVertex
 10
2046.6702149536122
 20
300.07672353261887
 30
0.0
 70
0
  0
VERTEX
  5
421
330
2BE
100
AcDbEntity
  8
8
100
AcDbVertex
100
AcDb2dVertex
 10
2043.8100652707171
 20
310.00458729672664
 30
0.0
 70
0
  0
SEQEND
  5
412
330
2BE
100
AcDbEntity
  8
8
  0
POLYLINE
  5
422
330
2BE
100
AcDbEntity
  8
8
100
AcDb2dPolyline
 66
1
 70
0
  0
VERTEX
  5
424
330
2BE
100
AcDbEntity
  8
8
100
AcDbVertex
100
AcDb2dVertex
 10
-1324.4004686891235
 20
208.38039719071685
 30
0.0
 70
0
  0
VERTEX
  5
425
330
2BE
100
AcDbEntity
  8
8
100
AcDbVertex
100
AcDb2dVertex
 10
-1326.1086820921114
 20
224.09593635729834
 30
0.0
 70
0
  0
SEQEND
  5
423
330
2BE
100
AcDbEntity
  8
8
  0
POLYLINE
  5
426
330
2BE
100
AcDbEntity
  8
8
100
AcDb2dPolyline
 66
1
 70
0
  0
VERTEX
  5
428
330
2BE
100
AcDbEntity
  8
8
100
AcDbVertex
100
AcDb2dVertex
 10
385.1461435539193
 20
279.8309703366808
 30
0.0
 70
0
  0
VERTEX
  5
429
330
2BE
100
AcDbEntity
  8
8
100
AcDbVertex
100
AcDb2dVertex
 10
385.0598664929455
 20
292.95280937635516
 30
0.0
 70
0
  0
SEQEND
  5
427
330
2BE
100
AcDbEntity
  8
8
  0
ENDBLK
  5
2C0
330
2BE
100
AcDbEntity
  8
0
100
AcDbBlockEnd
  0
BLOCK
  5
42D
330
42C
100
AcDbEntity
  8
0
100
AcDbBlockBegin
  2
US
 70
0
 10
0.0
 20
0.0
 30
0.0
  3
US
  1

  0
POLYLINE
  5
42F
330
42C
100
AcDbEntity
  8
1
100
AcDb2dPolyline
 66
1
 70
0
  0
VERTEX
  5
431
330
42C
100
AcDbEntity
  8
1
100
AcDbVertex
100
AcDb2dVertex
 10
1036.9761657714844
 20
1023.0260009765625
 30
0.0
 70
0
  0
VERTEX
  5
432
330
42C
100
AcDbEntity
  8
1
100
AcDbVertex
100
AcDb2dVertex
 10
1477.3047790527344
 20
1114.2691650390625
 30
0.0
 70
0
  0
VERTEX
  5
433
330
42C
100
AcDbEntity
  8
1
100
AcDbVertex
100
AcDb2dVertex
 10
1494.3047790527344
 20
1110.0445556640625
 30
0.0
 70
0
  0
VERTEX
  5
434
330
42C
100
AcDbEntity
  8
1
100
AcDbVertex
100
AcDb2dVertex
 10
2101.1600036621094
 20
984.9112548828125
 30
0.0
 70
0
  0
VERTEX
  5
435
330
42C
100
AcDbEntity
  8
1
100
AcDbVertex
100
AcDb2dVertex
 10
2515.0564880371094
 20
861.1558837890625
 30
0.0
 70
0
  0
VERTEX
  5
436
330
42C
100
AcDbEntity
  8
1
100
AcDbVertex
100
AcDb2dVertex
 10
2516.5577087402344
 20
859.8883056640625
 30
0.0
 70
0
  0
VERTEX
  5
437
330
42C
100
AcDbEntity
  8
1
100
AcDbVertex
100
AcDb2dVertex
 10
2517.5669860839844
 20
858.1978759765625
 30
0.0
 70
0
  0
VERTEX
  5
438
330
42C
100
AcDbEntity
  8
1
100
AcDbVertex
100
AcDb2dVertex
 10
2517.9761657714844
 20
856.3995361328125
 30
0.0
 70
0
  0
VERTEX
  5
439
330
42C
100
AcDbEntity
  8
1
100
AcDbVertex
100
AcDb2dVertex
 10
2517.8028259277344
 20
854.5333251953125
 30
0.0
 70
0
  0
VERTEX
  5
43A
330
42C
100
AcDbEntity
  8
1
100
AcDbVertex
100
AcDb2dVertex
 10
2431.9681091308594
 20
499.9322509765625
 30
0.0
 70
0
  0
VERTEX
  5
43B
330
42C
100
AcDbEntity
  8
1
100
AcDbVertex
100
AcDb2dVertex
 10
2431.8018493652344
 20
497.1925048828125
 30
0.0
 70
0
  0
VERTEX
  5
43C
330
42C
100
AcDbEntity
  8
1
100
AcDbVertex
100
AcDb2dVertex
 10
2433.4368591308594
 20
493.1553955078125
 30
0.0
 70
0
  0
VERTEX
  5
43D
330
42C
100
AcDbEntity
  8
1
100
AcDbVertex
100
AcDb2dVertex
 10
2433.3365173339844
 20
491.1646728515625
 30
0.0
 70
0
  0
VERTEX
  5
43E
330
42C
100
AcDbEntity
  8
1
100
AcDbVertex
100
AcDb2dVertex
 10
2432.6009216308594
 20
489.3316650390625
 30
0.0
 70
0
  0
VERTEX
  5
43F
330
42C
100
AcDbEntity
  8
1
100
AcDbVertex
100
AcDb2dVertex
 10
2431.4124450683594
 20
487.9229736328125
 30
0.0
 70
0
  0
VERTEX
  5
440
330
42C
100
AcDbEntity
  8
1
100
AcDbVertex
100
AcDb2dVertex
 10
2429.8514099121094
 20
486.9434814453125
 30
0.0
 70
0
  0
VERTEX
  5
441
330
42C
100
AcDbEntity
  8
1
100
AcDbVertex
100
AcDb2dVertex
 10
1948.8084411621094
 20
307.9874267578125
 30
0.0
 70
0
  0
VERTEX
  5
442
330
42C
100
AcDbEntity
  8
1
100
AcDbVertex
100
AcDb2dVertex
 10
1322.8653259277344
 20
87.5316162109375
 30
0.0
 70
0
  0
VERTEX
  5
443
330
42C
100
AcDbEntity
  8
1
100
AcDbVertex
100
AcDb2dVertex
 10
1255.1819763183594
 20
64.1011962890625
 30
0.0
 70
0
  0
VERTEX
  5
444
330
42C
100
AcDbEntity
  8
1
100
AcDbVertex
100
AcDb2dVertex
 10
1187.3663024902344
 20
41.4935302734375
 30
0.0
 70
0
  0
VERTEX
  5
445
330
42C
100
AcDbEntity
  8
1
100
AcDbVertex
100
AcDb2dVertex
 10
472.4650573730469
 20
-192.8995361328125
 30
0.0
 70
0
  0
VERTEX
  5
446
330
42C
100
AcDbEntity
  8
1
100
AcDbVertex
100
AcDb2dVertex
 10
-330.5288391113281
 20
-457.9097900390625
 30
0.0
 70
0
  0
VERTEX
  5
447
330
42C
100
AcDbEntity
  8
1
100
AcDbVertex
100
AcDb2dVertex
 10
-1155.2235107421875
 20
-721.0675048828125
 30
0.0
 70
0
  0
VERTEX
  5
448
330
42C
100
AcDbEntity
  8
1
100
AcDbVertex
100
AcDb2dVertex
 10
-1931.3115539550781
 20
-964.4718017578125
 30
0.0
 70
0
  0
VERTEX
  5
449
330
42C
100
AcDbEntity
  8
1
100
AcDbVertex
100
AcDb2dVertex
 10
-2410.398712158203
 20
-1114.2691650390625
 30
0.0
 70
0
  0
VERTEX
  5
44A
330
42C
100
AcDbEntity
  8
1
100
AcDbVertex
100
AcDb2dVertex
 10
-2412.557647705078
 20
-1113.9696044921875
 30
0.0
 70
0
  0
VERTEX
  5
44B
330
42C
100
AcDbEntity
  8
1
100
AcDbVertex
100
AcDb2dVertex
 10
-2414.525665283203
 20
-1112.9263916015625
 30
0.0
 70
0
  0
VERTEX
  5
44C
330
42C
100
AcDbEntity
  8
1
100
AcDbVertex
100
AcDb2dVertex
 10
-2415.9291076660156
 20
-1111.4212646484375
 30
0.0
 70
0
  0
VERTEX
  5
44D
330
42C
100
AcDbEntity
  8
1
100
AcDbVertex
100
AcDb2dVertex
 10
-2416.787811279297
 20
-1109.5540771484375
 30
0.0
 70
0
  0
VERTEX
  5
44E
330
42C
100
AcDbEntity
  8
1
100
AcDbVertex
100
AcDb2dVertex
 10
-2419.117706298828
 20
-1102.2633056640625
 30
0.0
 70
0
  0
VERTEX
  5
44F
330
42C
100
AcDbEntity
  8
1
100
AcDbVertex
100
AcDb2dVertex
 10
-2427.4493103027344
 20
-1081.5950927734375
 30
0.0
 70
0
  0
VERTEX
  5
450
330
42C
100
AcDbEntity
  8
1
100
AcDbVertex
100
AcDb2dVertex
 10
-2430.7020568847656
 20
-1076.5687255859375
 30
0.0
 70
0
  0
VERTEX
  5
451
330
42C
100
AcDbEntity
  8
1
100
AcDbVertex
100
AcDb2dVertex
 10
-2433.0970153808594
 20
-1071.3375244140625
 30
0.0
 70
0
  0
VERTEX
  5
452
330
42C
100
AcDbEntity
  8
1
100
AcDbVertex
100
AcDb2dVertex
 10
-2435.062286376953
 20
-1061.6219482421875
 30
0.0
 70
0
  0
VERTEX
  5
453
330
42C
100
AcDbEntity
  8
1
100
AcDbVertex
100
AcDb2dVertex
 10
-2441.9508361816406
 20
-1043.0828857421875
 30
0.0
 70
0
  0
VERTEX
  5
454
330
42C
100
AcDbEntity
  8
1
100
AcDbVertex
100
AcDb2dVertex
 10
-2451.147979736328
 20
-1025.9539794921875
 30
0.0
 70
0
  0
VERTEX
  5
455
330
42C
100
AcDbEntity
  8
1
100
AcDbVertex
100
AcDb2dVertex
 10
-2462.9383239746094
 20
-1010.7247314453125
 30
0.0
 70
0
  0
VERTEX
  5
456
330
42C
100
AcDbEntity
  8
1
100
AcDbVertex
100
AcDb2dVertex
 10
-2468.351531982422
 20
-1005.3695068359375
 30
0.0
 70
0
  0
VERTEX
  5
457
330
42C
100
AcDbEntity
  8
1
100
AcDbVertex
100
AcDb2dVertex
 10
-2485.661590576172
 20
-991.2733154296875
 30
0.0
 70
0
  0
VERTEX
  5
458
330
42C
100
AcDbEntity
  8
1
100
AcDbVertex
100
AcDb2dVertex
 10
-2492.013702392578
 20
-988.8980712890625
 30
0.0
 70
0
  0
VERTEX
  5
459
330
42C
100
AcDbEntity
  8
1
100
AcDbVertex
100
AcDb2dVertex
 10
-2504.7049255371094
 20
-985.1629638671875
 30
0.0
 70
0
  0
VERTEX
  5
45A
330
42C
100
AcDbEntity
  8
1
100
AcDbVertex
100
AcDb2dVertex
 10
-2509.1415100097656
 20
-982.0948486328125
 30
0.0
 70
0
  0
VERTEX
  5
45B
330
42C
100
AcDbEntity
  8
1
100
AcDbVertex
100
AcDb2dVertex
 10
-2514.1495666503906
 20
-980.6810302734375
 30
0.0
 70
0
  0
VERTEX
  5
45C
330
42C
100
AcDbEntity
  8
1
100
AcDbVertex
100
AcDb2dVertex
 10
-2515.663848876953
 20
-979.8179931640625
 30
0.0
 70
0
  0
VERTEX
  5
45D
330
42C
100
AcDbEntity
  8
1
100
AcDbVertex
100
AcDb2dVertex
 10
-2516.9198303222656
 20
-978.4854736328125
 30
0.0
 70
0
  0
VERTEX
  5
45E
330
42C
100
AcDbEntity
  8
1
100
AcDbVertex
100
AcDb2dVertex
 10
-2517.7154235839844
 20
-976.8382568359375
 30
0.0
 70
0
  0
VERTEX
  5
45F
330
42C
100
AcDbEntity
  8
1
100
AcDbVertex
100
AcDb2dVertex
 10
-2517.9761657714844
 20
-975.0286865234375
 30
0.0
 70
0
  0
VERTEX
  5
460
330
42C
100
AcDbEntity
  8
1
100
AcDbVertex
100
AcDb2dVertex
 10
-2517.6927185058594
 20
-973.2213134765625
 30
0.0
 70
0
  0
VERTEX
  5
461
330
42C
100
AcDbEntity
  8
1
100
AcDbVertex
100
AcDb2dVertex
 10
-2245.7161560058594
 20
107.9744873046875
 30
0.0
 70
0
  0
VERTEX
  5
462
330
42C
100
AcDbEntity
  8
1
100
AcDbVertex
100
AcDb2dVertex
 10
-2243.6109924316406
 20
110.3006591796875
 30
0.0
 70
0
  0
VERTEX
  5
463
330
42C
100
AcDbEntity
  8
1
100
AcDbVertex
100
AcDb2dVertex
 10
-2241.1190490722656
 20
111.2042236328125
 30
0.0
 70
0
  0
VERTEX
  5
464
330
42C
100
AcDbEntity
  8
1
100
AcDbVertex
100
AcDb2dVertex
 10
-2239.5077209472656
 20
111.1885986328125
 30
0.0
 70
0
  0
VERTEX
  5
465
330
42C
100
AcDbEntity
  8
1
100
AcDbVertex
100
AcDb2dVertex
 10
-2229.5797424316406
 20
109.1683349609375
 30
0.0
 70
0
  0
VERTEX
  5
466
330
42C
100
AcDbEntity
  8
1
100
AcDbVertex
100
AcDb2dVertex
 10
-2209.3978576660156
 20
107.8236083984375
 30
0.0
 70
0
  0
VERTEX
  5
467
330
42C
100
AcDbEntity
  8
1
100
AcDbVertex
100
AcDb2dVertex
 10
-2188.222381591797
 20
110.4429931640625
 30
0.0
 70
0
  0
VERTEX
  5
468
330
42C
100
AcDbEntity
  8
1
100
AcDbVertex
100
AcDb2dVertex
 10
-2165.787872314453
 20
118.0902099609375
 30
0.0
 70
0
  0
VERTEX
  5
469
330
42C
100
AcDbEntity
  8
1
100
AcDbVertex
100
AcDb2dVertex
 10
-2159.6368103027344
 20
121.2010498046875
 30
0.0
 70
0
  0
VERTEX
  5
46A
330
42C
100
AcDbEntity
  8
1
100
AcDbVertex
100
AcDb2dVertex
 10
-2141.357696533203
 20
133.7259521484375
 30
0.0
 70
0
  0
VERTEX
  5
46B
330
42C
100
AcDbEntity
  8
1
100
AcDbVertex
100
AcDb2dVertex
 10
-2137.084686279297
 20
137.5191650390625
 30
0.0
 70
0
  0
VERTEX
  5
46C
330
42C
100
AcDbEntity
  8
1
100
AcDbVertex
100
AcDb2dVertex
 10
-2123.669952392578
 20
152.6448974609375
 30
0.0
 70
0
  0
VERTEX
  5
46D
330
42C
100
AcDbEntity
  8
1
100
AcDbVertex
100
AcDb2dVertex
 10
-2114.624053955078
 20
167.2069091796875
 30
0.0
 70
0
  0
VERTEX
  5
46E
330
42C
100
AcDbEntity
  8
1
100
AcDbVertex
100
AcDb2dVertex
 10
-2108.4713439941406
 20
181.4080810546875
 30
0.0
 70
0
  0
VERTEX
  5
46F
330
42C
100
AcDbEntity
  8
1
100
AcDbVertex
100
AcDb2dVertex
 10
-2104.469268798828
 20
195.3526611328125
 30
0.0
 70
0
  0
VERTEX
  5
470
330
42C
100
AcDbEntity
  8
1
100
AcDbVertex
100
AcDb2dVertex
 10
-2024.7074890136719
 20
514.7779541015625
 30
0.0
 70
0
  0
VERTEX
  5
471
330
42C
100
AcDbEntity
  8
1
100
AcDbVertex
100
AcDb2dVertex
 10
-2023.4807739257812
 20
517.7056884765625
 30
0.0
 70
0
  0
VERTEX
  5
472
330
42C
100
AcDbEntity
  8
1
100
AcDbVertex
100
AcDb2dVertex
 10
-2020.9639892578125
 20
519.6378173828125
 30
0.0
 70
0
  0
VERTEX
  5
473
330
42C
100
AcDbEntity
  8
1
100
AcDbVertex
100
AcDb2dVertex
 10
-2017.9319458007812
 20
520.1378173828125
 30
0.0
 70
0
  0
VERTEX
  5
474
330
42C
100
AcDbEntity
  8
1
100
AcDbVertex
100
AcDb2dVertex
 10
-1608.0991744995117
 20
544.0552978515625
 30
0.0
 70
0
  0
VERTEX
  5
475
330
42C
100
AcDbEntity
  8
1
100
AcDbVertex
100
AcDb2dVertex
 10
-1252.6957397460938
 20
571.7178955078125
 30
0.0
 70
0
  0
VERTEX
  5
476
330
42C
100
AcDbEntity
  8
1
100
AcDbVertex
100
AcDb2dVertex
 10
-855.5031433105469
 20
603.1978759765625
 30
0.0
 70
0
  0
VERTEX
  5
477
330
42C
100
AcDbEntity
  8
1
100
AcDbVertex
100
AcDb2dVertex
 10
-834.1684875488281
 20
606.5767822265625
 30
0.0
 70
0
  0
VERTEX
  5
478
330
42C
100
AcDbEntity
  8
1
100
AcDbVertex
100
AcDb2dVertex
 10
-83.76760864257812
 20
739.2818603515625
 30
0.0
 70
0
  0
VERTEX
  5
479
330
42C
100
AcDbEntity
  8
1
100
AcDbVertex
100
AcDb2dVertex
 10
-62.177642822265625
 20
743.6744384765625
 30
0.0
 70
0
  0
VERTEX
  5
47A
330
42C
100
AcDbEntity
  8
1
100
AcDbVertex
100
AcDb2dVertex
 10
774.3655700683594
 20
968.1842041015625
 30
0.0
 70
0
  0
VERTEX
  5
47B
330
42C
100
AcDbEntity
  8
1
100
AcDbVertex
100
AcDb2dVertex
 10
796.2405700683594
 20
973.0211181640625
 30
0.0
 70
0
  0
VERTEX
  5
47C
330
42C
100
AcDbEntity
  8
1
100
AcDbVertex
100
AcDb2dVertex
 10
1036.9761657714844
 20
1023.0260009765625
 30
0.0
 70
0
  0
SEQEND
  5
430
330
42C
100
AcDbEntity
  8
1
  0
POLYLINE
  5
47D
330
42C
100
AcDbEntity
  8
8
100
AcDb2dPolyline
 66
1
 70
0
  0
VERTEX
  5
47F
330
42C
100
AcDbEntity
  8
8
100
AcDbVertex
100
AcDb2dVertex
 10
-1116.2007984224156
 20
-696.0890764674668
 30
0.0
 70
0
  0
VERTEX
  5
480
330
42C
100
AcDbEntity
  8
8
100
AcDbVertex
100
AcDb2dVertex
 10
-1093.980135608493
 20
-689.5004940774038
 30
0.0
 70
0
  0
VERTEX
  5
481
330
42C
100
AcDbEntity
  8
8
100
AcDbVertex
100
AcDb2dVertex
 10
-1071.6015940667808
 20
-681.8164741261244
 30
0.0
 70
0
  0
VERTEX
  5
482
330
42C
100
AcDbEntity
  8
8
100
AcDbVertex
100
AcDb2dVertex
 10
-1027.0292948141582
 20
-667.5489104536136
 30
0.0
 70
0
  0
VERTEX
  5
483
330
42C
100
AcDbEntity
  8
8
100
AcDbVertex
100
AcDb2dVertex
 10
-1004.8232770716979
 20
-660.9538708402024
 30
0.0
 70
0
  0
VERTEX
  5
484
330
42C
100
AcDbEntity
  8
8
100
AcDbVertex
100
AcDb2dVertex
 10
-982.458379116161
 20
-653.2903026375684
 30
0.0
 70
0
  0
VERTEX
  5
485
330
42C
100
AcDbEntity
  8
8
100
AcDbVertex
100
AcDb2dVertex
 10
-937.888400896668
 20
-639.0400904805015
 30
0.0
 70
0
  0
VERTEX
  5
486
330
42C
100
AcDbEntity
  8
8
100
AcDbVertex
100
AcDb2dVertex
 10
-915.6847843811743
 20
-632.4338421413381
 30
0.0
 70
0
  0
VERTEX
  5
487
330
42C
100
AcDbEntity
  8
8
100
AcDbVertex
100
AcDb2dVertex
 10
-893.3170720298405
 20
-624.7979922370059
 30
0.0
 70
0
  0
VERTEX
  5
488
330
42C
100
AcDbEntity
  8
8
100
AcDbVertex
100
AcDb2dVertex
 10
-848.7429179746692
 20
-610.5604789010545
 30
0.0
 70
0
  0
VERTEX
  5
489
330
42C
100
AcDbEntity
  8
8
100
AcDbVertex
100
AcDb2dVertex
 10
-804.1655824818974
 20
-596.3299055043622
 30
0.0
 70
0
  0
VERTEX
  5
48A
330
42C
100
AcDbEntity
  8
8
100
AcDbVertex
100
AcDb2dVertex
 10
-781.961777597457
 20
-589.7024415235837
 30
0.0
 70
0
  0
VERTEX
  5
48B
330
42C
100
AcDbEntity
  8
8
100
AcDbVertex
100
AcDb2dVertex
 10
-737.2974409487805
 20
-574.9923445096128
 30
0.0
 70
0
  0
VERTEX
  5
48C
330
42C
100
AcDbEntity
  8
8
100
AcDbVertex
100
AcDb2dVertex
 10
-670.4209941565466
 20
-553.668010839162
 30
0.0
 70
0
  0
VERTEX
  5
48D
330
42C
100
AcDbEntity
  8
8
100
AcDbVertex
100
AcDb2dVertex
 10
-648.2145715067355
 20
-547.0211156073333
 30
0.0
 70
0
  0
VERTEX
  5
48E
330
42C
100
AcDbEntity
  8
8
100
AcDbVertex
100
AcDb2dVertex
 10
-625.8330174007322
 20
-539.4573407974617
 30
0.0
 70
0
  0
VERTEX
  5
48F
330
42C
100
AcDbEntity
  8
8
100
AcDbVertex
100
AcDb2dVertex
 10
-603.6259804482328
 20
-532.8026849734115
 30
0.0
 70
0
  0
VERTEX
  5
490
330
42C
100
AcDbEntity
  8
8
100
AcDbVertex
100
AcDb2dVertex
 10
-581.2417478585445
 20
-525.2501030856338
 30
0.0
 70
0
  0
VERTEX
  5
491
330
42C
100
AcDbEntity
  8
8
100
AcDbVertex
100
AcDb2dVertex
 10
-514.3455998882899
 20
-503.94695310003226
 30
0.0
 70
0
  0
VERTEX
  5
492
330
42C
100
AcDbEntity
  8
8
100
AcDbVertex
100
AcDb2dVertex
 10
-492.13402227213214
 20
-497.27219303759966
 30
0.0
 70
0
  0
VERTEX
  5
493
330
42C
100
AcDbEntity
  8
8
100
AcDbVertex
100
AcDb2dVertex
 10
-469.7400017713069
 20
-489.74649610668985
 30
0.0
 70
0
  0
VERTEX
  5
494
330
42C
100
AcDbEntity
  8
8
100
AcDbVertex
100
AcDb2dVertex
 10
-402.9029514011668
 20
-468.8479604392505
 30
0.0
 70
0
  0
VERTEX
  5
495
330
42C
100
AcDbEntity
  8
8
100
AcDbVertex
100
AcDb2dVertex
 10
-380.4926766560102
 20
-461.33369600721835
 30
0.0
 70
0
  0
VERTEX
  5
496
330
42C
100
AcDbEntity
  8
8
100
AcDbVertex
100
AcDb2dVertex
 10
-358.2638613103986
 20
-454.6000752083487
 30
0.0
 70
0
  0
VERTEX
  5
497
330
42C
100
AcDbEntity
  8
8
100
AcDbVertex
100
AcDb2dVertex
 10
-313.4813586392172
 20
-439.71799430320107
 30
0.0
 70
0
  0
VERTEX
  5
498
330
42C
100
AcDbEntity
  8
8
100
AcDbVertex
100
AcDb2dVertex
 10
-291.217904918871
 20
-432.7513617238428
 30
0.0
 70
0
  0
VERTEX
  5
499
330
42C
100
AcDbEntity
  8
8
100
AcDbVertex
100
AcDb2dVertex
 10
-268.7958757882625
 20
-425.00652666550013
 30
0.0
 70
0
  0
VERTEX
  5
49A
330
42C
100
AcDbEntity
  8
8
100
AcDbVertex
100
AcDb2dVertex
 10
-90.37676980609422
 20
-366.2665234247165
 30
0.0
 70
0
  0
VERTEX
  5
49B
330
42C
100
AcDbEntity
  8
8
100
AcDbVertex
100
AcDb2dVertex
 10
-45.68139093122318
 20
-351.2222919596338
 30
0.0
 70
0
  0
VERTEX
  5
49C
330
42C
100
AcDbEntity
  8
8
100
AcDbVertex
100
AcDb2dVertex
 10
445.0915524507907
 20
-189.273488305113
 30
0.0
 70
0
  0
VERTEX
  5
49D
330
42C
100
AcDbEntity
  8
8
100
AcDbVertex
100
AcDb2dVertex
 10
1159.9067968515783
 20
45.04129402189437
 30
0.0
 70
0
  0
VERTEX
  5
49E
330
42C
100
AcDbEntity
  8
8
100
AcDbVertex
100
AcDb2dVertex
 10
1249.721699302835
 20
74.81793669926583
 30
0.0
 70
0
  0
VERTEX
  5
49F
330
42C
100
AcDbEntity
  8
8
100
AcDbVertex
100
AcDb2dVertex
 10
1317.3096562446317
 20
98.27012024447185
 30
0.0
 70
0
  0
VERTEX
  5
4A0
330
42C
100
AcDbEntity
  8
8
100
AcDbVertex
100
AcDb2dVertex
 10
1943.2655292633222
 20
318.7422893955586
 30
0.0
 70
0
  0
VERTEX
  5
4A1
330
42C
100
AcDbEntity
  8
8
100
AcDbVertex
100
AcDb2dVertex
 10
2422.251514871697
 20
497.2235388435902
 30
0.0
 70
0
  0
VERTEX
  5
4A2
330
42C
100
AcDbEntity
  8
8
100
AcDbVertex
100
AcDb2dVertex
 10
2425.857183669494
 20
498.47308032101773
 30
0.0
 70
0
  0
VERTEX
  5
4A3
330
42C
100
AcDbEntity
  8
8
100
AcDbVertex
100
AcDb2dVertex
 10
2427.9912501666067
 20
498.5476851087342
 30
0.0
 70
0
  0
VERTEX
  5
4A4
330
42C
100
AcDbEntity
  8
8
100
AcDbVertex
100
AcDb2dVertex
 10
2430.0696582686
 20
497.87363280197224
 30
0.0
 70
0
  0
VERTEX
  5
4A5
330
42C
100
AcDbEntity
  8
8
100
AcDbVertex
100
AcDb2dVertex
 10
2431.751676179008
 20
495.60587621916693
 30
0.0
 70
0
  0
SEQEND
  5
47E
330
42C
100
AcDbEntity
  8
8
  0
POLYLINE
  5
4A6
330
42C
100
AcDbEntity
  8
8
100
AcDb2dPolyline
 66
1
 70
0
  0
VERTEX
  5
4A8
330
42C
100
AcDbEntity
  8
8
100
AcDbVertex
100
AcDb2dVertex
 10
-2419.0578537557803
 20
-1125.5414286996597
 30
0.0
 70
0
  0
VERTEX
  5
4A9
330
42C
100
AcDbEntity
  8
8
100
AcDbVertex
100
AcDb2dVertex
 10
-2423.050110335127
 20
-1100.8453554731245
 30
0.0
 70
0
  0
VERTEX
  5
4AA
330
42C
100
AcDbEntity
  8
8
100
AcDbVertex
100
AcDb2dVertex
 10
-2422.429257034055
 20
-1098.3537029867457
 30
0.0
 70
0
  0
VERTEX
  5
4AB
330
42C
100
AcDbEntity
  8
8
100
AcDbVertex
100
AcDb2dVertex
 10
-2421.7313730477913
 20
-1097.260087406636
 30
0.0
 70
0
  0
VERTEX
  5
4AC
330
42C
100
AcDbEntity
  8
8
100
AcDbVertex
100
AcDb2dVertex
 10
-2419.725389811302
 20
-1095.6357140972377
 30
0.0
 70
0
  0
VERTEX
  5
4AD
330
42C
100
AcDbEntity
  8
8
100
AcDbVertex
100
AcDb2dVertex
 10
-2418.510255240346
 20
-1095.1826865260086
 30
0.0
 70
0
  0
VERTEX
  5
4AE
330
42C
100
AcDbEntity
  8
8
100
AcDbVertex
100
AcDb2dVertex
 10
-2416.0531240257874
 20
-1095.0646144228867
 30
0.0
 70
0
  0
VERTEX
  5
4AF
330
42C
100
AcDbEntity
  8
8
100
AcDbVertex
100
AcDb2dVertex
 10
-2413.7539736376534
 20
-1095.9795654265686
 30
0.0
 70
0
  0
VERTEX
  5
4B0
330
42C
100
AcDbEntity
  8
8
100
AcDbVertex
100
AcDb2dVertex
 10
-2408.7761204996314
 20
-1101.3773133179616
 30
0.0
 70
0
  0
VERTEX
  5
4B1
330
42C
100
AcDbEntity
  8
8
100
AcDbVertex
100
AcDb2dVertex
 10
-2003.671021672748
 20
-974.589479102905
 30
0.0
 70
0
  0
VERTEX
  5
4B2
330
42C
100
AcDbEntity
  8
8
100
AcDbVertex
100
AcDb2dVertex
 10
-1981.5699769518067
 20
-968.5315093414611
 30
0.0
 70
0
  0
VERTEX
  5
4B3
330
42C
100
AcDbEntity
  8
8
100
AcDbVertex
100
AcDb2dVertex
 10
-1959.3714712933993
 20
-960.7277697500381
 30
0.0
 70
0
  0
VERTEX
  5
4B4
330
42C
100
AcDbEntity
  8
8
100
AcDbVertex
100
AcDb2dVertex
 10
-1804.0883493537603
 20
-911.952933128442
 30
0.0
 70
0
  0
VERTEX
  5
4B5
330
42C
100
AcDbEntity
  8
8
100
AcDbVertex
100
AcDb2dVertex
 10
-1781.9652325832637
 20
-905.7694981880713
 30
0.0
 70
0
  0
VERTEX
  5
4B6
330
42C
100
AcDbEntity
  8
8
100
AcDbVertex
100
AcDb2dVertex
 10
-1759.7293297986932
 20
-898.0136441197483
 30
0.0
 70
0
  0
VERTEX
  5
4B7
330
42C
100
AcDbEntity
  8
8
100
AcDbVertex
100
AcDb2dVertex
 10
-1582.3001898106722
 20
-842.3001553153913
 30
0.0
 70
0
  0
VERTEX
  5
4B8
330
42C
100
AcDbEntity
  8
8
100
AcDbVertex
100
AcDb2dVertex
 10
-1560.1858028954503
 20
-836.0472027429682
 30
0.0
 70
0
  0
VERTEX
  5
4B9
330
42C
100
AcDbEntity
  8
8
100
AcDbVertex
100
AcDb2dVertex
 10
-1537.94233400393
 20
-828.3840887017946
 30
0.0
 70
0
  0
VERTEX
  5
4BA
330
42C
100
AcDbEntity
  8
8
100
AcDbVertex
100
AcDb2dVertex
 10
-1427.0449207234115
 20
-793.6198949988493
 30
0.0
 70
0
  0
VERTEX
  5
4BB
330
42C
100
AcDbEntity
  8
8
100
AcDbVertex
100
AcDb2dVertex
 10
-1404.9346622205542
 20
-787.322317865398
 30
0.0
 70
0
  0
VERTEX
  5
4BC
330
42C
100
AcDbEntity
  8
8
100
AcDbVertex
100
AcDb2dVertex
 10
-1382.6835454193968
 20
-779.7241382661882
 30
0.0
 70
0
  0
VERTEX
  5
4BD
330
42C
100
AcDbEntity
  8
8
100
AcDbVertex
100
AcDb2dVertex
 10
-1271.7630528653704
 20
-745.0111000176421
 30
0.0
 70
0
  0
VERTEX
  5
4BE
330
42C
100
AcDbEntity
  8
8
100
AcDbVertex
100
AcDb2dVertex
 10
-1249.6478214239296
 20
-738.6648577642964
 30
0.0
 70
0
  0
VERTEX
  5
4BF
330
42C
100
AcDbEntity
  8
8
100
AcDbVertex
100
AcDb2dVertex
 10
-1227.3807781405294
 20
-731.1274877417914
 30
0.0
 70
0
  0
VERTEX
  5
4C0
330
42C
100
AcDbEntity
  8
8
100
AcDbVertex
100
AcDb2dVertex
 10
-1205.263910636591
 20
-724.7625394555521
 30
0.0
 70
0
  0
VERTEX
  5
4C1
330
42C
100
AcDbEntity
  8
8
100
AcDbVertex
100
AcDb2dVertex
 10
-1182.989032812437
 20
-717.2191846054634
 30
0.0
 70
0
  0
VERTEX
  5
4C2
330
42C
100
AcDbEntity
  8
8
100
AcDbVertex
100
AcDb2dVertex
 10
-1138.5162398450466
 20
-703.1951697702011
 30
0.0
 70
0
  0
SEQEND
  5
4A7
330
42C
100
AcDbEntity
  8
8
  0
POLYLINE
  5
4C3
330
42C
100
AcDbEntity
  8
8
100
AcDb2dPolyline
 66
1
 70
0
  0
VERTEX
  5
4C5
330
42C
100
AcDbEntity
  8
8
100
AcDbVertex
100
AcDb2dVertex
 10
-2425.272337133794
 20
-1127.5024429858172
 30
0.0
 70
0
  0
VERTEX
  5
4C6
330
42C
100
AcDbEntity
  8
8
100
AcDbVertex
100
AcDb2dVertex
 10
-2429.544084213279
 20
-1100.6641155090338
 30
0.0
 70
0
  0
VERTEX
  5
4C7
330
42C
100
AcDbEntity
  8
8
100
AcDbVertex
100
AcDb2dVertex
 10
-2428.5132859820715
 20
-1096.0394498459154
 30
0.0
 70
0
  0
VERTEX
  5
4C8
330
42C
100
AcDbEntity
  8
8
100
AcDbVertex
100
AcDb2dVertex
 10
-2426.6578117147333
 20
-1093.0279126752785
 30
0.0
 70
0
  0
VERTEX
  5
4C9
330
42C
100
AcDbEntity
  8
8
100
AcDbVertex
100
AcDb2dVertex
 10
-2424.0366769114235
 20
-1090.6490206668554
 30
0.0
 70
0
  0
VERTEX
  5
4CA
330
42C
100
AcDbEntity
  8
8
100
AcDbVertex
100
AcDb2dVertex
 10
-2420.859684555349
 20
-1089.0932580385556
 30
0.0
 70
0
  0
VERTEX
  5
4CB
330
42C
100
AcDbEntity
  8
8
100
AcDbVertex
100
AcDb2dVertex
 10
-2417.3771699126564
 20
-1088.493284205882
 30
0.0
 70
0
  0
VERTEX
  5
4CC
330
42C
100
AcDbEntity
  8
8
100
AcDbVertex
100
AcDb2dVertex
 10
-2413.9843559792726
 20
-1088.8700483991984
 30
0.0
 70
0
  0
VERTEX
  5
4CD
330
42C
100
AcDbEntity
  8
8
100
AcDbVertex
100
AcDb2dVertex
 10
-2410.81773043952
 20
-1090.1599383276066
 30
0.0
 70
0
  0
VERTEX
  5
4CE
330
42C
100
AcDbEntity
  8
8
100
AcDbVertex
100
AcDb2dVertex
 10
-2406.7589287660867
 20
-1093.773922411032
 30
0.0
 70
0
  0
VERTEX
  5
4CF
330
42C
100
AcDbEntity
  8
8
100
AcDbVertex
100
AcDb2dVertex
 10
-2405.7684013145176
 20
-1093.5919233852242
 30
0.0
 70
0
  0
VERTEX
  5
4D0
330
42C
100
AcDbEntity
  8
8
100
AcDbVertex
100
AcDb2dVertex
 10
-1163.1734575489422
 20
-704.1031365944068
 30
0.0
 70
0
  0
VERTEX
  5
4D1
330
42C
100
AcDbEntity
  8
8
100
AcDbVertex
100
AcDb2dVertex
 10
-338.09443711532913
 20
-440.8773622421736
 30
0.0
 70
0
  0
VERTEX
  5
4D2
330
42C
100
AcDbEntity
  8
8
100
AcDbVertex
100
AcDb2dVertex
 10
420.729047572828
 20
-190.39527895673382
 30
0.0
 70
0
  0
VERTEX
  5
4D3
330
42C
100
AcDbEntity
  8
8
100
AcDbVertex
100
AcDb2dVertex
 10
1157.9345483878724
 20
51.26140201717271
 30
0.0
 70
0
  0
VERTEX
  5
4D4
330
42C
100
AcDbEntity
  8
8
100
AcDbVertex
100
AcDb2dVertex
 10
1270.137280008687
 20
88.69028606504116
 30
0.0
 70
0
  0
VERTEX
  5
4D5
330
42C
100
AcDbEntity
  8
8
100
AcDbVertex
100
AcDb2dVertex
 10
1941.8077201526294
 20
325.61257205203356
 30
0.0
 70
0
  0
VERTEX
  5
4D6
330
42C
100
AcDbEntity
  8
8
100
AcDbVertex
100
AcDb2dVertex
 10
2073.574278576013
 20
374.69282338387666
 30
0.0
 70
0
  0
VERTEX
  5
4D7
330
42C
100
AcDbEntity
  8
8
100
AcDbVertex
100
AcDb2dVertex
 10
2211.653243287097
 20
427.5349683080767
 30
0.0
 70
0
  0
VERTEX
  5
4D8
330
42C
100
AcDbEntity
  8
8
100
AcDbVertex
100
AcDb2dVertex
 10
2258.7408877479565
 20
446.75710039241767
 30
0.0
 70
0
  0
VERTEX
  5
4D9
330
42C
100
AcDbEntity
  8
8
100
AcDbVertex
100
AcDb2dVertex
 10
2304.3085383550215
 20
464.6202318636133
 30
0.0
 70
0
  0
VERTEX
  5
4DA
330
42C
100
AcDbEntity
  8
8
100
AcDbVertex
100
AcDb2dVertex
 10
2419.544482624627
 20
508.2557174878539
 30
0.0
 70
0
  0
VERTEX
  5
4DB
330
42C
100
AcDbEntity
  8
8
100
AcDbVertex
100
AcDb2dVertex
 10
2423.1597410293675
 20
509.4428581200009
 30
0.0
 70
0
  0
VERTEX
  5
4DC
330
42C
100
AcDbEntity
  8
8
100
AcDbVertex
100
AcDb2dVertex
 10
2426.2371658985567
 20
509.48114780121705
 30
0.0
 70
0
  0
VERTEX
  5
4DD
330
42C
100
AcDbEntity
  8
8
100
AcDbVertex
100
AcDb2dVertex
 10
2429.1842973988737
 20
508.5770266059599
 30
0.0
 70
0
  0
VERTEX
  5
4DE
330
42C
100
AcDbEntity
  8
8
100
AcDbVertex
100
AcDb2dVertex
 10
2431.778331139765
 20
506.65704575824657
 30
0.0
 70
0
  0
VERTEX
  5
4DF
330
42C
100
AcDbEntity
  8
8
100
AcDbVertex
100
AcDb2dVertex
 10
2434.862537803469
 20
502.45804923337164
 30
0.0
 70
0
  0
VERTEX
  5
4E0
330
42C
100
AcDbEntity
  8
8
100
AcDbVertex
100
AcDb2dVertex
 10
2437.1303615063284
 20
500.39992713681477
 30
0.0
 70
0
  0
VERTEX
  5
4E1
330
42C
100
AcDbEntity
  8
8
100
AcDbVertex
100
AcDb2dVertex
 10
2437.9947893677418
 20
497.83963976218183
 30
0.0
 70
0
  0
SEQEND
  5
4C4
330
42C
100
AcDbEntity
  8
8
  0
POLYLINE
  5
4E2
330
42C
100
AcDbEntity
  8
8
100
AcDb2dPolyline
 66
1
 70
0
  0
VERTEX
  5
4E4
330
42C
100
AcDbEntity
  8
8
100
AcDbVertex
100
AcDb2dVertex
 10
-2001.824968135965
 20
-1008.4975707174099
 30
0.0
 70
0
  0
VERTEX
  5
4E5
330
42C
100
AcDbEntity
  8
8
100
AcDbVertex
100
AcDb2dVertex
 10
-2019.6142231711897
 20
-977.4396862965846
 30
0.0
 70
0
  0
VERTEX
  5
4E6
330
42C
100
AcDbEntity
  8
8
100
AcDbVertex
100
AcDb2dVertex
 10
-2026.4946671826574
 20
-958.6675566029667
 30
0.0
 70
0
  0
SEQEND
  5
4E3
330
42C
100
AcDbEntity
  8
8
  0
POLYLINE
  5
4E7
330
42C
100
AcDbEntity
  8
8
100
AcDb2dPolyline
 66
1
 70
0
  0
VERTEX
  5
4E9
330
42C
100
AcDbEntity
  8
8
100
AcDbVertex
100
AcDb2dVertex
 10
-1236.6401790418847
 20
-768.4977621478333
 30
0.0
 70
0
  0
VERTEX
  5
4EA
330
42C
100
AcDbEntity
  8
8
100
AcDbVertex
100
AcDb2dVertex
 10
-1252.362651587821
 20
-739.742948715691
 30
0.0
 70
0
  0
VERTEX
  5
4EB
330
42C
100
AcDbEntity
  8
8
100
AcDbVertex
100
AcDb2dVertex
 10
-1259.434364413893
 20
-720.7798712581302
 30
0.0
 70
0
  0
SEQEND
  5
4E8
330
42C
100
AcDbEntity
  8
8
  0
POLYLINE
  5
4EC
330
42C
100
AcDbEntity
  8
8
100
AcDb2dPolyline
 66
1
 70
0
  0
VERTEX
  5
4EE
330
42C
100
AcDbEntity
  8
8
100
AcDbVertex
100
AcDb2dVertex
 10
-467.7903315793758
 20
-522.7378309927981
 30
0.0
 70
0
  0
VERTEX
  5
4EF
330
42C
100
AcDbEntity
  8
8
100
AcDbVertex
100
AcDb2dVertex
 10
-481.395944640788
 20
-497.35129111774904
 30
0.0
 70
0
  0
VERTEX
  5
4F0
330
42C
100
AcDbEntity
  8
8
100
AcDbVertex
100
AcDb2dVertex
 10
-489.21147342645054
 20
-477.34094456248613
 30
0.0
 70
0
  0
SEQEND
  5
4ED
330
42C
100
AcDbEntity
  8
8
  0
POLYLINE
  5
4F1
330
42C
100
AcDbEntity
  8
8
100
AcDb2dPolyline
 66
1
 70
0
  0
VERTEX
  5
4F3
330
42C
100
AcDbEntity
  8
8
100
AcDbVertex
100
AcDb2dVertex
 10
384.53620223498365
 20
-235.09926897235346
 30
0.0
 70
0
  0
VERTEX
  5
4F4
330
42C
100
AcDbEntity
  8
8
100
AcDbVertex
100
AcDb2dVertex
 10
377.1375068122843
 20
-220.61126594351617
 30
0.0
 70
0
  0
VERTEX
  5
4F5
330
42C
100
AcDbEntity
  8
8
100
AcDbVertex
100
AcDb2dVertex
 10
368.810218873075
 20
-199.75259080774595
 30
0.0
 70
0
  0
SEQEND
  5
4F2
330
42C
100
AcDbEntity
  8
8
  0
POLYLINE
  5
4F6
330
42C
100
AcDbEntity
  8
8
100
AcDb2dPolyline
 66
1
 70
0
  0
VERTEX
  5
4F8
330
42C
100
AcDbEntity
  8
8
100
AcDbVertex
100
AcDb2dVertex
 10
1035.4730367143625
 20
-14.41319338771791
 30
0.0
 70
0
  0
VERTEX
  5
4F9
330
42C
100
AcDbEntity
  8
8
100
AcDbVertex
100
AcDb2dVertex
 10
1031.5308306066963
 20
-6.8762550802275655
 30
0.0
 70
0
  0
VERTEX
  5
4FA
330
42C
100
AcDbEntity
  8
8
100
AcDbVertex
100
AcDb2dVertex
 10
1024.1711636748073
 20
11.241019941965078
 30
0.0
 70
0
  0
SEQEND
  5
4F7
330
42C
100
AcDbEntity
  8
8
  0
POLYLINE
  5
4FB
330
42C
100
AcDbEntity
  8
8
100
AcDb2dPolyline
 66
1
 70
0
  0
VERTEX
  5
4FD
330
42C
100
AcDbEntity
  8
8
100
AcDbVertex
100
AcDb2dVertex
 10
1477.115664982738
 20
127.91276784936099
 30
0.0
 70
0
  0
VERTEX
  5
4FE
330
42C
100
AcDbEntity
  8
8
100
AcDbVertex
100
AcDb2dVertex
 10
1464.6909143073303
 20
141.73438522030438
 30
0.0
 70
0
  0
VERTEX
  5
4FF
330
42C
100
AcDbEntity
  8
8
100
AcDbVertex
100
AcDb2dVertex
 10
1457.3681889016407
 20
155.02912688920924
 30
0.0
 70
0
  0
SEQEND
  5
4FC
330
42C
100
AcDbEntity
  8
8
  0
POLYLINE
  5
500
330
42C
100
AcDbEntity
  8
8
100
AcDb2dPolyline
 66
1
 70
0
  0
VERTEX
  5
502
330
42C
100
AcDbEntity
  8
8
100
AcDbVertex
100
AcDb2dVertex
 10
1965.7230169302243
 20
302.29113474169117
 30
0.0
 70
0
  0
VERTEX
  5
503
330
42C
100
AcDbEntity
  8
8
100
AcDbVertex
100
AcDb2dVertex
 10
1958.4060598217975
 20
307.15050497622315
 30
0.0
 70
0
  0
VERTEX
  5
504
330
42C
100
AcDbEntity
  8
8
100
AcDbVertex
100
AcDb2dVertex
 10
1950.1135593641766
 20
313.98294786192264
 30
0.0
 70
0
  0
VERTEX
  5
505
330
42C
100
AcDbEntity
  8
8
100
AcDbVertex
100
AcDb2dVertex
 10
1944.1043817648692
 20
322.3693930908744
 30
0.0
 70
0
  0
SEQEND
  5
501
330
42C
100
AcDbEntity
  8
8
  0
POLYLINE
  5
506
330
42C
100
AcDbEntity
  8
8
100
AcDb2dPolyline
 66
1
 70
0
  0
VERTEX
  5
508
330
42C
100
AcDbEntity
  8
8
100
AcDbVertex
100
AcDb2dVertex
 10
-1259.4384054305917
 20
-720.7680712440729
 30
0.0
 70
0
  0
VERTEX
  5
509
330
42C
100
AcDbEntity
  8
8
100
AcDbVertex
100
AcDb2dVertex
 10
-1260.5868815064584
 20
-704.5964261598951
 30
0.0
 70
0
  0
VERTEX
  5
50A
330
42C
100
AcDbEntity
  8
8
100
AcDbVertex
100
AcDb2dVertex
 10
-1260.152180386193
 20
-699.5622294771551
 30
0.0
 70
0
  0
VERTEX
  5
50B
330
42C
100
AcDbEntity
  8
8
100
AcDbVertex
100
AcDb2dVertex
 10
-1257.7387086860576
 20
-684.9262473222766
 30
0.0
 70
0
  0
VERTEX
  5
50C
330
42C
100
AcDbEntity
  8
8
100
AcDbVertex
100
AcDb2dVertex
 10
-1253.8248448936688
 20
-668.6632937451614
 30
0.0
 70
0
  0
VERTEX
  5
50D
330
42C
100
AcDbEntity
  8
8
100
AcDbVertex
100
AcDb2dVertex
 10
-1248.7985852594884
 20
-650.3750395384468
 30
0.0
 70
0
  0
VERTEX
  5
50E
330
42C
100
AcDbEntity
  8
8
100
AcDbVertex
100
AcDb2dVertex
 10
-1225.4551129187942
 20
-573.4136686543247
 30
0.0
 70
0
  0
VERTEX
  5
50F
330
42C
100
AcDbEntity
  8
8
100
AcDbVertex
100
AcDb2dVertex
 10
-1215.689248851635
 20
-537.5841519966184
 30
0.0
 70
0
  0
VERTEX
  5
510
330
42C
100
AcDbEntity
  8
8
100
AcDbVertex
100
AcDb2dVertex
 10
-1212.098023723387
 20
-530.3235621145263
 30
0.0
 70
0
  0
VERTEX
  5
511
330
42C
100
AcDbEntity
  8
8
100
AcDbVertex
100
AcDb2dVertex
 10
-1205.2080127769893
 20
-505.5172606870269
 30
0.0
 70
0
  0
VERTEX
  5
512
330
42C
100
AcDbEntity
  8
8
100
AcDbVertex
100
AcDb2dVertex
 10
-876.8181414210229
 20
592.2426879256127
 30
0.0
 70
0
  0
SEQEND
  5
507
330
42C
100
AcDbEntity
  8
8
  0
POLYLINE
  5
513
330
42C
100
AcDbEntity
  8
8
100
AcDb2dPolyline
 66
1
 70
0
  0
VERTEX
  5
515
330
42C
100
AcDbEntity
  8
8
100
AcDbVertex
100
AcDb2dVertex
 10
368.8083977749609
 20
-199.7027382468782
 30
0.0
 70
0
  0
VERTEX
  5
516
330
42C
100
AcDbEntity
  8
8
100
AcDbVertex
100
AcDb2dVertex
 10
368.79881169122564
 20
-187.2758011586261
 30
0.0
 70
0
  0
VERTEX
  5
517
330
42C
100
AcDbEntity
  8
8
100
AcDbVertex
100
AcDb2dVertex
 10
372.22394938128514
 20
-173.44552052572635
 30
0.0
 70
0
  0
VERTEX
  5
518
330
42C
100
AcDbEntity
  8
8
100
AcDbVertex
100
AcDb2dVertex
 10
377.0868776458076
 20
-158.6745068065111
 30
0.0
 70
0
  0
VERTEX
  5
519
330
42C
100
AcDbEntity
  8
8
100
AcDbVertex
100
AcDb2dVertex
 10
403.13962586040157
 20
-84.85902225605832
 30
0.0
 70
0
  0
VERTEX
  5
51A
330
42C
100
AcDbEntity
  8
8
100
AcDbVertex
100
AcDb2dVertex
 10
409.9371293407412
 20
-60.28305698184295
 30
0.0
 70
0
  0
VERTEX
  5
51B
330
42C
100
AcDbEntity
  8
8
100
AcDbVertex
100
AcDb2dVertex
 10
413.89650175423526
 20
-55.4369705334916
 30
0.0
 70
0
  0
VERTEX
  5
51C
330
42C
100
AcDbEntity
  8
8
100
AcDbVertex
100
AcDb2dVertex
 10
414.6357365696879
 20
-53.52606634632366
 30
0.0
 70
0
  0
VERTEX
  5
51D
330
42C
100
AcDbEntity
  8
8
100
AcDbVertex
100
AcDb2dVertex
 10
420.7485255323245
 20
-32.76705580782891
 30
0.0
 70
0
  0
VERTEX
  5
51E
330
42C
100
AcDbEntity
  8
8
100
AcDbVertex
100
AcDb2dVertex
 10
751.9428019665138
 20
951.8404434663898
 30
0.0
 70
0
  0
SEQEND
  5
514
330
42C
100
AcDbEntity
  8
8
  0
POLYLINE
  5
51F
330
42C
100
AcDbEntity
  8
8
100
AcDb2dPolyline
 66
1
 70
0
  0
VERTEX
  5
521
330
42C
100
AcDbEntity
  8
8
100
AcDbVertex
100
AcDb2dVertex
 10
1740.352878797401
 20
1053.1823624847339
 30
0.0
 70
0
  0
VERTEX
  5
522
330
42C
100
AcDbEntity
  8
8
100
AcDbVertex
100
AcDb2dVertex
 10
1260.9730033124392
 20
282.45786678214154
 30
0.0
 70
0
  0
SEQEND
  5
520
330
42C
100
AcDbEntity
  8
8
  0
POLYLINE
  5
523
330
42C
100
AcDbEntity
  8
8
100
AcDb2dPolyline
 66
1
 70
0
  0
VERTEX
  5
525
330
42C
100
AcDbEntity
  8
8
100
AcDbVertex
100
AcDb2dVertex
 10
1260.9730033124392
 20
282.45786678214154
 30
0.0
 70
0
  0
VERTEX
  5
526
330
42C
100
AcDbEntity
  8
8
100
AcDbVertex
100
AcDb2dVertex
 10
1332.1747070407914
 20
235.20587498738314
 30
0.0
 70
0
  0
SEQEND
  5
524
330
42C
100
AcDbEntity
  8
8
  0
POLYLINE
  5
527
330
42C
100
AcDbEntity
  8
8
100
AcDb2dPolyline
 66
1
 70
0
  0
VERTEX
  5
529
330
42C
100
AcDbEntity
  8
8
100
AcDbVertex
100
AcDb2dVertex
 10
1332.1747070407914
 20
235.20587498738314
 30
0.0
 70
0
  0
VERTEX
  5
52A
330
42C
100
AcDbEntity
  8
8
100
AcDbVertex
100
AcDb2dVertex
 10
1829.2069348357113
 20
1034.8551346470013
 30
0.0
 70
0
  0
SEQEND
  5
528
330
42C
100
AcDbEntity
  8
8
  0
ENDBLK
  5
42E
330
42C
100
AcDbEntity
  8
0
100
AcDbBlockEnd
  0
ENDSEC
  0
SECTION
  2
ENTITIES
  0
INSERT
  5
192
330
17
100
AcDbEntity
  8
0
100
AcDbBlockReference
  2
TS
 10
1374.486328125
 20
616.1638946533203
 30
0.0
  0
INSERT
  5
2BC
330
17
100
AcDbEntity
  8
0
100
AcDbBlockReference
  2
LE
 10
1587.8603515625
 20
2375.5054931640625
 30
0.0
  0
INSERT
  5
42A
330
17
100
AcDbEntity
  8
0
100
AcDbBlockReference
  2
LEM
 10
1607.447998046875
 20
1868.0098266601562
 30
0.0
  0
INSERT
  5
52B
330
17
100
AcDbEntity
  8
0
100
AcDbBlockReference
  2
US
 10
1515.3456115722656
 20
3707.4486083984375
 30
0.0
  0
ENDSEC
  0
SECTION
  2
OBJECTS
  0
DICTIONARY
  5
A
330
0
100
AcDbDictionary
281
1
  3
ACAD_COLOR
350
B
  3
ACAD_GROUP
350
C
  3
ACAD_LAYOUT
350
D
  3
ACAD_MATERIAL
350
E
  3
ACAD_MLEADERSTYLE
350
F
  3
ACAD_MLINESTYLE
350
10
  3
ACAD_PLOTSETTINGS
350
11
  3
ACAD_PLOTSTYLENAME
350
12
  3
ACAD_SCALELIST
350
14
  3
ACAD_TABLESTYLE
350
15
  3
ACAD_VISUALSTYLE
350
16
  0
DICTIONARY
  5
B
330
A
100
AcDbDictionary
281
1
  0
DICTIONARY
  5
C
330
A
100
AcDbDictionary
281
1
  0
DICTIONARY
  5
D
330
A
100
AcDbDictionary
281
1
  3
Model
350
1A
  3
Layout1
350
1E
  0
DICTIONARY
  5
E
330
A
100
AcDbDictionary
281
1
  3
ByBlock
350
1F
  3
ByLayer
350
20
  3
Global
350
21
  0
DICTIONARY
  5
F
330
A
100
AcDbDictionary
281
1
  3
Standard
350
2C
  0
DICTIONARY
  5
10
330
A
100
AcDbDictionary
281
1
  3
Standard
350
22
  0
DICTIONARY
  5
11
330
A
100
AcDbDictionary
281
1
  0
ACDBDICTIONARYWDFLT
  5
12
330
A
100
AcDbDictionary
281
1
  3
Normal
350
13
100
AcDbDictionaryWithDefault
340
13
  0
ACDBPLACEHOLDER
  5
13
330
12
  0
DICTIONARY
  5
14
330
A
100
AcDbDictionary
281
1
  0
DICTIONARY
  5
15
330
A
100
AcDbDictionary
281
1
  0
DICTIONARY
  5
16
330
A
100
AcDbDictionary
281
1
  0
LAYOUT
  5
1A
330
D
100
AcDbPlotSettings
  1

  2
Adobe PDF
  4
A4
  6

 40
3.175
 41
3.175
 42
3.175
 43
3.175
 44
209.91
 45
297.03
 46
0.0
 47
0.0
 48
0.0
 49
0.0
140
0.0
141
0.0
142
1.0
143
1.0
 70
1024
 72
0
 73
1
 74
5
  7

 75
16
 76
0
 77
2
 78
300
147
1.0
148
0.0
149
0.0
100
AcDbLayout
  1
Model
 70
1
 71
0
 10
-3.175
 20
-3.175
 11
293.857
 21
206.735
 12
0.0
 22
0.0
 32
0.0
 14
29.068
 24
20.356
 34
0.0
 15
261.614
 25
183.204
 35
0.0
146
0.0
 13
0.0
 23
0.0
 33
0.0
 16
1.0
 26
0.0
 36
0.0
 17
0.0
 27
1.0
 37
0.0
 76
1
330
17
  0
LAYOUT
  5
1E
330
D
100
AcDbPlotSettings
  1

  2
Adobe PDF
  4
A4
  6

 40
3.175
 41
3.175
 42
3.175
 43
3.175
 44
209.91
 45
297.03
 46
0.0
 47
0.0
 48
0.0
 49
0.0
140
0.0
141
0.0
142
1.0
143
1.0
 70
0
 72
0
 73
1
 74
5
  7

 75
16
 76
0
 77
2
 78
300
147
1.0
148
0.0
149
0.0
100
AcDbLayout
  1
Layout1
 70
1
 71
1
 10
-3.175
 20
-3.175
 11
293.857
 21
206.735
 12
0.0
 22
0.0
 32
0.0
 14
29.068
 24
20.356
 34
0.0
 15
261.614
 25
183.204
 35
0.0
146
0.0
 13
0.0
 23
0.0
 33
0.0
 16
1.0
 26
0.0
 36
0.0
 17
0.0
 27
1.0
 37
0.0
 76
1
330
1B
  0
MATERIAL
  5
1F
102
{ACAD_REACTORS
330
E
102
}
330
E
100
AcDbMaterial
  1
ByBlock
  2

 70
0
 40
1.0
 71
1
 41
1.0
 91
-1023410177
 42
1.0
 72
1
  3

 73
1
 74
1
 75
1
 44
0.5
 73
0
 45
1.0
 46
1.0
 77
1
  4

 78
1
 79
1
170
1
 48
1.0
171
1
  6

172
1
173
1
174
1
140
1.0
141
1.0
175
1
  7

176
1
177
1
178
1
143
1.0
179
1
  8

270
1
271
1
272
1
145
1.0
146
1.0
273
1
  9

274
1
275
1
276
1
 42
1.0
 72
1
  3

 73
1
 74
1
 75
1
 94
63
  0
MATERIAL
  5
20
102
{ACAD_REACTORS
330
E
102
}
330
E
100
AcDbMaterial
  1
ByLayer
  2

 70
0
 40
1.0
 71
1
 41
1.0
 91
-1023410177
 42
1.0
 72
1
  3

 73
1
 74
1
 75
1
 44
0.5
 73
0
 45
1.0
 46
1.0
 77
1
  4

 78
1
 79
1
170
1
 48
1.0
171
1
  6

172
1
173
1
174
1
140
1.0
141
1.0
175
1
  7

176
1
177
1
178
1
143
1.0
179
1
  8

270
1
271
1
272
1
145
1.0
146
1.0
273
1
  9

274
1
275
1
276
1
 42
1.0
 72
1
  3

 73
1
 74
1
 75
1
 94
63
  0
MATERIAL
  5
21
102
{ACAD_REACTORS
330
E
102
}
330
E
100
AcDbMaterial
  1
Global
  2

 70
0
 40
1.0
 71
1
 41
1.0
 91
-1023410177
 42
1.0
 72
1
  3

 73
1
 74
1
 75
1
 44
0.5
 73
0
 45
1.0
 46
1.0
 77
1
  4

 78
1
 79
1
170
1
 48
1.0
171
1
  6

172
1
173
1
174
1
140
1.0
141
1.0
175
1
  7

176
1
177
1
178
1
143
1.0
179
1
  8

270
1
271
1
272
1
145
1.0
146
1.0
273
1
  9

274
1
275
1
276
1
 42
1.0
 72
1
  3

 73
1
 74
1
 75
1
 94
63
  0
MLINESTYLE
  5
22
102
{ACAD_REACTORS
330
10
102
}
330
10
100
AcDbMlineStyle
  2
Standard
 70
0
  3

 62
256
 51
90.0
 52
90.0
 71
2
 49
0.5
 62
256
  6
BYLAYER
 49
-0.5
 62
256
  6
BYLAYER
  0
MLEADERSTYLE
  5
2C
102
{ACAD_REACTORS
330
F
102
}
330
F
100
AcDbMLeaderStyle
179
2
170
2
171
1
172
0
 90
2
 40
0.0
 41
0.0
173
1
 91
-1056964608
 92
-2
290
1
 42
2.0
291
1
 43
8.0
  3
Standard
 44
4.0
300

342
29
174
1
175
1
176
0
178
1
 93
-1056964608
 45
4.0
292
0
297
0
 46
4.0
 94
-1056964608
 47
1.0
 49
0.0
140
1.0
294
1
141
0.0
177
0
142
1.0
295
0
296
0
143
3.75
271
0
272
9
272
9
  0
ENDSEC
  0
EOF
