  0
SECTION
  2
HEADER
  9
$ACADVER
  1
AC1027
  9
$ACADMAINTVER
 70
105
  9
$DWGCODEPAGE
  3
ANSI_1252
  9
$LASTSAVEDBY
  1
ezdxf
  9
$REQUIREDVERSIONS
160
0
  9
$INSBASE
 10
0.0
 20
0.0
 30
0.0
  9
$EXTMIN
 10
1e+20
 20
1e+20
 30
1e+20
  9
$EXTMAX
 10
-1e+20
 20
-1e+20
 30
-1e+20
  9
$LIMMIN
 10
0.0
 20
0.0
  9
$LIMMAX
 10
420.0
 20
297.0
  9
$ORTHOMODE
 70
0
  9
$REGENMODE
 70
1
  9
$FILLMODE
 70
1
  9
$QTEXTMODE
 70
0
  9
$MIRRTEXT
 70
1
  9
$LTSCALE
 40
1.0
  9
$ATTMODE
 70
1
  9
$TEXTSIZE
 40
2.5
  9
$TRACEWID
 40
1.0
  9
$TEXTSTYLE
  7
Standard
  9
$CLAYER
  8
0
  9
$CELTYPE
  6
ByLayer
  9
$CECOLOR
 62
256
  9
$CELTSCALE
 40
1.0
  9
$DISPSILH
 70
0
  9
$DIMSCALE
 40
1.0
  9
$DIMASZ
 40
2.5
  9
$DIMEXO
 40
0.625
  9
$DIMDLI
 40
3.75
  9
$DIMRND
 40
0.0
  9
$DIMDLE
 40
0.0
  9
$DIMEXE
 40
1.25
  9
$DIMTP
 40
0.0
  9
$DIMTM
 40
0.0
  9
$DIMTXT
 40
2.5
  9
$DIMCEN
 40
2.5
  9
$DIMTSZ
 40
0.0
  9
$DIMTOL
 70
0
  9
$DIMLIM
 70
0
  9
$DIMTIH
 70
0
  9
$DIMTOH
 70
0
  9
$DIMSE1
 70
0
  9
$DIMSE2
 70
0
  9
$DIMTAD
 70
1
  9
$DIMZIN
 70
8
  9
$DIMBLK
  1

  9
$DIMASO
 70
1
  9
$DIMSHO
 70
1
  9
$DIMPOST
  1

  9
$DIMAPOST
  1

  9
$DIMALT
 70
0
  9
$DIMALTD
 70
3
  9
$DIMALTF
 40
0.03937007874
  9
$DIMLFAC
 40
1.0
  9
$DIMTOFL
 70
1
  9
$DIMTVP
 40
0.0
  9
$DIMTIX
 70
0
  9
$DIMSOXD
 70
0
  9
$DIMSAH
 70
0
  9
$DIMBLK1
  1

  9
$DIMBLK2
  1

  9
$DIMSTYLE
  2
ISO-25
  9
$DIMCLRD
 70
0
  9
$DIMCLRE
 70
0
  9
$DIMCLRT
 70
0
  9
$DIMTFAC
 40
1.0
  9
$DIMGAP
 40
0.625
  9
$DIMJUST
 70
0
  9
$DIMSD1
 70
0
  9
$DIMSD2
 70
0
  9
$DIMTOLJ
 70
0
  9
$DIMTZIN
 70
8
  9
$DIMALTZ
 70
0
  9
$DIMALTTZ
 70
0
  9
$DIMUPT
 70
0
  9
$DIMDEC
 70
2
  9
$DIMTDEC
 70
2
  9
$DIMALTU
 70
2
  9
$DIMALTTD
 70
3
  9
$DIMTXSTY
  7
Standard
  9
$DIMAUNIT
 70
0
  9
$DIMADEC
 70
0
  9
$DIMALTRND
 40
0.0
  9
$DIMAZIN
 70
0
  9
$DIMDSEP
 70
44
  9
$DIMATFIT
 70
3
  9
$DIMFRAC
 70
0
  9
$DIMLDRBLK
  1

  9
$DIMLUNIT
 70
2
  9
$DIMLWD
 70
-2
  9
$DIMLWE
 70
-2
  9
$DIMTMOVE
 70
0
  9
$DIMFXL
 40
1.0
  9
$DIMFXLON
 70
0
  9
$DIMJOGANG
 40
0.785398163397
  9
$DIMTFILL
 70
0
  9
$DIMTFILLCLR
 70
0
  9
$DIMARCSYM
 70
0
  9
$DIMLTYPE
  6

  9
$DIMLTEX1
  6

  9
$DIMLTEX2
  6

  9
$DIMTXTDIRECTION
 70
0
  9
$LUNITS
 70
2
  9
$LUPREC
 70
4
  9
$SKETCHINC
 40
1.0
  9
$FILLETRAD
 40
10.0
  9
$AUNITS
 70
0
  9
$AUPREC
 70
2
  9
$MENU
  1
.
  9
$ELEVATION
 40
0.0
  9
$PELEVATION
 40
0.0
  9
$THICKNESS
 40
0.0
  9
$LIMCHECK
 70
0
  9
$CHAMFERA
 40
0.0
  9
$CHAMFERB
 40
0.0
  9
$CHAMFERC
 40
0.0
  9
$CHAMFERD
 40
0.0
  9
$SKPOLY
 70
0
  9
$TDCREATE
 40
2459694.8038194445
  9
$TDUCREATE
 40
2458532.153996898
  9
$TDUPDATE
 40
2459694.8038657405
  9
$TDUUPDATE
 40
2458532.1544311
  9
$TDINDWG
 40
0.0
  9
$TDUSRTIMER
 40
0.0
  9
$USRTIMER
 70
1
  9
$ANGBASE
 50
0.0
  9
$ANGDIR
 70
0
  9
$PDMODE
 70
0
  9
$PDSIZE
 40
0.0
  9
$PLINEWID
 40
0.0
  9
$SPLFRAME
 70
0
  9
$SPLINETYPE
 70
6
  9
$SPLINESEGS
 70
8
  9
$HANDSEED
  5
5AD
  9
$SURFTAB1
 70
6
  9
$SURFTAB2
 70
6
  9
$SURFTYPE
 70
6
  9
$SURFU
 70
6
  9
$SURFV
 70
6
  9
$UCSBASE
  2

  9
$UCSNAME
  2

  9
$UCSORG
 10
0.0
 20
0.0
 30
0.0
  9
$UCSXDIR
 10
1.0
 20
0.0
 30
0.0
  9
$UCSYDIR
 10
0.0
 20
1.0
 30
0.0
  9
$UCSORTHOREF
  2

  9
$UCSORTHOVIEW
 70
0
  9
$UCSORGTOP
 10
0.0
 20
0.0
 30
0.0
  9
$UCSORGBOTTOM
 10
0.0
 20
0.0
 30
0.0
  9
$UCSORGLEFT
 10
0.0
 20
0.0
 30
0.0
  9
$UCSORGRIGHT
 10
0.0
 20
0.0
 30
0.0
  9
$UCSORGFRONT
 10
0.0
 20
0.0
 30
0.0
  9
$UCSORGBACK
 10
0.0
 20
0.0
 30
0.0
  9
$PUCSBASE
  2

  9
$PUCSNAME
  2

  9
$PUCSORG
 10
0.0
 20
0.0
 30
0.0
  9
$PUCSXDIR
 10
1.0
 20
0.0
 30
0.0
  9
$PUCSYDIR
 10
0.0
 20
1.0
 30
0.0
  9
$PUCSORTHOREF
  2

  9
$PUCSORTHOVIEW
 70
0
  9
$PUCSORGTOP
 10
0.0
 20
0.0
 30
0.0
  9
$PUCSORGBOTTOM
 10
0.0
 20
0.0
 30
0.0
  9
$PUCSORGLEFT
 10
0.0
 20
0.0
 30
0.0
  9
$PUCSORGRIGHT
 10
0.0
 20
0.0
 30
0.0
  9
$PUCSORGFRONT
 10
0.0
 20
0.0
 30
0.0
  9
$PUCSORGBACK
 10
0.0
 20
0.0
 30
0.0
  9
$USERI1
 70
0
  9
$USERI2
 70
0
  9
$USERI3
 70
0
  9
$USERI4
 70
0
  9
$USERI5
 70
0
  9
$USERR1
 40
0.0
  9
$USERR2
 40
0.0
  9
$USERR3
 40
0.0
  9
$USERR4
 40
0.0
  9
$USERR5
 40
0.0
  9
$WORLDVIEW
 70
1
  9
$SHADEDGE
 70
3
  9
$SHADEDIF
 70
70
  9
$TILEMODE
 70
1
  9
$MAXACTVP
 70
64
  9
$PINSBASE
 10
0.0
 20
0.0
 30
0.0
  9
$PLIMCHECK
 70
0
  9
$PEXTMIN
 10
1e+20
 20
1e+20
 30
1e+20
  9
$PEXTMAX
 10
-1e+20
 20
-1e+20
 30
-1e+20
  9
$PLIMMIN
 10
0.0
 20
0.0
  9
$PLIMMAX
 10
420.0
 20
297.0
  9
$UNITMODE
 70
0
  9
$VISRETAIN
 70
1
  9
$PLINEGEN
 70
0
  9
$PSLTSCALE
 70
1
  9
$TREEDEPTH
 70
3020
  9
$CMLSTYLE
  2
Standard
  9
$CMLJUST
 70
0
  9
$CMLSCALE
 40
20.0
  9
$PROXYGRAPHICS
 70
1
  9
$MEASUREMENT
 70
1
  9
$CELWEIGHT
370
-1
  9
$ENDCAPS
280
0
  9
$JOINSTYLE
280
0
  9
$LWDISPLAY
290
0
  9
$INSUNITS
 70
6
  9
$HYPERLINKBASE
  1

  9
$STYLESHEET
  1

  9
$XEDIT
290
1
  9
$CEPSNTYPE
380
0
  9
$PSTYLEMODE
290
1
  9
$FINGERPRINTGUID
  2
{FCC1B233-1CD8-4588-850D-8C8019CE5F77}
  9
$VERSIONGUID
  2
{1C9E45D2-B06F-4ECE-BCC0-19218C19A747}
  9
$EXTNAMES
290
1
  9
$PSVPSCALE
 40
0.0
  9
$OLESTARTUP
290
0
  9
$SORTENTS
280
127
  9
$INDEXCTL
280
0
  9
$HIDETEXT
280
1
  9
$XCLIPFRAME
280
0
  9
$HALOGAP
280
0
  9
$OBSCOLOR
 70
257
  9
$OBSLTYPE
280
0
  9
$INTERSECTIONDISPLAY
280
0
  9
$INTERSECTIONCOLOR
 70
257
  9
$DIMASSOC
280
2
  9
$PROJECTNAME
  1

  9
$CAMERADISPLAY
290
0
  9
$LENSLENGTH
 40
50.0
  9
$CAMERAHEIGHT
 40
0.0
  9
$STEPSPERSEC
 40
24.0
  9
$STEPSIZE
 40
100.0
  9
$3DDWFPREC
 40
2.0
  9
$PSOLWIDTH
 40
0.005
  9
$PSOLHEIGHT
 40
0.08
  9
$LOFTANG1
 40
1.570796326795
  9
$LOFTANG2
 40
1.570796326795
  9
$LOFTMAG1
 40
0.0
  9
$LOFTMAG2
 40
0.0
  9
$LOFTPARAM
 70
7
  9
$LOFTNORMALS
280
1
  9
$LATITUDE
 40
37.795
  9
$LONGITUDE
 40
-122.394
  9
$NORTHDIRECTION
 40
0.0
  9
$TIMEZONE
 70
-8000
  9
$LIGHTGLYPHDISPLAY
280
1
  9
$TILEMODELIGHTSYNCH
280
1
  9
$CMATERIAL
347
20
  9
$SOLIDHIST
280
0
  9
$SHOWHIST
280
1
  9
$DWFFRAME
280
2
  9
$DGNFRAME
280
2
  9
$REALWORLDSCALE
290
1
  9
$INTERFERECOLOR
 62
256
  9
$CSHADOW
280
0
  9
$SHADOWPLANELOCATION
 40
0.0
  0
ENDSEC
  0
SECTION
  2
CLASSES
  0
CLASS
  1
ACDBDICTIONARYWDFLT
  2
AcDbDictionaryWithDefault
  3
ObjectDBX Classes
 90
0
 91
0
280
0
281
0
  0
CLASS
  1
SUN
  2
AcDbSun
  3
SCENEOE
 90
1153
 91
0
280
0
281
0
  0
CLASS
  1
VISUALSTYLE
  2
AcDbVisualStyle
  3
ObjectDBX Classes
 90
4095
 91
0
280
0
281
0
  0
CLASS
  1
MATERIAL
  2
AcDbMaterial
  3
ObjectDBX Classes
 90
1153
 91
0
280
0
281
0
  0
CLASS
  1
SCALE
  2
AcDbScale
  3
ObjectDBX Classes
 90
1153
 91
0
280
0
281
0
  0
CLASS
  1
TABLESTYLE
  2
AcDbTableStyle
  3
ObjectDBX Classes
 90
4095
 91
0
280
0
281
0
  0
CLASS
  1
MLEADERSTYLE
  2
AcDbMLeaderStyle
  3
ACDB_MLEADERSTYLE_CLASS
 90
4095
 91
0
280
0
281
0
  0
CLASS
  1
DICTIONARYVAR
  2
AcDbDictionaryVar
  3
ObjectDBX Classes
 90
0
 91
0
280
0
281
0
  0
CLASS
  1
CELLSTYLEMAP
  2
AcDbCellStyleMap
  3
ObjectDBX Classes
 90
1152
 91
0
280
0
281
0
  0
CLASS
  1
MENTALRAYRENDERSETTINGS
  2
AcDbMentalRayRenderSettings
  3
SCENEOE
 90
1024
 91
0
280
0
281
0
  0
CLASS
  1
ACDBDETAILVIEWSTYLE
  2
AcDbDetailViewStyle
  3
ObjectDBX Classes
 90
1025
 91
0
280
0
281
0
  0
CLASS
  1
ACDBSECTIONVIEWSTYLE
  2
AcDbSectionViewStyle
  3
ObjectDBX Classes
 90
1025
 91
0
280
0
281
0
  0
CLASS
  1
RASTERVARIABLES
  2
AcDbRasterVariables
  3
ISM
 90
0
 91
0
280
0
281
0
  0
CLASS
  1
ACDBPLACEHOLDER
  2
AcDbPlaceHolder
  3
ObjectDBX Classes
 90
0
 91
0
280
0
281
0
  0
CLASS
  1
LAYOUT
  2
AcDbLayout
  3
ObjectDBX Classes
 90
0
 91
0
280
0
281
0
  0
ENDSEC
  0
SECTION
  2
TABLES
  0
TABLE
  2
VPORT
  5
8
330
0
100
AcDbSymbolTable
 70
1
  0
VPORT
  5
5A9
330
8
100
AcDbSymbolTableRecord
100
AcDbViewportTableRecord
  2
*Active
 70
0
 10
0.0
 20
0.0
 11
1.0
 21
1.0
 12
1800.0
 22
900.0
 13
0.0
 23
0.0
 14
0.5
 24
0.5
 15
0.5
 25
0.5
 16
0.0
 26
0.0
 36
1.0
 17
0.0
 27
0.0
 37
0.0
 40
2300.0
 41
1.34
 42
50.0
 43
0.0
 44
0.0
 50
0.0
 51
0.0
 71
0
 72
1000
 73
1
 74
3
 75
0
 76
0
 77
0
 78
0
281
0
 65
0
146
0.0
  0
ENDTAB
  0
TABLE
  2
LTYPE
  5
2
330
0
100
AcDbSymbolTable
 70
3
  0
LTYPE
  5
24
330
2
100
AcDbSymbolTableRecord
100
AcDbLinetypeTableRecord
  2
ByBlock
 70
0
  3

 72
65
 73
0
 40
0.0
  0
LTYPE
  5
25
330
2
100
AcDbSymbolTableRecord
100
AcDbLinetypeTableRecord
  2
ByLayer
 70
0
  3

 72
65
 73
0
 40
0.0
  0
LTYPE
  5
26
330
2
100
AcDbSymbolTableRecord
100
AcDbLinetypeTableRecord
  2
Continuous
 70
0
  3

 72
65
 73
0
 40
0.0
  0
ENDTAB
  0
TABLE
  2
LAYER
  5
1
330
0
100
AcDbSymbolTable
 70
6
  0
LAYER
  5
27
330
1
100
AcDbSymbolTableRecord
100
AcDbLayerTableRecord
  2
0
 70
0
 62
7
  6
Continuous
370
-3
390
13
347
21
  0
LAYER
  5
28
330
1
100
AcDbSymbolTableRecord
100
AcDbLayerTableRecord
  2
Defpoints
 70
0
 62
7
  6
Continuous
290
0
370
-3
390
13
347
21
  0
LAYER
  5
2F
330
1
100
AcDbSymbolTableRecord
100
AcDbLayerTableRecord
  2
1
 70
0
 62
1
  6
Continuous
370
-3
390
13
347
21
  0
LAYER
  5
30
330
1
100
AcDbSymbolTableRecord
100
AcDbLayerTableRecord
  2
8
 70
0
 62
4
  6
Continuous
370
-3
390
13
347
21
  0
LAYER
  5
31
330
1
100
AcDbSymbolTableRecord
100
AcDbLayerTableRecord
  2
11
 70
0
 62
3
  6
Continuous
370
-3
390
13
347
21
  0
LAYER
  5
32
330
1
100
AcDbSymbolTableRecord
100
AcDbLayerTableRecord
  2
21
 70
0
 62
21
  6
Continuous
370
-3
390
13
347
21
  0
ENDTAB
  0
TABLE
  2
STYLE
  5
5
330
0
100
AcDbSymbolTable
 70
1
  0
STYLE
  5
29
330
5
100
AcDbSymbolTableRecord
100
AcDbTextStyleTableRecord
  2
Standard
 70
0
 40
0.0
 41
1.0
 50
0.0
 71
0
 42
2.5
  3
txt
  4

  0
ENDTAB
  0
TABLE
  2
VIEW
  5
7
330
0
100
AcDbSymbolTable
 70
0
  0
ENDTAB
  0
TABLE
  2
UCS
  5
6
330
0
100
AcDbSymbolTable
 70
0
  0
ENDTAB
  0
TABLE
  2
APPID
  5
3
330
0
100
AcDbSymbolTable
 70
3
  0
APPID
  5
2A
330
3
100
AcDbSymbolTableRecord
100
AcDbRegAppTableRecord
  2
ACAD
 70
0
  0
APPID
  5
5AA
330
3
100
AcDbSymbolTableRecord
100
AcDbRegAppTableRecord
  2
HATCHBACKGROUNDCOLOR
 70
0
  0
APPID
  5
5AB
330
3
100
AcDbSymbolTableRecord
100
AcDbRegAppTableRecord
  2
EZDXF
 70
0
  0
ENDTAB
  0
TABLE
  2
DIMSTYLE
  5
4
330
0
100
AcDbSymbolTable
 70
1
100
AcDbDimStyleTable
  0
DIMSTYLE
105
2B
330
4
100
AcDbSymbolTableRecord
100
AcDbDimStyleTableRecord
  2
Standard
 70
0
 40
1.0
 41
2.5
 42
0.625
 43
3.75
 44
1.25
 45
0.0
 46
0.0
 47
0.0
 48
0.0
 49
2.5
140
2.5
141
2.5
142
0.0
143
0.03937007874
144
1.0
145
0.0
146
1.0
147
0.625
148
0.0
 69
0
 70
0
 71
0
 72
0
 73
0
 74
0
 75
0
 76
0
 77
1
 78
8
 79
0
170
0
171
3
172
1
173
0
174
0
175
0
176
0
177
0
178
0
179
0
271
0
272
2
273
2
274
3
275
0
276
0
277
2
278
44
279
0
280
0
281
0
282
0
283
0
284
8
285
0
286
0
288
0
289
3
290
0
371
-2
372
-2
  0
ENDTAB
  0
TABLE
  2
BLOCK_RECORD
  5
9
330
0
100
AcDbSymbolTable
 70
8
  0
BLOCK_RECORD
  5
17
330
9
100
AcDbSymbolTableRecord
100
AcDbBlockTableRecord
  2
*Model_Space
340
1A
 70
0
280
1
281
0
  0
BLOCK_RECORD
  5
1B
330
9
100
AcDbSymbolTableRecord
100
AcDbBlockTableRecord
  2
*Paper_Space
340
1E
 70
0
280
1
281
0
  0
BLOCK_RECORD
  5
33
330
9
100
AcDbSymbolTableRecord
100
AcDbBlockTableRecord
  2
TSR
340
0
 70
0
280
1
281
0
  0
BLOCK_RECORD
  5
189
330
9
100
AcDbSymbolTableRecord
100
AcDbBlockTableRecord
  2
LE1M
340
0
 70
0
280
1
281
0
  0
BLOCK_RECORD
  5
26A
330
9
100
AcDbSymbolTableRecord
100
AcDbBlockTableRecord
  2
US
340
0
 70
0
280
1
281
0
  0
BLOCK_RECORD
  5
340
330
9
100
AcDbSymbolTableRecord
100
AcDbBlockTableRecord
  2
TSF
340
0
 70
0
280
1
281
0
  0
BLOCK_RECORD
  5
435
330
9
100
AcDbSymbolTableRecord
100
AcDbBlockTableRecord
  2
LE3M
340
0
 70
0
280
1
281
0
  0
BLOCK_RECORD
  5
507
330
9
100
AcDbSymbolTableRecord
100
AcDbBlockTableRecord
  2
LE2M
340
0
 70
0
280
1
281
0
  0
ENDTAB
  0
ENDSEC
  0
SECTION
  2
BLOCKS
  0
BLOCK
  5
18
330
17
100
AcDbEntity
  8
0
100
AcDbBlockBegin
  2
*Model_Space
 70
0
 10
0.0
 20
0.0
 30
0.0
  3
*Model_Space
  1

  0
ENDBLK
  5
19
330
17
100
AcDbEntity
  8
0
100
AcDbBlockEnd
  0
BLOCK
  5
1C
330
1B
100
AcDbEntity
  8
0
100
AcDbBlockBegin
  2
*Paper_Space
 70
0
 10
0.0
 20
0.0
 30
0.0
  3
*Paper_Space
  1

  0
ENDBLK
  5
1D
330
1B
100
AcDbEntity
  8
0
100
AcDbBlockEnd
  0
BLOCK
  5
34
330
33
100
AcDbEntity
  8
0
100
AcDbBlockBegin
  2
TSR
 70
0
 10
0.0
 20
0.0
 30
0.0
  3
TSR
  1

  0
POLYLINE
  5
36
330
33
100
AcDbEntity
  8
1
100
AcDb2dPolyline
 66
1
 10
0.0
 20
0.0
 30
0.0
 70
0
  0
VERTEX
  5
38
330
33
100
AcDbEntity
  8
1
100
AcDbVertex
100
AcDb2dVertex
 10
-148.53173828125
 20
688.3231201171875
 30
0.0
 70
0
  0
VERTEX
  5
39
330
33
100
AcDbEntity
  8
1
100
AcDbVertex
100
AcDb2dVertex
 10
483.6353759765625
 20
655.9569091796875
 30
0.0
 70
0
  0
VERTEX
  5
3A
330
33
100
AcDbEntity
  8
1
100
AcDbVertex
100
AcDb2dVertex
 10
1207.669921875
 20
622.34814453125
 30
0.0
 70
0
  0
VERTEX
  5
3B
330
33
100
AcDbEntity
  8
1
100
AcDbVertex
100
AcDb2dVertex
 10
1918.239990234375
 20
618.2506103515625
 30
0.0
 70
0
  0
VERTEX
  5
3C
330
33
100
AcDbEntity
  8
1
100
AcDbVertex
100
AcDb2dVertex
 10
1939.864990234375
 20
619.3416748046875
 30
0.0
 70
0
  0
VERTEX
  5
3D
330
33
100
AcDbEntity
  8
1
100
AcDbVertex
100
AcDb2dVertex
 10
2382.25
 20
648.724609375
 30
0.0
 70
0
  0
VERTEX
  5
3E
330
33
100
AcDbEntity
  8
1
100
AcDbVertex
100
AcDb2dVertex
 10
2384.088623046875
 20
648.4959716796875
 30
0.0
 70
0
  0
VERTEX
  5
3F
330
33
100
AcDbEntity
  8
1
100
AcDbVertex
100
AcDb2dVertex
 10
2386.169189453125
 20
647.472412109375
 30
0.0
 70
0
  0
VERTEX
  5
40
330
33
100
AcDbEntity
  8
1
100
AcDbVertex
100
AcDb2dVertex
 10
2387.73486328125
 20
645.747314453125
 30
0.0
 70
0
  0
VERTEX
  5
41
330
33
100
AcDbEntity
  8
1
100
AcDbVertex
100
AcDb2dVertex
 10
2389.09521484375
 20
642.87744140625
 30
0.0
 70
0
  0
VERTEX
  5
42
330
33
100
AcDbEntity
  8
1
100
AcDbVertex
100
AcDb2dVertex
 10
2507.1015625
 20
384.4810791015625
 30
0.0
 70
0
  0
VERTEX
  5
43
330
33
100
AcDbEntity
  8
1
100
AcDbVertex
100
AcDb2dVertex
 10
2508.266357421875
 20
381.4664306640625
 30
0.0
 70
0
  0
VERTEX
  5
44
330
33
100
AcDbEntity
  8
1
100
AcDbVertex
100
AcDb2dVertex
 10
2508.24462890625
 20
379.11749267578125
 30
0.0
 70
0
  0
VERTEX
  5
45
330
33
100
AcDbEntity
  8
1
100
AcDbVertex
100
AcDb2dVertex
 10
2507.357177734375
 20
376.95147705078125
 30
0.0
 70
0
  0
VERTEX
  5
46
330
33
100
AcDbEntity
  8
1
100
AcDbVertex
100
AcDb2dVertex
 10
2505.768310546875
 20
375.2784423828125
 30
0.0
 70
0
  0
VERTEX
  5
47
330
33
100
AcDbEntity
  8
1
100
AcDbVertex
100
AcDb2dVertex
 10
2464.9716796875
 20
342.73370361328125
 30
0.0
 70
0
  0
VERTEX
  5
48
330
33
100
AcDbEntity
  8
1
100
AcDbVertex
100
AcDb2dVertex
 10
2416.088134765625
 20
302.5390625
 30
0.0
 70
0
  0
VERTEX
  5
49
330
33
100
AcDbEntity
  8
1
100
AcDbVertex
100
AcDb2dVertex
 10
2369.74560546875
 20
263.21014404296875
 30
0.0
 70
0
  0
VERTEX
  5
4A
330
33
100
AcDbEntity
  8
1
100
AcDbVertex
100
AcDb2dVertex
 10
2322.756103515625
 20
222.0958251953125
 30
0.0
 70
0
  0
VERTEX
  5
4B
330
33
100
AcDbEntity
  8
1
100
AcDbVertex
100
AcDb2dVertex
 10
2291.658203125
 20
194.1934814453125
 30
0.0
 70
0
  0
VERTEX
  5
4C
330
33
100
AcDbEntity
  8
1
100
AcDbVertex
100
AcDb2dVertex
 10
2245.35302734375
 20
151.60516357421875
 30
0.0
 70
0
  0
VERTEX
  5
4D
330
33
100
AcDbEntity
  8
1
100
AcDbVertex
100
AcDb2dVertex
 10
2199.45556640625
 20
108.142822265625
 30
0.0
 70
0
  0
VERTEX
  5
4E
330
33
100
AcDbEntity
  8
1
100
AcDbVertex
100
AcDb2dVertex
 10
2176.970703125
 20
85.9876708984375
 30
0.0
 70
0
  0
VERTEX
  5
4F
330
33
100
AcDbEntity
  8
1
100
AcDbVertex
100
AcDb2dVertex
 10
2172.98095703125
 20
82.6046142578125
 30
0.0
 70
0
  0
VERTEX
  5
50
330
33
100
AcDbEntity
  8
1
100
AcDbVertex
100
AcDb2dVertex
 10
2092.245361328125
 20
54.6412353515625
 30
0.0
 70
0
  0
VERTEX
  5
51
330
33
100
AcDbEntity
  8
1
100
AcDbVertex
100
AcDb2dVertex
 10
2016.919189453125
 20
27.33953857421875
 30
0.0
 70
0
  0
VERTEX
  5
52
330
33
100
AcDbEntity
  8
1
100
AcDbVertex
100
AcDb2dVertex
 10
1942.18701171875
 20
-1.24615478515625
 30
0.0
 70
0
  0
VERTEX
  5
53
330
33
100
AcDbEntity
  8
1
100
AcDbVertex
100
AcDb2dVertex
 10
1868.04248046875
 20
-31.097259521484375
 30
0.0
 70
0
  0
VERTEX
  5
54
330
33
100
AcDbEntity
  8
1
100
AcDbVertex
100
AcDb2dVertex
 10
1794.480712890625
 20
-62.198211669921875
 30
0.0
 70
0
  0
VERTEX
  5
55
330
33
100
AcDbEntity
  8
1
100
AcDbVertex
100
AcDb2dVertex
 10
1721.495361328125
 20
-94.53207397460938
 30
0.0
 70
0
  0
VERTEX
  5
56
330
33
100
AcDbEntity
  8
1
100
AcDbVertex
100
AcDb2dVertex
 10
1652.6787109375
 20
-126.38290405273438
 30
0.0
 70
0
  0
VERTEX
  5
57
330
33
100
AcDbEntity
  8
1
100
AcDbVertex
100
AcDb2dVertex
 10
1577.161865234375
 20
-162.6925048828125
 30
0.0
 70
0
  0
VERTEX
  5
58
330
33
100
AcDbEntity
  8
1
100
AcDbVertex
100
AcDb2dVertex
 10
1556.50341796875
 20
-165.65625
 30
0.0
 70
0
  0
VERTEX
  5
59
330
33
100
AcDbEntity
  8
1
100
AcDbVertex
100
AcDb2dVertex
 10
1472.493408203125
 20
-174.59832763671875
 30
0.0
 70
0
  0
VERTEX
  5
5A
330
33
100
AcDbEntity
  8
1
100
AcDbVertex
100
AcDb2dVertex
 10
1389.0986328125
 20
-184.86578369140625
 30
0.0
 70
0
  0
VERTEX
  5
5B
330
33
100
AcDbEntity
  8
1
100
AcDbVertex
100
AcDb2dVertex
 10
1306.32080078125
 20
-196.4554443359375
 30
0.0
 70
0
  0
VERTEX
  5
5C
330
33
100
AcDbEntity
  8
1
100
AcDbVertex
100
AcDb2dVertex
 10
1244.642578125
 20
-206.01370239257812
 30
0.0
 70
0
  0
VERTEX
  5
5D
330
33
100
AcDbEntity
  8
1
100
AcDbVertex
100
AcDb2dVertex
 10
1162.94580078125
 20
-219.90887451171875
 30
0.0
 70
0
  0
VERTEX
  5
5E
330
33
100
AcDbEntity
  8
1
100
AcDbVertex
100
AcDb2dVertex
 10
1081.8671875
 20
-235.11907958984375
 30
0.0
 70
0
  0
VERTEX
  5
5F
330
33
100
AcDbEntity
  8
1
100
AcDbVertex
100
AcDb2dVertex
 10
1001.398681640625
 20
-251.63653564453125
 30
0.0
 70
0
  0
VERTEX
  5
60
330
33
100
AcDbEntity
  8
1
100
AcDbVertex
100
AcDb2dVertex
 10
921.49609375
 20
-269.3250427246094
 30
0.0
 70
0
  0
VERTEX
  5
61
330
33
100
AcDbEntity
  8
1
100
AcDbVertex
100
AcDb2dVertex
 10
813.41845703125
 20
-274.0002746582031
 30
0.0
 70
0
  0
VERTEX
  5
62
330
33
100
AcDbEntity
  8
1
100
AcDbVertex
100
AcDb2dVertex
 10
749.9072265625
 20
-277.69635009765625
 30
0.0
 70
0
  0
VERTEX
  5
63
330
33
100
AcDbEntity
  8
1
100
AcDbVertex
100
AcDb2dVertex
 10
706.41455078125
 20
-280.7225341796875
 30
0.0
 70
0
  0
VERTEX
  5
64
330
33
100
AcDbEntity
  8
1
100
AcDbVertex
100
AcDb2dVertex
 10
642.769775390625
 20
-285.89561462402344
 30
0.0
 70
0
  0
VERTEX
  5
65
330
33
100
AcDbEntity
  8
1
100
AcDbVertex
100
AcDb2dVertex
 10
600.570068359375
 20
-289.8261260986328
 30
0.0
 70
0
  0
VERTEX
  5
66
330
33
100
AcDbEntity
  8
1
100
AcDbVertex
100
AcDb2dVertex
 10
516.718017578125
 20
-298.8450622558594
 30
0.0
 70
0
  0
VERTEX
  5
67
330
33
100
AcDbEntity
  8
1
100
AcDbVertex
100
AcDb2dVertex
 10
475.0653076171875
 20
-303.9375915527344
 30
0.0
 70
0
  0
VERTEX
  5
68
330
33
100
AcDbEntity
  8
1
100
AcDbVertex
100
AcDb2dVertex
 10
412.9283447265625
 20
-312.30589294433594
 30
0.0
 70
0
  0
VERTEX
  5
69
330
33
100
AcDbEntity
  8
1
100
AcDbVertex
100
AcDb2dVertex
 10
330.7159423828125
 20
-324.8362579345703
 30
0.0
 70
0
  0
VERTEX
  5
6A
330
33
100
AcDbEntity
  8
1
100
AcDbVertex
100
AcDb2dVertex
 10
289.88330078125
 20
-331.68946838378906
 30
0.0
 70
0
  0
VERTEX
  5
6B
330
33
100
AcDbEntity
  8
1
100
AcDbVertex
100
AcDb2dVertex
 10
228.978759765625
 20
-342.71539306640625
 30
0.0
 70
0
  0
VERTEX
  5
6C
330
33
100
AcDbEntity
  8
1
100
AcDbVertex
100
AcDb2dVertex
 10
188.6038818359375
 20
-350.5620574951172
 30
0.0
 70
0
  0
VERTEX
  5
6D
330
33
100
AcDbEntity
  8
1
100
AcDbVertex
100
AcDb2dVertex
 10
128.3807373046875
 20
-363.07647705078125
 30
0.0
 70
0
  0
VERTEX
  5
6E
330
33
100
AcDbEntity
  8
1
100
AcDbVertex
100
AcDb2dVertex
 10
107.487548828125
 20
-365.48826599121094
 30
0.0
 70
0
  0
VERTEX
  5
6F
330
33
100
AcDbEntity
  8
1
100
AcDbVertex
100
AcDb2dVertex
 10
63.5982666015625
 20
-365.8201599121094
 30
0.0
 70
0
  0
VERTEX
  5
70
330
33
100
AcDbEntity
  8
1
100
AcDbVertex
100
AcDb2dVertex
 10
-1.8251953125
 20
-367.19635009765625
 30
0.0
 70
0
  0
VERTEX
  5
71
330
33
100
AcDbEntity
  8
1
100
AcDbVertex
100
AcDb2dVertex
 10
-45.174072265625
 20
-368.6863250732422
 30
0.0
 70
0
  0
VERTEX
  5
72
330
33
100
AcDbEntity
  8
1
100
AcDbVertex
100
AcDb2dVertex
 10
-109.802734375
 20
-371.76776123046875
 30
0.0
 70
0
  0
VERTEX
  5
73
330
33
100
AcDbEntity
  8
1
100
AcDbVertex
100
AcDb2dVertex
 10
-152.6304931640625
 20
-374.3761901855469
 30
0.0
 70
0
  0
VERTEX
  5
74
330
33
100
AcDbEntity
  8
1
100
AcDbVertex
100
AcDb2dVertex
 10
-216.4957275390625
 20
-379.09486389160156
 30
0.0
 70
0
  0
VERTEX
  5
75
330
33
100
AcDbEntity
  8
1
100
AcDbVertex
100
AcDb2dVertex
 10
-279.9169921875
 20
-384.76527404785156
 30
0.0
 70
0
  0
VERTEX
  5
76
330
33
100
AcDbEntity
  8
1
100
AcDbVertex
100
AcDb2dVertex
 10
-342.9027099609375
 20
-391.3630065917969
 30
0.0
 70
0
  0
VERTEX
  5
77
330
33
100
AcDbEntity
  8
1
100
AcDbVertex
100
AcDb2dVertex
 10
-405.4630126953125
 20
-398.8687438964844
 30
0.0
 70
0
  0
VERTEX
  5
78
330
33
100
AcDbEntity
  8
1
100
AcDbVertex
100
AcDb2dVertex
 10
-488.22589111328125
 20
-410.2560729980469
 30
0.0
 70
0
  0
VERTEX
  5
79
330
33
100
AcDbEntity
  8
1
100
AcDbVertex
100
AcDb2dVertex
 10
-570.2640380859375
 20
-423.17982482910156
 30
0.0
 70
0
  0
VERTEX
  5
7A
330
33
100
AcDbEntity
  8
1
100
AcDbVertex
100
AcDb2dVertex
 10
-651.6105346679688
 20
-437.57826232910156
 30
0.0
 70
0
  0
VERTEX
  5
7B
330
33
100
AcDbEntity
  8
1
100
AcDbVertex
100
AcDb2dVertex
 10
-713.94677734375
 20
-445.6326599121094
 30
0.0
 70
0
  0
VERTEX
  5
7C
330
33
100
AcDbEntity
  8
1
100
AcDbVertex
100
AcDb2dVertex
 10
-755.3126831054688
 20
-451.40479278564453
 30
0.0
 70
0
  0
VERTEX
  5
7D
330
33
100
AcDbEntity
  8
1
100
AcDbVertex
100
AcDb2dVertex
 10
-837.532470703125
 20
-464.03802490234375
 30
0.0
 70
0
  0
VERTEX
  5
7E
330
33
100
AcDbEntity
  8
1
100
AcDbVertex
100
AcDb2dVertex
 10
-878.3887939453125
 20
-470.8938903808594
 30
0.0
 70
0
  0
VERTEX
  5
7F
330
33
100
AcDbEntity
  8
1
100
AcDbVertex
100
AcDb2dVertex
 10
-939.3651733398438
 20
-481.83111572265625
 30
0.0
 70
0
  0
VERTEX
  5
80
330
33
100
AcDbEntity
  8
1
100
AcDbVertex
100
AcDb2dVertex
 10
-979.8110961914062
 20
-489.5579299926758
 30
0.0
 70
0
  0
VERTEX
  5
81
330
33
100
AcDbEntity
  8
1
100
AcDbVertex
100
AcDb2dVertex
 10
-1040.1810913085938
 20
-501.7838439941406
 30
0.0
 70
0
  0
VERTEX
  5
82
330
33
100
AcDbEntity
  8
1
100
AcDbVertex
100
AcDb2dVertex
 10
-1080.2283325195312
 20
-510.35621643066406
 30
0.0
 70
0
  0
VERTEX
  5
83
330
33
100
AcDbEntity
  8
1
100
AcDbVertex
100
AcDb2dVertex
 10
-1140.0070495605469
 20
-523.8291778564453
 30
0.0
 70
0
  0
VERTEX
  5
84
330
33
100
AcDbEntity
  8
1
100
AcDbVertex
100
AcDb2dVertex
 10
-1199.4370422363281
 20
-538.0394982099533
 30
0.0
 70
0
  0
VERTEX
  5
85
330
33
100
AcDbEntity
  8
1
100
AcDbVertex
100
AcDb2dVertex
 10
-1258.526351928711
 20
-552.9654951095581
 30
0.0
 70
0
  0
VERTEX
  5
86
330
33
100
AcDbEntity
  8
1
100
AcDbVertex
100
AcDb2dVertex
 10
-1317.2759399414062
 20
-568.6019897460938
 30
0.0
 70
0
  0
VERTEX
  5
87
330
33
100
AcDbEntity
  8
1
100
AcDbVertex
100
AcDb2dVertex
 10
-1375.7246932983398
 20
-584.8804206848145
 30
0.0
 70
0
  0
VERTEX
  5
88
330
33
100
AcDbEntity
  8
1
100
AcDbVertex
100
AcDb2dVertex
 10
-1435.0156173706055
 20
-599.4577140808105
 30
0.0
 70
0
  0
VERTEX
  5
89
330
33
100
AcDbEntity
  8
1
100
AcDbVertex
100
AcDb2dVertex
 10
-1493.966926574707
 20
-614.7527236938477
 30
0.0
 70
0
  0
VERTEX
  5
8A
330
33
100
AcDbEntity
  8
1
100
AcDbVertex
100
AcDb2dVertex
 10
-1552.580665588379
 20
-630.7662811279297
 30
0.0
 70
0
  0
VERTEX
  5
8B
330
33
100
AcDbEntity
  8
1
100
AcDbVertex
100
AcDb2dVertex
 10
-1610.856948852539
 20
-647.4997940063477
 30
0.0
 70
0
  0
VERTEX
  5
8C
330
33
100
AcDbEntity
  8
1
100
AcDbVertex
100
AcDb2dVertex
 10
-1668.8014831542969
 20
-664.942253112793
 30
0.0
 70
0
  0
VERTEX
  5
8D
330
33
100
AcDbEntity
  8
1
100
AcDbVertex
100
AcDb2dVertex
 10
-1745.5426635742188
 20
-689.2916107177734
 30
0.0
 70
0
  0
VERTEX
  5
8E
330
33
100
AcDbEntity
  8
1
100
AcDbVertex
100
AcDb2dVertex
 10
-1802.7127075195312
 20
-708.3690185546875
 30
0.0
 70
0
  0
VERTEX
  5
8F
330
33
100
AcDbEntity
  8
1
100
AcDbVertex
100
AcDb2dVertex
 10
-1867.7514953613281
 20
-731.0452423095703
 30
0.0
 70
0
  0
VERTEX
  5
90
330
33
100
AcDbEntity
  8
1
100
AcDbVertex
100
AcDb2dVertex
 10
-1871.1516418457031
 20
-731.92431640625
 30
0.0
 70
0
  0
VERTEX
  5
91
330
33
100
AcDbEntity
  8
1
100
AcDbVertex
100
AcDb2dVertex
 10
-1874.5447082519531
 20
-731.021484375
 30
0.0
 70
0
  0
VERTEX
  5
92
330
33
100
AcDbEntity
  8
1
100
AcDbVertex
100
AcDb2dVertex
 10
-1876.2970886230469
 20
-729.435546875
 30
0.0
 70
0
  0
VERTEX
  5
93
330
33
100
AcDbEntity
  8
1
100
AcDbVertex
100
AcDb2dVertex
 10
-1884.6611938476562
 20
-712.2880249023438
 30
0.0
 70
0
  0
VERTEX
  5
94
330
33
100
AcDbEntity
  8
1
100
AcDbVertex
100
AcDb2dVertex
 10
-2041.0538940429688
 20
-385.64414978027344
 30
0.0
 70
0
  0
VERTEX
  5
95
330
33
100
AcDbEntity
  8
1
100
AcDbVertex
100
AcDb2dVertex
 10
-2098.2152099609375
 20
-264.6593017578125
 30
0.0
 70
0
  0
VERTEX
  5
96
330
33
100
AcDbEntity
  8
1
100
AcDbVertex
100
AcDb2dVertex
 10
-2167.467041015625
 20
-116.29965209960938
 30
0.0
 70
0
  0
VERTEX
  5
97
330
33
100
AcDbEntity
  8
1
100
AcDbVertex
100
AcDb2dVertex
 10
-2167.3199462890625
 20
-112.89230346679688
 30
0.0
 70
0
  0
VERTEX
  5
98
330
33
100
AcDbEntity
  8
1
100
AcDbVertex
100
AcDb2dVertex
 10
-2165.3895874023438
 20
-110.04779052734375
 30
0.0
 70
0
  0
VERTEX
  5
99
330
33
100
AcDbEntity
  8
1
100
AcDbVertex
100
AcDb2dVertex
 10
-2155.4176025390625
 20
-105.04083251953125
 30
0.0
 70
0
  0
VERTEX
  5
9A
330
33
100
AcDbEntity
  8
1
100
AcDbVertex
100
AcDb2dVertex
 10
-2150.4555053710938
 20
-101.94000244140625
 30
0.0
 70
0
  0
VERTEX
  5
9B
330
33
100
AcDbEntity
  8
1
100
AcDbVertex
100
AcDb2dVertex
 10
-2146.3650512695312
 20
-97.7613525390625
 30
0.0
 70
0
  0
VERTEX
  5
9C
330
33
100
AcDbEntity
  8
1
100
AcDbVertex
100
AcDb2dVertex
 10
-2143.40185546875
 20
-92.71530151367188
 30
0.0
 70
0
  0
VERTEX
  5
9D
330
33
100
AcDbEntity
  8
1
100
AcDbVertex
100
AcDb2dVertex
 10
-2141.725341796875
 20
-87.10791015625
 30
0.0
 70
0
  0
VERTEX
  5
9E
330
33
100
AcDbEntity
  8
1
100
AcDbVertex
100
AcDb2dVertex
 10
-2141.4109497070312
 20
-84.30337524414062
 30
0.0
 70
0
  0
VERTEX
  5
9F
330
33
100
AcDbEntity
  8
1
100
AcDbVertex
100
AcDb2dVertex
 10
-2141.635986328125
 20
-79.61764526367188
 30
0.0
 70
0
  0
VERTEX
  5
A0
330
33
100
AcDbEntity
  8
1
100
AcDbVertex
100
AcDb2dVertex
 10
-2142.7052001953125
 20
-75.04782104492188
 30
0.0
 70
0
  0
VERTEX
  5
A1
330
33
100
AcDbEntity
  8
1
100
AcDbVertex
100
AcDb2dVertex
 10
-2154.5744018554688
 20
-49.169647216796875
 30
0.0
 70
0
  0
VERTEX
  5
A2
330
33
100
AcDbEntity
  8
1
100
AcDbVertex
100
AcDb2dVertex
 10
-2158.2654418945312
 20
-42.409393310546875
 30
0.0
 70
0
  0
VERTEX
  5
A3
330
33
100
AcDbEntity
  8
1
100
AcDbVertex
100
AcDb2dVertex
 10
-2161.1165161132812
 20
-39.7734375
 30
0.0
 70
0
  0
VERTEX
  5
A4
330
33
100
AcDbEntity
  8
1
100
AcDbVertex
100
AcDb2dVertex
 10
-2162.7974243164062
 20
-38.794342041015625
 30
0.0
 70
0
  0
VERTEX
  5
A5
330
33
100
AcDbEntity
  8
1
100
AcDbVertex
100
AcDb2dVertex
 10
-2167.1693725585938
 20
-37.45965576171875
 30
0.0
 70
0
  0
VERTEX
  5
A6
330
33
100
AcDbEntity
  8
1
100
AcDbVertex
100
AcDb2dVertex
 10
-2169.8099365234375
 20
-37.407501220703125
 30
0.0
 70
0
  0
VERTEX
  5
A7
330
33
100
AcDbEntity
  8
1
100
AcDbVertex
100
AcDb2dVertex
 10
-2174.8881225585938
 20
-38.780029296875
 30
0.0
 70
0
  0
VERTEX
  5
A8
330
33
100
AcDbEntity
  8
1
100
AcDbVertex
100
AcDb2dVertex
 10
-2194.3085327148438
 20
-47.878936767578125
 30
0.0
 70
0
  0
VERTEX
  5
A9
330
33
100
AcDbEntity
  8
1
100
AcDbVertex
100
AcDb2dVertex
 10
-2197.589111328125
 20
-47.60382080078125
 30
0.0
 70
0
  0
VERTEX
  5
AA
330
33
100
AcDbEntity
  8
1
100
AcDbVertex
100
AcDb2dVertex
 10
-2199.1000366210938
 20
-46.806640625
 30
0.0
 70
0
  0
VERTEX
  5
AB
330
33
100
AcDbEntity
  8
1
100
AcDbVertex
100
AcDb2dVertex
 10
-2201.213134765625
 20
-44.1611328125
 30
0.0
 70
0
  0
VERTEX
  5
AC
330
33
100
AcDbEntity
  8
1
100
AcDbVertex
100
AcDb2dVertex
 10
-2309.7077026367188
 20
189.76129150390625
 30
0.0
 70
0
  0
VERTEX
  5
AD
330
33
100
AcDbEntity
  8
1
100
AcDbVertex
100
AcDb2dVertex
 10
-2507.8009033203125
 20
618.7413330078125
 30
0.0
 70
0
  0
VERTEX
  5
AE
330
33
100
AcDbEntity
  8
1
100
AcDbVertex
100
AcDb2dVertex
 10
-2508.367919921875
 20
622.0753173828125
 30
0.0
 70
0
  0
VERTEX
  5
AF
330
33
100
AcDbEntity
  8
1
100
AcDbVertex
100
AcDb2dVertex
 10
-2507.9559326171875
 20
623.7305908203125
 30
0.0
 70
0
  0
VERTEX
  5
B0
330
33
100
AcDbEntity
  8
1
100
AcDbVertex
100
AcDb2dVertex
 10
-2505.95166015625
 20
626.37890625
 30
0.0
 70
0
  0
VERTEX
  5
B1
330
33
100
AcDbEntity
  8
1
100
AcDbVertex
100
AcDb2dVertex
 10
-2504.5301513671875
 20
627.19970703125
 30
0.0
 70
0
  0
VERTEX
  5
B2
330
33
100
AcDbEntity
  8
1
100
AcDbVertex
100
AcDb2dVertex
 10
-2501.34619140625
 20
627.86767578125
 30
0.0
 70
0
  0
VERTEX
  5
B3
330
33
100
AcDbEntity
  8
1
100
AcDbVertex
100
AcDb2dVertex
 10
-2412.8429565429688
 20
641.0029296875
 30
0.0
 70
0
  0
VERTEX
  5
B4
330
33
100
AcDbEntity
  8
1
100
AcDbVertex
100
AcDb2dVertex
 10
-2334.6072998046875
 20
651.995849609375
 30
0.0
 70
0
  0
VERTEX
  5
B5
330
33
100
AcDbEntity
  8
1
100
AcDbVertex
100
AcDb2dVertex
 10
-2247.576904296875
 20
663.563232421875
 30
0.0
 70
0
  0
VERTEX
  5
B6
330
33
100
AcDbEntity
  8
1
100
AcDbVertex
100
AcDb2dVertex
 10
-2164.5477294921875
 20
673.9603271484375
 30
0.0
 70
0
  0
VERTEX
  5
B7
330
33
100
AcDbEntity
  8
1
100
AcDbVertex
100
AcDb2dVertex
 10
-2081.25537109375
 20
683.7728271484375
 30
0.0
 70
0
  0
VERTEX
  5
B8
330
33
100
AcDbEntity
  8
1
100
AcDbVertex
100
AcDb2dVertex
 10
-1976.7701416015625
 20
695.2237548828125
 30
0.0
 70
0
  0
VERTEX
  5
B9
330
33
100
AcDbEntity
  8
1
100
AcDbVertex
100
AcDb2dVertex
 10
-1913.156005859375
 20
700.1322021484375
 30
0.0
 70
0
  0
VERTEX
  5
BA
330
33
100
AcDbEntity
  8
1
100
AcDbVertex
100
AcDb2dVertex
 10
-1827.9765014648438
 20
705.8974609375
 30
0.0
 70
0
  0
VERTEX
  5
BB
330
33
100
AcDbEntity
  8
1
100
AcDbVertex
100
AcDb2dVertex
 10
-1742.5518188476562
 20
711.1329345703125
 30
0.0
 70
0
  0
VERTEX
  5
BC
330
33
100
AcDbEntity
  8
1
100
AcDbVertex
100
AcDb2dVertex
 10
-1656.878402709961
 20
715.8397216796875
 30
0.0
 70
0
  0
VERTEX
  5
BD
330
33
100
AcDbEntity
  8
1
100
AcDbVertex
100
AcDb2dVertex
 10
-1570.9560241699219
 20
720.017333984375
 30
0.0
 70
0
  0
VERTEX
  5
BE
330
33
100
AcDbEntity
  8
1
100
AcDbVertex
100
AcDb2dVertex
 10
-1484.7849006652832
 20
723.6693115234375
 30
0.0
 70
0
  0
VERTEX
  5
BF
330
33
100
AcDbEntity
  8
1
100
AcDbVertex
100
AcDb2dVertex
 10
-1333.3813400268555
 20
728.794189453125
 30
0.0
 70
0
  0
VERTEX
  5
C0
330
33
100
AcDbEntity
  8
1
100
AcDbVertex
100
AcDb2dVertex
 10
-1202.9925537109375
 20
731.92431640625
 30
0.0
 70
0
  0
VERTEX
  5
C1
330
33
100
AcDbEntity
  8
1
100
AcDbVertex
100
AcDb2dVertex
 10
-1180.9881286621094
 20
731.87255859375
 30
0.0
 70
0
  0
VERTEX
  5
C2
330
33
100
AcDbEntity
  8
1
100
AcDbVertex
100
AcDb2dVertex
 10
-1047.6632690429688
 20
728.8360595703125
 30
0.0
 70
0
  0
VERTEX
  5
C3
330
33
100
AcDbEntity
  8
1
100
AcDbVertex
100
AcDb2dVertex
 10
-913.8225708007812
 20
724.7579345703125
 30
0.0
 70
0
  0
VERTEX
  5
C4
330
33
100
AcDbEntity
  8
1
100
AcDbVertex
100
AcDb2dVertex
 10
-779.4959716796875
 20
719.6993408203125
 30
0.0
 70
0
  0
VERTEX
  5
C5
330
33
100
AcDbEntity
  8
1
100
AcDbVertex
100
AcDb2dVertex
 10
-622.2388916015625
 20
712.72119140625
 30
0.0
 70
0
  0
VERTEX
  5
C6
330
33
100
AcDbEntity
  8
1
100
AcDbVertex
100
AcDb2dVertex
 10
-464.5390625
 20
704.8818359375
 30
0.0
 70
0
  0
VERTEX
  5
C7
330
33
100
AcDbEntity
  8
1
100
AcDbVertex
100
AcDb2dVertex
 10
-148.53173828125
 20
688.3231201171875
 30
0.0
 70
0
  0
SEQEND
  5
37
330
33
100
AcDbEntity
  8
1
  0
POLYLINE
  5
C8
330
33
100
AcDbEntity
  8
8
100
AcDb2dPolyline
 66
1
 10
0.0
 20
0.0
 30
0.0
 70
0
  0
VERTEX
  5
CA
330
33
100
AcDbEntity
  8
8
100
AcDbVertex
100
AcDb2dVertex
 10
2387.785363560997
 20
645.7504492219407
 30
0.0
 70
0
  0
VERTEX
  5
CB
330
33
100
AcDbEntity
  8
8
100
AcDbVertex
100
AcDb2dVertex
 10
2388.6493957084613
 20
642.844280052642
 30
0.0
 70
0
  0
VERTEX
  5
CC
330
33
100
AcDbEntity
  8
8
100
AcDbVertex
100
AcDb2dVertex
 10
2388.5585816313924
 20
641.2821772110703
 30
0.0
 70
0
  0
VERTEX
  5
CD
330
33
100
AcDbEntity
  8
8
100
AcDbVertex
100
AcDb2dVertex
 10
2388.071998496245
 20
639.8308930792753
 30
0.0
 70
0
  0
VERTEX
  5
CE
330
33
100
AcDbEntity
  8
8
100
AcDbVertex
100
AcDb2dVertex
 10
2386.540136322109
 20
637.8115438507082
 30
0.0
 70
0
  0
VERTEX
  5
CF
330
33
100
AcDbEntity
  8
8
100
AcDbVertex
100
AcDb2dVertex
 10
2384.3396579724986
 20
636.5306386153275
 30
0.0
 70
0
  0
VERTEX
  5
D0
330
33
100
AcDbEntity
  8
8
100
AcDbVertex
100
AcDb2dVertex
 10
2374.9173931247233
 20
635.7071297683228
 30
0.0
 70
0
  0
VERTEX
  5
D1
330
33
100
AcDbEntity
  8
8
100
AcDbVertex
100
AcDb2dVertex
 10
1924.02344551561
 20
605.7998562318264
 30
0.0
 70
0
  0
VERTEX
  5
D2
330
33
100
AcDbEntity
  8
8
100
AcDbVertex
100
AcDb2dVertex
 10
1213.6555223153318
 20
609.6281907318503
 30
0.0
 70
0
  0
VERTEX
  5
D3
330
33
100
AcDbEntity
  8
8
100
AcDbVertex
100
AcDb2dVertex
 10
489.6824639262086
 20
643.1336072544088
 30
0.0
 70
0
  0
VERTEX
  5
D4
330
33
100
AcDbEntity
  8
8
100
AcDbVertex
100
AcDb2dVertex
 10
60.71138762150008
 20
664.9343689302948
 30
0.0
 70
0
  0
VERTEX
  5
D5
330
33
100
AcDbEntity
  8
8
100
AcDbVertex
100
AcDb2dVertex
 10
-481.0318965433421
 20
693.2062978246697
 30
0.0
 70
0
  0
VERTEX
  5
D6
330
33
100
AcDbEntity
  8
8
100
AcDbVertex
100
AcDb2dVertex
 10
-661.1904529268459
 20
702.0214175201786
 30
0.0
 70
0
  0
VERTEX
  5
D7
330
33
100
AcDbEntity
  8
8
100
AcDbVertex
100
AcDb2dVertex
 10
-818.3203698373493
 20
708.7365892337511
 30
0.0
 70
0
  0
VERTEX
  5
D8
330
33
100
AcDbEntity
  8
8
100
AcDbVertex
100
AcDb2dVertex
 10
-952.5185771669532
 20
713.5264237711344
 30
0.0
 70
0
  0
VERTEX
  5
D9
330
33
100
AcDbEntity
  8
8
100
AcDbVertex
100
AcDb2dVertex
 10
-1086.22083515342
 20
717.3124235791258
 30
0.0
 70
0
  0
VERTEX
  5
DA
330
33
100
AcDbEntity
  8
8
100
AcDbVertex
100
AcDb2dVertex
 10
-1197.1785819643574
 20
719.5290002719676
 30
0.0
 70
0
  0
VERTEX
  5
DB
330
33
100
AcDbEntity
  8
8
100
AcDbVertex
100
AcDb2dVertex
 10
-1305.9002112566295
 20
717.0417155800599
 30
0.0
 70
0
  0
VERTEX
  5
DC
330
33
100
AcDbEntity
  8
8
100
AcDbVertex
100
AcDb2dVertex
 10
-1392.5945818683442
 20
714.471425656137
 30
0.0
 70
0
  0
VERTEX
  5
DD
330
33
100
AcDbEntity
  8
8
100
AcDbVertex
100
AcDb2dVertex
 10
-1500.6093559312174
 20
710.5232666617699
 30
0.0
 70
0
  0
VERTEX
  5
DE
330
33
100
AcDbEntity
  8
8
100
AcDbVertex
100
AcDb2dVertex
 10
-1586.738771041581
 20
706.7722532941841
 30
0.0
 70
0
  0
VERTEX
  5
DF
330
33
100
AcDbEntity
  8
8
100
AcDbVertex
100
AcDb2dVertex
 10
-1694.0498875148553
 20
701.3410214670557
 30
0.0
 70
0
  0
VERTEX
  5
E0
330
33
100
AcDbEntity
  8
8
100
AcDbVertex
100
AcDb2dVertex
 10
-1779.6204774031678
 20
696.4006124544749
 30
0.0
 70
0
  0
VERTEX
  5
E1
330
33
100
AcDbEntity
  8
8
100
AcDbVertex
100
AcDb2dVertex
 10
-1886.2341470986928
 20
689.4775550367885
 30
0.0
 70
0
  0
VERTEX
  5
E2
330
33
100
AcDbEntity
  8
8
100
AcDbVertex
100
AcDb2dVertex
 10
-1971.198579998037
 20
683.2351828352696
 30
0.0
 70
0
  0
VERTEX
  5
E3
330
33
100
AcDbEntity
  8
8
100
AcDbVertex
100
AcDb2dVertex
 10
-2117.395946523372
 20
667.0027907053286
 30
0.0
 70
0
  0
VERTEX
  5
E4
330
33
100
AcDbEntity
  8
8
100
AcDbVertex
100
AcDb2dVertex
 10
-2242.065038553059
 20
651.6689879039266
 30
0.0
 70
0
  0
VERTEX
  5
E5
330
33
100
AcDbEntity
  8
8
100
AcDbVertex
100
AcDb2dVertex
 10
-2374.5764298976883
 20
633.8272579114152
 30
0.0
 70
0
  0
VERTEX
  5
E6
330
33
100
AcDbEntity
  8
8
100
AcDbVertex
100
AcDb2dVertex
 10
-2501.685778752823
 20
615.1999587441835
 30
0.0
 70
0
  0
VERTEX
  5
E7
330
33
100
AcDbEntity
  8
8
100
AcDbVertex
100
AcDb2dVertex
 10
-2504.7575300503236
 20
615.7492664453334
 30
0.0
 70
0
  0
VERTEX
  5
E8
330
33
100
AcDbEntity
  8
8
100
AcDbVertex
100
AcDb2dVertex
 10
-2507.155733759773
 20
617.6789174575686
 30
0.0
 70
0
  0
VERTEX
  5
E9
330
33
100
AcDbEntity
  8
8
100
AcDbVertex
100
AcDb2dVertex
 10
-2521.351131070905
 20
648.0672558794304
 30
0.0
 70
0
  0
SEQEND
  5
C9
330
33
100
AcDbEntity
  8
8
  0
POLYLINE
  5
EA
330
33
100
AcDbEntity
  8
8
100
AcDb2dPolyline
 66
1
 10
0.0
 20
0.0
 30
0.0
 70
0
  0
VERTEX
  5
EC
330
33
100
AcDbEntity
  8
8
100
AcDbVertex
100
AcDb2dVertex
 10
-2146.0099182879276
 20
-147.81734709121935
 30
0.0
 70
0
  0
VERTEX
  5
ED
330
33
100
AcDbEntity
  8
8
100
AcDbVertex
100
AcDb2dVertex
 10
-1631.9267319667317
 20
-72.25278956519952
 30
0.0
 70
0
  0
VERTEX
  5
EE
330
33
100
AcDbEntity
  8
8
100
AcDbVertex
100
AcDb2dVertex
 10
-1613.9777136669131
 20
-69.89464643712472
 30
0.0
 70
0
  0
SEQEND
  5
EB
330
33
100
AcDbEntity
  8
8
  0
POLYLINE
  5
EF
330
33
100
AcDbEntity
  8
8
100
AcDb2dPolyline
 66
1
 10
0.0
 20
0.0
 30
0.0
 70
0
  0
VERTEX
  5
F1
330
33
100
AcDbEntity
  8
8
100
AcDbVertex
100
AcDb2dVertex
 10
-1613.9777136669131
 20
-69.89464643712472
 30
0.0
 70
0
  0
VERTEX
  5
F2
330
33
100
AcDbEntity
  8
8
100
AcDbVertex
100
AcDb2dVertex
 10
-1590.2998606054075
 20
-66.61872187877282
 30
0.0
 70
0
  0
VERTEX
  5
F3
330
33
100
AcDbEntity
  8
8
100
AcDbVertex
100
AcDb2dVertex
 10
-1025.0800607706128
 20
5.055207249483942
 30
0.0
 70
0
  0
VERTEX
  5
F4
330
33
100
AcDbEntity
  8
8
100
AcDbVertex
100
AcDb2dVertex
 10
-873.3445710526535
 20
24.2306791521753
 30
0.0
 70
0
  0
VERTEX
  5
F5
330
33
100
AcDbEntity
  8
8
100
AcDbVertex
100
AcDb2dVertex
 10
-864.2648704898672
 20
25.025841875867854
 30
0.0
 70
0
  0
SEQEND
  5
F0
330
33
100
AcDbEntity
  8
8
  0
POLYLINE
  5
F6
330
33
100
AcDbEntity
  8
8
100
AcDb2dPolyline
 66
1
 10
0.0
 20
0.0
 30
0.0
 70
0
  0
VERTEX
  5
F8
330
33
100
AcDbEntity
  8
8
100
AcDbVertex
100
AcDb2dVertex
 10
-864.2648704898672
 20
25.025841875867854
 30
0.0
 70
0
  0
VERTEX
  5
F9
330
33
100
AcDbEntity
  8
8
100
AcDbVertex
100
AcDb2dVertex
 10
-837.48950488087
 20
26.085824458085767
 30
0.0
 70
0
  0
VERTEX
  5
FA
330
33
100
AcDbEntity
  8
8
100
AcDbVertex
100
AcDb2dVertex
 10
-68.35132265102743
 20
46.495993581046264
 30
0.0
 70
0
  0
SEQEND
  5
F7
330
33
100
AcDbEntity
  8
8
  0
POLYLINE
  5
FB
330
33
100
AcDbEntity
  8
8
100
AcDb2dPolyline
 66
1
 10
0.0
 20
0.0
 30
0.0
 70
0
  0
VERTEX
  5
FD
330
33
100
AcDbEntity
  8
8
100
AcDbVertex
100
AcDb2dVertex
 10
-68.35132265102743
 20
46.495993581046264
 30
0.0
 70
0
  0
VERTEX
  5
FE
330
33
100
AcDbEntity
  8
8
100
AcDbVertex
100
AcDb2dVertex
 10
807.4824568612166
 20
-12.399468907457731
 30
0.0
 70
0
  0
SEQEND
  5
FC
330
33
100
AcDbEntity
  8
8
  0
POLYLINE
  5
FF
330
33
100
AcDbEntity
  8
8
100
AcDb2dPolyline
 66
1
 10
0.0
 20
0.0
 30
0.0
 70
0
  0
VERTEX
  5
101
330
33
100
AcDbEntity
  8
8
100
AcDbVertex
100
AcDb2dVertex
 10
807.4824568612166
 20
-12.399468907457731
 30
0.0
 70
0
  0
VERTEX
  5
102
330
33
100
AcDbEntity
  8
8
100
AcDbVertex
100
AcDb2dVertex
 10
1513.8340564860605
 20
-30.181466695004758
 30
0.0
 70
0
  0
VERTEX
  5
103
330
33
100
AcDbEntity
  8
8
100
AcDbVertex
100
AcDb2dVertex
 10
1516.6780571695958
 20
-29.944522881825606
 30
0.0
 70
0
  0
SEQEND
  5
100
330
33
100
AcDbEntity
  8
8
  0
POLYLINE
  5
104
330
33
100
AcDbEntity
  8
8
100
AcDb2dPolyline
 66
1
 10
0.0
 20
0.0
 30
0.0
 70
0
  0
VERTEX
  5
106
330
33
100
AcDbEntity
  8
8
100
AcDbVertex
100
AcDb2dVertex
 10
1516.6780571695958
 20
-29.944522881825606
 30
0.0
 70
0
  0
VERTEX
  5
107
330
33
100
AcDbEntity
  8
8
100
AcDbVertex
100
AcDb2dVertex
 10
1533.4917554560402
 20
-23.40681023878608
 30
0.0
 70
0
  0
VERTEX
  5
108
330
33
100
AcDbEntity
  8
8
100
AcDbVertex
100
AcDb2dVertex
 10
2080.818012023726
 20
201.5371197486411
 30
0.0
 70
0
  0
VERTEX
  5
109
330
33
100
AcDbEntity
  8
8
100
AcDbVertex
100
AcDb2dVertex
 10
2105.818207277658
 20
211.84405539283546
 30
0.0
 70
0
  0
VERTEX
  5
10A
330
33
100
AcDbEntity
  8
8
100
AcDbVertex
100
AcDb2dVertex
 10
2108.4035974296503
 20
213.4075339509751
 30
0.0
 70
0
  0
SEQEND
  5
105
330
33
100
AcDbEntity
  8
8
  0
POLYLINE
  5
10B
330
33
100
AcDbEntity
  8
8
100
AcDb2dPolyline
 66
1
 10
0.0
 20
0.0
 30
0.0
 70
0
  0
VERTEX
  5
10D
330
33
100
AcDbEntity
  8
8
100
AcDbVertex
100
AcDb2dVertex
 10
2108.4035974296503
 20
213.4075339509751
 30
0.0
 70
0
  0
VERTEX
  5
10E
330
33
100
AcDbEntity
  8
8
100
AcDbVertex
100
AcDb2dVertex
 10
2124.891447323415
 20
220.81932541636434
 30
0.0
 70
0
  0
VERTEX
  5
10F
330
33
100
AcDbEntity
  8
8
100
AcDbVertex
100
AcDb2dVertex
 10
2404.565450347804
 20
355.00835569043795
 30
0.0
 70
0
  0
VERTEX
  5
110
330
33
100
AcDbEntity
  8
8
100
AcDbVertex
100
AcDb2dVertex
 10
2494.2267887918388
 20
397.6023339904317
 30
0.0
 70
0
  0
SEQEND
  5
10C
330
33
100
AcDbEntity
  8
8
  0
POLYLINE
  5
111
330
33
100
AcDbEntity
  8
8
100
AcDb2dPolyline
 66
1
 10
0.0
 20
0.0
 30
0.0
 70
0
  0
VERTEX
  5
113
330
33
100
AcDbEntity
  8
8
100
AcDbVertex
100
AcDb2dVertex
 10
-1380.7537773272431
 20
-561.0100093520132
 30
0.0
 70
0
  0
VERTEX
  5
114
330
33
100
AcDbEntity
  8
8
100
AcDbVertex
100
AcDb2dVertex
 10
-1534.0641892944773
 20
-268.3872267389871
 30
0.0
 70
0
  0
VERTEX
  5
115
330
33
100
AcDbEntity
  8
8
100
AcDbVertex
100
AcDb2dVertex
 10
-1644.7368449852297
 20
-54.706444988589624
 30
0.0
 70
0
  0
VERTEX
  5
116
330
33
100
AcDbEntity
  8
8
100
AcDbVertex
100
AcDb2dVertex
 10
-1789.5947160300484
 20
227.47677139841608
 30
0.0
 70
0
  0
VERTEX
  5
117
330
33
100
AcDbEntity
  8
8
100
AcDbVertex
100
AcDb2dVertex
 10
-2036.3412931427156
 20
710.7605776374908
 30
0.0
 70
0
  0
SEQEND
  5
112
330
33
100
AcDbEntity
  8
8
  0
POLYLINE
  5
118
330
33
100
AcDbEntity
  8
8
100
AcDb2dPolyline
 66
1
 10
0.0
 20
0.0
 30
0.0
 70
0
  0
VERTEX
  5
11A
330
33
100
AcDbEntity
  8
8
100
AcDbVertex
100
AcDb2dVertex
 10
-656.3215235957397
 20
-413.77520798768063
 30
0.0
 70
0
  0
VERTEX
  5
11B
330
33
100
AcDbEntity
  8
8
100
AcDbVertex
100
AcDb2dVertex
 10
-817.0214161559752
 20
-114.80040769522338
 30
0.0
 70
0
  0
VERTEX
  5
11C
330
33
100
AcDbEntity
  8
8
100
AcDbVertex
100
AcDb2dVertex
 10
-926.144457970113
 20
89.12990866067071
 30
0.0
 70
0
  0
VERTEX
  5
11D
330
33
100
AcDbEntity
  8
8
100
AcDbVertex
100
AcDb2dVertex
 10
-1281.0825232044078
 20
756.2846515884996
 30
0.0
 70
0
  0
SEQEND
  5
119
330
33
100
AcDbEntity
  8
8
  0
POLYLINE
  5
11E
330
33
100
AcDbEntity
  8
8
100
AcDb2dPolyline
 66
1
 10
0.0
 20
0.0
 30
0.0
 70
0
  0
VERTEX
  5
120
330
33
100
AcDbEntity
  8
8
100
AcDbVertex
100
AcDb2dVertex
 10
114.62772661868712
 20
-340.6563332420991
 30
0.0
 70
0
  0
VERTEX
  5
121
330
33
100
AcDbEntity
  8
8
100
AcDbVertex
100
AcDb2dVertex
 10
-456.8980440661926
 20
724.6884924106389
 30
0.0
 70
0
  0
SEQEND
  5
11F
330
33
100
AcDbEntity
  8
8
  0
POLYLINE
  5
122
330
33
100
AcDbEntity
  8
8
100
AcDb2dPolyline
 66
1
 10
0.0
 20
0.0
 30
0.0
 70
0
  0
VERTEX
  5
124
330
33
100
AcDbEntity
  8
8
100
AcDbVertex
100
AcDb2dVertex
 10
917.5811733304199
 20
-244.7718397280501
 30
0.0
 70
0
  0
VERTEX
  5
125
330
33
100
AcDbEntity
  8
8
100
AcDbVertex
100
AcDb2dVertex
 10
417.5973047443142
 20
677.160545742214
 30
0.0
 70
0
  0
SEQEND
  5
123
330
33
100
AcDbEntity
  8
8
  0
POLYLINE
  5
126
330
33
100
AcDbEntity
  8
8
100
AcDb2dPolyline
 66
1
 10
0.0
 20
0.0
 30
0.0
 70
0
  0
VERTEX
  5
128
330
33
100
AcDbEntity
  8
8
100
AcDbVertex
100
AcDb2dVertex
 10
1568.13800976652
 20
-139.30037935842734
 30
0.0
 70
0
  0
VERTEX
  5
129
330
33
100
AcDbEntity
  8
8
100
AcDbVertex
100
AcDb2dVertex
 10
1031.4432214257513
 20
643.7001081686394
 30
0.0
 70
0
  0
SEQEND
  5
127
330
33
100
AcDbEntity
  8
8
  0
POLYLINE
  5
12A
330
33
100
AcDbEntity
  8
8
100
AcDb2dPolyline
 66
1
 10
0.0
 20
0.0
 30
0.0
 70
0
  0
VERTEX
  5
12C
330
33
100
AcDbEntity
  8
8
100
AcDbVertex
100
AcDb2dVertex
 10
2159.138298919635
 20
104.30185011871288
 30
0.0
 70
0
  0
VERTEX
  5
12D
330
33
100
AcDbEntity
  8
8
100
AcDbVertex
100
AcDb2dVertex
 10
1897.973746762144
 20
351.5766163368206
 30
0.0
 70
0
  0
VERTEX
  5
12E
330
33
100
AcDbEntity
  8
8
100
AcDbVertex
100
AcDb2dVertex
 10
1601.2824383963616
 20
631.3271370023524
 30
0.0
 70
0
  0
SEQEND
  5
12B
330
33
100
AcDbEntity
  8
8
  0
POLYLINE
  5
12F
330
33
100
AcDbEntity
  8
8
100
AcDb2dPolyline
 66
1
 10
0.0
 20
0.0
 30
0.0
 70
0
  0
VERTEX
  5
131
330
33
100
AcDbEntity
  8
8
100
AcDbVertex
100
AcDb2dVertex
 10
2494.2267887918388
 20
397.6023339904317
 30
0.0
 70
0
  0
VERTEX
  5
132
330
33
100
AcDbEntity
  8
8
100
AcDbVertex
100
AcDb2dVertex
 10
2313.2402289028455
 20
504.333780866202
 30
0.0
 70
0
  0
VERTEX
  5
133
330
33
100
AcDbEntity
  8
8
100
AcDbVertex
100
AcDb2dVertex
 10
2085.4271951627416
 20
636.7775286303074
 30
0.0
 70
0
  0
SEQEND
  5
130
330
33
100
AcDbEntity
  8
8
  0
POLYLINE
  5
134
330
33
100
AcDbEntity
  8
8
100
AcDb2dPolyline
 66
1
 10
0.0
 20
0.0
 30
0.0
 70
0
  0
VERTEX
  5
136
330
33
100
AcDbEntity
  8
8
100
AcDbVertex
100
AcDb2dVertex
 10
-1879.347998819016
 20
-708.9138156162629
 30
0.0
 70
0
  0
VERTEX
  5
137
330
33
100
AcDbEntity
  8
8
100
AcDbVertex
100
AcDb2dVertex
 10
-1821.9128562255091
 20
-688.752171897584
 30
0.0
 70
0
  0
VERTEX
  5
138
330
33
100
AcDbEntity
  8
8
100
AcDbVertex
100
AcDb2dVertex
 10
-1758.4520851306645
 20
-667.4678691752424
 30
0.0
 70
0
  0
VERTEX
  5
139
330
33
100
AcDbEntity
  8
8
100
AcDbVertex
100
AcDb2dVertex
 10
-1688.9258601254974
 20
-645.24096413311
 30
0.0
 70
0
  0
VERTEX
  5
13A
330
33
100
AcDbEntity
  8
8
100
AcDbVertex
100
AcDb2dVertex
 10
-1613.2329997608863
 20
-622.3824838992085
 30
0.0
 70
0
  0
VERTEX
  5
13B
330
33
100
AcDbEntity
  8
8
100
AcDbVertex
100
AcDb2dVertex
 10
-1563.531580136986
 20
-608.1269516170474
 30
0.0
 70
0
  0
VERTEX
  5
13C
330
33
100
AcDbEntity
  8
8
100
AcDbVertex
100
AcDb2dVertex
 10
-1504.8573627211056
 20
-592.0334996410994
 30
0.0
 70
0
  0
VERTEX
  5
13D
330
33
100
AcDbEntity
  8
8
100
AcDbVertex
100
AcDb2dVertex
 10
-1425.2925564309214
 20
-571.4950126443061
 30
0.0
 70
0
  0
VERTEX
  5
13E
330
33
100
AcDbEntity
  8
8
100
AcDbVertex
100
AcDb2dVertex
 10
-1386.835657339549
 20
-562.0943753777204
 30
0.0
 70
0
  0
VERTEX
  5
13F
330
33
100
AcDbEntity
  8
8
100
AcDbVertex
100
AcDb2dVertex
 10
-1380.7537773272431
 20
-561.0100093520132
 30
0.0
 70
0
  0
VERTEX
  5
140
330
33
100
AcDbEntity
  8
8
100
AcDbVertex
100
AcDb2dVertex
 10
-1365.7756570760425
 20
-556.3722624383925
 30
0.0
 70
0
  0
VERTEX
  5
141
330
33
100
AcDbEntity
  8
8
100
AcDbVertex
100
AcDb2dVertex
 10
-1335.4974589167982
 20
-547.9309786340795
 30
0.0
 70
0
  0
VERTEX
  5
142
330
33
100
AcDbEntity
  8
8
100
AcDbVertex
100
AcDb2dVertex
 10
-1265.8585640962408
 20
-529.2825654801914
 30
0.0
 70
0
  0
VERTEX
  5
143
330
33
100
AcDbEntity
  8
8
100
AcDbVertex
100
AcDb2dVertex
 10
-1220.4336718032505
 20
-517.7108294109994
 30
0.0
 70
0
  0
VERTEX
  5
144
330
33
100
AcDbEntity
  8
8
100
AcDbVertex
100
AcDb2dVertex
 10
-1159.8409103695265
 20
-503.0373376947781
 30
0.0
 70
0
  0
VERTEX
  5
145
330
33
100
AcDbEntity
  8
8
100
AcDbVertex
100
AcDb2dVertex
 10
-1123.4899893861502
 20
-494.6116518995655
 30
0.0
 70
0
  0
VERTEX
  5
146
330
33
100
AcDbEntity
  8
8
100
AcDbVertex
100
AcDb2dVertex
 10
-1062.8853696736207
 20
-481.2551054592154
 30
0.0
 70
0
  0
VERTEX
  5
147
330
33
100
AcDbEntity
  8
8
100
AcDbVertex
100
AcDb2dVertex
 10
-1011.3502467778205
 20
-470.58116757045667
 30
0.0
 70
0
  0
VERTEX
  5
148
330
33
100
AcDbEntity
  8
8
100
AcDbVertex
100
AcDb2dVertex
 10
-959.817854596017
 20
-460.4865264859822
 30
0.0
 70
0
  0
VERTEX
  5
149
330
33
100
AcDbEntity
  8
8
100
AcDbVertex
100
AcDb2dVertex
 10
-911.309361800775
 20
-451.53858357144895
 30
0.0
 70
0
  0
VERTEX
  5
14A
330
33
100
AcDbEntity
  8
8
100
AcDbVertex
100
AcDb2dVertex
 10
-859.7721665620571
 20
-442.5956187289597
 30
0.0
 70
0
  0
VERTEX
  5
14B
330
33
100
AcDbEntity
  8
8
100
AcDbVertex
100
AcDb2dVertex
 10
-805.1730812205101
 20
-433.8283582228425
 30
0.0
 70
0
  0
VERTEX
  5
14C
330
33
100
AcDbEntity
  8
8
100
AcDbVertex
100
AcDb2dVertex
 10
-741.4803635327473
 20
-424.42232792864104
 30
0.0
 70
0
  0
VERTEX
  5
14D
330
33
100
AcDbEntity
  8
8
100
AcDbVertex
100
AcDb2dVertex
 10
-671.6982736987947
 20
-415.19690412431396
 30
0.0
 70
0
  0
VERTEX
  5
14E
330
33
100
AcDbEntity
  8
8
100
AcDbVertex
100
AcDb2dVertex
 10
-662.5980720097052
 20
-414.0689885375172
 30
0.0
 70
0
  0
VERTEX
  5
14F
330
33
100
AcDbEntity
  8
8
100
AcDbVertex
100
AcDb2dVertex
 10
-656.3215235957397
 20
-413.77520798768063
 30
0.0
 70
0
  0
VERTEX
  5
150
330
33
100
AcDbEntity
  8
8
100
AcDbVertex
100
AcDb2dVertex
 10
-640.6240143087698
 20
-410.3860636576813
 30
0.0
 70
0
  0
VERTEX
  5
151
330
33
100
AcDbEntity
  8
8
100
AcDbVertex
100
AcDb2dVertex
 10
-589.7417632114262
 20
-401.35977679059954
 30
0.0
 70
0
  0
VERTEX
  5
152
330
33
100
AcDbEntity
  8
8
100
AcDbVertex
100
AcDb2dVertex
 10
-542.0464420540586
 20
-393.47636626214074
 30
0.0
 70
0
  0
VERTEX
  5
153
330
33
100
AcDbEntity
  8
8
100
AcDbVertex
100
AcDb2dVertex
 10
-491.18780688144125
 20
-385.66784643120496
 30
0.0
 70
0
  0
VERTEX
  5
154
330
33
100
AcDbEntity
  8
8
100
AcDbVertex
100
AcDb2dVertex
 10
-424.4670110054617
 20
-376.35763318008435
 30
0.0
 70
0
  0
VERTEX
  5
155
330
33
100
AcDbEntity
  8
8
100
AcDbVertex
100
AcDb2dVertex
 10
-341.89104621687466
 20
-366.33105125256554
 30
0.0
 70
0
  0
VERTEX
  5
156
330
33
100
AcDbEntity
  8
8
100
AcDbVertex
100
AcDb2dVertex
 10
-281.57287848045735
 20
-360.0485358375968
 30
0.0
 70
0
  0
VERTEX
  5
157
330
33
100
AcDbEntity
  8
8
100
AcDbVertex
100
AcDb2dVertex
 10
-224.44991339148032
 20
-354.9103354031737
 30
0.0
 70
0
  0
VERTEX
  5
158
330
33
100
AcDbEntity
  8
8
100
AcDbVertex
100
AcDb2dVertex
 10
-164.17665292575907
 20
-350.3437978990513
 30
0.0
 70
0
  0
VERTEX
  5
159
330
33
100
AcDbEntity
  8
8
100
AcDbVertex
100
AcDb2dVertex
 10
-110.26816343496807
 20
-347.00639386233786
 30
0.0
 70
0
  0
VERTEX
  5
15A
330
33
100
AcDbEntity
  8
8
100
AcDbVertex
100
AcDb2dVertex
 10
-59.552344185517995
 20
-344.50261949260783
 30
0.0
 70
0
  0
VERTEX
  5
15B
330
33
100
AcDbEntity
  8
8
100
AcDbVertex
100
AcDb2dVertex
 10
-2.5222831092285105
 20
-342.43485967053937
 30
0.0
 70
0
  0
VERTEX
  5
15C
330
33
100
AcDbEntity
  8
8
100
AcDbVertex
100
AcDb2dVertex
 10
57.66416768025715
 20
-341.13768481733064
 30
0.0
 70
0
  0
VERTEX
  5
15D
330
33
100
AcDbEntity
  8
8
100
AcDbVertex
100
AcDb2dVertex
 10
114.62772661868712
 20
-340.6563332420991
 30
0.0
 70
0
  0
VERTEX
  5
15E
330
33
100
AcDbEntity
  8
8
100
AcDbVertex
100
AcDb2dVertex
 10
168.64488726500622
 20
-329.3201579526856
 30
0.0
 70
0
  0
VERTEX
  5
15F
330
33
100
AcDbEntity
  8
8
100
AcDbVertex
100
AcDb2dVertex
 10
216.95388047181655
 20
-319.80013199099966
 30
0.0
 70
0
  0
VERTEX
  5
160
330
33
100
AcDbEntity
  8
8
100
AcDbVertex
100
AcDb2dVertex
 10
262.50335609568356
 20
-311.37189190287677
 30
0.0
 70
0
  0
VERTEX
  5
161
330
33
100
AcDbEntity
  8
8
100
AcDbVertex
100
AcDb2dVertex
 10
311.3686337577269
 20
-302.9183053254692
 30
0.0
 70
0
  0
VERTEX
  5
162
330
33
100
AcDbEntity
  8
8
100
AcDbVertex
100
AcDb2dVertex
 10
400.70279254469665
 20
-289.0478569212605
 30
0.0
 70
0
  0
VERTEX
  5
163
330
33
100
AcDbEntity
  8
8
100
AcDbVertex
100
AcDb2dVertex
 10
447.29046475241125
 20
-282.5914593882063
 30
0.0
 70
0
  0
VERTEX
  5
164
330
33
100
AcDbEntity
  8
8
100
AcDbVertex
100
AcDb2dVertex
 10
500.3965717986805
 20
-275.85027320649766
 30
0.0
 70
0
  0
VERTEX
  5
165
330
33
100
AcDbEntity
  8
8
100
AcDbVertex
100
AcDb2dVertex
 10
544.3866662064543
 20
-270.7794359835858
 30
0.0
 70
0
  0
VERTEX
  5
166
330
33
100
AcDbEntity
  8
8
100
AcDbVertex
100
AcDb2dVertex
 10
598.1038991173418
 20
-265.1840096425832
 30
0.0
 70
0
  0
VERTEX
  5
167
330
33
100
AcDbEntity
  8
8
100
AcDbVertex
100
AcDb2dVertex
 10
652.1647462751689
 20
-260.23212994204147
 30
0.0
 70
0
  0
VERTEX
  5
168
330
33
100
AcDbEntity
  8
8
100
AcDbVertex
100
AcDb2dVertex
 10
696.9358291846702
 20
-256.6176447304936
 30
0.0
 70
0
  0
VERTEX
  5
169
330
33
100
AcDbEntity
  8
8
100
AcDbVertex
100
AcDb2dVertex
 10
748.380061501206
 20
-252.99422622067533
 30
0.0
 70
0
  0
VERTEX
  5
16A
330
33
100
AcDbEntity
  8
8
100
AcDbVertex
100
AcDb2dVertex
 10
809.8595480380873
 20
-249.39279493574952
 30
0.0
 70
0
  0
VERTEX
  5
16B
330
33
100
AcDbEntity
  8
8
100
AcDbVertex
100
AcDb2dVertex
 10
917.5811733304199
 20
-244.7718397280501
 30
0.0
 70
0
  0
VERTEX
  5
16C
330
33
100
AcDbEntity
  8
8
100
AcDbVertex
100
AcDb2dVertex
 10
1001.7780615088463
 20
-226.2397469781955
 30
0.0
 70
0
  0
VERTEX
  5
16D
330
33
100
AcDbEntity
  8
8
100
AcDbVertex
100
AcDb2dVertex
 10
1083.544787912189
 20
-209.5668398135964
 30
0.0
 70
0
  0
VERTEX
  5
16E
330
33
100
AcDbEntity
  8
8
100
AcDbVertex
100
AcDb2dVertex
 10
1159.8175644611551
 20
-195.32470584327007
 30
0.0
 70
0
  0
VERTEX
  5
16F
330
33
100
AcDbEntity
  8
8
100
AcDbVertex
100
AcDb2dVertex
 10
1233.545491738349
 20
-182.73809319986174
 30
0.0
 70
0
  0
VERTEX
  5
170
330
33
100
AcDbEntity
  8
8
100
AcDbVertex
100
AcDb2dVertex
 10
1304.6688710039862
 20
-171.6753943802682
 30
0.0
 70
0
  0
VERTEX
  5
171
330
33
100
AcDbEntity
  8
8
100
AcDbVertex
100
AcDb2dVertex
 10
1385.611033553269
 20
-160.33893737383698
 30
0.0
 70
0
  0
VERTEX
  5
172
330
33
100
AcDbEntity
  8
8
100
AcDbVertex
100
AcDb2dVertex
 10
1470.2944276558378
 20
-149.92010881609087
 30
0.0
 70
0
  0
VERTEX
  5
173
330
33
100
AcDbEntity
  8
8
100
AcDbVertex
100
AcDb2dVertex
 10
1565.1269511865285
 20
-139.95011806395996
 30
0.0
 70
0
  0
VERTEX
  5
174
330
33
100
AcDbEntity
  8
8
100
AcDbVertex
100
AcDb2dVertex
 10
1568.13800976652
 20
-139.30037935842734
 30
0.0
 70
0
  0
VERTEX
  5
175
330
33
100
AcDbEntity
  8
8
100
AcDbVertex
100
AcDb2dVertex
 10
1647.5334045929635
 20
-101.42005505921804
 30
0.0
 70
0
  0
VERTEX
  5
176
330
33
100
AcDbEntity
  8
8
100
AcDbVertex
100
AcDb2dVertex
 10
1716.1526157558083
 20
-69.7477613705077
 30
0.0
 70
0
  0
VERTEX
  5
177
330
33
100
AcDbEntity
  8
8
100
AcDbVertex
100
AcDb2dVertex
 10
1793.3513491464937
 20
-35.68402462083054
 30
0.0
 70
0
  0
VERTEX
  5
178
330
33
100
AcDbEntity
  8
8
100
AcDbVertex
100
AcDb2dVertex
 10
1848.7201335644845
 20
-12.273444159988912
 30
0.0
 70
0
  0
VERTEX
  5
179
330
33
100
AcDbEntity
  8
8
100
AcDbVertex
100
AcDb2dVertex
 10
1932.1283509992013
 20
21.399852716000964
 30
0.0
 70
0
  0
VERTEX
  5
17A
330
33
100
AcDbEntity
  8
8
100
AcDbVertex
100
AcDb2dVertex
 10
1999.130277377918
 20
47.15134665494941
 30
0.0
 70
0
  0
VERTEX
  5
17B
330
33
100
AcDbEntity
  8
8
100
AcDbVertex
100
AcDb2dVertex
 10
2063.6161045074596
 20
70.74295061781925
 30
0.0
 70
0
  0
VERTEX
  5
17C
330
33
100
AcDbEntity
  8
8
100
AcDbVertex
100
AcDb2dVertex
 10
2108.5994380826824
 20
86.59785274766466
 30
0.0
 70
0
  0
VERTEX
  5
17D
330
33
100
AcDbEntity
  8
8
100
AcDbVertex
100
AcDb2dVertex
 10
2156.545523225406
 20
102.85909310243824
 30
0.0
 70
0
  0
VERTEX
  5
17E
330
33
100
AcDbEntity
  8
8
100
AcDbVertex
100
AcDb2dVertex
 10
2159.138298919635
 20
104.30185011871288
 30
0.0
 70
0
  0
VERTEX
  5
17F
330
33
100
AcDbEntity
  8
8
100
AcDbVertex
100
AcDb2dVertex
 10
2173.089397474852
 20
117.12011003758516
 30
0.0
 70
0
  0
VERTEX
  5
180
330
33
100
AcDbEntity
  8
8
100
AcDbVertex
100
AcDb2dVertex
 10
2225.9351261650527
 20
167.41278484236136
 30
0.0
 70
0
  0
VERTEX
  5
181
330
33
100
AcDbEntity
  8
8
100
AcDbVertex
100
AcDb2dVertex
 10
2258.313020747001
 20
197.39431193922292
 30
0.0
 70
0
  0
VERTEX
  5
182
330
33
100
AcDbEntity
  8
8
100
AcDbVertex
100
AcDb2dVertex
 10
2321.220945665739
 20
253.83724357501808
 30
0.0
 70
0
  0
VERTEX
  5
183
330
33
100
AcDbEntity
  8
8
100
AcDbVertex
100
AcDb2dVertex
 10
2351.7095878156624
 20
280.40395957973067
 30
0.0
 70
0
  0
VERTEX
  5
184
330
33
100
AcDbEntity
  8
8
100
AcDbVertex
100
AcDb2dVertex
 10
2398.8756741069874
 20
320.4845507129181
 30
0.0
 70
0
  0
VERTEX
  5
185
330
33
100
AcDbEntity
  8
8
100
AcDbVertex
100
AcDb2dVertex
 10
2460.6788314044247
 20
371.11955297359
 30
0.0
 70
0
  0
VERTEX
  5
186
330
33
100
AcDbEntity
  8
8
100
AcDbVertex
100
AcDb2dVertex
 10
2494.2267887918388
 20
397.6023339904317
 30
0.0
 70
0
  0
SEQEND
  5
135
330
33
100
AcDbEntity
  8
8
  0
ENDBLK
  5
35
330
33
100
AcDbEntity
  8
0
100
AcDbBlockEnd
  0
BLOCK
  5
18A
330
189
100
AcDbEntity
  8
0
100
AcDbBlockBegin
  2
LE1M
 70
0
 10
0.0
 20
0.0
 30
0.0
  3
LE1M
  1

  0
POLYLINE
  5
18C
330
189
100
AcDbEntity
  8
1
100
AcDb2dPolyline
 66
1
 10
0.0
 20
0.0
 30
0.0
 70
0
  0
VERTEX
  5
18E
330
189
100
AcDbEntity
  8
1
100
AcDbVertex
100
AcDb2dVertex
 10
92.03802490234375
 20
164.9166259765625
 30
0.0
 70
0
  0
VERTEX
  5
18F
330
189
100
AcDbEntity
  8
1
100
AcDbVertex
100
AcDb2dVertex
 10
182.60769653320312
 20
158.7047119140625
 30
0.0
 70
0
  0
VERTEX
  5
190
330
189
100
AcDbEntity
  8
1
100
AcDbVertex
100
AcDb2dVertex
 10
297.70440673828125
 20
153.7484130859375
 30
0.0
 70
0
  0
VERTEX
  5
191
330
189
100
AcDbEntity
  8
1
100
AcDbVertex
100
AcDb2dVertex
 10
413.04305267333984
 20
149.3175048828125
 30
0.0
 70
0
  0
VERTEX
  5
192
330
189
100
AcDbEntity
  8
1
100
AcDbVertex
100
AcDb2dVertex
 10
644.1621246337891
 20
141.3680419921875
 30
0.0
 70
0
  0
VERTEX
  5
193
330
189
100
AcDbEntity
  8
1
100
AcDbVertex
100
AcDb2dVertex
 10
992.3014831542969
 20
130.9122314453125
 30
0.0
 70
0
  0
VERTEX
  5
194
330
189
100
AcDbEntity
  8
1
100
AcDbVertex
100
AcDb2dVertex
 10
1248.4900817871094
 20
122.4749755859375
 30
0.0
 70
0
  0
VERTEX
  5
195
330
189
100
AcDbEntity
  8
1
100
AcDbVertex
100
AcDb2dVertex
 10
1271.4015808105469
 20
121.1568603515625
 30
0.0
 70
0
  0
VERTEX
  5
196
330
189
100
AcDbEntity
  8
1
100
AcDbVertex
100
AcDb2dVertex
 10
1275.1336975097656
 20
119.0267333984375
 30
0.0
 70
0
  0
VERTEX
  5
197
330
189
100
AcDbEntity
  8
1
100
AcDbVertex
100
AcDb2dVertex
 10
1277.9200134277344
 20
115.7542724609375
 30
0.0
 70
0
  0
VERTEX
  5
198
330
189
100
AcDbEntity
  8
1
100
AcDbVertex
100
AcDb2dVertex
 10
1279.0714416503906
 20
112.9969482421875
 30
0.0
 70
0
  0
VERTEX
  5
199
330
189
100
AcDbEntity
  8
1
100
AcDbVertex
100
AcDb2dVertex
 10
1279.6153869628906
 20
110.1322021484375
 30
0.0
 70
0
  0
VERTEX
  5
19A
330
189
100
AcDbEntity
  8
1
100
AcDbVertex
100
AcDb2dVertex
 10
1279.4706115722656
 20
107.2222900390625
 30
0.0
 70
0
  0
VERTEX
  5
19B
330
189
100
AcDbEntity
  8
1
100
AcDbVertex
100
AcDb2dVertex
 10
1278.6491394042969
 20
104.4339599609375
 30
0.0
 70
0
  0
VERTEX
  5
19C
330
189
100
AcDbEntity
  8
1
100
AcDbVertex
100
AcDb2dVertex
 10
1249.9602355957031
 20
60.0013427734375
 30
0.0
 70
0
  0
VERTEX
  5
19D
330
189
100
AcDbEntity
  8
1
100
AcDbVertex
100
AcDb2dVertex
 10
1234.5959167480469
 20
35.3389892578125
 30
0.0
 70
0
  0
VERTEX
  5
19E
330
189
100
AcDbEntity
  8
1
100
AcDbVertex
100
AcDb2dVertex
 10
1225.6792297363281
 20
18.7183837890625
 30
0.0
 70
0
  0
VERTEX
  5
19F
330
189
100
AcDbEntity
  8
1
100
AcDbVertex
100
AcDb2dVertex
 10
1224.5118713378906
 20
14.4739990234375
 30
0.0
 70
0
  0
VERTEX
  5
1A0
330
189
100
AcDbEntity
  8
1
100
AcDbVertex
100
AcDb2dVertex
 10
1224.7747497558594
 20
5.2906494140625
 30
0.0
 70
0
  0
VERTEX
  5
1A1
330
189
100
AcDbEntity
  8
1
100
AcDbVertex
100
AcDb2dVertex
 10
1225.8863220214844
 20
-9.6268310546875
 30
0.0
 70
0
  0
VERTEX
  5
1A2
330
189
100
AcDbEntity
  8
1
100
AcDbVertex
100
AcDb2dVertex
 10
1227.9886779785156
 20
-21.8331298828125
 30
0.0
 70
0
  0
VERTEX
  5
1A3
330
189
100
AcDbEntity
  8
1
100
AcDbVertex
100
AcDb2dVertex
 10
1233.5752258300781
 20
-45.0909423828125
 30
0.0
 70
0
  0
VERTEX
  5
1A4
330
189
100
AcDbEntity
  8
1
100
AcDbVertex
100
AcDb2dVertex
 10
1240.6698303222656
 20
-68.8780517578125
 30
0.0
 70
0
  0
VERTEX
  5
1A5
330
189
100
AcDbEntity
  8
1
100
AcDbVertex
100
AcDb2dVertex
 10
1249.1072082519531
 20
-93.0274658203125
 30
0.0
 70
0
  0
VERTEX
  5
1A6
330
189
100
AcDbEntity
  8
1
100
AcDbVertex
100
AcDb2dVertex
 10
1263.9142150878906
 20
-129.3885498046875
 30
0.0
 70
0
  0
VERTEX
  5
1A7
330
189
100
AcDbEntity
  8
1
100
AcDbVertex
100
AcDb2dVertex
 10
1274.7908020019531
 20
-153.8082275390625
 30
0.0
 70
0
  0
VERTEX
  5
1A8
330
189
100
AcDbEntity
  8
1
100
AcDbVertex
100
AcDb2dVertex
 10
1295.0837707519531
 20
-196.281494140625
 30
0.0
 70
0
  0
VERTEX
  5
1A9
330
189
100
AcDbEntity
  8
1
100
AcDbVertex
100
AcDb2dVertex
 10
1295.4910583496094
 20
-199.4664306640625
 30
0.0
 70
0
  0
VERTEX
  5
1AA
330
189
100
AcDbEntity
  8
1
100
AcDbVertex
100
AcDb2dVertex
 10
1295.0738830566406
 20
-202.646240234375
 30
0.0
 70
0
  0
VERTEX
  5
1AB
330
189
100
AcDbEntity
  8
1
100
AcDbVertex
100
AcDb2dVertex
 10
1293.7794494628906
 20
-205.7578125
 30
0.0
 70
0
  0
VERTEX
  5
1AC
330
189
100
AcDbEntity
  8
1
100
AcDbVertex
100
AcDb2dVertex
 10
1291.7062072753906
 20
-208.406494140625
 30
0.0
 70
0
  0
VERTEX
  5
1AD
330
189
100
AcDbEntity
  8
1
100
AcDbVertex
100
AcDb2dVertex
 10
1289.0071716308594
 20
-210.4100341796875
 30
0.0
 70
0
  0
VERTEX
  5
1AE
330
189
100
AcDbEntity
  8
1
100
AcDbVertex
100
AcDb2dVertex
 10
1285.8775329589844
 20
-211.62646484375
 30
0.0
 70
0
  0
VERTEX
  5
1AF
330
189
100
AcDbEntity
  8
1
100
AcDbVertex
100
AcDb2dVertex
 10
1031.5908508300781
 20
-217.531494140625
 30
0.0
 70
0
  0
VERTEX
  5
1B0
330
189
100
AcDbEntity
  8
1
100
AcDbVertex
100
AcDb2dVertex
 10
524.5088958740234
 20
-227.5184326171875
 30
0.0
 70
0
  0
VERTEX
  5
1B1
330
189
100
AcDbEntity
  8
1
100
AcDbVertex
100
AcDb2dVertex
 10
202.58401489257812
 20
-235.1458740234375
 30
0.0
 70
0
  0
VERTEX
  5
1B2
330
189
100
AcDbEntity
  8
1
100
AcDbVertex
100
AcDb2dVertex
 10
-92.46768188476562
 20
-248.0238037109375
 30
0.0
 70
0
  0
VERTEX
  5
1B3
330
189
100
AcDbEntity
  8
1
100
AcDbVertex
100
AcDb2dVertex
 10
-250.76730346679688
 20
-255.3782958984375
 30
0.0
 70
0
  0
VERTEX
  5
1B4
330
189
100
AcDbEntity
  8
1
100
AcDbVertex
100
AcDb2dVertex
 10
-476.3139343261719
 20
-266.9459228515625
 30
0.0
 70
0
  0
VERTEX
  5
1B5
330
189
100
AcDbEntity
  8
1
100
AcDbVertex
100
AcDb2dVertex
 10
-611.3158874511719
 20
-274.548095703125
 30
0.0
 70
0
  0
VERTEX
  5
1B6
330
189
100
AcDbEntity
  8
1
100
AcDbVertex
100
AcDb2dVertex
 10
-633.6386413574219
 20
-276.1429443359375
 30
0.0
 70
0
  0
VERTEX
  5
1B7
330
189
100
AcDbEntity
  8
1
100
AcDbVertex
100
AcDb2dVertex
 10
-789.5962829589844
 20
-287.7451171875
 30
0.0
 70
0
  0
VERTEX
  5
1B8
330
189
100
AcDbEntity
  8
1
100
AcDbVertex
100
AcDb2dVertex
 10
-922.7657165527344
 20
-298.42041015625
 30
0.0
 70
0
  0
VERTEX
  5
1B9
330
189
100
AcDbEntity
  8
1
100
AcDbVertex
100
AcDb2dVertex
 10
-1055.3814392089844
 20
-309.99267578125
 30
0.0
 70
0
  0
VERTEX
  5
1BA
330
189
100
AcDbEntity
  8
1
100
AcDbVertex
100
AcDb2dVertex
 10
-1182.8457946777344
 20
-322.0819091796875
 30
0.0
 70
0
  0
VERTEX
  5
1BB
330
189
100
AcDbEntity
  8
1
100
AcDbVertex
100
AcDb2dVertex
 10
-1185.7873229980469
 20
-321.6435546875
 30
0.0
 70
0
  0
VERTEX
  5
1BC
330
189
100
AcDbEntity
  8
1
100
AcDbVertex
100
AcDb2dVertex
 10
-1188.5392761230469
 20
-320.529296875
 30
0.0
 70
0
  0
VERTEX
  5
1BD
330
189
100
AcDbEntity
  8
1
100
AcDbVertex
100
AcDb2dVertex
 10
-1192.1214294433594
 20
-317.5323486328125
 30
0.0
 70
0
  0
VERTEX
  5
1BE
330
189
100
AcDbEntity
  8
1
100
AcDbVertex
100
AcDb2dVertex
 10
-1208.4329528808594
 20
-288.124755859375
 30
0.0
 70
0
  0
VERTEX
  5
1BF
330
189
100
AcDbEntity
  8
1
100
AcDbVertex
100
AcDb2dVertex
 10
-1226.9231872558594
 20
-253.2091064453125
 30
0.0
 70
0
  0
VERTEX
  5
1C0
330
189
100
AcDbEntity
  8
1
100
AcDbVertex
100
AcDb2dVertex
 10
-1244.8245544433594
 20
-218.0396728515625
 30
0.0
 70
0
  0
VERTEX
  5
1C1
330
189
100
AcDbEntity
  8
1
100
AcDbVertex
100
AcDb2dVertex
 10
-1270.0035095214844
 20
-165.7088623046875
 30
0.0
 70
0
  0
VERTEX
  5
1C2
330
189
100
AcDbEntity
  8
1
100
AcDbVertex
100
AcDb2dVertex
 10
-1285.5016784667969
 20
-131.301025390625
 30
0.0
 70
0
  0
VERTEX
  5
1C3
330
189
100
AcDbEntity
  8
1
100
AcDbVertex
100
AcDb2dVertex
 10
-1294.7250671386719
 20
-109.2342529296875
 30
0.0
 70
0
  0
VERTEX
  5
1C4
330
189
100
AcDbEntity
  8
1
100
AcDbVertex
100
AcDb2dVertex
 10
-1295.3992614746094
 20
-106.6077880859375
 30
0.0
 70
0
  0
VERTEX
  5
1C5
330
189
100
AcDbEntity
  8
1
100
AcDbVertex
100
AcDb2dVertex
 10
-1295.4910583496094
 20
-103.8975830078125
 30
0.0
 70
0
  0
VERTEX
  5
1C6
330
189
100
AcDbEntity
  8
1
100
AcDbVertex
100
AcDb2dVertex
 10
-1294.6945495605469
 20
-100.3568115234375
 30
0.0
 70
0
  0
VERTEX
  5
1C7
330
189
100
AcDbEntity
  8
1
100
AcDbVertex
100
AcDb2dVertex
 10
-1292.9162292480469
 20
-97.1871337890625
 30
0.0
 70
0
  0
VERTEX
  5
1C8
330
189
100
AcDbEntity
  8
1
100
AcDbVertex
100
AcDb2dVertex
 10
-1289.8416442871094
 20
-94.3021240234375
 30
0.0
 70
0
  0
VERTEX
  5
1C9
330
189
100
AcDbEntity
  8
1
100
AcDbVertex
100
AcDb2dVertex
 10
-1285.9522399902344
 20
-92.6175537109375
 30
0.0
 70
0
  0
VERTEX
  5
1CA
330
189
100
AcDbEntity
  8
1
100
AcDbVertex
100
AcDb2dVertex
 10
-1243.6322937011719
 20
-79.6993408203125
 30
0.0
 70
0
  0
VERTEX
  5
1CB
330
189
100
AcDbEntity
  8
1
100
AcDbVertex
100
AcDb2dVertex
 10
-1200.8431091308594
 20
-65.3223876953125
 30
0.0
 70
0
  0
VERTEX
  5
1CC
330
189
100
AcDbEntity
  8
1
100
AcDbVertex
100
AcDb2dVertex
 10
-1198.4174499511719
 20
-64.1859130859375
 30
0.0
 70
0
  0
VERTEX
  5
1CD
330
189
100
AcDbEntity
  8
1
100
AcDbVertex
100
AcDb2dVertex
 10
-1195.5956726074219
 20
-62.0340576171875
 30
0.0
 70
0
  0
VERTEX
  5
1CE
330
189
100
AcDbEntity
  8
1
100
AcDbVertex
100
AcDb2dVertex
 10
-1192.7541198730469
 20
-58.6676025390625
 30
0.0
 70
0
  0
VERTEX
  5
1CF
330
189
100
AcDbEntity
  8
1
100
AcDbVertex
100
AcDb2dVertex
 10
-1190.5811462402344
 20
-54.8380126953125
 30
0.0
 70
0
  0
VERTEX
  5
1D0
330
189
100
AcDbEntity
  8
1
100
AcDbVertex
100
AcDb2dVertex
 10
-1187.4645690917969
 20
-46.6285400390625
 30
0.0
 70
0
  0
VERTEX
  5
1D1
330
189
100
AcDbEntity
  8
1
100
AcDbVertex
100
AcDb2dVertex
 10
-1184.9755554199219
 20
-30.8736572265625
 30
0.0
 70
0
  0
VERTEX
  5
1D2
330
189
100
AcDbEntity
  8
1
100
AcDbVertex
100
AcDb2dVertex
 10
-1182.3066101074219
 20
66.3214111328125
 30
0.0
 70
0
  0
VERTEX
  5
1D3
330
189
100
AcDbEntity
  8
1
100
AcDbVertex
100
AcDb2dVertex
 10
-1182.5013122558594
 20
78.3253173828125
 30
0.0
 70
0
  0
VERTEX
  5
1D4
330
189
100
AcDbEntity
  8
1
100
AcDbVertex
100
AcDb2dVertex
 10
-1183.3223571777344
 20
82.6004638671875
 30
0.0
 70
0
  0
VERTEX
  5
1D5
330
189
100
AcDbEntity
  8
1
100
AcDbVertex
100
AcDb2dVertex
 10
-1184.9123229980469
 20
86.6397705078125
 30
0.0
 70
0
  0
VERTEX
  5
1D6
330
189
100
AcDbEntity
  8
1
100
AcDbVertex
100
AcDb2dVertex
 10
-1188.2373962402344
 20
91.2962646484375
 30
0.0
 70
0
  0
VERTEX
  5
1D7
330
189
100
AcDbEntity
  8
1
100
AcDbVertex
100
AcDb2dVertex
 10
-1192.6509704589844
 20
94.7042236328125
 30
0.0
 70
0
  0
VERTEX
  5
1D8
330
189
100
AcDbEntity
  8
1
100
AcDbVertex
100
AcDb2dVertex
 10
-1226.6443786621094
 20
117.0394287109375
 30
0.0
 70
0
  0
VERTEX
  5
1D9
330
189
100
AcDbEntity
  8
1
100
AcDbVertex
100
AcDb2dVertex
 10
-1268.8739929199219
 20
143.2947998046875
 30
0.0
 70
0
  0
VERTEX
  5
1DA
330
189
100
AcDbEntity
  8
1
100
AcDbVertex
100
AcDb2dVertex
 10
-1271.8776550292969
 20
145.9556884765625
 30
0.0
 70
0
  0
VERTEX
  5
1DB
330
189
100
AcDbEntity
  8
1
100
AcDbVertex
100
AcDb2dVertex
 10
-1273.0317077636719
 20
147.6297607421875
 30
0.0
 70
0
  0
VERTEX
  5
1DC
330
189
100
AcDbEntity
  8
1
100
AcDbVertex
100
AcDb2dVertex
 10
-1274.4643249511719
 20
151.4144287109375
 30
0.0
 70
0
  0
VERTEX
  5
1DD
330
189
100
AcDbEntity
  8
1
100
AcDbVertex
100
AcDb2dVertex
 10
-1274.7007751464844
 20
153.4320068359375
 30
0.0
 70
0
  0
VERTEX
  5
1DE
330
189
100
AcDbEntity
  8
1
100
AcDbVertex
100
AcDb2dVertex
 10
-1273.9904479980469
 20
158.0418701171875
 30
0.0
 70
0
  0
VERTEX
  5
1DF
330
189
100
AcDbEntity
  8
1
100
AcDbVertex
100
AcDb2dVertex
 10
-1176.9860534667969
 20
315.9669189453125
 30
0.0
 70
0
  0
VERTEX
  5
1E0
330
189
100
AcDbEntity
  8
1
100
AcDbVertex
100
AcDb2dVertex
 10
-1174.5937194824219
 20
318.8863525390625
 30
0.0
 70
0
  0
VERTEX
  5
1E1
330
189
100
AcDbEntity
  8
1
100
AcDbVertex
100
AcDb2dVertex
 10
-1171.4408874511719
 20
320.9605712890625
 30
0.0
 70
0
  0
VERTEX
  5
1E2
330
189
100
AcDbEntity
  8
1
100
AcDbVertex
100
AcDb2dVertex
 10
-1167.6731872558594
 20
322.0159912109375
 30
0.0
 70
0
  0
VERTEX
  5
1E3
330
189
100
AcDbEntity
  8
1
100
AcDbVertex
100
AcDb2dVertex
 10
-1163.4601745605469
 20
321.7899169921875
 30
0.0
 70
0
  0
VERTEX
  5
1E4
330
189
100
AcDbEntity
  8
1
100
AcDbVertex
100
AcDb2dVertex
 10
-1130.4486999511719
 20
311.5362548828125
 30
0.0
 70
0
  0
VERTEX
  5
1E5
330
189
100
AcDbEntity
  8
1
100
AcDbVertex
100
AcDb2dVertex
 10
-1089.9893493652344
 20
301.2462158203125
 30
0.0
 70
0
  0
VERTEX
  5
1E6
330
189
100
AcDbEntity
  8
1
100
AcDbVertex
100
AcDb2dVertex
 10
-1069.4143981933594
 20
296.6605224609375
 30
0.0
 70
0
  0
VERTEX
  5
1E7
330
189
100
AcDbEntity
  8
1
100
AcDbVertex
100
AcDb2dVertex
 10
-1027.7554626464844
 20
288.3165283203125
 30
0.0
 70
0
  0
VERTEX
  5
1E8
330
189
100
AcDbEntity
  8
1
100
AcDbVertex
100
AcDb2dVertex
 10
-985.5636901855469
 20
280.8336181640625
 30
0.0
 70
0
  0
VERTEX
  5
1E9
330
189
100
AcDbEntity
  8
1
100
AcDbVertex
100
AcDb2dVertex
 10
-938.6174011230469
 20
271.9561767578125
 30
0.0
 70
0
  0
VERTEX
  5
1EA
330
189
100
AcDbEntity
  8
1
100
AcDbVertex
100
AcDb2dVertex
 10
-879.6855163574219
 20
262.7288818359375
 30
0.0
 70
0
  0
VERTEX
  5
1EB
330
189
100
AcDbEntity
  8
1
100
AcDbVertex
100
AcDb2dVertex
 10
-816.9184265136719
 20
252.1529541015625
 30
0.0
 70
0
  0
VERTEX
  5
1EC
330
189
100
AcDbEntity
  8
1
100
AcDbVertex
100
AcDb2dVertex
 10
-772.9031677246094
 20
245.9967041015625
 30
0.0
 70
0
  0
VERTEX
  5
1ED
330
189
100
AcDbEntity
  8
1
100
AcDbVertex
100
AcDb2dVertex
 10
-707.7798767089844
 20
237.5872802734375
 30
0.0
 70
0
  0
VERTEX
  5
1EE
330
189
100
AcDbEntity
  8
1
100
AcDbVertex
100
AcDb2dVertex
 10
-642.2282409667969
 20
229.8138427734375
 30
0.0
 70
0
  0
VERTEX
  5
1EF
330
189
100
AcDbEntity
  8
1
100
AcDbVertex
100
AcDb2dVertex
 10
-510.6122741699219
 20
215.0321044921875
 30
0.0
 70
0
  0
VERTEX
  5
1F0
330
189
100
AcDbEntity
  8
1
100
AcDbVertex
100
AcDb2dVertex
 10
-422.3835754394531
 20
205.9769287109375
 30
0.0
 70
0
  0
VERTEX
  5
1F1
330
189
100
AcDbEntity
  8
1
100
AcDbVertex
100
AcDb2dVertex
 10
-333.8036804199219
 20
197.5150146484375
 30
0.0
 70
0
  0
VERTEX
  5
1F2
330
189
100
AcDbEntity
  8
1
100
AcDbVertex
100
AcDb2dVertex
 10
-244.78042602539062
 20
189.7813720703125
 30
0.0
 70
0
  0
VERTEX
  5
1F3
330
189
100
AcDbEntity
  8
1
100
AcDbVertex
100
AcDb2dVertex
 10
-133.02310180664062
 20
180.8770751953125
 30
0.0
 70
0
  0
VERTEX
  5
1F4
330
189
100
AcDbEntity
  8
1
100
AcDbVertex
100
AcDb2dVertex
 10
92.03802490234375
 20
164.9166259765625
 30
0.0
 70
0
  0
SEQEND
  5
18D
330
189
100
AcDbEntity
  8
1
  0
POLYLINE
  5
1F5
330
189
100
AcDbEntity
  8
8
100
AcDb2dPolyline
 66
1
 10
0.0
 20
0.0
 30
0.0
 70
0
  0
VERTEX
  5
1F7
330
189
100
AcDbEntity
  8
8
100
AcDbVertex
100
AcDb2dVertex
 10
1283.2221765090178
 20
102.62802415276201
 30
0.0
 70
0
  0
VERTEX
  5
1F8
330
189
100
AcDbEntity
  8
8
100
AcDbVertex
100
AcDb2dVertex
 10
957.2956758110093
 20
113.29169260039907
 30
0.0
 70
0
  0
VERTEX
  5
1F9
330
189
100
AcDbEntity
  8
8
100
AcDbVertex
100
AcDb2dVertex
 10
725.2233735862563
 20
120.06854515084069
 30
0.0
 70
0
  0
VERTEX
  5
1FA
330
189
100
AcDbEntity
  8
8
100
AcDbVertex
100
AcDb2dVertex
 10
563.2193736686036
 20
125.2524331599966
 30
0.0
 70
0
  0
VERTEX
  5
1FB
330
189
100
AcDbEntity
  8
8
100
AcDbVertex
100
AcDb2dVertex
 10
355.3901988507738
 20
132.73538094408423
 30
0.0
 70
0
  0
VERTEX
  5
1FC
330
189
100
AcDbEntity
  8
8
100
AcDbVertex
100
AcDb2dVertex
 10
194.18201957749284
 20
139.44863273282363
 30
0.0
 70
0
  0
VERTEX
  5
1FD
330
189
100
AcDbEntity
  8
8
100
AcDbVertex
100
AcDb2dVertex
 10
171.34522603744784
 20
140.71416047316006
 30
0.0
 70
0
  0
VERTEX
  5
1FE
330
189
100
AcDbEntity
  8
8
100
AcDbVertex
100
AcDb2dVertex
 10
-26.47866122460863
 20
154.28348807901284
 30
0.0
 70
0
  0
VERTEX
  5
1FF
330
189
100
AcDbEntity
  8
8
100
AcDbVertex
100
AcDb2dVertex
 10
-144.0519805071359
 20
162.91904781681524
 30
0.0
 70
0
  0
VERTEX
  5
200
330
189
100
AcDbEntity
  8
8
100
AcDbVertex
100
AcDb2dVertex
 10
-278.0652672215065
 20
173.78204134901398
 30
0.0
 70
0
  0
VERTEX
  5
201
330
189
100
AcDbEntity
  8
8
100
AcDbVertex
100
AcDb2dVertex
 10
-389.13514617981696
 20
183.81795278897516
 30
0.0
 70
0
  0
VERTEX
  5
202
330
189
100
AcDbEntity
  8
8
100
AcDbVertex
100
AcDb2dVertex
 10
-477.52907806397207
 20
192.61286170949597
 30
0.0
 70
0
  0
VERTEX
  5
203
330
189
100
AcDbEntity
  8
8
100
AcDbVertex
100
AcDb2dVertex
 10
-565.4427464601495
 20
202.2025088194473
 30
0.0
 70
0
  0
VERTEX
  5
204
330
189
100
AcDbEntity
  8
8
100
AcDbVertex
100
AcDb2dVertex
 10
-696.8001057963172
 20
217.37002499300797
 30
0.0
 70
0
  0
VERTEX
  5
205
330
189
100
AcDbEntity
  8
8
100
AcDbVertex
100
AcDb2dVertex
 10
-783.640976859371
 20
228.54526364970934
 30
0.0
 70
0
  0
VERTEX
  5
206
330
189
100
AcDbEntity
  8
8
100
AcDbVertex
100
AcDb2dVertex
 10
-846.4982395376228
 20
237.59063764352322
 30
0.0
 70
0
  0
VERTEX
  5
207
330
189
100
AcDbEntity
  8
8
100
AcDbVertex
100
AcDb2dVertex
 10
-890.8327819120293
 20
244.6074978190445
 30
0.0
 70
0
  0
VERTEX
  5
208
330
189
100
AcDbEntity
  8
8
100
AcDbVertex
100
AcDb2dVertex
 10
-933.1554444314158
 20
251.90535634586513
 30
0.0
 70
0
  0
VERTEX
  5
209
330
189
100
AcDbEntity
  8
8
100
AcDbVertex
100
AcDb2dVertex
 10
-1038.2724994482228
 20
271.22666622966244
 30
0.0
 70
0
  0
VERTEX
  5
20A
330
189
100
AcDbEntity
  8
8
100
AcDbVertex
100
AcDb2dVertex
 10
-1079.8345934018598
 20
279.73473970127134
 30
0.0
 70
0
  0
VERTEX
  5
20B
330
189
100
AcDbEntity
  8
8
100
AcDbVertex
100
AcDb2dVertex
 10
-1120.6441342489056
 20
289.4627258227397
 30
0.0
 70
0
  0
VERTEX
  5
20C
330
189
100
AcDbEntity
  8
8
100
AcDbVertex
100
AcDb2dVertex
 10
-1140.6638034313905
 20
294.95147583239986
 30
0.0
 70
0
  0
VERTEX
  5
20D
330
189
100
AcDbEntity
  8
8
100
AcDbVertex
100
AcDb2dVertex
 10
-1160.3337067049151
 20
301.00705277349516
 30
0.0
 70
0
  0
VERTEX
  5
20E
330
189
100
AcDbEntity
  8
8
100
AcDbVertex
100
AcDb2dVertex
 10
-1169.3915654919563
 20
304.19243794918384
 30
0.0
 70
0
  0
VERTEX
  5
20F
330
189
100
AcDbEntity
  8
8
100
AcDbVertex
100
AcDb2dVertex
 10
-1170.9396162913265
 20
305.4903199065766
 30
0.0
 70
0
  0
VERTEX
  5
210
330
189
100
AcDbEntity
  8
8
100
AcDbVertex
100
AcDb2dVertex
 10
-1172.0029378104093
 20
307.21265262984434
 30
0.0
 70
0
  0
VERTEX
  5
211
330
189
100
AcDbEntity
  8
8
100
AcDbVertex
100
AcDb2dVertex
 10
-1172.4629707718666
 20
309.1823869078062
 30
0.0
 70
0
  0
VERTEX
  5
212
330
189
100
AcDbEntity
  8
8
100
AcDbVertex
100
AcDb2dVertex
 10
-1172.3149925506261
 20
311.01332832476646
 30
0.0
 70
0
  0
VERTEX
  5
213
330
189
100
AcDbEntity
  8
8
100
AcDbVertex
100
AcDb2dVertex
 10
-1171.6411071955933
 20
312.7221520056555
 30
0.0
 70
0
  0
VERTEX
  5
214
330
189
100
AcDbEntity
  8
8
100
AcDbVertex
100
AcDb2dVertex
 10
-1158.17660393523
 20
334.58284338031353
 30
0.0
 70
0
  0
SEQEND
  5
1F6
330
189
100
AcDbEntity
  8
8
  0
POLYLINE
  5
215
330
189
100
AcDbEntity
  8
8
100
AcDb2dPolyline
 66
1
 10
0.0
 20
0.0
 30
0.0
 70
0
  0
VERTEX
  5
217
330
189
100
AcDbEntity
  8
8
100
AcDbVertex
100
AcDb2dVertex
 10
-440.9603096271802
 20
-246.2702864219891
 30
0.0
 70
0
  0
VERTEX
  5
218
330
189
100
AcDbEntity
  8
8
100
AcDbVertex
100
AcDb2dVertex
 10
-305.57194490717654
 20
-239.29049613610505
 30
0.0
 70
0
  0
VERTEX
  5
219
330
189
100
AcDbEntity
  8
8
100
AcDbVertex
100
AcDb2dVertex
 10
-147.30236167683984
 20
-231.7393034888969
 30
0.0
 70
0
  0
VERTEX
  5
21A
330
189
100
AcDbEntity
  8
8
100
AcDbVertex
100
AcDb2dVertex
 10
215.97060102706587
 20
-216.05952103267327
 30
0.0
 70
0
  0
VERTEX
  5
21B
330
189
100
AcDbEntity
  8
8
100
AcDbVertex
100
AcDb2dVertex
 10
561.0458682873228
 20
-207.94666594444288
 30
0.0
 70
0
  0
VERTEX
  5
21C
330
189
100
AcDbEntity
  8
8
100
AcDbVertex
100
AcDb2dVertex
 10
1022.1966515666672
 20
-198.9589219200384
 30
0.0
 70
0
  0
VERTEX
  5
21D
330
189
100
AcDbEntity
  8
8
100
AcDbVertex
100
AcDb2dVertex
 10
1276.621287528722
 20
-193.3279586127867
 30
0.0
 70
0
  0
SEQEND
  5
216
330
189
100
AcDbEntity
  8
8
  0
POLYLINE
  5
21E
330
189
100
AcDbEntity
  8
8
100
AcDb2dPolyline
 66
1
 10
0.0
 20
0.0
 30
0.0
 70
0
  0
VERTEX
  5
220
330
189
100
AcDbEntity
  8
8
100
AcDbVertex
100
AcDb2dVertex
 10
-1173.0877734207072
 20
-339.6890541964035
 30
0.0
 70
0
  0
VERTEX
  5
221
330
189
100
AcDbEntity
  8
8
100
AcDbVertex
100
AcDb2dVertex
 10
-1188.2301374795816
 20
-311.98371289863917
 30
0.0
 70
0
  0
VERTEX
  5
222
330
189
100
AcDbEntity
  8
8
100
AcDbVertex
100
AcDb2dVertex
 10
-1188.6999733787138
 20
-309.47432980479584
 30
0.0
 70
0
  0
VERTEX
  5
223
330
189
100
AcDbEntity
  8
8
100
AcDbVertex
100
AcDb2dVertex
 10
-1188.118923679769
 20
-306.9584285975461
 30
0.0
 70
0
  0
VERTEX
  5
224
330
189
100
AcDbEntity
  8
8
100
AcDbVertex
100
AcDb2dVertex
 10
-1186.5766378902972
 20
-304.88694982439756
 30
0.0
 70
0
  0
VERTEX
  5
225
330
189
100
AcDbEntity
  8
8
100
AcDbVertex
100
AcDb2dVertex
 10
-1183.9519043164053
 20
-303.51766766240235
 30
0.0
 70
0
  0
VERTEX
  5
226
330
189
100
AcDbEntity
  8
8
100
AcDbVertex
100
AcDb2dVertex
 10
-1109.2553806392455
 20
-296.15973871938854
 30
0.0
 70
0
  0
VERTEX
  5
227
330
189
100
AcDbEntity
  8
8
100
AcDbVertex
100
AcDb2dVertex
 10
-998.9522388400123
 20
-286.1067352463408
 30
0.0
 70
0
  0
VERTEX
  5
228
330
189
100
AcDbEntity
  8
8
100
AcDbVertex
100
AcDb2dVertex
 10
-888.2388116963243
 20
-276.75762289008526
 30
0.0
 70
0
  0
VERTEX
  5
229
330
189
100
AcDbEntity
  8
8
100
AcDbVertex
100
AcDb2dVertex
 10
-777.13632012689
 20
-267.98689170628154
 30
0.0
 70
0
  0
VERTEX
  5
22A
330
189
100
AcDbEntity
  8
8
100
AcDbVertex
100
AcDb2dVertex
 10
-621.0393230101483
 20
-256.45038283694225
 30
0.0
 70
0
  0
VERTEX
  5
22B
330
189
100
AcDbEntity
  8
8
100
AcDbVertex
100
AcDb2dVertex
 10
-440.9603096271802
 20
-246.2702864219891
 30
0.0
 70
0
  0
SEQEND
  5
21F
330
189
100
AcDbEntity
  8
8
  0
POLYLINE
  5
22C
330
189
100
AcDbEntity
  8
8
100
AcDb2dPolyline
 66
1
 10
0.0
 20
0.0
 30
0.0
 70
0
  0
VERTEX
  5
22E
330
189
100
AcDbEntity
  8
8
100
AcDbVertex
100
AcDb2dVertex
 10
1286.0211905212086
 20
-211.91046179894738
 30
0.0
 70
0
  0
VERTEX
  5
22F
330
189
100
AcDbEntity
  8
8
100
AcDbVertex
100
AcDb2dVertex
 10
1281.2986701165823
 20
-211.85934854187758
 30
0.0
 70
0
  0
VERTEX
  5
230
330
189
100
AcDbEntity
  8
8
100
AcDbVertex
100
AcDb2dVertex
 10
1276.8260356411324
 20
-210.3531715042143
 30
0.0
 70
0
  0
VERTEX
  5
231
330
189
100
AcDbEntity
  8
8
100
AcDbVertex
100
AcDb2dVertex
 10
1273.2302348010166
 20
-207.28452318349537
 30
0.0
 70
0
  0
VERTEX
  5
232
330
189
100
AcDbEntity
  8
8
100
AcDbVertex
100
AcDb2dVertex
 10
1270.8714704257009
 20
-203.176985778505
 30
0.0
 70
0
  0
VERTEX
  5
233
330
189
100
AcDbEntity
  8
8
100
AcDbVertex
100
AcDb2dVertex
 10
1253.0976837234196
 20
-166.50441368114912
 30
0.0
 70
0
  0
VERTEX
  5
234
330
189
100
AcDbEntity
  8
8
100
AcDbVertex
100
AcDb2dVertex
 10
1242.049923719269
 20
-141.86414138428768
 30
0.0
 70
0
  0
VERTEX
  5
235
330
189
100
AcDbEntity
  8
8
100
AcDbVertex
100
AcDb2dVertex
 10
1231.8691476877325
 20
-117.44520989852708
 30
0.0
 70
0
  0
VERTEX
  5
236
330
189
100
AcDbEntity
  8
8
100
AcDbVertex
100
AcDb2dVertex
 10
1227.048465669099
 20
-105.27342540272593
 30
0.0
 70
0
  0
VERTEX
  5
237
330
189
100
AcDbEntity
  8
8
100
AcDbVertex
100
AcDb2dVertex
 10
1218.332173022368
 20
-81.0630090003956
 30
0.0
 70
0
  0
VERTEX
  5
238
330
189
100
AcDbEntity
  8
8
100
AcDbVertex
100
AcDb2dVertex
 10
1210.8813124226967
 20
-56.81389037192048
 30
0.0
 70
0
  0
VERTEX
  5
239
330
189
100
AcDbEntity
  8
8
100
AcDbVertex
100
AcDb2dVertex
 10
1207.6698924572424
 20
-45.05028390814823
 30
0.0
 70
0
  0
VERTEX
  5
23A
330
189
100
AcDbEntity
  8
8
100
AcDbVertex
100
AcDb2dVertex
 10
1202.5885058531312
 20
-21.729284725018715
 30
0.0
 70
0
  0
VERTEX
  5
23B
330
189
100
AcDbEntity
  8
8
100
AcDbVertex
100
AcDb2dVertex
 10
1200.698206757791
 20
-9.48868281989553
 30
0.0
 70
0
  0
VERTEX
  5
23C
330
189
100
AcDbEntity
  8
8
100
AcDbVertex
100
AcDb2dVertex
 10
1199.767719603883
 20
5.51660551706118
 30
0.0
 70
0
  0
VERTEX
  5
23D
330
189
100
AcDbEntity
  8
8
100
AcDbVertex
100
AcDb2dVertex
 10
1201.4290075696474
 20
22.36996357054022
 30
0.0
 70
0
  0
VERTEX
  5
23E
330
189
100
AcDbEntity
  8
8
100
AcDbVertex
100
AcDb2dVertex
 10
1206.389525561227
 20
35.69548283362883
 30
0.0
 70
0
  0
VERTEX
  5
23F
330
189
100
AcDbEntity
  8
8
100
AcDbVertex
100
AcDb2dVertex
 10
1213.4710649258009
 20
48.69593406089416
 30
0.0
 70
0
  0
VERTEX
  5
240
330
189
100
AcDbEntity
  8
8
100
AcDbVertex
100
AcDb2dVertex
 10
1220.7513040884405
 20
60.66846707712284
 30
0.0
 70
0
  0
VERTEX
  5
241
330
189
100
AcDbEntity
  8
8
100
AcDbVertex
100
AcDb2dVertex
 10
1258.1656454420013
 20
118.05214938893914
 30
0.0
 70
0
  0
VERTEX
  5
242
330
189
100
AcDbEntity
  8
8
100
AcDbVertex
100
AcDb2dVertex
 10
1261.5387470067506
 20
120.53618944934487
 30
0.0
 70
0
  0
VERTEX
  5
243
330
189
100
AcDbEntity
  8
8
100
AcDbVertex
100
AcDb2dVertex
 10
1265.5358329032897
 20
121.77056137492809
 30
0.0
 70
0
  0
VERTEX
  5
244
330
189
100
AcDbEntity
  8
8
100
AcDbVertex
100
AcDb2dVertex
 10
1271.7846871594277
 20
121.76015647959912
 30
0.0
 70
0
  0
VERTEX
  5
245
330
189
100
AcDbEntity
  8
8
100
AcDbVertex
100
AcDb2dVertex
 10
1294.7136129079358
 20
120.32973678034296
 30
0.0
 70
0
  0
SEQEND
  5
22D
330
189
100
AcDbEntity
  8
8
  0
POLYLINE
  5
246
330
189
100
AcDbEntity
  8
8
100
AcDb2dPolyline
 66
1
 10
0.0
 20
0.0
 30
0.0
 70
0
  0
VERTEX
  5
248
330
189
100
AcDbEntity
  8
8
100
AcDbVertex
100
AcDb2dVertex
 10
-666.5680046235086
 20
-304.9140873298552
 30
0.0
 70
0
  0
VERTEX
  5
249
330
189
100
AcDbEntity
  8
8
100
AcDbVertex
100
AcDb2dVertex
 10
-688.9639708003747
 20
-267.0738638777725
 30
0.0
 70
0
  0
VERTEX
  5
24A
330
189
100
AcDbEntity
  8
8
100
AcDbVertex
100
AcDb2dVertex
 10
-716.0864113689479
 20
-219.2550390824258
 30
0.0
 70
0
  0
VERTEX
  5
24B
330
189
100
AcDbEntity
  8
8
100
AcDbVertex
100
AcDb2dVertex
 10
-741.4739658351964
 20
-171.78634662288846
 30
0.0
 70
0
  0
VERTEX
  5
24C
330
189
100
AcDbEntity
  8
8
100
AcDbVertex
100
AcDb2dVertex
 10
-757.2384057182278
 20
-140.35259304110673
 30
0.0
 70
0
  0
VERTEX
  5
24D
330
189
100
AcDbEntity
  8
8
100
AcDbVertex
100
AcDb2dVertex
 10
-772.9813998786924
 20
-106.72331881749551
 30
0.0
 70
0
  0
VERTEX
  5
24E
330
189
100
AcDbEntity
  8
8
100
AcDbVertex
100
AcDb2dVertex
 10
-780.7895878089398
 20
-88.80601881039092
 30
0.0
 70
0
  0
VERTEX
  5
24F
330
189
100
AcDbEntity
  8
8
100
AcDbVertex
100
AcDb2dVertex
 10
-793.1632897861916
 20
-57.19157095399987
 30
0.0
 70
0
  0
VERTEX
  5
250
330
189
100
AcDbEntity
  8
8
100
AcDbVertex
100
AcDb2dVertex
 10
-802.3524246118525
 20
-30.137386589239668
 30
0.0
 70
0
  0
SEQEND
  5
247
330
189
100
AcDbEntity
  8
8
  0
POLYLINE
  5
251
330
189
100
AcDbEntity
  8
8
100
AcDb2dPolyline
 66
1
 10
0.0
 20
0.0
 30
0.0
 70
0
  0
VERTEX
  5
253
330
189
100
AcDbEntity
  8
8
100
AcDbVertex
100
AcDb2dVertex
 10
126.04461461930396
 20
-256.42442743727065
 30
0.0
 70
0
  0
VERTEX
  5
254
330
189
100
AcDbEntity
  8
8
100
AcDbVertex
100
AcDb2dVertex
 10
100.04148836230706
 20
-211.5980382561927
 30
0.0
 70
0
  0
VERTEX
  5
255
330
189
100
AcDbEntity
  8
8
100
AcDbVertex
100
AcDb2dVertex
 10
83.7372549638012
 20
-182.21060278535288
 30
0.0
 70
0
  0
VERTEX
  5
256
330
189
100
AcDbEntity
  8
8
100
AcDbVertex
100
AcDb2dVertex
 10
69.10078313546143
 20
-154.53818600940212
 30
0.0
 70
0
  0
VERTEX
  5
257
330
189
100
AcDbEntity
  8
8
100
AcDbVertex
100
AcDb2dVertex
 10
54.57178220173353
 20
-125.33235515616207
 30
0.0
 70
0
  0
VERTEX
  5
258
330
189
100
AcDbEntity
  8
8
100
AcDbVertex
100
AcDb2dVertex
 10
41.7164469444312
 20
-97.50033746798408
 30
0.0
 70
0
  0
VERTEX
  5
259
330
189
100
AcDbEntity
  8
8
100
AcDbVertex
100
AcDb2dVertex
 10
35.33300794643651
 20
-82.65448731782135
 30
0.0
 70
0
  0
VERTEX
  5
25A
330
189
100
AcDbEntity
  8
8
100
AcDbVertex
100
AcDb2dVertex
 10
25.91476716138294
 20
-58.363886180536156
 30
0.0
 70
0
  0
VERTEX
  5
25B
330
189
100
AcDbEntity
  8
8
100
AcDbVertex
100
AcDb2dVertex
 10
18.087302523457765
 20
-35.22668198659812
 30
0.0
 70
0
  0
SEQEND
  5
252
330
189
100
AcDbEntity
  8
8
  0
POLYLINE
  5
25C
330
189
100
AcDbEntity
  8
8
100
AcDb2dPolyline
 66
1
 10
0.0
 20
0.0
 30
0.0
 70
0
  0
VERTEX
  5
25E
330
189
100
AcDbEntity
  8
8
100
AcDbVertex
100
AcDb2dVertex
 10
975.337841664166
 20
-237.98010852007087
 30
0.0
 70
0
  0
VERTEX
  5
25F
330
189
100
AcDbEntity
  8
8
100
AcDbVertex
100
AcDb2dVertex
 10
944.2932292611954
 20
-182.71019388071682
 30
0.0
 70
0
  0
VERTEX
  5
260
330
189
100
AcDbEntity
  8
8
100
AcDbVertex
100
AcDb2dVertex
 10
924.6609052035196
 20
-145.0536546177741
 30
0.0
 70
0
  0
VERTEX
  5
261
330
189
100
AcDbEntity
  8
8
100
AcDbVertex
100
AcDb2dVertex
 10
906.7690094577985
 20
-107.21014357290323
 30
0.0
 70
0
  0
VERTEX
  5
262
330
189
100
AcDbEntity
  8
8
100
AcDbVertex
100
AcDb2dVertex
 10
897.1010804438945
 20
-84.54093539751511
 30
0.0
 70
0
  0
VERTEX
  5
263
330
189
100
AcDbEntity
  8
8
100
AcDbVertex
100
AcDb2dVertex
 10
890.7294408897222
 20
-67.87006245274961
 30
0.0
 70
0
  0
SEQEND
  5
25D
330
189
100
AcDbEntity
  8
8
  0
POLYLINE
  5
264
330
189
100
AcDbEntity
  8
8
100
AcDb2dPolyline
 66
1
 10
0.0
 20
0.0
 30
0.0
 70
0
  0
VERTEX
  5
266
330
189
100
AcDbEntity
  8
8
100
AcDbVertex
100
AcDb2dVertex
 10
109.31128919752109
 20
188.39161409530698
 30
0.0
 70
0
  0
VERTEX
  5
267
330
189
100
AcDbEntity
  8
8
100
AcDbVertex
100
AcDb2dVertex
 10
88.11613935184522
 20
157.70421373880527
 30
0.0
 70
0
  0
SEQEND
  5
265
330
189
100
AcDbEntity
  8
8
  0
ENDBLK
  5
18B
330
189
100
AcDbEntity
  8
0
100
AcDbBlockEnd
  0
BLOCK
  5
26B
330
26A
100
AcDbEntity
  8
0
100
AcDbBlockBegin
  2
US
 70
0
 10
0.0
 20
0.0
 30
0.0
  3
US
  1

  0
POLYLINE
  5
26D
330
26A
100
AcDbEntity
  8
1
100
AcDb2dPolyline
 66
1
 10
0.0
 20
0.0
 30
0.0
 70
0
  0
VERTEX
  5
26F
330
26A
100
AcDbEntity
  8
1
100
AcDbVertex
100
AcDb2dVertex
 10
-616.1792602539062
 20
-552.279052734375
 30
0.0
 70
0
  0
VERTEX
  5
270
330
26A
100
AcDbEntity
  8
1
100
AcDbVertex
100
AcDb2dVertex
 10
-794.4666748046875
 20
-602.386474609375
 30
0.0
 70
0
  0
VERTEX
  5
271
330
26A
100
AcDbEntity
  8
1
100
AcDbVertex
100
AcDb2dVertex
 10
-950.2863159179688
 20
-645.68603515625
 30
0.0
 70
0
  0
VERTEX
  5
272
330
26A
100
AcDbEntity
  8
1
100
AcDbVertex
100
AcDb2dVertex
 10
-1061.4635009765625
 20
-676.244140625
 30
0.0
 70
0
  0
VERTEX
  5
273
330
26A
100
AcDbEntity
  8
1
100
AcDbVertex
100
AcDb2dVertex
 10
-1172.3651123046875
 20
-705.84326171875
 30
0.0
 70
0
  0
VERTEX
  5
274
330
26A
100
AcDbEntity
  8
1
100
AcDbVertex
100
AcDb2dVertex
 10
-1326.1893920898438
 20
-742.233154296875
 30
0.0
 70
0
  0
VERTEX
  5
275
330
26A
100
AcDbEntity
  8
1
100
AcDbVertex
100
AcDb2dVertex
 10
-1479.6658668518066
 20
-777.34326171875
 30
0.0
 70
0
  0
VERTEX
  5
276
330
26A
100
AcDbEntity
  8
1
100
AcDbVertex
100
AcDb2dVertex
 10
-1610.891731262207
 20
-806.29248046875
 30
0.0
 70
0
  0
VERTEX
  5
277
330
26A
100
AcDbEntity
  8
1
100
AcDbVertex
100
AcDb2dVertex
 10
-1746.1401977539062
 20
-834.736572265625
 30
0.0
 70
0
  0
VERTEX
  5
278
330
26A
100
AcDbEntity
  8
1
100
AcDbVertex
100
AcDb2dVertex
 10
-1850.4021301269531
 20
-855.447998046875
 30
0.0
 70
0
  0
VERTEX
  5
279
330
26A
100
AcDbEntity
  8
1
100
AcDbVertex
100
AcDb2dVertex
 10
-1999.5505981445312
 20
-883.4228515625
 30
0.0
 70
0
  0
VERTEX
  5
27A
330
26A
100
AcDbEntity
  8
1
100
AcDbVertex
100
AcDb2dVertex
 10
-2109.870849609375
 20
-902.453369140625
 30
0.0
 70
0
  0
VERTEX
  5
27B
330
26A
100
AcDbEntity
  8
1
100
AcDbVertex
100
AcDb2dVertex
 10
-2172.59814453125
 20
-912.22021484375
 30
0.0
 70
0
  0
VERTEX
  5
27C
330
26A
100
AcDbEntity
  8
1
100
AcDbVertex
100
AcDb2dVertex
 10
-2217.0302734375
 20
-918.464111328125
 30
0.0
 70
0
  0
VERTEX
  5
27D
330
26A
100
AcDbEntity
  8
1
100
AcDbVertex
100
AcDb2dVertex
 10
-2259.6260375976562
 20
-923.846923828125
 30
0.0
 70
0
  0
VERTEX
  5
27E
330
26A
100
AcDbEntity
  8
1
100
AcDbVertex
100
AcDb2dVertex
 10
-2344.3353271484375
 20
-932.77734375
 30
0.0
 70
0
  0
VERTEX
  5
27F
330
26A
100
AcDbEntity
  8
1
100
AcDbVertex
100
AcDb2dVertex
 10
-2401.6270141601562
 20
-939.560546875
 30
0.0
 70
0
  0
VERTEX
  5
280
330
26A
100
AcDbEntity
  8
1
100
AcDbVertex
100
AcDb2dVertex
 10
-2429.0140991210938
 20
-941.612548828125
 30
0.0
 70
0
  0
VERTEX
  5
281
330
26A
100
AcDbEntity
  8
1
100
AcDbVertex
100
AcDb2dVertex
 10
-2468.8536376953125
 20
-943.298828125
 30
0.0
 70
0
  0
VERTEX
  5
282
330
26A
100
AcDbEntity
  8
1
100
AcDbVertex
100
AcDb2dVertex
 10
-2498.8076782226562
 20
-943.072265625
 30
0.0
 70
0
  0
VERTEX
  5
283
330
26A
100
AcDbEntity
  8
1
100
AcDbVertex
100
AcDb2dVertex
 10
-2501.7796630859375
 20
-942.564697265625
 30
0.0
 70
0
  0
VERTEX
  5
284
330
26A
100
AcDbEntity
  8
1
100
AcDbVertex
100
AcDb2dVertex
 10
-2503.4937744140625
 20
-941.4931640625
 30
0.0
 70
0
  0
VERTEX
  5
285
330
26A
100
AcDbEntity
  8
1
100
AcDbVertex
100
AcDb2dVertex
 10
-2504.7801513671875
 20
-939.9345703125
 30
0.0
 70
0
  0
VERTEX
  5
286
330
26A
100
AcDbEntity
  8
1
100
AcDbVertex
100
AcDb2dVertex
 10
-2505.6115112304688
 20
-937.22705078125
 30
0.0
 70
0
  0
VERTEX
  5
287
330
26A
100
AcDbEntity
  8
1
100
AcDbVertex
100
AcDb2dVertex
 10
-2504.5523681640625
 20
-931.882568359375
 30
0.0
 70
0
  0
VERTEX
  5
288
330
26A
100
AcDbEntity
  8
1
100
AcDbVertex
100
AcDb2dVertex
 10
-2260.7981567382812
 20
3.112060546875
 30
0.0
 70
0
  0
VERTEX
  5
289
330
26A
100
AcDbEntity
  8
1
100
AcDbVertex
100
AcDb2dVertex
 10
-2259.1500854492188
 20
6.042724609375
 30
0.0
 70
0
  0
VERTEX
  5
28A
330
26A
100
AcDbEntity
  8
1
100
AcDbVertex
100
AcDb2dVertex
 10
-2257.7978515625
 20
7.072265625
 30
0.0
 70
0
  0
VERTEX
  5
28B
330
26A
100
AcDbEntity
  8
1
100
AcDbVertex
100
AcDb2dVertex
 10
-2254.6376342773438
 20
7.881103515625
 30
0.0
 70
0
  0
VERTEX
  5
28C
330
26A
100
AcDbEntity
  8
1
100
AcDbVertex
100
AcDb2dVertex
 10
-2224.6758422851562
 20
0.2919921875
 30
0.0
 70
0
  0
VERTEX
  5
28D
330
26A
100
AcDbEntity
  8
1
100
AcDbVertex
100
AcDb2dVertex
 10
-2220.671630859375
 20
-0.372314453125
 30
0.0
 70
0
  0
VERTEX
  5
28E
330
26A
100
AcDbEntity
  8
1
100
AcDbVertex
100
AcDb2dVertex
 10
-2216.6151733398438
 20
-0.24951171875
 30
0.0
 70
0
  0
VERTEX
  5
28F
330
26A
100
AcDbEntity
  8
1
100
AcDbVertex
100
AcDb2dVertex
 10
-2212.696533203125
 20
0.810546875
 30
0.0
 70
0
  0
VERTEX
  5
290
330
26A
100
AcDbEntity
  8
1
100
AcDbVertex
100
AcDb2dVertex
 10
-2209.0718383789062
 20
2.640625
 30
0.0
 70
0
  0
VERTEX
  5
291
330
26A
100
AcDbEntity
  8
1
100
AcDbVertex
100
AcDb2dVertex
 10
-2205.6360473632812
 20
5.531982421875
 30
0.0
 70
0
  0
VERTEX
  5
292
330
26A
100
AcDbEntity
  8
1
100
AcDbVertex
100
AcDb2dVertex
 10
-2203.00634765625
 20
9.182373046875
 30
0.0
 70
0
  0
VERTEX
  5
293
330
26A
100
AcDbEntity
  8
1
100
AcDbVertex
100
AcDb2dVertex
 10
-2199.7859497070312
 20
17.508544921875
 30
0.0
 70
0
  0
VERTEX
  5
294
330
26A
100
AcDbEntity
  8
1
100
AcDbVertex
100
AcDb2dVertex
 10
-2077.7454223632812
 20
375.654052734375
 30
0.0
 70
0
  0
VERTEX
  5
295
330
26A
100
AcDbEntity
  8
1
100
AcDbVertex
100
AcDb2dVertex
 10
-2076.9993286132812
 20
377.6015625
 30
0.0
 70
0
  0
VERTEX
  5
296
330
26A
100
AcDbEntity
  8
1
100
AcDbVertex
100
AcDb2dVertex
 10
-2075.7288818359375
 20
379.255615234375
 30
0.0
 70
0
  0
VERTEX
  5
297
330
26A
100
AcDbEntity
  8
1
100
AcDbVertex
100
AcDb2dVertex
 10
-2072.9791870117188
 20
380.744140625
 30
0.0
 70
0
  0
VERTEX
  5
298
330
26A
100
AcDbEntity
  8
1
100
AcDbVertex
100
AcDb2dVertex
 10
-1626.6155624389648
 20
403.0458984375
 30
0.0
 70
0
  0
VERTEX
  5
299
330
26A
100
AcDbEntity
  8
1
100
AcDbVertex
100
AcDb2dVertex
 10
-873.4312133789062
 20
455.15087890625
 30
0.0
 70
0
  0
VERTEX
  5
29A
330
26A
100
AcDbEntity
  8
1
100
AcDbVertex
100
AcDb2dVertex
 10
-852.0614624023438
 20
458.3369140625
 30
0.0
 70
0
  0
VERTEX
  5
29B
330
26A
100
AcDbEntity
  8
1
100
AcDbVertex
100
AcDb2dVertex
 10
-100.39324951171875
 20
583.900146484375
 30
0.0
 70
0
  0
VERTEX
  5
29C
330
26A
100
AcDbEntity
  8
1
100
AcDbVertex
100
AcDb2dVertex
 10
-78.75750732421875
 20
588.095947265625
 30
0.0
 70
0
  0
VERTEX
  5
29D
330
26A
100
AcDbEntity
  8
1
100
AcDbVertex
100
AcDb2dVertex
 10
760.1596069335938
 20
804.285400390625
 30
0.0
 70
0
  0
VERTEX
  5
29E
330
26A
100
AcDbEntity
  8
1
100
AcDbVertex
100
AcDb2dVertex
 10
782.0814819335938
 20
808.906982421875
 30
0.0
 70
0
  0
VERTEX
  5
29F
330
26A
100
AcDbEntity
  8
1
100
AcDbVertex
100
AcDb2dVertex
 10
1439.8993530273438
 20
939.306884765625
 30
0.0
 70
0
  0
VERTEX
  5
2A0
330
26A
100
AcDbEntity
  8
1
100
AcDbVertex
100
AcDb2dVertex
 10
1461.7418823242188
 20
943.328369140625
 30
0.0
 70
0
  0
VERTEX
  5
2A1
330
26A
100
AcDbEntity
  8
1
100
AcDbVertex
100
AcDb2dVertex
 10
1481.4103393554688
 20
939.550048828125
 30
0.0
 70
0
  0
VERTEX
  5
2A2
330
26A
100
AcDbEntity
  8
1
100
AcDbVertex
100
AcDb2dVertex
 10
2087.1469116210938
 20
808.671630859375
 30
0.0
 70
0
  0
VERTEX
  5
2A3
330
26A
100
AcDbEntity
  8
1
100
AcDbVertex
100
AcDb2dVertex
 10
2498.8168334960938
 20
694.731201171875
 30
0.0
 70
0
  0
VERTEX
  5
2A4
330
26A
100
AcDbEntity
  8
1
100
AcDbVertex
100
AcDb2dVertex
 10
2502.4586791992188
 20
693.527099609375
 30
0.0
 70
0
  0
VERTEX
  5
2A5
330
26A
100
AcDbEntity
  8
1
100
AcDbVertex
100
AcDb2dVertex
 10
2503.9774780273438
 20
692.318115234375
 30
0.0
 70
0
  0
VERTEX
  5
2A6
330
26A
100
AcDbEntity
  8
1
100
AcDbVertex
100
AcDb2dVertex
 10
2505.0499877929688
 20
690.697021484375
 30
0.0
 70
0
  0
VERTEX
  5
2A7
330
26A
100
AcDbEntity
  8
1
100
AcDbVertex
100
AcDb2dVertex
 10
2505.5868530273438
 20
688.772216796875
 30
0.0
 70
0
  0
VERTEX
  5
2A8
330
26A
100
AcDbEntity
  8
1
100
AcDbVertex
100
AcDb2dVertex
 10
2505.4733276367188
 20
686.751220703125
 30
0.0
 70
0
  0
VERTEX
  5
2A9
330
26A
100
AcDbEntity
  8
1
100
AcDbVertex
100
AcDb2dVertex
 10
2429.7338256835938
 20
380.4482421875
 30
0.0
 70
0
  0
VERTEX
  5
2AA
330
26A
100
AcDbEntity
  8
1
100
AcDbVertex
100
AcDb2dVertex
 10
2428.6688842773438
 20
377.259521484375
 30
0.0
 70
0
  0
VERTEX
  5
2AB
330
26A
100
AcDbEntity
  8
1
100
AcDbVertex
100
AcDb2dVertex
 10
2427.9152221679688
 20
376.205078125
 30
0.0
 70
0
  0
VERTEX
  5
2AC
330
26A
100
AcDbEntity
  8
1
100
AcDbVertex
100
AcDb2dVertex
 10
2424.7819213867188
 20
374.2978515625
 30
0.0
 70
0
  0
VERTEX
  5
2AD
330
26A
100
AcDbEntity
  8
1
100
AcDbVertex
100
AcDb2dVertex
 10
2401.5646362304688
 20
365.284912109375
 30
0.0
 70
0
  0
VERTEX
  5
2AE
330
26A
100
AcDbEntity
  8
1
100
AcDbVertex
100
AcDb2dVertex
 10
2365.0604858398438
 20
351.9638671875
 30
0.0
 70
0
  0
VERTEX
  5
2AF
330
26A
100
AcDbEntity
  8
1
100
AcDbVertex
100
AcDb2dVertex
 10
2297.2521362304688
 20
328.43896484375
 30
0.0
 70
0
  0
VERTEX
  5
2B0
330
26A
100
AcDbEntity
  8
1
100
AcDbVertex
100
AcDb2dVertex
 10
2149.0907592773438
 20
279.105712890625
 30
0.0
 70
0
  0
VERTEX
  5
2B1
330
26A
100
AcDbEntity
  8
1
100
AcDbVertex
100
AcDb2dVertex
 10
1981.6591186523438
 20
222.352783203125
 30
0.0
 70
0
  0
VERTEX
  5
2B2
330
26A
100
AcDbEntity
  8
1
100
AcDbVertex
100
AcDb2dVertex
 10
1845.9767456054688
 20
177.008056640625
 30
0.0
 70
0
  0
VERTEX
  5
2B3
330
26A
100
AcDbEntity
  8
1
100
AcDbVertex
100
AcDb2dVertex
 10
1732.9642944335938
 20
140.056884765625
 30
0.0
 70
0
  0
VERTEX
  5
2B4
330
26A
100
AcDbEntity
  8
1
100
AcDbVertex
100
AcDb2dVertex
 10
1620.1608276367188
 20
103.9033203125
 30
0.0
 70
0
  0
VERTEX
  5
2B5
330
26A
100
AcDbEntity
  8
1
100
AcDbVertex
100
AcDb2dVertex
 10
1507.5626831054688
 20
68.52490234375
 30
0.0
 70
0
  0
VERTEX
  5
2B6
330
26A
100
AcDbEntity
  8
1
100
AcDbVertex
100
AcDb2dVertex
 10
1395.1674194335938
 20
33.91650390625
 30
0.0
 70
0
  0
VERTEX
  5
2B7
330
26A
100
AcDbEntity
  8
1
100
AcDbVertex
100
AcDb2dVertex
 10
1215.7731323242188
 20
-19.795654296875
 30
0.0
 70
0
  0
VERTEX
  5
2B8
330
26A
100
AcDbEntity
  8
1
100
AcDbVertex
100
AcDb2dVertex
 10
500.93487548828125
 20
-225.9794921875
 30
0.0
 70
0
  0
VERTEX
  5
2B9
330
26A
100
AcDbEntity
  8
1
100
AcDbVertex
100
AcDb2dVertex
 10
-348.40142822265625
 20
-476.134033203125
 30
0.0
 70
0
  0
VERTEX
  5
2BA
330
26A
100
AcDbEntity
  8
1
100
AcDbVertex
100
AcDb2dVertex
 10
-616.1792602539062
 20
-552.279052734375
 30
0.0
 70
0
  0
SEQEND
  5
26E
330
26A
100
AcDbEntity
  8
1
  0
POLYLINE
  5
2BB
330
26A
100
AcDbEntity
  8
8
100
AcDb2dPolyline
 66
1
 10
0.0
 20
0.0
 30
0.0
 70
0
  0
VERTEX
  5
2BD
330
26A
100
AcDbEntity
  8
8
100
AcDbVertex
100
AcDb2dVertex
 10
-2517.166154455457
 20
-955.4572827168063
 30
0.0
 70
0
  0
VERTEX
  5
2BE
330
26A
100
AcDbEntity
  8
8
100
AcDbVertex
100
AcDb2dVertex
 10
-2511.524510389423
 20
-933.8467588493854
 30
0.0
 70
0
  0
VERTEX
  5
2BF
330
26A
100
AcDbEntity
  8
8
100
AcDbVertex
100
AcDb2dVertex
 10
-2510.0915724893393
 20
-930.3593699898747
 30
0.0
 70
0
  0
VERTEX
  5
2C0
330
26A
100
AcDbEntity
  8
8
100
AcDbVertex
100
AcDb2dVertex
 10
-2507.6839762447685
 20
-927.4567094660592
 30
0.0
 70
0
  0
VERTEX
  5
2C1
330
26A
100
AcDbEntity
  8
8
100
AcDbVertex
100
AcDb2dVertex
 10
-2504.389909296894
 20
-925.3465859499656
 30
0.0
 70
0
  0
VERTEX
  5
2C2
330
26A
100
AcDbEntity
  8
8
100
AcDbVertex
100
AcDb2dVertex
 10
-2502.3856390037117
 20
-924.6647519780299
 30
0.0
 70
0
  0
VERTEX
  5
2C3
330
26A
100
AcDbEntity
  8
8
100
AcDbVertex
100
AcDb2dVertex
 10
-2500.294957004332
 20
-924.3306980241659
 30
0.0
 70
0
  0
VERTEX
  5
2C4
330
26A
100
AcDbEntity
  8
8
100
AcDbVertex
100
AcDb2dVertex
 10
-2465.7272174930586
 20
-924.4817773312889
 30
0.0
 70
0
  0
VERTEX
  5
2C5
330
26A
100
AcDbEntity
  8
8
100
AcDbVertex
100
AcDb2dVertex
 10
-2443.8893579619225
 20
-923.6770370176637
 30
0.0
 70
0
  0
VERTEX
  5
2C6
330
26A
100
AcDbEntity
  8
8
100
AcDbVertex
100
AcDb2dVertex
 10
-2403.0082290584824
 20
-920.860191511928
 30
0.0
 70
0
  0
VERTEX
  5
2C7
330
26A
100
AcDbEntity
  8
8
100
AcDbVertex
100
AcDb2dVertex
 10
-2365.235873856381
 20
-917.1596540498367
 30
0.0
 70
0
  0
VERTEX
  5
2C8
330
26A
100
AcDbEntity
  8
8
100
AcDbVertex
100
AcDb2dVertex
 10
-2233.2595545622453
 20
-901.6847587332527
 30
0.0
 70
0
  0
VERTEX
  5
2C9
330
26A
100
AcDbEntity
  8
8
100
AcDbVertex
100
AcDb2dVertex
 10
-2169.1458651870958
 20
-892.7553909470626
 30
0.0
 70
0
  0
VERTEX
  5
2CA
330
26A
100
AcDbEntity
  8
8
100
AcDbVertex
100
AcDb2dVertex
 10
-2104.728371027731
 20
-882.6690425913289
 30
0.0
 70
0
  0
VERTEX
  5
2CB
330
26A
100
AcDbEntity
  8
8
100
AcDbVertex
100
AcDb2dVertex
 10
-2061.644129854266
 20
-875.414620334594
 30
0.0
 70
0
  0
VERTEX
  5
2CC
330
26A
100
AcDbEntity
  8
8
100
AcDbVertex
100
AcDb2dVertex
 10
-1996.8409237618664
 20
-863.8615469784013
 30
0.0
 70
0
  0
VERTEX
  5
2CD
330
26A
100
AcDbEntity
  8
8
100
AcDbVertex
100
AcDb2dVertex
 10
-1866.8849656838881
 20
-839.5140392691087
 30
0.0
 70
0
  0
VERTEX
  5
2CE
330
26A
100
AcDbEntity
  8
8
100
AcDbVertex
100
AcDb2dVertex
 10
-1801.7584403883302
 20
-826.8129000076974
 30
0.0
 70
0
  0
VERTEX
  5
2CF
330
26A
100
AcDbEntity
  8
8
100
AcDbVertex
100
AcDb2dVertex
 10
-1758.1822712825447
 20
-817.7405757350339
 30
0.0
 70
0
  0
VERTEX
  5
2D0
330
26A
100
AcDbEntity
  8
8
100
AcDbVertex
100
AcDb2dVertex
 10
-1736.4992227007433
 20
-813.6166373763417
 30
0.0
 70
0
  0
VERTEX
  5
2D1
330
26A
100
AcDbEntity
  8
8
100
AcDbVertex
100
AcDb2dVertex
 10
-1649.3067839156365
 20
-795.3526041339173
 30
0.0
 70
0
  0
VERTEX
  5
2D2
330
26A
100
AcDbEntity
  8
8
100
AcDbVertex
100
AcDb2dVertex
 10
-1496.2982693861893
 20
-761.8535244972854
 30
0.0
 70
0
  0
VERTEX
  5
2D3
330
26A
100
AcDbEntity
  8
8
100
AcDbVertex
100
AcDb2dVertex
 10
-1342.8480306989532
 20
-726.7767285069986
 30
0.0
 70
0
  0
VERTEX
  5
2D4
330
26A
100
AcDbEntity
  8
8
100
AcDbVertex
100
AcDb2dVertex
 10
-1189.0349228668713
 20
-690.4536576456744
 30
0.0
 70
0
  0
VERTEX
  5
2D5
330
26A
100
AcDbEntity
  8
8
100
AcDbVertex
100
AcDb2dVertex
 10
-1167.0302773951812
 20
-685.1554333323111
 30
0.0
 70
0
  0
VERTEX
  5
2D6
330
26A
100
AcDbEntity
  8
8
100
AcDbVertex
100
AcDb2dVertex
 10
-1078.2519653312822
 20
-661.2926490202863
 30
0.0
 70
0
  0
VERTEX
  5
2D7
330
26A
100
AcDbEntity
  8
8
100
AcDbVertex
100
AcDb2dVertex
 10
-855.8115702444741
 20
-599.9880889269157
 30
0.0
 70
0
  0
VERTEX
  5
2D8
330
26A
100
AcDbEntity
  8
8
100
AcDbVertex
100
AcDb2dVertex
 10
-588.3900601920988
 20
-524.914505907062
 30
0.0
 70
0
  0
VERTEX
  5
2D9
330
26A
100
AcDbEntity
  8
8
100
AcDbVertex
100
AcDb2dVertex
 10
-365.2203233471164
 20
-461.4237109297119
 30
0.0
 70
0
  0
VERTEX
  5
2DA
330
26A
100
AcDbEntity
  8
8
100
AcDbVertex
100
AcDb2dVertex
 10
-141.82546678096924
 20
-395.9205752331145
 30
0.0
 70
0
  0
VERTEX
  5
2DB
330
26A
100
AcDbEntity
  8
8
100
AcDbVertex
100
AcDb2dVertex
 10
-119.65140386251096
 20
-390.0228880974755
 30
0.0
 70
0
  0
VERTEX
  5
2DC
330
26A
100
AcDbEntity
  8
8
100
AcDbVertex
100
AcDb2dVertex
 10
-115.43973516232404
 20
-390.8757851919563
 30
0.0
 70
0
  0
VERTEX
  5
2DD
330
26A
100
AcDbEntity
  8
8
100
AcDbVertex
100
AcDb2dVertex
 10
-113.50818586345895
 20
-391.835125684172
 30
0.0
 70
0
  0
VERTEX
  5
2DE
330
26A
100
AcDbEntity
  8
8
100
AcDbVertex
100
AcDb2dVertex
 10
-111.7723418724513
 20
-393.1204643965448
 30
0.0
 70
0
  0
VERTEX
  5
2DF
330
26A
100
AcDbEntity
  8
8
100
AcDbVertex
100
AcDb2dVertex
 10
-109.80664381081237
 20
-395.311294367129
 30
0.0
 70
0
  0
VERTEX
  5
2E0
330
26A
100
AcDbEntity
  8
8
100
AcDbVertex
100
AcDb2dVertex
 10
-108.3981510784979
 20
-397.88330015130805
 30
0.0
 70
0
  0
VERTEX
  5
2E1
330
26A
100
AcDbEntity
  8
8
100
AcDbVertex
100
AcDb2dVertex
 10
-107.63067231964487
 20
-400.71653210746445
 30
0.0
 70
0
  0
VERTEX
  5
2E2
330
26A
100
AcDbEntity
  8
8
100
AcDbVertex
100
AcDb2dVertex
 10
-107.54418274331579
 20
-403.6465060751916
 30
0.0
 70
0
  0
VERTEX
  5
2E3
330
26A
100
AcDbEntity
  8
8
100
AcDbVertex
100
AcDb2dVertex
 10
-110.68968826423043
 20
-416.3264855657144
 30
0.0
 70
0
  0
SEQEND
  5
2BC
330
26A
100
AcDbEntity
  8
8
  0
POLYLINE
  5
2E4
330
26A
100
AcDbEntity
  8
8
100
AcDb2dPolyline
 66
1
 10
0.0
 20
0.0
 30
0.0
 70
0
  0
VERTEX
  5
2E6
330
26A
100
AcDbEntity
  8
8
100
AcDbVertex
100
AcDb2dVertex
 10
1199.630214828167
 20
-39.55722594413828
 30
0.0
 70
0
  0
VERTEX
  5
2E7
330
26A
100
AcDbEntity
  8
8
100
AcDbVertex
100
AcDb2dVertex
 10
1207.1194028556056
 20
-10.504032285404264
 30
0.0
 70
0
  0
VERTEX
  5
2E8
330
26A
100
AcDbEntity
  8
8
100
AcDbVertex
100
AcDb2dVertex
 10
1208.8203205646382
 20
-5.8462302301691125
 30
0.0
 70
0
  0
VERTEX
  5
2E9
330
26A
100
AcDbEntity
  8
8
100
AcDbVertex
100
AcDb2dVertex
 10
1212.1272062127155
 20
-2.1624835090979104
 30
0.0
 70
0
  0
VERTEX
  5
2EA
330
26A
100
AcDbEntity
  8
8
100
AcDbVertex
100
AcDb2dVertex
 10
1216.5290696146371
 20
-0.06040297905428815
 30
0.0
 70
0
  0
VERTEX
  5
2EB
330
26A
100
AcDbEntity
  8
8
100
AcDbVertex
100
AcDb2dVertex
 10
1355.7289847823104
 20
41.534133990135615
 30
0.0
 70
0
  0
VERTEX
  5
2EC
330
26A
100
AcDbEntity
  8
8
100
AcDbVertex
100
AcDb2dVertex
 10
1490.5434978506537
 20
82.87311971640702
 30
0.0
 70
0
  0
VERTEX
  5
2ED
330
26A
100
AcDbEntity
  8
8
100
AcDbVertex
100
AcDb2dVertex
 10
1625.644590880328
 20
125.32135210904698
 30
0.0
 70
0
  0
VERTEX
  5
2EE
330
26A
100
AcDbEntity
  8
8
100
AcDbVertex
100
AcDb2dVertex
 10
1761.030892881508
 20
168.8858383658344
 30
0.0
 70
0
  0
VERTEX
  5
2EF
330
26A
100
AcDbEntity
  8
8
100
AcDbVertex
100
AcDb2dVertex
 10
1896.7224070254206
 20
213.61817393536057
 30
0.0
 70
0
  0
VERTEX
  5
2F0
330
26A
100
AcDbEntity
  8
8
100
AcDbVertex
100
AcDb2dVertex
 10
2145.0288179437975
 20
297.53209546114704
 30
0.0
 70
0
  0
VERTEX
  5
2F1
330
26A
100
AcDbEntity
  8
8
100
AcDbVertex
100
AcDb2dVertex
 10
2290.818265529815
 20
345.99800842294144
 30
0.0
 70
0
  0
VERTEX
  5
2F2
330
26A
100
AcDbEntity
  8
8
100
AcDbVertex
100
AcDb2dVertex
 10
2371.859276607932
 20
374.34764572633503
 30
0.0
 70
0
  0
VERTEX
  5
2F3
330
26A
100
AcDbEntity
  8
8
100
AcDbVertex
100
AcDb2dVertex
 10
2421.5255109873365
 20
392.8434465021155
 30
0.0
 70
0
  0
VERTEX
  5
2F4
330
26A
100
AcDbEntity
  8
8
100
AcDbVertex
100
AcDb2dVertex
 10
2424.435199742182
 20
392.9214261221573
 30
0.0
 70
0
  0
VERTEX
  5
2F5
330
26A
100
AcDbEntity
  8
8
100
AcDbVertex
100
AcDb2dVertex
 10
2427.2870518889936
 20
392.33841935746887
 30
0.0
 70
0
  0
VERTEX
  5
2F6
330
26A
100
AcDbEntity
  8
8
100
AcDbVertex
100
AcDb2dVertex
 10
2431.4394648951993
 20
389.9406381535009
 30
0.0
 70
0
  0
VERTEX
  5
2F7
330
26A
100
AcDbEntity
  8
8
100
AcDbVertex
100
AcDb2dVertex
 10
2433.7871373974776
 20
387.2543541166938
 30
0.0
 70
0
  0
VERTEX
  5
2F8
330
26A
100
AcDbEntity
  8
8
100
AcDbVertex
100
AcDb2dVertex
 10
2435.0979421502448
 20
384.58044221074033
 30
0.0
 70
0
  0
VERTEX
  5
2F9
330
26A
100
AcDbEntity
  8
8
100
AcDbVertex
100
AcDb2dVertex
 10
2435.7287811573187
 20
381.7690955587186
 30
0.0
 70
0
  0
VERTEX
  5
2FA
330
26A
100
AcDbEntity
  8
8
100
AcDbVertex
100
AcDb2dVertex
 10
2435.683008263269
 20
378.8065749451407
 30
0.0
 70
0
  0
SEQEND
  5
2E5
330
26A
100
AcDbEntity
  8
8
  0
POLYLINE
  5
2FB
330
26A
100
AcDbEntity
  8
8
100
AcDb2dPolyline
 66
1
 10
0.0
 20
0.0
 30
0.0
 70
0
  0
VERTEX
  5
2FD
330
26A
100
AcDbEntity
  8
8
100
AcDbVertex
100
AcDb2dVertex
 10
1223.2649010125638
 20
-0.233626669901696
 30
0.0
 70
0
  0
VERTEX
  5
2FE
330
26A
100
AcDbEntity
  8
8
100
AcDbVertex
100
AcDb2dVertex
 10
1227.4518092946164
 20
-2.4552216150832464
 30
0.0
 70
0
  0
VERTEX
  5
2FF
330
26A
100
AcDbEntity
  8
8
100
AcDbVertex
100
AcDb2dVertex
 10
1229.149207506678
 20
-4.135406569383576
 30
0.0
 70
0
  0
VERTEX
  5
300
330
26A
100
AcDbEntity
  8
8
100
AcDbVertex
100
AcDb2dVertex
 10
1230.4043117266465
 20
-5.889590632395539
 30
0.0
 70
0
  0
VERTEX
  5
301
330
26A
100
AcDbEntity
  8
8
100
AcDbVertex
100
AcDb2dVertex
 10
1231.8969221621392
 20
-9.950904317759523
 30
0.0
 70
0
  0
VERTEX
  5
302
330
26A
100
AcDbEntity
  8
8
100
AcDbVertex
100
AcDb2dVertex
 10
1232.0881613338547
 20
-12.141826784270961
 30
0.0
 70
0
  0
VERTEX
  5
303
330
26A
100
AcDbEntity
  8
8
100
AcDbVertex
100
AcDb2dVertex
 10
1227.6414644070655
 20
-31.09578390420029
 30
0.0
 70
0
  0
SEQEND
  5
2FC
330
26A
100
AcDbEntity
  8
8
  0
POLYLINE
  5
304
330
26A
100
AcDbEntity
  8
8
100
AcDb2dPolyline
 66
1
 10
0.0
 20
0.0
 30
0.0
 70
0
  0
VERTEX
  5
306
330
26A
100
AcDbEntity
  8
8
100
AcDbVertex
100
AcDb2dVertex
 10
-138.7595633146086
 20
-424.65183509272174
 30
0.0
 70
0
  0
VERTEX
  5
307
330
26A
100
AcDbEntity
  8
8
100
AcDbVertex
100
AcDb2dVertex
 10
-131.2534992870701
 20
-397.10342508410076
 30
0.0
 70
0
  0
VERTEX
  5
308
330
26A
100
AcDbEntity
  8
8
100
AcDbVertex
100
AcDb2dVertex
 10
-128.82547567156075
 20
-393.69054644688094
 30
0.0
 70
0
  0
VERTEX
  5
309
330
26A
100
AcDbEntity
  8
8
100
AcDbVertex
100
AcDb2dVertex
 10
-127.2127261454923
 20
-392.3318113403184
 30
0.0
 70
0
  0
VERTEX
  5
30A
330
26A
100
AcDbEntity
  8
8
100
AcDbVertex
100
AcDb2dVertex
 10
-123.46539877982673
 20
-390.5227088399729
 30
0.0
 70
0
  0
VERTEX
  5
30B
330
26A
100
AcDbEntity
  8
8
100
AcDbVertex
100
AcDb2dVertex
 10
506.4041468118626
 20
-204.81524699464853
 30
0.0
 70
0
  0
VERTEX
  5
30C
330
26A
100
AcDbEntity
  8
8
100
AcDbVertex
100
AcDb2dVertex
 10
1209.7903906004822
 20
-1.9841225590603244
 30
0.0
 70
0
  0
VERTEX
  5
30D
330
26A
100
AcDbEntity
  8
8
100
AcDbVertex
100
AcDb2dVertex
 10
1218.0616983004566
 20
0.21656419245346115
 30
0.0
 70
0
  0
VERTEX
  5
30E
330
26A
100
AcDbEntity
  8
8
100
AcDbVertex
100
AcDb2dVertex
 10
1220.9304582803047
 20
0.2386049755859858
 30
0.0
 70
0
  0
VERTEX
  5
30F
330
26A
100
AcDbEntity
  8
8
100
AcDbVertex
100
AcDb2dVertex
 10
1223.2649010125638
 20
-0.233626669901696
 30
0.0
 70
0
  0
SEQEND
  5
305
330
26A
100
AcDbEntity
  8
8
  0
POLYLINE
  5
310
330
26A
100
AcDbEntity
  8
8
100
AcDb2dPolyline
 66
1
 10
0.0
 20
0.0
 30
0.0
 70
0
  0
VERTEX
  5
312
330
26A
100
AcDbEntity
  8
8
100
AcDbVertex
100
AcDb2dVertex
 10
2356.348652386642
 20
344.7592973817236
 30
0.0
 70
0
  0
VERTEX
  5
313
330
26A
100
AcDbEntity
  8
8
100
AcDbVertex
100
AcDb2dVertex
 10
2358.5386917760484
 20
346.3906958061739
 30
0.0
 70
0
  0
VERTEX
  5
314
330
26A
100
AcDbEntity
  8
8
100
AcDbVertex
100
AcDb2dVertex
 10
2361.185591824081
 20
346.03275966925594
 30
0.0
 70
0
  0
SEQEND
  5
311
330
26A
100
AcDbEntity
  8
8
  0
POLYLINE
  5
315
330
26A
100
AcDbEntity
  8
8
100
AcDb2dPolyline
 66
1
 10
0.0
 20
0.0
 30
0.0
 70
0
  0
VERTEX
  5
317
330
26A
100
AcDbEntity
  8
8
100
AcDbVertex
100
AcDb2dVertex
 10
2335.578230252229
 20
336.01607218695017
 30
0.0
 70
0
  0
VERTEX
  5
318
330
26A
100
AcDbEntity
  8
8
100
AcDbVertex
100
AcDb2dVertex
 10
2334.6319163512603
 20
341.8886004877363
 30
0.0
 70
0
  0
VERTEX
  5
319
330
26A
100
AcDbEntity
  8
8
100
AcDbVertex
100
AcDb2dVertex
 10
2335.062990749578
 20
347.94253458411276
 30
0.0
 70
0
  0
VERTEX
  5
31A
330
26A
100
AcDbEntity
  8
8
100
AcDbVertex
100
AcDb2dVertex
 10
2335.772872022643
 20
350.8691891354424
 30
0.0
 70
0
  0
VERTEX
  5
31B
330
26A
100
AcDbEntity
  8
8
100
AcDbVertex
100
AcDb2dVertex
 10
2338.135739275414
 20
356.32337578804845
 30
0.0
 70
0
  0
VERTEX
  5
31C
330
26A
100
AcDbEntity
  8
8
100
AcDbVertex
100
AcDb2dVertex
 10
2339.7617840404014
 20
358.79625450359345
 30
0.0
 70
0
  0
VERTEX
  5
31D
330
26A
100
AcDbEntity
  8
8
100
AcDbVertex
100
AcDb2dVertex
 10
2343.791477875426
 20
363.05925886311206
 30
0.0
 70
0
  0
VERTEX
  5
31E
330
26A
100
AcDbEntity
  8
8
100
AcDbVertex
100
AcDb2dVertex
 10
2346.139849227397
 20
364.788027603141
 30
0.0
 70
0
  0
VERTEX
  5
31F
330
26A
100
AcDbEntity
  8
8
100
AcDbVertex
100
AcDb2dVertex
 10
2351.3561344898826
 20
367.36347309565735
 30
0.0
 70
0
  0
SEQEND
  5
316
330
26A
100
AcDbEntity
  8
8
  0
POLYLINE
  5
320
330
26A
100
AcDbEntity
  8
8
100
AcDb2dPolyline
 66
1
 10
0.0
 20
0.0
 30
0.0
 70
0
  0
VERTEX
  5
322
330
26A
100
AcDbEntity
  8
8
100
AcDbVertex
100
AcDb2dVertex
 10
2351.3561344898826
 20
367.36347309565735
 30
0.0
 70
0
  0
VERTEX
  5
323
330
26A
100
AcDbEntity
  8
8
100
AcDbVertex
100
AcDb2dVertex
 10
2426.5833384033754
 20
393.74935524738567
 30
0.0
 70
0
  0
SEQEND
  5
321
330
26A
100
AcDbEntity
  8
8
  0
POLYLINE
  5
324
330
26A
100
AcDbEntity
  8
8
100
AcDb2dPolyline
 66
1
 10
0.0
 20
0.0
 30
0.0
 70
0
  0
VERTEX
  5
326
330
26A
100
AcDbEntity
  8
8
100
AcDbVertex
100
AcDb2dVertex
 10
-894.8879841253198
 20
447.374596469695
 30
0.0
 70
0
  0
VERTEX
  5
327
330
26A
100
AcDbEntity
  8
8
100
AcDbVertex
100
AcDb2dVertex
 10
-1256.5936000564723
 20
-714.2209397240545
 30
0.0
 70
0
  0
SEQEND
  5
325
330
26A
100
AcDbEntity
  8
8
  0
POLYLINE
  5
328
330
26A
100
AcDbEntity
  8
8
100
AcDb2dPolyline
 66
1
 10
0.0
 20
0.0
 30
0.0
 70
0
  0
VERTEX
  5
32A
330
26A
100
AcDbEntity
  8
8
100
AcDbVertex
100
AcDb2dVertex
 10
750.0019394166288
 20
795.211672800906
 30
0.0
 70
0
  0
VERTEX
  5
32B
330
26A
100
AcDbEntity
  8
8
100
AcDbVertex
100
AcDb2dVertex
 10
437.18836175218075
 20
-214.236046375946
 30
0.0
 70
0
  0
SEQEND
  5
329
330
26A
100
AcDbEntity
  8
8
  0
POLYLINE
  5
32C
330
26A
100
AcDbEntity
  8
8
100
AcDb2dPolyline
 66
1
 10
0.0
 20
0.0
 30
0.0
 70
0
  0
VERTEX
  5
32E
330
26A
100
AcDbEntity
  8
8
100
AcDbVertex
100
AcDb2dVertex
 10
1761.169432336847
 20
872.6286247502076
 30
0.0
 70
0
  0
VERTEX
  5
32F
330
26A
100
AcDbEntity
  8
8
100
AcDbVertex
100
AcDb2dVertex
 10
1487.6860380916573
 20
489.7113326561298
 30
0.0
 70
0
  0
VERTEX
  5
330
330
26A
100
AcDbEntity
  8
8
100
AcDbVertex
100
AcDb2dVertex
 10
1128.986928782142
 20
-9.655101159726655
 30
0.0
 70
0
  0
SEQEND
  5
32D
330
26A
100
AcDbEntity
  8
8
  0
POLYLINE
  5
331
330
26A
100
AcDbEntity
  8
8
100
AcDb2dPolyline
 66
1
 10
0.0
 20
0.0
 30
0.0
 70
0
  0
VERTEX
  5
333
330
26A
100
AcDbEntity
  8
8
100
AcDbVertex
100
AcDb2dVertex
 10
1128.986928782142
 20
-9.655101159726655
 30
0.0
 70
0
  0
VERTEX
  5
334
330
26A
100
AcDbEntity
  8
8
100
AcDbVertex
100
AcDb2dVertex
 10
1139.1194465033072
 20
-17.32578091010555
 30
0.0
 70
0
  0
SEQEND
  5
332
330
26A
100
AcDbEntity
  8
8
  0
POLYLINE
  5
335
330
26A
100
AcDbEntity
  8
8
100
AcDb2dPolyline
 66
1
 10
0.0
 20
0.0
 30
0.0
 70
0
  0
VERTEX
  5
337
330
26A
100
AcDbEntity
  8
8
100
AcDbVertex
100
AcDb2dVertex
 10
1139.1194465033072
 20
-17.32578091010555
 30
0.0
 70
0
  0
VERTEX
  5
338
330
26A
100
AcDbEntity
  8
8
100
AcDbVertex
100
AcDb2dVertex
 10
1149.2482724215133
 20
-24.96328777766439
 30
0.0
 70
0
  0
SEQEND
  5
336
330
26A
100
AcDbEntity
  8
8
  0
POLYLINE
  5
339
330
26A
100
AcDbEntity
  8
8
100
AcDb2dPolyline
 66
1
 10
0.0
 20
0.0
 30
0.0
 70
0
  0
VERTEX
  5
33B
330
26A
100
AcDbEntity
  8
8
100
AcDbVertex
100
AcDb2dVertex
 10
1149.2482724215133
 20
-24.96328777766439
 30
0.0
 70
0
  0
VERTEX
  5
33C
330
26A
100
AcDbEntity
  8
8
100
AcDbVertex
100
AcDb2dVertex
 10
1500.6855107848592
 20
464.24355335403607
 30
0.0
 70
0
  0
VERTEX
  5
33D
330
26A
100
AcDbEntity
  8
8
100
AcDbVertex
100
AcDb2dVertex
 10
1788.1058000200205
 20
866.8137838271896
 30
0.0
 70
0
  0
SEQEND
  5
33A
330
26A
100
AcDbEntity
  8
8
  0
ENDBLK
  5
26C
330
26A
100
AcDbEntity
  8
0
100
AcDbBlockEnd
  0
BLOCK
  5
341
330
340
100
AcDbEntity
  8
0
100
AcDbBlockBegin
  2
TSF
 70
0
 10
0.0
 20
0.0
 30
0.0
  3
TSF
  1

  0
POLYLINE
  5
343
330
340
100
AcDbEntity
  8
1
100
AcDb2dPolyline
 66
1
 10
0.0
 20
0.0
 30
0.0
 70
0
  0
VERTEX
  5
345
330
340
100
AcDbEntity
  8
1
100
AcDbVertex
100
AcDb2dVertex
 10
2548.0716552734375
 20
106.50238037109375
 30
0.0
 70
0
  0
VERTEX
  5
346
330
340
100
AcDbEntity
  8
1
100
AcDbVertex
100
AcDb2dVertex
 10
2550.4852294921875
 20
104.77752685546875
 30
0.0
 70
0
  0
VERTEX
  5
347
330
340
100
AcDbEntity
  8
1
100
AcDbVertex
100
AcDb2dVertex
 10
2551.4903564453125
 20
103.20733642578125
 30
0.0
 70
0
  0
VERTEX
  5
348
330
340
100
AcDbEntity
  8
1
100
AcDbVertex
100
AcDb2dVertex
 10
2568.3902587890625
 20
71.09588623046875
 30
0.0
 70
0
  0
VERTEX
  5
349
330
340
100
AcDbEntity
  8
1
100
AcDbVertex
100
AcDb2dVertex
 10
2568.7596435546875
 20
68.03692626953125
 30
0.0
 70
0
  0
VERTEX
  5
34A
330
340
100
AcDbEntity
  8
1
100
AcDbVertex
100
AcDb2dVertex
 10
2568.3599853515625
 20
66.55621337890625
 30
0.0
 70
0
  0
VERTEX
  5
34B
330
340
100
AcDbEntity
  8
1
100
AcDbVertex
100
AcDb2dVertex
 10
2566.9588623046875
 20
64.43157958984375
 30
0.0
 70
0
  0
VERTEX
  5
34C
330
340
100
AcDbEntity
  8
1
100
AcDbVertex
100
AcDb2dVertex
 10
2564.8253173828125
 20
63.04534912109375
 30
0.0
 70
0
  0
VERTEX
  5
34D
330
340
100
AcDbEntity
  8
1
100
AcDbVertex
100
AcDb2dVertex
 10
2107.0401611328125
 20
5.24078369140625
 30
0.0
 70
0
  0
VERTEX
  5
34E
330
340
100
AcDbEntity
  8
1
100
AcDbVertex
100
AcDb2dVertex
 10
1397.6512451171875
 20
-34.07574462890625
 30
0.0
 70
0
  0
VERTEX
  5
34F
330
340
100
AcDbEntity
  8
1
100
AcDbVertex
100
AcDb2dVertex
 10
672.8096923828125
 20
-44.91192626953125
 30
0.0
 70
0
  0
VERTEX
  5
350
330
340
100
AcDbEntity
  8
1
100
AcDbVertex
100
AcDb2dVertex
 10
-390.273681640625
 20
-53.19219970703125
 30
0.0
 70
0
  0
VERTEX
  5
351
330
340
100
AcDbEntity
  8
1
100
AcDbVertex
100
AcDb2dVertex
 10
-547.9539184570312
 20
-54.96417236328125
 30
0.0
 70
0
  0
VERTEX
  5
352
330
340
100
AcDbEntity
  8
1
100
AcDbVertex
100
AcDb2dVertex
 10
-682.6067504882812
 20
-57.36590576171875
 30
0.0
 70
0
  0
VERTEX
  5
353
330
340
100
AcDbEntity
  8
1
100
AcDbVertex
100
AcDb2dVertex
 10
-794.4190673828125
 20
-60.10675048828125
 30
0.0
 70
0
  0
VERTEX
  5
354
330
340
100
AcDbEntity
  8
1
100
AcDbVertex
100
AcDb2dVertex
 10
-905.8399658203125
 20
-63.57196044921875
 30
0.0
 70
0
  0
VERTEX
  5
355
330
340
100
AcDbEntity
  8
1
100
AcDbVertex
100
AcDb2dVertex
 10
-1016.77734375
 20
-67.92352294921875
 30
0.0
 70
0
  0
VERTEX
  5
356
330
340
100
AcDbEntity
  8
1
100
AcDbVertex
100
AcDb2dVertex
 10
-1103.5419006347656
 20
-75.05291748046875
 30
0.0
 70
0
  0
VERTEX
  5
357
330
340
100
AcDbEntity
  8
1
100
AcDbVertex
100
AcDb2dVertex
 10
-1190.024169921875
 20
-82.72637939453125
 30
0.0
 70
0
  0
VERTEX
  5
358
330
340
100
AcDbEntity
  8
1
100
AcDbVertex
100
AcDb2dVertex
 10
-1276.2244567871094
 20
-90.94012451171875
 30
0.0
 70
0
  0
VERTEX
  5
359
330
340
100
AcDbEntity
  8
1
100
AcDbVertex
100
AcDb2dVertex
 10
-1383.573486328125
 20
-101.96356201171875
 30
0.0
 70
0
  0
VERTEX
  5
35A
330
340
100
AcDbEntity
  8
1
100
AcDbVertex
100
AcDb2dVertex
 10
-1480.4056191444397
 20
-112.66998291015625
 30
0.0
 70
0
  0
VERTEX
  5
35B
330
340
100
AcDbEntity
  8
1
100
AcDbVertex
100
AcDb2dVertex
 10
-1575.6749725341797
 20
-123.91253662109375
 30
0.0
 70
0
  0
VERTEX
  5
35C
330
340
100
AcDbEntity
  8
1
100
AcDbVertex
100
AcDb2dVertex
 10
-1660.5858917236328
 20
-134.54254150390625
 30
0.0
 70
0
  0
VERTEX
  5
35D
330
340
100
AcDbEntity
  8
1
100
AcDbVertex
100
AcDb2dVertex
 10
-1766.3170776367188
 20
-148.58502197265625
 30
0.0
 70
0
  0
VERTEX
  5
35E
330
340
100
AcDbEntity
  8
1
100
AcDbVertex
100
AcDb2dVertex
 10
-1787.3507690429688
 20
-151.59796142578125
 30
0.0
 70
0
  0
VERTEX
  5
35F
330
340
100
AcDbEntity
  8
1
100
AcDbVertex
100
AcDb2dVertex
 10
-1870.3312683105469
 20
-165.91241455078125
 30
0.0
 70
0
  0
VERTEX
  5
360
330
340
100
AcDbEntity
  8
1
100
AcDbVertex
100
AcDb2dVertex
 10
-1952.8489074707031
 20
-180.79693603515625
 30
0.0
 70
0
  0
VERTEX
  5
361
330
340
100
AcDbEntity
  8
1
100
AcDbVertex
100
AcDb2dVertex
 10
-2034.43701171875
 20
-196.14678955078125
 30
0.0
 70
0
  0
VERTEX
  5
362
330
340
100
AcDbEntity
  8
1
100
AcDbVertex
100
AcDb2dVertex
 10
-2158.004638671875
 20
-220.60699462890625
 30
0.0
 70
0
  0
VERTEX
  5
363
330
340
100
AcDbEntity
  8
1
100
AcDbVertex
100
AcDb2dVertex
 10
-2313.4622802734375
 20
-253.28778076171875
 30
0.0
 70
0
  0
VERTEX
  5
364
330
340
100
AcDbEntity
  8
1
100
AcDbVertex
100
AcDb2dVertex
 10
-2316.4617919921875
 20
-252.41998291015625
 30
0.0
 70
0
  0
VERTEX
  5
365
330
340
100
AcDbEntity
  8
1
100
AcDbVertex
100
AcDb2dVertex
 10
-2318.0321655273438
 20
-251.10406494140625
 30
0.0
 70
0
  0
VERTEX
  5
366
330
340
100
AcDbEntity
  8
1
100
AcDbVertex
100
AcDb2dVertex
 10
-2319.1287231445312
 20
-249.37493896484375
 30
0.0
 70
0
  0
VERTEX
  5
367
330
340
100
AcDbEntity
  8
1
100
AcDbVertex
100
AcDb2dVertex
 10
-2500.1305541992188
 20
83.47149658203125
 30
0.0
 70
0
  0
VERTEX
  5
368
330
340
100
AcDbEntity
  8
1
100
AcDbVertex
100
AcDb2dVertex
 10
-2545.291015625
 20
168.84149169921875
 30
0.0
 70
0
  0
VERTEX
  5
369
330
340
100
AcDbEntity
  8
1
100
AcDbVertex
100
AcDb2dVertex
 10
-2567.2928466796875
 20
212.08990478515625
 30
0.0
 70
0
  0
VERTEX
  5
36A
330
340
100
AcDbEntity
  8
1
100
AcDbVertex
100
AcDb2dVertex
 10
-2568.391845703125
 20
214.39202880859375
 30
0.0
 70
0
  0
VERTEX
  5
36B
330
340
100
AcDbEntity
  8
1
100
AcDbVertex
100
AcDb2dVertex
 10
-2568.7601318359375
 20
216.91668701171875
 30
0.0
 70
0
  0
VERTEX
  5
36C
330
340
100
AcDbEntity
  8
1
100
AcDbVertex
100
AcDb2dVertex
 10
-2568.0777587890625
 20
219.40545654296875
 30
0.0
 70
0
  0
VERTEX
  5
36D
330
340
100
AcDbEntity
  8
1
100
AcDbVertex
100
AcDb2dVertex
 10
-2567.3695068359375
 20
220.49334716796875
 30
0.0
 70
0
  0
VERTEX
  5
36E
330
340
100
AcDbEntity
  8
1
100
AcDbVertex
100
AcDb2dVertex
 10
-2565.1903076171875
 20
222.20416259765625
 30
0.0
 70
0
  0
VERTEX
  5
36F
330
340
100
AcDbEntity
  8
1
100
AcDbVertex
100
AcDb2dVertex
 10
-2563.776611328125
 20
222.67681884765625
 30
0.0
 70
0
  0
VERTEX
  5
370
330
340
100
AcDbEntity
  8
1
100
AcDbVertex
100
AcDb2dVertex
 10
-2466.7542114257812
 20
228.23101806640625
 30
0.0
 70
0
  0
VERTEX
  5
371
330
340
100
AcDbEntity
  8
1
100
AcDbVertex
100
AcDb2dVertex
 10
-2356.0653686523438
 20
233.72430419921875
 30
0.0
 70
0
  0
VERTEX
  5
372
330
340
100
AcDbEntity
  8
1
100
AcDbVertex
100
AcDb2dVertex
 10
-2245.0233764648438
 20
238.52984619140625
 30
0.0
 70
0
  0
VERTEX
  5
373
330
340
100
AcDbEntity
  8
1
100
AcDbVertex
100
AcDb2dVertex
 10
-2133.6707153320312
 20
242.72967529296875
 30
0.0
 70
0
  0
VERTEX
  5
374
330
340
100
AcDbEntity
  8
1
100
AcDbVertex
100
AcDb2dVertex
 10
-1999.6563720703125
 20
247.10723876953125
 30
0.0
 70
0
  0
VERTEX
  5
375
330
340
100
AcDbEntity
  8
1
100
AcDbVertex
100
AcDb2dVertex
 10
-1796.8331298828125
 20
250.14691162109375
 30
0.0
 70
0
  0
VERTEX
  5
376
330
340
100
AcDbEntity
  8
1
100
AcDbVertex
100
AcDb2dVertex
 10
-1593.369155883789
 20
252.05511474609375
 30
0.0
 70
0
  0
VERTEX
  5
377
330
340
100
AcDbEntity
  8
1
100
AcDbVertex
100
AcDb2dVertex
 10
-1344.0463562011719
 20
253.15826416015625
 30
0.0
 70
0
  0
VERTEX
  5
378
330
340
100
AcDbEntity
  8
1
100
AcDbVertex
100
AcDb2dVertex
 10
-1185.0934753417969
 20
253.28094482421875
 30
0.0
 70
0
  0
VERTEX
  5
379
330
340
100
AcDbEntity
  8
1
100
AcDbVertex
100
AcDb2dVertex
 10
-1162.2235717773438
 20
252.99371337890625
 30
0.0
 70
0
  0
VERTEX
  5
37A
330
340
100
AcDbEntity
  8
1
100
AcDbVertex
100
AcDb2dVertex
 10
-955.349609375
 20
248.29949951171875
 30
0.0
 70
0
  0
VERTEX
  5
37B
330
340
100
AcDbEntity
  8
1
100
AcDbVertex
100
AcDb2dVertex
 10
-725.1929321289062
 20
242.53631591796875
 30
0.0
 70
0
  0
VERTEX
  5
37C
330
340
100
AcDbEntity
  8
1
100
AcDbVertex
100
AcDb2dVertex
 10
-448.6661376953125
 20
234.98052978515625
 30
0.0
 70
0
  0
VERTEX
  5
37D
330
340
100
AcDbEntity
  8
1
100
AcDbVertex
100
AcDb2dVertex
 10
-263.8477783203125
 20
229.49774169921875
 30
0.0
 70
0
  0
VERTEX
  5
37E
330
340
100
AcDbEntity
  8
1
100
AcDbVertex
100
AcDb2dVertex
 10
638.6917724609375
 20
198.25128173828125
 30
0.0
 70
0
  0
VERTEX
  5
37F
330
340
100
AcDbEntity
  8
1
100
AcDbVertex
100
AcDb2dVertex
 10
1357.9886474609375
 20
171.94464111328125
 30
0.0
 70
0
  0
VERTEX
  5
380
330
340
100
AcDbEntity
  8
1
100
AcDbVertex
100
AcDb2dVertex
 10
1497.9012451171875
 20
165.65838623046875
 30
0.0
 70
0
  0
VERTEX
  5
381
330
340
100
AcDbEntity
  8
1
100
AcDbVertex
100
AcDb2dVertex
 10
1661.9552001953125
 20
156.63409423828125
 30
0.0
 70
0
  0
VERTEX
  5
382
330
340
100
AcDbEntity
  8
1
100
AcDbVertex
100
AcDb2dVertex
 10
1850.4735107421875
 20
144.45513916015625
 30
0.0
 70
0
  0
VERTEX
  5
383
330
340
100
AcDbEntity
  8
1
100
AcDbVertex
100
AcDb2dVertex
 10
2040.1065673828125
 20
130.62872314453125
 30
0.0
 70
0
  0
VERTEX
  5
384
330
340
100
AcDbEntity
  8
1
100
AcDbVertex
100
AcDb2dVertex
 10
2204.6939697265625
 20
121.11737060546875
 30
0.0
 70
0
  0
VERTEX
  5
385
330
340
100
AcDbEntity
  8
1
100
AcDbVertex
100
AcDb2dVertex
 10
2298.5155029296875
 20
116.20904541015625
 30
0.0
 70
0
  0
VERTEX
  5
386
330
340
100
AcDbEntity
  8
1
100
AcDbVertex
100
AcDb2dVertex
 10
2392.0303955078125
 20
111.91741943359375
 30
0.0
 70
0
  0
VERTEX
  5
387
330
340
100
AcDbEntity
  8
1
100
AcDbVertex
100
AcDb2dVertex
 10
2461.8695068359375
 20
109.27313232421875
 30
0.0
 70
0
  0
VERTEX
  5
388
330
340
100
AcDbEntity
  8
1
100
AcDbVertex
100
AcDb2dVertex
 10
2544.7257080078125
 20
106.97454833984375
 30
0.0
 70
0
  0
VERTEX
  5
389
330
340
100
AcDbEntity
  8
1
100
AcDbVertex
100
AcDb2dVertex
 10
2548.0716552734375
 20
106.50238037109375
 30
0.0
 70
0
  0
SEQEND
  5
344
330
340
100
AcDbEntity
  8
1
  0
POLYLINE
  5
38A
330
340
100
AcDbEntity
  8
8
100
AcDb2dPolyline
 66
1
 10
0.0
 20
0.0
 30
0.0
 70
0
  0
VERTEX
  5
38C
330
340
100
AcDbEntity
  8
8
100
AcDbVertex
100
AcDb2dVertex
 10
-2306.3880077314907
 20
-272.8746800637498
 30
0.0
 70
0
  0
VERTEX
  5
38D
330
340
100
AcDbEntity
  8
8
100
AcDbVertex
100
AcDb2dVertex
 10
-2319.3609223008275
 20
-248.49322528905782
 30
0.0
 70
0
  0
VERTEX
  5
38E
330
340
100
AcDbEntity
  8
8
100
AcDbVertex
100
AcDb2dVertex
 10
-2319.5226074466723
 20
-246.79532987827452
 30
0.0
 70
0
  0
VERTEX
  5
38F
330
340
100
AcDbEntity
  8
8
100
AcDbVertex
100
AcDb2dVertex
 10
-2318.4679700858187
 20
-243.5832634773726
 30
0.0
 70
0
  0
VERTEX
  5
390
330
340
100
AcDbEntity
  8
8
100
AcDbVertex
100
AcDb2dVertex
 10
-2316.013580539747
 20
-241.4490172147439
 30
0.0
 70
0
  0
VERTEX
  5
391
330
340
100
AcDbEntity
  8
8
100
AcDbVertex
100
AcDb2dVertex
 10
-2312.882231593948
 20
-240.57230612167996
 30
0.0
 70
0
  0
VERTEX
  5
392
330
340
100
AcDbEntity
  8
8
100
AcDbVertex
100
AcDb2dVertex
 10
-2184.6491708322314
 20
-213.30976633122077
 30
0.0
 70
0
  0
VERTEX
  5
393
330
340
100
AcDbEntity
  8
8
100
AcDbVertex
100
AcDb2dVertex
 10
-2061.922749951313
 20
-188.72635590483992
 30
0.0
 70
0
  0
VERTEX
  5
394
330
340
100
AcDbEntity
  8
8
100
AcDbVertex
100
AcDb2dVertex
 10
-1938.5126972012795
 20
-165.45404499796086
 30
0.0
 70
0
  0
VERTEX
  5
395
330
340
100
AcDbEntity
  8
8
100
AcDbVertex
100
AcDb2dVertex
 10
-1793.6626091190394
 20
-139.9841112159927
 30
0.0
 70
0
  0
VERTEX
  5
396
330
340
100
AcDbEntity
  8
8
100
AcDbVertex
100
AcDb2dVertex
 10
-1709.3279673673137
 20
-128.29489736111623
 30
0.0
 70
0
  0
VERTEX
  5
397
330
340
100
AcDbEntity
  8
8
100
AcDbVertex
100
AcDb2dVertex
 10
-1603.3488759508868
 20
-114.72025059333555
 30
0.0
 70
0
  0
VERTEX
  5
398
330
340
100
AcDbEntity
  8
8
100
AcDbVertex
100
AcDb2dVertex
 10
-1496.9190868988967
 20
-101.98485730732227
 30
0.0
 70
0
  0
VERTEX
  5
399
330
340
100
AcDbEntity
  8
8
100
AcDbVertex
100
AcDb2dVertex
 10
-1411.453204671927
 20
-92.39727048438886
 30
0.0
 70
0
  0
VERTEX
  5
39A
330
340
100
AcDbEntity
  8
8
100
AcDbVertex
100
AcDb2dVertex
 10
-1325.7002902801432
 20
-83.34491601515765
 30
0.0
 70
0
  0
VERTEX
  5
39B
330
340
100
AcDbEntity
  8
8
100
AcDbVertex
100
AcDb2dVertex
 10
-1218.1066768141573
 20
-72.78385784021748
 30
0.0
 70
0
  0
VERTEX
  5
39C
330
340
100
AcDbEntity
  8
8
100
AcDbVertex
100
AcDb2dVertex
 10
-1110.0692395378526
 20
-63.0643832654298
 30
0.0
 70
0
  0
VERTEX
  5
39D
330
340
100
AcDbEntity
  8
8
100
AcDbVertex
100
AcDb2dVertex
 10
-1023.3212244699457
 20
-55.90018769605126
 30
0.0
 70
0
  0
VERTEX
  5
39E
330
340
100
AcDbEntity
  8
8
100
AcDbVertex
100
AcDb2dVertex
 10
-1001.3428122554863
 20
-54.64514785031702
 30
0.0
 70
0
  0
VERTEX
  5
39F
330
340
100
AcDbEntity
  8
8
100
AcDbVertex
100
AcDb2dVertex
 10
-934.7506893103738
 20
-52.0871474552971
 30
0.0
 70
0
  0
VERTEX
  5
3A0
330
340
100
AcDbEntity
  8
8
100
AcDbVertex
100
AcDb2dVertex
 10
-801.1226989254476
 20
-47.78875312767968
 30
0.0
 70
0
  0
VERTEX
  5
3A1
330
340
100
AcDbEntity
  8
8
100
AcDbVertex
100
AcDb2dVertex
 10
-666.929916757289
 20
-44.53485540929455
 30
0.0
 70
0
  0
VERTEX
  5
3A2
330
340
100
AcDbEntity
  8
8
100
AcDbVertex
100
AcDb2dVertex
 10
-532.2188200595125
 20
-42.24065820185797
 30
0.0
 70
0
  0
VERTEX
  5
3A3
330
340
100
AcDbEntity
  8
8
100
AcDbVertex
100
AcDb2dVertex
 10
-374.4831911933195
 20
-40.56551024060673
 30
0.0
 70
0
  0
VERTEX
  5
3A4
330
340
100
AcDbEntity
  8
8
100
AcDbVertex
100
AcDb2dVertex
 10
665.9926576449225
 20
-32.492994986681424
 30
0.0
 70
0
  0
VERTEX
  5
3A5
330
340
100
AcDbEntity
  8
8
100
AcDbVertex
100
AcDb2dVertex
 10
1390.8974140289688
 20
-21.74808313904373
 30
0.0
 70
0
  0
VERTEX
  5
3A6
330
340
100
AcDbEntity
  8
8
100
AcDbVertex
100
AcDb2dVertex
 10
2100.5224363041743
 20
17.321662634229824
 30
0.0
 70
0
  0
VERTEX
  5
3A7
330
340
100
AcDbEntity
  8
8
100
AcDbVertex
100
AcDb2dVertex
 10
2122.049461770201
 20
19.700242510459475
 30
0.0
 70
0
  0
VERTEX
  5
3A8
330
340
100
AcDbEntity
  8
8
100
AcDbVertex
100
AcDb2dVertex
 10
2562.0332119416707
 20
75.09403735741625
 30
0.0
 70
0
  0
VERTEX
  5
3A9
330
340
100
AcDbEntity
  8
8
100
AcDbVertex
100
AcDb2dVertex
 10
2564.990560961971
 20
74.6262476138179
 30
0.0
 70
0
  0
VERTEX
  5
3AA
330
340
100
AcDbEntity
  8
8
100
AcDbVertex
100
AcDb2dVertex
 10
2566.92183650178
 20
73.34180822400003
 30
0.0
 70
0
  0
VERTEX
  5
3AB
330
340
100
AcDbEntity
  8
8
100
AcDbVertex
100
AcDb2dVertex
 10
2570.6792656503694
 20
66.86372913181708
 30
0.0
 70
0
  0
SEQEND
  5
38B
330
340
100
AcDbEntity
  8
8
  0
POLYLINE
  5
3AC
330
340
100
AcDbEntity
  8
8
100
AcDb2dPolyline
 66
1
 10
0.0
 20
0.0
 30
0.0
 70
0
  0
VERTEX
  5
3AE
330
340
100
AcDbEntity
  8
8
100
AcDbVertex
100
AcDb2dVertex
 10
-91.44360241614618
 20
238.34008980598946
 30
0.0
 70
0
  0
VERTEX
  5
3AF
330
340
100
AcDbEntity
  8
8
100
AcDbVertex
100
AcDb2dVertex
 10
-83.60155618069734
 20
220.01738145038757
 30
0.0
 70
0
  0
VERTEX
  5
3B0
330
340
100
AcDbEntity
  8
8
100
AcDbVertex
100
AcDb2dVertex
 10
-83.37479916209645
 20
216.81795188895057
 30
0.0
 70
0
  0
VERTEX
  5
3B1
330
340
100
AcDbEntity
  8
8
100
AcDbVertex
100
AcDb2dVertex
 10
-83.97173695971287
 20
213.67147234406207
 30
0.0
 70
0
  0
VERTEX
  5
3B2
330
340
100
AcDbEntity
  8
8
100
AcDbVertex
100
AcDb2dVertex
 10
-85.42384835121493
 20
210.64150353217337
 30
0.0
 70
0
  0
VERTEX
  5
3B3
330
340
100
AcDbEntity
  8
8
100
AcDbVertex
100
AcDb2dVertex
 10
-87.63166748889716
 20
208.12023367190022
 30
0.0
 70
0
  0
VERTEX
  5
3B4
330
340
100
AcDbEntity
  8
8
100
AcDbVertex
100
AcDb2dVertex
 10
-90.43269428016765
 20
206.28015877250482
 30
0.0
 70
0
  0
VERTEX
  5
3B5
330
340
100
AcDbEntity
  8
8
100
AcDbVertex
100
AcDb2dVertex
 10
-93.62393731955717
 20
205.25026803124
 30
0.0
 70
0
  0
VERTEX
  5
3B6
330
340
100
AcDbEntity
  8
8
100
AcDbVertex
100
AcDb2dVertex
 10
-370.9731047417649
 20
214.00196629655238
 30
0.0
 70
0
  0
VERTEX
  5
3B7
330
340
100
AcDbEntity
  8
8
100
AcDbVertex
100
AcDb2dVertex
 10
-808.6477501462656
 20
225.93110554576197
 30
0.0
 70
0
  0
VERTEX
  5
3B8
330
340
100
AcDbEntity
  8
8
100
AcDbVertex
100
AcDb2dVertex
 10
-1176.4281737880613
 20
234.5245809328644
 30
0.0
 70
0
  0
VERTEX
  5
3B9
330
340
100
AcDbEntity
  8
8
100
AcDbVertex
100
AcDb2dVertex
 10
-1244.5510565915301
 20
234.53121817754823
 30
0.0
 70
0
  0
VERTEX
  5
3BA
330
340
100
AcDbEntity
  8
8
100
AcDbVertex
100
AcDb2dVertex
 10
-1448.6673370215117
 20
234.09066736291857
 30
0.0
 70
0
  0
VERTEX
  5
3BB
330
340
100
AcDbEntity
  8
8
100
AcDbVertex
100
AcDb2dVertex
 10
-1629.7557883231393
 20
233.03552434652306
 30
0.0
 70
0
  0
VERTEX
  5
3BC
330
340
100
AcDbEntity
  8
8
100
AcDbVertex
100
AcDb2dVertex
 10
-1810.4470740643505
 20
231.24253117826697
 30
0.0
 70
0
  0
VERTEX
  5
3BD
330
340
100
AcDbEntity
  8
8
100
AcDbVertex
100
AcDb2dVertex
 10
-1990.6598476130687
 20
228.62920283506037
 30
0.0
 70
0
  0
VERTEX
  5
3BE
330
340
100
AcDbEntity
  8
8
100
AcDbVertex
100
AcDb2dVertex
 10
-2146.900577861858
 20
223.50657790613604
 30
0.0
 70
0
  0
VERTEX
  5
3BF
330
340
100
AcDbEntity
  8
8
100
AcDbVertex
100
AcDb2dVertex
 10
-2302.6062178367183
 20
217.35109614012526
 30
0.0
 70
0
  0
VERTEX
  5
3C0
330
340
100
AcDbEntity
  8
8
100
AcDbVertex
100
AcDb2dVertex
 10
-2435.558713846726
 20
211.082200743675
 30
0.0
 70
0
  0
VERTEX
  5
3C1
330
340
100
AcDbEntity
  8
8
100
AcDbVertex
100
AcDb2dVertex
 10
-2563.410643085809
 20
204.08546429100443
 30
0.0
 70
0
  0
VERTEX
  5
3C2
330
340
100
AcDbEntity
  8
8
100
AcDbVertex
100
AcDb2dVertex
 10
-2566.328186655217
 20
204.64783883432506
 30
0.0
 70
0
  0
VERTEX
  5
3C3
330
340
100
AcDbEntity
  8
8
100
AcDbVertex
100
AcDb2dVertex
 10
-2569.0287473065014
 20
205.87693703889113
 30
0.0
 70
0
  0
VERTEX
  5
3C4
330
340
100
AcDbEntity
  8
8
100
AcDbVertex
100
AcDb2dVertex
 10
-2572.4908158300705
 20
209.00139888108833
 30
0.0
 70
0
  0
VERTEX
  5
3C5
330
340
100
AcDbEntity
  8
8
100
AcDbVertex
100
AcDb2dVertex
 10
-2587.6406859463063
 20
238.91598158754005
 30
0.0
 70
0
  0
SEQEND
  5
3AD
330
340
100
AcDbEntity
  8
8
  0
POLYLINE
  5
3C6
330
340
100
AcDbEntity
  8
8
100
AcDb2dPolyline
 66
1
 10
0.0
 20
0.0
 30
0.0
 70
0
  0
VERTEX
  5
3C8
330
340
100
AcDbEntity
  8
8
100
AcDbVertex
100
AcDb2dVertex
 10
2555.419848030808
 20
109.14860091013225
 30
0.0
 70
0
  0
VERTEX
  5
3C9
330
340
100
AcDbEntity
  8
8
100
AcDbVertex
100
AcDb2dVertex
 10
2557.935857374693
 20
103.48317436861794
 30
0.0
 70
0
  0
VERTEX
  5
3CA
330
340
100
AcDbEntity
  8
8
100
AcDbVertex
100
AcDb2dVertex
 10
2558.2469632330117
 20
100.6681792828997
 30
0.0
 70
0
  0
VERTEX
  5
3CB
330
340
100
AcDbEntity
  8
8
100
AcDbVertex
100
AcDb2dVertex
 10
2557.9039811386942
 20
97.79134674884676
 30
0.0
 70
0
  0
VERTEX
  5
3CC
330
340
100
AcDbEntity
  8
8
100
AcDbVertex
100
AcDb2dVertex
 10
2556.7906517018596
 20
94.85385086897077
 30
0.0
 70
0
  0
VERTEX
  5
3CD
330
340
100
AcDbEntity
  8
8
100
AcDbVertex
100
AcDb2dVertex
 10
2554.519383367865
 20
91.79344810998168
 30
0.0
 70
0
  0
VERTEX
  5
3CE
330
340
100
AcDbEntity
  8
8
100
AcDbVertex
100
AcDb2dVertex
 10
2552.9844385880756
 20
90.52364521196637
 30
0.0
 70
0
  0
VERTEX
  5
3CF
330
340
100
AcDbEntity
  8
8
100
AcDbVertex
100
AcDb2dVertex
 10
2549.4221605243906
 20
88.75694651473395
 30
0.0
 70
0
  0
VERTEX
  5
3D0
330
340
100
AcDbEntity
  8
8
100
AcDbVertex
100
AcDb2dVertex
 10
2545.943898267434
 20
88.19996934447431
 30
0.0
 70
0
  0
VERTEX
  5
3D1
330
340
100
AcDbEntity
  8
8
100
AcDbVertex
100
AcDb2dVertex
 10
2448.7594395744854
 20
90.96433055550915
 30
0.0
 70
0
  0
VERTEX
  5
3D2
330
340
100
AcDbEntity
  8
8
100
AcDbVertex
100
AcDb2dVertex
 10
2355.506093754403
 20
94.7355953448016
 30
0.0
 70
0
  0
VERTEX
  5
3D3
330
340
100
AcDbEntity
  8
8
100
AcDbVertex
100
AcDb2dVertex
 10
2238.3565577107033
 20
100.52744445008852
 30
0.0
 70
0
  0
VERTEX
  5
3D4
330
340
100
AcDbEntity
  8
8
100
AcDbVertex
100
AcDb2dVertex
 10
2073.777891297255
 20
109.76734192477488
 30
0.0
 70
0
  0
VERTEX
  5
3D5
330
340
100
AcDbEntity
  8
8
100
AcDbVertex
100
AcDb2dVertex
 10
2042.9710797576513
 20
111.60673101195471
 30
0.0
 70
0
  0
VERTEX
  5
3D6
330
340
100
AcDbEntity
  8
8
100
AcDbVertex
100
AcDb2dVertex
 10
1815.051377235769
 20
128.0795900556277
 30
0.0
 70
0
  0
VERTEX
  5
3D7
330
340
100
AcDbEntity
  8
8
100
AcDbVertex
100
AcDb2dVertex
 10
1647.792493276951
 20
138.68881835218576
 30
0.0
 70
0
  0
VERTEX
  5
3D8
330
340
100
AcDbEntity
  8
8
100
AcDbVertex
100
AcDb2dVertex
 10
1553.8122317107022
 20
143.98450499755904
 30
0.0
 70
0
  0
VERTEX
  5
3D9
330
340
100
AcDbEntity
  8
8
100
AcDbVertex
100
AcDb2dVertex
 10
1460.1294893137415
 20
148.71585779805764
 30
0.0
 70
0
  0
VERTEX
  5
3DA
330
340
100
AcDbEntity
  8
8
100
AcDbVertex
100
AcDb2dVertex
 10
1366.7593588926975
 20
152.82482765030568
 30
0.0
 70
0
  0
VERTEX
  5
3DB
330
340
100
AcDbEntity
  8
8
100
AcDbVertex
100
AcDb2dVertex
 10
1292.2726659018654
 20
155.60104451096595
 30
0.0
 70
0
  0
VERTEX
  5
3DC
330
340
100
AcDbEntity
  8
8
100
AcDbVertex
100
AcDb2dVertex
 10
1287.7589314853517
 20
156.81529032980802
 30
0.0
 70
0
  0
VERTEX
  5
3DD
330
340
100
AcDbEntity
  8
8
100
AcDbVertex
100
AcDb2dVertex
 10
1285.2097188641314
 20
158.47766762215065
 30
0.0
 70
0
  0
VERTEX
  5
3DE
330
340
100
AcDbEntity
  8
8
100
AcDbVertex
100
AcDb2dVertex
 10
1283.1358562405303
 20
160.6752665267179
 30
0.0
 70
0
  0
VERTEX
  5
3DF
330
340
100
AcDbEntity
  8
8
100
AcDbVertex
100
AcDb2dVertex
 10
1280.4284939116314
 20
165.9955702321438
 30
0.0
 70
0
  0
VERTEX
  5
3E0
330
340
100
AcDbEntity
  8
8
100
AcDbVertex
100
AcDb2dVertex
 10
1272.3742231313663
 20
184.26246141027627
 30
0.0
 70
0
  0
SEQEND
  5
3C7
330
340
100
AcDbEntity
  8
8
  0
POLYLINE
  5
3E1
330
340
100
AcDbEntity
  8
8
100
AcDb2dPolyline
 66
1
 10
0.0
 20
0.0
 30
0.0
 70
0
  0
VERTEX
  5
3E3
330
340
100
AcDbEntity
  8
8
100
AcDbVertex
100
AcDb2dVertex
 10
1300.007923709019
 20
183.03393078430963
 30
0.0
 70
0
  0
VERTEX
  5
3E4
330
340
100
AcDbEntity
  8
8
100
AcDbVertex
100
AcDb2dVertex
 10
1304.2243291334416
 20
174.05299026663624
 30
0.0
 70
0
  0
VERTEX
  5
3E5
330
340
100
AcDbEntity
  8
8
100
AcDbVertex
100
AcDb2dVertex
 10
1305.5974415803712
 20
169.72682513580116
 30
0.0
 70
0
  0
VERTEX
  5
3E6
330
340
100
AcDbEntity
  8
8
100
AcDbVertex
100
AcDb2dVertex
 10
1305.368358602655
 20
165.1434524341662
 30
0.0
 70
0
  0
VERTEX
  5
3E7
330
340
100
AcDbEntity
  8
8
100
AcDbVertex
100
AcDb2dVertex
 10
1304.333907170596
 20
162.3866732435281
 30
0.0
 70
0
  0
VERTEX
  5
3E8
330
340
100
AcDbEntity
  8
8
100
AcDbVertex
100
AcDb2dVertex
 10
1302.6867109385398
 20
159.92026936462366
 30
0.0
 70
0
  0
VERTEX
  5
3E9
330
340
100
AcDbEntity
  8
8
100
AcDbVertex
100
AcDb2dVertex
 10
1300.5055782163727
 20
157.9173842756759
 30
0.0
 70
0
  0
VERTEX
  5
3EA
330
340
100
AcDbEntity
  8
8
100
AcDbVertex
100
AcDb2dVertex
 10
1296.6496445891685
 20
156.0493485420768
 30
0.0
 70
0
  0
VERTEX
  5
3EB
330
340
100
AcDbEntity
  8
8
100
AcDbVertex
100
AcDb2dVertex
 10
1273.739535348505
 20
156.2634446267641
 30
0.0
 70
0
  0
VERTEX
  5
3EC
330
340
100
AcDbEntity
  8
8
100
AcDbVertex
100
AcDb2dVertex
 10
623.7535708947471
 20
180.0407861206811
 30
0.0
 70
0
  0
VERTEX
  5
3ED
330
340
100
AcDbEntity
  8
8
100
AcDbVertex
100
AcDb2dVertex
 10
-93.49525262481552
 20
204.9595696347892
 30
0.0
 70
0
  0
VERTEX
  5
3EE
330
340
100
AcDbEntity
  8
8
100
AcDbVertex
100
AcDb2dVertex
 10
-98.21280551833979
 20
205.28328543767157
 30
0.0
 70
0
  0
VERTEX
  5
3EF
330
340
100
AcDbEntity
  8
8
100
AcDbVertex
100
AcDb2dVertex
 10
-100.49228662034307
 20
205.95298258812022
 30
0.0
 70
0
  0
VERTEX
  5
3F0
330
340
100
AcDbEntity
  8
8
100
AcDbVertex
100
AcDb2dVertex
 10
-104.4772400411639
 20
208.50689380927133
 30
0.0
 70
0
  0
VERTEX
  5
3F1
330
340
100
AcDbEntity
  8
8
100
AcDbVertex
100
AcDb2dVertex
 10
-106.03726270261927
 20
210.29857398850822
 30
0.0
 70
0
  0
VERTEX
  5
3F2
330
340
100
AcDbEntity
  8
8
100
AcDbVertex
100
AcDb2dVertex
 10
-118.92420452437659
 20
239.39906212670917
 30
0.0
 70
0
  0
SEQEND
  5
3E2
330
340
100
AcDbEntity
  8
8
  0
POLYLINE
  5
3F3
330
340
100
AcDbEntity
  8
8
100
AcDb2dPolyline
 66
1
 10
0.0
 20
0.0
 30
0.0
 70
0
  0
VERTEX
  5
3F5
330
340
100
AcDbEntity
  8
8
100
AcDbVertex
100
AcDb2dVertex
 10
2455.875931182238
 20
113.9398703001541
 30
0.0
 70
0
  0
VERTEX
  5
3F6
330
340
100
AcDbEntity
  8
8
100
AcDbVertex
100
AcDb2dVertex
 10
2460.444577705654
 20
110.20285328814862
 30
0.0
 70
0
  0
VERTEX
  5
3F7
330
340
100
AcDbEntity
  8
8
100
AcDbVertex
100
AcDb2dVertex
 10
2463.0040243205544
 20
108.7850241201811
 30
0.0
 70
0
  0
VERTEX
  5
3F8
330
340
100
AcDbEntity
  8
8
100
AcDbVertex
100
AcDb2dVertex
 10
2468.4985537349676
 20
106.95102394906394
 30
0.0
 70
0
  0
VERTEX
  5
3F9
330
340
100
AcDbEntity
  8
8
100
AcDbVertex
100
AcDb2dVertex
 10
2471.3752400101907
 20
106.52964309147774
 30
0.0
 70
0
  0
SEQEND
  5
3F4
330
340
100
AcDbEntity
  8
8
  0
POLYLINE
  5
3FA
330
340
100
AcDbEntity
  8
8
100
AcDb2dPolyline
 66
1
 10
0.0
 20
0.0
 30
0.0
 70
0
  0
VERTEX
  5
3FC
330
340
100
AcDbEntity
  8
8
100
AcDbVertex
100
AcDb2dVertex
 10
2471.3752400101907
 20
106.52964309147774
 30
0.0
 70
0
  0
VERTEX
  5
3FD
330
340
100
AcDbEntity
  8
8
100
AcDbVertex
100
AcDb2dVertex
 10
2546.0527895777127
 20
100.12146540739673
 30
0.0
 70
0
  0
SEQEND
  5
3FB
330
340
100
AcDbEntity
  8
8
  0
POLYLINE
  5
3FE
330
340
100
AcDbEntity
  8
8
100
AcDb2dPolyline
 66
1
 10
0.0
 20
0.0
 30
0.0
 70
0
  0
VERTEX
  5
400
330
340
100
AcDbEntity
  8
8
100
AcDbVertex
100
AcDb2dVertex
 10
-1820.1609240104317
 20
-185.48866534891272
 30
0.0
 70
0
  0
VERTEX
  5
401
330
340
100
AcDbEntity
  8
8
100
AcDbVertex
100
AcDb2dVertex
 10
-2006.3255532943108
 20
128.6272259209352
 30
0.0
 70
0
  0
VERTEX
  5
402
330
340
100
AcDbEntity
  8
8
100
AcDbVertex
100
AcDb2dVertex
 10
-2033.4773938736812
 20
176.27850667155735
 30
0.0
 70
0
  0
VERTEX
  5
403
330
340
100
AcDbEntity
  8
8
100
AcDbVertex
100
AcDb2dVertex
 10
-2049.965314429576
 20
206.07098330673352
 30
0.0
 70
0
  0
VERTEX
  5
404
330
340
100
AcDbEntity
  8
8
100
AcDbVertex
100
AcDb2dVertex
 10
-2085.9337541185196
 20
273.2780814608532
 30
0.0
 70
0
  0
SEQEND
  5
3FF
330
340
100
AcDbEntity
  8
8
  0
POLYLINE
  5
405
330
340
100
AcDbEntity
  8
8
100
AcDb2dPolyline
 66
1
 10
0.0
 20
0.0
 30
0.0
 70
0
  0
VERTEX
  5
407
330
340
100
AcDbEntity
  8
8
100
AcDbVertex
100
AcDb2dVertex
 10
-1066.6586341179652
 20
-95.349049620502
 30
0.0
 70
0
  0
VERTEX
  5
408
330
340
100
AcDbEntity
  8
8
100
AcDbVertex
100
AcDb2dVertex
 10
-1176.3809001178872
 20
84.12042113454595
 30
0.0
 70
0
  0
VERTEX
  5
409
330
340
100
AcDbEntity
  8
8
100
AcDbVertex
100
AcDb2dVertex
 10
-1215.155848059825
 20
148.85809216436496
 30
0.0
 70
0
  0
VERTEX
  5
40A
330
340
100
AcDbEntity
  8
8
100
AcDbVertex
100
AcDb2dVertex
 10
-1247.3387260523102
 20
205.58182640183168
 30
0.0
 70
0
  0
VERTEX
  5
40B
330
340
100
AcDbEntity
  8
8
100
AcDbVertex
100
AcDb2dVertex
 10
-1264.0441329940181
 20
236.44956927175576
 30
0.0
 70
0
  0
VERTEX
  5
40C
330
340
100
AcDbEntity
  8
8
100
AcDbVertex
100
AcDb2dVertex
 10
-1286.929473902294
 20
280.42352724377906
 30
0.0
 70
0
  0
SEQEND
  5
406
330
340
100
AcDbEntity
  8
8
  0
POLYLINE
  5
40D
330
340
100
AcDbEntity
  8
8
100
AcDb2dPolyline
 66
1
 10
0.0
 20
0.0
 30
0.0
 70
0
  0
VERTEX
  5
40F
330
340
100
AcDbEntity
  8
8
100
AcDbVertex
100
AcDb2dVertex
 10
-244.65220545924535
 20
-73.3561116290723
 30
0.0
 70
0
  0
VERTEX
  5
410
330
340
100
AcDbEntity
  8
8
100
AcDbVertex
100
AcDb2dVertex
 10
-327.77324314887323
 20
62.090307380994545
 30
0.0
 70
0
  0
VERTEX
  5
411
330
340
100
AcDbEntity
  8
8
100
AcDbVertex
100
AcDb2dVertex
 10
-363.49604227137024
 20
121.62212695489097
 30
0.0
 70
0
  0
VERTEX
  5
412
330
340
100
AcDbEntity
  8
8
100
AcDbVertex
100
AcDb2dVertex
 10
-384.96675961092023
 20
159.3449767923778
 30
0.0
 70
0
  0
VERTEX
  5
413
330
340
100
AcDbEntity
  8
8
100
AcDbVertex
100
AcDb2dVertex
 10
-400.1867971901304
 20
187.21266630173773
 30
0.0
 70
0
  0
VERTEX
  5
414
330
340
100
AcDbEntity
  8
8
100
AcDbVertex
100
AcDb2dVertex
 10
-413.81245312648457
 20
213.0742641777199
 30
0.0
 70
0
  0
VERTEX
  5
415
330
340
100
AcDbEntity
  8
8
100
AcDbVertex
100
AcDb2dVertex
 10
-435.129228393198
 20
255.30197200372277
 30
0.0
 70
0
  0
SEQEND
  5
40E
330
340
100
AcDbEntity
  8
8
  0
POLYLINE
  5
416
330
340
100
AcDbEntity
  8
8
100
AcDb2dPolyline
 66
1
 10
0.0
 20
0.0
 30
0.0
 70
0
  0
VERTEX
  5
418
330
340
100
AcDbEntity
  8
8
100
AcDbVertex
100
AcDb2dVertex
 10
627.217496697489
 20
-61.09819285109711
 30
0.0
 70
0
  0
VERTEX
  5
419
330
340
100
AcDbEntity
  8
8
100
AcDbVertex
100
AcDb2dVertex
 10
556.1365918434415
 20
53.53954876764419
 30
0.0
 70
0
  0
VERTEX
  5
41A
330
340
100
AcDbEntity
  8
8
100
AcDbVertex
100
AcDb2dVertex
 10
520.2844703261771
 20
113.20901369326748
 30
0.0
 70
0
  0
VERTEX
  5
41B
330
340
100
AcDbEntity
  8
8
100
AcDbVertex
100
AcDb2dVertex
 10
492.7049929492798
 20
162.3115622208893
 30
0.0
 70
0
  0
VERTEX
  5
41C
330
340
100
AcDbEntity
  8
8
100
AcDbVertex
100
AcDb2dVertex
 10
480.6334700223663
 20
185.24535715165598
 30
0.0
 70
0
  0
VERTEX
  5
41D
330
340
100
AcDbEntity
  8
8
100
AcDbVertex
100
AcDb2dVertex
 10
462.4043764786054
 20
221.715649663181
 30
0.0
 70
0
  0
SEQEND
  5
417
330
340
100
AcDbEntity
  8
8
  0
POLYLINE
  5
41E
330
340
100
AcDbEntity
  8
8
100
AcDb2dPolyline
 66
1
 10
0.0
 20
0.0
 30
0.0
 70
0
  0
VERTEX
  5
420
330
340
100
AcDbEntity
  8
8
100
AcDbVertex
100
AcDb2dVertex
 10
1245.0013928319831
 20
-51.3960165079684
 30
0.0
 70
0
  0
VERTEX
  5
421
330
340
100
AcDbEntity
  8
8
100
AcDbVertex
100
AcDb2dVertex
 10
1164.0142968352143
 20
52.58696503653459
 30
0.0
 70
0
  0
VERTEX
  5
422
330
340
100
AcDbEntity
  8
8
100
AcDbVertex
100
AcDb2dVertex
 10
1123.89612116447
 20
105.27664208163014
 30
0.0
 70
0
  0
VERTEX
  5
423
330
340
100
AcDbEntity
  8
8
100
AcDbVertex
100
AcDb2dVertex
 10
1107.6750524335557
 20
127.42055902957759
 30
0.0
 70
0
  0
VERTEX
  5
424
330
340
100
AcDbEntity
  8
8
100
AcDbVertex
100
AcDb2dVertex
 10
1088.037842008016
 20
155.30985370884196
 30
0.0
 70
0
  0
VERTEX
  5
425
330
340
100
AcDbEntity
  8
8
100
AcDbVertex
100
AcDb2dVertex
 10
1077.4454855380227
 20
171.11971984445108
 30
0.0
 70
0
  0
VERTEX
  5
426
330
340
100
AcDbEntity
  8
8
100
AcDbVertex
100
AcDb2dVertex
 10
1059.649193480927
 20
198.92713473119875
 30
0.0
 70
0
  0
SEQEND
  5
41F
330
340
100
AcDbEntity
  8
8
  0
POLYLINE
  5
427
330
340
100
AcDbEntity
  8
8
100
AcDb2dPolyline
 66
1
 10
0.0
 20
0.0
 30
0.0
 70
0
  0
VERTEX
  5
429
330
340
100
AcDbEntity
  8
8
100
AcDbVertex
100
AcDb2dVertex
 10
1822.442923971591
 20
-21.3504566207273
 30
0.0
 70
0
  0
VERTEX
  5
42A
330
340
100
AcDbEntity
  8
8
100
AcDbVertex
100
AcDb2dVertex
 10
1723.391702364048
 20
61.11009255460567
 30
0.0
 70
0
  0
VERTEX
  5
42B
330
340
100
AcDbEntity
  8
8
100
AcDbVertex
100
AcDb2dVertex
 10
1666.049934843475
 20
109.64004156046099
 30
0.0
 70
0
  0
VERTEX
  5
42C
330
340
100
AcDbEntity
  8
8
100
AcDbVertex
100
AcDb2dVertex
 10
1622.8754272887172
 20
147.69699264838277
 30
0.0
 70
0
  0
VERTEX
  5
42D
330
340
100
AcDbEntity
  8
8
100
AcDbVertex
100
AcDb2dVertex
 10
1595.6867034577754
 20
173.39556250942996
 30
0.0
 70
0
  0
SEQEND
  5
428
330
340
100
AcDbEntity
  8
8
  0
POLYLINE
  5
42E
330
340
100
AcDbEntity
  8
8
100
AcDb2dPolyline
 66
1
 10
0.0
 20
0.0
 30
0.0
 70
0
  0
VERTEX
  5
430
330
340
100
AcDbEntity
  8
8
100
AcDbVertex
100
AcDb2dVertex
 10
2311.891076382845
 20
22.784519086043247
 30
0.0
 70
0
  0
VERTEX
  5
431
330
340
100
AcDbEntity
  8
8
100
AcDbVertex
100
AcDb2dVertex
 10
2164.6790111244945
 20
96.91956744741151
 30
0.0
 70
0
  0
VERTEX
  5
432
330
340
100
AcDbEntity
  8
8
100
AcDbVertex
100
AcDb2dVertex
 10
2087.242037887249
 20
136.5841199069896
 30
0.0
 70
0
  0
SEQEND
  5
42F
330
340
100
AcDbEntity
  8
8
  0
ENDBLK
  5
342
330
340
100
AcDbEntity
  8
0
100
AcDbBlockEnd
  0
BLOCK
  5
436
330
435
100
AcDbEntity
  8
0
100
AcDbBlockBegin
  2
LE3M
 70
0
 10
0.0
 20
0.0
 30
0.0
  3
LE3M
  1

  0
POLYLINE
  5
438
330
435
100
AcDbEntity
  8
1
100
AcDb2dPolyline
 66
1
 10
0.0
 20
0.0
 30
0.0
 70
0
  0
VERTEX
  5
43A
330
435
100
AcDbEntity
  8
1
100
AcDbVertex
100
AcDb2dVertex
 10
-612.77587890625
 20
-253.5931396484375
 30
0.0
 70
0
  0
VERTEX
  5
43B
330
435
100
AcDbEntity
  8
1
100
AcDbVertex
100
AcDb2dVertex
 10
-623.650390625
 20
-236.874755859375
 30
0.0
 70
0
  0
VERTEX
  5
43C
330
435
100
AcDbEntity
  8
1
100
AcDbVertex
100
AcDb2dVertex
 10
-628.41259765625
 20
-228.0404052734375
 30
0.0
 70
0
  0
VERTEX
  5
43D
330
435
100
AcDbEntity
  8
1
100
AcDbVertex
100
AcDb2dVertex
 10
-631.566162109375
 20
-218.9619140625
 30
0.0
 70
0
  0
VERTEX
  5
43E
330
435
100
AcDbEntity
  8
1
100
AcDbVertex
100
AcDb2dVertex
 10
-632.1171875
 20
-209.78369140625
 30
0.0
 70
0
  0
VERTEX
  5
43F
330
435
100
AcDbEntity
  8
1
100
AcDbVertex
100
AcDb2dVertex
 10
-620.99609375
 20
-140.9317626953125
 30
0.0
 70
0
  0
VERTEX
  5
440
330
435
100
AcDbEntity
  8
1
100
AcDbVertex
100
AcDb2dVertex
 10
-619.719970703125
 20
-136.1522216796875
 30
0.0
 70
0
  0
VERTEX
  5
441
330
435
100
AcDbEntity
  8
1
100
AcDbVertex
100
AcDb2dVertex
 10
-618.435302734375
 20
-134.01708984375
 30
0.0
 70
0
  0
VERTEX
  5
442
330
435
100
AcDbEntity
  8
1
100
AcDbVertex
100
AcDb2dVertex
 10
-614.774169921875
 20
-130.7288818359375
 30
0.0
 70
0
  0
VERTEX
  5
443
330
435
100
AcDbEntity
  8
1
100
AcDbVertex
100
AcDb2dVertex
 10
-434.09130859375
 20
-58.2928466796875
 30
0.0
 70
0
  0
VERTEX
  5
444
330
435
100
AcDbEntity
  8
1
100
AcDbVertex
100
AcDb2dVertex
 10
-281.78466796875
 20
4.518310546875
 30
0.0
 70
0
  0
VERTEX
  5
445
330
435
100
AcDbEntity
  8
1
100
AcDbVertex
100
AcDb2dVertex
 10
-151.16162109375
 20
59.843505859375
 30
0.0
 70
0
  0
VERTEX
  5
446
330
435
100
AcDbEntity
  8
1
100
AcDbVertex
100
AcDb2dVertex
 10
45.72705078125
 20
145.437255859375
 30
0.0
 70
0
  0
VERTEX
  5
447
330
435
100
AcDbEntity
  8
1
100
AcDbVertex
100
AcDb2dVertex
 10
90.26123046875
 20
164.29736328125
 30
0.0
 70
0
  0
VERTEX
  5
448
330
435
100
AcDbEntity
  8
1
100
AcDbVertex
100
AcDb2dVertex
 10
311.4052734375
 20
252.9453125
 30
0.0
 70
0
  0
VERTEX
  5
449
330
435
100
AcDbEntity
  8
1
100
AcDbVertex
100
AcDb2dVertex
 10
443.82080078125
 20
305.57861328125
 30
0.0
 70
0
  0
VERTEX
  5
44A
330
435
100
AcDbEntity
  8
1
100
AcDbVertex
100
AcDb2dVertex
 10
510.189453125
 20
333.172607421875
 30
0.0
 70
0
  0
VERTEX
  5
44B
330
435
100
AcDbEntity
  8
1
100
AcDbVertex
100
AcDb2dVertex
 10
560.05078125
 20
355.046142578125
 30
0.0
 70
0
  0
VERTEX
  5
44C
330
435
100
AcDbEntity
  8
1
100
AcDbVertex
100
AcDb2dVertex
 10
562.951171875
 20
355.29150390625
 30
0.0
 70
0
  0
VERTEX
  5
44D
330
435
100
AcDbEntity
  8
1
100
AcDbVertex
100
AcDb2dVertex
 10
565.82958984375
 20
354.8623046875
 30
0.0
 70
0
  0
VERTEX
  5
44E
330
435
100
AcDbEntity
  8
1
100
AcDbVertex
100
AcDb2dVertex
 10
570.119140625
 20
352.740966796875
 30
0.0
 70
0
  0
VERTEX
  5
44F
330
435
100
AcDbEntity
  8
1
100
AcDbVertex
100
AcDb2dVertex
 10
572.6171875
 20
350.194091796875
 30
0.0
 70
0
  0
VERTEX
  5
450
330
435
100
AcDbEntity
  8
1
100
AcDbVertex
100
AcDb2dVertex
 10
574.07958984375
 20
347.599365234375
 30
0.0
 70
0
  0
VERTEX
  5
451
330
435
100
AcDbEntity
  8
1
100
AcDbVertex
100
AcDb2dVertex
 10
574.87060546875
 20
344.829345703125
 30
0.0
 70
0
  0
VERTEX
  5
452
330
435
100
AcDbEntity
  8
1
100
AcDbVertex
100
AcDb2dVertex
 10
575.00390625
 20
341.912109375
 30
0.0
 70
0
  0
VERTEX
  5
453
330
435
100
AcDbEntity
  8
1
100
AcDbVertex
100
AcDb2dVertex
 10
574.5390625
 20
338.98974609375
 30
0.0
 70
0
  0
VERTEX
  5
454
330
435
100
AcDbEntity
  8
1
100
AcDbVertex
100
AcDb2dVertex
 10
564.47119140625
 20
284.70849609375
 30
0.0
 70
0
  0
VERTEX
  5
455
330
435
100
AcDbEntity
  8
1
100
AcDbVertex
100
AcDb2dVertex
 10
564.2451171875
 20
278.97265625
 30
0.0
 70
0
  0
VERTEX
  5
456
330
435
100
AcDbEntity
  8
1
100
AcDbVertex
100
AcDb2dVertex
 10
565.1357421875
 20
273.478759765625
 30
0.0
 70
0
  0
VERTEX
  5
457
330
435
100
AcDbEntity
  8
1
100
AcDbVertex
100
AcDb2dVertex
 10
567.62255859375
 20
267.517822265625
 30
0.0
 70
0
  0
VERTEX
  5
458
330
435
100
AcDbEntity
  8
1
100
AcDbVertex
100
AcDb2dVertex
 10
571.375
 20
262.702880859375
 30
0.0
 70
0
  0
VERTEX
  5
459
330
435
100
AcDbEntity
  8
1
100
AcDbVertex
100
AcDb2dVertex
 10
575.3330078125
 20
259.22412109375
 30
0.0
 70
0
  0
VERTEX
  5
45A
330
435
100
AcDbEntity
  8
1
100
AcDbVertex
100
AcDb2dVertex
 10
626.55712890625
 20
226.42626953125
 30
0.0
 70
0
  0
VERTEX
  5
45B
330
435
100
AcDbEntity
  8
1
100
AcDbVertex
100
AcDb2dVertex
 10
628.80908203125
 20
224.50439453125
 30
0.0
 70
0
  0
VERTEX
  5
45C
330
435
100
AcDbEntity
  8
1
100
AcDbVertex
100
AcDb2dVertex
 10
630.95263671875
 20
221.308837890625
 30
0.0
 70
0
  0
VERTEX
  5
45D
330
435
100
AcDbEntity
  8
1
100
AcDbVertex
100
AcDb2dVertex
 10
632.1171875
 20
216.43798828125
 30
0.0
 70
0
  0
VERTEX
  5
45E
330
435
100
AcDbEntity
  8
1
100
AcDbVertex
100
AcDb2dVertex
 10
631.66162109375
 20
212.656982421875
 30
0.0
 70
0
  0
VERTEX
  5
45F
330
435
100
AcDbEntity
  8
1
100
AcDbVertex
100
AcDb2dVertex
 10
629.99365234375
 20
209.046875
 30
0.0
 70
0
  0
VERTEX
  5
460
330
435
100
AcDbEntity
  8
1
100
AcDbVertex
100
AcDb2dVertex
 10
628.75146484375
 20
207.486328125
 30
0.0
 70
0
  0
VERTEX
  5
461
330
435
100
AcDbEntity
  8
1
100
AcDbVertex
100
AcDb2dVertex
 10
626.0048828125
 20
205.27783203125
 30
0.0
 70
0
  0
VERTEX
  5
462
330
435
100
AcDbEntity
  8
1
100
AcDbVertex
100
AcDb2dVertex
 10
519.7216796875
 20
148.536865234375
 30
0.0
 70
0
  0
VERTEX
  5
463
330
435
100
AcDbEntity
  8
1
100
AcDbVertex
100
AcDb2dVertex
 10
395.0380859375
 20
84.15673828125
 30
0.0
 70
0
  0
VERTEX
  5
464
330
435
100
AcDbEntity
  8
1
100
AcDbVertex
100
AcDb2dVertex
 10
269.1318359375
 20
20.4365234375
 30
0.0
 70
0
  0
VERTEX
  5
465
330
435
100
AcDbEntity
  8
1
100
AcDbVertex
100
AcDb2dVertex
 10
178.09765625
 20
-25.13134765625
 30
0.0
 70
0
  0
VERTEX
  5
466
330
435
100
AcDbEntity
  8
1
100
AcDbVertex
100
AcDb2dVertex
 10
-74.111328125
 20
-143.514404296875
 30
0.0
 70
0
  0
VERTEX
  5
467
330
435
100
AcDbEntity
  8
1
100
AcDbVertex
100
AcDb2dVertex
 10
-159.27978515625
 20
-184.3802490234375
 30
0.0
 70
0
  0
VERTEX
  5
468
330
435
100
AcDbEntity
  8
1
100
AcDbVertex
100
AcDb2dVertex
 10
-243.9296875
 20
-225.6400146484375
 30
0.0
 70
0
  0
VERTEX
  5
469
330
435
100
AcDbEntity
  8
1
100
AcDbVertex
100
AcDb2dVertex
 10
-369.85107421875
 20
-288.3145751953125
 30
0.0
 70
0
  0
VERTEX
  5
46A
330
435
100
AcDbEntity
  8
1
100
AcDbVertex
100
AcDb2dVertex
 10
-498.56103515625
 20
-354.1422119140625
 30
0.0
 70
0
  0
VERTEX
  5
46B
330
435
100
AcDbEntity
  8
1
100
AcDbVertex
100
AcDb2dVertex
 10
-503.0927734375
 20
-355.29150390625
 30
0.0
 70
0
  0
VERTEX
  5
46C
330
435
100
AcDbEntity
  8
1
100
AcDbVertex
100
AcDb2dVertex
 10
-506.1337890625
 20
-355.1383056640625
 30
0.0
 70
0
  0
VERTEX
  5
46D
330
435
100
AcDbEntity
  8
1
100
AcDbVertex
100
AcDb2dVertex
 10
-509.0205078125
 20
-354.2298583984375
 30
0.0
 70
0
  0
VERTEX
  5
46E
330
435
100
AcDbEntity
  8
1
100
AcDbVertex
100
AcDb2dVertex
 10
-513.9833984375
 20
-350.8719482421875
 30
0.0
 70
0
  0
VERTEX
  5
46F
330
435
100
AcDbEntity
  8
1
100
AcDbVertex
100
AcDb2dVertex
 10
-529.7783203125
 20
-338.768310546875
 30
0.0
 70
0
  0
VERTEX
  5
470
330
435
100
AcDbEntity
  8
1
100
AcDbVertex
100
AcDb2dVertex
 10
-552.652587890625
 20
-319.676025390625
 30
0.0
 70
0
  0
VERTEX
  5
471
330
435
100
AcDbEntity
  8
1
100
AcDbVertex
100
AcDb2dVertex
 10
-574.3984375
 20
-299.19677734375
 30
0.0
 70
0
  0
VERTEX
  5
472
330
435
100
AcDbEntity
  8
1
100
AcDbVertex
100
AcDb2dVertex
 10
-588.031982421875
 20
-284.740966796875
 30
0.0
 70
0
  0
VERTEX
  5
473
330
435
100
AcDbEntity
  8
1
100
AcDbVertex
100
AcDb2dVertex
 10
-600.882080078125
 20
-269.5753173828125
 30
0.0
 70
0
  0
VERTEX
  5
474
330
435
100
AcDbEntity
  8
1
100
AcDbVertex
100
AcDb2dVertex
 10
-612.77587890625
 20
-253.5931396484375
 30
0.0
 70
0
  0
SEQEND
  5
439
330
435
100
AcDbEntity
  8
1
  0
POLYLINE
  5
475
330
435
100
AcDbEntity
  8
8
100
AcDb2dPolyline
 66
1
 10
0.0
 20
0.0
 30
0.0
 70
0
  0
VERTEX
  5
477
330
435
100
AcDbEntity
  8
8
100
AcDbVertex
100
AcDb2dVertex
 10
571.4267160495992
 20
356.3479429019494
 30
0.0
 70
0
  0
VERTEX
  5
478
330
435
100
AcDbEntity
  8
8
100
AcDbVertex
100
AcDb2dVertex
 10
568.9615790541966
 20
343.16608985366884
 30
0.0
 70
0
  0
VERTEX
  5
479
330
435
100
AcDbEntity
  8
8
100
AcDbVertex
100
AcDb2dVertex
 10
568.0815456640539
 20
339.92131823407317
 30
0.0
 70
0
  0
VERTEX
  5
47A
330
435
100
AcDbEntity
  8
8
100
AcDbVertex
100
AcDb2dVertex
 10
566.5289079485437
 20
338.01025279929763
 30
0.0
 70
0
  0
VERTEX
  5
47B
330
435
100
AcDbEntity
  8
8
100
AcDbVertex
100
AcDb2dVertex
 10
550.452888090198
 20
330.3424844322235
 30
0.0
 70
0
  0
VERTEX
  5
47C
330
435
100
AcDbEntity
  8
8
100
AcDbVertex
100
AcDb2dVertex
 10
528.204185493797
 20
320.47775146679123
 30
0.0
 70
0
  0
VERTEX
  5
47D
330
435
100
AcDbEntity
  8
8
100
AcDbVertex
100
AcDb2dVertex
 10
439.6739260376535
 20
283.6653326926271
 30
0.0
 70
0
  0
VERTEX
  5
47E
330
435
100
AcDbEntity
  8
8
100
AcDbVertex
100
AcDb2dVertex
 10
307.3048984964489
 20
231.17485508821346
 30
0.0
 70
0
  0
VERTEX
  5
47F
330
435
100
AcDbEntity
  8
8
100
AcDbVertex
100
AcDb2dVertex
 10
86.15005404312797
 20
142.40339239696277
 30
0.0
 70
0
  0
VERTEX
  5
480
330
435
100
AcDbEntity
  8
8
100
AcDbVertex
100
AcDb2dVertex
 10
41.94066884077256
 20
123.49109898417373
 30
0.0
 70
0
  0
VERTEX
  5
481
330
435
100
AcDbEntity
  8
8
100
AcDbVertex
100
AcDb2dVertex
 10
-132.8218648564798
 20
47.30594151762989
 30
0.0
 70
0
  0
VERTEX
  5
482
330
435
100
AcDbEntity
  8
8
100
AcDbVertex
100
AcDb2dVertex
 10
-273.3855236043446
 20
-12.341461162923224
 30
0.0
 70
0
  0
VERTEX
  5
483
330
435
100
AcDbEntity
  8
8
100
AcDbVertex
100
AcDb2dVertex
 10
-437.6273244056638
 20
-79.97265301046741
 30
0.0
 70
0
  0
VERTEX
  5
484
330
435
100
AcDbEntity
  8
8
100
AcDbVertex
100
AcDb2dVertex
 10
-524.6243566465446
 20
-114.97793332542142
 30
0.0
 70
0
  0
VERTEX
  5
485
330
435
100
AcDbEntity
  8
8
100
AcDbVertex
100
AcDb2dVertex
 10
-611.5546324833649
 20
-149.4029487083326
 30
0.0
 70
0
  0
SEQEND
  5
476
330
435
100
AcDbEntity
  8
8
  0
POLYLINE
  5
486
330
435
100
AcDbEntity
  8
8
100
AcDb2dPolyline
 66
1
 10
0.0
 20
0.0
 30
0.0
 70
0
  0
VERTEX
  5
488
330
435
100
AcDbEntity
  8
8
100
AcDbVertex
100
AcDb2dVertex
 10
-511.31970123388237
 20
-339.6278291138792
 30
0.0
 70
0
  0
VERTEX
  5
489
330
435
100
AcDbEntity
  8
8
100
AcDbVertex
100
AcDb2dVertex
 10
-428.59341701071116
 20
-297.07229968684965
 30
0.0
 70
0
  0
VERTEX
  5
48A
330
435
100
AcDbEntity
  8
8
100
AcDbVertex
100
AcDb2dVertex
 10
-366.1616240352032
 20
-265.4504115227976
 30
0.0
 70
0
  0
VERTEX
  5
48B
330
435
100
AcDbEntity
  8
8
100
AcDbVertex
100
AcDb2dVertex
 10
-282.40214897307214
 20
-223.68568705082635
 30
0.0
 70
0
  0
VERTEX
  5
48C
330
435
100
AcDbEntity
  8
8
100
AcDbVertex
100
AcDb2dVertex
 10
-198.0815502534897
 20
-182.34579641280243
 30
0.0
 70
0
  0
VERTEX
  5
48D
330
435
100
AcDbEntity
  8
8
100
AcDbVertex
100
AcDb2dVertex
 10
-49.25248968022515
 20
-110.9574655075919
 30
0.0
 70
0
  0
VERTEX
  5
48E
330
435
100
AcDbEntity
  8
8
100
AcDbVertex
100
AcDb2dVertex
 10
144.59016615964174
 20
-20.308541717428398
 30
0.0
 70
0
  0
VERTEX
  5
48F
330
435
100
AcDbEntity
  8
8
100
AcDbVertex
100
AcDb2dVertex
 10
187.460081051835
 20
0.3740128338904469
 30
0.0
 70
0
  0
VERTEX
  5
490
330
435
100
AcDbEntity
  8
8
100
AcDbVertex
100
AcDb2dVertex
 10
334.7006923732333
 20
74.53916095092654
 30
0.0
 70
0
  0
VERTEX
  5
491
330
435
100
AcDbEntity
  8
8
100
AcDbVertex
100
AcDb2dVertex
 10
439.1740717339426
 20
127.83654272121066
 30
0.0
 70
0
  0
VERTEX
  5
492
330
435
100
AcDbEntity
  8
8
100
AcDbVertex
100
AcDb2dVertex
 10
522.0120072118889
 20
170.9212139028141
 30
0.0
 70
0
  0
VERTEX
  5
493
330
435
100
AcDbEntity
  8
8
100
AcDbVertex
100
AcDb2dVertex
 10
617.6192386086359
 20
221.97805872541585
 30
0.0
 70
0
  0
VERTEX
  5
494
330
435
100
AcDbEntity
  8
8
100
AcDbVertex
100
AcDb2dVertex
 10
619.9285642890109
 20
222.2484859100532
 30
0.0
 70
0
  0
VERTEX
  5
495
330
435
100
AcDbEntity
  8
8
100
AcDbVertex
100
AcDb2dVertex
 10
621.7250470287772
 20
221.90975722823396
 30
0.0
 70
0
  0
VERTEX
  5
496
330
435
100
AcDbEntity
  8
8
100
AcDbVertex
100
AcDb2dVertex
 10
634.0507629940248
 20
214.28028215931363
 30
0.0
 70
0
  0
SEQEND
  5
487
330
435
100
AcDbEntity
  8
8
  0
POLYLINE
  5
497
330
435
100
AcDbEntity
  8
8
100
AcDb2dPolyline
 66
1
 10
0.0
 20
0.0
 30
0.0
 70
0
  0
VERTEX
  5
499
330
435
100
AcDbEntity
  8
8
100
AcDbVertex
100
AcDb2dVertex
 10
-605.8288200586817
 20
-129.26332181446992
 30
0.0
 70
0
  0
VERTEX
  5
49A
330
435
100
AcDbEntity
  8
8
100
AcDbVertex
100
AcDb2dVertex
 10
-603.5569374043916
 20
-129.98028256262978
 30
0.0
 70
0
  0
VERTEX
  5
49B
330
435
100
AcDbEntity
  8
8
100
AcDbVertex
100
AcDb2dVertex
 10
-599.6178526539052
 20
-132.61259452045215
 30
0.0
 70
0
  0
VERTEX
  5
49C
330
435
100
AcDbEntity
  8
8
100
AcDbVertex
100
AcDb2dVertex
 10
-597.12345097555
 20
-136.15854762518688
 30
0.0
 70
0
  0
VERTEX
  5
49D
330
435
100
AcDbEntity
  8
8
100
AcDbVertex
100
AcDb2dVertex
 10
-595.9770897129392
 20
-140.3130088566479
 30
0.0
 70
0
  0
VERTEX
  5
49E
330
435
100
AcDbEntity
  8
8
100
AcDbVertex
100
AcDb2dVertex
 10
-597.135949609552
 20
-149.86146259355814
 30
0.0
 70
0
  0
VERTEX
  5
49F
330
435
100
AcDbEntity
  8
8
100
AcDbVertex
100
AcDb2dVertex
 10
-606.9516139742818
 20
-208.48555016802197
 30
0.0
 70
0
  0
VERTEX
  5
4A0
330
435
100
AcDbEntity
  8
8
100
AcDbVertex
100
AcDb2dVertex
 10
-606.9913979903558
 20
-214.69359601344786
 30
0.0
 70
0
  0
VERTEX
  5
4A1
330
435
100
AcDbEntity
  8
8
100
AcDbVertex
100
AcDb2dVertex
 10
-605.5363008536506
 20
-218.1400573235585
 30
0.0
 70
0
  0
VERTEX
  5
4A2
330
435
100
AcDbEntity
  8
8
100
AcDbVertex
100
AcDb2dVertex
 10
-595.2025428604361
 20
-235.07640398872763
 30
0.0
 70
0
  0
VERTEX
  5
4A3
330
435
100
AcDbEntity
  8
8
100
AcDbVertex
100
AcDb2dVertex
 10
-583.588602799402
 20
-251.10015052847893
 30
0.0
 70
0
  0
VERTEX
  5
4A4
330
435
100
AcDbEntity
  8
8
100
AcDbVertex
100
AcDb2dVertex
 10
-570.9479447583763
 20
-266.3171410631792
 30
0.0
 70
0
  0
VERTEX
  5
4A5
330
435
100
AcDbEntity
  8
8
100
AcDbVertex
100
AcDb2dVertex
 10
-557.4537379974199
 20
-280.7970137360703
 30
0.0
 70
0
  0
VERTEX
  5
4A6
330
435
100
AcDbEntity
  8
8
100
AcDbVertex
100
AcDb2dVertex
 10
-543.1558982162478
 20
-294.5248884586131
 30
0.0
 70
0
  0
VERTEX
  5
4A7
330
435
100
AcDbEntity
  8
8
100
AcDbVertex
100
AcDb2dVertex
 10
-528.3494188912273
 20
-307.63894250265025
 30
0.0
 70
0
  0
VERTEX
  5
4A8
330
435
100
AcDbEntity
  8
8
100
AcDbVertex
100
AcDb2dVertex
 10
-512.9549686490891
 20
-320.18545063436613
 30
0.0
 70
0
  0
VERTEX
  5
4A9
330
435
100
AcDbEntity
  8
8
100
AcDbVertex
100
AcDb2dVertex
 10
-497.1888025944363
 20
-332.1949442556304
 30
0.0
 70
0
  0
VERTEX
  5
4AA
330
435
100
AcDbEntity
  8
8
100
AcDbVertex
100
AcDb2dVertex
 10
-493.87167351017797
 20
-335.29425742724356
 30
0.0
 70
0
  0
VERTEX
  5
4AB
330
435
100
AcDbEntity
  8
8
100
AcDbVertex
100
AcDb2dVertex
 10
-491.7898544364489
 20
-339.43430025235375
 30
0.0
 70
0
  0
VERTEX
  5
4AC
330
435
100
AcDbEntity
  8
8
100
AcDbVertex
100
AcDb2dVertex
 10
-491.33756363989505
 20
-342.34689647647406
 30
0.0
 70
0
  0
VERTEX
  5
4AD
330
435
100
AcDbEntity
  8
8
100
AcDbVertex
100
AcDb2dVertex
 10
-491.57397949303504
 20
-345.2968197116104
 30
0.0
 70
0
  0
VERTEX
  5
4AE
330
435
100
AcDbEntity
  8
8
100
AcDbVertex
100
AcDb2dVertex
 10
-492.5038902168426
 20
-348.10320193557754
 30
0.0
 70
0
  0
VERTEX
  5
4AF
330
435
100
AcDbEntity
  8
8
100
AcDbVertex
100
AcDb2dVertex
 10
-494.97144828034925
 20
-351.61644168566136
 30
0.0
 70
0
  0
SEQEND
  5
498
330
435
100
AcDbEntity
  8
8
  0
POLYLINE
  5
4B0
330
435
100
AcDbEntity
  8
8
100
AcDb2dPolyline
 66
1
 10
0.0
 20
0.0
 30
0.0
 70
0
  0
VERTEX
  5
4B2
330
435
100
AcDbEntity
  8
8
100
AcDbVertex
100
AcDb2dVertex
 10
-613.787415725496
 20
-130.18688578785736
 30
0.0
 70
0
  0
VERTEX
  5
4B3
330
435
100
AcDbEntity
  8
8
100
AcDbVertex
100
AcDb2dVertex
 10
-611.0554183756026
 20
-129.28386117970672
 30
0.0
 70
0
  0
VERTEX
  5
4B4
330
435
100
AcDbEntity
  8
8
100
AcDbVertex
100
AcDb2dVertex
 10
-608.1951197398243
 20
-128.99156050006331
 30
0.0
 70
0
  0
VERTEX
  5
4B5
330
435
100
AcDbEntity
  8
8
100
AcDbVertex
100
AcDb2dVertex
 10
-605.8288200586817
 20
-129.26332181446992
 30
0.0
 70
0
  0
SEQEND
  5
4B1
330
435
100
AcDbEntity
  8
8
  0
POLYLINE
  5
4B6
330
435
100
AcDbEntity
  8
8
100
AcDb2dPolyline
 66
1
 10
0.0
 20
0.0
 30
0.0
 70
0
  0
VERTEX
  5
4B8
330
435
100
AcDbEntity
  8
8
100
AcDbVertex
100
AcDb2dVertex
 10
543.7094226983045
 20
210.9933088230987
 30
0.0
 70
0
  0
VERTEX
  5
4B9
330
435
100
AcDbEntity
  8
8
100
AcDbVertex
100
AcDb2dVertex
 10
541.045475538027
 20
211.56576157729796
 30
0.0
 70
0
  0
VERTEX
  5
4BA
330
435
100
AcDbEntity
  8
8
100
AcDbVertex
100
AcDb2dVertex
 10
538.6434452835838
 20
210.24598469269586
 30
0.0
 70
0
  0
VERTEX
  5
4BB
330
435
100
AcDbEntity
  8
8
100
AcDbVertex
100
AcDb2dVertex
 10
537.6443090014882
 20
207.6391653919759
 30
0.0
 70
0
  0
VERTEX
  5
4BC
330
435
100
AcDbEntity
  8
8
100
AcDbVertex
100
AcDb2dVertex
 10
538.5179638898217
 20
204.96507496890672
 30
0.0
 70
0
  0
VERTEX
  5
4BD
330
435
100
AcDbEntity
  8
8
100
AcDbVertex
100
AcDb2dVertex
 10
540.877613622918
 20
203.460799814824
 30
0.0
 70
0
  0
VERTEX
  5
4BE
330
435
100
AcDbEntity
  8
8
100
AcDbVertex
100
AcDb2dVertex
 10
543.5736629764579
 20
203.86075303452844
 30
0.0
 70
0
  0
VERTEX
  5
4BF
330
435
100
AcDbEntity
  8
8
100
AcDbVertex
100
AcDb2dVertex
 10
545.3742379560299
 20
205.9544013998111
 30
0.0
 70
0
  0
VERTEX
  5
4C0
330
435
100
AcDbEntity
  8
8
100
AcDbVertex
100
AcDb2dVertex
 10
545.427795182427
 20
208.77181874617645
 30
0.0
 70
0
  0
SEQEND
  5
4B7
330
435
100
AcDbEntity
  8
8
  0
POLYLINE
  5
4C1
330
435
100
AcDbEntity
  8
8
100
AcDb2dPolyline
 66
1
 10
0.0
 20
0.0
 30
0.0
 70
0
  0
VERTEX
  5
4C3
330
435
100
AcDbEntity
  8
8
100
AcDbVertex
100
AcDb2dVertex
 10
516.7074549886556
 20
210.02621685814756
 30
0.0
 70
0
  0
VERTEX
  5
4C4
330
435
100
AcDbEntity
  8
8
100
AcDbVertex
100
AcDb2dVertex
 10
516.8508281043369
 20
204.07394325241057
 30
0.0
 70
0
  0
VERTEX
  5
4C5
330
435
100
AcDbEntity
  8
8
100
AcDbVertex
100
AcDb2dVertex
 10
518.3957080645514
 20
198.26419551356003
 30
0.0
 70
0
  0
VERTEX
  5
4C6
330
435
100
AcDbEntity
  8
8
100
AcDbVertex
100
AcDb2dVertex
 10
521.1629780140047
 20
192.9775541116378
 30
0.0
 70
0
  0
VERTEX
  5
4C7
330
435
100
AcDbEntity
  8
8
100
AcDbVertex
100
AcDb2dVertex
 10
525.0112057164506
 20
188.49631764918468
 30
0.0
 70
0
  0
VERTEX
  5
4C8
330
435
100
AcDbEntity
  8
8
100
AcDbVertex
100
AcDb2dVertex
 10
527.292218468383
 20
186.6240699992518
 30
0.0
 70
0
  0
VERTEX
  5
4C9
330
435
100
AcDbEntity
  8
8
100
AcDbVertex
100
AcDb2dVertex
 10
532.4144380019789
 20
183.73913425620685
 30
0.0
 70
0
  0
VERTEX
  5
4CA
330
435
100
AcDbEntity
  8
8
100
AcDbVertex
100
AcDb2dVertex
 10
538.0125054508035
 20
182.14829466809806
 30
0.0
 70
0
  0
VERTEX
  5
4CB
330
435
100
AcDbEntity
  8
8
100
AcDbVertex
100
AcDb2dVertex
 10
543.809281621222
 20
181.91539451579956
 30
0.0
 70
0
  0
VERTEX
  5
4CC
330
435
100
AcDbEntity
  8
8
100
AcDbVertex
100
AcDb2dVertex
 10
549.4876999852131
 20
183.0560618011341
 30
0.0
 70
0
  0
VERTEX
  5
4CD
330
435
100
AcDbEntity
  8
8
100
AcDbVertex
100
AcDb2dVertex
 10
552.1927604741395
 20
184.12079880591773
 30
0.0
 70
0
  0
SEQEND
  5
4C2
330
435
100
AcDbEntity
  8
8
  0
POLYLINE
  5
4CE
330
435
100
AcDbEntity
  8
8
100
AcDb2dPolyline
 66
1
 10
0.0
 20
0.0
 30
0.0
 70
0
  0
VERTEX
  5
4D0
330
435
100
AcDbEntity
  8
8
100
AcDbVertex
100
AcDb2dVertex
 10
552.1927604741395
 20
184.12079880591773
 30
0.0
 70
0
  0
VERTEX
  5
4D1
330
435
100
AcDbEntity
  8
8
100
AcDbVertex
100
AcDb2dVertex
 10
620.109293281339
 20
215.71820292175198
 30
0.0
 70
0
  0
SEQEND
  5
4CF
330
435
100
AcDbEntity
  8
8
  0
POLYLINE
  5
4D2
330
435
100
AcDbEntity
  8
8
100
AcDb2dPolyline
 66
1
 10
0.0
 20
0.0
 30
0.0
 70
0
  0
VERTEX
  5
4D4
330
435
100
AcDbEntity
  8
8
100
AcDbVertex
100
AcDb2dVertex
 10
516.7074549886556
 20
210.02621685814756
 30
0.0
 70
0
  0
VERTEX
  5
4D5
330
435
100
AcDbEntity
  8
8
100
AcDbVertex
100
AcDb2dVertex
 10
581.6958113065148
 20
240.0577613338064
 30
0.0
 70
0
  0
SEQEND
  5
4D3
330
435
100
AcDbEntity
  8
8
  0
POLYLINE
  5
4D6
330
435
100
AcDbEntity
  8
8
100
AcDb2dPolyline
 66
1
 10
0.0
 20
0.0
 30
0.0
 70
0
  0
VERTEX
  5
4D8
330
435
100
AcDbEntity
  8
8
100
AcDbVertex
100
AcDb2dVertex
 10
-177.05772423792678
 20
-205.56856621562952
 30
0.0
 70
0
  0
VERTEX
  5
4D9
330
435
100
AcDbEntity
  8
8
100
AcDbVertex
100
AcDb2dVertex
 10
-218.59482964135623
 20
-196.07533831663477
 30
0.0
 70
0
  0
VERTEX
  5
4DA
330
435
100
AcDbEntity
  8
8
100
AcDbVertex
100
AcDb2dVertex
 10
-251.69933880253575
 20
-187.33217537204246
 30
0.0
 70
0
  0
VERTEX
  5
4DB
330
435
100
AcDbEntity
  8
8
100
AcDbVertex
100
AcDb2dVertex
 10
-270.1465267910544
 20
-181.70182403023136
 30
0.0
 70
0
  0
VERTEX
  5
4DC
330
435
100
AcDbEntity
  8
8
100
AcDbVertex
100
AcDb2dVertex
 10
-288.9062436926961
 20
-175.097779254359
 30
0.0
 70
0
  0
VERTEX
  5
4DD
330
435
100
AcDbEntity
  8
8
100
AcDbVertex
100
AcDb2dVertex
 10
-308.3862249448366
 20
-166.89874672261794
 30
0.0
 70
0
  0
SEQEND
  5
4D7
330
435
100
AcDbEntity
  8
8
  0
POLYLINE
  5
4DE
330
435
100
AcDbEntity
  8
8
100
AcDb2dPolyline
 66
1
 10
0.0
 20
0.0
 30
0.0
 70
0
  0
VERTEX
  5
4E0
330
435
100
AcDbEntity
  8
8
100
AcDbVertex
100
AcDb2dVertex
 10
294.0632127659683
 20
23.158089925500008
 30
0.0
 70
0
  0
VERTEX
  5
4E1
330
435
100
AcDbEntity
  8
8
100
AcDbVertex
100
AcDb2dVertex
 10
231.25860878786534
 20
19.830636888218578
 30
0.0
 70
0
  0
VERTEX
  5
4E2
330
435
100
AcDbEntity
  8
8
100
AcDbVertex
100
AcDb2dVertex
 10
180.35995278658083
 20
17.598258078943672
 30
0.0
 70
0
  0
VERTEX
  5
4E3
330
435
100
AcDbEntity
  8
8
100
AcDbVertex
100
AcDb2dVertex
 10
144.27037180455318
 20
16.5679229940406
 30
0.0
 70
0
  0
VERTEX
  5
4E4
330
435
100
AcDbEntity
  8
8
100
AcDbVertex
100
AcDb2dVertex
 10
120.03013842725522
 20
16.34776080091342
 30
0.0
 70
0
  0
SEQEND
  5
4DF
330
435
100
AcDbEntity
  8
8
  0
POLYLINE
  5
4E5
330
435
100
AcDbEntity
  8
8
100
AcDb2dPolyline
 66
1
 10
0.0
 20
0.0
 30
0.0
 70
0
  0
VERTEX
  5
4E7
330
435
100
AcDbEntity
  8
8
100
AcDbVertex
100
AcDb2dVertex
 10
505.0023389132057
 20
300.58756775097754
 30
0.0
 70
0
  0
VERTEX
  5
4E8
330
435
100
AcDbEntity
  8
8
100
AcDbVertex
100
AcDb2dVertex
 10
503.62308844524523
 20
298.25048011818217
 30
0.0
 70
0
  0
VERTEX
  5
4E9
330
435
100
AcDbEntity
  8
8
100
AcDbVertex
100
AcDb2dVertex
 10
501.0875320300929
 20
297.405170838666
 30
0.0
 70
0
  0
VERTEX
  5
4EA
330
435
100
AcDbEntity
  8
8
100
AcDbVertex
100
AcDb2dVertex
 10
498.5806513335792
 20
298.4391747387899
 30
0.0
 70
0
  0
VERTEX
  5
4EB
330
435
100
AcDbEntity
  8
8
100
AcDbVertex
100
AcDb2dVertex
 10
497.28008641585893
 20
300.8913968379611
 30
0.0
 70
0
  0
VERTEX
  5
4EC
330
435
100
AcDbEntity
  8
8
100
AcDbVertex
100
AcDb2dVertex
 10
497.7954265275548
 20
303.6205027340493
 30
0.0
 70
0
  0
VERTEX
  5
4ED
330
435
100
AcDbEntity
  8
8
100
AcDbVertex
100
AcDb2dVertex
 10
499.87812177309934
 20
305.31438057286095
 30
0.0
 70
0
  0
VERTEX
  5
4EE
330
435
100
AcDbEntity
  8
8
100
AcDbVertex
100
AcDb2dVertex
 10
502.56230065276395
 20
305.2224791340004
 30
0.0
 70
0
  0
VERTEX
  5
4EF
330
435
100
AcDbEntity
  8
8
100
AcDbVertex
100
AcDb2dVertex
 10
504.5863397498206
 20
303.357750530728
 30
0.0
 70
0
  0
SEQEND
  5
4E6
330
435
100
AcDbEntity
  8
8
  0
POLYLINE
  5
4F0
330
435
100
AcDbEntity
  8
8
100
AcDb2dPolyline
 66
1
 10
0.0
 20
0.0
 30
0.0
 70
0
  0
VERTEX
  5
4F2
330
435
100
AcDbEntity
  8
8
100
AcDbVertex
100
AcDb2dVertex
 10
485.90342452123423
 20
281.18373259860937
 30
0.0
 70
0
  0
VERTEX
  5
4F3
330
435
100
AcDbEntity
  8
8
100
AcDbVertex
100
AcDb2dVertex
 10
481.73360224329554
 20
285.43820655678246
 30
0.0
 70
0
  0
VERTEX
  5
4F4
330
435
100
AcDbEntity
  8
8
100
AcDbVertex
100
AcDb2dVertex
 10
480.0284720764166
 20
287.90287454617965
 30
0.0
 70
0
  0
VERTEX
  5
4F5
330
435
100
AcDbEntity
  8
8
100
AcDbVertex
100
AcDb2dVertex
 10
477.4726188714758
 20
293.242957570787
 30
0.0
 70
0
  0
VERTEX
  5
4F6
330
435
100
AcDbEntity
  8
8
100
AcDbVertex
100
AcDb2dVertex
 10
476.2359686892896
 20
299.26503019996744
 30
0.0
 70
0
  0
VERTEX
  5
4F7
330
435
100
AcDbEntity
  8
8
100
AcDbVertex
100
AcDb2dVertex
 10
476.3000263612048
 20
305.22719391530745
 30
0.0
 70
0
  0
VERTEX
  5
4F8
330
435
100
AcDbEntity
  8
8
100
AcDbVertex
100
AcDb2dVertex
 10
477.7116562365427
 20
311.0637919570381
 30
0.0
 70
0
  0
VERTEX
  5
4F9
330
435
100
AcDbEntity
  8
8
100
AcDbVertex
100
AcDb2dVertex
 10
480.3832694805078
 20
316.392266286387
 30
0.0
 70
0
  0
VERTEX
  5
4FA
330
435
100
AcDbEntity
  8
8
100
AcDbVertex
100
AcDb2dVertex
 10
482.14127847323834
 20
318.7343616631092
 30
0.0
 70
0
  0
VERTEX
  5
4FB
330
435
100
AcDbEntity
  8
8
100
AcDbVertex
100
AcDb2dVertex
 10
486.40578399826154
 20
322.728346592442
 30
0.0
 70
0
  0
VERTEX
  5
4FC
330
435
100
AcDbEntity
  8
8
100
AcDbVertex
100
AcDb2dVertex
 10
491.47038754068853
 20
325.62130907445453
 30
0.0
 70
0
  0
SEQEND
  5
4F1
330
435
100
AcDbEntity
  8
8
  0
POLYLINE
  5
4FD
330
435
100
AcDbEntity
  8
8
100
AcDb2dPolyline
 66
1
 10
0.0
 20
0.0
 30
0.0
 70
0
  0
VERTEX
  5
4FF
330
435
100
AcDbEntity
  8
8
100
AcDbVertex
100
AcDb2dVertex
 10
491.47038754068853
 20
325.62130907445453
 30
0.0
 70
0
  0
VERTEX
  5
500
330
435
100
AcDbEntity
  8
8
100
AcDbVertex
100
AcDb2dVertex
 10
565.0451546130089
 20
356.22556892562307
 30
0.0
 70
0
  0
SEQEND
  5
4FE
330
435
100
AcDbEntity
  8
8
  0
POLYLINE
  5
501
330
435
100
AcDbEntity
  8
8
100
AcDb2dPolyline
 66
1
 10
0.0
 20
0.0
 30
0.0
 70
0
  0
VERTEX
  5
503
330
435
100
AcDbEntity
  8
8
100
AcDbVertex
100
AcDb2dVertex
 10
485.90342452123423
 20
281.18373259860937
 30
0.0
 70
0
  0
VERTEX
  5
504
330
435
100
AcDbEntity
  8
8
100
AcDbVertex
100
AcDb2dVertex
 10
556.4683303215797
 20
310.3637374618347
 30
0.0
 70
0
  0
SEQEND
  5
502
330
435
100
AcDbEntity
  8
8
  0
ENDBLK
  5
437
330
435
100
AcDbEntity
  8
0
100
AcDbBlockEnd
  0
BLOCK
  5
508
330
507
100
AcDbEntity
  8
0
100
AcDbBlockBegin
  2
LE2M
 70
0
 10
0.0
 20
0.0
 30
0.0
  3
LE2M
  1

  0
POLYLINE
  5
50A
330
507
100
AcDbEntity
  8
1
100
AcDb2dPolyline
 66
1
 10
0.0
 20
0.0
 30
0.0
 70
0
  0
VERTEX
  5
50C
330
507
100
AcDbEntity
  8
1
100
AcDbVertex
100
AcDb2dVertex
 10
-735.3047485351562
 20
-21.11651611328125
 30
0.0
 70
0
  0
VERTEX
  5
50D
330
507
100
AcDbEntity
  8
1
100
AcDbVertex
100
AcDb2dVertex
 10
-741.7036743164062
 20
1.86956787109375
 30
0.0
 70
0
  0
VERTEX
  5
50E
330
507
100
AcDbEntity
  8
1
100
AcDbVertex
100
AcDb2dVertex
 10
-744.2826538085938
 20
13.98382568359375
 30
0.0
 70
0
  0
VERTEX
  5
50F
330
507
100
AcDbEntity
  8
1
100
AcDbVertex
100
AcDb2dVertex
 10
-746.0647583007812
 20
28.91375732421875
 30
0.0
 70
0
  0
VERTEX
  5
510
330
507
100
AcDbEntity
  8
1
100
AcDbVertex
100
AcDb2dVertex
 10
-745.3097534179688
 20
45.70965576171875
 30
0.0
 70
0
  0
VERTEX
  5
511
330
507
100
AcDbEntity
  8
1
100
AcDbVertex
100
AcDb2dVertex
 10
-741.0748901367188
 20
59.32269287109375
 30
0.0
 70
0
  0
VERTEX
  5
512
330
507
100
AcDbEntity
  8
1
100
AcDbVertex
100
AcDb2dVertex
 10
-734.7212524414062
 20
72.64447021484375
 30
0.0
 70
0
  0
VERTEX
  5
513
330
507
100
AcDbEntity
  8
1
100
AcDbVertex
100
AcDb2dVertex
 10
-721.5148315429688
 20
96.76580810546875
 30
0.0
 70
0
  0
VERTEX
  5
514
330
507
100
AcDbEntity
  8
1
100
AcDbVertex
100
AcDb2dVertex
 10
-695.1536254882812
 20
142.64788818359375
 30
0.0
 70
0
  0
VERTEX
  5
515
330
507
100
AcDbEntity
  8
1
100
AcDbVertex
100
AcDb2dVertex
 10
-692.4196166992188
 20
145.82073974609375
 30
0.0
 70
0
  0
VERTEX
  5
516
330
507
100
AcDbEntity
  8
1
100
AcDbVertex
100
AcDb2dVertex
 10
-690.6869506835938
 20
147.02239990234375
 30
0.0
 70
0
  0
VERTEX
  5
517
330
507
100
AcDbEntity
  8
1
100
AcDbVertex
100
AcDb2dVertex
 10
-686.7649536132812
 20
148.47259521484375
 30
0.0
 70
0
  0
VERTEX
  5
518
330
507
100
AcDbEntity
  8
1
100
AcDbVertex
100
AcDb2dVertex
 10
-28.32757568359375
 20
165.45648193359375
 30
0.0
 70
0
  0
VERTEX
  5
519
330
507
100
AcDbEntity
  8
1
100
AcDbVertex
100
AcDb2dVertex
 10
389.98516845703125
 20
175.41058349609375
 30
0.0
 70
0
  0
VERTEX
  5
51A
330
507
100
AcDbEntity
  8
1
100
AcDbVertex
100
AcDb2dVertex
 10
709.1279907226562
 20
183.47259521484375
 30
0.0
 70
0
  0
VERTEX
  5
51B
330
507
100
AcDbEntity
  8
1
100
AcDbVertex
100
AcDb2dVertex
 10
711.9971313476562
 20
183.39324951171875
 30
0.0
 70
0
  0
VERTEX
  5
51C
330
507
100
AcDbEntity
  8
1
100
AcDbVertex
100
AcDb2dVertex
 10
714.7810668945312
 20
182.69403076171875
 30
0.0
 70
0
  0
VERTEX
  5
51D
330
507
100
AcDbEntity
  8
1
100
AcDbVertex
100
AcDb2dVertex
 10
718.8140258789062
 20
180.20037841796875
 30
0.0
 70
0
  0
VERTEX
  5
51E
330
507
100
AcDbEntity
  8
1
100
AcDbVertex
100
AcDb2dVertex
 10
720.4075317382812
 20
178.43109130859375
 30
0.0
 70
0
  0
VERTEX
  5
51F
330
507
100
AcDbEntity
  8
1
100
AcDbVertex
100
AcDb2dVertex
 10
722.4009399414062
 20
174.36224365234375
 30
0.0
 70
0
  0
VERTEX
  5
520
330
507
100
AcDbEntity
  8
1
100
AcDbVertex
100
AcDb2dVertex
 10
722.7974243164062
 20
172.22259521484375
 30
0.0
 70
0
  0
VERTEX
  5
521
330
507
100
AcDbEntity
  8
1
100
AcDbVertex
100
AcDb2dVertex
 10
722.4680786132812
 20
167.90570068359375
 30
0.0
 70
0
  0
VERTEX
  5
522
330
507
100
AcDbEntity
  8
1
100
AcDbVertex
100
AcDb2dVertex
 10
718.1531372070312
 20
159.27557373046875
 30
0.0
 70
0
  0
VERTEX
  5
523
330
507
100
AcDbEntity
  8
1
100
AcDbVertex
100
AcDb2dVertex
 10
708.5588989257812
 20
141.99700927734375
 30
0.0
 70
0
  0
VERTEX
  5
524
330
507
100
AcDbEntity
  8
1
100
AcDbVertex
100
AcDb2dVertex
 10
694.1394653320312
 20
116.24285888671875
 30
0.0
 70
0
  0
VERTEX
  5
525
330
507
100
AcDbEntity
  8
1
100
AcDbVertex
100
AcDb2dVertex
 10
687.3994750976562
 20
104.94989013671875
 30
0.0
 70
0
  0
VERTEX
  5
526
330
507
100
AcDbEntity
  8
1
100
AcDbVertex
100
AcDb2dVertex
 10
686.0559692382812
 20
101.30511474609375
 30
0.0
 70
0
  0
VERTEX
  5
527
330
507
100
AcDbEntity
  8
1
100
AcDbVertex
100
AcDb2dVertex
 10
688.0374145507812
 20
87.44989013671875
 30
0.0
 70
0
  0
VERTEX
  5
528
330
507
100
AcDbEntity
  8
1
100
AcDbVertex
100
AcDb2dVertex
 10
692.0437622070312
 20
68.03094482421875
 30
0.0
 70
0
  0
VERTEX
  5
529
330
507
100
AcDbEntity
  8
1
100
AcDbVertex
100
AcDb2dVertex
 10
697.2705688476562
 20
48.94207763671875
 30
0.0
 70
0
  0
VERTEX
  5
52A
330
507
100
AcDbEntity
  8
1
100
AcDbVertex
100
AcDb2dVertex
 10
707.4539184570312
 20
21.05780029296875
 30
0.0
 70
0
  0
VERTEX
  5
52B
330
507
100
AcDbEntity
  8
1
100
AcDbVertex
100
AcDb2dVertex
 10
715.4917602539062
 20
2.93377685546875
 30
0.0
 70
0
  0
VERTEX
  5
52C
330
507
100
AcDbEntity
  8
1
100
AcDbVertex
100
AcDb2dVertex
 10
724.2505493164062
 20
-14.85406494140625
 30
0.0
 70
0
  0
VERTEX
  5
52D
330
507
100
AcDbEntity
  8
1
100
AcDbVertex
100
AcDb2dVertex
 10
733.7402954101562
 20
-32.25714111328125
 30
0.0
 70
0
  0
VERTEX
  5
52E
330
507
100
AcDbEntity
  8
1
100
AcDbVertex
100
AcDb2dVertex
 10
743.7854614257812
 20
-49.34625244140625
 30
0.0
 70
0
  0
VERTEX
  5
52F
330
507
100
AcDbEntity
  8
1
100
AcDbVertex
100
AcDb2dVertex
 10
745.6878051757812
 20
-53.48834228515625
 30
0.0
 70
0
  0
VERTEX
  5
530
330
507
100
AcDbEntity
  8
1
100
AcDbVertex
100
AcDb2dVertex
 10
746.0181274414062
 20
-58.05426025390625
 30
0.0
 70
0
  0
VERTEX
  5
531
330
507
100
AcDbEntity
  8
1
100
AcDbVertex
100
AcDb2dVertex
 10
745.3333129882812
 20
-60.96197509765625
 30
0.0
 70
0
  0
VERTEX
  5
532
330
507
100
AcDbEntity
  8
1
100
AcDbVertex
100
AcDb2dVertex
 10
743.9819946289062
 20
-63.60992431640625
 30
0.0
 70
0
  0
VERTEX
  5
533
330
507
100
AcDbEntity
  8
1
100
AcDbVertex
100
AcDb2dVertex
 10
742.0593872070312
 20
-65.86175537109375
 30
0.0
 70
0
  0
VERTEX
  5
534
330
507
100
AcDbEntity
  8
1
100
AcDbVertex
100
AcDb2dVertex
 10
738.4883422851562
 20
-68.15997314453125
 30
0.0
 70
0
  0
VERTEX
  5
535
330
507
100
AcDbEntity
  8
1
100
AcDbVertex
100
AcDb2dVertex
 10
715.7219848632812
 20
-70.74591064453125
 30
0.0
 70
0
  0
VERTEX
  5
536
330
507
100
AcDbEntity
  8
1
100
AcDbVertex
100
AcDb2dVertex
 10
-1.58074951171875
 20
-132.94903564453125
 30
0.0
 70
0
  0
VERTEX
  5
537
330
507
100
AcDbEntity
  8
1
100
AcDbVertex
100
AcDb2dVertex
 10
-652.3696899414062
 20
-183.47259521484375
 30
0.0
 70
0
  0
VERTEX
  5
538
330
507
100
AcDbEntity
  8
1
100
AcDbVertex
100
AcDb2dVertex
 10
-656.9215698242188
 20
-182.21905517578125
 30
0.0
 70
0
  0
VERTEX
  5
539
330
507
100
AcDbEntity
  8
1
100
AcDbVertex
100
AcDb2dVertex
 10
-658.9423217773438
 20
-180.96563720703125
 30
0.0
 70
0
  0
VERTEX
  5
53A
330
507
100
AcDbEntity
  8
1
100
AcDbVertex
100
AcDb2dVertex
 10
-660.6882934570312
 20
-179.35223388671875
 30
0.0
 70
0
  0
VERTEX
  5
53B
330
507
100
AcDbEntity
  8
1
100
AcDbVertex
100
AcDb2dVertex
 10
-663.2700805664062
 20
-175.39276123046875
 30
0.0
 70
0
  0
VERTEX
  5
53C
330
507
100
AcDbEntity
  8
1
100
AcDbVertex
100
AcDb2dVertex
 10
-683.0957641601562
 20
-139.76019287109375
 30
0.0
 70
0
  0
VERTEX
  5
53D
330
507
100
AcDbEntity
  8
1
100
AcDbVertex
100
AcDb2dVertex
 10
-695.5038452148438
 20
-115.80499267578125
 30
0.0
 70
0
  0
VERTEX
  5
53E
330
507
100
AcDbEntity
  8
1
100
AcDbVertex
100
AcDb2dVertex
 10
-707.0493774414062
 20
-92.00421142578125
 30
0.0
 70
0
  0
VERTEX
  5
53F
330
507
100
AcDbEntity
  8
1
100
AcDbVertex
100
AcDb2dVertex
 10
-717.6853637695312
 20
-68.27325439453125
 30
0.0
 70
0
  0
VERTEX
  5
540
330
507
100
AcDbEntity
  8
1
100
AcDbVertex
100
AcDb2dVertex
 10
-727.1688842773438
 20
-44.54449462890625
 30
0.0
 70
0
  0
VERTEX
  5
541
330
507
100
AcDbEntity
  8
1
100
AcDbVertex
100
AcDb2dVertex
 10
-735.3047485351562
 20
-21.11651611328125
 30
0.0
 70
0
  0
SEQEND
  5
50B
330
507
100
AcDbEntity
  8
1
  0
POLYLINE
  5
542
330
507
100
AcDbEntity
  8
8
100
AcDb2dPolyline
 66
1
 10
0.0
 20
0.0
 30
0.0
 70
0
  0
VERTEX
  5
544
330
507
100
AcDbEntity
  8
8
100
AcDbVertex
100
AcDb2dVertex
 10
-680.8805301820216
 20
148.1711746010542
 30
0.0
 70
0
  0
VERTEX
  5
545
330
507
100
AcDbEntity
  8
8
100
AcDbVertex
100
AcDb2dVertex
 10
-677.0343495345717
 20
146.25442055706753
 30
0.0
 70
0
  0
VERTEX
  5
546
330
507
100
AcDbEntity
  8
8
100
AcDbVertex
100
AcDb2dVertex
 10
-675.4179496420634
 20
144.8266941566485
 30
0.0
 70
0
  0
VERTEX
  5
547
330
507
100
AcDbEntity
  8
8
100
AcDbVertex
100
AcDb2dVertex
 10
-674.0752078321868
 20
143.1349645069804
 30
0.0
 70
0
  0
VERTEX
  5
548
330
507
100
AcDbEntity
  8
8
100
AcDbVertex
100
AcDb2dVertex
 10
-672.7452933473894
 20
140.50937012936492
 30
0.0
 70
0
  0
VERTEX
  5
549
330
507
100
AcDbEntity
  8
8
100
AcDbVertex
100
AcDb2dVertex
 10
-672.0522941901106
 20
137.66003761886168
 30
0.0
 70
0
  0
VERTEX
  5
54A
330
507
100
AcDbEntity
  8
8
100
AcDbVertex
100
AcDb2dVertex
 10
-672.0462119807262
 20
134.7248430915779
 30
0.0
 70
0
  0
VERTEX
  5
54B
330
507
100
AcDbEntity
  8
8
100
AcDbVertex
100
AcDb2dVertex
 10
-672.7229752002816
 20
131.87300102338895
 30
0.0
 70
0
  0
VERTEX
  5
54C
330
507
100
AcDbEntity
  8
8
100
AcDbVertex
100
AcDb2dVertex
 10
-698.9158771537634
 20
85.92443581869338
 30
0.0
 70
0
  0
VERTEX
  5
54D
330
507
100
AcDbEntity
  8
8
100
AcDbVertex
100
AcDb2dVertex
 10
-712.8958612147544
 20
60.450093272786944
 30
0.0
 70
0
  0
VERTEX
  5
54E
330
507
100
AcDbEntity
  8
8
100
AcDbVertex
100
AcDb2dVertex
 10
-719.104678828309
 20
46.85324730899629
 30
0.0
 70
0
  0
VERTEX
  5
54F
330
507
100
AcDbEntity
  8
8
100
AcDbVertex
100
AcDb2dVertex
 10
-720.379340425699
 20
42.797818259719406
 30
0.0
 70
0
  0
VERTEX
  5
550
330
507
100
AcDbEntity
  8
8
100
AcDbVertex
100
AcDb2dVertex
 10
-721.1642814476877
 20
38.63469155461053
 30
0.0
 70
0
  0
VERTEX
  5
551
330
507
100
AcDbEntity
  8
8
100
AcDbVertex
100
AcDb2dVertex
 10
-721.0943139024926
 20
30.173169475090162
 30
0.0
 70
0
  0
VERTEX
  5
552
330
507
100
AcDbEntity
  8
8
100
AcDbVertex
100
AcDb2dVertex
 10
-719.1393750752891
 20
15.298924133221135
 30
0.0
 70
0
  0
VERTEX
  5
553
330
507
100
AcDbEntity
  8
8
100
AcDbVertex
100
AcDb2dVertex
 10
-716.3469198405728
 20
3.2314308252416595
 30
0.0
 70
0
  0
VERTEX
  5
554
330
507
100
AcDbEntity
  8
8
100
AcDbVertex
100
AcDb2dVertex
 10
-713.0671573727918
 20
-8.272208383034922
 30
0.0
 70
0
  0
VERTEX
  5
555
330
507
100
AcDbEntity
  8
8
100
AcDbVertex
100
AcDb2dVertex
 10
-705.4841837816666
 20
-31.19852604342759
 30
0.0
 70
0
  0
VERTEX
  5
556
330
507
100
AcDbEntity
  8
8
100
AcDbVertex
100
AcDb2dVertex
 10
-696.2143403391115
 20
-54.863614364103796
 30
0.0
 70
0
  0
VERTEX
  5
557
330
507
100
AcDbEntity
  8
8
100
AcDbVertex
100
AcDb2dVertex
 10
-685.7788274444058
 20
-78.4421142479298
 30
0.0
 70
0
  0
VERTEX
  5
558
330
507
100
AcDbEntity
  8
8
100
AcDbVertex
100
AcDb2dVertex
 10
-674.3779965984188
 20
-102.11293108959717
 30
0.0
 70
0
  0
VERTEX
  5
559
330
507
100
AcDbEntity
  8
8
100
AcDbVertex
100
AcDb2dVertex
 10
-662.1417942542664
 20
-125.88026457084857
 30
0.0
 70
0
  0
VERTEX
  5
55A
330
507
100
AcDbEntity
  8
8
100
AcDbVertex
100
AcDb2dVertex
 10
-639.4893905468184
 20
-167.1351967610874
 30
0.0
 70
0
  0
VERTEX
  5
55B
330
507
100
AcDbEntity
  8
8
100
AcDbVertex
100
AcDb2dVertex
 10
-638.9060240277272
 20
-170.28701123003157
 30
0.0
 70
0
  0
VERTEX
  5
55C
330
507
100
AcDbEntity
  8
8
100
AcDbVertex
100
AcDb2dVertex
 10
-639.1363959439366
 20
-173.49664390494513
 30
0.0
 70
0
  0
VERTEX
  5
55D
330
507
100
AcDbEntity
  8
8
100
AcDbVertex
100
AcDb2dVertex
 10
-640.2594897701545
 20
-176.665559028158
 30
0.0
 70
0
  0
VERTEX
  5
55E
330
507
100
AcDbEntity
  8
8
100
AcDbVertex
100
AcDb2dVertex
 10
-642.1760513672509
 20
-179.43372116222872
 30
0.0
 70
0
  0
VERTEX
  5
55F
330
507
100
AcDbEntity
  8
8
100
AcDbVertex
100
AcDb2dVertex
 10
-644.7557806558673
 20
-181.58973489618984
 30
0.0
 70
0
  0
VERTEX
  5
560
330
507
100
AcDbEntity
  8
8
100
AcDbVertex
100
AcDb2dVertex
 10
-647.8112479087033
 20
-182.98170613215166
 30
0.0
 70
0
  0
SEQEND
  5
543
330
507
100
AcDbEntity
  8
8
  0
POLYLINE
  5
561
330
507
100
AcDbEntity
  8
8
100
AcDb2dPolyline
 66
1
 10
0.0
 20
0.0
 30
0.0
 70
0
  0
VERTEX
  5
563
330
507
100
AcDbEntity
  8
8
100
AcDbVertex
100
AcDb2dVertex
 10
704.7529842106424
 20
164.60516213043275
 30
0.0
 70
0
  0
VERTEX
  5
564
330
507
100
AcDbEntity
  8
8
100
AcDbVertex
100
AcDb2dVertex
 10
402.61839706695173
 20
156.96093134368994
 30
0.0
 70
0
  0
VERTEX
  5
565
330
507
100
AcDbEntity
  8
8
100
AcDbVertex
100
AcDb2dVertex
 10
-15.753191101886841
 20
146.98737441981984
 30
0.0
 70
0
  0
VERTEX
  5
566
330
507
100
AcDbEntity
  8
8
100
AcDbVertex
100
AcDb2dVertex
 10
-341.8826150090904
 20
138.41633642931583
 30
0.0
 70
0
  0
VERTEX
  5
567
330
507
100
AcDbEntity
  8
8
100
AcDbVertex
100
AcDb2dVertex
 10
-691.3556325950035
 20
129.7585206313729
 30
0.0
 70
0
  0
SEQEND
  5
562
330
507
100
AcDbEntity
  8
8
  0
POLYLINE
  5
568
330
507
100
AcDbEntity
  8
8
100
AcDb2dPolyline
 66
1
 10
0.0
 20
0.0
 30
0.0
 70
0
  0
VERTEX
  5
56A
330
507
100
AcDbEntity
  8
8
100
AcDbVertex
100
AcDb2dVertex
 10
-658.0848997316077
 20
-165.2349552406058
 30
0.0
 70
0
  0
VERTEX
  5
56B
330
507
100
AcDbEntity
  8
8
100
AcDbVertex
100
AcDb2dVertex
 10
-12.05179174854402
 20
-114.96799395963262
 30
0.0
 70
0
  0
VERTEX
  5
56C
330
507
100
AcDbEntity
  8
8
100
AcDbVertex
100
AcDb2dVertex
 10
727.8947139323354
 20
-50.87405296875295
 30
0.0
 70
0
  0
SEQEND
  5
569
330
507
100
AcDbEntity
  8
8
  0
POLYLINE
  5
56D
330
507
100
AcDbEntity
  8
8
100
AcDb2dPolyline
 66
1
 10
0.0
 20
0.0
 30
0.0
 70
0
  0
VERTEX
  5
56F
330
507
100
AcDbEntity
  8
8
100
AcDbVertex
100
AcDb2dVertex
 10
738.8380600070122
 20
-68.74793127701264
 30
0.0
 70
0
  0
VERTEX
  5
570
330
507
100
AcDbEntity
  8
8
100
AcDbVertex
100
AcDb2dVertex
 10
734.1779338561519
 20
-69.15159262450811
 30
0.0
 70
0
  0
VERTEX
  5
571
330
507
100
AcDbEntity
  8
8
100
AcDbVertex
100
AcDb2dVertex
 10
729.5698906924299
 20
-68.48577251955135
 30
0.0
 70
0
  0
VERTEX
  5
572
330
507
100
AcDbEntity
  8
8
100
AcDbVertex
100
AcDb2dVertex
 10
726.848154593501
 20
-67.17370317869154
 30
0.0
 70
0
  0
VERTEX
  5
573
330
507
100
AcDbEntity
  8
8
100
AcDbVertex
100
AcDb2dVertex
 10
724.52153904527
 20
-65.24900243410116
 30
0.0
 70
0
  0
VERTEX
  5
574
330
507
100
AcDbEntity
  8
8
100
AcDbVertex
100
AcDb2dVertex
 10
721.1690908723858
 20
-60.270447006444556
 30
0.0
 70
0
  0
VERTEX
  5
575
330
507
100
AcDbEntity
  8
8
100
AcDbVertex
100
AcDb2dVertex
 10
711.1356377849042
 20
-43.08799660884097
 30
0.0
 70
0
  0
VERTEX
  5
576
330
507
100
AcDbEntity
  8
8
100
AcDbVertex
100
AcDb2dVertex
 10
697.187704030011
 20
-16.76069251754143
 30
0.0
 70
0
  0
VERTEX
  5
577
330
507
100
AcDbEntity
  8
8
100
AcDbVertex
100
AcDb2dVertex
 10
684.8084337882074
 20
10.422924400092597
 30
0.0
 70
0
  0
VERTEX
  5
578
330
507
100
AcDbEntity
  8
8
100
AcDbVertex
100
AcDb2dVertex
 10
677.6598074941494
 20
28.95888945088973
 30
0.0
 70
0
  0
VERTEX
  5
579
330
507
100
AcDbEntity
  8
8
100
AcDbVertex
100
AcDb2dVertex
 10
674.4565976639533
 20
38.34801699396303
 30
0.0
 70
0
  0
VERTEX
  5
57A
330
507
100
AcDbEntity
  8
8
100
AcDbVertex
100
AcDb2dVertex
 10
668.8620970547659
 20
57.454834078710974
 30
0.0
 70
0
  0
VERTEX
  5
57B
330
507
100
AcDbEntity
  8
8
100
AcDbVertex
100
AcDb2dVertex
 10
666.5774118330764
 20
67.10767822684875
 30
0.0
 70
0
  0
VERTEX
  5
57C
330
507
100
AcDbEntity
  8
8
100
AcDbVertex
100
AcDb2dVertex
 10
662.8725905196238
 20
86.678404755472
 30
0.0
 70
0
  0
VERTEX
  5
57D
330
507
100
AcDbEntity
  8
8
100
AcDbVertex
100
AcDb2dVertex
 10
662.1445258724916
 20
106.22259834958231
 30
0.0
 70
0
  0
VERTEX
  5
57E
330
507
100
AcDbEntity
  8
8
100
AcDbVertex
100
AcDb2dVertex
 10
665.0015107582517
 20
114.95111878200578
 30
0.0
 70
0
  0
VERTEX
  5
57F
330
507
100
AcDbEntity
  8
8
100
AcDbVertex
100
AcDb2dVertex
 10
669.494305887557
 20
123.42274616264194
 30
0.0
 70
0
  0
VERTEX
  5
580
330
507
100
AcDbEntity
  8
8
100
AcDbVertex
100
AcDb2dVertex
 10
698.7093977657069
 20
175.76626204465265
 30
0.0
 70
0
  0
VERTEX
  5
581
330
507
100
AcDbEntity
  8
8
100
AcDbVertex
100
AcDb2dVertex
 10
701.5225769545414
 20
179.83921467924847
 30
0.0
 70
0
  0
VERTEX
  5
582
330
507
100
AcDbEntity
  8
8
100
AcDbVertex
100
AcDb2dVertex
 10
703.4498471872062
 20
181.41482638971365
 30
0.0
 70
0
  0
VERTEX
  5
583
330
507
100
AcDbEntity
  8
8
100
AcDbVertex
100
AcDb2dVertex
 10
708.0025366226073
 20
183.27563099562576
 30
0.0
 70
0
  0
VERTEX
  5
584
330
507
100
AcDbEntity
  8
8
100
AcDbVertex
100
AcDb2dVertex
 10
715.3279273230028
 20
183.68513387500025
 30
0.0
 70
0
  0
SEQEND
  5
56E
330
507
100
AcDbEntity
  8
8
  0
POLYLINE
  5
585
330
507
100
AcDbEntity
  8
8
100
AcDb2dPolyline
 66
1
 10
0.0
 20
0.0
 30
0.0
 70
0
  0
VERTEX
  5
587
330
507
100
AcDbEntity
  8
8
100
AcDbVertex
100
AcDb2dVertex
 10
-66.07259210797702
 20
-152.0029845611457
 30
0.0
 70
0
  0
VERTEX
  5
588
330
507
100
AcDbEntity
  8
8
100
AcDbVertex
100
AcDb2dVertex
 10
-93.208854463041
 20
-109.95301709658747
 30
0.0
 70
0
  0
VERTEX
  5
589
330
507
100
AcDbEntity
  8
8
100
AcDbVertex
100
AcDb2dVertex
 10
-113.33661751728187
 20
-75.90130632799901
 30
0.0
 70
0
  0
VERTEX
  5
58A
330
507
100
AcDbEntity
  8
8
100
AcDbVertex
100
AcDb2dVertex
 10
-129.86235244971158
 20
-44.118661687231
 30
0.0
 70
0
  0
VERTEX
  5
58B
330
507
100
AcDbEntity
  8
8
100
AcDbVertex
100
AcDb2dVertex
 10
-135.3731097739851
 20
-32.5326012510568
 30
0.0
 70
0
  0
VERTEX
  5
58C
330
507
100
AcDbEntity
  8
8
100
AcDbVertex
100
AcDb2dVertex
 10
-142.72016175528142
 20
-15.557874560880919
 30
0.0
 70
0
  0
SEQEND
  5
586
330
507
100
AcDbEntity
  8
8
  0
POLYLINE
  5
58D
330
507
100
AcDbEntity
  8
8
100
AcDb2dPolyline
 66
1
 10
0.0
 20
0.0
 30
0.0
 70
0
  0
VERTEX
  5
58F
330
507
100
AcDbEntity
  8
8
100
AcDbVertex
100
AcDb2dVertex
 10
537.4883583030514
 20
-101.64033021053774
 30
0.0
 70
0
  0
VERTEX
  5
590
330
507
100
AcDbEntity
  8
8
100
AcDbVertex
100
AcDb2dVertex
 10
508.74464408331505
 20
-67.5526765582249
 30
0.0
 70
0
  0
VERTEX
  5
591
330
507
100
AcDbEntity
  8
8
100
AcDbVertex
100
AcDb2dVertex
 10
496.2999078523685
 20
-51.805634909184846
 30
0.0
 70
0
  0
VERTEX
  5
592
330
507
100
AcDbEntity
  8
8
100
AcDbVertex
100
AcDb2dVertex
 10
488.02691616170523
 20
-40.62535402529238
 30
0.0
 70
0
  0
VERTEX
  5
593
330
507
100
AcDbEntity
  8
8
100
AcDbVertex
100
AcDb2dVertex
 10
481.8304217689424
 20
-32.04525164422466
 30
0.0
 70
0
  0
VERTEX
  5
594
330
507
100
AcDbEntity
  8
8
100
AcDbVertex
100
AcDb2dVertex
 10
469.3812702238811
 20
-13.060781444017266
 30
0.0
 70
0
  0
VERTEX
  5
595
330
507
100
AcDbEntity
  8
8
100
AcDbVertex
100
AcDb2dVertex
 10
461.1694752773601
 20
0.6659301100062294
 30
0.0
 70
0
  0
VERTEX
  5
596
330
507
100
AcDbEntity
  8
8
100
AcDbVertex
100
AcDb2dVertex
 10
454.8373829941643
 20
12.201588140381773
 30
0.0
 70
0
  0
SEQEND
  5
58E
330
507
100
AcDbEntity
  8
8
  0
POLYLINE
  5
597
330
507
100
AcDbEntity
  8
8
100
AcDb2dPolyline
 66
1
 10
0.0
 20
0.0
 30
0.0
 70
0
  0
VERTEX
  5
599
330
507
100
AcDbEntity
  8
8
100
AcDbVertex
100
AcDb2dVertex
 10
-94.41038518321557
 20
179.15281372524987
 30
0.0
 70
0
  0
VERTEX
  5
59A
330
507
100
AcDbEntity
  8
8
100
AcDbVertex
100
AcDb2dVertex
 10
-97.63187699402488
 20
174.05460667557327
 30
0.0
 70
0
  0
SEQEND
  5
598
330
507
100
AcDbEntity
  8
8
  0
POLYLINE
  5
59B
330
507
100
AcDbEntity
  8
8
100
AcDb2dPolyline
 66
1
 10
0.0
 20
0.0
 30
0.0
 70
0
  0
VERTEX
  5
59D
330
507
100
AcDbEntity
  8
8
100
AcDbVertex
100
AcDb2dVertex
 10
626.4669875168156
 20
192.24598286232458
 30
0.0
 70
0
  0
VERTEX
  5
59E
330
507
100
AcDbEntity
  8
8
100
AcDbVertex
100
AcDb2dVertex
 10
631.2031423780063
 20
186.3000400566275
 30
0.0
 70
0
  0
SEQEND
  5
59C
330
507
100
AcDbEntity
  8
8
  0
POLYLINE
  5
59F
330
507
100
AcDbEntity
  8
8
100
AcDb2dPolyline
 66
1
 10
0.0
 20
0.0
 30
0.0
 70
0
  0
VERTEX
  5
5A1
330
507
100
AcDbEntity
  8
8
100
AcDbVertex
100
AcDb2dVertex
 10
631.2031423780063
 20
186.3000400566275
 30
0.0
 70
0
  0
VERTEX
  5
5A2
330
507
100
AcDbEntity
  8
8
100
AcDbVertex
100
AcDb2dVertex
 10
639.0615282460003
 20
176.32748130572236
 30
0.0
 70
0
  0
SEQEND
  5
5A0
330
507
100
AcDbEntity
  8
8
  0
POLYLINE
  5
5A3
330
507
100
AcDbEntity
  8
8
100
AcDb2dPolyline
 66
1
 10
0.0
 20
0.0
 30
0.0
 70
0
  0
VERTEX
  5
5A5
330
507
100
AcDbEntity
  8
8
100
AcDbVertex
100
AcDb2dVertex
 10
639.0615282460003
 20
176.32748130572236
 30
0.0
 70
0
  0
VERTEX
  5
5A6
330
507
100
AcDbEntity
  8
8
100
AcDbVertex
100
AcDb2dVertex
 10
660.0278020837336
 20
193.68065466468943
 30
0.0
 70
0
  0
SEQEND
  5
5A4
330
507
100
AcDbEntity
  8
8
  0
ENDBLK
  5
509
330
507
100
AcDbEntity
  8
0
100
AcDbBlockEnd
  0
ENDSEC
  0
SECTION
  2
ENTITIES
  0
INSERT
  5
187
330
17
100
AcDbEntity
  8
0
100
AcDbBlockReference
  2
TSR
 10
1457.385986328125
 20
536.996826171875
 30
0.0
  0
INSERT
  5
268
330
17
100
AcDbEntity
  8
0
100
AcDbBlockReference
  2
LE1M
 10
-477.2184143066406
 20
2169.4945068359375
 30
0.0
  0
INSERT
  5
33E
330
17
100
AcDbEntity
  8
0
100
AcDbBlockReference
  2
US
 10
1515.7461547851562
 20
3601.901611328125
 30
0.0
  0
INSERT
  5
433
330
17
100
AcDbEntity
  8
0
100
AcDbBlockReference
  2
TSF
 10
1476.3131103515625
 20
1611.9396362304688
 30
0.0
  0
INSERT
  5
505
330
17
100
AcDbEntity
  8
0
100
AcDbBlockReference
  2
LE3M
 10
4647.03173828125
 20
2082.557373046875
 30
0.0
  0
INSERT
  5
5A7
330
17
100
AcDbEntity
  8
0
100
AcDbBlockReference
  2
LE2M
 10
2567.7304077148438
 20
2108.3286743164062
 30
0.0
  0
ENDSEC
  0
SECTION
  2
OBJECTS
  0
DICTIONARY
  5
A
330
0
100
AcDbDictionary
281
1
  3
ACAD_COLOR
350
B
  3
ACAD_GROUP
350
C
  3
ACAD_LAYOUT
350
D
  3
ACAD_MATERIAL
350
E
  3
ACAD_MLEADERSTYLE
350
F
  3
ACAD_MLINESTYLE
350
10
  3
ACAD_PLOTSETTINGS
350
11
  3
ACAD_PLOTSTYLENAME
350
12
  3
ACAD_SCALELIST
350
14
  3
ACAD_TABLESTYLE
350
15
  3
ACAD_VISUALSTYLE
350
16
  3
EZDXF_META
350
2D
  0
DICTIONARY
  5
B
330
A
100
AcDbDictionary
281
1
  0
DICTIONARY
  5
C
330
A
100
AcDbDictionary
281
1
  0
DICTIONARY
  5
D
330
A
100
AcDbDictionary
281
1
  3
Model
350
1A
  3
Layout1
350
1E
  0
DICTIONARY
  5
E
330
A
100
AcDbDictionary
281
1
  3
ByBlock
350
1F
  3
ByLayer
350
20
  3
Global
350
21
  0
DICTIONARY
  5
F
330
A
100
AcDbDictionary
281
1
  3
Standard
350
2C
  0
DICTIONARY
  5
10
330
A
100
AcDbDictionary
281
1
  3
Standard
350
22
  0
DICTIONARY
  5
11
330
A
100
AcDbDictionary
281
1
  0
ACDBDICTIONARYWDFLT
  5
12
330
A
100
AcDbDictionary
281
1
  3
Normal
350
13
100
AcDbDictionaryWithDefault
340
13
  0
ACDBPLACEHOLDER
  5
13
330
12
  0
DICTIONARY
  5
14
330
A
100
AcDbDictionary
281
1
  0
DICTIONARY
  5
15
330
A
100
AcDbDictionary
281
1
  0
DICTIONARY
  5
16
330
A
100
AcDbDictionary
281
1
  0
LAYOUT
  5
1A
330
D
100
AcDbPlotSettings
  1

  2
Adobe PDF
  4
A3
  6

 40
7.5
 41
20.0
 42
7.5
 43
20.0
 44
420.0
 45
297.0
 46
0.0
 47
0.0
 48
0.0
 49
0.0
140
0.0
141
0.0
142
1.0
143
1.0
 70
1024
 72
1
 73
1
 74
5
  7

 75
16
 76
0
 77
2
 78
300
147
1.0
148
0.0
149
0.0
100
AcDbLayout
  1
Model
 70
1
 71
0
 10
0.0
 20
0.0
 11
420.0
 21
297.0
 12
0.0
 22
0.0
 32
0.0
 14
1e+20
 24
1e+20
 34
1e+20
 15
-1e+20
 25
-1e+20
 35
-1e+20
146
0.0
 13
0.0
 23
0.0
 33
0.0
 16
1.0
 26
0.0
 36
0.0
 17
0.0
 27
1.0
 37
0.0
 76
1
330
17
  0
LAYOUT
  5
1E
330
D
100
AcDbPlotSettings
  1

  2
Adobe PDF
  4
A3
  6

 40
7.5
 41
20.0
 42
7.5
 43
20.0
 44
420.0
 45
297.0
 46
0.0
 47
0.0
 48
0.0
 49
0.0
140
0.0
141
0.0
142
1.0
143
1.0
 70
0
 72
1
 73
1
 74
5
  7

 75
16
 76
0
 77
2
 78
300
147
1.0
148
0.0
149
0.0
100
AcDbLayout
  1
Layout1
 70
1
 71
1
 10
0.0
 20
0.0
 11
420.0
 21
297.0
 12
0.0
 22
0.0
 32
0.0
 14
1e+20
 24
1e+20
 34
1e+20
 15
-1e+20
 25
-1e+20
 35
-1e+20
146
0.0
 13
0.0
 23
0.0
 33
0.0
 16
1.0
 26
0.0
 36
0.0
 17
0.0
 27
1.0
 37
0.0
 76
1
330
1B
  0
MATERIAL
  5
1F
102
{ACAD_REACTORS
330
E
102
}
330
E
100
AcDbMaterial
  1
ByBlock
  2

 70
0
 40
1.0
 71
1
 41
1.0
 91
-1023410177
 42
1.0
 72
1
  3

 73
1
 74
1
 75
1
 44
0.5
 73
0
 45
1.0
 46
1.0
 77
1
  4

 78
1
 79
1
170
1
 48
1.0
171
1
  6

172
1
173
1
174
1
140
1.0
141
1.0
175
1
  7

176
1
177
1
178
1
143
1.0
179
1
  8

270
1
271
1
272
1
145
1.0
146
1.0
273
1
  9

274
1
275
1
276
1
 42
1.0
 72
1
  3

 73
1
 74
1
 75
1
 94
63
  0
MATERIAL
  5
20
102
{ACAD_REACTORS
330
E
102
}
330
E
100
AcDbMaterial
  1
ByLayer
  2

 70
0
 40
1.0
 71
1
 41
1.0
 91
-1023410177
 42
1.0
 72
1
  3

 73
1
 74
1
 75
1
 44
0.5
 73
0
 45
1.0
 46
1.0
 77
1
  4

 78
1
 79
1
170
1
 48
1.0
171
1
  6

172
1
173
1
174
1
140
1.0
141
1.0
175
1
  7

176
1
177
1
178
1
143
1.0
179
1
  8

270
1
271
1
272
1
145
1.0
146
1.0
273
1
  9

274
1
275
1
276
1
 42
1.0
 72
1
  3

 73
1
 74
1
 75
1
 94
63
  0
MATERIAL
  5
21
102
{ACAD_REACTORS
330
E
102
}
330
E
100
AcDbMaterial
  1
Global
  2

 70
0
 40
1.0
 71
1
 41
1.0
 91
-1023410177
 42
1.0
 72
1
  3

 73
1
 74
1
 75
1
 44
0.5
 73
0
 45
1.0
 46
1.0
 77
1
  4

 78
1
 79
1
170
1
 48
1.0
171
1
  6

172
1
173
1
174
1
140
1.0
141
1.0
175
1
  7

176
1
177
1
178
1
143
1.0
179
1
  8

270
1
271
1
272
1
145
1.0
146
1.0
273
1
  9

274
1
275
1
276
1
 42
1.0
 72
1
  3

 73
1
 74
1
 75
1
 94
63
  0
MLINESTYLE
  5
22
102
{ACAD_REACTORS
330
10
102
}
330
10
100
AcDbMlineStyle
  2
Standard
 70
0
  3

 62
256
 51
90.0
 52
90.0
 71
2
 49
0.5
 62
256
  6
BYLAYER
 49
-0.5
 62
256
  6
BYLAYER
  0
MLEADERSTYLE
  5
2C
102
{ACAD_REACTORS
330
F
102
}
330
F
100
AcDbMLeaderStyle
179
2
170
2
171
1
172
0
 90
2
 40
0.0
 41
0.0
173
1
 91
-1056964608
 92
-2
290
1
 42
2.0
291
1
 43
8.0
  3
Standard
 44
4.0
300

342
29
174
1
175
1
176
0
178
1
 93
-1056964608
 45
4.0
292
0
297
0
 46
4.0
 94
-1056964608
 47
1.0
 49
1.0
140
1.0
294
1
141
0.0
177
0
142
1.0
295
0
296
0
143
3.75
271
0
272
9
273
9
  0
DICTIONARY
  5
2D
330
A
100
AcDbDictionary
280
1
281
1
  3
CREATED_BY_EZDXF
350
2E
  3
WRITTEN_BY_EZDXF
350
5AC
  0
DICTIONARYVAR
  5
2E
330
2D
100
DictionaryVariables
280
0
  1
0.17 @ 2022-04-24T18:17:30.654224+00:00
  0
DICTIONARYVAR
  5
5AC
330
2D
100
DictionaryVariables
280
0
  1
0.17 @ 2022-04-24T18:17:34.413460+00:00
  0
ENDSEC
  0
EOF
